<svg width="200" height="48" viewBox="0 0 200 48" fill="none" xmlns="http://www.w3.org/2000/svg">
<path d="M44.3316 12.5198C41.8516 9.8698 34.7816 9.9298 34.7816 9.9298C29.9816 10.0498 26.6016 12.5398 24.2516 13.3798C19.3016 15.1298 15.8715 16.3698 12.2415 19.2298C8.98155 21.7898 6.81159 25.1298 4.60159 28.5898C2.19159 32.1898 1.07156 33.2898 2.38156 35.7998C3.26156 37.4898 7.02158 35.8198 7.02158 35.8198C6.59158 35.5898 6.58159 34.4798 6.60159 34.0998C6.77159 32.2198 9.90158 30.1298 12.2116 29.3298L12.5416 29.2198L12.6216 25.0698C12.6716 25.0898 12.7316 25.0998 12.7816 25.1098C16.9116 26.1998 21.6016 25.5798 25.6516 22.5698C25.7916 22.9698 25.9416 23.4598 25.9016 23.9998H26.6516C26.8316 22.4598 25.7916 20.9598 24.0716 20.8498C24.5716 21.2498 24.9315 21.5698 25.1115 21.8498L25.0116 21.9498C20.4816 25.1198 16.0616 24.6198 14.1516 24.2198L17.3916 21.2398L16.5616 19.1498C23.0216 16.8998 28.1616 15.3998 36.2616 13.9698L37.3216 13.7798L35.0816 11.9698L35.3116 11.8298C40.3116 13.2198 43.7916 14.4198 43.6616 16.6498C43.6016 17.0598 45.7516 19.7698 45.9816 16.1998C46.1316 14.1898 45.5716 13.8398 44.3316 12.5198Z" fill="#F5C7A3"/>
<path d="M37.2919 34.8198C34.7519 34.9998 35.0019 33.6398 36.5119 31.6698C39.9519 27.0898 46.3119 20.8598 46.6019 16.3098C47.0019 10.3998 41.0519 8.56982 34.9319 8.56982C30.6719 8.67982 26.2719 9.85982 23.2619 10.9298C12.9219 14.5798 6.4419 20.3098 2.3219 26.7598C-1.9381 33.1298 -0.608087 39.2598 8.58191 39.4398C15.5319 39.1498 20.2119 37.2198 24.9319 34.7898C24.9619 34.7898 11.8019 38.5498 6.93189 35.7898C6.39189 35.4998 5.86193 35.1098 5.72193 33.9998C5.72193 31.7398 9.4419 29.3798 11.6319 28.6298V24.7598V23.4498C11.6319 23.4498 12.3919 23.7998 13.2119 23.9998L16.4019 20.8798L15.5119 18.6198C21.8519 16.3998 27.0719 14.7898 35.7619 13.2498L33.8219 11.6798L34.8219 11.0698C39.9719 12.4998 43.4419 13.5698 43.2719 16.2998C43.2019 16.7598 43.0219 17.2998 42.7319 17.8798C41.2019 20.9198 36.6919 25.8298 34.8619 27.9398C33.6819 29.3398 32.5019 30.6298 31.6719 31.9198C30.7419 33.2398 30.2719 34.4598 30.2419 35.5698C30.4219 44.5598 56.9419 31.3498 62.1719 27.8698C54.5419 31.1298 46.2719 34.2498 37.2919 34.8198Z" fill="#FF6A00"/>
<path d="M58.4618 11.23H61.5118L67.5918 27.05H64.4618L63.2218 23.79H56.7618L55.4718 27.05H52.3418L58.4618 11.23ZM60.0118 15.42L57.8918 20.85H62.1218L60.0118 15.42Z" fill="#FF6A00"/>
<path d="M69.2822 10.8296H72.2222V27.0496H69.2822V10.8296Z" fill="#FF6A00"/>
<path d="M76.0314 10.5298C76.5414 10.5298 76.9914 10.7198 77.3514 11.0898C77.7214 11.4598 77.9014 11.9098 77.9014 12.4498C77.9014 12.9698 77.7214 13.4198 77.3514 13.7898C76.9914 14.1598 76.5514 14.3398 76.0414 14.3398C75.5214 14.3398 75.0714 14.1498 74.7014 13.7798C74.3314 13.3998 74.1514 12.9498 74.1514 12.4098C74.1514 11.8898 74.3314 11.4498 74.7014 11.0898C75.0814 10.7098 75.5214 10.5298 76.0314 10.5298ZM74.5613 15.3498H77.5013V27.0498H74.5613V15.3498Z" fill="#FF6A00"/>
<path d="M83.0821 10.8296V16.6396C83.6121 16.1096 84.1821 15.7096 84.8021 15.4496C85.4221 15.1796 86.0821 15.0496 86.7821 15.0496C88.3121 15.0496 89.6021 15.6296 90.6721 16.7796C91.7421 17.9296 92.2721 19.4096 92.2721 21.2196C92.2721 22.9596 91.7221 24.4196 90.6121 25.5896C89.5121 26.7596 88.2021 27.3496 86.6821 27.3496C86.0121 27.3496 85.3821 27.2296 84.8021 26.9896C84.2221 26.7496 83.6421 26.3596 83.0721 25.8096V27.0496H80.1621V10.8296H83.0821ZM86.1721 17.7596C85.2521 17.7596 84.4821 18.0796 83.8721 18.7096C83.2621 19.3396 82.9621 20.1696 82.9621 21.1796C82.9621 22.2196 83.2621 23.0596 83.8721 23.6996C84.4821 24.3396 85.2521 24.6596 86.1721 24.6596C87.0721 24.6596 87.8221 24.3296 88.4321 23.6796C89.0421 23.0296 89.3521 22.1996 89.3521 21.1796C89.3521 20.1796 89.0521 19.3496 88.4521 18.7096C87.8521 18.0796 87.0921 17.7596 86.1721 17.7596Z" fill="#FF6A00"/>
<path d="M103.342 15.3498H106.282V27.0498H103.342V25.8098C102.772 26.3498 102.192 26.7498 101.622 26.9898C101.042 27.2298 100.422 27.3498 99.7516 27.3498C98.2416 27.3498 96.9317 26.7598 95.8317 25.5898C94.7317 24.4198 94.1816 22.9598 94.1816 21.2198C94.1816 19.4098 94.7117 17.9298 95.7817 16.7798C96.8517 15.6298 98.1416 15.0498 99.6716 15.0498C100.372 15.0498 101.032 15.1798 101.652 15.4498C102.272 15.7198 102.842 16.1098 103.362 16.6398V15.3498H103.342ZM100.262 17.7598C99.3517 17.7598 98.6016 18.0798 98.0016 18.7198C97.4016 19.3598 97.1017 20.1798 97.1017 21.1898C97.1017 22.1998 97.4117 23.0298 98.0217 23.6898C98.6317 24.3398 99.3817 24.6698 100.282 24.6698C101.202 24.6698 101.972 24.3498 102.572 23.7098C103.182 23.0698 103.482 22.2298 103.482 21.1898C103.482 20.1698 103.182 19.3498 102.572 18.7198C101.952 18.0698 101.192 17.7598 100.262 17.7598Z" fill="#FF6A00"/>
<path d="M112.162 10.8296V16.6396C112.692 16.1096 113.262 15.7096 113.882 15.4496C114.502 15.1796 115.162 15.0496 115.862 15.0496C117.392 15.0496 118.682 15.6296 119.752 16.7796C120.822 17.9296 121.352 19.4096 121.352 21.2196C121.352 22.9596 120.802 24.4196 119.692 25.5896C118.592 26.7596 117.282 27.3496 115.762 27.3496C115.092 27.3496 114.462 27.2296 113.882 26.9896C113.302 26.7496 112.722 26.3596 112.152 25.8096V27.0496H109.242V10.8296H112.162ZM115.252 17.7596C114.332 17.7596 113.562 18.0796 112.952 18.7096C112.342 19.3396 112.042 20.1696 112.042 21.1796C112.042 22.2196 112.342 23.0596 112.952 23.6996C113.562 24.3396 114.332 24.6596 115.252 24.6596C116.152 24.6596 116.902 24.3296 117.512 23.6796C118.122 23.0296 118.432 22.1996 118.432 21.1796C118.432 20.1796 118.132 19.3496 117.532 18.7096C116.932 18.0796 116.172 17.7596 115.252 17.7596Z" fill="#FF6A00"/>
<path d="M132.422 15.3498H135.362V27.0498H132.422V25.8098C131.852 26.3498 131.272 26.7498 130.702 26.9898C130.122 27.2298 129.502 27.3498 128.832 27.3498C127.322 27.3498 126.012 26.7598 124.912 25.5898C123.812 24.4198 123.262 22.9598 123.262 21.2198C123.262 19.4098 123.792 17.9298 124.862 16.7798C125.932 15.6298 127.222 15.0498 128.752 15.0498C129.452 15.0498 130.112 15.1798 130.732 15.4498C131.352 15.7198 131.922 16.1098 132.442 16.6398V15.3498H132.422ZM129.342 17.7598C128.432 17.7598 127.682 18.0798 127.082 18.7198C126.482 19.3598 126.182 20.1798 126.182 21.1898C126.182 22.1998 126.492 23.0298 127.102 23.6898C127.712 24.3398 128.462 24.6698 129.362 24.6698C130.282 24.6698 131.052 24.3498 131.652 23.7098C132.262 23.0698 132.562 22.2298 132.562 21.1898C132.562 20.1698 132.262 19.3498 131.652 18.7198C131.042 18.0698 130.272 17.7598 129.342 17.7598Z" fill="#FF6A00"/>
<path d="M139.932 23.98C140.402 23.98 140.792 24.14 141.122 24.47C141.452 24.8 141.612 25.19 141.612 25.66C141.612 26.13 141.442 26.52 141.122 26.85C140.792 27.18 140.392 27.34 139.932 27.34C139.462 27.34 139.072 27.17 138.742 26.85C138.412 26.52 138.252 26.12 138.252 25.66C138.252 25.19 138.412 24.8 138.742 24.47C139.072 24.15 139.472 23.98 139.932 23.98Z" fill="#FF6A00"/>
<path d="M156.042 17.7798L154.852 18.5198C153.822 17.1498 152.412 16.4698 150.632 16.4698C149.202 16.4698 148.022 16.9298 147.082 17.8498C146.142 18.7698 145.672 19.8798 145.672 21.1898C145.672 22.0398 145.892 22.8398 146.322 23.5998C146.752 24.3498 147.352 24.9398 148.102 25.3498C148.862 25.7698 149.702 25.9698 150.642 25.9698C152.362 25.9698 153.762 25.2898 154.852 23.9198L156.042 24.7098C155.482 25.5498 154.732 26.2098 153.792 26.6698C152.852 27.1298 151.772 27.3698 150.572 27.3698C148.722 27.3698 147.192 26.7798 145.972 25.6098C144.752 24.4298 144.142 22.9998 144.142 21.3198C144.142 20.1898 144.432 19.1398 144.992 18.1598C145.562 17.1898 146.342 16.4298 147.342 15.8898C148.342 15.3498 149.452 15.0698 150.682 15.0698C151.452 15.0698 152.202 15.1898 152.922 15.4198C153.642 15.6598 154.252 15.9598 154.752 16.3398C155.262 16.7098 155.692 17.1898 156.042 17.7798Z" fill="#FF6A00"/>
<path d="M164.471 15.0498C166.271 15.0498 167.771 15.6998 168.951 17.0098C170.031 18.1998 170.571 19.6098 170.571 21.2398C170.571 22.8698 170.001 24.2998 168.861 25.5298C167.721 26.7498 166.261 27.3598 164.471 27.3598C162.671 27.3598 161.211 26.7498 160.071 25.5298C158.931 24.3098 158.361 22.8798 158.361 21.2398C158.361 19.6198 158.901 18.2098 159.981 17.0198C161.171 15.6998 162.661 15.0498 164.471 15.0498ZM164.471 16.5198C163.221 16.5198 162.141 16.9798 161.241 17.9098C160.341 18.8298 159.891 19.9498 159.891 21.2698C159.891 22.1198 160.101 22.8998 160.511 23.6398C160.921 24.3698 161.471 24.9398 162.171 25.3298C162.871 25.7298 163.631 25.9298 164.471 25.9298C165.301 25.9298 166.071 25.7298 166.771 25.3298C167.471 24.9298 168.021 24.3698 168.431 23.6398C168.841 22.9098 169.051 22.1198 169.051 21.2698C169.051 19.9598 168.601 18.8398 167.701 17.9098C166.791 16.9798 165.711 16.5198 164.471 16.5198Z" fill="#FF6A00"/>
<path d="M173.352 15.3498H174.862V17.3698C175.382 16.6198 175.922 16.0798 176.472 15.7398C177.232 15.2798 178.032 15.0498 178.872 15.0498C179.442 15.0498 179.982 15.1598 180.482 15.3798C180.992 15.5998 181.412 15.8998 181.732 16.2698C182.052 16.6398 182.332 17.1698 182.572 17.8598C183.072 16.9398 183.702 16.2498 184.452 15.7698C185.202 15.2898 186.012 15.0498 186.872 15.0498C187.682 15.0498 188.392 15.2498 189.012 15.6598C189.632 16.0698 190.092 16.6398 190.392 17.3698C190.692 18.0998 190.842 19.1998 190.842 20.6598V27.0498H189.302V20.6598C189.302 19.4098 189.212 18.5398 189.032 18.0698C188.852 17.5998 188.552 17.2198 188.112 16.9398C187.682 16.6498 187.162 16.5098 186.562 16.5098C185.832 16.5098 185.162 16.7298 184.562 17.1598C183.962 17.5898 183.512 18.1598 183.242 18.8798C182.962 19.5998 182.822 20.7898 182.822 22.4698V27.0498H181.312V21.0598C181.312 19.6498 181.222 18.6898 181.052 18.1798C180.872 17.6698 180.572 17.2698 180.132 16.9598C179.692 16.6598 179.172 16.4998 178.572 16.4998C177.872 16.4998 177.222 16.7098 176.622 17.1298C176.012 17.5498 175.572 18.1098 175.282 18.8198C174.992 19.5298 174.842 20.6198 174.842 22.0798V27.0398H173.332V15.3498H173.352Z" fill="#FF6A00"/>
<path d="M194.442 11.8599C193.182 11.8599 192.172 12.8799 192.172 14.1299C192.172 15.3899 193.192 16.3999 194.442 16.3999C195.692 16.3999 196.712 15.3799 196.712 14.1299C196.722 12.8799 195.702 11.8599 194.442 11.8599ZM194.442 16.0899C193.362 16.0899 192.492 15.2199 192.492 14.1399C192.492 13.0599 193.362 12.1899 194.442 12.1899C195.522 12.1899 196.392 13.0599 196.392 14.1399C196.392 15.2099 195.522 16.0899 194.442 16.0899Z" fill="#FF6A00"/>
<path d="M195.412 15.1801L194.852 14.4301H194.862C195.192 14.3201 195.422 14.0201 195.422 13.6601C195.422 13.2101 195.062 12.8501 194.612 12.8501H193.962C193.872 12.8501 193.802 12.9201 193.802 13.0101V15.2801C193.802 15.3701 193.872 15.4401 193.962 15.4401C194.052 15.4401 194.122 15.3701 194.122 15.2801V14.4701H194.472L195.162 15.3801C195.212 15.4501 195.322 15.4701 195.392 15.4101C195.452 15.3501 195.472 15.2501 195.412 15.1801ZM194.122 14.1401V13.1701H194.612C194.882 13.1701 195.102 13.3901 195.102 13.6601C195.102 13.9301 194.882 14.1501 194.612 14.1501H194.122V14.1401Z" fill="#FF6A00"/>
</svg>
