<svg width="200" height="48" viewBox="0 0 200 48" fill="none" xmlns="http://www.w3.org/2000/svg">
<path d="M81.3901 39.16C73.7601 44.78 62.7201 47.79 53.2001 47.79C39.8701 47.79 27.8401 42.84 18.7501 34.65C18.0301 34 18.6802 33.12 19.5302 33.63C29.3302 39.34 41.4701 42.76 54.0001 42.76C62.4501 42.76 71.7402 41.02 80.2802 37.38C81.5702 36.82 82.6501 38.22 81.3901 39.16ZM84.5502 35.54C83.5702 34.3 78.1002 34.95 75.6602 35.24C74.9202 35.33 74.7901 34.67 75.4601 34.22C79.8201 31.15 86.9601 32.04 87.8101 33.07C88.6401 34.09 87.5901 41.26 83.5001 44.7C82.8701 45.22 82.2802 44.94 82.5402 44.24C83.4802 41.94 85.5302 36.78 84.5502 35.54Z" fill="#F89B03"/>
<path d="M75.84 12.5497V9.56973C75.84 9.10973 76.19 8.80973 76.6 8.80973H89.96C90.4 8.80973 90.72 9.11973 90.72 9.56973V12.1197C90.72 12.5597 90.35 13.0997 89.72 13.9897L82.81 23.8597C85.38 23.7897 88.1 24.1897 90.41 25.4897C90.93 25.7997 91.09 26.2297 91.13 26.6397V29.8197C91.13 30.2597 90.65 30.7597 90.15 30.4997C86.05 28.3397 80.58 28.0997 76.05 30.5197C75.59 30.7797 75.09 30.2597 75.09 29.8397V26.8297C75.09 26.3497 75.09 25.5197 75.59 24.7797L83.56 13.2997H76.59C76.16 13.3097 75.84 13.0097 75.84 12.5497ZM27.16 31.1597H23.11C22.72 31.1397 22.41 30.8297 22.39 30.4597V9.62973C22.39 9.21973 22.74 8.88973 23.17 8.88973H26.96C27.35 8.90973 27.68 9.21973 27.7 9.58973V12.3097H27.77C28.75 9.66973 30.62 8.44973 33.11 8.44973C35.66 8.44973 37.25 9.66973 38.38 12.3097C39.36 9.66973 41.6 8.44973 43.98 8.44973C45.68 8.44973 47.55 9.14973 48.69 10.7397C49.98 12.4797 49.71 15.0297 49.71 17.2797V30.4397C49.71 30.8497 49.36 31.1997 48.93 31.1997H44.88C44.47 31.1797 44.14 30.8497 44.14 30.4397V19.3497C44.14 18.4797 44.23 16.2797 44.03 15.4497C43.72 14.0597 42.81 13.6597 41.63 13.6597C40.65 13.6597 39.63 14.3097 39.21 15.3597C38.8 16.4097 38.84 18.1697 38.84 19.3497V30.3997C38.84 30.8097 38.49 31.1597 38.06 31.1597H34.01C33.6 31.1397 33.27 30.8097 33.27 30.3997V19.3497C33.27 17.0197 33.66 13.5997 30.76 13.5997C27.84 13.5997 27.95 16.9297 27.95 19.3497V30.3997C27.95 30.8297 27.6 31.1597 27.16 31.1597ZM102.2 8.42973C108.24 8.42973 111.48 13.6197 111.48 20.1997C111.48 26.5597 107.88 31.5997 102.2 31.5997C96.27 31.5997 93.07 26.4097 93.07 19.9697C93.05 13.4897 96.32 8.42973 102.2 8.42973ZM102.22 12.6797C99.24 12.6797 99.04 16.7497 99.04 19.2997C99.04 21.8497 99 27.2997 102.18 27.2997C105.32 27.2997 105.47 22.9197 105.47 20.2397C105.47 18.4797 105.4 16.3797 104.86 14.7097C104.42 13.2497 103.53 12.6797 102.22 12.6797ZM119.3 31.1597H115.25C114.84 31.1397 114.51 30.8097 114.51 30.3997V9.54973C114.55 9.15973 114.88 8.86973 115.29 8.86973H119.06C119.41 8.88973 119.71 9.12973 119.78 9.45973V12.6397H119.85C120.98 9.78973 122.57 8.42973 125.38 8.42973C127.21 8.42973 128.98 9.07973 130.13 10.8897C131.2 12.5697 131.2 15.3597 131.2 17.3797V30.4997C131.16 30.8697 130.81 31.1497 130.42 31.1497H126.35C125.98 31.1297 125.67 30.8497 125.63 30.4997V19.1797C125.63 16.8897 125.89 13.5597 123.08 13.5597C122.1 13.5597 121.18 14.2097 120.73 15.2397C120.16 16.4997 120.08 17.7897 120.08 19.1797V30.3997C120.09 30.8297 119.74 31.1597 119.3 31.1597ZM72.41 27.3497C71.67 26.3297 70.88 25.4997 70.88 23.5797V17.2397C70.88 14.5597 71.08 12.0997 69.09 10.2497C67.52 8.74973 64.95 8.21973 62.97 8.21973C59.11 8.21973 54.8 9.65973 53.88 14.4297C53.79 14.9297 54.16 15.2097 54.49 15.2797L58.43 15.6897C58.8 15.6697 59.06 15.3197 59.15 14.9497C59.48 13.2897 60.87 12.5097 62.42 12.5097C63.27 12.5097 64.21 12.8197 64.71 13.5797C65.28 14.4097 65.21 15.5597 65.21 16.5197V17.0397C62.86 17.2997 59.78 17.4797 57.56 18.4597C55.01 19.5497 53.22 21.7897 53.22 25.1097C53.22 29.3397 55.8801 31.4297 59.3 31.4297C62.18 31.4297 63.77 30.7497 65.99 28.4697C66.73 29.5397 66.97 30.0597 68.32 31.1697C68.63 31.3197 69.02 31.3197 69.28 31.0797V31.0997C70.09 30.3797 71.57 29.0997 72.4 28.3997C72.74 28.1497 72.68 27.6997 72.41 27.3497ZM64.42 25.5197C63.77 26.6497 62.74 27.3697 61.61 27.3697C60.04 27.3697 59.13 26.1697 59.13 24.4297C59.13 20.9697 62.22 20.3297 65.17 20.3297V21.1997C65.18 22.7897 65.22 24.0997 64.42 25.5197ZM19.21 27.3497C18.47 26.3297 17.68 25.4997 17.68 23.5797V17.2397C17.68 14.5597 17.88 12.0997 15.89 10.2497C14.32 8.74973 11.75 8.21973 9.77002 8.21973C5.91002 8.21973 1.59999 9.65973 0.679993 14.4297C0.589993 14.9297 0.960039 15.2097 1.29004 15.2797L5.23004 15.6897C5.60004 15.6697 5.85999 15.3197 5.92999 14.9497C6.25999 13.2897 7.65001 12.5097 9.20001 12.5097C10.03 12.5097 10.99 12.8197 11.49 13.5797C12.06 14.4097 11.99 15.5597 11.99 16.5197V17.0397C9.63999 17.2997 6.56003 17.4797 4.34003 18.4597C1.79003 19.5497 0 21.7897 0 25.1097C0 29.3397 2.66002 31.4297 6.08002 31.4297C8.98002 31.4297 10.55 30.7497 12.77 28.4697C13.51 29.5397 13.75 30.0597 15.1 31.1697C15.41 31.3197 15.8 31.3197 16.06 31.0797L16.08 31.0997C16.89 30.3797 18.37 29.0997 19.2 28.3997C19.51 28.1497 19.47 27.6997 19.21 27.3497ZM11.21 25.5197C10.56 26.6497 9.53002 27.3697 8.40002 27.3697C6.83002 27.3697 5.94 26.1697 5.94 24.4297C5.94 20.9697 9.03004 20.3297 11.98 20.3297V21.1997C11.97 22.7897 12 24.0997 11.21 25.5197Z" fill="#131921"/>
<path d="M134.49 27.7898C134.73 28.0998 134.85 28.4998 134.85 28.9998C134.85 29.4998 134.73 29.9098 134.49 30.2398C134.23 30.5698 133.94 30.7298 133.62 30.7298C133.3 30.7298 133.01 30.5698 132.75 30.2398C132.51 29.8898 132.39 29.4798 132.39 28.9998C132.39 28.4998 132.51 28.0998 132.75 27.7898C132.98 27.4598 133.27 27.2998 133.62 27.2998C133.97 27.2998 134.26 27.4698 134.49 27.7898Z" fill="#131921"/>
<path d="M148.29 10.12C149.46 11.42 150.19 13.41 150.46 16.1H148.11C147.91 14.4 147.44 13.13 146.68 12.28C145.93 11.46 144.93 11.05 143.7 11.05C142.21 11.05 141.03 11.86 140.16 13.47C139.33 15.03 138.91 17.15 138.91 19.83C138.91 22.54 139.32 24.65 140.13 26.15C140.94 27.7 142.12 28.48 143.67 28.48C146.31 28.48 147.81 26.59 148.17 22.8H150.55C150.19 25.66 149.43 27.79 148.26 29.2C147.09 30.61 145.56 31.32 143.68 31.32C141.38 31.32 139.58 30.22 138.29 28.01C137.08 25.95 136.47 23.23 136.47 19.87C136.47 16.51 137.08 13.78 138.29 11.69C139.6 9.36996 141.41 8.20996 143.71 8.20996C145.61 8.21996 147.14 8.84996 148.29 10.12Z" fill="#131921"/>
<path d="M165.74 11.6097C167.05 13.7597 167.71 16.4897 167.71 19.7897C167.71 23.0397 167.06 25.7397 165.77 27.8897C164.38 30.1797 162.53 31.3197 160.23 31.3197C157.93 31.3197 156.09 30.1797 154.72 27.8897C153.41 25.7697 152.76 23.0697 152.76 19.7897C152.76 16.4797 153.41 13.7497 154.72 11.6097C156.07 9.34973 157.91 8.21973 160.23 8.21973C162.55 8.21973 164.39 9.34973 165.74 11.6097ZM156.42 13.7297C155.61 15.3097 155.2 17.3297 155.2 19.7897C155.2 22.2197 155.61 24.2297 156.42 25.8097C157.31 27.5897 158.58 28.4797 160.23 28.4797C161.84 28.4797 163.12 27.5897 164.07 25.8097C164.88 24.1697 165.29 22.1597 165.29 19.7897C165.29 17.3897 164.88 15.3697 164.07 13.7297C163.12 11.9497 161.84 11.0597 160.23 11.0597C158.58 11.0597 157.31 11.9497 156.42 13.7297Z" fill="#131921"/>
<path d="M182.35 12.37C182.95 10.9 183.66 9.84996 184.49 9.22996C185.24 8.54996 186.15 8.20996 187.2 8.20996C188.79 8.20996 190.09 8.92996 191.1 10.37C192.07 11.9 192.56 13.89 192.56 16.35V30.72H190.18V16.91C190.18 14.99 189.89 13.55 189.32 12.58C188.74 11.59 187.79 11.1 186.46 11.1C185.41 11.1 184.56 11.64 183.93 12.71C183.24 13.78 182.89 15.21 182.89 16.99V30.73H180.51V16.91C180.51 13.04 179.33 11.1 176.97 11.1C175.86 11.1 174.96 11.72 174.26 12.97C173.55 14.16 173.19 15.63 173.19 17.38V30.74H170.81V8.80996H173.19V11.74C174.34 9.38996 175.79 8.21996 177.54 8.21996C179.89 8.21996 181.5 9.59996 182.35 12.37Z" fill="#131921"/>
</svg>
