<svg width="64" height="64" viewBox="0 0 64 64" fill="none" xmlns="http://www.w3.org/2000/svg">
<path d="M27.1092 30.9C33.6869 30.9 39.0192 25.5677 39.0192 18.99C39.0192 12.4123 33.6869 7.08002 27.1092 7.08002C20.5315 7.08002 15.1992 12.4123 15.1992 18.99C15.1992 25.5677 20.5315 30.9 27.1092 30.9Z" stroke="#1A2B6B" stroke-width="2" stroke-miterlimit="10" stroke-linecap="round" stroke-linejoin="round"/>
<path d="M4.57031 54.7101C4.57031 42.2601 14.6603 32.17 27.1103 32.17C32.5503 32.17 37.5303 34.1 41.4303 37.3" stroke="#1A2B6B" stroke-width="2" stroke-miterlimit="10" stroke-linecap="round" stroke-linejoin="round"/>
<path d="M58.2317 47.4V58.07C58.2317 59.01 57.3917 59.77 56.3617 59.77H33.8817C32.8517 59.77 32.0117 59.01 32.0117 58.07V41.93C32.0117 40.99 32.8517 40.23 33.8817 40.23H56.3617C57.3917 40.23 58.2317 40.99 58.2317 41.93V47.4Z" fill="white" stroke="#3457E5" stroke-width="2" stroke-miterlimit="10" stroke-linecap="round" stroke-linejoin="round"/>
<path d="M50.5117 45.97L55.0017 50.12L50.5117 54.28" stroke="#3457E5" stroke-width="2" stroke-miterlimit="10" stroke-linecap="round" stroke-linejoin="round"/>
<path d="M39.951 54.28L35.4609 50.12L39.951 45.97" stroke="#3457E5" stroke-width="2" stroke-miterlimit="10" stroke-linecap="round" stroke-linejoin="round"/>
<path d="M42.9219 54.58L47.5518 46.01" stroke="#3457E5" stroke-width="2" stroke-miterlimit="10" stroke-linecap="round" stroke-linejoin="round"/>
</svg>
