<svg width="45" height="33" viewBox="0 0 45 33" fill="none" xmlns="http://www.w3.org/2000/svg">
<path d="M39.449 4.12521C33.9111 -0.104859 28.6232 0.000235498 28.6232 0.000235498L28.0839 0.630804C34.582 2.66702 37.6337 5.5834 37.6732 5.62281C34.0953 3.61287 30.1622 2.32546 26.0845 1.85253C23.4931 1.56352 20.8755 1.58979 18.2973 1.93135C18.0737 1.93135 17.8764 1.97076 17.6527 2.01017C16.2979 2.1284 13.0225 2.64074 8.90529 4.4799C7.52412 5.12361 6.68226 5.59653 6.62964 5.62281C6.72172 5.53085 9.93131 2.4831 16.7583 0.473162L16.3768 0.000235498C16.3768 0.000235498 11.0889 -0.104859 5.55101 4.13834C5.55101 4.13834 0 14.3851 0 27.0227C0 27.0227 3.2359 32.7241 11.7466 33C11.7466 33 13.1672 31.2397 14.3379 29.7421C9.47091 28.2576 7.61619 25.1573 7.58989 25.1048C7.60304 25.1048 7.98451 25.3806 8.66852 25.7747C8.70798 25.8141 8.74744 25.8536 8.82637 25.893C8.9316 25.9718 9.04998 26.0112 9.16837 26.09C10.1286 26.6418 11.0889 27.0621 11.9833 27.4168C13.5618 28.0474 15.4429 28.678 17.6527 29.1115C20.9412 29.7552 24.3218 29.7683 27.6235 29.1509C29.544 28.8093 31.425 28.2445 33.214 27.4694C34.7662 26.8651 36.2526 26.0769 37.6337 25.1442C39.0281 24.2114 35.7132 28.3627 30.6621 29.8209C31.5039 30.885 32.3458 31.9491 33.214 33C41.7246 32.7241 45 27.0359 45 27.0359C45 14.3851 39.449 4.12521 39.449 4.12521ZM15.0614 22.8452C12.8515 22.8452 11.0362 21.1637 11.0362 19.1143C11.0362 17.0519 12.812 15.3703 15.0614 15.3703C17.3107 15.3703 19.126 17.0519 19.0865 19.1143C19.0865 21.1637 17.3107 22.8452 15.0614 22.8452ZM29.4782 22.8452C27.2683 22.8452 25.4531 21.1637 25.4531 19.1143C25.4531 17.0519 27.2289 15.3703 29.4782 15.3703C31.7276 15.3703 33.5034 17.0519 33.5034 19.1143C33.5034 21.1637 31.7276 22.8452 29.4782 22.8452Z" fill="#9EA2AB"/>
</svg>
