<svg width="64" height="64" viewBox="0 0 64 64" fill="none" xmlns="http://www.w3.org/2000/svg">
<path d="M32 15C35.0376 15 37.5 12.5376 37.5 9.5C37.5 6.46243 35.0376 4 32 4C28.9624 4 26.5 6.46243 26.5 9.5C26.5 12.5376 28.9624 15 32 15Z" stroke="#1A2B6B" stroke-width="2" stroke-miterlimit="10" stroke-linecap="round" stroke-linejoin="round"/>
<path d="M32 15V57" stroke="#1A2B6B" stroke-width="2" stroke-miterlimit="10" stroke-linecap="round" stroke-linejoin="round"/>
<path d="M21.5 58H42.5" stroke="#1A2B6B" stroke-width="2" stroke-miterlimit="10" stroke-linecap="round" stroke-linejoin="round"/>
<path d="M13.5 18H50.5" stroke="#1A2B6B" stroke-width="2" stroke-miterlimit="10" stroke-linecap="round" stroke-linejoin="round"/>
<path d="M59.4693 40C59.4693 44.95 55.4593 48.97 50.4993 48.97C45.5393 48.97 41.5293 44.96 41.5293 40H59.4693Z" stroke="#3457E5" stroke-width="2" stroke-miterlimit="10" stroke-linecap="round" stroke-linejoin="round"/>
<path d="M41.5 40H59.5L50.5 18L41.5 40Z" stroke="#3457E5" stroke-width="2" stroke-miterlimit="10" stroke-linecap="round" stroke-linejoin="round"/>
<path d="M22.4693 40C22.4693 44.95 18.4593 48.97 13.4993 48.97C8.5393 48.97 4.5293 44.96 4.5293 40H22.4693Z" stroke="#1A2B6B" stroke-width="2" stroke-miterlimit="10" stroke-linecap="round" stroke-linejoin="round"/>
<path d="M4.5 40H22.5L13.5 18L4.5 40Z" stroke="#1A2B6B" stroke-width="2" stroke-miterlimit="10" stroke-linecap="round" stroke-linejoin="round"/>
</svg>
