<svg width="200" height="48" viewBox="0 0 200 48" fill="none" xmlns="http://www.w3.org/2000/svg">
<path d="M12.0188 13.5073C5.46308 13.5073 0 16.2909 0 24.6763C0 31.3273 3.67674 35.507 12.1835 35.507C22.2078 35.507 22.8495 28.908 22.8495 28.908H18.0021C18.0021 28.908 16.9615 32.4633 11.8973 32.4633C7.76969 32.4633 4.80404 29.6797 4.80404 25.7689H23.3611V23.3148C23.3698 19.456 20.9157 13.5073 12.0188 13.5073ZM11.854 16.6377C15.7822 16.6377 18.453 19.0398 18.453 22.6471H4.91677C4.91677 18.8143 8.40273 16.6377 11.854 16.6377Z" fill="#E62E35"/>
<path d="M23.3609 5.38232V31.3015C23.3609 32.7757 23.2568 34.8395 23.2568 34.8395H27.8875C27.8875 34.8395 28.0522 33.3567 28.0522 32.0039C28.0522 32.0039 30.3415 35.5853 36.559 35.5853C43.1147 35.5853 47.5632 31.0327 47.5632 24.5204C47.5632 18.459 43.4702 13.5856 36.5676 13.5856C30.0987 13.5856 28.0956 17.0715 28.0956 17.0715V5.38232H23.3609ZM35.3796 16.768C39.8281 16.768 42.655 20.0719 42.655 24.5031C42.655 29.2551 39.3859 32.3681 35.4057 32.3681C30.6537 32.3681 28.0956 28.6567 28.0956 24.5464C28.0956 20.7223 30.3935 16.768 35.3796 16.768Z" fill="#0064D3"/>
<path d="M59.0793 13.5073C49.2197 13.5073 48.5867 18.9097 48.5867 19.7682H53.4948C53.4948 19.7682 53.7549 16.6117 58.7411 16.6117C61.9842 16.6117 64.499 18.0946 64.499 20.9475V21.9621H58.7411C51.1015 21.9621 47.0605 24.1993 47.0605 28.7345C47.0605 33.2004 50.798 35.6284 55.8361 35.6284C62.7127 35.6284 64.9239 31.8303 64.9239 31.8303C64.9239 33.3391 65.0453 34.8306 65.0453 34.8306H69.407C69.407 34.8306 69.2337 32.9836 69.2337 31.8043V21.6065C69.2337 14.9121 63.8313 13.5073 59.0793 13.5073ZM64.4903 25.0144V26.3672C64.4903 28.1362 63.3977 32.524 56.9808 32.524C53.4688 32.524 51.9599 30.7723 51.9599 28.7345C51.9686 25.0405 57.0415 25.0144 64.4903 25.0144Z" fill="#F5B000"/>
<path d="M66.5889 14.3486H72.1127L80.0384 30.2262L87.9469 14.3486H92.9503L78.5469 42.6178H73.3007L77.4543 34.7354L66.5889 14.3486Z" fill="#87B910"/>
</svg>
