<svg width="40" height="38" viewBox="0 0 40 38" fill="none" xmlns="http://www.w3.org/2000/svg">
<path d="M20 0C8.95507 0 0 8.72906 0 19.4975C0 28.0197 5.60323 35.2611 13.3973 37.9212C14.4472 38.1773 14.2857 37.4483 14.2857 36.9557V33.5764C8.21807 34.266 7.97577 30.3547 7.57193 29.6946C6.75416 28.3251 4.80565 27.9803 5.39122 27.3202C6.77436 26.6305 8.17769 27.4975 9.81323 29.8424C10.9944 31.5468 13.2963 31.2611 14.4573 30.9754C14.7097 29.9507 15.2549 29.0345 16.0121 28.3251C9.73246 27.2217 7.10752 23.4877 7.10752 19.0345C7.10752 16.8768 7.83443 14.8867 9.26805 13.2906C8.35941 10.6502 9.34881 8.39409 9.49016 8.05911C12.0848 7.83251 14.7905 9.87192 14.9924 10.0394C16.4664 9.65517 18.1524 9.44828 20.0404 9.44828C21.9384 9.44828 23.6244 9.66502 25.1085 10.0591C25.6133 9.68473 28.1171 7.93104 30.53 8.14778C30.6613 8.48276 31.6305 10.6897 30.7723 13.2906C32.2161 14.8966 32.9531 16.8966 32.9531 19.064C32.9531 23.5172 30.318 27.2709 24.0182 28.3448C25.1085 29.3892 25.7244 30.8177 25.7244 32.3153V37.2217C25.7648 37.6158 25.7244 38 26.3907 38C34.3059 35.399 40 28.0985 40 19.5074C40 8.72906 31.0449 0 20 0Z" fill="#9EA2AB"/>
</svg>
