<svg width="200" height="48" viewBox="0 0 200 48" fill="none" xmlns="http://www.w3.org/2000/svg">
<path d="M15.7089 7.57141H15.3721C6.88128 7.57141 0 14.4239 0 22.8791V40.3791H6.21478V22.8791C6.21478 17.8518 10.3237 13.7601 15.3721 13.7601H15.7089C20.7573 13.7601 24.8662 17.8518 24.8662 22.8791V40.3791H31.081V22.8791C31.081 14.4239 24.1997 7.57141 15.7089 7.57141Z" fill="#B9BDC5"/>
<path d="M18.6484 40.3792H12.4336V23.045C12.4336 21.3363 13.8269 19.9489 15.5428 19.9489C17.2586 19.9489 18.6519 21.3363 18.6519 23.045V40.3792H18.6484Z" fill="#DCDFE6"/>
<path d="M48.1773 21.8094V23.0557C46.8053 22.2649 45.2135 21.8094 43.5153 21.8094C38.3641 21.8094 34.1914 25.9647 34.1914 31.0943C34.1914 36.2239 38.3641 40.3792 43.5153 40.3792C45.2135 40.3792 46.8053 39.9238 48.1773 39.133V40.3792H52.8393V21.8094H48.1773ZM43.5153 35.7368C40.9451 35.7368 38.8534 33.6538 38.8534 31.0943C38.8534 28.5348 40.9451 26.4519 43.5153 26.4519C46.0856 26.4519 48.1773 28.5348 48.1773 31.0943C48.1773 33.6538 46.0856 35.7368 43.5153 35.7368Z" fill="#B9BDC5"/>
<path d="M60.6112 21.8094H55.9492V40.3792H60.6112V21.8094Z" fill="#B9BDC5"/>
<path d="M58.2781 20.4185C59.5664 20.4185 60.6108 19.3785 60.6108 18.0955C60.6108 16.8126 59.5664 15.7725 58.2781 15.7725C56.9897 15.7725 55.9453 16.8126 55.9453 18.0955C55.9453 19.3785 56.9897 20.4185 58.2781 20.4185Z" fill="#DCDFE6"/>
<path d="M71.486 21.8094C67.1962 21.8094 63.7148 25.2727 63.7148 29.548V40.3792H68.3768V35.7368V34.1905V29.548C68.3768 27.8428 69.7701 26.4519 71.486 26.4519C73.1983 26.4519 74.5951 27.8393 74.5951 29.548V34.1905V35.7368V40.3792H79.2571V29.548C79.2571 25.2727 75.7792 21.8094 71.486 21.8094Z" fill="#B9BDC5"/>
<path d="M100.795 33.1067C100.941 32.4571 101.015 31.7863 101.015 31.0944C101.015 30.4024 100.941 29.7316 100.795 29.0821C100.774 28.9797 100.749 28.8738 100.721 28.7714C99.6856 24.7679 96.034 21.806 91.6911 21.806C87.3482 21.806 83.6966 24.7679 82.6614 28.7714C82.6366 28.8738 82.6118 28.9761 82.587 29.0821C82.4416 29.7316 82.3672 30.4024 82.3672 31.0944C82.3672 31.7863 82.4416 32.4571 82.587 33.1067C82.6083 33.2091 82.6331 33.315 82.6614 33.4174C83.6966 37.4208 87.3482 40.3828 91.6911 40.3828C93.9742 40.3828 96.0659 39.5673 97.6861 38.2116L94.6868 34.653C93.8785 35.3308 92.8327 35.7403 91.6911 35.7403C89.9681 35.7403 88.4614 34.8048 87.6567 33.4174C87.5964 33.3185 87.5432 33.2126 87.4936 33.1067H95.8922H100.795ZM87.4936 29.0821C87.5432 28.9761 87.5999 28.8738 87.6567 28.7714C88.465 27.384 89.9681 26.4484 91.6911 26.4484C93.4141 26.4484 94.9173 27.384 95.7256 28.7714C95.7859 28.8702 95.839 28.9761 95.8887 29.0821H87.4936Z" fill="#B9BDC5"/>
<path d="M110.341 31.1402V25.8341H113.451V21.8095H110.341V15.822H105.679V21.8095H102.57V25.8341H105.679V31.1438C105.679 36.2628 109.863 40.4286 115.003 40.4286V35.7862C112.433 35.7862 110.341 33.7033 110.341 31.1402Z" fill="#B9BDC5"/>
</svg>
