<svg width="41" height="33" viewBox="0 0 41 33" fill="none" xmlns="http://www.w3.org/2000/svg">
<path d="M41 28.1343V33H26.3083V28.1343H29.3748V6.5861H29.2381L22.0546 33H16.494L9.40438 6.5861H9.225V28.1343H12.3171V33H0V28.1343H1.58021C1.89625 28.1343 2.22938 27.9866 2.5625 27.6825C2.89563 27.3784 3.06646 27.0916 3.06646 26.8136V6.30806C3.06646 6.03002 2.89563 5.71722 2.5625 5.37836C2.22938 5.03949 1.89625 4.86572 1.58021 4.86572H0V0H15.375L20.4317 19.1066H20.5683L25.6677 0H41V4.86572H39.3771C39.0867 4.86572 38.7792 5.03949 38.4375 5.37836C38.1044 5.71722 37.9335 6.03002 37.9335 6.30806V26.8136C37.9335 27.0916 38.0958 27.387 38.429 27.6825C38.7535 27.9866 39.0696 28.1343 39.3771 28.1343H41Z" fill="#9EA2AB"/>
</svg>
