<svg width="36" height="36" viewBox="0 0 36 36" fill="none" xmlns="http://www.w3.org/2000/svg">
<path d="M30.07 12H5.93C4.87 12 4 11.13 4 10.07V5.93C4 4.86 4.87 4 5.93 4H30.07C31.14 4 32 4.87 32 5.93V10.07C32 11.13 31.13 12 30.07 12Z" stroke="#1A2B6B" stroke-width="2" stroke-miterlimit="10" stroke-linecap="round" stroke-linejoin="round"/>
<path d="M30.07 21H5.93C4.87 21 4 20.13 4 19.07V14.93C4 13.86 4.87 13 5.93 13H30.07C31.14 13 32 13.87 32 14.93V19.07C32 20.13 31.13 21 30.07 21Z" stroke="#1A2B6B" stroke-width="2" stroke-miterlimit="10" stroke-linecap="round" stroke-linejoin="round"/>
<path d="M30.07 30H5.93C4.87 30 4 29.13 4 28.07V23.93C4 22.86 4.87 22 5.93 22H30.07C31.14 22 32 22.87 32 23.93V28.07C32 29.13 31.13 30 30.07 30Z" stroke="#1A2B6B" stroke-width="2" stroke-miterlimit="10" stroke-linecap="round" stroke-linejoin="round"/>
<path d="M9 31V33" stroke="#1A2B6B" stroke-width="2" stroke-miterlimit="10" stroke-linecap="round" stroke-linejoin="round"/>
<path d="M27 31V33" stroke="#1A2B6B" stroke-width="2" stroke-miterlimit="10" stroke-linecap="round" stroke-linejoin="round"/>
<path d="M8.5 9C9.05228 9 9.5 8.55228 9.5 8C9.5 7.44772 9.05228 7 8.5 7C7.94772 7 7.5 7.44772 7.5 8C7.5 8.55228 7.94772 9 8.5 9Z" fill="#3457E5"/>
<path d="M8.5 18C9.05228 18 9.5 17.5523 9.5 17C9.5 16.4477 9.05228 16 8.5 16C7.94772 16 7.5 16.4477 7.5 17C7.5 17.5523 7.94772 18 8.5 18Z" fill="#3457E5"/>
<path d="M8.5 27C9.05228 27 9.5 26.5523 9.5 26C9.5 25.4477 9.05228 25 8.5 25C7.94772 25 7.5 25.4477 7.5 26C7.5 26.5523 7.94772 27 8.5 27Z" fill="#3457E5"/>
<path d="M4 33H32" stroke="#3457E5" stroke-width="2" stroke-miterlimit="10" stroke-linecap="round" stroke-linejoin="round"/>
</svg>
