<svg width="36" height="36" viewBox="0 0 36 36" fill="none" xmlns="http://www.w3.org/2000/svg">
<path d="M20.77 5.07999C24.34 5.07999 27.23 7.96999 27.23 11.54C27.23 15.11 24.34 18 20.77 18" stroke="#3457E5" stroke-width="2" stroke-miterlimit="10" stroke-linecap="round" stroke-linejoin="round"/>
<path d="M20.77 18C27.52 18 33 24.17 33 30.92" stroke="#3457E5" stroke-width="2" stroke-miterlimit="10" stroke-linecap="round" stroke-linejoin="round"/>
<path d="M15.23 18C18.7978 18 21.69 15.1077 21.69 11.54C21.69 7.97223 18.7978 5.07999 15.23 5.07999C11.6623 5.07999 8.77002 7.97223 8.77002 11.54C8.77002 15.1077 11.6623 18 15.23 18Z" stroke="#1A2B6B" stroke-width="2" stroke-miterlimit="10" stroke-linecap="round" stroke-linejoin="round"/>
<path d="M3 30.92C3 24.17 8.48 18.69 15.23 18.69C21.98 18.69 27.46 24.17 27.46 30.92" stroke="#1A2B6B" stroke-width="2" stroke-miterlimit="10" stroke-linecap="round" stroke-linejoin="round"/>
</svg>
