<svg width="36" height="36" viewBox="0 0 36 36" fill="none" xmlns="http://www.w3.org/2000/svg">
<path d="M26.68 6H9.32001C8.52001 6 7.80001 6.48 7.48001 7.21L5 13H31L28.52 7.21C28.2 6.48 27.48 6 26.68 6Z" stroke="#1A2B6B" stroke-width="2" stroke-miterlimit="10" stroke-linecap="round" stroke-linejoin="round"/>
<path d="M18 6V13" stroke="#1A2B6B" stroke-width="2" stroke-miterlimit="10" stroke-linecap="round" stroke-linejoin="round"/>
<path d="M29 32H7C5.9 32 5 31.1 5 30V13C5 13 5.9 13 7 13H29C30.1 13 31 13 31 13V30C31 31.1 30.1 32 29 32Z" stroke="#1A2B6B" stroke-width="2" stroke-miterlimit="10" stroke-linecap="round" stroke-linejoin="round"/>
<path d="M13.3498 19.73C13.8198 20.08 14.0898 20.61 14.1498 21.35H13.1298C13.0398 20.9 12.8598 20.59 12.5998 20.41C12.3398 20.22 11.9598 20.12 11.4498 20.12C11.0098 20.12 10.6698 20.19 10.4298 20.32C10.1398 20.47 9.99979 20.72 9.99979 21.05C9.99979 21.35 10.1698 21.59 10.4998 21.77C10.6598 21.86 11.0498 22 11.6698 22.18C12.5998 22.47 13.1898 22.69 13.4298 22.84C14.0098 23.19 14.2998 23.67 14.2998 24.29C14.2998 24.89 14.0598 25.36 13.5898 25.71C13.1198 26.05 12.4598 26.22 11.6098 26.22C10.7998 26.22 10.1598 26.06 9.68979 25.73C9.13979 25.33 8.82979 24.71 8.77979 23.87H9.79977C9.87977 24.4 10.0598 24.78 10.3598 25.01C10.6398 25.22 11.0498 25.32 11.6098 25.32C12.1098 25.32 12.5098 25.23 12.8198 25.06C13.1198 24.89 13.2698 24.66 13.2698 24.35C13.2698 23.98 13.0598 23.68 12.6298 23.47C12.4698 23.39 12.0298 23.24 11.2898 23.02C10.4498 22.75 9.92979 22.56 9.74979 22.46C9.23979 22.15 8.9798 21.7 8.9798 21.11C8.9798 20.52 9.22979 20.06 9.71979 19.72C10.1898 19.4 10.7798 19.24 11.4998 19.24C12.2998 19.23 12.9098 19.4 13.3498 19.73Z" fill="#3457E5"/>
<path d="M15.25 19.36H17.7C18.78 19.36 19.6 19.66 20.17 20.27C20.7 20.83 20.96 21.65 20.96 22.72C20.96 23.77 20.69 24.59 20.15 25.18C19.59 25.78 18.76 26.08 17.68 26.08H15.25V19.36ZM16.27 20.24V25.21H17.48C18.33 25.21 18.96 25.01 19.35 24.6C19.74 24.19 19.93 23.57 19.93 22.73C19.93 21.88 19.74 21.25 19.36 20.85C18.96 20.45 18.34 20.25 17.5 20.25H16.27V20.24Z" fill="#3457E5"/>
<path d="M26.27 19.36H27.57L24.6 22.25L28.01 26.08H26.64L23.91 22.92L23.03 23.76V26.08H22V19.36H23.03V22.61L26.27 19.36Z" fill="#3457E5"/>
</svg>
