<svg width="36" height="36" viewBox="0 0 36 36" fill="none" xmlns="http://www.w3.org/2000/svg">
<path d="M10.5898 4.59C10.9498 4.23 11.4498 4 11.9998 4H28.9998C30.0998 4 30.9998 4.9 30.9998 6V27C30.9998 28.1 30.0998 29 28.9998 29" stroke="#3457E5" stroke-width="2" stroke-miterlimit="10" stroke-linecap="round" stroke-linejoin="round"/>
<path d="M24 32H7C5.9 32 5 31.1 5 30V10C5 8.9 5.9 8 7 8H19.92L26 14V30C26 31.1 25.1 32 24 32Z" stroke="#1A2B6B" stroke-width="2" stroke-miterlimit="10" stroke-linecap="round" stroke-linejoin="round"/>
<path d="M19 8V12.9C19 14 19.9 14.9 21 14.9H26L19 8Z" fill="#1A2B6B"/>
<path d="M10 20H18" stroke="#1A2B6B" stroke-width="2" stroke-miterlimit="10" stroke-linecap="round" stroke-linejoin="round"/>
<path d="M10 26H21" stroke="#1A2B6B" stroke-width="2" stroke-miterlimit="10" stroke-linecap="round" stroke-linejoin="round"/>
</svg>
