<svg width="36" height="36" viewBox="0 0 36 36" fill="none" xmlns="http://www.w3.org/2000/svg">
<path d="M26.8 29H9.20001C7.98001 29 7 28.02 7 26.8V9.2C7 7.98 7.98001 7 9.20001 7H26.8C28.02 7 29 7.98 29 9.2V26.8C29 28.02 28.02 29 26.8 29Z" stroke="#1A2B6B" stroke-width="2" stroke-miterlimit="10" stroke-linecap="round" stroke-linejoin="round"/>
<path d="M13.0898 14.36H14.2598L16.8498 21.08H15.7498L15.1198 19.35H12.2298L11.5998 21.08H10.5098L13.0898 14.36ZM12.5298 18.5H14.7997L13.6898 15.46H13.6497L12.5298 18.5Z" fill="#3457E5"/>
<path d="M17.5 14.36H20.29C21.89 14.36 22.69 15.04 22.69 16.4C22.69 17.77 21.88 18.46 20.27 18.46H18.53V21.08H17.5V14.36ZM18.53 15.24V17.59H20.21C20.72 17.59 21.09 17.5 21.32 17.31C21.55 17.12 21.67 16.81 21.67 16.41C21.67 15.99 21.55 15.69 21.31 15.53C21.08 15.34 20.71 15.25 20.21 15.25H18.53V15.24Z" fill="#3457E5"/>
<path d="M23.6597 14.36H24.6797V21.08H23.6597V14.36Z" fill="#3457E5"/>
<path d="M12 3V6" stroke="#1A2B6B" stroke-width="2" stroke-miterlimit="10" stroke-linecap="round" stroke-linejoin="round"/>
<path d="M16 3V6" stroke="#1A2B6B" stroke-width="2" stroke-miterlimit="10" stroke-linecap="round" stroke-linejoin="round"/>
<path d="M20 3V6" stroke="#1A2B6B" stroke-width="2" stroke-miterlimit="10" stroke-linecap="round" stroke-linejoin="round"/>
<path d="M24 3V6" stroke="#1A2B6B" stroke-width="2" stroke-miterlimit="10" stroke-linecap="round" stroke-linejoin="round"/>
<path d="M12 30V33" stroke="#1A2B6B" stroke-width="2" stroke-miterlimit="10" stroke-linecap="round" stroke-linejoin="round"/>
<path d="M16 30V33" stroke="#1A2B6B" stroke-width="2" stroke-miterlimit="10" stroke-linecap="round" stroke-linejoin="round"/>
<path d="M20 30V33" stroke="#1A2B6B" stroke-width="2" stroke-miterlimit="10" stroke-linecap="round" stroke-linejoin="round"/>
<path d="M24 30V33" stroke="#1A2B6B" stroke-width="2" stroke-miterlimit="10" stroke-linecap="round" stroke-linejoin="round"/>
<path d="M33 12H30" stroke="#1A2B6B" stroke-width="2" stroke-miterlimit="10" stroke-linecap="round" stroke-linejoin="round"/>
<path d="M33 16H30" stroke="#1A2B6B" stroke-width="2" stroke-miterlimit="10" stroke-linecap="round" stroke-linejoin="round"/>
<path d="M33 20H30" stroke="#1A2B6B" stroke-width="2" stroke-miterlimit="10" stroke-linecap="round" stroke-linejoin="round"/>
<path d="M33 24H30" stroke="#1A2B6B" stroke-width="2" stroke-miterlimit="10" stroke-linecap="round" stroke-linejoin="round"/>
<path d="M6 12H3" stroke="#1A2B6B" stroke-width="2" stroke-miterlimit="10" stroke-linecap="round" stroke-linejoin="round"/>
<path d="M6 16H3" stroke="#1A2B6B" stroke-width="2" stroke-miterlimit="10" stroke-linecap="round" stroke-linejoin="round"/>
<path d="M6 20H3" stroke="#1A2B6B" stroke-width="2" stroke-miterlimit="10" stroke-linecap="round" stroke-linejoin="round"/>
<path d="M6 24H3" stroke="#1A2B6B" stroke-width="2" stroke-miterlimit="10" stroke-linecap="round" stroke-linejoin="round"/>
</svg>
