<svg width="36" height="36" viewBox="0 0 36 36" fill="none" xmlns="http://www.w3.org/2000/svg">
<path d="M30.07 12H5.93C4.87 12 4 11.13 4 10.07V5.93C4 4.86 4.87 4 5.93 4H30.07C31.14 4 32 4.87 32 5.93V10.07C32 11.13 31.13 12 30.07 12Z" stroke="#1A2B6B" stroke-width="2" stroke-miterlimit="10" stroke-linecap="round" stroke-linejoin="round"/>
<path d="M30.07 20H5.93C4.87 20 4 19.13 4 18.07V13.93C4 12.86 4.87 12 5.93 12H30.07C31.14 12 32 12.87 32 13.93V18.07C32 19.13 31.13 20 30.07 20Z" stroke="#1A2B6B" stroke-width="2" stroke-miterlimit="10" stroke-linecap="round" stroke-linejoin="round"/>
<path d="M30.07 28H5.93C4.87 28 4 27.13 4 26.07V21.93C4 20.86 4.87 20 5.93 20H30.07C31.14 20 32 20.87 32 21.93V26.07C32 27.13 31.13 28 30.07 28Z" stroke="#1A2B6B" stroke-width="2" stroke-miterlimit="10" stroke-linecap="round" stroke-linejoin="round"/>
<path d="M9 28L9 32" stroke="#1A2B6B" stroke-width="2" stroke-miterlimit="10" stroke-linecap="round" stroke-linejoin="round"/>
<path d="M27 28L27 32" stroke="#1A2B6B" stroke-width="2" stroke-miterlimit="10" stroke-linecap="round" stroke-linejoin="round"/>
<path d="M8.5 9C9.05228 9 9.5 8.55228 9.5 8C9.5 7.44772 9.05228 7 8.5 7C7.94772 7 7.5 7.44772 7.5 8C7.5 8.55228 7.94772 9 8.5 9Z" fill="#3457E5"/>
<path d="M8.5 17C9.05228 17 9.5 16.5523 9.5 16C9.5 15.4477 9.05228 15 8.5 15C7.94772 15 7.5 15.4477 7.5 16C7.5 16.5523 7.94772 17 8.5 17Z" fill="#3457E5"/>
<path d="M8.5 25C9.05228 25 9.5 24.5523 9.5 24C9.5 23.4477 9.05228 23 8.5 23C7.94772 23 7.5 23.4477 7.5 24C7.5 24.5523 7.94772 25 8.5 25Z" fill="#3457E5"/>
<path d="M4 32H32" stroke="#3457E5" stroke-width="2" stroke-miterlimit="10" stroke-linecap="round" stroke-linejoin="round"/>
</svg>
