<svg width="36" height="36" viewBox="0 0 36 36" fill="none" xmlns="http://www.w3.org/2000/svg">
<path d="M18 17C21.866 17 25 13.866 25 10C25 6.13401 21.866 3 18 3C14.134 3 11 6.13401 11 10C11 13.866 14.134 17 18 17Z" stroke="#1A2B6B" stroke-width="2" stroke-miterlimit="10" stroke-linecap="round" stroke-linejoin="round"/>
<path d="M4.75 31C4.75 23.68 10.68 17.75 18 17.75C25.32 17.75 31.25 23.68 31.25 31" stroke="#1A2B6B" stroke-width="2" stroke-miterlimit="10" stroke-linecap="round" stroke-linejoin="round"/>
<path d="M17.61 32.85L15.84 31.08C15.66 30.9 15.58 30.66 15.62 30.43L16.78 23.8C16.81 23.65 16.96 23.54 17.14 23.54H18.86C19.04 23.54 19.2 23.65 19.22 23.8L20.38 30.43C20.42 30.66 20.34 30.9 20.16 31.08L18.39 32.85C18.19 33.05 17.81 33.05 17.61 32.85Z" fill="#3457E5"/>
<path d="M19.03 20H16.97C16.68 20 16.46 20.26 16.51 20.54L16.75 21.97C16.79 22.19 16.98 22.36 17.21 22.36H18.78C19.01 22.36 19.2 22.2 19.24 21.97L19.48 20.54C19.54 20.26 19.32 20 19.03 20Z" fill="#3457E5"/>
</svg>
