<svg width="64" height="64" viewBox="0 0 64 64" fill="none" xmlns="http://www.w3.org/2000/svg">
<path d="M51 54H13C11.9 54 11 53.1 11 52V28C11 26.9 11.9 26 13 26H51C52.1 26 53 26.9 53 28V52C53 53.1 52.1 54 51 54Z" stroke="#1A2B6B" stroke-width="2" stroke-miterlimit="10" stroke-linecap="round" stroke-linejoin="round"/>
<path d="M56.0392 19.84L51.4892 10.16C50.5792 8.23 48.6392 7 46.5092 7H17.4992C15.3692 7 13.4192 8.23 12.5192 10.16L7.9692 19.84L6.9392 22.03C5.4592 25.17 7.39919 29.02 10.8492 29.36C11.0292 29.38 11.2192 29.39 11.3992 29.39C13.8492 29.39 15.8992 27.74 16.5492 25.5C17.1992 27.74 19.2492 29.39 21.6992 29.39C24.1592 29.39 26.2092 27.74 26.8592 25.5C27.5092 27.74 29.5592 29.39 32.0092 29.39C34.4592 29.39 36.5092 27.74 37.1592 25.5C37.8092 27.74 39.8592 29.39 42.3192 29.39C44.7692 29.39 46.8192 27.74 47.4692 25.5C48.1192 27.74 50.1692 29.39 52.6192 29.39C52.8092 29.39 52.9892 29.38 53.1692 29.36C56.6192 29.01 58.5592 25.16 57.0792 22.03L56.0392 19.84Z" fill="white" stroke="#1A2B6B" stroke-width="2" stroke-miterlimit="10" stroke-linecap="round" stroke-linejoin="round"/>
<path d="M24 46H40" stroke="#3457E5" stroke-width="2" stroke-miterlimit="10" stroke-linecap="round" stroke-linejoin="round"/>
</svg>
