<svg width="200" height="48" viewBox="0 0 200 48" fill="none" xmlns="http://www.w3.org/2000/svg">
<g opacity="0.4">
<path d="M73.2002 16.2901L70.4902 22.8501L71.5402 16.2901H67.5702L65.3602 22.1901L66.0802 16.2901H61.2603L59.3302 32.1301H64.3302L66.7701 26.7301L66.3202 32.1301H71.4902L78.0402 16.2901H73.2002ZM53.6902 19.6501C53.8102 19.2501 54.2302 18.9201 54.6302 18.9201C55.0302 18.9201 55.2701 19.2501 55.1501 19.6501L54.4702 22.0101H53.0002L53.6902 19.6501ZM51.9402 25.7401L52.2302 24.7201L52.2902 24.5201H58.5402L59.6102 20.7901C60.3202 18.3101 58.8902 16.3001 56.4102 16.3001H54.4702C51.9902 16.3001 49.4002 18.3101 48.6802 20.7901L46.6302 27.9401C45.9202 30.4201 47.3502 32.4301 49.8302 32.4301H51.7701C54.2501 32.4301 56.8402 30.4201 57.5602 27.9401L58.1902 25.7401H53.7802L52.8802 28.8801C52.7302 29.3901 52.2002 29.8001 51.6902 29.8001C51.1802 29.8001 50.8902 29.3901 51.0302 28.8801L51.9402 25.7401ZM82.6102 19.6501C82.7302 19.2501 83.1502 18.9201 83.5502 18.9201C83.9602 18.9201 84.1902 19.2501 84.0702 19.6501L83.3901 22.0101H81.9202L82.6102 19.6501ZM82.7102 25.7401L81.8102 28.8801C81.6602 29.3901 81.1302 29.8001 80.6202 29.8001C80.1102 29.8001 79.8202 29.3901 79.9602 28.8801L80.8602 25.7401L81.1501 24.7201L81.2102 24.5201H87.4602L88.5302 20.7901C89.2402 18.3101 87.8102 16.3001 85.3302 16.3001H83.3901C80.9101 16.3001 78.3202 18.3101 77.6102 20.7901L75.5602 27.9401C74.8502 30.4201 76.2803 32.4301 78.7603 32.4301H80.7002C83.1802 32.4301 85.7702 30.4201 86.4902 27.9401L87.1202 25.7401H82.7102ZM94.5103 26.6901C94.3203 27.0501 93.9302 27.3101 93.5402 27.3101C93.0902 27.3101 92.8302 26.9501 92.9602 26.4901L95.0402 19.2601C95.1702 18.8101 95.6402 18.4401 96.0902 18.4401C96.4702 18.4401 96.7202 18.7001 96.7002 19.0601L94.5103 26.6901ZM97.5902 15.9601L97.2102 17.2801C96.8802 16.2901 95.9802 15.6201 94.7302 15.6201C92.8102 15.6201 90.8002 17.1801 90.2502 19.1001L88.0602 26.7101C87.5102 28.6301 88.6202 30.1901 90.5402 30.1901C91.7902 30.1901 93.0802 29.5301 93.9802 28.5301L93.2002 31.2601C93.0702 31.7101 92.6001 32.0801 92.1501 32.0801C91.3601 32.0801 91.6702 30.9201 91.6702 30.9201H86.9102C86.5102 32.9701 87.7702 34.5801 89.8802 34.5801H93.0002C95.2302 34.5801 97.5602 32.7701 98.2002 30.5401L102.38 15.9601H97.5902ZM107.15 26.6901C106.96 27.0501 106.57 27.3101 106.18 27.3101C105.73 27.3101 105.47 26.9501 105.6 26.4901L107.68 19.2601C107.81 18.8101 108.28 18.4401 108.73 18.4401C109.11 18.4401 109.36 18.7001 109.34 19.0601L107.15 26.6901ZM109.85 17.2801C109.52 16.2901 108.62 15.6201 107.37 15.6201C105.45 15.6201 103.44 17.1801 102.89 19.1001L100.7 26.7101C100.15 28.6301 101.26 30.1901 103.18 30.1901C104.43 30.1901 105.72 29.5301 106.62 28.5301L105.84 31.2601C105.71 31.7101 105.24 32.0801 104.79 32.0801C104 32.0801 104.31 30.9201 104.31 30.9201H99.5502C99.1502 32.9701 100.41 34.5801 102.52 34.5801H105.64C107.87 34.5801 110.19 32.7701 110.84 30.5401L115.02 15.9601H110.24L109.85 17.2801ZM45.0402 16.2901C44.0102 16.2901 42.9702 16.7401 42.1302 17.4401L42.3702 16.5901H37.5402L32.9902 32.4301H37.8202L41.5902 19.2801C41.7302 19.2101 41.8802 19.1701 42.0302 19.1601C42.4802 19.1601 42.7402 19.5301 42.6102 19.9801L39.0402 32.4301H43.8702L47.5103 19.7601C48.0703 17.8501 46.9602 16.2901 45.0402 16.2901ZM117.75 19.1201C116.96 19.0801 116.33 18.4201 116.33 17.6201C116.33 16.8201 116.95 16.1701 117.75 16.1201C118.55 16.1601 119.18 16.8201 119.18 17.6201C119.18 18.4301 118.55 19.0901 117.75 19.1201ZM117.75 15.8201C116.75 15.8201 115.95 16.6301 115.95 17.6201C115.95 18.6201 116.76 19.4201 117.75 19.4201C118.75 19.4201 119.55 18.6101 119.55 17.6201C119.55 16.6301 118.74 15.8201 117.75 15.8201Z" fill="#778197"/>
<path d="M117.79 17.5802H117.42V16.9102H117.79C118.14 16.9102 118.34 16.9902 118.34 17.2302C118.34 17.4602 118.15 17.5802 117.79 17.5802ZM118.63 17.2302C118.63 16.8502 118.29 16.7202 117.83 16.7202H117.12V18.5202H117.41V17.7602H117.81L118.36 18.5202H118.69L118.11 17.7302C118.43 17.6802 118.63 17.5102 118.63 17.2302Z" fill="#778197"/>
<path d="M46.5399 13.4901H51.0699C51.0699 13.4901 60.5399 0.76013 70.9099 0.76013C80.0299 0.76013 82.2799 13.2501 82.2799 13.2501C82.2799 13.2501 84.1199 10.4701 79.2 3.72013C74.28 -3.02987 61.9399 1.14013 58.1799 3.54013C58.1799 3.54013 55.8699 0.0601302 48.9399 0.0501302C43.2599 0.0401302 37.96 3.57013 37.96 3.57013C37.96 3.57013 35.4399 0.17013 28.6899 0.17013C21.9399 0.17013 0 10.3001 0 30.5501C0 47.1601 19.5399 49.9101 27.8899 44.4101C27.8899 44.4101 31.77 46.9901 37.96 46.9901C44.15 46.9901 48.1499 44.3301 48.1499 44.3301C48.1499 44.3301 52.59 47.9701 58.99 47.9701C65.39 47.9701 73.74 45.0401 78.62 35.4501C78.62 35.4501 70.63 44.3301 62.36 44.3301C54.1 44.3301 49.4799 39.0901 47.4399 35.0901H41.84C41.84 35.0901 43.8799 40.6901 47.1699 43.4401C47.1699 43.4401 38.2 47.3501 29.76 40.4201C21.32 33.4901 25.67 18.4801 31 12.5301C36.33 6.58013 43.52 1.16013 49.74 1.16013C54.98 1.16013 57.2899 4.00013 57.2899 4.00013C57.2899 4.00013 48.9399 9.23013 46.5399 13.4901ZM19.98 28.4101C19.98 38.0001 24.3899 41.9201 26.6699 43.4501C26.6699 43.4501 25.78 44.3401 20.22 44.3401C14.65 44.3401 4.70996 40.6101 4.70996 28.8301C4.70996 17.0501 17.8 0.94013 30 0.94013C34.86 0.94013 37.09 3.99013 37.09 3.99013C37.09 3.99013 19.98 14.2601 19.98 28.4101Z" fill="#778197"/>
</g>
</svg>
