<svg width="200" height="48" viewBox="0 0 200 48" fill="none" xmlns="http://www.w3.org/2000/svg">
<path d="M0 11.2588C0.161721 9.61602 0.927771 8.31374 2.28964 7.38597C3.10675 6.84122 4.03453 6.56885 5.07295 6.56885H29.4163C32.1996 6.56885 34.4382 8.80741 34.4382 11.5907V35.9341C34.4382 38.7174 32.1996 40.9559 29.4163 40.9559H8.78403C8.94575 40.3005 9.10747 39.6451 9.21812 39.0493C9.54157 37.6875 9.87352 36.266 10.197 34.9041C10.248 34.5807 10.4183 34.4701 10.7417 34.4701C12.9803 34.1977 15.1593 33.9764 17.3468 33.5934C19.696 33.1593 21.9856 32.4443 24.0029 31.1931C26.5649 29.661 28.2076 27.482 28.6928 24.537C29.0162 22.6814 28.5311 20.9876 27.4416 19.464C26.2414 17.7191 24.5476 16.4594 22.6921 15.421C19.9088 13.8889 16.9637 13.0207 13.8485 12.3653C9.53305 11.4886 5.00485 11.2162 0.476653 11.3269H0.0936287C0.110652 11.3098 0.0510699 11.3098 0 11.2588Z" fill="#B9BDC5"/>
<path d="M0 17.3192C4.20476 16.8851 8.34993 16.8255 12.5547 17.2085C12.393 17.9746 12.2312 18.63 12.0099 19.3364C10.2651 26.4351 8.52017 33.4743 6.76677 40.5645C6.7157 40.8369 6.60504 40.9475 6.33267 40.9475C5.29425 40.9475 4.31541 40.9986 3.27699 40.6241C1.3108 39.858 0 38.0025 0 35.8746V17.3192ZM11.4056 30.2484C11.6269 29.3206 11.7886 28.5035 12.0099 27.6864C12.8271 24.4094 13.5931 21.0813 14.4102 17.8043C14.4613 17.583 14.5209 17.4213 14.8443 17.4809C17.8489 17.915 20.845 18.5704 23.6284 19.8812C24.6668 20.3748 25.6456 20.9707 26.4627 21.8474C27.0671 22.5028 27.5522 23.2092 27.6118 24.137C27.6629 25.3371 27.0671 26.1543 26.1904 26.8692C25.2115 27.6864 24.1135 28.2311 22.9134 28.6737C20.7855 29.4398 18.598 29.9249 16.419 30.0952C14.9975 30.2058 13.5846 30.2058 12.2142 30.2569H11.4056V30.2484Z" fill="#B9BDC5"/>
<path d="M50.3975 25.7283H45.1117V34.8698H41.5879V11.6245H50.406C54.9427 11.6245 57.8537 14.6291 57.8537 18.6807C57.8537 22.7322 54.9427 25.7283 50.3975 25.7283ZM50.2017 14.7908H45.1117V22.5279H50.2017C52.653 22.5279 54.3128 21.1235 54.3128 18.6722C54.3128 16.2208 52.653 14.7908 50.2017 14.7908Z" fill="#B9BDC5"/>
<path d="M70.3146 34.8782V33.3801C69.1059 34.5888 67.9653 35.0739 65.9055 35.0739C63.8457 35.0739 62.4753 34.5803 61.4624 33.5759C60.6113 32.6907 60.1602 31.4224 60.1602 30.018C60.1602 27.2432 62.0838 25.2515 65.8715 25.2515H70.2465V24.0769C70.2465 21.983 69.1995 20.9786 66.6205 20.9786C64.7905 20.9786 63.9138 21.4042 62.9945 22.5788L60.807 20.519C62.3732 18.689 64.0074 18.1357 66.7482 18.1357C71.2849 18.1357 73.5745 20.0594 73.5745 23.813V34.8782H70.3146ZM70.255 27.5581H66.3737C64.416 27.5581 63.4031 28.4434 63.4031 29.9414C63.4031 31.4395 64.3479 32.2906 66.4418 32.2906C67.7185 32.2906 68.6633 32.1885 69.54 31.3458C70.0337 30.8522 70.255 30.0691 70.255 28.8945V27.5581Z" fill="#B9BDC5"/>
<path d="M83.8996 38.1724C83.5762 39.0832 83.1846 39.7386 82.6909 40.2322C81.7802 41.143 80.5715 41.4409 79.2948 41.4409H77.9585V38.4363H78.8096C80.214 38.4363 80.7077 38.0107 81.1929 36.6744L82.1036 34.0953L76.3242 18.3232H79.848L83.7975 29.9757L87.6532 18.3232H91.2111L83.8996 38.1724Z" fill="#B9BDC5"/>
<path d="M103.195 25.7283H97.9096V34.8698H94.3857V11.6245H103.204C107.741 11.6245 110.652 14.6291 110.652 18.6807C110.652 22.7322 107.732 25.7283 103.195 25.7283ZM103 14.7908H97.9096V22.5279H103C105.451 22.5279 107.111 21.1235 107.111 18.6722C107.111 16.2208 105.442 14.7908 103 14.7908Z" fill="#B9BDC5"/>
<path d="M123.104 34.8782V33.3801C121.895 34.5888 120.754 35.0739 118.695 35.0739C116.635 35.0739 115.264 34.5803 114.252 33.5759C113.4 32.6907 112.949 31.4224 112.949 30.018C112.949 27.2432 114.873 25.2515 118.661 25.2515H123.036V24.0769C123.036 21.983 121.989 20.9786 119.41 20.9786C117.58 20.9786 116.703 21.4042 115.784 22.5788L113.596 20.519C115.162 18.689 116.796 18.1357 119.537 18.1357C124.074 18.1357 126.364 20.0594 126.364 23.813V34.8782H123.104ZM123.044 27.5581H119.163C117.205 27.5581 116.192 28.4434 116.192 29.9414C116.192 31.4395 117.137 32.2906 119.231 32.2906C120.508 32.2906 121.452 32.1885 122.329 31.3458C122.823 30.8522 123.044 30.0691 123.044 28.8945V27.5581Z" fill="#B9BDC5"/>
<path d="M136.689 38.1724C136.365 39.0832 135.974 39.7386 135.48 40.2322C134.569 41.143 133.361 41.4409 132.084 41.4409H130.748V38.4363H131.599C133.003 38.4363 133.497 38.0107 133.982 36.6744L134.893 34.0953L129.113 18.3232H132.637L136.587 29.9757L140.442 18.3232H144L136.689 38.1724Z" fill="#B9BDC5"/>
</svg>
