<svg width="64" height="64" viewBox="0 0 64 64" fill="none" xmlns="http://www.w3.org/2000/svg">
<path d="M23.5898 18.26V14.05C23.5898 12.89 24.5298 11.95 25.6898 11.95H55.0498C56.2098 11.95 57.1498 12.89 57.1498 14.05V33.97C57.1498 35.13 56.2098 36.07 55.0498 36.07H53.4198" stroke="#3457E5" stroke-width="2" stroke-miterlimit="10" stroke-linecap="round" stroke-linejoin="round"/>
<path d="M46.6494 23.48H9.95937C8.79937 23.48 7.85938 24.42 7.85938 25.58V47.6C7.85938 48.76 8.79937 49.7 9.95937 49.7H19.3994C20.5594 49.7 21.4994 50.64 21.4994 51.8V57.51L29.7694 50.23C30.1494 49.89 30.6494 49.71 31.1594 49.71H46.6594C47.8194 49.71 48.7594 48.77 48.7594 47.61V25.59C48.7494 24.42 47.8094 23.48 46.6494 23.48Z" stroke="#1A2B6B" stroke-width="2" stroke-miterlimit="10" stroke-linecap="round" stroke-linejoin="round"/>
<path d="M23.5898 33.3C23.5898 31.35 25.1698 29.77 27.1198 29.77C29.0698 29.77 30.6498 31.35 30.6498 33.3C30.6498 35.25 29.0698 36.83 27.1198 36.83V38.85" stroke="#1A2B6B" stroke-width="2" stroke-miterlimit="10" stroke-linecap="round" stroke-linejoin="round"/>
<path d="M27.1194 44.9C27.9533 44.9 28.6294 44.2239 28.6294 43.39C28.6294 42.556 27.9533 41.88 27.1194 41.88C26.2854 41.88 25.6094 42.556 25.6094 43.39C25.6094 44.2239 26.2854 44.9 27.1194 44.9Z" fill="#1A2B6B"/>
</svg>
