<svg width="44" height="61" viewBox="0 0 44 61" fill="none" xmlns="http://www.w3.org/2000/svg">
<path d="M26.7144 29.5714C34.6042 29.5714 41.0001 23.1755 41.0001 15.2857C41.0001 7.39593 34.6042 1 26.7144 1C18.8246 1 12.4287 7.39593 12.4287 15.2857C12.4287 23.1755 18.8246 29.5714 26.7144 29.5714Z" stroke="#5D79EA" stroke-width="2" stroke-miterlimit="10" stroke-linecap="round" stroke-linejoin="round"/>
<path d="M26.7144 29.5714C29.5301 29.5714 31.8126 23.1755 31.8126 15.2857C31.8126 7.39593 29.5301 1 26.7144 1C23.8988 1 21.6162 7.39593 21.6162 15.2857C21.6162 23.1755 23.8988 29.5714 26.7144 29.5714Z" stroke="#5D79EA" stroke-width="2" stroke-miterlimit="10" stroke-linecap="round" stroke-linejoin="round"/>
<path d="M26.7144 29.5714C34.6042 29.5714 41.0001 23.1755 41.0001 15.2857C41.0001 7.39593 34.6042 1 26.7144 1C18.8246 1 12.4287 7.39593 12.4287 15.2857C12.4287 23.1755 18.8246 29.5714 26.7144 29.5714Z" stroke="#5D79EA" stroke-width="2" stroke-miterlimit="10" stroke-linecap="round" stroke-linejoin="round"/>
<path d="M12.4287 15.2856H41.0001" stroke="#5D79EA" stroke-width="2" stroke-miterlimit="10" stroke-linecap="round" stroke-linejoin="round"/>
<path d="M1 23.4097H6.12381C7.28572 23.4097 8.30476 24.2001 8.59048 25.3335L14.2571 48.0097C14.8191 50.2668 16.8571 51.8573 19.181 51.8573H40.6095" stroke="#717CAA" stroke-width="2" stroke-miterlimit="10" stroke-linecap="round" stroke-linejoin="round"/>
<path d="M15.2188 28.4954H43.6664L37.5711 46.7811H20.3045" fill="#FCFCFC"/>
<path d="M15.2188 28.4954H40.8473C42.2378 28.4954 43.2092 29.8573 42.7711 31.1716L38.4949 44.0001C37.9426 45.6573 36.3902 46.7811 34.6378 46.7811H20.3045" stroke="#717CAA" stroke-width="2" stroke-miterlimit="10" stroke-linecap="round" stroke-linejoin="round"/>
<path d="M16.0761 60.6477C17.4804 60.6477 18.6189 59.5092 18.6189 58.1049C18.6189 56.7005 17.4804 55.562 16.0761 55.562C14.6717 55.562 13.5332 56.7005 13.5332 58.1049C13.5332 59.5092 14.6717 60.6477 16.0761 60.6477Z" fill="#717CAA"/>
<path d="M36.0477 60.9998C37.4521 60.9998 38.5906 59.8613 38.5906 58.4569C38.5906 57.0525 37.4521 55.9141 36.0477 55.9141C34.6434 55.9141 33.5049 57.0525 33.5049 58.4569C33.5049 59.8613 34.6434 60.9998 36.0477 60.9998Z" fill="#717CAA"/>
<path d="M11.1621 33.8569H41.3431" stroke="#717CAA" stroke-width="2" stroke-miterlimit="10" stroke-linecap="round" stroke-linejoin="round"/>
</svg>
