<svg width="64" height="64" viewBox="0 0 64 64" fill="none" xmlns="http://www.w3.org/2000/svg">
<path d="M42.5508 45H15.5508C14.4508 45 13.5508 44.1 13.5508 43V9C13.5508 7.9 14.4508 7 15.5508 7H42.5508C43.6508 7 44.5508 7.9 44.5508 9V43C44.5508 44.1 43.6508 45 42.5508 45Z" stroke="#1A2B6B" stroke-width="2" stroke-miterlimit="10" stroke-linecap="round" stroke-linejoin="round"/>
<path d="M48.1508 17H51.5508C52.6508 17 53.5508 17.9 53.5508 19V53C53.5508 54.1 52.6508 55 51.5508 55H24.5508C23.4508 55 22.5508 54.1 22.5508 53V48.83" stroke="#3457E5" stroke-width="2" stroke-miterlimit="10" stroke-linecap="round" stroke-linejoin="round"/>
<path d="M28.5508 22L24.0508 19L19.5508 22V7H28.5508V22Z" stroke="#1A2B6B" stroke-width="2" stroke-miterlimit="10" stroke-linecap="round" stroke-linejoin="round"/>
</svg>
