<svg width="42" height="35" viewBox="0 0 42 35" fill="none" xmlns="http://www.w3.org/2000/svg">
<path d="M42 4.14615C40.4594 4.84615 38.7962 5.33077 37.0454 5.52821C38.8312 4.43333 40.1967 2.71026 40.827 0.646154C39.1638 1.65128 37.3256 2.38718 35.3472 2.78205C33.7891 1.07692 31.5481 0 29.0796 0C24.3176 0 20.466 3.94872 20.466 8.83077C20.466 9.53077 20.5361 10.1949 20.6936 10.841C13.5156 10.4821 7.16048 6.9641 2.92372 1.61538C2.1709 2.92564 1.75073 4.43333 1.75073 6.04872C1.75073 9.11795 3.08128 11.8103 5.39225 13.4077C3.99166 13.3718 1.31305 12.959 1.31305 12.3128V12.4205C1.31305 16.6923 4.46436 20.2641 8.42101 21.0897C7.70321 21.2872 7.03793 21.3949 6.2501 21.3949C5.68987 21.3949 5.19967 21.341 4.67445 21.2333C5.77741 24.7513 8.98124 27.3 12.7453 27.3718C9.80408 29.741 6.09254 31.159 2.04835 31.159C1.34806 31.159 0.665277 31.1231 0 31.0333C3.81659 33.5462 8.35098 35 13.218 35C29.0621 35 37.7457 21.5385 37.7457 9.85385C37.7457 9.47692 37.7457 9.08205 37.7282 8.70513C39.3739 7.46667 40.8445 5.90513 42 4.14615Z" fill="#9EA2AB"/>
</svg>
