<svg width="64" height="64" viewBox="0 0 64 64" fill="none" xmlns="http://www.w3.org/2000/svg">
<path d="M30.1112 29.9C36.6889 29.9 42.0212 24.5677 42.0212 17.99C42.0212 11.4123 36.6889 6.08002 30.1112 6.08002C23.5335 6.08002 18.2012 11.4123 18.2012 17.99C18.2012 24.5677 23.5335 29.9 30.1112 29.9Z" stroke="#1A2B6B" stroke-width="2" stroke-miterlimit="10" stroke-linecap="round" stroke-linejoin="round"/>
<path d="M7.57031 53.71C7.57031 41.26 17.6603 31.17 30.1103 31.17C35.5503 31.17 40.5303 33.1 44.4303 36.3" stroke="#1A2B6B" stroke-width="2" stroke-miterlimit="10" stroke-linecap="round" stroke-linejoin="round"/>
<path d="M33.7512 21.22C34.3312 21.22 34.7712 21.77 34.6212 22.34C34.1212 24.27 32.3712 25.69 30.2912 25.69C28.2112 25.69 26.4612 24.27 25.9612 22.34C25.8112 21.77 26.2512 21.22 26.8312 21.22H33.7512Z" fill="#3457E5"/>
<path d="M55.7995 58H40.1995C38.9795 58 38.0195 56.92 38.0895 55.64L38.8995 41.13C38.9695 39.95 39.8895 39.03 41.0095 39.03H54.9995C56.1195 39.03 57.0495 39.95 57.1095 41.13L57.9195 55.64C57.9795 56.92 57.0195 58 55.7995 58Z" fill="white" stroke="#3457E5" stroke-width="2" stroke-miterlimit="10" stroke-linecap="round" stroke-linejoin="round"/>
<path d="M51.7008 44.31V37.44C51.7008 35.4 50.0408 33.74 48.0008 33.74C45.9608 33.74 44.3008 35.4 44.3008 37.44V44.31" stroke="#3457E5" stroke-width="2" stroke-miterlimit="10" stroke-linecap="round" stroke-linejoin="round"/>
</svg>
