<svg width="200" height="48" viewBox="0 0 200 48" fill="none" xmlns="http://www.w3.org/2000/svg">
<path d="M138.118 18.3521C138.868 18.3521 139.619 17.9768 139.816 17.2262L140.566 7.06571C140.566 5.93975 139.44 5.18018 138.118 5.18018C136.804 5.18018 135.669 5.93082 135.669 7.06571L136.42 17.2262C136.42 17.7891 137.171 18.3521 138.118 18.3521ZM132.095 20.613C132.47 19.8623 132.47 19.1117 132.095 18.7274L124.008 13.4551C123.257 13.0798 121.934 13.4551 121.371 14.7687C120.621 15.8947 120.808 17.2172 121.559 17.5925L130.218 21.3547C130.96 21.7389 131.532 21.3636 132.095 20.613ZM142.443 20.613C142.818 21.3636 143.569 21.7389 144.141 21.5513L152.8 17.7891C153.551 17.4138 153.738 16.0913 152.988 14.9653C152.237 13.8393 151.102 13.2674 150.351 13.6517L142.452 18.924C142.068 19.1117 142.068 20.05 142.443 20.613ZM138.118 29.6475C138.868 29.6475 139.619 30.0228 139.816 30.7734L140.566 40.9339C140.566 42.0598 139.44 42.8194 138.118 42.8194C136.804 42.8194 135.669 42.0688 135.669 40.9339L136.42 30.7734C136.42 30.2104 137.171 29.6475 138.118 29.6475ZM142.443 27.3866C142.818 26.636 143.569 26.2607 144.141 26.4483L152.8 30.3981C153.551 30.7734 153.738 32.096 152.988 33.2219C152.237 34.3479 151.102 34.9198 150.351 34.5356L142.452 29.2632C142.068 28.8879 142.068 28.1373 142.443 27.3866ZM132.095 27.3866C132.47 28.1373 132.47 28.8879 132.095 29.2721L124.008 34.5445C123.257 34.9198 121.934 34.5445 121.371 33.2309C120.621 32.1049 120.808 30.7824 121.559 30.407L130.218 26.6449C130.96 26.2606 131.532 26.636 132.095 27.3866Z" fill="#DCDFE6"/>
<path d="M90.5058 24.9381C90.5058 21.1759 89.0045 17.9768 83.7321 17.9768C81.096 17.9768 78.844 18.7274 77.7091 19.4781L78.4598 22.4896C79.5857 21.7389 81.2836 21.1759 82.7849 21.1759C85.4211 21.1759 85.7964 22.6772 85.7964 23.6245V23.8121C79.9611 23.8121 76.3866 25.8853 76.3866 30.0228C76.3866 32.6589 78.2721 34.9109 81.4713 34.9109C83.3568 34.9109 85.0457 34.1602 86.1717 32.8377C86.1717 32.8377 86.7347 35.6615 90.4968 34.5355C90.3092 33.4096 90.3092 32.087 90.3092 30.5857L90.5058 24.9381ZM86.1806 28.8879C86.1806 29.2632 86.1806 29.4509 85.993 29.8262C85.6177 30.9521 84.4917 31.8994 82.9815 31.8994C81.8555 31.8994 80.7206 31.1487 80.7206 29.8262C80.7206 27.5653 83.1691 27.0023 85.993 27.0023L86.1806 28.8879ZM0 12.901C0 12.901 3.76215 28.7091 4.32513 31.3453C5.07577 34.3568 6.21066 35.4828 9.97279 34.7321L12.4213 24.947C12.9843 22.4985 13.3596 20.8096 13.7349 18.361C13.9226 20.8096 14.2979 22.4985 14.8609 24.947C14.8609 24.947 15.7992 29.4598 16.3622 31.7206C16.9252 33.9815 18.2477 35.4828 21.8222 34.7321L27.4699 12.901H22.9571L21.0715 22.3108C20.5086 24.947 20.1332 27.1989 19.7579 29.6474C19.3826 27.1989 19.0073 25.1347 18.4443 22.4985L16.5588 12.901H11.8583L9.59748 22.3108C9.03449 25.1347 8.47152 27.3955 8.0962 29.8351C7.72088 27.5743 7.15789 24.7504 6.59491 21.9355C6.59491 21.9355 5.2813 15.1619 4.89704 12.901H0ZM40.6418 24.9381C40.6418 21.1759 39.1405 17.9768 33.8682 17.9768C31.232 17.9768 28.9801 18.7274 27.8452 19.4781L28.5958 22.4896C29.7218 21.7389 31.4196 21.1759 32.9209 21.1759C35.5571 21.1759 35.9324 22.6772 35.9324 23.6245V23.8121C30.0971 23.8121 26.5226 25.8853 26.5226 30.0228C26.5226 32.6589 28.4081 34.9109 31.6073 34.9109C33.6805 34.9109 35.1818 34.1602 36.3078 32.8377C36.3078 32.8377 36.8707 35.6615 40.6329 34.5355C40.4452 33.4096 40.4452 32.087 40.4452 30.5857L40.6418 24.9381ZM36.3167 28.8879C36.3167 29.2632 36.3167 29.4509 36.129 29.8262C35.7537 30.9521 34.6277 31.8994 33.1175 31.8994C31.9916 31.8994 30.8567 31.1487 30.8567 29.8262C30.8567 27.5653 33.3052 27.0023 36.129 27.0023L36.3167 28.8879ZM47.9784 30.0228V12.901H43.6533V34.7232H47.9784V30.0228ZM104.616 12.901V29.0845C104.616 31.3453 104.991 32.8466 105.93 33.7849C106.68 34.7232 108.003 35.0985 109.504 35.0985C110.818 35.0985 111.953 34.9109 112.703 34.5355V31.1487C112.328 31.3364 111.765 31.3364 111.005 31.3364C109.504 31.3364 109.12 30.3981 109.12 28.3249V22.3019H112.882V18.1644H109.12V12.8921H104.616V12.901ZM93.5172 18.3521V34.7232H98.03V25.1257C98.4054 23.2402 99.7279 22.3019 101.605 22.3019C102.167 22.3019 102.543 22.3019 102.918 22.4896V18.1644H101.98C100.291 18.1644 98.4053 19.2904 97.6547 21.5513H97.467V18.3521H93.5172ZM50.9899 18.3521V34.7232H55.315V25.1257C55.315 24.7504 55.315 24.1874 55.5027 23.8121C55.878 22.8738 56.8163 21.7389 58.1389 21.7389C59.8367 21.7389 60.775 23.2402 60.775 25.5011V34.7232H65.1002V24.9381C65.1002 24.5628 65.1002 23.9998 65.2878 23.6245C65.6631 22.4985 66.6014 21.5513 67.924 21.5513C69.6129 21.5513 70.5602 23.0525 70.5602 25.6887V34.7232H74.8853V24.9381C74.8853 19.8534 72.4368 17.7891 69.4253 17.7891C68.1117 17.7891 67.1644 18.1644 66.2261 18.7274C65.4755 19.2904 64.7248 19.8534 64.1529 20.8006C63.4023 18.9151 61.8921 17.7891 59.8278 17.7891C57.004 17.7891 55.878 19.2904 55.1274 20.4253V18.1644L50.9899 18.3521Z" fill="#B9BDC5"/>
</svg>
