<svg width="320" height="176" viewBox="0 0 320 176" fill="none" xmlns="http://www.w3.org/2000/svg">
<rect width="320" height="176" rx="8" fill="black"/>
<path d="M73.43 54H72.74C55.21 54 41 68.21 41 85.74V122.02H53.83V85.74C53.83 75.32 62.31 66.84 72.73 66.84H73.42C83.84 66.84 92.32 75.32 92.32 85.74V122.02H105.15V85.74C105.17 68.21 90.96 54 73.43 54Z" fill="white"/>
<path d="M79.4999 122.02H66.6699V86.08C66.6699 82.54 69.5399 79.66 73.0899 79.66C76.6299 79.66 79.5099 82.53 79.5099 86.08V122.02H79.4999Z" fill="white"/>
<path d="M140.46 83.52V86.1C137.63 84.46 134.34 83.52 130.83 83.52C120.2 83.52 111.58 92.14 111.58 102.77C111.58 113.4 120.2 122.02 130.83 122.02C134.34 122.02 137.62 121.08 140.46 119.44V122.02H150.09V83.52H140.46ZM130.84 112.39C125.53 112.39 121.21 108.07 121.21 102.76C121.21 97.45 125.53 93.13 130.84 93.13C136.15 93.13 140.47 97.45 140.47 102.76C140.46 108.08 136.14 112.39 130.84 112.39Z" fill="white"/>
<path d="M166.13 83.52H156.5V122.02H166.13V83.52Z" fill="white"/>
<path d="M161.32 80.63C163.976 80.63 166.13 78.4765 166.13 75.82C166.13 73.1635 163.976 71.01 161.32 71.01C158.663 71.01 156.51 73.1635 156.51 75.82C156.51 78.4765 158.663 80.63 161.32 80.63Z" fill="white"/>
<path d="M188.59 83.52C179.73 83.52 172.55 90.7 172.55 99.56V122.02H182.18V112.39V109.18V99.55C182.18 96.01 185.06 93.13 188.6 93.13C192.14 93.13 195.02 96.01 195.02 99.55V109.18V112.39V122.02H204.65V99.56C204.63 90.7 197.45 83.52 188.59 83.52Z" fill="white"/>
<path d="M249.09 106.94C249.39 105.6 249.55 104.2 249.55 102.77C249.55 101.34 249.39 99.94 249.09 98.6C249.05 98.39 248.99 98.17 248.94 97.96C246.8 89.66 239.27 83.52 230.3 83.52C221.33 83.52 213.79 89.66 211.66 97.96C211.61 98.17 211.55 98.39 211.51 98.6C211.21 99.94 211.05 101.34 211.05 102.77C211.05 104.2 211.21 105.6 211.51 106.94C211.55 107.15 211.61 107.37 211.66 107.58C213.8 115.88 221.33 122.02 230.3 122.02C235.01 122.02 239.33 120.33 242.67 117.52L236.48 110.14C234.81 111.55 232.65 112.4 230.3 112.4C226.75 112.4 223.63 110.46 221.97 107.59C221.85 107.38 221.74 107.17 221.63 106.95H238.97H249.09V106.94ZM221.63 98.6C221.74 98.38 221.85 98.17 221.97 97.96C223.64 95.09 226.74 93.15 230.3 93.15C233.85 93.15 236.96 95.09 238.63 97.96C238.75 98.17 238.86 98.38 238.97 98.6H221.63Z" fill="white"/>
<path d="M268.8 102.87V91.86H275.22V83.52H268.8V71.1H259.17V83.51H252.75V91.85H259.17V102.86C259.17 113.47 267.81 122.11 278.42 122.11V112.48C273.11 112.49 268.8 108.17 268.8 102.87Z" fill="white"/>
</svg>
