<svg width="320" height="320" viewBox="0 0 320 320" fill="none" xmlns="http://www.w3.org/2000/svg">
<rect x="0.5" y="0.5" width="319" height="319" rx="7.5" fill="white" stroke="#C8D4E8"/>
<path d="M160.8 57H159.42C124.41 57 96.04 85.37 96.04 120.38V192.83H121.67V120.38C121.67 99.57 138.61 82.63 159.42 82.63H160.8C181.61 82.63 198.55 99.57 198.55 120.38V192.83H224.18V120.38C224.18 85.37 195.81 57 160.8 57Z" fill="black"/>
<path d="M172.93 192.84H147.3V121.07C147.3 113.99 153.04 108.26 160.11 108.26C167.19 108.26 172.92 114 172.92 121.07V192.84H172.93Z" fill="black"/>
<path d="M138.14 229.01V231.22C135.72 229.82 132.9 229.01 129.9 229.01C120.8 229.01 113.42 236.39 113.42 245.49C113.42 254.59 120.8 261.97 129.9 261.97C132.9 261.97 135.71 261.16 138.14 259.76V261.97H146.38V229.02H138.14V229.01ZM129.9 253.73C125.36 253.73 121.66 250.03 121.66 245.49C121.66 240.95 125.36 237.25 129.9 237.25C134.44 237.25 138.14 240.95 138.14 245.49C138.14 250.03 134.45 253.73 129.9 253.73Z" fill="black"/>
<path d="M160.11 229.01H151.87V261.96H160.11V229.01Z" fill="black"/>
<path d="M107.94 218.3V261.96H99.7V231.77L91.06 243.66L85.97 250.67L80.88 243.66L72.24 231.77V261.96H64V218.3H72.64L85.97 236.65L99.3 218.3H107.94Z" fill="black"/>
<path d="M155.99 226.54C158.266 226.54 160.11 224.695 160.11 222.42C160.11 220.145 158.266 218.3 155.99 218.3C153.715 218.3 151.87 220.145 151.87 222.42C151.87 224.695 153.715 226.54 155.99 226.54Z" fill="black"/>
<path d="M179.33 229.01C171.75 229.01 165.6 235.16 165.6 242.74V261.96H173.84V253.72V250.97V242.73C173.84 239.7 176.3 237.24 179.33 237.24C182.36 237.24 184.82 239.7 184.82 242.73V250.97V253.72V261.96H193.06V242.74C193.06 235.16 186.92 229.01 179.33 229.01Z" fill="black"/>
<path d="M231.12 249.06C231.38 247.91 231.51 246.72 231.51 245.49C231.51 244.26 231.38 243.07 231.12 241.92C231.08 241.74 231.04 241.55 230.99 241.37C229.16 234.27 222.71 229.01 215.03 229.01C207.35 229.01 200.9 234.26 199.07 241.37C199.02 241.55 198.98 241.74 198.94 241.92C198.68 243.07 198.55 244.26 198.55 245.49C198.55 246.72 198.68 247.91 198.94 249.06C198.98 249.24 199.02 249.43 199.07 249.61C200.9 256.72 207.35 261.97 215.03 261.97C219.06 261.97 222.76 260.52 225.62 258.12L220.32 251.8C218.89 253.01 217.04 253.73 215.03 253.73C211.99 253.73 209.32 252.07 207.9 249.61C207.8 249.43 207.7 249.25 207.61 249.06H222.45H231.12ZM207.61 241.92C207.7 241.73 207.8 241.55 207.9 241.37C209.33 238.91 211.99 237.25 215.03 237.25C218.07 237.25 220.73 238.91 222.16 241.37C222.26 241.55 222.36 241.73 222.45 241.92H207.61Z" fill="black"/>
<path d="M247.98 245.57V236.15H253.47V229.01H247.98V218.38H239.74V229.01H234.25V236.15H239.74V245.57C239.74 254.65 247.13 262.05 256.22 262.05V253.81C251.68 253.81 247.98 250.12 247.98 245.57Z" fill="black"/>
</svg>
