<svg width="320" height="176" viewBox="0 0 320 176" fill="none" xmlns="http://www.w3.org/2000/svg">
<rect x="0.5" y="0.5" width="319" height="175" rx="7.5" fill="white" stroke="#C8D4E8"/>
<path d="M160 147C127.414 147 101 120.586 101 88C101 55.4136 127.414 29 160 29C192.586 29 219 55.4136 219 88C219 120.586 192.586 147 160 147Z" fill="black"/>
<path d="M160.293 58.134H159.706C144.827 58.134 132.77 70.1913 132.77 85.0705V115.862H143.662V85.0705C143.662 76.2263 150.862 69.0268 159.706 69.0268H160.293C169.137 69.0268 176.336 76.2263 176.336 85.0705V115.862H187.229V85.0705C187.229 70.1913 175.172 58.134 160.293 58.134Z" fill="white"/>
<path d="M165.444 115.866H154.551V85.3681C154.551 82.3591 156.99 79.9238 159.995 79.9238C163.004 79.9238 165.439 82.3633 165.439 85.3681V115.866H165.444Z" fill="white"/>
</svg>
