<svg width="320" height="176" viewBox="0 0 320 176" fill="none" xmlns="http://www.w3.org/2000/svg">
<rect width="320" height="176" rx="8" fill="#3457E5"/>
<path d="M160 147C127.414 147 101 120.586 101 88C101 55.4136 127.414 29 160 29C192.586 29 219 55.4136 219 88C219 120.586 192.586 147 160 147Z" fill="white"/>
<path d="M160.293 58.134H159.707C144.827 58.134 132.77 70.1913 132.77 85.0705V115.862H143.663V85.0705C143.663 76.2263 150.862 69.0268 159.707 69.0268H160.293C169.137 69.0268 176.337 76.2263 176.337 85.0705V115.862H187.23V85.0705C187.23 70.1913 175.172 58.134 160.293 58.134Z" fill="#3457E5"/>
<path d="M165.444 115.866H154.551V85.3681C154.551 82.3591 156.991 79.9238 159.996 79.9238C163.005 79.9238 165.44 82.3633 165.44 85.3681V115.866H165.444Z" fill="#12D3EB"/>
</svg>
