<svg width="913" height="584" viewBox="0 0 913 584" fill="none" xmlns="http://www.w3.org/2000/svg">
<path d="M348.178 6.68718C338.452 9.04349 328.84 11.9136 319.442 15.1203C242.658 41.2789 153.419 96.2005 111.661 168.431C62.9492 252.691 42.2385 368.31 30.0051 463.537C27.4274 483.584 25.4963 504.463 32.0691 523.57C39.8024 546.052 58.8478 563.485 80.6304 572.999C102.413 582.513 126.756 584.807 150.505 583.771C219.263 580.768 283.743 551.376 350.605 535.033C470.689 505.685 596.379 518.813 719.988 519.415C760.223 519.61 800.643 518.441 840.249 511.354C857.071 508.342 874.309 503.984 887.667 493.319C910.38 475.195 916.714 442.091 910.043 413.807C903.364 385.522 885.958 361.082 867.825 338.378C849.692 315.674 830.203 293.484 818.112 267.06C790.97 207.709 801.742 129.41 753.712 85.225C725.622 59.3853 684.759 53.4059 646.597 52.901C608.435 52.3961 569.335 56.0457 532.847 44.8399C500.949 35.0426 473.098 14.4293 440.969 5.40272C410.798 -3.07469 378.89 -0.753807 348.178 6.68718Z" fill="#EBF0F7"/>
<path d="M350.601 535.024C470.685 505.676 596.375 518.804 719.984 519.406C760.219 519.601 800.639 518.432 840.245 511.345C857.067 508.334 874.305 503.975 887.663 493.31C910.376 475.186 916.71 442.082 910.039 413.798C903.36 385.513 885.954 361.073 867.821 338.369C849.688 315.665 830.2 293.475 818.108 267.051C813.209 256.341 809.551 245.011 806.557 233.38L797.016 242.921V187.273C794.89 175.881 792.693 164.587 789.93 153.656H765.126V97.7064C761.734 93.3038 757.951 89.1227 753.708 85.2161C734.68 67.7032 709.771 59.3233 683.825 55.5762V70.7505H655.133V148.863H632.819V273.739H500.502V340.158H473.404V18.141C462.872 13.1183 452.18 8.55628 440.965 5.40272C423.479 0.486351 405.408 -0.789247 387.319 0.450918V158.439H117.805C115.652 161.734 113.606 165.065 111.657 168.44C62.9453 252.7 42.2346 368.319 30.0012 463.546C27.4235 483.592 25.4924 504.471 32.0652 523.579C39.7985 546.061 58.8439 563.494 80.6265 573.008C88.0586 576.259 95.8008 578.642 103.702 580.361H183.826C240.36 571.511 294.652 548.701 350.601 535.024Z" fill="#EFF3F9"/>
<path d="M431.06 481.289L598.421 343.56C643.554 306.417 630.576 234.178 575.336 215.061C550.825 206.584 523.683 211.394 503.583 227.791L279.938 410.157L431.06 481.289Z" fill="url(#paint0_linear_1411_4231)"/>
<path d="M256.988 377.629H215.186C212.838 377.629 210.934 379.534 210.934 381.881C210.934 384.149 212.767 385.983 215.035 385.983H257.121C259.389 385.983 261.222 384.149 261.222 381.881C261.231 379.534 259.335 377.629 256.988 377.629Z" fill="#EBF0F7" stroke="#C8D4E8" stroke-miterlimit="10" stroke-linecap="round" stroke-linejoin="round"/>
<path d="M236.082 329.812L217.551 377.629H254.614L236.082 329.812Z" fill="#EBF0F7" stroke="#C8D4E8" stroke-miterlimit="10" stroke-linecap="round" stroke-linejoin="round"/>
<path d="M236.08 332.842C237.132 332.842 237.985 331.989 237.985 330.937C237.985 329.885 237.132 329.032 236.08 329.032C235.028 329.032 234.176 329.885 234.176 330.937C234.176 331.989 235.028 332.842 236.08 332.842Z" fill="#EBF0F7" stroke="#C8D4E8" stroke-miterlimit="10" stroke-linecap="round" stroke-linejoin="round"/>
<path d="M228.729 348.786H243.434L248.66 362.26H223.512L228.729 348.786Z" fill="#CFD7E8" stroke="#C8D4E8" stroke-miterlimit="10" stroke-linecap="round" stroke-linejoin="round"/>
<path d="M532.968 151.361C483.105 139.172 432.444 174.96 422.257 194.723C413.293 212.112 309.934 365.679 285.228 402.326L270.195 400.413L279.939 410.157L431.062 481.289C431.062 481.289 552.864 288.506 571.732 248.608C590.601 208.71 582.832 163.55 532.968 151.361Z" fill="#CFD7E8" stroke="#C8D4E8" stroke-miterlimit="10" stroke-linecap="round" stroke-linejoin="round"/>
<path d="M270.195 400.413C270.195 400.413 402.317 204.733 412.504 184.979C422.691 165.224 473.361 129.428 523.215 141.617C573.079 153.806 580.856 198.966 561.979 238.864C543.102 278.761 421.309 471.545 421.309 471.545L270.195 400.413Z" fill="white" stroke="#C8D4E8" stroke-miterlimit="10" stroke-linejoin="round"/>
<path d="M533.961 225.603C526.254 241.902 498.067 288.94 468.073 337.811C465.672 341.726 463.254 345.66 460.835 349.584C459.232 352.188 457.629 354.784 456.025 357.379C439.319 384.45 422.816 410.892 409.696 431.807L366.68 411.565L316.117 387.763C329.697 367.584 347.493 341.089 365.369 314.292C399.66 262.879 434.261 210.375 440.027 199.267C441.179 197.309 444.226 194.085 448.717 190.479C459.897 181.497 480.067 170.15 502.328 170.15C507.005 170.15 511.549 170.681 515.863 171.735C532.632 175.837 536.494 183.933 537.761 186.591C542.367 196.255 540.941 210.845 533.961 225.603Z" fill="#CFD7E8" stroke="#C8D4E8" stroke-miterlimit="10" stroke-linecap="round" stroke-linejoin="round"/>
<path d="M392.852 360.612H350.332V403.132H392.852V360.612Z" stroke="#C8D4E8" stroke-miterlimit="10" stroke-linecap="round" stroke-linejoin="round"/>
<path d="M392.852 360.612L350.332 403.132" stroke="#C8D4E8" stroke-miterlimit="10" stroke-linecap="round" stroke-linejoin="round"/>
<path d="M350.332 360.612L392.852 403.132" stroke="#C8D4E8" stroke-miterlimit="10" stroke-linecap="round" stroke-linejoin="round"/>
<path d="M392.852 318.093H350.332V360.613H392.852V318.093Z" stroke="#C8D4E8" stroke-miterlimit="10" stroke-linecap="round" stroke-linejoin="round"/>
<path d="M392.852 318.093L350.332 360.613" stroke="#C8D4E8" stroke-miterlimit="10" stroke-linecap="round" stroke-linejoin="round"/>
<path d="M350.332 318.093L392.852 360.613" stroke="#C8D4E8" stroke-miterlimit="10" stroke-linecap="round" stroke-linejoin="round"/>
<path d="M392.852 275.573H350.332V318.092H392.852V275.573Z" stroke="#C8D4E8" stroke-miterlimit="10" stroke-linecap="round" stroke-linejoin="round"/>
<path d="M392.852 275.573L350.332 318.092" stroke="#C8D4E8" stroke-miterlimit="10" stroke-linecap="round" stroke-linejoin="round"/>
<path d="M350.332 275.573L392.852 318.092" stroke="#C8D4E8" stroke-miterlimit="10" stroke-linecap="round" stroke-linejoin="round"/>
<path d="M392.852 233.053H350.332V275.573H392.852V233.053Z" stroke="#C8D4E8" stroke-miterlimit="10" stroke-linecap="round" stroke-linejoin="round"/>
<path d="M392.852 233.053L350.332 275.573" stroke="#C8D4E8" stroke-miterlimit="10" stroke-linecap="round" stroke-linejoin="round"/>
<path d="M350.332 233.053L392.852 275.573" stroke="#C8D4E8" stroke-miterlimit="10" stroke-linecap="round" stroke-linejoin="round"/>
<path d="M392.852 190.533H350.332V233.053H392.852V190.533Z" stroke="#C8D4E8" stroke-miterlimit="10" stroke-linecap="round" stroke-linejoin="round"/>
<path d="M392.852 190.533L350.332 233.053" stroke="#C8D4E8" stroke-miterlimit="10" stroke-linecap="round" stroke-linejoin="round"/>
<path d="M350.332 190.533L392.852 233.053" stroke="#C8D4E8" stroke-miterlimit="10" stroke-linecap="round" stroke-linejoin="round"/>
<path d="M392.852 148.013H350.332V190.533H392.852V148.013Z" stroke="#C8D4E8" stroke-miterlimit="10" stroke-linecap="round" stroke-linejoin="round"/>
<path d="M392.852 148.013L350.332 190.533" stroke="#C8D4E8" stroke-miterlimit="10" stroke-linecap="round" stroke-linejoin="round"/>
<path d="M350.332 148.013L392.852 190.533" stroke="#C8D4E8" stroke-miterlimit="10" stroke-linecap="round" stroke-linejoin="round"/>
<path d="M392.852 105.493H350.332V148.013H392.852V105.493Z" stroke="#C8D4E8" stroke-miterlimit="10" stroke-linecap="round" stroke-linejoin="round"/>
<path d="M392.852 105.493L350.332 148.013" stroke="#C8D4E8" stroke-miterlimit="10" stroke-linecap="round" stroke-linejoin="round"/>
<path d="M350.332 105.493L392.852 148.013" stroke="#C8D4E8" stroke-miterlimit="10" stroke-linecap="round" stroke-linejoin="round"/>
<path d="M392.852 62.973H350.332V105.493H392.852V62.973Z" stroke="#C8D4E8" stroke-miterlimit="10" stroke-linecap="round" stroke-linejoin="round"/>
<path d="M392.852 62.973L350.332 105.493" stroke="#C8D4E8" stroke-miterlimit="10" stroke-linecap="round" stroke-linejoin="round"/>
<path d="M350.332 62.973L392.852 105.493" stroke="#C8D4E8" stroke-miterlimit="10" stroke-linecap="round" stroke-linejoin="round"/>
<path d="M435.368 62.973H392.848V105.493H435.368V62.973Z" stroke="#C8D4E8" stroke-miterlimit="10" stroke-linecap="round" stroke-linejoin="round"/>
<path d="M435.368 62.973L392.848 105.493" stroke="#C8D4E8" stroke-miterlimit="10" stroke-linecap="round" stroke-linejoin="round"/>
<path d="M392.848 62.973L435.368 105.493" stroke="#C8D4E8" stroke-miterlimit="10" stroke-linecap="round" stroke-linejoin="round"/>
<path d="M350.329 62.973H307.809V105.493H350.329V62.973Z" stroke="#C8D4E8" stroke-miterlimit="10" stroke-linecap="round" stroke-linejoin="round"/>
<path d="M350.329 62.973L307.809 105.493" stroke="#C8D4E8" stroke-miterlimit="10" stroke-linecap="round" stroke-linejoin="round"/>
<path d="M307.809 62.973L350.329 105.493" stroke="#C8D4E8" stroke-miterlimit="10" stroke-linecap="round" stroke-linejoin="round"/>
<path d="M307.809 62.973H265.289V105.493H307.809V62.973Z" stroke="#C8D4E8" stroke-miterlimit="10" stroke-linecap="round" stroke-linejoin="round"/>
<path d="M307.809 62.973L265.289 105.493" stroke="#C8D4E8" stroke-miterlimit="10" stroke-linecap="round" stroke-linejoin="round"/>
<path d="M265.289 62.973L307.809 105.493" stroke="#C8D4E8" stroke-miterlimit="10" stroke-linecap="round" stroke-linejoin="round"/>
<path d="M265.289 62.973H222.77V105.493H265.289V62.973Z" stroke="#C8D4E8" stroke-miterlimit="10" stroke-linecap="round" stroke-linejoin="round"/>
<path d="M265.289 62.973L222.77 105.493" stroke="#C8D4E8" stroke-miterlimit="10" stroke-linecap="round" stroke-linejoin="round"/>
<path d="M222.77 62.973L265.289 105.493" stroke="#C8D4E8" stroke-miterlimit="10" stroke-linecap="round" stroke-linejoin="round"/>
<path d="M222.77 105.493H180.25L222.77 62.973V105.493Z" stroke="#C8D4E8" stroke-miterlimit="10" stroke-linecap="round" stroke-linejoin="round"/>
<path d="M392.852 20.4531H350.332V62.973H392.852V20.4531Z" stroke="#C8D4E8" stroke-miterlimit="10" stroke-linecap="round" stroke-linejoin="round"/>
<path d="M392.852 20.4531L350.332 62.973" stroke="#C8D4E8" stroke-miterlimit="10" stroke-linecap="round" stroke-linejoin="round"/>
<path d="M350.332 20.4531L392.852 62.973" stroke="#C8D4E8" stroke-miterlimit="10" stroke-linecap="round" stroke-linejoin="round"/>
<path d="M196.195 105.493V185.218" stroke="#C8D4E8" stroke-miterlimit="10" stroke-linecap="round" stroke-linejoin="round"/>
<path d="M215.142 118.78H177.247C176.458 118.78 175.82 118.143 175.82 117.354V114.006C175.82 113.217 176.458 112.58 177.247 112.58H215.142C215.931 112.58 216.569 113.217 216.569 114.006V117.354C216.569 118.134 215.922 118.78 215.142 118.78Z" fill="#CFD7E8" stroke="#C8D4E8" stroke-miterlimit="10" stroke-linecap="round" stroke-linejoin="round"/>
<path d="M460.838 349.584C442.519 379.33 424.076 408.89 409.699 431.807L366.683 411.565C356.585 382.732 361.696 350.682 361.696 350.682L460.838 349.584Z" fill="#EBF0F7"/>
<path d="M340.945 275.581C340.945 275.581 351.779 317.623 364.296 327.243C376.813 336.863 372.118 304.637 372.118 304.637L374.439 277.353L340.945 275.581Z" fill="white" stroke="#C8D4E8" stroke-miterlimit="10" stroke-linejoin="round"/>
<path d="M486.981 262.887C486.981 262.887 472.267 298.489 461.247 309.899C450.228 321.308 454.4 282.686 456.34 277.327C458.28 271.967 470.194 251.07 470.779 251.115C471.381 251.159 486.981 262.887 486.981 262.887Z" fill="white" stroke="#C8D4E8" stroke-miterlimit="10" stroke-linejoin="round"/>
<path d="M491.839 256.093C488.633 270.931 473.219 273.101 473.219 273.101C470.367 281.454 463.989 282.376 463.014 312.361C462.563 326.215 465.158 333.736 468.073 337.811C465.672 341.726 463.254 345.659 460.835 349.584C459.232 352.188 457.629 354.784 456.025 357.379C398.092 369.524 357.592 352.073 357.592 352.073C362.977 342.559 364.714 321.618 364.714 321.618L365.369 314.292L368.284 281.534C347.272 281.702 334.746 273.473 332.912 267.6C331.079 261.727 331.725 221.448 336.456 213.423C341.186 205.406 360.922 201.136 360.922 201.136L430.088 192.349C430.088 192.349 438.486 190.169 448.717 190.479C457.682 190.745 468.055 192.916 475.434 200.126C491.246 215.575 495.037 241.247 491.839 256.093Z" fill="#3457E5"/>
<path d="M407.899 265.766C405.587 264.544 402.894 264.34 400.281 264.26C388.544 263.924 376.735 265.793 365.68 269.762C360.472 271.622 355.236 273.987 349.718 273.836C344.792 273.703 340.115 271.56 335.969 268.902C335.686 268.725 335.341 268.486 334.942 268.238C334.304 267.83 333.542 267.37 332.754 266.989C332.807 267.219 332.86 267.432 332.913 267.6C334.747 273.473 347.273 281.703 368.285 281.534L367.399 291.518C367.647 291.42 367.886 291.296 368.09 291.11C368.958 290.339 369.02 289.028 369.02 287.868C369.011 284.635 369.002 281.41 368.993 278.177C372.191 278.212 373.352 282.411 373.245 285.609C372.802 299.96 366.265 313.761 366.956 328.102C367.195 333.125 368.639 338.564 372.758 341.443C378.02 345.11 385.824 342.825 389.863 337.847C393.903 332.868 394.877 326.047 394.603 319.643C394.328 313.238 392.955 306.896 392.973 300.482C392.973 298.604 393.123 296.638 394.133 295.061C395.648 292.669 398.633 291.792 401.255 290.703C406.242 288.639 410.822 284.936 412.612 279.842C414.401 274.766 412.674 268.291 407.899 265.766Z" fill="#0539DB"/>
<path d="M436.065 211.686C436.065 211.686 441.097 238.545 429.466 254.082C417.835 269.62 395.795 265.572 395.795 265.572C395.795 265.572 380.665 238.571 380.869 237.73C381.073 236.888 398.285 222.166 399.25 221.98C400.216 221.794 436.065 211.686 436.065 211.686Z" fill="#0539DB"/>
<path d="M431.931 220.102C431.931 220.943 433.658 250.946 416.933 258.857C400.209 266.767 384.521 246.73 386.567 236.676C388.622 226.63 431.931 220.102 431.931 220.102Z" fill="#292C38"/>
<path d="M333.439 133.459C333.439 133.459 304.88 129.889 303.285 141.617C301.691 153.345 309.708 164.418 325.635 166.854C325.635 166.854 319.921 192.349 351.997 185.696C351.997 185.696 355.727 196.751 356.612 198.523C356.612 198.523 358.526 189.585 370.617 185.696C382.7 181.807 424.077 189.682 435.469 198.177C435.469 198.177 446.48 191.41 450.121 176.634C453.753 161.858 452.814 158.749 452.814 158.749C452.814 158.749 461.265 157.73 461.619 153.168C461.619 153.168 459.271 151.485 456.348 151.893C456.348 151.893 457.615 149.528 455.941 147.641C455.941 147.641 453.035 148.155 452.557 150.307C452.557 150.307 448.004 138.269 440.811 136.639C433.618 135.009 430.721 141.263 430.721 141.263C430.721 141.263 419.551 112.181 398.043 109.497C376.544 106.813 377.429 123.041 377.429 123.041C377.429 123.041 360.794 105.537 342.058 115.875C332.925 120.906 333.439 133.459 333.439 133.459Z" fill="#292C38"/>
<path d="M360.93 190.32C360.93 190.32 368.867 232.131 398.976 244.081C429.086 256.022 439.778 211.669 439.778 206.15C439.778 202.483 446.005 202.695 447.91 198.904C449.814 195.112 452.303 188.894 447.91 184.438C443.516 179.982 437.519 181.896 436.066 187.654C434.613 193.412 435.472 198.177 435.472 198.177C435.472 198.177 423.443 189.913 426.26 172.86C426.26 172.86 408.472 190.409 370.771 172.86C370.771 172.86 371.639 183.96 369.655 186.998C367.68 190.045 360.93 190.32 360.93 190.32Z" fill="white" stroke="#C8D4E8" stroke-miterlimit="10" stroke-linejoin="round"/>
<path d="M357.804 204.609L354.615 196.326C354.615 196.326 344.446 216.762 354.021 230.448C363.597 244.134 372.004 246.198 380.57 246.438L357.804 204.609Z" fill="#0539DB"/>
<path d="M354.02 200.33C354.02 200.33 353.719 228.482 375.537 246.119L392.615 244.09C392.615 244.09 412.68 235.108 411.971 218.773C411.262 202.438 409.225 196.034 395.796 186.732C382.375 177.414 361.027 184.234 354.02 200.33Z" fill="white" stroke="#C8D4E8" stroke-miterlimit="10" stroke-linejoin="round"/>
<path d="M380.854 218.374C382.727 218.374 384.246 216.855 384.246 214.982C384.246 213.108 382.727 211.589 380.854 211.589C378.98 211.589 377.461 213.108 377.461 214.982C377.461 216.855 378.98 218.374 380.854 218.374Z" fill="#DDE4F1"/>
<path d="M380.856 231.759C390.122 231.759 397.633 224.248 397.633 214.982C397.633 205.716 390.122 198.204 380.856 198.204C371.59 198.204 364.078 205.716 364.078 214.982C364.078 224.248 371.59 231.759 380.856 231.759Z" stroke="#C8D4E8" stroke-miterlimit="10" stroke-linejoin="round"/>
<path d="M491.838 256.093C492.13 254.738 492.361 253.285 492.538 251.77C489.907 267.822 478.116 268.442 478.116 268.442C480.295 260.54 475.902 255.801 475.902 255.801C475.902 255.801 476.628 266.404 473.227 273.11C473.218 273.101 488.631 270.931 491.838 256.093Z" fill="#0539DB"/>
<path d="M385.623 250.034C376.277 251.699 365.798 257.953 364.38 267.768C362.963 277.583 365.24 284.891 363.636 288.754C362.033 292.616 353.75 315.497 364.947 330.095C376.153 344.694 383.514 339.786 388.785 330.937C394.056 322.088 387.793 296.142 382.079 288.745C382.079 288.745 404.163 289.064 407.715 281.437C409.398 277.831 409.398 276.334 409.398 276.334C409.398 276.334 411.79 273.42 408.681 269.274C408.681 269.274 412.508 260.815 406.634 260.398C406.634 260.398 405.403 253.365 399.973 254.437C399.991 254.454 396.323 248.129 385.623 250.034Z" fill="white" stroke="#C8D4E8" stroke-miterlimit="10" stroke-linejoin="round"/>
<path d="M420.921 180.168C420.921 180.168 418.759 187.609 410.84 190.001" stroke="#C8D4E8" stroke-miterlimit="10" stroke-linecap="round" stroke-linejoin="round"/>
<path d="M422.755 190.214L412.586 194.572L423.685 197.486" stroke="#C8D4E8" stroke-miterlimit="10" stroke-linecap="round" stroke-linejoin="round"/>
<path d="M440.605 187.663C440.605 187.663 446.966 187.282 445.079 194.909" stroke="#C8D4E8" stroke-miterlimit="10" stroke-linecap="round" stroke-linejoin="round"/>
<path d="M202.685 345.19V189.222H163.185L59.1445 345.19V398.03H146.151V443.951H202.685V398.322H234.017V345.199H202.685V345.19ZM146.151 345.19H120.356L146.151 305.345V345.19Z" fill="#0539DB"/>
<path d="M193.829 345.19V189.222H154.33L50.2891 345.19V398.03H137.295V443.951H193.829V398.322H225.161V345.199H193.829V345.19ZM137.295 345.19H111.5L137.295 305.345V345.19Z" fill="#3457E5"/>
<path d="M733.734 345.19V189.222H694.235L590.203 345.19V398.03H677.209V443.951H733.743V398.322H765.075V345.199H733.734V345.19ZM677.201 345.19H651.405L677.201 305.345V345.19Z" fill="#CFD7E8" stroke="#C8D4E8" stroke-miterlimit="10" stroke-linecap="round" stroke-linejoin="round"/>
<path d="M724.875 345.19V189.222H685.376L581.344 345.19V398.03H668.35V443.951H724.884V398.322H756.216V345.199H724.875V345.19ZM668.341 345.19H642.546L668.341 305.345V345.19Z" fill="white" stroke="#C8D4E8" stroke-miterlimit="10" stroke-linejoin="round"/>
<path d="M380.855 181.107C362.146 181.107 346.98 196.273 346.98 214.982C346.98 233.69 362.146 248.856 380.855 248.856C399.563 248.856 414.729 233.69 414.729 214.982C414.729 196.273 399.563 181.107 380.855 181.107ZM380.855 244.391C364.617 244.391 351.454 231.228 351.454 214.99C351.454 198.753 364.617 185.59 380.855 185.59C397.092 185.59 410.255 198.753 410.255 214.99C410.255 231.228 397.101 244.391 380.855 244.391Z" fill="#CFD7E8" stroke="#C8D4E8" stroke-miterlimit="10" stroke-linecap="round" stroke-linejoin="round"/>
<path d="M191.91 459.055V488.89C191.91 490.325 193.071 491.485 194.506 491.485H286.49C287.925 491.485 289.086 490.325 289.086 488.89V449.762C289.086 449.213 288.953 448.682 288.705 448.195L267.392 407.225C266.843 406.162 265.744 405.497 264.548 405.497H229.248C227.476 405.497 226.041 406.932 226.041 408.704V456.459H194.515C193.071 456.459 191.91 457.62 191.91 459.055Z" fill="#EBF0F7" stroke="#C8D4E8" stroke-miterlimit="10" stroke-linecap="round" stroke-linejoin="round"/>
<path d="M289.074 451.029H263.474C261.879 451.029 260.595 452.322 260.595 453.908V464.848C260.595 468.188 257.893 470.89 254.553 470.89C253.535 470.89 252.542 470.633 251.648 470.145L249.894 469.18L226.021 456.468H194.494C193.059 456.468 191.898 457.629 191.898 459.064V488.898C191.898 490.333 193.059 491.494 194.494 491.494H286.479C287.914 491.494 289.074 490.333 289.074 488.898V451.029Z" fill="white" stroke="#C8D4E8" stroke-miterlimit="10" stroke-linecap="round" stroke-linejoin="round"/>
<path d="M266.582 436.183L260.045 442.72C259.443 443.322 258.468 443.322 257.866 442.72C257.263 442.118 257.263 441.143 257.866 440.541L264.403 434.003C265.006 433.401 265.98 433.401 266.582 434.003C267.185 434.606 267.185 435.58 266.582 436.183Z" fill="#CFD7E8" stroke="#C8D4E8" stroke-miterlimit="10" stroke-linecap="round" stroke-linejoin="round"/>
<path d="M264.035 438.725L262.582 440.178L269.842 447.438L271.295 445.985L264.035 438.725Z" fill="#CFD7E8" stroke="#C8D4E8" stroke-miterlimit="10" stroke-linecap="round" stroke-linejoin="round"/>
<path d="M284.132 439.425H271.712C270.516 439.425 269.551 440.39 269.551 441.586V448.983C269.551 451.508 271.597 453.545 274.113 453.545H289.083V449.762C289.083 449.213 288.95 448.682 288.702 448.195L284.132 439.425Z" fill="#CFD7E8" stroke="#C8D4E8" stroke-miterlimit="10" stroke-linecap="round" stroke-linejoin="round"/>
<path d="M248.381 459.055H236.369C235.527 459.055 234.854 458.373 234.854 457.54V451.215C234.854 450.374 234.172 449.7 233.339 449.7H227.546C226.704 449.7 226.031 450.383 226.031 451.215V456.459V467.656C226.031 468.498 226.713 469.171 227.546 469.171H248.381C249.222 469.171 249.896 468.489 249.896 467.656V460.57C249.896 459.737 249.222 459.055 248.381 459.055Z" fill="#CFD7E8" stroke="#C8D4E8" stroke-miterlimit="10" stroke-linecap="round" stroke-linejoin="round"/>
<path d="M292.157 484.62H289.074V396.807C289.074 395.957 289.765 395.266 290.616 395.266C291.466 395.266 292.157 395.957 292.157 396.807V484.62Z" fill="#CFD7E8" stroke="#C8D4E8" stroke-miterlimit="10" stroke-linecap="round" stroke-linejoin="round"/>
<path d="M289.48 484.124V482.033C289.48 481.759 289.702 481.537 289.977 481.537H329.024C329.874 481.537 330.565 482.228 330.565 483.079C330.565 483.929 329.874 484.62 329.024 484.62H289.977C289.702 484.62 289.48 484.399 289.48 484.124Z" fill="#CFD7E8" stroke="#C8D4E8" stroke-miterlimit="10" stroke-linecap="round" stroke-linejoin="round"/>
<path d="M217.074 504.126C224.163 504.126 229.91 498.379 229.91 491.29C229.91 484.201 224.163 478.455 217.074 478.455C209.985 478.455 204.238 484.201 204.238 491.29C204.238 498.379 209.985 504.126 217.074 504.126Z" fill="white" stroke="#C8D4E8" stroke-miterlimit="10" stroke-linecap="round" stroke-linejoin="round"/>
<path d="M217.073 496.942C220.195 496.942 222.725 494.412 222.725 491.29C222.725 488.169 220.195 485.639 217.073 485.639C213.952 485.639 211.422 488.169 211.422 491.29C211.422 494.412 213.952 496.942 217.073 496.942Z" fill="#CFD7E8" stroke="#C8D4E8" stroke-miterlimit="10" stroke-linecap="round" stroke-linejoin="round"/>
<path d="M269.453 504.126C276.542 504.126 282.289 498.379 282.289 491.29C282.289 484.201 276.542 478.455 269.453 478.455C262.364 478.455 256.617 484.201 256.617 491.29C256.617 498.379 262.364 504.126 269.453 504.126Z" fill="white" stroke="#C8D4E8" stroke-miterlimit="10" stroke-linecap="round" stroke-linejoin="round"/>
<path d="M269.452 496.942C272.574 496.942 275.104 494.412 275.104 491.29C275.104 488.169 272.574 485.639 269.452 485.639C266.331 485.639 263.801 488.169 263.801 491.29C263.801 494.412 266.331 496.942 269.452 496.942Z" fill="#CFD7E8" stroke="#C8D4E8" stroke-miterlimit="10" stroke-linecap="round" stroke-linejoin="round"/>
<path d="M756.207 327.394H736.719V344.225H756.207V327.394Z" fill="white" stroke="#C8D4E8" stroke-miterlimit="10" stroke-linecap="round" stroke-linejoin="round"/>
<path d="M756.207 327.394H751.777V344.225H756.207V327.394Z" fill="#EBF0F7" stroke="#C8D4E8" stroke-miterlimit="10" stroke-linecap="round" stroke-linejoin="round"/>
<path d="M745.577 327.394H736.719V344.225H745.577V327.394Z" fill="#CFD7E8" stroke="#C8D4E8" stroke-miterlimit="10" stroke-linecap="round" stroke-linejoin="round"/>
<path d="M746.463 317.65L736.719 327.394H756.207L746.463 317.65Z" stroke="#C8D4E8" stroke-miterlimit="10" stroke-linecap="round" stroke-linejoin="round"/>
<path d="M684.32 410.883V464.919" stroke="#C8D4E8" stroke-miterlimit="10" stroke-linecap="round" stroke-linejoin="round"/>
<path d="M703.809 411.326V465.362" stroke="#C8D4E8" stroke-miterlimit="10" stroke-linecap="round" stroke-linejoin="round"/>
<path d="M684.32 414.427H703.809" stroke="#C8D4E8" stroke-miterlimit="10" stroke-linecap="round" stroke-linejoin="round"/>
<path d="M684.32 423.285H703.809" stroke="#C8D4E8" stroke-miterlimit="10" stroke-linecap="round" stroke-linejoin="round"/>
<path d="M684.32 432.143H703.809" stroke="#C8D4E8" stroke-miterlimit="10" stroke-linecap="round" stroke-linejoin="round"/>
<path d="M684.32 441.001H703.809" stroke="#C8D4E8" stroke-miterlimit="10" stroke-linecap="round" stroke-linejoin="round"/>
<path d="M684.32 449.86H703.809" stroke="#C8D4E8" stroke-miterlimit="10" stroke-linecap="round" stroke-linejoin="round"/>
<path d="M684.32 458.718H703.809" stroke="#C8D4E8" stroke-miterlimit="10" stroke-linecap="round" stroke-linejoin="round"/>
<path d="M684.32 358.274V412.309" stroke="#C8D4E8" stroke-miterlimit="10" stroke-linecap="round" stroke-linejoin="round"/>
<path d="M703.809 358.717V412.752" stroke="#C8D4E8" stroke-miterlimit="10" stroke-linecap="round" stroke-linejoin="round"/>
<path d="M684.32 361.817H703.809" stroke="#C8D4E8" stroke-miterlimit="10" stroke-linecap="round" stroke-linejoin="round"/>
<path d="M684.32 370.675H703.809" stroke="#C8D4E8" stroke-miterlimit="10" stroke-linecap="round" stroke-linejoin="round"/>
<path d="M684.32 379.534H703.809" stroke="#C8D4E8" stroke-miterlimit="10" stroke-linecap="round" stroke-linejoin="round"/>
<path d="M684.32 388.392H703.809" stroke="#C8D4E8" stroke-miterlimit="10" stroke-linecap="round" stroke-linejoin="round"/>
<path d="M684.32 397.25H703.809" stroke="#C8D4E8" stroke-miterlimit="10" stroke-linecap="round" stroke-linejoin="round"/>
<path d="M684.32 406.109H703.809" stroke="#C8D4E8" stroke-miterlimit="10" stroke-linecap="round" stroke-linejoin="round"/>
<path d="M684.32 306.612V360.648" stroke="#C8D4E8" stroke-miterlimit="10" stroke-linecap="round" stroke-linejoin="round"/>
<path d="M703.809 307.055V361.091" stroke="#C8D4E8" stroke-miterlimit="10" stroke-linecap="round" stroke-linejoin="round"/>
<path d="M684.32 310.156H703.809" stroke="#C8D4E8" stroke-miterlimit="10" stroke-linecap="round" stroke-linejoin="round"/>
<path d="M684.32 319.014H703.809" stroke="#C8D4E8" stroke-miterlimit="10" stroke-linecap="round" stroke-linejoin="round"/>
<path d="M684.32 327.872H703.809" stroke="#C8D4E8" stroke-miterlimit="10" stroke-linecap="round" stroke-linejoin="round"/>
<path d="M684.32 336.73H703.809" stroke="#C8D4E8" stroke-miterlimit="10" stroke-linecap="round" stroke-linejoin="round"/>
<path d="M684.32 345.589H703.809" stroke="#C8D4E8" stroke-miterlimit="10" stroke-linecap="round" stroke-linejoin="round"/>
<path d="M684.32 354.447H703.809" stroke="#C8D4E8" stroke-miterlimit="10" stroke-linecap="round" stroke-linejoin="round"/>
<path d="M456.024 357.379C457.628 354.784 459.231 352.188 460.835 349.584C463.253 345.66 465.671 341.726 468.072 337.811C465.157 333.736 462.562 326.216 463.014 312.361C463.147 308.171 463.395 304.566 463.713 301.412C463.306 302.103 462.943 303.104 462.677 304.486C461.056 312.884 460.392 321.467 460.684 330.016C460.843 334.675 461.136 339.051 458.354 343.099C449.115 356.555 426.03 357.29 411.618 357.317C398.082 357.344 384.476 356.511 371.295 353.419C366.998 352.41 362.746 351.169 358.406 350.461C358.14 351.028 357.865 351.568 357.582 352.064C357.591 352.073 398.091 369.524 456.024 357.379Z" fill="#0539DB"/>
<path d="M93.4445 413.178V404.461H85.7909C85.3391 402.61 84.6127 400.873 83.6472 399.297L89.0596 393.884L82.8942 387.719L77.4818 393.131C75.8961 392.166 74.1688 391.439 72.3174 390.987V383.334H63.6008V390.987C61.7494 391.439 60.0132 392.166 58.4275 393.131L53.0151 387.719L46.8497 393.884L52.2621 399.297C51.2966 400.882 50.5702 402.61 50.1184 404.461H42.4648V413.178H50.1184C50.5702 415.029 51.2966 416.765 52.2621 418.351L46.8497 423.763L53.0151 429.929L58.4275 424.516C60.0132 425.482 61.7494 426.208 63.6008 426.66V434.313H72.3174V426.66C74.1688 426.208 75.905 425.482 77.4818 424.516L82.8942 429.929L89.0596 423.763L83.6472 418.351C84.6127 416.765 85.3391 415.029 85.7909 413.178H93.4445ZM76.8528 408.819C76.8528 409.652 76.7377 410.458 76.5251 411.22C76.3302 411.911 76.0556 412.566 75.7101 413.169C74.9129 414.586 73.7347 415.764 72.3174 416.561C71.7062 416.907 71.0418 417.182 70.3597 417.376C69.589 417.589 68.7918 417.704 67.9591 417.704C67.1264 417.704 66.3203 417.589 65.5585 417.376C64.8675 417.182 64.212 416.907 63.6008 416.561C62.1835 415.764 61.0053 414.586 60.208 413.169C59.8626 412.557 59.588 411.902 59.3931 411.211C59.1805 410.449 59.0653 409.643 59.0653 408.81C59.0653 407.978 59.1805 407.172 59.3931 406.41C59.588 405.719 59.8626 405.063 60.208 404.452C61.0053 403.026 62.1835 401.857 63.6008 401.059C64.212 400.714 64.8675 400.439 65.5585 400.253C66.3203 400.032 67.1264 399.917 67.9591 399.917C68.7918 399.917 69.5979 400.032 70.3597 400.244C71.0506 400.439 71.7062 400.714 72.3174 401.059C73.7347 401.857 74.9129 403.035 75.7101 404.452C76.0556 405.063 76.3302 405.719 76.5251 406.41C76.7377 407.18 76.8528 407.987 76.8528 408.819Z" fill="#EBF0F7" stroke="#C8D4E8" stroke-miterlimit="10" stroke-linecap="round" stroke-linejoin="round"/>
<path d="M656.516 461.137H545.008V476.86H656.516V461.137Z" fill="white" stroke="#C8D4E8" stroke-miterlimit="10" stroke-linejoin="round"/>
<path d="M572.885 461.137H545.008V476.86H572.885V461.137Z" fill="white" stroke="#C8D4E8" stroke-miterlimit="10" stroke-linejoin="round"/>
<path d="M600.76 461.137H572.883V476.86H600.76V461.137Z" fill="#C8D4E8" stroke="#C8D4E8" stroke-miterlimit="10"/>
<path d="M656.515 461.137H628.328V476.86H656.515V461.137Z" fill="#C8D4E8" stroke="#C8D4E8" stroke-miterlimit="10"/>
<path d="M567.598 477.507V524.314" stroke="#C8D4E8" stroke-miterlimit="10"/>
<path d="M634.973 477.507V524.314" stroke="#C8D4E8" stroke-miterlimit="10"/>
<path d="M75.2238 396.914V384.22H64.0801C63.4246 381.527 62.3616 379.002 60.9619 376.699L68.8458 368.815L59.8635 359.833L51.9796 367.717C49.6764 366.317 47.1518 365.254 44.4589 364.599V353.455H31.7649V364.599C29.072 365.254 26.5385 366.317 24.2354 367.717L16.3515 359.833L7.37799 368.815L15.2619 376.699C13.8623 379.002 12.7993 381.527 12.1438 384.22H1V396.914H12.1438C12.7993 399.607 13.8623 402.14 15.2619 404.443L7.37799 412.327L16.3515 421.301L24.2354 413.417C26.5385 414.816 29.072 415.879 31.7649 416.535V427.679H44.4589V416.535C47.1518 415.879 49.6764 414.816 51.9796 413.417L59.8635 421.301L68.8458 412.327L60.9619 404.443C62.3616 402.14 63.4246 399.607 64.0801 396.914H75.2238ZM51.0672 390.571C51.0672 391.785 50.8989 392.963 50.5889 394.07C50.3054 395.071 49.9068 396.028 49.4018 396.914C48.2414 398.978 46.5229 400.696 44.4589 401.857C43.5642 402.362 42.6075 402.76 41.6065 403.044C40.4904 403.354 39.3211 403.522 38.1075 403.522C36.8939 403.522 35.7246 403.354 34.6173 403.044C33.6075 402.76 32.6596 402.362 31.7649 401.857C29.7009 400.696 27.9824 398.978 26.822 396.914C26.3171 396.028 25.9184 395.071 25.635 394.061C25.3249 392.954 25.1566 391.785 25.1566 390.571C25.1566 389.358 25.3249 388.188 25.635 387.072C25.9184 386.062 26.3171 385.106 26.822 384.22C27.9824 382.147 29.7009 380.437 31.7649 379.277C32.6596 378.772 33.6075 378.373 34.6173 378.099C35.7246 377.78 36.8939 377.611 38.1075 377.611C39.3211 377.611 40.4904 377.78 41.6065 378.09C42.6075 378.373 43.5642 378.772 44.4589 379.277C46.5229 380.437 48.2414 382.147 49.4018 384.22C49.9068 385.106 50.3054 386.062 50.5889 387.072C50.8989 388.188 51.0672 389.358 51.0672 390.571Z" fill="#EBF0F7" stroke="#C8D4E8" stroke-miterlimit="10" stroke-linecap="round" stroke-linejoin="round"/>
<defs>
<linearGradient id="paint0_linear_1411_4231" x1="352.365" y1="444.707" x2="610.841" y2="241.954" gradientUnits="userSpaceOnUse">
<stop stop-color="#CFD7E8"/>
<stop offset="1" stop-color="#EBF0F7"/>
</linearGradient>
</defs>
</svg>
