<svg width="64" height="64" viewBox="0 0 64 64" fill="none" xmlns="http://www.w3.org/2000/svg">
<path d="M30.1696 29.7401C36.9848 29.7401 42.5096 24.2153 42.5096 17.4001C42.5096 10.5849 36.9848 5.06006 30.1696 5.06006C23.3544 5.06006 17.8296 10.5849 17.8296 17.4001C17.8296 24.2153 23.3544 29.7401 30.1696 29.7401Z" stroke="#1A2B6B" stroke-width="2" stroke-miterlimit="10" stroke-linecap="round" stroke-linejoin="round"/>
<path d="M6.81982 54.4101C6.81982 41.5101 17.2698 31.0601 30.1698 31.0601C36.1998 31.0601 41.7098 33.3501 45.8498 37.1101" stroke="#1A2B6B" stroke-width="2" stroke-miterlimit="10" stroke-linecap="round" stroke-linejoin="round"/>
<path d="M29.4898 57.67L26.3598 54.56C26.0398 54.24 25.8998 53.82 25.9698 53.41L28.0098 41.73C28.0598 41.47 28.3298 41.27 28.6498 41.27H31.6898C32.0098 41.27 32.2898 41.46 32.3298 41.73L34.3698 53.41C34.4398 53.82 34.2998 54.24 33.9798 54.56L30.8498 57.67C30.4998 58.02 29.8498 58.02 29.4898 57.67Z" fill="#3457E5"/>
<path d="M31.9899 35.02H28.3698C27.8598 35.02 27.4698 35.48 27.5598 35.98L27.9798 38.5C28.0498 38.9 28.3898 39.19 28.7898 39.19H31.5598C31.9598 39.19 32.2998 38.9 32.3698 38.5L32.7898 35.98C32.8798 35.48 32.4999 35.02 31.9899 35.02Z" fill="#3457E5"/>
<path d="M56.1398 57.9302H40.3698C39.3498 57.9302 38.5098 57.1002 38.5098 56.0702V37.5302C38.5098 36.5102 39.3398 35.6702 40.3698 35.6702H52.3498L57.9898 41.2402V56.0802C57.9998 57.1002 57.1698 57.9302 56.1398 57.9302Z" fill="white" stroke="#3457E5" stroke-width="2" stroke-miterlimit="10" stroke-linecap="round" stroke-linejoin="round"/>
<path d="M51.5098 35.6702V40.2202C51.5098 41.2402 52.3398 42.0802 53.3698 42.0802H57.9998L51.5098 35.6702Z" fill="#3457E5"/>
<path d="M43.1597 46.8H50.5797" stroke="#3457E5" stroke-width="2" stroke-miterlimit="10" stroke-linecap="round" stroke-linejoin="round"/>
<path d="M43.1597 52.3701H53.3597" stroke="#3457E5" stroke-width="2" stroke-miterlimit="10" stroke-linecap="round" stroke-linejoin="round"/>
</svg>
