<svg width="64" height="64" viewBox="0 0 64 64" fill="none" xmlns="http://www.w3.org/2000/svg">
<path d="M27.1097 30.8901C33.6874 30.8901 39.0197 25.5578 39.0197 18.9801C39.0197 12.4024 33.6874 7.07007 27.1097 7.07007C20.532 7.07007 15.1997 12.4024 15.1997 18.9801C15.1997 25.5578 20.532 30.8901 27.1097 30.8901Z" stroke="#1A2B6B" stroke-width="2" stroke-miterlimit="10" stroke-linecap="round" stroke-linejoin="round"/>
<path d="M4.56982 54.7102C4.56982 42.2602 14.6598 32.1702 27.1098 32.1702C32.5498 32.1702 37.5298 34.1002 41.4298 37.3002" stroke="#1A2B6B" stroke-width="2" stroke-miterlimit="10" stroke-linecap="round" stroke-linejoin="round"/>
<path d="M58.2298 47.4V58.07C58.2298 59.01 57.3898 59.77 56.3598 59.77H33.8798C32.8498 59.77 32.0098 59.01 32.0098 58.07V41.93C32.0098 40.99 32.8498 40.23 33.8798 40.23H56.3598C57.3898 40.23 58.2298 40.99 58.2298 41.93V47.4Z" fill="white" stroke="#3457E5" stroke-width="2" stroke-miterlimit="10" stroke-linecap="round" stroke-linejoin="round"/>
<path d="M50.5098 45.97L54.9998 50.12L50.5098 54.27" stroke="#3457E5" stroke-width="2" stroke-miterlimit="10" stroke-linecap="round" stroke-linejoin="round"/>
<path d="M39.95 54.27L35.46 50.12L39.95 45.97" stroke="#3457E5" stroke-width="2" stroke-miterlimit="10" stroke-linecap="round" stroke-linejoin="round"/>
<path d="M42.9199 54.58L47.5499 46.01" stroke="#3457E5" stroke-width="2" stroke-miterlimit="10" stroke-linecap="round" stroke-linejoin="round"/>
</svg>
