<svg width="64" height="64" viewBox="0 0 64 64" fill="none" xmlns="http://www.w3.org/2000/svg">
<path d="M30.11 29.9001C36.6877 29.9001 42.02 24.5678 42.02 17.9901C42.02 11.4124 36.6877 6.08008 30.11 6.08008C23.5322 6.08008 18.2 11.4124 18.2 17.9901C18.2 24.5678 23.5322 29.9001 30.11 29.9001Z" stroke="#1A2B6B" stroke-width="2" stroke-miterlimit="10" stroke-linecap="round" stroke-linejoin="round"/>
<path d="M7.57007 53.7102C7.57007 41.2602 17.6601 31.1702 30.1101 31.1702C35.5501 31.1702 40.5301 33.1002 44.4301 36.3002" stroke="#1A2B6B" stroke-width="2" stroke-miterlimit="10" stroke-linecap="round" stroke-linejoin="round"/>
<path d="M33.75 21.22C34.33 21.22 34.77 21.77 34.62 22.34C34.12 24.27 32.37 25.69 30.29 25.69C28.21 25.69 26.46 24.27 25.96 22.34C25.81 21.77 26.25 21.22 26.83 21.22H33.75Z" fill="#3457E5"/>
<path d="M55.8 58H40.2C38.98 58 38.02 56.92 38.09 55.64L38.9 41.13C38.97 39.95 39.89 39.03 41.01 39.03H55C56.12 39.03 57.05 39.95 57.11 41.13L57.92 55.64C57.98 56.92 57.02 58 55.8 58Z" fill="white" stroke="#3457E5" stroke-width="2" stroke-miterlimit="10" stroke-linecap="round" stroke-linejoin="round"/>
<path d="M51.7001 44.31V37.44C51.7001 35.4 50.04 33.74 48 33.74C45.96 33.74 44.3 35.4 44.3 37.44V44.31" stroke="#3457E5" stroke-width="2" stroke-miterlimit="10" stroke-linecap="round" stroke-linejoin="round"/>
</svg>
