<svg width="64" height="64" viewBox="0 0 64 64" fill="none" xmlns="http://www.w3.org/2000/svg">
<path d="M5.68994 37.77C7.91994 48.01 15.9799 56.07 26.2299 58.31" stroke="#1A2B6B" stroke-width="2" stroke-miterlimit="10" stroke-linecap="round" stroke-linejoin="round"/>
<path d="M37.77 58.31C48.01 56.08 56.07 48.02 58.31 37.77" stroke="#1A2B6B" stroke-width="2" stroke-miterlimit="10" stroke-linecap="round" stroke-linejoin="round"/>
<path d="M5.68994 26.2299C7.91994 15.9899 15.9799 7.92994 26.2299 5.68994" stroke="#1A2B6B" stroke-width="2" stroke-miterlimit="10" stroke-linecap="round" stroke-linejoin="round"/>
<path d="M37.77 5.68994C48.01 7.91994 56.07 15.9799 58.31 26.2299" stroke="#1A2B6B" stroke-width="2" stroke-miterlimit="10" stroke-linecap="round" stroke-linejoin="round"/>
<path d="M5.06993 34.8899C6.66603 34.8899 7.95993 33.596 7.95993 31.9999C7.95993 30.4038 6.66603 29.1099 5.06993 29.1099C3.47383 29.1099 2.17993 30.4038 2.17993 31.9999C2.17993 33.596 3.47383 34.8899 5.06993 34.8899Z" fill="#3457E5"/>
<path d="M58.93 34.8899C60.5261 34.8899 61.82 33.596 61.82 31.9999C61.82 30.4038 60.5261 29.1099 58.93 29.1099C57.3339 29.1099 56.04 30.4038 56.04 31.9999C56.04 33.596 57.3339 34.8899 58.93 34.8899Z" fill="#3457E5"/>
<path d="M31.9999 61.82C33.596 61.82 34.8899 60.5261 34.8899 58.93C34.8899 57.3339 33.596 56.04 31.9999 56.04C30.4038 56.04 29.1099 57.3339 29.1099 58.93C29.1099 60.5261 30.4038 61.82 31.9999 61.82Z" fill="#3457E5"/>
<path d="M31.9999 7.95993C33.596 7.95993 34.8899 6.66603 34.8899 5.06993C34.8899 3.47383 33.596 2.17993 31.9999 2.17993C30.4038 2.17993 29.1099 3.47383 29.1099 5.06993C29.1099 6.66603 30.4038 7.95993 31.9999 7.95993Z" fill="#3457E5"/>
<path d="M41.9999 26.27H22.0099C20.7199 26.27 19.6699 25.22 19.6699 23.93V21.56C19.6699 20.27 20.7199 19.22 22.0099 19.22H41.9999C43.2899 19.22 44.3399 20.27 44.3399 21.56V23.93C44.3399 25.23 43.2899 26.27 41.9999 26.27Z" stroke="#1A2B6B" stroke-width="2" stroke-miterlimit="10" stroke-linecap="round" stroke-linejoin="round"/>
<path d="M41.9999 34.1999H22.0099C20.7199 34.1999 19.6699 33.1499 19.6699 31.8599V29.4899C19.6699 28.1999 20.7199 27.1499 22.0099 27.1499H41.9999C43.2899 27.1499 44.3399 28.1999 44.3399 29.4899V31.8599C44.3399 33.1499 43.2899 34.1999 41.9999 34.1999Z" stroke="#1A2B6B" stroke-width="2" stroke-miterlimit="10" stroke-linecap="round" stroke-linejoin="round"/>
<path d="M41.9999 42.1301H22.0099C20.7199 42.1301 19.6699 41.0801 19.6699 39.7901V37.4201C19.6699 36.1301 20.7199 35.0801 22.0099 35.0801H41.9999C43.2899 35.0801 44.3399 36.1301 44.3399 37.4201V39.7901C44.3399 41.0801 43.2899 42.1301 41.9999 42.1301Z" stroke="#1A2B6B" stroke-width="2" stroke-miterlimit="10" stroke-linecap="round" stroke-linejoin="round"/>
<path d="M24.0698 43.01V44.78" stroke="#1A2B6B" stroke-width="2" stroke-miterlimit="10" stroke-linecap="round" stroke-linejoin="round"/>
<path d="M39.9299 43.01V44.78" stroke="#1A2B6B" stroke-width="2" stroke-miterlimit="10" stroke-linecap="round" stroke-linejoin="round"/>
<path d="M23.63 23.6299C24.116 23.6299 24.51 23.2359 24.51 22.7499C24.51 22.2639 24.116 21.8699 23.63 21.8699C23.144 21.8699 22.75 22.2639 22.75 22.7499C22.75 23.2359 23.144 23.6299 23.63 23.6299Z" fill="#3457E5"/>
<path d="M23.63 31.5601C24.116 31.5601 24.51 31.1661 24.51 30.6801C24.51 30.194 24.116 29.8 23.63 29.8C23.144 29.8 22.75 30.194 22.75 30.6801C22.75 31.1661 23.144 31.5601 23.63 31.5601Z" fill="#3457E5"/>
<path d="M23.63 39.49C24.116 39.49 24.51 39.096 24.51 38.61C24.51 38.124 24.116 37.73 23.63 37.73C23.144 37.73 22.75 38.124 22.75 38.61C22.75 39.096 23.144 39.49 23.63 39.49Z" fill="#3457E5"/>
<path d="M19.6699 44.78H44.3399" stroke="#3457E5" stroke-width="2" stroke-miterlimit="10" stroke-linecap="round" stroke-linejoin="round"/>
</svg>
