<svg width="518" height="640" viewBox="0 0 518 640" fill="none" xmlns="http://www.w3.org/2000/svg">
<path d="M276.924 12.7772H275.394C166.194 12.7772 77.6729 101.436 77.6729 210.806V594.625H474.634V210.796C474.634 101.426 386.113 12.7772 276.924 12.7772Z" fill="#EBF0F7" stroke="#C8D4E8" stroke-miterlimit="10" stroke-linejoin="round"/>
<path d="M276.154 49.8312C183.653 49.8312 108.67 124.931 108.67 217.576V561.577H443.637V217.576C443.637 124.931 368.655 49.8312 276.154 49.8312Z" fill="white"/>
<path d="M365.905 561.577V506.377H339.017V428.203H294.302L287.482 561.577H365.905Z" fill="#CFD7E8"/>
<path d="M355.646 349.268V343.259H330.648V191.037L308.65 174.012V561.577H330.648V488.471H354.646V482.462H330.648V471.446H354.646V465.437H330.648V367.294H355.646V361.285H330.648V349.268H355.646Z" fill="#EBF0F7"/>
<path d="M176.163 561.577H215.159V61.2979C201.141 66.7859 188.042 74.1166 176.163 82.9895V561.577Z" fill="#CFD7E8"/>
<path d="M189.662 561.577H215.16V61.2979C206.261 64.783 197.741 69.0092 189.662 73.8963V561.577Z" fill="#EBF0F7"/>
<path d="M330.648 171.679V158.009C330.648 156.036 328.398 154.924 326.838 156.116L317.239 163.467C315.939 164.458 316.009 166.441 317.379 167.342L326.978 173.662C328.548 174.703 330.648 173.572 330.648 171.679Z" fill="white" stroke="#C8D4E8" stroke-miterlimit="10" stroke-linejoin="round"/>
<path d="M308.65 174.012V189.495L330.648 206.369V191.037L308.65 174.012Z" fill="#CFD7E8"/>
<path d="M404.821 561.577V110.189C398.862 103.039 392.322 96.389 385.273 90.3102C369.354 110.69 349.506 145.591 349.506 192.9C349.506 265.225 349.506 519.245 349.506 561.567H404.821V561.577Z" fill="#EBF0F7"/>
<path d="M404.821 561.577V110.189C398.862 103.039 392.322 96.389 385.273 90.3102C369.354 110.69 349.506 145.591 349.506 192.9C349.506 265.225 349.506 519.245 349.506 561.567H404.821V561.577Z" stroke="#C8D4E8" stroke-miterlimit="10" stroke-linejoin="round"/>
<path d="M385.563 561.577L349.497 533.737" stroke="#C8D4E8" stroke-miterlimit="10" stroke-linejoin="round"/>
<path d="M396.232 482.091L349.497 520.637" stroke="#C8D4E8" stroke-miterlimit="10" stroke-linejoin="round"/>
<path d="M396.232 366.753L349.497 403.437" stroke="#C8D4E8" stroke-miterlimit="10" stroke-linejoin="round"/>
<path d="M396.232 338.812L349.497 299.435" stroke="#C8D4E8" stroke-miterlimit="10" stroke-linejoin="round"/>
<path d="M396.232 561.577H404.822V110.189C402.082 106.894 399.212 103.72 396.232 100.645V561.577Z" fill="#CFD7E8"/>
<path d="M443.637 561.577V217.576C443.637 202.153 441.548 187.221 437.658 173.031C430.979 173.281 425.639 178.769 425.639 185.529V561.577H443.637Z" fill="#CFD7E8"/>
<path d="M443.637 246.858C400.051 248.13 361.645 279.987 361.645 320.215C361.645 360.714 406.481 386.973 443.637 387.694V246.858Z" fill="white" stroke="#C8D4E8" stroke-miterlimit="10" stroke-linejoin="round"/>
<path d="M443.637 561.577V374.434C428.599 374.454 417.54 378.701 413.59 382.005C413.59 382.005 440.638 425.379 440.638 484.465C440.638 527.057 440.638 551.332 440.638 561.577H443.637Z" fill="#EBF0F7"/>
<path d="M443.637 561.577V374.434C428.599 374.454 417.54 378.701 413.59 382.005C413.59 382.005 440.638 425.379 440.638 484.465C440.638 527.057 440.638 551.332 440.638 561.577H443.637Z" stroke="#C8D4E8" stroke-miterlimit="10" stroke-linejoin="round"/>
<path d="M284.653 535.539C284.653 476.914 273.014 429.384 258.655 429.384C244.297 429.384 232.658 476.914 232.658 535.539C232.658 544.522 232.928 553.245 233.448 561.577H283.863C284.383 553.245 284.653 544.522 284.653 535.539Z" fill="#CFD7E8"/>
<path d="M121.669 430.386L116.169 425.379H108.67V561.577H121.669V430.386Z" fill="#CFD7E8"/>
<path d="M156.665 561.577V449.414C156.665 444.436 152.636 440.401 147.666 440.401C142.697 440.401 138.667 444.436 138.667 449.414V561.577H156.665Z" fill="#CFD7E8"/>
<path d="M396.232 128.886L351.916 164.709" stroke="#C8D4E8" stroke-miterlimit="10" stroke-linejoin="round"/>
<path d="M396.232 217.866L349.836 182.234" stroke="#C8D4E8" stroke-miterlimit="10" stroke-linejoin="round"/>
<path d="M396.232 248.26L349.497 285.985" stroke="#C8D4E8" stroke-miterlimit="10" stroke-linejoin="round"/>
<path d="M396.232 452.648L349.497 414.673" stroke="#C8D4E8" stroke-miterlimit="10" stroke-linejoin="round"/>
<path d="M361.645 320.225C361.645 322.368 361.775 324.482 362.025 326.545C368.654 321.197 388.992 310.101 443.637 310.101V302.199C412.05 302.199 380.463 304.803 361.715 318.022C361.685 318.753 361.645 319.484 361.645 320.225Z" fill="#CFD7E8"/>
<path d="M300.751 544.512L199.101 459.128L108.67 494.029V561.577H300.751V544.512Z" fill="white" stroke="#C8D4E8" stroke-miterlimit="10" stroke-linejoin="round"/>
<path d="M161.165 506.497C139.147 506.497 119.799 517.913 108.67 535.149V561.577H223.199C219.489 530.552 193.142 506.497 161.165 506.497Z" fill="#EBF0F7"/>
<path d="M124.418 561.577H197.911C194.442 544.432 179.303 531.533 161.165 531.533C143.027 531.533 127.898 544.432 124.418 561.577Z" fill="white" stroke="#C8D4E8" stroke-miterlimit="10" stroke-linejoin="round"/>
<path d="M187.902 512.496L230.558 485.546" stroke="#C8D4E8" stroke-miterlimit="10" stroke-linejoin="round"/>
<path d="M238.047 507.598V529.891L246.567 538.243V561.577" fill="white"/>
<path d="M238.047 507.598V529.891L246.567 538.243V561.577" stroke="#C8D4E8" stroke-miterlimit="10" stroke-linejoin="round"/>
<path d="M259.065 538.904V561.577" stroke="#C8D4E8" stroke-miterlimit="10" stroke-linejoin="round"/>
<path d="M277.073 524.623V561.577" stroke="#C8D4E8" stroke-miterlimit="10" stroke-linejoin="round"/>
<path d="M276.154 49.8312C183.653 49.8312 108.67 124.931 108.67 217.576V561.577H443.637V217.576C443.637 124.931 368.655 49.8312 276.154 49.8312Z" stroke="#C8D4E8" stroke-miterlimit="10" stroke-linejoin="round"/>
<path d="M458.636 433.39C461.949 433.39 464.635 430.7 464.635 427.382C464.635 424.063 461.949 421.373 458.636 421.373C455.322 421.373 452.636 424.063 452.636 427.382C452.636 430.7 455.322 433.39 458.636 433.39Z" fill="#EBF0F7" stroke="#C8D4E8" stroke-miterlimit="10" stroke-linejoin="round"/>
<path d="M458.636 458.427C461.949 458.427 464.635 455.737 464.635 452.418C464.635 449.099 461.949 446.409 458.636 446.409C455.322 446.409 452.636 449.099 452.636 452.418C452.636 455.737 455.322 458.427 458.636 458.427Z" fill="white" stroke="#C8D4E8" stroke-miterlimit="10" stroke-linejoin="round"/>
<path d="M108.67 267.148H102.67V299.195H108.67V267.148Z" fill="#C8D4E8" stroke="#C8D4E8" stroke-miterlimit="10" stroke-linejoin="round"/>
<path d="M108.67 307.206H102.67V339.253H108.67V307.206Z" fill="white" stroke="#C8D4E8" stroke-miterlimit="10" stroke-linejoin="round"/>
<path d="M108.67 347.265H102.67V379.311H108.67V347.265Z" fill="#C8D4E8" stroke="#C8D4E8" stroke-miterlimit="10" stroke-linejoin="round"/>
<path d="M108.67 561.577L77.6729 594.625H474.634L443.637 561.577H108.67Z" stroke="#C8D4E8" stroke-miterlimit="10" stroke-linejoin="round"/>
<path d="M271.324 582.097C290.403 582.097 305.87 579.353 305.87 575.968C305.87 572.583 290.403 569.839 271.324 569.839C252.244 569.839 236.777 572.583 236.777 575.968C236.777 579.353 252.244 582.097 271.324 582.097Z" fill="#CFD7E8"/>
<path d="M180.422 348.066C179.903 347.806 177.773 346.363 176.843 345.342C175.913 344.33 171.803 338.171 170.593 337.17C169.384 336.169 168.794 332.353 168.794 332.353C168.794 332.353 167.194 331.942 166.864 333.645C166.524 335.347 167.034 337.501 168.214 338.502C169.384 339.503 168.064 341.146 167.174 341.016C166.294 340.885 160.314 339.924 157.325 336.97C154.335 334.015 151.545 337.781 153.445 341.506C155.335 345.222 158.125 352.713 170.593 352.713C175.523 352.713 177.043 356.558 177.043 356.558L180.422 348.066Z" fill="white" stroke="#C8D4E8" stroke-miterlimit="10" stroke-linejoin="round"/>
<path d="M380.123 335.788C380.123 335.788 376.353 337.01 374.823 340.845C373.304 344.691 374.224 345.572 373.384 346.834C372.544 348.096 369.494 350.97 366.574 350.85L371.014 355.747L372.984 357.149C372.984 357.149 373.734 354.225 377.163 354.475C380.593 354.726 386.242 354.605 390.342 349.648C394.442 344.691 393.482 339.834 392.852 338.862C392.222 337.891 388.052 343.619 381.743 343.619C379.393 343.619 378.553 342.768 378.733 341.947C378.903 341.126 381.103 338.212 380.123 335.788Z" fill="white" stroke="#C8D4E8" stroke-miterlimit="10" stroke-linejoin="round"/>
<path d="M278.823 354.786H264.544V364.51H278.823V354.786Z" fill="white" stroke="#C8D4E8" stroke-miterlimit="10" stroke-linejoin="round"/>
<path d="M259.375 345.042C259.375 345.042 257.795 345.112 257.925 346.714C258.055 348.316 258.965 347.886 259.145 349.298C259.335 350.71 259.125 351.601 259.715 352.172C260.255 352.693 261.905 352.623 261.795 351.421C261.685 350.229 259.375 345.042 259.375 345.042Z" fill="white" stroke="#C8D4E8" stroke-miterlimit="10" stroke-linejoin="round"/>
<path d="M284.263 345.042C284.263 345.042 285.843 345.112 285.713 346.714C285.583 348.316 284.673 347.886 284.493 349.298C284.303 350.71 284.513 351.601 283.923 352.172C283.383 352.693 281.733 352.623 281.843 351.421C281.953 350.229 284.263 345.042 284.263 345.042Z" fill="white" stroke="#C8D4E8" stroke-miterlimit="10" stroke-linejoin="round"/>
<path d="M271.123 325.944C263.414 325.944 257.885 330.11 257.885 340.485C257.885 345.472 260.475 345.903 260.974 349.548C261.474 353.193 261.334 358.862 269.394 358.862C277.453 358.862 281.232 358.471 282.212 353.464C283.192 348.456 283.242 347.665 283.472 346.844C283.702 346.023 285.452 342.708 285.642 339.223C285.832 335.738 283.462 325.944 271.123 325.944Z" fill="#292C38"/>
<path d="M242.346 560.065C242.346 560.065 239.167 561.757 238.507 565.523C238.507 565.523 233.977 565.463 234.287 572.022C234.327 572.894 235.747 574.586 238.197 575.497C240.647 576.409 246.796 576.729 250.626 575.548C251.436 575.297 252.135 565.242 251.566 562.759C250.986 560.255 242.346 560.065 242.346 560.065Z" fill="#292C38"/>
<path d="M296.881 563.36C296.751 563.75 295.531 569.889 295.921 573.975C295.921 573.975 297.321 576.659 302.371 576.94C307.42 577.22 313.3 575.337 314.23 572.723C315.159 570.11 312.41 567.015 309.41 565.984C309.41 565.984 307.78 562.288 306.49 561.337L296.881 563.36Z" fill="#292C38"/>
<path d="M249.065 432.098C249.065 432.098 246.556 437.356 247.026 456.153C247.496 474.951 243.526 502.03 243.856 516.772C244.186 531.513 233.327 559.704 237.757 560.976C238.396 561.156 244.256 564.121 251.845 564.031C251.845 564.031 255.435 556.96 257.625 540.296C259.814 523.632 269.673 471.696 274.133 463.975C274.133 463.975 279.362 481.56 282.352 500.829C285.342 520.097 288.692 535.129 291.771 547.406C294.841 559.684 295.921 564.561 295.921 564.561C295.921 564.561 305.89 561.747 308.05 562.398C308.05 562.398 305.2 516.061 301.04 501.67C301.04 501.67 301.07 448.502 297.261 432.098H249.065Z" fill="#EBF0F7"/>
<path d="M247.736 437.987C251.295 436.355 258.955 433.991 273.873 433.581C283.672 433.31 291.942 435.213 298.211 437.496C297.921 435.433 297.601 433.611 297.251 432.098H249.056C249.066 432.098 248.336 433.641 247.736 437.987Z" fill="#292C38"/>
<path d="M263.784 457.806C263.784 457.806 265.304 460.36 269.814 461.661C269.814 461.661 268.794 462.322 266.954 462.132C266.954 462.132 268.004 462.923 271.014 463.274C274.023 463.624 268.714 473.469 266.564 489.222C264.414 504.975 260.665 512.035 258.005 515.079C255.335 518.134 257.675 519.346 259.655 517.753C261.635 516.161 253.565 560.476 247.846 561.868C244.086 562.789 239.997 562.098 236.917 560.005C237.087 560.526 237.357 560.866 237.767 560.986C238.407 561.167 244.266 564.131 251.856 564.041C251.856 564.041 255.445 556.97 257.635 540.306C259.825 523.642 269.684 471.706 274.143 463.985C273.673 462.363 272.684 459.909 272.684 459.909C267.214 459.969 263.784 457.806 263.784 457.806Z" fill="#CFD7E8"/>
<path d="M272.033 359.392C268.254 359.573 263.034 360.033 261.214 360.925C261.214 360.925 260.304 362.217 260.404 364.78C260.404 364.78 251.255 362.156 243.686 361.726C236.117 361.295 225.108 362.767 219.018 359.693C212.929 356.618 190.071 348.276 179.742 346.954C179.742 346.954 175.823 348.797 176.112 358.211C176.112 358.211 197.57 371.13 219.228 377.769C240.886 384.409 242.496 389.196 244.486 403.457C246.476 417.717 246.136 428.002 245.546 430.556C244.956 433.11 246.286 435.573 248.655 435.313C248.655 435.313 276.693 430.716 297.821 434.582C297.821 434.582 300.49 407.733 303.63 393.562C306.14 382.256 311.029 382.466 319.209 380.613C323.548 379.632 342.626 373.162 355.545 365.491C368.464 357.83 374.553 357.87 374.553 357.87C374.553 357.87 371.634 347.255 366.804 346.123C366.804 346.123 351.535 353.694 340.577 356.749C329.618 359.803 312.719 363.599 312.719 363.599C312.719 363.599 298.081 359.843 283.502 363.478C283.502 363.478 282.692 360.484 281.802 359.983C280.912 359.483 276.013 359.202 272.033 359.392Z" fill="#3457E5"/>
<path d="M273.534 412.049C281.745 412.049 288.402 405.382 288.402 397.157C288.402 388.933 281.745 382.266 273.534 382.266C265.322 382.266 258.665 388.933 258.665 397.157C258.665 405.382 265.322 412.049 273.534 412.049Z" fill="white"/>
<path d="M301.041 501.67C301.041 501.67 301.051 491.325 300.721 478.346C300.281 487.76 299.471 498.665 298.211 500.578C295.961 504.013 301.291 502.872 302.621 515.26C303.101 519.706 304.091 524.964 305.351 529.721C304.201 518.605 302.731 507.508 301.041 501.67Z" fill="#CFD7E8"/>
<path d="M298.711 560.986C294.921 559.083 289.062 535.98 288.652 534.287C289.702 538.994 290.752 543.361 291.762 547.416C294.831 559.694 295.911 564.572 295.911 564.572C295.911 564.572 305.88 561.757 308.04 562.408C306.17 561.287 302.601 562.939 298.711 560.986Z" fill="#CFD7E8"/>
<path d="M273.613 386.953H273.443C269.054 386.953 265.494 390.518 265.494 394.914V404.007H268.704V394.914C268.704 392.3 270.824 390.177 273.433 390.177H273.603C276.213 390.177 278.333 392.3 278.333 394.914V404.007H281.543V394.914C281.563 390.518 278.003 386.953 273.613 386.953Z" fill="#3457E5"/>
<path d="M275.134 404.007H271.924V394.994C271.924 394.103 272.644 393.382 273.534 393.382C274.424 393.382 275.144 394.103 275.144 394.994V404.007H275.134Z" fill="#12D3EB"/>
<path d="M294.692 382.276C294.692 382.276 292.402 423.035 260.355 424.047C260.355 424.047 276.203 431.057 286.822 410.397C292.032 400.272 294.442 390.217 294.692 382.276Z" fill="#0539DB"/>
<path d="M214.579 376.257C216.129 376.788 217.679 377.299 219.239 377.779C240.897 384.419 242.506 389.206 244.496 403.467C244.936 406.641 245.266 409.626 245.496 412.36C246.786 405.7 246.676 395.275 243.216 389.426C238.267 381.074 221.128 376.818 214.579 376.257Z" fill="#0539DB"/>
<path d="M249.376 425.699C249.506 424.808 249.786 423.796 248.316 425.539C245.836 428.463 246.646 425.409 245.976 425.869C245.906 428.143 245.746 429.755 245.556 430.566C247.056 427.682 249.056 427.922 249.376 425.699Z" fill="#0539DB"/>
<path d="M305.23 384.379C303.801 387.674 303.191 392.03 302.951 395.625C303.171 394.914 303.401 394.233 303.651 393.572C308.69 379.972 314.8 380.904 319.229 380.623C320.629 380.533 323.469 379.762 327.108 378.51C321.719 378.46 307.78 378.49 305.23 384.379Z" fill="#0539DB"/>
<path d="M24.7477 411.478C37.8632 411.478 48.4954 400.83 48.4954 387.694C48.4954 374.558 37.8632 363.909 24.7477 363.909C11.6322 363.909 1 374.558 1 387.694C1 400.83 11.6322 411.478 24.7477 411.478Z" fill="white" stroke="#C8D4E8" stroke-miterlimit="10" stroke-linejoin="round"/>
<path d="M33.5468 391.259C33.3768 390.768 33.1468 390.307 32.8568 389.867C32.5569 389.426 32.1969 389.026 31.7669 388.655C31.337 388.285 30.867 387.964 30.3471 387.684C31.407 387.173 32.2269 386.492 32.8068 385.641C33.3768 384.789 33.6668 383.848 33.6668 382.807C33.6668 381.815 33.4868 380.884 33.1168 380.022C32.7468 379.161 32.2469 378.41 31.607 377.779C30.967 377.148 30.2171 376.648 29.3572 376.277C28.7872 376.037 28.1973 375.876 27.5773 375.796H27.6673V372.742H25.3676V375.696L26.0075 375.726L23.9077 375.716V372.742H21.6079V375.706L15.7085 375.686V378.48H18.0083V397.208H15.7085V399.962H21.6079V402.635H23.9077V399.962H25.3676V402.635H27.6673V399.962H26.7374C27.7173 399.962 28.6372 399.771 29.4872 399.401C30.3471 399.03 31.097 398.519 31.7269 397.869C32.3669 397.218 32.8668 396.456 33.2368 395.585C33.6068 394.714 33.7867 393.773 33.7867 392.751C33.7967 392.25 33.7068 391.75 33.5468 391.259ZM21.128 378.49H26.6174C27.1174 378.49 27.5873 378.61 28.0273 378.861C28.4673 379.111 28.8572 379.422 29.1872 379.822C29.5172 380.213 29.7771 380.663 29.9671 381.174C30.1571 381.685 30.2571 382.196 30.2571 382.716C30.2571 383.197 30.1571 383.658 29.9671 384.108C29.7771 384.559 29.5172 384.95 29.1972 385.29C28.8772 385.631 28.4873 385.901 28.0473 386.101C27.6073 386.302 27.1274 386.402 26.6174 386.402H21.128V378.49ZM30.1071 394.444C29.9171 394.964 29.6671 395.435 29.3372 395.846C29.0072 396.256 28.6272 396.587 28.1873 396.847C27.7473 397.107 27.2774 397.228 26.7674 397.228H21.128V389.196H26.7674C27.2674 389.196 27.7373 389.296 28.1773 389.496C28.6172 389.697 28.9972 389.967 29.3272 390.307C29.6471 390.648 29.9071 391.039 30.0971 391.479C30.2871 391.92 30.3871 392.37 30.3871 392.841C30.3871 393.382 30.2971 393.913 30.1071 394.444Z" fill="#C8D4E8"/>
<path d="M452.636 39.4961C459.418 39.4961 464.915 33.9902 464.915 27.1982C464.915 20.4062 459.418 14.9003 452.636 14.9003C445.855 14.9003 440.357 20.4062 440.357 27.1982C440.357 33.9902 445.855 39.4961 452.636 39.4961Z" fill="white" stroke="#C8D4E8" stroke-miterlimit="10" stroke-linejoin="round"/>
<path d="M457.188 29.0409C457.098 28.7905 456.978 28.5502 456.828 28.3198C456.678 28.0895 456.488 27.8892 456.268 27.6989C456.048 27.5086 455.798 27.3384 455.538 27.1982C456.088 26.9378 456.508 26.5773 456.808 26.1366C457.108 25.696 457.258 25.2053 457.258 24.6745C457.258 24.1638 457.168 23.6831 456.978 23.2324C456.788 22.7818 456.528 22.4012 456.198 22.0707C455.868 21.7402 455.478 21.4799 455.038 21.2896C454.748 21.1594 454.438 21.0893 454.118 21.0392H454.168V19.4569H452.978V20.9791L453.308 20.9992H452.218V19.4569H451.028V20.9891L447.978 20.9791V22.4212H449.168V32.1053H447.978V33.5474H451.028V34.9295H452.218V33.5474H452.978V34.9295H454.168V33.5474H453.688C454.198 33.5474 454.668 33.4473 455.108 33.257C455.548 33.0667 455.938 32.7964 456.268 32.4659C456.598 32.1254 456.858 31.7348 457.048 31.2841C457.238 30.8335 457.328 30.3428 457.328 29.822C457.318 29.5516 457.278 29.3013 457.188 29.0409ZM450.768 22.4413H453.608C453.868 22.4413 454.108 22.5013 454.338 22.6315C454.568 22.7617 454.768 22.922 454.938 23.1323C455.108 23.3326 455.248 23.5729 455.338 23.8333C455.438 24.0937 455.488 24.3641 455.488 24.6345C455.488 24.8848 455.438 25.1252 455.338 25.3555C455.238 25.5858 455.108 25.7961 454.938 25.9664C454.768 26.1467 454.568 26.2869 454.348 26.387C454.118 26.4872 453.878 26.5472 453.608 26.5472H450.768V22.4413ZM455.418 30.6933C455.318 30.9637 455.188 31.204 455.018 31.4143C454.848 31.6246 454.648 31.7949 454.428 31.9351C454.198 32.0653 453.958 32.1354 453.698 32.1354H450.788V27.9893H453.698C453.958 27.9893 454.198 28.0394 454.428 28.1496C454.658 28.2497 454.858 28.3899 455.018 28.5702C455.188 28.7505 455.318 28.9507 455.418 29.1711C455.518 29.4014 455.568 29.6317 455.568 29.8721C455.558 30.1425 455.508 30.4229 455.418 30.6933Z" fill="#C8D4E8"/>
<path d="M165.934 125.261C200.195 125.261 227.968 97.4443 227.968 63.1306C227.968 28.8168 200.195 1 165.934 1C131.674 1 103.9 28.8168 103.9 63.1306C103.9 97.4443 131.674 125.261 165.934 125.261Z" fill="white" stroke="#C8D4E8" stroke-miterlimit="10" stroke-linejoin="round"/>
<path d="M139.197 63.421L165.304 79.6647L192.672 63.9217L165.304 18.6758L139.197 63.421Z" fill="#C8D4E8"/>
<path d="M139.197 69.8904L165.554 107.585L192.672 69.2595L165.304 85.9438L139.197 69.8904Z" fill="#DDE4F1"/>
<path d="M391.482 194.792C402.096 194.792 410.7 186.175 410.7 175.544C410.7 164.914 402.096 156.296 391.482 156.296C380.868 156.296 372.264 164.914 372.264 175.544C372.264 186.175 380.868 194.792 391.482 194.792Z" fill="white" stroke="#C8D4E8" stroke-miterlimit="10" stroke-linejoin="round"/>
<path d="M383.194 175.635L391.283 180.672L399.762 175.795L391.283 161.774L383.194 175.635Z" fill="#C8D4E8"/>
<path d="M383.194 177.637L391.363 189.314L399.762 177.447L391.283 182.615L383.194 177.637Z" fill="#DDE4F1"/>
<path d="M358.826 639C376.862 639 391.483 624.356 391.483 606.292C391.483 588.228 376.862 573.585 358.826 573.585C340.79 573.585 326.169 588.228 326.169 606.292C326.169 624.356 340.79 639 358.826 639Z" fill="white" stroke="#C8D4E8" stroke-miterlimit="10" stroke-linejoin="round"/>
<path d="M344.757 606.443L358.495 614.995L372.904 606.713L358.495 582.898L344.757 606.443Z" fill="#C8D4E8"/>
<path d="M344.757 609.857L358.625 629.696L372.904 609.517L358.495 618.31L344.757 609.857Z" fill="#DDE4F1"/>
<path d="M486.003 385.831C503.122 385.831 517 371.932 517 354.786C517 337.64 503.122 323.74 486.003 323.74C468.884 323.74 455.006 337.64 455.006 354.786C455.006 371.932 468.884 385.831 486.003 385.831Z" fill="white" stroke="#C8D4E8" stroke-miterlimit="10" stroke-linejoin="round"/>
<path d="M490.654 354.784L486.001 350.124L481.349 354.784L486.001 359.444L490.654 354.784Z" fill="#C8D4E8"/>
<path d="M470.4 350.13L465.747 354.79L470.4 359.449L475.052 354.79L470.4 350.13Z" fill="#C8D4E8"/>
<path d="M472.735 347.796L477.384 352.452L486.004 343.83L494.593 352.432L499.242 347.775L486.004 334.516L472.735 347.796Z" fill="#C8D4E8"/>
<path d="M470.4 350.13L465.747 354.79L470.4 359.449L475.052 354.79L470.4 350.13Z" fill="#C8D4E8"/>
<path d="M486.004 365.742L477.384 357.119L472.735 361.776L486.004 375.055L499.262 361.776L494.613 357.119L486.004 365.742Z" fill="#C8D4E8"/>
<path d="M501.584 350.124L496.932 354.784L501.584 359.444L506.237 354.784L501.584 350.124Z" fill="#C8D4E8"/>
<path d="M193.032 584.651C205.888 584.651 216.309 574.213 216.309 561.337C216.309 548.461 205.888 538.023 193.032 538.023C180.176 538.023 169.754 548.461 169.754 561.337C169.754 574.213 180.176 584.651 193.032 584.651Z" fill="white" stroke="#C8D4E8" stroke-miterlimit="10" stroke-linejoin="round"/>
<path d="M196.529 561.335L193.036 557.837L189.543 561.335L193.036 564.834L196.529 561.335Z" fill="#C8D4E8"/>
<path d="M181.315 557.837L177.822 561.336L181.315 564.834L184.808 561.336L181.315 557.837Z" fill="#C8D4E8"/>
<path d="M183.073 556.089L186.563 559.594L193.032 553.115L199.482 559.574L202.971 556.079L193.032 546.115L183.073 556.089Z" fill="#C8D4E8"/>
<path d="M181.315 557.837L177.822 561.336L181.315 564.834L184.808 561.336L181.315 557.837Z" fill="#C8D4E8"/>
<path d="M193.032 569.569L186.562 563.089L183.073 566.584L193.032 576.559L202.991 566.584L199.491 563.089L193.032 569.569Z" fill="#C8D4E8"/>
<path d="M204.723 557.84L201.23 561.338L204.723 564.836L208.216 561.338L204.723 557.84Z" fill="#C8D4E8"/>
<path d="M121.668 180.932C130.228 180.932 137.167 173.983 137.167 165.41C137.167 156.837 130.228 149.887 121.668 149.887C113.109 149.887 106.17 156.837 106.17 165.41C106.17 173.983 113.109 180.932 121.668 180.932Z" fill="white" stroke="#C8D4E8" stroke-miterlimit="10" stroke-linejoin="round"/>
<path d="M124.002 165.405L121.676 163.075L119.35 165.405L121.676 167.735L124.002 165.405Z" fill="#C8D4E8"/>
<path d="M113.871 163.078L111.544 165.407L113.871 167.737L116.197 165.407L113.871 163.078Z" fill="#C8D4E8"/>
<path d="M115.04 161.915L117.369 164.248L121.669 159.932L125.968 164.238L128.298 161.905L121.669 155.275L115.04 161.915Z" fill="#C8D4E8"/>
<path d="M113.871 163.078L111.544 165.407L113.871 167.737L116.197 165.407L113.871 163.078Z" fill="#C8D4E8"/>
<path d="M121.669 170.888L117.369 166.571L115.04 168.905L121.669 175.544L128.308 168.905L125.978 166.571L121.669 170.888Z" fill="#C8D4E8"/>
<path d="M129.459 163.078L127.133 165.408L129.459 167.738L131.785 165.408L129.459 163.078Z" fill="#C8D4E8"/>
</svg>
