<svg width="525" height="622" viewBox="0 0 525 622" fill="none" xmlns="http://www.w3.org/2000/svg">
<path d="M86.541 169.709C86.541 221.049 86.541 272.389 86.541 323.729C86.541 374.809 86.541 425.879 86.541 476.959C86.541 505.769 86.541 534.589 86.541 563.399C86.541 564.369 88.041 564.369 88.041 563.399C88.041 512.059 88.041 460.719 88.041 409.379C88.041 358.299 88.041 307.229 88.041 256.149C88.041 227.339 88.041 198.519 88.041 169.709C88.041 168.749 86.541 168.749 86.541 169.709Z" fill="#3457E5"/>
<path d="M92.771 565.249C136.101 565.249 179.431 565.249 222.761 565.249C265.871 565.249 308.981 565.249 352.091 565.249C376.411 565.249 400.731 565.249 425.041 565.249C426.011 565.249 426.011 563.749 425.041 563.749C381.711 563.749 338.381 563.749 295.051 563.749C251.941 563.749 208.831 563.749 165.721 563.749C141.401 563.749 117.081 563.749 92.771 563.749C91.801 563.749 91.801 565.249 92.771 565.249Z" fill="#3457E5"/>
<path d="M426.891 562.299C426.891 509.639 426.891 456.989 426.891 404.329C426.891 351.939 426.891 299.559 426.891 247.169C426.891 217.619 426.891 188.069 426.891 158.519C426.891 157.549 425.391 157.549 425.391 158.519C425.391 163.709 425.391 168.899 425.391 174.099C425.391 175.069 426.891 175.069 426.891 174.099C426.891 168.909 426.891 163.719 426.891 158.519C426.891 157.549 425.391 157.549 425.391 158.519C425.391 211.179 425.391 263.829 425.391 316.489C425.391 368.879 425.391 421.259 425.391 473.649C425.391 503.199 425.391 532.749 425.391 562.299C425.391 563.269 426.891 563.269 426.891 562.299Z" fill="#3457E5"/>
<path d="M88.1211 165.689C93.7911 136.269 104.551 107.109 127.261 86.5488C147.091 68.5988 172.901 58.7688 198.861 53.7888C212.221 51.2188 225.811 49.8988 239.411 49.4788C255.001 48.9888 270.681 49.5088 286.181 51.3388C316.641 54.9388 347.121 64.0688 372.171 82.2588C394.021 98.1288 411.821 120.669 418.921 147.009C419.791 150.239 420.491 153.509 421.031 156.809C421.191 157.759 422.631 157.359 422.481 156.409C417.991 129.119 402.011 104.959 381.081 87.3288C357.671 67.6188 328.401 56.5988 298.471 51.5788C282.521 48.9088 266.331 47.8288 250.171 47.8088C236.221 47.7988 222.281 48.6288 208.471 50.6388C181.781 54.5388 154.911 63.0088 133.281 79.5888C122.131 88.1388 112.771 98.7188 105.671 110.839C97.8311 124.219 92.6811 139.039 89.0911 154.069C88.2011 157.779 87.4111 161.519 86.6911 165.269C86.5011 166.229 87.9411 166.639 88.1211 165.689Z" fill="#3457E5"/>
<path d="M132.681 25.2588C122.841 26.3188 114.331 32.2388 108.711 40.2188C102.381 49.1888 100.281 60.2588 101.471 71.0588C102.751 82.7388 107.401 94.5488 114.231 104.109C117.531 108.729 121.581 112.729 126.611 115.429C131.711 118.169 137.381 119.639 143.011 120.859C154.301 123.299 165.771 125.549 177.341 126.059C188.241 126.539 199.441 125.299 209.311 120.369C228.591 110.739 237.421 89.1788 240.521 68.9688C241.471 62.7788 242.001 56.4488 240.951 50.2388C239.931 44.1788 237.121 38.7488 233.501 33.8388C227.671 25.9388 220.241 19.3088 211.851 14.2388C195.091 4.09882 174.621 0.0788221 155.311 3.46882C150.421 4.32882 145.621 5.67882 141.011 7.50882C135.921 9.53882 130.951 12.1388 126.891 15.8688C122.591 19.8188 119.951 24.9188 117.991 30.3488C115.791 36.4488 114.021 42.7188 112.171 48.9288C110.281 55.2688 108.201 61.6488 106.851 68.1288C105.681 73.7688 105.261 79.8188 107.631 85.2088C109.911 90.3988 114.431 94.1188 118.841 97.4888C122.921 100.599 127.201 103.439 131.641 106.009C149.641 116.399 170.181 122.169 190.911 123.259C211.701 124.359 232.781 120.709 251.811 112.189C256.441 110.119 260.921 107.749 265.251 105.119C266.071 104.619 265.321 103.319 264.491 103.819C247.271 114.309 227.511 120.249 207.421 121.629C187.441 122.999 167.171 119.949 148.551 112.539C139.271 108.849 130.421 104.039 122.311 98.2088C117.921 95.0588 113.231 91.6388 110.291 87.0188C107.011 81.8588 106.971 75.6688 108.041 69.8388C109.161 63.6988 111.141 57.6888 112.911 51.7088C114.741 45.5188 116.571 39.3188 118.601 33.1988C120.421 27.6888 122.681 22.2588 126.801 18.0488C130.671 14.0888 135.631 11.3388 140.711 9.24882C158.291 1.99882 178.401 2.20882 196.221 8.50882C205.231 11.6888 213.711 16.4588 220.991 22.6488C224.591 25.7088 227.911 29.1088 230.841 32.8188C234.511 37.4588 237.671 42.5988 239.051 48.4088C240.511 54.5588 240.141 61.0088 239.271 67.2188C238.551 72.3088 237.501 77.3688 236.061 82.3088C233.241 91.9288 228.851 101.319 222.071 108.799C214.981 116.619 205.571 121.519 195.251 123.489C184.381 125.569 173.111 124.679 162.251 122.999C156.781 122.149 151.351 121.079 145.941 119.959C140.281 118.789 134.531 117.559 129.271 115.099C118.741 110.189 112.391 99.9988 108.001 89.6388C103.431 78.8588 101.151 66.6988 103.721 55.1188C105.821 45.6888 111.521 36.9088 119.631 31.5688C123.551 28.9888 128.011 27.2788 132.691 26.7688C133.631 26.6588 133.641 25.1588 132.681 25.2588Z" fill="#3457E5"/>
<path d="M77.041 129.899C73.801 135.559 74.081 143.109 78.081 148.339C81.891 153.329 88.781 154.949 94.571 152.699C101.321 150.079 103.961 143.029 102.331 136.229C100.641 129.169 94.711 123.019 87.511 121.599C79.991 120.119 71.611 124.719 70.041 132.509C69.851 133.449 71.301 133.859 71.491 132.909C72.721 126.789 78.821 122.569 84.941 122.799C91.461 123.039 97.291 127.749 99.881 133.579C102.521 139.539 101.711 147.269 95.541 150.619C90.781 153.199 84.401 152.629 80.481 148.789C75.741 144.139 75.111 136.299 78.351 130.649C78.821 129.819 77.521 129.059 77.041 129.899Z" fill="#3457E5"/>
<path d="M425.861 244.989C411.511 247.849 397.151 251.209 383.711 257.119C371.181 262.619 359.681 270.449 351.161 281.269C343.331 291.219 338.081 303.469 338.251 316.279C338.431 330.079 344.801 342.889 353.031 353.659C357.181 359.099 361.811 364.249 366.841 368.899C371.791 373.459 377.371 377.549 383.791 379.749C385.381 380.289 387.001 380.699 388.661 380.989C389.601 381.149 390.011 379.709 389.061 379.539C382.351 378.379 376.381 374.949 371.161 370.669C365.981 366.419 361.331 361.459 357.061 356.309C348.571 346.089 341.401 333.919 340.011 320.459C338.691 307.749 342.971 295.269 350.271 284.959C357.911 274.169 368.561 266.089 380.361 260.319C394.801 253.269 410.591 249.559 426.271 246.439C427.211 246.249 426.811 244.809 425.861 244.989Z" fill="#3457E5"/>
<path d="M389.921 382.829C395.411 380.029 400.941 377.209 406.881 375.489C413.241 373.649 419.681 373.729 426.231 374.039C427.201 374.089 427.191 372.579 426.231 372.539C419.541 372.229 412.971 372.169 406.481 374.049C400.421 375.799 394.761 378.679 389.171 381.539C388.301 381.979 389.061 383.269 389.921 382.829Z" fill="#3457E5"/>
<path d="M342.551 316.849C361.421 307.609 382.311 302.609 403.321 302.269C409.271 302.169 415.231 302.459 421.141 303.099C422.101 303.199 422.091 301.699 421.141 301.599C399.981 299.299 378.351 301.749 358.241 308.699C352.621 310.639 347.131 312.929 341.791 315.549C340.921 315.979 341.681 317.269 342.551 316.849Z" fill="#3457E5"/>
<path d="M341.781 324.929C361.701 316.359 383.231 311.609 404.901 310.999C411.001 310.829 417.101 310.989 423.191 311.459C424.151 311.529 424.151 310.029 423.191 309.959C401.381 308.259 379.261 310.739 358.361 317.219C352.471 319.049 346.691 321.199 341.021 323.639C340.141 324.019 340.901 325.309 341.781 324.929Z" fill="#3457E5"/>
<path d="M419.671 303.189C421.021 303.189 422.361 303.189 423.711 303.189C424.101 303.189 424.481 302.849 424.461 302.439C424.441 302.029 424.131 301.689 423.711 301.689C422.361 301.689 421.021 301.689 419.671 301.689C419.281 301.689 418.901 302.029 418.921 302.439C418.941 302.849 419.251 303.189 419.671 303.189Z" fill="#3457E5"/>
<path d="M387.741 383.669C393.221 394.209 398.721 404.779 403.121 415.829C407.521 426.859 410.441 438.289 412.321 449.999C413.431 456.869 414.241 463.779 415.011 470.699C415.121 471.649 416.621 471.659 416.511 470.699C415.171 458.589 413.691 446.449 410.771 434.609C407.911 423.019 403.431 411.959 398.291 401.209C395.341 395.049 392.191 388.979 389.041 382.919C388.591 382.059 387.291 382.819 387.741 383.669Z" fill="#3457E5"/>
<path d="M375.751 487.119C391.131 482.039 406.721 477.599 422.481 473.799C423.421 473.569 423.021 472.129 422.081 472.349C406.331 476.139 390.741 480.579 375.351 485.669C374.441 485.969 374.831 487.419 375.751 487.119Z" fill="#3457E5"/>
<path d="M371.161 487.539C362.201 493.459 354.091 500.599 347.081 508.739C346.451 509.469 347.511 510.529 348.141 509.799C355.061 501.749 363.061 494.689 371.911 488.839C372.721 488.309 371.971 487.009 371.161 487.539Z" fill="#3457E5"/>
<path d="M350.151 512.909C368.221 508.839 386.091 503.879 403.661 498.029C408.701 496.349 413.721 494.599 418.721 492.779C419.621 492.449 419.231 490.999 418.321 491.329C400.911 497.669 383.201 503.149 365.251 507.729C360.101 509.039 354.931 510.279 349.751 511.449C348.811 511.669 349.211 513.119 350.151 512.909Z" fill="#3457E5"/>
<path d="M346.291 514.279C343.121 521.279 341.821 528.879 341.351 536.499C341.101 540.439 340.861 544.499 341.301 548.429C341.701 551.959 342.921 555.269 344.781 558.279C346.851 561.619 349.551 564.529 352.391 567.219C353.091 567.879 354.151 566.819 353.451 566.159C350.361 563.229 347.431 560.059 345.361 556.309C343.031 552.069 342.531 547.599 342.601 542.839C342.741 533.399 343.641 523.739 347.581 515.039C347.981 514.169 346.691 513.399 346.291 514.279Z" fill="#3457E5"/>
<path d="M399.211 409.059C399.211 426.229 399.211 443.399 399.211 460.569C399.211 465.459 399.211 470.359 399.211 475.249C399.211 476.219 400.711 476.219 400.711 475.249C400.711 458.079 400.711 440.909 400.711 423.739C400.711 418.849 400.711 413.949 400.711 409.059C400.711 408.089 399.211 408.089 399.211 409.059Z" fill="#3457E5"/>
<path d="M380.011 383.289C380.011 408.999 380.011 434.709 380.011 460.429C380.011 467.729 380.011 475.029 380.011 482.329C380.011 483.299 381.511 483.299 381.511 482.329C381.511 456.619 381.511 430.909 381.511 405.189C381.511 397.889 381.511 390.589 381.511 383.289C381.511 382.319 380.011 382.319 380.011 383.289Z" fill="#3457E5"/>
<path d="M372.431 375.709C372.431 404.199 372.431 432.689 372.431 461.179C372.431 469.239 372.431 477.289 372.431 485.349C372.431 486.319 373.931 486.319 373.931 485.349C373.931 456.859 373.931 428.369 373.931 399.879C373.931 391.819 373.931 383.769 373.931 375.709C373.931 374.739 372.431 374.739 372.431 375.709Z" fill="#3457E5"/>
<path d="M321.401 213.769C321.401 259.129 321.401 304.499 321.401 349.859C321.401 394.989 321.401 440.129 321.401 485.259C321.401 510.719 321.401 536.179 321.401 561.639C321.401 562.609 322.901 562.609 322.901 561.639C322.901 516.279 322.901 470.909 322.901 425.549C322.901 380.419 322.901 335.279 322.901 290.149C322.901 264.689 322.901 239.229 322.901 213.769C322.901 212.809 321.401 212.799 321.401 213.769Z" fill="#3457E5"/>
<path d="M371.421 83.1588C371.421 106.559 371.421 129.959 371.421 153.359C371.421 176.759 371.421 200.159 371.421 223.559C371.421 236.719 371.421 249.869 371.421 263.029C371.421 263.999 372.921 263.999 372.921 263.029C372.921 239.629 372.921 216.229 372.921 192.829C372.921 169.429 372.921 146.029 372.921 122.629C372.921 109.469 372.921 96.3188 372.921 83.1588C372.921 82.1988 371.421 82.1888 371.421 83.1588Z" fill="#3457E5"/>
<path d="M382.031 91.2388C382.031 112.959 382.031 134.669 382.031 156.389C382.031 178.019 382.031 199.659 382.031 221.289C382.031 233.519 382.031 245.749 382.031 257.979C382.031 258.949 383.531 258.949 383.531 257.979C383.531 236.259 383.531 214.549 383.531 192.829C383.531 171.199 383.531 149.559 383.531 127.929C383.531 115.699 383.531 103.469 383.531 91.2388C383.531 90.2788 382.031 90.2788 382.031 91.2388Z" fill="#3457E5"/>
<path d="M369.491 79.8688C358.141 94.4788 349.021 110.669 341.931 127.739C334.711 145.119 329.591 163.329 326.111 181.809C324.171 192.149 322.741 202.579 321.751 213.049C321.661 214.009 323.161 213.999 323.251 213.049C325.001 194.569 328.141 176.199 333.071 158.289C337.971 140.489 344.651 123.159 353.531 106.959C358.521 97.8588 364.191 89.1288 370.561 80.9288C371.131 80.1788 370.081 79.1088 369.491 79.8688Z" fill="#3457E5"/>
<path d="M325.501 186.439C332.081 189.589 337.351 194.659 342.951 199.219C348.411 203.669 354.511 207.029 360.421 210.819C363.901 213.049 367.221 215.499 370.081 218.499C370.751 219.199 371.811 218.139 371.141 217.439C366.221 212.259 359.951 208.759 353.911 205.069C350.761 203.149 347.701 201.119 344.821 198.819C341.931 196.509 339.171 194.049 336.281 191.729C333.151 189.219 329.881 186.889 326.251 185.149C325.401 184.729 324.631 186.019 325.501 186.439Z" fill="#3457E5"/>
<path d="M332.741 163.429C337.351 156.669 345.271 152.909 351.791 148.299C358.431 143.599 364.681 138.309 369.511 131.709C370.081 130.929 368.781 130.179 368.211 130.949C363.201 137.789 356.561 143.189 349.631 147.979C343.251 152.379 335.921 156.109 331.441 162.669C330.901 163.469 332.201 164.229 332.741 163.429Z" fill="#3457E5"/>
<path d="M361.971 93.2388C364.371 95.7088 366.541 98.3888 368.431 101.259C368.961 102.059 370.261 101.309 369.731 100.499C367.761 97.5188 365.521 94.7288 363.031 92.1688C362.361 91.4788 361.301 92.5388 361.971 93.2388Z" fill="#3457E5"/>
<path d="M369.561 250.449C358.501 262.599 344.351 271.209 331.821 281.669C328.281 284.619 324.881 287.729 321.721 291.069C321.061 291.769 322.121 292.829 322.781 292.129C334.061 280.189 348.231 271.639 360.671 261.039C364.171 258.059 367.521 254.899 370.621 251.499C371.271 250.799 370.211 249.739 369.561 250.449Z" fill="#3457E5"/>
<path d="M325.611 300.219C328.571 304.099 331.521 307.969 334.481 311.849C335.061 312.609 336.361 311.859 335.781 311.089C332.821 307.209 329.871 303.339 326.911 299.459C326.331 298.699 325.031 299.449 325.611 300.219Z" fill="#3457E5"/>
<path d="M366.641 370.629C362.561 371.789 359.331 374.649 356.061 377.209C352.271 380.179 348.491 383.139 344.701 386.109C337.001 392.139 329.291 398.179 321.591 404.209C320.831 404.799 321.901 405.859 322.651 405.269C330.091 399.439 337.531 393.609 344.981 387.789C348.641 384.929 352.291 382.059 355.951 379.199C359.361 376.529 362.781 373.289 367.041 372.089C367.971 371.809 367.571 370.359 366.641 370.629Z" fill="#3457E5"/>
<path d="M323.551 416.559C334.901 427.099 348.831 434.219 360.801 443.959C364.211 446.729 367.431 449.719 370.351 452.999C370.991 453.719 372.051 452.659 371.411 451.939C361.141 440.399 347.411 432.949 335.041 423.969C331.411 421.339 327.901 418.549 324.611 415.489C323.901 414.849 322.841 415.909 323.551 416.559Z" fill="#3457E5"/>
<path d="M369.631 482.519C353.691 494.969 338.021 507.749 322.631 520.849C321.891 521.479 322.961 522.529 323.691 521.909C339.091 508.799 354.761 496.019 370.691 483.579C371.451 482.989 370.381 481.939 369.631 482.519Z" fill="#3457E5"/>
<path d="M323.741 533.539C328.491 537.889 333.391 542.069 338.451 546.059C339.201 546.649 340.271 545.599 339.511 544.999C334.461 541.009 329.551 536.829 324.801 532.479C324.091 531.829 323.031 532.889 323.741 533.539Z" fill="#3457E5"/>
<path d="M381.771 433.549C387.661 433.549 393.561 433.549 399.451 433.549C400.421 433.549 400.421 432.049 399.451 432.049C393.561 432.049 387.661 432.049 381.771 432.049C380.811 432.049 380.811 433.549 381.771 433.549Z" fill="#3457E5"/>
<path d="M398.711 193.309C398.711 212.169 398.711 231.039 398.711 249.899C398.711 250.869 400.211 250.869 400.211 249.899C400.211 231.039 400.211 212.169 400.211 193.309C400.211 192.339 398.711 192.339 398.711 193.309Z" fill="#3457E5"/>
<path d="M400.341 192.529C401.021 189.609 401.511 186.549 402.461 183.699C403.351 181.029 405.471 179.669 408.121 179.059C410.581 178.479 413.251 178.389 415.771 178.439C418.631 178.499 421.731 179.269 423.121 182.019C423.561 182.879 424.851 182.119 424.421 181.259C423.051 178.559 420.181 177.319 417.301 177.019C414.321 176.709 411.001 176.909 408.061 177.529C405.531 178.069 403.041 179.269 401.741 181.609C400.951 183.019 400.651 184.649 400.281 186.209C399.821 188.179 399.361 190.159 398.901 192.129C398.681 193.069 400.121 193.469 400.341 192.529Z" fill="#3457E5"/>
<path d="M283.511 175.119C283.511 225.919 283.511 276.719 283.511 327.519C283.511 378.059 283.511 428.599 283.511 479.139C283.511 507.649 283.511 536.159 283.511 564.669C283.511 565.639 285.011 565.639 285.011 564.669C285.011 513.869 285.011 463.069 285.011 412.269C285.011 361.729 285.011 311.189 285.011 260.649C285.011 232.139 285.011 203.629 285.011 175.119C285.011 174.149 283.511 174.149 283.511 175.119Z" fill="#3457E5"/>
<path d="M306.241 192.549C306.241 240.979 306.241 289.409 306.241 337.839C306.241 386.019 306.241 434.199 306.241 482.379C306.241 509.559 306.241 536.739 306.241 563.919C306.241 564.889 307.741 564.889 307.741 563.919C307.741 515.489 307.741 467.059 307.741 418.629C307.741 370.449 307.741 322.269 307.741 274.089C307.741 246.909 307.741 219.729 307.741 192.549C307.741 191.579 306.241 191.579 306.241 192.549Z" fill="#3457E5"/>
<path d="M285.581 175.359C289.371 177.959 293.211 180.499 296.951 183.169C300.341 185.589 303.611 188.269 305.981 191.739C306.521 192.529 307.821 191.779 307.281 190.979C304.891 187.479 301.681 184.739 298.271 182.269C294.361 179.439 290.321 176.779 286.341 174.049C285.531 173.519 284.781 174.819 285.581 175.359Z" fill="#3457E5"/>
<path d="M284.201 192.359C287.521 195.459 291.031 198.359 294.711 201.009C296.531 202.319 298.391 203.569 300.281 204.749C302.111 205.889 304.241 206.889 305.331 208.839C305.801 209.679 307.091 208.929 306.631 208.079C305.661 206.329 304.001 205.259 302.331 204.239C300.321 203.009 298.341 201.729 296.411 200.369C292.481 197.609 288.771 194.569 285.261 191.289C284.561 190.639 283.501 191.699 284.201 192.359Z" fill="#3457E5"/>
<path d="M289.571 169.739C291.031 171.669 293.181 172.799 295.221 174.029C297.581 175.449 299.951 176.869 302.311 178.289C303.141 178.789 303.891 177.489 303.071 176.989C300.851 175.649 298.621 174.319 296.401 172.979C294.501 171.839 292.241 170.779 290.871 168.979C290.291 168.229 288.991 168.969 289.571 169.739Z" fill="#3457E5"/>
<path d="M291.051 166.239C295.081 162.599 299.101 158.959 303.131 155.319C303.851 154.669 302.781 153.609 302.071 154.259C298.041 157.899 294.021 161.539 289.991 165.179C289.271 165.829 290.331 166.879 291.051 166.239Z" fill="#3457E5"/>
<path d="M304.731 156.169C304.731 163.499 304.731 170.819 304.731 178.149C304.731 179.119 306.231 179.119 306.231 178.149C306.231 170.819 306.231 163.499 306.231 156.169C306.231 155.209 304.731 155.199 304.731 156.169Z" fill="#3457E5"/>
<path d="M307.251 344.879C313.311 344.879 319.381 344.879 325.441 344.879C326.411 344.879 326.411 343.379 325.441 343.379C319.381 343.379 313.311 343.379 307.251 343.379C306.281 343.379 306.281 344.879 307.251 344.879Z" fill="#3457E5"/>
<path d="M308.001 351.699C312.381 351.699 316.761 351.699 321.141 351.699C322.111 351.699 322.111 350.199 321.141 350.199C316.761 350.199 312.381 350.199 308.001 350.199C307.041 350.199 307.041 351.699 308.001 351.699Z" fill="#3457E5"/>
<path d="M307.501 362.559C312.381 362.559 317.271 362.559 322.151 362.559C323.121 362.559 323.121 361.059 322.151 361.059C317.271 361.059 312.381 361.059 307.501 361.059C306.531 361.059 306.531 362.559 307.501 362.559Z" fill="#3457E5"/>
<path d="M306.741 370.139C311.961 370.139 317.181 370.139 322.401 370.139C323.371 370.139 323.371 368.639 322.401 368.639C317.181 368.639 311.961 368.639 306.741 368.639C305.781 368.639 305.771 370.139 306.741 370.139Z" fill="#3457E5"/>
<path d="M306.611 430.139C308.631 430.139 310.651 430.139 312.671 430.139C313.641 430.139 313.641 428.639 312.671 428.639C310.651 428.639 308.631 428.639 306.611 428.639C305.651 428.639 305.651 430.139 306.611 430.139Z" fill="#3457E5"/>
<path d="M312.311 430.149C312.311 441.639 312.311 453.139 312.311 464.629C312.311 465.599 313.811 465.599 313.811 464.629C313.811 453.139 313.811 441.639 313.811 430.149C313.811 429.179 312.311 429.179 312.311 430.149Z" fill="#3457E5"/>
<path d="M307.751 465.759C312.421 465.759 317.101 465.759 321.771 465.759C322.741 465.759 322.741 464.259 321.771 464.259C317.101 464.259 312.421 464.259 307.751 464.259C306.791 464.259 306.781 465.759 307.751 465.759Z" fill="#3457E5"/>
<path d="M306.991 473.719C311.921 473.719 316.841 473.719 321.771 473.719C322.741 473.719 322.741 472.219 321.771 472.219C316.841 472.219 311.921 472.219 306.991 472.219C306.031 472.219 306.031 473.719 306.991 473.719Z" fill="#3457E5"/>
<path d="M307.751 483.569C312.301 483.569 316.841 483.569 321.391 483.569C322.361 483.569 322.361 482.069 321.391 482.069C316.841 482.069 312.301 482.069 307.751 482.069C306.791 482.069 306.781 483.569 307.751 483.569Z" fill="#3457E5"/>
<path d="M308.131 490.769C312.681 490.769 317.221 490.769 321.771 490.769C322.741 490.769 322.741 489.269 321.771 489.269C317.221 489.269 312.681 489.269 308.131 489.269C307.171 489.269 307.161 490.769 308.131 490.769Z" fill="#3457E5"/>
<path d="M312.691 473.729C312.691 476.639 312.691 479.539 312.691 482.449C312.691 483.419 314.191 483.419 314.191 482.449C314.191 479.539 314.191 476.639 314.191 473.729C314.191 472.759 312.691 472.759 312.691 473.729Z" fill="#3457E5"/>
<path d="M312.691 491.159C312.691 496.589 312.691 502.019 312.691 507.449C312.691 508.419 314.191 508.419 314.191 507.449C314.191 502.019 314.191 496.589 314.191 491.159C314.191 490.199 312.691 490.189 312.691 491.159Z" fill="#3457E5"/>
<path d="M313.811 508.209C316.461 508.209 319.121 508.209 321.771 508.209C322.741 508.209 322.741 506.709 321.771 506.709C319.121 506.709 316.461 506.709 313.811 506.709C312.851 506.709 312.851 508.209 313.811 508.209Z" fill="#3457E5"/>
<path d="M270.241 430.139C274.531 430.139 278.831 430.139 283.121 430.139C284.091 430.139 284.091 428.639 283.121 428.639C278.831 428.639 274.531 428.639 270.241 428.639C269.271 428.639 269.271 430.139 270.241 430.139Z" fill="#3457E5"/>
<path d="M270.551 429.179C266.921 455.469 263.911 481.849 261.551 508.289C260.891 515.709 260.271 523.129 259.711 530.549C259.641 531.509 261.141 531.509 261.211 530.549C263.201 504.319 265.811 478.129 269.051 452.019C269.981 444.529 270.961 437.049 271.991 429.579C272.121 428.629 270.681 428.219 270.551 429.179Z" fill="#3457E5"/>
<path d="M209.151 488.159C210.421 476.039 213.641 464.239 217.201 452.619C218.731 447.629 219.981 442.299 222.381 437.639C224.631 433.289 228.461 430.059 233.611 430.669C245.111 432.029 248.401 445.699 250.781 454.959C253.761 466.589 255.621 478.469 256.861 490.399C258.261 503.869 258.891 517.409 259.511 530.929C259.551 531.889 261.051 531.899 261.011 530.929C259.851 505.649 258.661 480.129 252.461 455.479C250.021 445.779 247.011 432.799 235.991 429.629C231.411 428.309 226.681 429.579 223.541 433.199C220.311 436.919 218.981 441.889 217.531 446.489C213.251 460.129 209.141 473.899 207.641 488.159C207.551 489.119 209.061 489.109 209.151 488.159Z" fill="#3457E5"/>
<path d="M87.9711 494.329C110.021 484.089 132.621 475.049 155.661 467.279C162.151 465.089 168.671 462.999 175.231 460.999C176.151 460.719 175.761 459.269 174.831 459.549C151.521 466.639 128.611 474.989 106.201 484.569C99.8311 487.289 93.5011 490.119 87.2111 493.039C86.3411 493.439 87.1011 494.729 87.9711 494.329Z" fill="#3457E5"/>
<path d="M175.261 460.819C187.341 472.619 200.261 483.549 213.901 493.509C220.771 498.519 227.841 503.229 235.011 507.789C238.691 510.129 242.361 512.509 245.691 515.329C248.911 518.059 251.761 521.179 254.481 524.399C261.041 532.169 267.401 540.119 273.851 547.989C274.461 548.739 275.521 547.669 274.911 546.929C269.131 539.879 263.361 532.809 257.561 525.769C254.881 522.519 252.161 519.299 249.111 516.389C246.081 513.509 242.711 511.039 239.241 508.729C232.141 504.029 224.931 499.549 217.991 494.599C211.011 489.619 204.211 484.389 197.611 478.919C190.261 472.819 183.171 466.419 176.341 459.749C175.631 459.079 174.571 460.139 175.261 460.819Z" fill="#3457E5"/>
<path d="M274.921 549.519C274.921 554.069 274.921 558.609 274.921 563.159C274.921 564.129 276.421 564.129 276.421 563.159C276.421 558.609 276.421 554.069 276.421 549.519C276.421 548.549 274.921 548.549 274.921 549.519Z" fill="#3457E5"/>
<path d="M191.361 73.5588C191.331 93.5388 191.301 113.519 191.271 133.499C191.241 153.479 191.211 173.459 191.181 193.439C191.161 204.759 191.141 216.079 191.131 227.409C191.131 228.379 192.631 228.379 192.631 227.409C192.661 207.429 192.691 187.449 192.721 167.469C192.751 147.489 192.781 127.509 192.811 107.529C192.831 96.2088 192.851 84.8888 192.861 73.5588C192.861 72.5988 191.361 72.5888 191.361 73.5588Z" fill="#3457E5"/>
<path d="M191.041 226.659C191.041 259.279 191.041 291.889 191.041 324.509C191.041 356.959 191.041 389.409 191.041 421.859C191.041 440.159 191.041 458.469 191.041 476.769C191.041 477.739 192.541 477.739 192.541 476.769C192.541 444.149 192.541 411.539 192.541 378.919C192.541 346.469 192.541 314.019 192.541 281.569C192.541 263.269 192.541 244.959 192.541 226.659C192.541 225.689 191.041 225.689 191.041 226.659Z" fill="#3457E5"/>
<path d="M150.441 75.0788C150.981 105.639 151.111 136.209 150.821 166.769C150.531 197.169 149.831 227.559 148.721 257.939C148.091 275.039 147.331 292.129 146.451 309.219C146.401 310.179 147.901 310.179 147.951 309.219C149.531 278.689 150.711 248.149 151.461 217.589C152.211 187.199 152.551 156.799 152.471 126.399C152.431 109.289 152.251 92.1788 151.951 75.0688C151.931 74.1188 150.431 74.1188 150.441 75.0788Z" fill="#3457E5"/>
<path d="M147.021 310.119C145.741 331.449 144.391 352.779 143.211 374.109C142.621 384.739 142.161 395.379 142.111 406.019C142.061 416.389 142.711 426.709 143.131 437.069C143.591 448.269 143.431 459.649 139.931 470.409C139.631 471.329 141.081 471.719 141.381 470.809C144.461 461.359 145.011 451.369 144.781 441.489C144.541 431.239 143.701 421.019 143.621 410.759C143.451 389.249 145.071 367.749 146.361 346.289C147.081 334.229 147.801 322.179 148.521 310.119C148.581 309.159 147.081 309.159 147.021 310.119Z" fill="#3457E5"/>
<path d="M164.521 77.3488C164.521 127.949 164.521 178.559 164.521 229.159C164.521 279.499 164.521 329.849 164.521 380.189C164.521 408.589 164.521 436.989 164.521 465.389C164.521 466.359 166.021 466.359 166.021 465.389C166.021 414.789 166.021 364.179 166.021 313.579C166.021 263.239 166.021 212.889 166.021 162.549C166.021 134.149 166.021 105.749 166.021 77.3488C166.021 76.3788 164.521 76.3788 164.521 77.3488Z" fill="#3457E5"/>
<path d="M166.781 93.7588C175.291 93.7588 183.791 93.7588 192.301 93.7588C193.271 93.7588 193.271 92.2588 192.301 92.2588C183.791 92.2588 175.291 92.2588 166.781 92.2588C165.821 92.2588 165.821 93.7588 166.781 93.7588Z" fill="#3457E5"/>
<path d="M167.291 103.359C174.781 103.359 182.281 103.359 189.771 103.359C190.741 103.359 190.741 101.859 189.771 101.859C182.281 101.859 174.781 101.859 167.291 101.859C166.321 101.859 166.321 103.359 167.291 103.359Z" fill="#3457E5"/>
<path d="M165.771 119.279C173.941 119.279 182.111 119.279 190.281 119.279C191.251 119.279 191.251 117.779 190.281 117.779C182.111 117.779 173.941 117.779 165.771 117.779C164.811 117.779 164.811 119.279 165.771 119.279Z" fill="#3457E5"/>
<path d="M166.531 128.879C174.951 128.879 183.371 128.879 191.791 128.879C192.761 128.879 192.761 127.379 191.791 127.379C183.371 127.379 174.951 127.379 166.531 127.379C165.571 127.379 165.561 128.879 166.531 128.879Z" fill="#3457E5"/>
<path d="M166.021 144.789C174.271 144.789 182.531 144.789 190.781 144.789C191.751 144.789 191.751 143.289 190.781 143.289C182.531 143.289 174.271 143.289 166.021 143.289C165.061 143.289 165.061 144.789 166.021 144.789Z" fill="#3457E5"/>
<path d="M167.291 155.149C175.041 155.149 182.781 155.149 190.531 155.149C191.501 155.149 191.501 153.649 190.531 153.649C182.781 153.649 175.041 153.649 167.291 153.649C166.321 153.649 166.321 155.149 167.291 155.149Z" fill="#3457E5"/>
<path d="M165.271 170.559C174.531 170.559 183.801 170.559 193.061 170.559C194.031 170.559 194.031 169.059 193.061 169.059C183.801 169.059 174.531 169.059 165.271 169.059C164.301 169.059 164.301 170.559 165.271 170.559Z" fill="#3457E5"/>
<path d="M166.531 181.429C174.951 181.429 183.371 181.429 191.791 181.429C192.761 181.429 192.761 179.929 191.791 179.929C183.371 179.929 174.951 179.929 166.531 179.929C165.571 179.929 165.561 181.429 166.531 181.429Z" fill="#3457E5"/>
<path d="M165.771 196.579C174.111 196.579 182.441 196.579 190.781 196.579C191.751 196.579 191.751 195.079 190.781 195.079C182.441 195.079 174.111 195.079 165.771 195.079C164.811 195.079 164.811 196.579 165.771 196.579Z" fill="#3457E5"/>
<path d="M165.521 208.209C174.611 208.209 183.711 208.209 192.801 208.209C193.771 208.209 193.771 206.709 192.801 206.709C183.711 206.709 174.611 206.709 165.521 206.709C164.551 206.709 164.551 208.209 165.521 208.209Z" fill="#3457E5"/>
<path d="M167.291 221.849C175.041 221.849 182.781 221.849 190.531 221.849C191.501 221.849 191.501 220.349 190.531 220.349C182.781 220.349 175.041 220.349 167.291 220.349C166.321 220.349 166.321 221.849 167.291 221.849Z" fill="#3457E5"/>
<path d="M166.281 230.939C174.281 230.939 182.281 230.939 190.281 230.939C191.251 230.939 191.251 229.439 190.281 229.439C182.281 229.439 174.281 229.439 166.281 229.439C165.311 229.439 165.311 230.939 166.281 230.939Z" fill="#3457E5"/>
<path d="M111.721 448.969C111.721 460.089 111.721 471.199 111.721 482.319C111.721 483.289 113.221 483.289 113.221 482.319C113.221 471.199 113.221 460.089 113.221 448.969C113.221 448.009 111.721 447.999 111.721 448.969Z" fill="#3457E5"/>
<path d="M129.911 448.969C129.911 457.899 129.911 466.819 129.911 475.749C129.911 476.719 131.411 476.719 131.411 475.749C131.411 466.819 131.411 457.899 131.411 448.969C131.411 448.009 129.911 447.999 129.911 448.969Z" fill="#3457E5"/>
<path d="M113.751 449.809C115.331 446.199 118.621 442.839 122.771 442.649C126.531 442.479 130.471 445.549 130.271 449.499C130.221 450.459 131.721 450.459 131.771 449.499C132.001 444.909 127.651 441.239 123.271 441.149C118.421 441.039 114.301 444.839 112.461 449.059C112.071 449.929 113.361 450.689 113.751 449.809Z" fill="#3457E5"/>
<path d="M86.851 426.819C89.681 428.089 92.381 429.639 94.901 431.429C95.231 431.659 95.731 431.489 95.931 431.159C96.151 430.779 95.991 430.369 95.661 430.129C93.131 428.329 90.431 426.789 87.611 425.519C87.241 425.349 86.801 425.409 86.581 425.789C86.401 426.109 86.481 426.649 86.851 426.819Z" fill="#3457E5"/>
<path d="M93.5312 431.789C93.5312 451.659 93.5312 471.539 93.5312 491.409C93.5312 492.379 95.0312 492.379 95.0312 491.409C95.0312 471.539 95.0312 451.659 95.0312 431.789C95.0312 430.829 93.5312 430.829 93.5312 431.789Z" fill="#3457E5"/>
<path d="M373.621 140.339C367.491 139.689 362.001 144.079 359.661 149.489C358.321 152.579 357.821 155.959 357.821 159.309C357.821 162.469 357.961 166.119 359.331 169.019C360.681 171.869 363.441 173.179 366.271 174.169C369.811 175.419 373.491 176.259 377.211 176.719C380.601 177.139 384.271 177.449 387.651 176.839C390.741 176.279 392.931 174.209 394.301 171.469C397.321 165.429 397.741 157.929 396.341 151.409C395.691 148.379 394.701 144.979 392.701 142.539C390.611 139.989 387.171 139.239 384.071 138.749C377.741 137.749 370.931 138.479 365.421 141.949C360.611 144.979 357.131 150.169 356.461 155.849C355.671 162.549 359.461 168.449 364.951 171.999C371.571 176.269 379.711 176.729 387.361 176.979C388.331 177.009 388.321 175.509 387.361 175.479C381.061 175.269 374.461 174.989 368.641 172.309C363.871 170.109 359.531 166.209 358.231 160.949C356.961 155.799 358.941 150.269 362.421 146.419C366.311 142.119 372.041 140.089 377.731 139.859C380.671 139.739 383.621 140.059 386.481 140.779C387.941 141.139 389.421 141.599 390.611 142.559C391.771 143.499 392.521 144.829 393.111 146.179C395.691 152.029 396.241 158.839 394.881 165.059C394.281 167.819 393.401 170.849 391.511 173.029C389.361 175.509 386.241 175.629 383.181 175.609C379.871 175.579 376.561 175.239 373.321 174.569C370.261 173.939 367.031 173.129 364.211 171.729C362.641 170.949 361.361 169.879 360.611 168.259C359.881 166.679 359.671 164.869 359.501 163.149C359.171 159.759 359.191 156.279 360.041 152.959C361.601 146.829 366.811 141.109 373.611 141.829C374.581 141.939 374.581 140.439 373.621 140.339Z" fill="#3457E5"/>
<path d="M190.661 251.899C183.951 252.699 178.041 257.419 176.211 264.009C174.381 270.609 176.641 278.109 182.501 281.899C185.021 283.529 188.111 284.399 191.101 283.939C194.581 283.399 197.211 280.959 199.221 278.219C203.441 272.439 205.011 264.499 201.621 257.949C198.631 252.169 192.391 248.759 185.951 250.279C179.791 251.729 175.031 256.939 174.251 263.219C173.431 269.829 176.611 276.509 182.011 280.299C187.581 284.209 195.921 285.449 202.261 282.719C205.401 281.369 206.941 278.459 207.431 275.209C207.961 271.699 207.851 267.909 207.401 264.399C206.971 261.009 205.971 257.539 203.701 254.899C201.711 252.589 198.781 250.939 195.711 250.769C194.221 250.679 192.781 251.029 191.451 251.689C190.591 252.119 191.341 253.409 192.211 252.989C194.811 251.699 197.771 252.299 200.141 253.799C202.801 255.489 204.401 258.189 205.241 261.169C206.131 264.309 206.221 267.629 206.211 270.869C206.201 273.609 206.101 276.719 204.501 279.069C202.641 281.809 198.781 282.429 195.701 282.589C192.681 282.739 189.631 282.289 186.801 281.189C181.131 278.989 176.921 274.109 175.851 268.089C174.821 262.339 177.131 256.579 182.151 253.479C187.061 250.449 193.211 250.769 197.431 254.829C202.071 259.289 202.951 266.039 200.861 271.939C198.851 277.609 194.001 283.839 187.291 282.339C180.351 280.789 176.471 273.789 177.151 266.999C177.851 259.949 183.641 254.239 190.651 253.409C191.611 253.279 191.621 251.779 190.661 251.899Z" fill="#3457E5"/>
<path d="M88.2512 526.279C94.2212 520.549 101.991 517.399 110.021 515.789C118.431 514.109 127.241 513.869 135.791 514.359C144.681 514.869 153.391 516.809 161.061 521.469C167.561 525.419 173.111 530.949 177.161 537.379C181.721 544.619 184.361 553.009 184.371 561.589C184.371 562.559 185.871 562.559 185.871 561.589C185.841 545.849 177.281 530.919 164.521 521.939C157.291 516.849 148.961 514.189 140.211 513.219C131.091 512.209 121.571 512.399 112.501 513.819C103.211 515.279 94.0612 518.599 87.1812 525.209C86.5012 525.879 87.5612 526.939 88.2512 526.279Z" fill="#3457E5"/>
<path d="M199.021 483.099C182.621 493.669 165.711 503.419 148.341 512.319C147.481 512.759 148.241 514.049 149.101 513.619C166.471 504.729 183.381 494.969 199.781 484.399C200.591 483.879 199.841 482.579 199.021 483.099Z" fill="#3457E5"/>
<path d="M208.091 516.119C208.091 521.799 208.091 527.489 208.091 533.169C208.091 534.139 209.591 534.139 209.591 533.169C209.591 527.489 209.591 521.799 209.591 516.119C209.591 515.149 208.091 515.149 208.091 516.119Z" fill="#3457E5"/>
<path d="M220.601 541.129C220.601 547.569 220.601 554.009 220.601 560.459C220.601 561.429 222.101 561.429 222.101 560.459C222.101 554.019 222.101 547.579 222.101 541.129C222.101 540.159 220.601 540.159 220.601 541.129Z" fill="#3457E5"/>
<path d="M209.681 535.959C212.641 537.759 215.241 540.089 217.371 542.829C217.621 543.149 218.171 543.089 218.431 542.829C218.751 542.509 218.681 542.089 218.431 541.769C216.231 538.939 213.511 536.529 210.441 534.669C209.611 534.159 208.851 535.459 209.681 535.959Z" fill="#3457E5"/>
<path d="M234.241 543.399C234.241 549.839 234.241 556.279 234.241 562.729C234.241 563.699 235.741 563.699 235.741 562.729C235.741 556.289 235.741 549.849 235.741 543.399C235.741 542.439 234.241 542.429 234.241 543.399Z" fill="#3457E5"/>
<path d="M251.291 519.529C251.291 533.929 251.291 548.329 251.291 562.729C251.291 563.699 252.791 563.699 252.791 562.729C252.791 548.329 252.791 533.929 252.791 519.529C252.791 518.559 251.291 518.559 251.291 519.529Z" fill="#3457E5"/>
<path d="M10.0711 358.309C9.01106 365.479 12.2011 372.819 17.9511 377.169C23.8211 381.619 31.6911 381.889 38.1811 378.589C44.4411 375.399 48.6811 369.119 48.6311 362.019C48.5911 355.339 45.1211 348.789 39.9811 344.609C27.9411 334.799 10.5811 341.379 3.38106 353.869C-0.548936 360.679 -1.95894 370.129 4.17106 376.119C6.87106 378.759 10.3911 380.399 13.8811 381.729C17.8211 383.229 21.9711 384.699 26.2111 384.919C30.1011 385.119 33.9511 383.899 36.5411 380.889C38.8911 378.169 40.0211 374.629 40.7211 371.159C41.4011 367.769 41.9011 364.249 41.6911 360.779C41.5111 357.819 40.8611 354.559 38.7611 352.319C37.7811 351.279 36.5211 350.609 35.1311 350.289C34.1911 350.069 33.7911 351.519 34.7311 351.739C40.7911 353.149 40.5711 361.639 39.9611 366.439C39.1711 372.709 37.6311 380.969 30.5811 382.989C26.7011 384.099 22.5411 383.049 18.8111 381.859C15.4311 380.789 12.0111 379.589 8.93106 377.809C5.82106 376.009 3.11106 373.449 2.03106 369.929C0.871064 366.119 1.55106 361.939 2.92106 358.279C7.50106 346.099 22.8311 336.929 35.3111 343.329C46.3311 348.979 51.7011 364.909 41.8711 374.179C37.0911 378.689 29.8211 380.639 23.5311 378.489C17.2211 376.339 12.5911 370.319 11.5411 363.819C11.2711 362.129 11.2611 360.389 11.5111 358.699C11.6511 357.759 10.2111 357.359 10.0711 358.309Z" fill="#3457E5"/>
<path d="M468.471 394.889C466.331 398.879 467.221 403.609 469.711 407.239C472.631 411.499 477.331 413.699 482.281 414.679C487.231 415.659 492.461 415.859 497.501 415.759C501.811 415.679 506.251 415.219 510.301 413.669C514.001 412.249 517.331 409.829 519.071 406.169C521.181 401.719 520.531 396.829 518.281 392.579C515.841 387.969 511.921 384.179 507.731 381.139C503.331 377.949 498.311 375.189 493.001 373.919C487.951 372.709 482.521 373.099 478.121 376.039C474.011 378.779 471.211 383.129 469.641 387.749C466.781 396.119 468.161 405.649 472.591 413.219C477.041 420.829 484.641 426.299 493.521 427.129C501.901 427.909 510.661 424.739 516.651 418.829C523.611 411.969 525.651 401.769 522.831 392.519C519.811 382.599 511.601 375.239 501.761 372.369C499.331 371.659 496.821 371.249 494.301 371.089C493.341 371.029 493.341 372.529 494.301 372.589C503.841 373.199 513.241 378.089 518.371 386.299C523.301 394.189 524.221 404.789 519.391 412.949C515.381 419.719 508.051 424.129 500.371 425.399C492.301 426.729 484.211 424.159 478.431 418.369C472.661 412.599 469.451 404.349 469.661 396.199C469.891 387.499 474.561 377.489 483.661 375.219C488.671 373.969 493.961 375.339 498.541 377.459C503.081 379.559 507.411 382.379 511.051 385.809C514.501 389.059 517.681 393.119 518.651 397.869C519.511 402.079 518.071 406.439 514.861 409.299C509.081 414.459 499.871 414.499 492.591 414.189C483.611 413.809 471.251 412.549 468.951 401.819C468.501 399.709 468.741 397.559 469.771 395.649C470.221 394.799 468.921 394.039 468.471 394.889Z" fill="#3457E5"/>
<path d="M449.481 167.489C449.481 219.119 449.481 270.749 449.481 322.369C449.481 373.989 449.481 425.629 449.481 477.249C449.481 506.369 449.481 535.499 449.481 564.619C449.481 565.589 450.981 565.589 450.981 564.619C450.981 512.989 450.981 461.359 450.981 409.739C450.981 358.119 450.981 306.479 450.981 254.859C450.981 225.739 450.981 196.609 450.981 167.489C450.981 166.519 449.481 166.519 449.481 167.489Z" fill="#3457E5"/>
<path d="M61.4409 176.579C61.4409 227.379 61.4409 278.179 61.4409 328.979C61.4409 379.519 61.4409 430.059 61.4409 480.599C61.4409 509.109 61.4409 537.619 61.4409 566.129C61.4409 567.099 62.9409 567.099 62.9409 566.129C62.9409 515.329 62.9409 464.529 62.9409 413.729C62.9409 363.189 62.9409 312.649 62.9409 262.109C62.9409 233.599 62.9409 205.089 62.9409 176.579C62.9409 175.609 61.4409 175.609 61.4409 176.579Z" fill="#3457E5"/>
<path d="M437.251 413.559C435.631 415.099 433.921 416.769 433.251 418.969C432.701 420.779 432.941 422.959 434.291 424.359C435.741 425.859 438.041 425.919 439.851 425.109C441.801 424.239 443.001 422.339 443.701 420.389C444.401 418.419 444.941 415.979 444.241 413.939C443.621 412.129 442.081 410.999 440.211 410.779C438.451 410.579 436.631 411.159 435.291 412.299C433.691 413.659 432.821 415.739 432.391 417.739C432.131 418.939 431.971 420.209 431.961 421.429C431.951 422.569 432.291 423.689 433.151 424.479C434.651 425.839 436.911 425.989 438.831 425.939C439.791 425.919 439.801 424.419 438.831 424.439C437.461 424.469 435.921 424.449 434.691 423.759C433.131 422.879 433.411 421.069 433.591 419.529C433.961 416.479 435.261 412.949 438.651 412.309C439.911 412.069 441.381 412.329 442.231 413.349C443.371 414.709 443.101 416.729 442.731 418.319C442.341 419.969 441.731 421.669 440.481 422.879C439.391 423.939 437.591 424.539 436.151 423.869C434.531 423.119 434.211 421.089 434.641 419.519C435.191 417.509 436.851 415.989 438.311 414.609C439.021 413.949 437.951 412.889 437.251 413.559Z" fill="#3457E5"/>
<path d="M62.591 169.969C63.771 159.159 66.701 148.579 71.261 138.709C71.661 137.839 70.371 137.079 69.961 137.949C65.281 148.079 62.291 158.869 61.081 169.959C60.981 170.929 62.481 170.919 62.591 169.969Z" fill="#3457E5"/>
<path d="M82.6311 109.319C89.1311 100.019 94.7911 90.1688 99.5511 79.8688C99.9511 78.9988 98.6611 78.2388 98.2511 79.1088C93.4911 89.3988 87.8211 99.2588 81.3311 108.559C80.7811 109.349 82.0811 110.099 82.6311 109.319Z" fill="#3457E5"/>
<path d="M231.941 27.6388C241.841 27.0788 251.751 26.8188 261.661 26.5988C271.261 26.3888 280.881 26.1188 290.491 26.4488C300.081 26.7788 309.691 27.7388 319.021 30.0688C328.061 32.3288 336.741 35.8088 345.111 39.8488C361.941 47.9688 378.101 57.7688 393.311 68.6088C400.661 73.8488 407.701 79.5688 413.431 86.5788C419.031 93.4188 423.411 101.179 427.261 109.099C435.461 125.939 441.771 143.709 446.131 161.919C446.671 164.189 447.191 166.479 447.671 168.759C447.871 169.699 449.321 169.299 449.121 168.359C445.191 149.829 439.261 131.749 431.451 114.499C427.751 106.329 423.681 98.2588 418.551 90.8888C413.401 83.5088 407.101 77.2388 400.001 71.7188C392.641 66.0088 384.831 60.8288 376.941 55.8888C368.841 50.8188 360.541 46.0488 352.061 41.6588C343.821 37.3888 335.341 33.5088 326.501 30.6488C317.441 27.7288 308.061 26.1188 298.581 25.3888C288.891 24.6388 279.171 24.7488 269.461 24.9388C259.431 25.1388 249.391 25.3388 239.361 25.7688C236.881 25.8788 234.411 25.9988 231.931 26.1388C230.981 26.1888 230.971 27.6888 231.941 27.6388Z" fill="#3457E5"/>
<path d="M61.4409 564.999C61.4409 571.949 61.4409 578.889 61.4409 585.839C61.4409 586.809 62.9409 586.809 62.9409 585.839C62.9409 578.889 62.9409 571.949 62.9409 564.999C62.9409 564.039 61.4409 564.029 61.4409 564.999Z" fill="#3457E5"/>
<path d="M87.4511 563.399C79.3511 568.889 71.4011 574.599 63.6111 580.519C62.8511 581.099 63.6011 582.399 64.3711 581.819C72.1611 575.899 80.1111 570.189 88.2111 564.699C89.0011 564.159 88.2511 562.859 87.4511 563.399Z" fill="#3457E5"/>
<path d="M64.8409 585.079C85.2909 585.079 105.751 585.079 126.201 585.079C132.021 585.079 137.841 585.079 143.661 585.079C144.631 585.079 144.631 583.579 143.661 583.579C123.211 583.579 102.751 583.579 82.3009 583.579C76.4809 583.579 70.6609 583.579 64.8409 583.579C63.8809 583.579 63.8709 585.079 64.8409 585.079Z" fill="#3457E5"/>
<path d="M175.491 584.319C192.521 584.319 209.561 584.319 226.591 584.319C243.621 584.319 260.661 584.319 277.691 584.319C287.331 584.319 296.971 584.319 306.611 584.319C307.581 584.319 307.581 582.819 306.611 582.819C289.581 582.819 272.541 582.819 255.511 582.819C238.481 582.819 221.441 582.819 204.411 582.819C194.771 582.819 185.131 582.819 175.491 582.819C174.531 582.819 174.531 584.319 175.491 584.319Z" fill="#3457E5"/>
<path d="M333.141 583.939C364.381 583.939 395.611 583.939 426.851 583.939C435.661 583.939 444.461 583.939 453.271 583.939C454.241 583.939 454.241 582.439 453.271 582.439C422.031 582.439 390.801 582.439 359.561 582.439C350.751 582.439 341.951 582.439 333.141 582.439C332.171 582.439 332.171 583.939 333.141 583.939Z" fill="#3457E5"/>
<path d="M449.481 563.489C449.481 569.929 449.481 576.369 449.481 582.819C449.481 583.789 450.981 583.789 450.981 582.819C450.981 576.379 450.981 569.939 450.981 563.489C450.981 562.519 449.481 562.519 449.481 563.489Z" fill="#3457E5"/>
<path d="M426.701 565.749C433.261 572.299 443.771 573.629 449.451 581.169C450.021 581.929 451.331 581.179 450.751 580.409C444.921 572.679 434.451 571.359 427.761 564.679C427.081 564.009 426.021 565.069 426.701 565.749Z" fill="#3457E5"/>
<path d="M329.511 542.399C323.891 543.349 319.521 547.769 317.291 552.839C314.571 559.029 314.211 566.469 314.471 573.149C314.701 579.079 317.081 584.179 321.741 587.909C326.031 591.339 331.361 593.389 336.741 594.359C347.041 596.209 359.431 594.459 366.481 585.969C373.561 577.439 372.541 564.719 366.481 555.929C358.791 544.769 344.161 540.879 331.251 541.969C330.301 542.049 330.291 543.549 331.251 543.469C342.241 542.549 354.161 545.159 362.201 553.129C369.381 560.249 372.461 572.329 367.631 581.569C362.721 590.949 351.431 594.089 341.531 593.449C332.001 592.829 319.901 588.519 316.791 578.459C315.721 575.009 315.901 571.309 316.041 567.739C316.191 564.059 316.481 560.359 317.481 556.809C319.171 550.769 323.391 544.969 329.921 543.859C330.861 543.679 330.451 542.239 329.511 542.399Z" fill="#3457E5"/>
<path d="M136.861 549.469C134.031 551.429 132.231 554.289 131.031 557.479C129.721 560.969 128.601 565.209 128.911 568.949C129.211 572.529 131.371 575.399 134.451 577.159C138.001 579.179 142.171 579.479 146.151 579.739C147.111 579.799 147.111 578.299 146.151 578.239C142.561 577.999 138.771 577.779 135.531 576.039C132.441 574.379 130.401 571.619 130.381 568.039C130.351 564.789 131.271 561.279 132.361 558.229C133.411 555.309 135.031 552.559 137.631 550.769C138.411 550.219 137.661 548.919 136.861 549.469Z" fill="#3457E5"/>
<path d="M141.781 549.299C148.341 549.769 155.951 551.449 158.791 558.169C160.231 561.579 160.381 565.509 160.141 569.149C159.891 573.029 157.911 575.959 154.281 577.459C149.841 579.289 144.901 578.249 140.381 577.309C139.441 577.109 139.041 578.559 139.981 578.759C144.481 579.699 149.321 580.699 153.821 579.229C157.301 578.089 160.341 575.579 161.251 571.919C161.761 569.889 161.751 567.699 161.691 565.619C161.631 563.589 161.411 561.539 160.861 559.579C159.811 555.849 157.471 552.779 154.081 550.879C150.351 548.789 145.991 548.119 141.781 547.809C140.821 547.729 140.821 549.229 141.781 549.299Z" fill="#3457E5"/>
<path d="M434.141 446.239C432.411 447.799 432.211 450.609 433.441 452.539C434.781 454.619 437.571 455.329 439.861 454.579C442.351 453.769 443.931 451.409 444.251 448.879C444.411 447.619 444.311 446.149 443.551 445.089C442.741 443.949 441.281 443.499 439.991 443.149C438.401 442.719 436.621 442.589 435.141 443.419C433.901 444.109 432.971 445.399 433.031 446.859C433.071 447.819 434.571 447.829 434.531 446.859C434.501 445.919 435.101 445.159 435.901 444.719C436.861 444.189 438.031 444.249 439.071 444.469C440.031 444.679 441.251 444.959 442.021 445.609C442.811 446.279 442.871 447.489 442.801 448.449C442.671 450.269 441.651 452.089 439.991 452.919C438.421 453.699 436.281 453.489 435.051 452.179C433.801 450.849 433.841 448.529 435.201 447.299C435.921 446.649 434.861 445.589 434.141 446.239Z" fill="#3457E5"/>
<path d="M81.511 208.089C83.031 208.089 84.541 208.089 86.061 208.089C86.451 208.089 86.831 207.749 86.811 207.339C86.791 206.929 86.481 206.589 86.061 206.589C84.541 206.589 83.031 206.589 81.511 206.589C81.121 206.589 80.741 206.929 80.761 207.339C80.781 207.749 81.091 208.089 81.511 208.089Z" fill="#3457E5"/>
<path d="M81.1411 209.619C81.1411 217.959 81.1411 226.289 81.1411 234.629C81.1411 235.599 82.6411 235.599 82.6411 234.629C82.6411 226.289 82.6411 217.959 82.6411 209.619C82.6411 208.649 81.1411 208.649 81.1411 209.619Z" fill="#3457E5"/>
<path d="M81.8914 234.619C83.2814 234.619 84.6714 234.619 86.0614 234.619C86.4514 234.619 86.8314 234.279 86.8114 233.869C86.7914 233.459 86.4814 233.119 86.0614 233.119C84.6714 233.119 83.2814 233.119 81.8914 233.119C81.5014 233.119 81.1214 233.459 81.1414 233.869C81.1614 234.269 81.4714 234.619 81.8914 234.619Z" fill="#3457E5"/>
<path d="M80.7607 241.069C80.7607 249.789 80.7607 258.499 80.7607 267.219C80.7607 268.189 82.2607 268.189 82.2607 267.219C82.2607 258.499 82.2607 249.789 82.2607 241.069C82.2607 240.099 80.7607 240.099 80.7607 241.069Z" fill="#3457E5"/>
<path d="M83.4109 241.059C84.1709 241.059 84.9309 241.059 85.6809 241.059C86.0709 241.059 86.4509 240.719 86.4309 240.309C86.4109 239.899 86.1009 239.559 85.6809 239.559C84.9209 239.559 84.1609 239.559 83.4109 239.559C83.0209 239.559 82.6409 239.899 82.6609 240.309C82.6809 240.719 82.9909 241.059 83.4109 241.059Z" fill="#3457E5"/>
<path d="M82.6511 268.719C83.6611 268.719 84.6711 268.719 85.6811 268.719C86.0711 268.719 86.4511 268.379 86.4311 267.969C86.4111 267.559 86.1011 267.219 85.6811 267.219C84.6711 267.219 83.6611 267.219 82.6511 267.219C82.2611 267.219 81.8811 267.559 81.9011 267.969C81.9211 268.379 82.2311 268.719 82.6511 268.719Z" fill="#3457E5"/>
<path d="M81.511 274.409C82.771 274.409 84.041 274.409 85.301 274.409C85.691 274.409 86.071 274.069 86.051 273.659C86.031 273.249 85.721 272.909 85.301 272.909C84.041 272.909 82.771 272.909 81.511 272.909C81.121 272.909 80.741 273.249 80.761 273.659C80.781 274.059 81.091 274.409 81.511 274.409Z" fill="#3457E5"/>
<path d="M81.1411 275.549C81.1411 286.289 81.1411 297.019 81.1411 307.759C81.1411 308.729 82.6411 308.729 82.6411 307.759C82.6411 297.019 82.6411 286.289 82.6411 275.549C82.6411 274.589 81.1411 274.589 81.1411 275.549Z" fill="#3457E5"/>
<path d="M83.4109 307.379C84.5509 307.379 85.6809 307.379 86.8209 307.379C87.2109 307.379 87.5909 307.039 87.5709 306.629C87.5509 306.219 87.2409 305.879 86.8209 305.879C85.6809 305.879 84.5509 305.879 83.4109 305.879C83.0209 305.879 82.6409 306.219 82.6609 306.629C82.6809 307.029 82.9909 307.379 83.4109 307.379Z" fill="#3457E5"/>
<path d="M474.761 52.4988C474.661 56.5988 478.301 59.7688 482.161 60.2788C486.401 60.8488 489.941 57.8688 490.851 53.8088C491.791 49.6288 490.081 45.1888 486.241 43.1388C482.291 41.0288 477.121 41.5588 473.631 44.3488C469.351 47.7788 467.951 53.8488 469.341 59.0088C469.591 59.9388 471.041 59.5488 470.791 58.6088C469.721 54.6688 470.431 50.1088 473.121 46.9388C475.681 43.9188 479.841 42.6488 483.661 43.7088C487.301 44.7188 489.671 47.8488 489.611 51.6288C489.561 54.9788 487.451 58.5188 483.841 58.8288C480.211 59.1388 476.161 56.3588 476.261 52.4888C476.291 51.5288 474.791 51.5288 474.761 52.4988Z" fill="#3457E5"/>
<path d="M157.271 0.448808C141.791 1.99881 127.081 9.07881 116.051 20.0288C104.381 31.6188 97.5909 47.2988 96.6609 63.6888C96.1809 72.0988 97.2409 80.6188 99.8709 88.6188C102.571 96.8488 106.831 104.579 113.561 110.179C120.401 115.879 128.781 119.839 136.931 123.299C145.371 126.889 154.181 129.649 163.301 130.809C179.181 132.819 196.421 129.349 208.531 118.329C209.991 116.999 211.341 115.569 212.601 114.049C213.211 113.309 212.161 112.249 211.541 112.989C201.511 125.079 185.391 130.349 170.031 129.849C161.071 129.559 152.251 127.469 143.841 124.429C135.591 121.439 127.351 117.669 119.931 112.949C116.381 110.689 113.031 108.059 110.261 104.879C107.401 101.609 105.221 97.7888 103.471 93.8288C100.131 86.2788 98.3609 78.0388 98.0909 69.7988C97.5709 53.7088 102.821 37.5588 113.271 25.2388C123.021 13.7488 136.691 5.66881 151.491 2.78881C153.401 2.41881 155.331 2.13881 157.271 1.93881C158.221 1.85881 158.231 0.358808 157.271 0.448808Z" fill="#3457E5"/>
<path d="M157.191 1.69881C170.561 1.28881 184.301 1.05881 197.281 4.75881C203.581 6.55881 209.611 9.33881 214.851 13.3088C219.781 17.0388 223.941 21.7488 227.231 26.9688C234.251 38.1088 237.121 51.2888 236.361 64.3588C235.561 78.0988 231.101 92.0588 223.861 103.769C216.931 114.989 206.091 125.379 192.221 126.039C191.261 126.089 191.251 127.589 192.221 127.539C204.641 126.949 214.821 118.899 221.961 109.249C230.201 98.1188 235.361 84.2388 237.241 70.5788C239.111 56.9888 237.381 43.0088 231.091 30.7288C225.181 19.1788 215.581 10.0988 203.491 5.29881C190.521 0.148811 176.191 -0.211189 162.421 0.068811C160.681 0.108811 158.931 0.158811 157.191 0.208811C156.231 0.228811 156.221 1.72881 157.191 1.69881Z" fill="#3457E5"/>
<path d="M221.191 127.049C235.061 117.269 254.401 125.029 261.371 139.539C264.041 145.099 264.801 151.469 264.321 157.569C264.241 158.529 265.741 158.529 265.821 157.569C266.631 147.459 263.751 137.279 256.371 130.109C250.431 124.329 242.141 120.699 233.781 121.119C228.971 121.359 224.361 122.969 220.421 125.749C219.651 126.299 220.391 127.599 221.191 127.049Z" fill="#3457E5"/>
<path d="M222.341 124.819C212.081 133.149 208.551 147.649 210.221 160.319C210.341 161.259 211.851 161.279 211.721 160.319C210.101 147.989 213.411 133.989 223.401 125.879C224.151 125.269 223.081 124.219 222.341 124.819Z" fill="#3457E5"/>
<path d="M216.561 189.179C215.061 191.319 214.541 194.029 215.061 196.589C215.141 196.989 215.611 197.219 215.981 197.109C216.391 196.999 216.581 196.589 216.501 196.189C216.061 194.019 216.581 191.749 217.851 189.939C218.081 189.609 217.911 189.109 217.581 188.909C217.211 188.689 216.791 188.849 216.561 189.179Z" fill="#3457E5"/>
<path d="M218.471 190.409C230.691 187.429 243.351 191.329 255.621 188.699C256.561 188.499 256.161 187.049 255.221 187.249C242.961 189.879 230.311 185.969 218.071 188.959C217.141 189.199 217.531 190.639 218.471 190.409Z" fill="#3457E5"/>
<path d="M260.061 189.199C260.061 190.839 260.061 192.479 260.061 194.129C260.061 194.519 260.401 194.899 260.811 194.879C261.221 194.859 261.561 194.549 261.561 194.129C261.561 192.489 261.561 190.849 261.561 189.199C261.561 188.809 261.221 188.429 260.811 188.449C260.411 188.469 260.061 188.779 260.061 189.199Z" fill="#3457E5"/>
<path d="M215.221 197.979C207.151 196.629 199.751 192.809 191.711 191.359C183.261 189.839 174.711 191.269 166.361 192.719C165.411 192.879 165.811 194.329 166.761 194.169C175.131 192.719 183.751 191.259 192.201 192.979C199.911 194.549 207.051 198.129 214.821 199.429C215.761 199.579 216.171 198.139 215.221 197.979Z" fill="#3457E5"/>
<path d="M57.601 164.119C75.401 168.589 93.201 173.059 110.991 177.529C111.931 177.769 112.331 176.319 111.391 176.079C93.591 171.609 75.791 167.139 58.001 162.669C57.061 162.439 56.661 163.889 57.601 164.119Z" fill="#3457E5"/>
<path d="M102.551 176.849C118.921 184.259 135.691 191.799 153.661 194.209C158.671 194.879 163.711 195.129 168.761 194.869C169.721 194.819 169.731 193.319 168.761 193.369C150.951 194.269 133.741 188.639 117.521 181.819C112.751 179.809 108.031 177.679 103.311 175.549C102.441 175.159 101.671 176.459 102.551 176.849Z" fill="#3457E5"/>
<path d="M53.681 161.939C49.671 167.999 47.451 175.109 47.281 182.379C47.261 183.349 48.761 183.349 48.781 182.379C48.951 175.359 51.101 168.539 54.981 162.689C55.501 161.889 54.211 161.129 53.681 161.939Z" fill="#3457E5"/>
<path d="M50.3608 187.549C74.6608 202.099 100.491 214.079 127.301 223.209C134.921 225.799 142.621 228.159 150.391 230.299C151.321 230.559 151.721 229.109 150.791 228.849C123.451 221.339 96.9308 210.939 71.7908 197.829C64.7908 194.179 57.8908 190.309 51.1208 186.249C50.2908 185.759 49.5308 187.049 50.3608 187.549Z" fill="#3457E5"/>
<path d="M157.361 233.029C163.111 236.239 168.851 239.839 173.211 244.859C175.431 247.419 177.211 250.369 178.281 253.599C179.421 257.049 179.861 260.679 180.351 264.269C180.901 268.279 181.591 272.249 183.281 275.949C183.681 276.829 184.971 276.069 184.581 275.189C181.421 268.249 182.101 260.359 179.731 253.199C177.641 246.899 173.141 241.939 167.941 237.989C164.851 235.639 161.511 233.629 158.121 231.739C157.281 231.259 156.521 232.559 157.361 233.029Z" fill="#3457E5"/>
<path d="M29.1013 135.229C28.3613 137.979 28.6513 140.909 29.9013 143.469C30.0813 143.829 30.6013 143.929 30.9313 143.739C31.3013 143.519 31.3813 143.079 31.2013 142.709C30.1313 140.519 29.9213 137.979 30.5513 135.629C30.7913 134.699 29.3513 134.299 29.1013 135.229Z" fill="#3457E5"/>
<path d="M29.6508 143.159C30.0708 144.839 31.5408 145.899 32.9108 146.809C33.2408 147.029 33.7508 146.889 33.9408 146.539C34.1408 146.159 34.0208 145.749 33.6708 145.509C33.3708 145.309 33.0708 145.109 32.7808 144.899C32.7408 144.869 32.7008 144.839 32.6608 144.809C32.5208 144.709 32.7908 144.919 32.6608 144.809C32.6008 144.759 32.5308 144.709 32.4708 144.659C32.3308 144.539 32.1908 144.419 32.0508 144.289C31.9208 144.169 31.8008 144.039 31.6908 143.909C31.6608 143.879 31.6408 143.849 31.6108 143.819C31.5008 143.689 31.7108 143.959 31.6108 143.819C31.5608 143.749 31.5108 143.679 31.4608 143.609C31.3708 143.469 31.2808 143.319 31.2108 143.159C31.1608 143.049 31.2108 143.129 31.2208 143.189C31.2108 143.149 31.1808 143.099 31.1708 143.059C31.1408 142.969 31.1108 142.879 31.0908 142.789C30.9908 142.409 30.5508 142.139 30.1708 142.269C29.7808 142.359 29.5408 142.749 29.6508 143.159Z" fill="#3457E5"/>
<path d="M31.4607 149.399C31.3807 149.509 31.3107 149.609 31.2307 149.719C31.2707 149.669 31.3107 149.619 31.3507 149.569C30.9507 150.089 30.4907 150.549 29.9807 150.959C29.8407 151.069 29.7607 151.319 29.7607 151.489C29.7607 151.669 29.8407 151.889 29.9807 152.019C30.1207 152.149 30.3107 152.249 30.5107 152.239C30.5807 152.229 30.6407 152.219 30.7107 152.209C30.8407 152.169 30.9507 152.109 31.0407 152.019C31.7007 151.489 32.2707 150.859 32.7607 150.159C32.8707 150.009 32.8807 149.749 32.8407 149.579C32.7907 149.409 32.6607 149.219 32.5007 149.129C32.3307 149.039 32.1207 148.989 31.9207 149.049C31.7207 149.119 31.5807 149.239 31.4607 149.399Z" fill="#3457E5"/>
<path d="M31.4011 146.839C31.7711 147.349 31.9611 147.949 31.8811 148.539C31.8011 149.129 31.4611 149.669 31.0111 150.009C30.4211 150.449 29.7111 150.499 28.9711 150.499C28.0911 150.499 27.2111 150.429 26.3311 150.319C25.9311 150.269 25.5811 150.699 25.5811 151.069C25.5811 151.519 25.9311 151.769 26.3311 151.819C27.3411 151.949 28.3611 152.029 29.3811 151.999C30.4111 151.969 31.3511 151.699 32.1411 151.029C33.5611 149.809 33.8011 147.599 32.7011 146.089C32.4611 145.759 32.0511 145.599 31.6711 145.819C31.3511 145.999 31.1611 146.509 31.4011 146.839Z" fill="#3457E5"/>
<path d="M11.7913 144.369C13.8013 146.859 16.3613 148.699 19.3413 149.859C22.3013 151.009 25.4813 151.469 28.6113 151.899C29.5513 152.029 29.9613 150.579 29.0113 150.449C26.0313 150.039 23.0113 149.609 20.1713 148.569C17.2613 147.509 14.8013 145.709 12.8613 143.309C12.2413 142.559 11.1813 143.629 11.7913 144.369Z" fill="#3457E5"/>
<path d="M1.74101 144.579C2.06101 149.279 2.79101 153.939 3.95101 158.509C4.19101 159.449 5.63101 159.049 5.40101 158.109C4.28101 153.669 3.56101 149.149 3.25101 144.579C3.18101 143.619 1.68101 143.609 1.74101 144.579Z" fill="#3457E5"/>
<path d="M5.71136 161.789C14.0714 169.909 25.2214 174.809 36.8614 175.489C37.8214 175.549 37.8214 174.049 36.8614 173.989C25.6314 173.329 14.8414 168.569 6.78136 160.729C6.08136 160.059 5.02136 161.119 5.71136 161.789Z" fill="#3457E5"/>
<path d="M35.5314 175.849C38.9314 175.579 42.7414 175.329 45.6014 177.529C45.9214 177.779 46.4414 177.579 46.6314 177.259C46.8614 176.879 46.6814 176.479 46.3614 176.229C43.3014 173.869 39.1814 174.059 35.5314 174.349C34.5714 174.419 34.5614 175.919 35.5314 175.849Z" fill="#3457E5"/>
<path d="M30.1213 135.569C28.2813 139.329 28.9513 143.999 31.8013 147.069C32.4613 147.779 33.5213 146.719 32.8613 146.009C30.4913 143.459 29.8813 139.459 31.4113 136.319C31.8413 135.459 30.5513 134.699 30.1213 135.569Z" fill="#3457E5"/>
<path d="M30.4211 136.439C30.8611 136.249 31.3011 136.049 31.7411 135.859C31.9011 135.789 32.0411 135.569 32.0811 135.409C32.1311 135.229 32.1111 134.989 32.0011 134.829C31.9011 134.669 31.7411 134.529 31.5511 134.489C31.4811 134.479 31.4211 134.469 31.3511 134.459C31.2111 134.459 31.0911 134.489 30.9711 134.559C30.5311 134.749 30.0911 134.949 29.6511 135.139C29.4911 135.209 29.3511 135.429 29.3111 135.589C29.2611 135.769 29.2811 136.009 29.3911 136.169C29.4911 136.329 29.6511 136.469 29.8411 136.509C29.9111 136.519 29.9711 136.529 30.0411 136.539C30.1811 136.539 30.3111 136.509 30.4211 136.439Z" fill="#3457E5"/>
<path d="M33.0011 136.849C32.9211 140.129 34.7611 142.969 36.5511 145.569C36.7811 145.899 37.2111 146.049 37.5811 145.839C37.9111 145.649 38.0811 145.149 37.8511 144.809C36.2211 142.449 34.4311 139.849 34.5111 136.849C34.5311 135.879 33.0311 135.879 33.0011 136.849Z" fill="#3457E5"/>
<path d="M37.2014 143.929C37.5614 145.409 38.5314 146.529 39.4714 147.679C40.6414 149.119 41.5514 150.729 42.4814 152.329C44.2414 155.339 46.3114 158.119 48.7614 160.609C49.4414 161.299 50.5014 160.239 49.8214 159.549C47.4614 157.149 45.4714 154.479 43.7814 151.579C42.9314 150.129 42.1114 148.669 41.1014 147.329C40.1914 146.129 39.0214 145.039 38.6514 143.529C38.4214 142.589 36.9714 142.989 37.2014 143.929Z" fill="#3457E5"/>
<path d="M46.9608 158.909C48.1808 161.029 50.0108 162.799 52.1808 163.939C52.5408 164.129 53.0008 164.029 53.2108 163.669C53.4108 163.329 53.3008 162.829 52.9408 162.639C51.9108 162.099 51.0908 161.509 50.2808 160.729C49.4408 159.919 48.8408 159.149 48.2608 158.149C48.0608 157.799 47.5808 157.679 47.2308 157.879C46.8708 158.089 46.7508 158.559 46.9608 158.909Z" fill="#3457E5"/>
<path d="M15.6111 147.489C12.9411 144.879 9.47115 141.739 5.40115 142.649C3.62115 143.049 2.40115 144.319 2.16115 146.129C1.85115 148.379 1.95115 150.749 2.02115 153.009C2.05115 153.969 3.55115 153.979 3.52115 153.009C3.46115 151.059 3.47115 149.099 3.57115 147.149C3.61115 146.389 3.66115 145.549 4.19115 144.959C4.64115 144.449 5.31115 144.189 5.97115 144.069C9.39115 143.459 12.3411 146.399 14.5511 148.559C15.2411 149.219 16.3011 148.159 15.6111 147.489Z" fill="#3457E5"/>
<path d="M1.89091 151.339C3.62091 155.099 5.41091 158.889 8.17091 162.019C10.8909 165.109 14.3509 167.439 17.7409 169.729C18.5409 170.269 19.2909 168.969 18.5009 168.429C15.2109 166.209 11.8709 163.959 9.23091 160.959C6.56091 157.929 4.86091 154.209 3.19091 150.579C2.78091 149.699 1.49091 150.459 1.89091 151.339Z" fill="#3457E5"/>
<path d="M182.381 275.569C185.911 292.779 186.951 310.459 185.421 327.959C185.141 331.219 184.501 336.509 188.871 337.359C189.811 337.539 190.221 336.099 189.271 335.909C187.241 335.509 186.641 333.409 186.641 331.589C186.651 329.659 186.951 327.709 187.101 325.779C187.411 321.669 187.581 317.549 187.611 313.419C187.671 305.169 187.161 296.929 186.111 288.749C185.521 284.189 184.761 279.659 183.841 275.159C183.631 274.229 182.181 274.629 182.381 275.569Z" fill="#3457E5"/>
<path d="M192.221 339.619C218.671 336.649 245.341 335.759 271.921 336.989C279.471 337.339 287.011 337.859 294.531 338.549C295.491 338.639 295.491 337.139 294.531 337.049C268.031 334.639 241.341 334.309 214.791 336.089C207.251 336.599 199.721 337.279 192.221 338.119C191.271 338.229 191.261 339.729 192.221 339.619Z" fill="#3457E5"/>
<path d="M329.141 227.149C322.441 230.109 315.611 233.159 310.141 238.149C304.951 242.889 301.951 248.899 301.171 255.869C300.691 260.149 300.921 264.459 301.161 268.749C301.211 269.709 302.711 269.719 302.661 268.749C302.151 259.749 301.931 250.329 307.781 242.869C313.351 235.769 321.851 231.999 329.901 228.449C330.781 228.059 330.021 226.759 329.141 227.149Z" fill="#3457E5"/>
<path d="M300.971 261.749C296.521 282.389 293.171 303.269 290.951 324.269C290.321 330.269 289.781 336.289 289.331 342.309C289.261 343.269 290.761 343.269 290.831 342.309C292.401 321.299 295.091 300.389 298.911 279.669C299.991 273.809 301.161 267.969 302.421 262.149C302.621 261.199 301.171 260.799 300.971 261.749Z" fill="#3457E5"/>
<path d="M268.061 196.789C271.901 195.079 276.141 194.889 280.281 194.849C284.751 194.809 289.211 194.819 293.681 194.799C301.661 194.769 310.291 194.149 317.621 197.879C318.481 198.319 319.241 197.019 318.381 196.579C310.781 192.719 301.951 193.269 293.681 193.299C288.991 193.319 284.301 193.289 279.611 193.359C275.401 193.419 271.201 193.759 267.301 195.499C266.421 195.889 267.181 197.179 268.061 196.789Z" fill="#3457E5"/>
<path d="M328.361 194.999C353.611 190.339 378.421 183.369 402.381 174.169C409.071 171.599 415.691 168.859 422.241 165.949C423.121 165.559 422.361 164.269 421.481 164.649C398.141 174.999 373.861 183.189 349.021 189.099C342.041 190.759 335.011 192.239 327.951 193.539C327.011 193.729 327.411 195.179 328.361 194.999Z" fill="#3457E5"/>
<path d="M429.631 165.539C431.821 165.909 433.491 167.469 434.911 169.079C436.281 170.639 437.381 172.419 438.291 174.279C440.111 177.989 441.151 182.039 442.081 186.049C442.301 186.989 443.741 186.589 443.531 185.649C442.521 181.299 441.361 176.919 439.301 172.929C437.461 169.369 434.301 164.799 430.051 164.089C429.091 163.929 428.681 165.379 429.631 165.539Z" fill="#3457E5"/>
<path d="M324.701 232.719C341.031 229.379 356.991 224.359 372.281 217.749C379.791 214.499 387.091 210.839 394.261 206.909C401.251 203.079 408.171 199.089 415.341 195.599C423.411 191.669 431.841 188.419 440.721 186.879C441.671 186.719 441.271 185.269 440.321 185.429C424.661 188.149 410.691 196.099 396.961 203.709C382.421 211.759 367.471 218.779 351.671 223.999C342.701 226.959 333.551 229.389 324.291 231.279C323.361 231.469 323.761 232.919 324.701 232.719Z" fill="#3457E5"/>
<path d="M449.751 143.559C444.231 148.709 441.221 156.259 441.681 163.799C441.741 164.759 443.241 164.769 443.181 163.799C442.741 156.629 445.561 149.529 450.811 144.619C451.521 143.959 450.461 142.909 449.751 143.559Z" fill="#3457E5"/>
<path d="M440.451 160.949C439.811 163.149 438.461 165.159 436.631 166.549C436.311 166.789 436.141 167.199 436.361 167.579C436.551 167.899 437.061 168.099 437.391 167.849C439.551 166.209 441.141 163.949 441.901 161.349C442.171 160.419 440.721 160.019 440.451 160.949Z" fill="#3457E5"/>
<path d="M453.121 143.859C452.371 148.739 448.471 153.629 451.071 158.609C451.521 159.469 452.811 158.709 452.371 157.849C450.081 153.469 453.911 148.579 454.571 144.259C454.711 143.309 453.261 142.909 453.121 143.859Z" fill="#3457E5"/>
<path d="M449.841 154.739C451.081 156.499 453.851 156.919 455.841 157.189C458.411 157.539 461.021 157.389 463.571 156.889C468.891 155.849 473.751 153.249 478.441 150.639C479.281 150.169 478.531 148.869 477.681 149.339C473.611 151.609 469.441 153.849 464.901 155.039C462.661 155.629 460.351 155.939 458.041 155.869C456.931 155.839 455.821 155.709 454.731 155.479C453.641 155.239 451.821 154.949 451.131 153.979C450.581 153.199 449.281 153.949 449.841 154.739Z" fill="#3457E5"/>
<path d="M478.561 150.359C480.101 157.149 475.511 163.129 471.541 168.099C470.941 168.849 472.001 169.909 472.601 169.159C476.941 163.729 481.691 157.349 480.011 149.959C479.791 149.019 478.351 149.419 478.561 150.359Z" fill="#3457E5"/>
<path d="M474.261 167.199C472.551 169.849 470.011 171.719 467.361 173.349C464.391 175.179 461.541 176.729 458.001 177.029C454.521 177.329 451.011 177.349 447.521 177.489C445.321 177.579 442.121 177.329 440.981 179.699C440.561 180.569 441.861 181.329 442.281 180.459C442.941 179.089 444.721 179.109 446.041 179.049C447.851 178.969 449.661 178.899 451.481 178.829C454.761 178.699 458.231 178.839 461.421 177.969C464.311 177.179 467.021 175.409 469.501 173.759C471.861 172.189 474.011 170.349 475.561 167.949C476.081 167.149 474.791 166.389 474.261 167.199Z" fill="#3457E5"/>
<path d="M192.311 337.559C188.281 349.539 186.751 362.269 187.841 374.869C187.921 375.819 189.421 375.829 189.341 374.869C188.261 362.399 189.761 349.829 193.761 337.959C194.061 337.039 192.611 336.649 192.311 337.559Z" fill="#3457E5"/>
<path d="M187.601 368.359C189.021 385.729 188.041 403.169 186.461 420.489C184.881 437.869 182.731 455.219 181.861 472.659C181.371 482.429 181.301 492.219 181.941 501.989C182.001 502.949 183.501 502.959 183.441 501.989C182.301 484.589 183.451 467.159 185.091 449.819C186.731 432.449 188.831 415.109 189.551 397.659C189.951 387.889 189.901 378.109 189.101 368.359C189.021 367.399 187.521 367.399 187.601 368.359Z" fill="#3457E5"/>
<path d="M181.931 487.049C181.831 505.699 179.821 524.309 175.921 542.549C175.721 543.489 177.161 543.889 177.371 542.949C181.301 524.579 183.341 505.839 183.431 487.059C183.431 486.079 181.931 486.079 181.931 487.049Z" fill="#3457E5"/>
<path d="M180.561 516.689C178.051 536.659 175.441 556.649 170.251 576.139C168.901 581.209 167.591 586.479 168.971 591.689C169.221 592.619 170.661 592.229 170.421 591.289C169.131 586.429 170.381 581.489 171.641 576.759C172.901 572.009 174.051 567.229 175.061 562.419C177.071 552.769 178.591 543.019 179.921 533.249C180.671 527.729 181.371 522.209 182.061 516.689C182.181 515.729 180.681 515.739 180.561 516.689Z" fill="#3457E5"/>
<path d="M172.001 586.459C182.701 589.539 193.651 591.649 204.721 592.799C205.681 592.899 205.671 591.399 204.721 591.299C193.781 590.169 182.961 588.059 172.401 585.009C171.471 584.749 171.081 586.199 172.001 586.459Z" fill="#3457E5"/>
<path d="M168.741 589.289C179.181 590.439 189.511 592.469 199.621 595.339C200.551 595.599 200.951 594.159 200.021 593.889C189.781 590.989 179.321 588.959 168.741 587.789C167.781 587.689 167.791 589.189 168.741 589.289Z" fill="#3457E5"/>
<path d="M201.891 593.339C203.481 591.529 204.081 589.259 204.731 586.989C205.581 584.039 206.441 581.089 207.291 578.139C208.971 572.319 210.651 566.489 212.341 560.669C212.611 559.739 211.161 559.339 210.891 560.269C209.301 565.769 207.711 571.279 206.121 576.779C205.341 579.489 204.551 582.199 203.771 584.919C203.061 587.389 202.581 590.289 200.831 592.279C200.191 593.009 201.251 594.069 201.891 593.339Z" fill="#3457E5"/>
<path d="M238.031 401.599C234.751 413.949 231.951 426.419 229.631 438.989C227.311 451.579 225.831 464.249 224.011 476.909C220.491 501.399 211.391 524.749 208.671 549.379C207.881 556.519 207.581 563.699 206.171 570.759C204.801 577.619 202.661 584.319 199.801 590.709C199.411 591.579 200.701 592.349 201.101 591.469C203.571 585.939 205.551 580.209 206.941 574.309C208.381 568.189 209.041 561.989 209.581 555.739C210.671 543.159 213.121 530.939 216.191 518.709C219.211 506.689 222.541 494.729 224.651 482.509C225.731 476.249 226.421 469.919 227.251 463.619C228.111 457.109 229.111 450.619 230.231 444.159C232.701 429.979 235.791 415.909 239.481 401.989C239.731 401.059 238.281 400.669 238.031 401.599Z" fill="#3457E5"/>
<path d="M228.381 386.319C233.411 387.649 238.571 388.479 243.761 388.809C244.721 388.869 244.721 387.369 243.761 387.309C238.691 386.989 233.681 386.169 228.781 384.869C227.841 384.619 227.441 386.069 228.381 386.319Z" fill="#3457E5"/>
<path d="M242.191 391.069C239.751 398.339 237.301 405.609 234.861 412.879C234.551 413.799 236.001 414.189 236.311 413.279C238.751 406.009 241.201 398.739 243.641 391.469C243.951 390.559 242.501 390.159 242.191 391.069Z" fill="#3457E5"/>
<path d="M239.971 389.169C248.711 415.109 254.071 442.019 258.511 468.989C260.721 482.439 262.711 495.929 264.791 509.399C266.871 522.849 268.531 536.549 272.911 549.489C275.361 556.719 278.201 563.799 280.151 571.199C282.141 578.749 283.471 586.449 284.801 594.139C284.961 595.089 286.411 594.689 286.251 593.739C285.071 586.909 283.881 580.079 282.241 573.349C280.621 566.689 278.341 560.269 276.021 553.819C273.671 547.289 271.681 540.719 270.341 533.889C269.031 527.189 268.021 520.439 266.961 513.699C262.741 486.789 259.061 459.769 253.361 433.129C250.161 418.149 246.301 403.299 241.411 388.779C241.111 387.859 239.661 388.249 239.971 389.169Z" fill="#3457E5"/>
<path d="M290.391 342.779C290.101 350.949 291.081 359.079 292.301 367.149C293.541 375.409 294.871 383.639 295.791 391.939C297.611 408.299 298.371 424.769 298.061 441.219C297.891 450.509 297.371 459.779 296.531 469.029C296.441 469.989 297.941 469.979 298.031 469.029C299.531 452.639 299.981 436.159 299.361 419.719C298.741 403.329 296.921 387.079 294.391 370.889C292.941 361.589 291.571 352.229 291.901 342.789C291.931 341.819 290.431 341.819 290.391 342.779Z" fill="#3457E5"/>
<path d="M295.741 474.119C300.391 488.549 302.981 503.539 304.751 518.569C306.571 534.009 307.771 549.529 308.621 565.049C309.101 573.819 309.451 582.589 309.661 591.369C309.681 592.329 311.181 592.339 311.161 591.369C310.771 575.469 309.951 559.579 308.671 543.719C307.461 528.629 306.031 513.499 303.311 498.589C301.781 490.179 299.801 481.849 297.171 473.709C296.891 472.799 295.441 473.189 295.741 474.119Z" fill="#3457E5"/>
<path d="M286.471 596.389C294.501 594.169 302.681 592.569 310.961 591.639C311.911 591.529 311.921 590.029 310.961 590.139C302.551 591.089 294.231 592.689 286.071 594.949C285.141 595.199 285.541 596.649 286.471 596.389Z" fill="#3457E5"/>
<path d="M174.771 589.829C173.051 592.069 172.001 594.729 171.651 597.519C171.601 597.919 172.031 598.269 172.401 598.269C172.851 598.269 173.101 597.919 173.151 597.519C173.471 594.989 174.521 592.599 176.071 590.589C176.321 590.269 176.121 589.749 175.801 589.559C175.411 589.339 175.021 589.509 174.771 589.829Z" fill="#3457E5"/>
<path d="M172.021 595.049C171.301 597.379 170.581 599.709 169.861 602.039C169.571 602.959 171.021 603.359 171.311 602.439C172.031 600.109 172.751 597.779 173.471 595.449C173.751 594.529 172.311 594.129 172.021 595.049Z" fill="#3457E5"/>
<path d="M170.001 597.039C166.511 600.999 162.811 605.419 162.851 610.999C162.861 611.959 164.361 611.969 164.351 610.999C164.311 605.839 167.851 601.749 171.061 598.109C171.701 597.379 170.641 596.319 170.001 597.039Z" fill="#3457E5"/>
<path d="M162.281 609.619C162.081 610.819 162.021 612.029 162.131 613.239C162.161 613.629 162.451 614.009 162.881 613.989C163.261 613.969 163.671 613.659 163.631 613.239C163.581 612.679 163.561 612.119 163.581 611.559C163.591 611.289 163.611 611.009 163.631 610.739C163.641 610.609 163.661 610.479 163.671 610.349C163.691 610.169 163.651 610.449 163.681 610.289C163.691 610.199 163.711 610.119 163.721 610.029C163.781 609.639 163.621 609.199 163.201 609.109C162.841 609.019 162.341 609.209 162.281 609.619Z" fill="#3457E5"/>
<path d="M163.171 612.739C165.791 615.299 168.851 617.389 172.191 618.909C172.561 619.079 173.001 619.019 173.221 618.639C173.411 618.319 173.321 617.779 172.951 617.609C169.721 616.149 166.771 614.149 164.241 611.679C163.541 611.009 162.471 612.069 163.171 612.739Z" fill="#3457E5"/>
<path d="M168.701 617.699C173.581 618.549 178.521 619.069 183.481 619.199C185.961 619.259 188.451 619.229 190.931 619.109C192.711 619.019 195.241 619.289 196.661 618.009C197.381 617.359 196.311 616.299 195.601 616.949C194.841 617.639 193.341 617.469 192.371 617.529C191.251 617.599 190.131 617.659 189.011 617.689C186.851 617.759 184.681 617.749 182.521 617.669C178.021 617.509 173.541 617.029 169.101 616.249C168.151 616.089 167.751 617.529 168.701 617.699Z" fill="#3457E5"/>
<path d="M197.811 593.319C197.531 599.289 197.241 605.259 196.961 611.229C196.851 613.539 197.231 617.149 194.661 618.259C192.061 619.379 188.751 619.409 185.971 619.309C185.001 619.269 185.011 620.769 185.971 620.809C188.921 620.919 192.381 620.819 195.161 619.689C197.561 618.709 198.181 616.359 198.331 613.979C198.781 607.109 198.991 600.209 199.321 593.319C199.361 592.359 197.861 592.359 197.811 593.319Z" fill="#3457E5"/>
<path d="M291.481 598.299C290.161 604.779 289.221 611.319 288.671 617.909C288.591 618.869 290.091 618.869 290.171 617.909C290.711 611.459 291.641 605.049 292.931 598.699C293.121 597.759 291.681 597.349 291.481 598.299Z" fill="#3457E5"/>
<path d="M290.661 618.029C293.731 620.239 298.041 620.119 301.651 620.309C306.101 620.539 310.551 620.559 315.001 620.369C315.961 620.329 315.971 618.829 315.001 618.869C310.861 619.039 306.721 619.049 302.581 618.859C298.981 618.689 294.471 618.949 291.411 616.739C290.631 616.169 289.881 617.469 290.661 618.029Z" fill="#3457E5"/>
<path d="M309.191 592.389C310.161 592.389 310.161 590.889 309.191 590.889C308.231 590.889 308.231 592.389 309.191 592.389Z" fill="#3457E5"/>
<path d="M288.471 597.549C287.631 600.839 286.791 604.129 285.951 607.419C285.201 610.359 284.031 613.519 284.811 616.559C285.051 617.489 286.501 617.099 286.261 616.159C285.511 613.219 286.851 609.929 287.581 607.099C288.361 604.049 289.141 600.999 289.921 597.949C290.151 597.019 288.711 596.619 288.471 597.549Z" fill="#3457E5"/>
<path d="M285.831 614.269C286.771 616.509 288.661 618.049 290.831 619.039C293.381 620.209 296.191 620.649 298.731 621.839C299.601 622.249 300.361 620.959 299.491 620.539C297.121 619.419 294.531 618.939 292.101 617.959C290.151 617.179 288.121 615.879 287.281 613.869C287.121 613.489 286.791 613.229 286.361 613.349C286.001 613.439 285.671 613.889 285.831 614.269Z" fill="#3457E5"/>
<path d="M310.351 593.809C311.561 596.779 312.491 599.839 313.141 602.979C313.341 603.919 314.781 603.519 314.591 602.579C313.941 599.439 313.011 596.379 311.801 593.409C311.651 593.039 311.301 592.769 310.881 592.889C310.521 592.989 310.201 593.439 310.351 593.809Z" fill="#3457E5"/>
<path d="M314.211 599.209C317.711 602.699 321.631 606.649 321.961 611.889C322.021 612.849 323.521 612.859 323.461 611.889C323.101 606.209 319.091 601.959 315.271 598.149C314.581 597.469 313.521 598.529 314.211 599.209Z" fill="#3457E5"/>
<path d="M322.391 611.989C318.241 613.359 315.761 617.309 311.841 619.059C311.471 619.229 311.391 619.759 311.571 620.089C311.791 620.469 312.231 620.519 312.601 620.359C316.401 618.669 318.811 614.759 322.801 613.449C323.701 613.129 323.311 611.679 322.391 611.989Z" fill="#3457E5"/>
<path d="M319.531 613.839C315.891 617.459 310.781 618.669 305.821 619.119C303.181 619.359 300.521 619.449 297.871 619.589C295.541 619.709 292.651 620.289 290.651 618.779C289.881 618.199 289.131 619.499 289.891 620.079C291.901 621.599 294.531 621.259 296.891 621.139C300.021 620.979 303.171 620.889 306.291 620.579C311.501 620.069 316.771 618.699 320.581 614.909C321.271 614.219 320.211 613.159 319.531 613.839Z" fill="#3457E5"/>
<path d="M213.971 137.159C210.151 143.489 210.461 151.139 210.901 158.259C210.961 159.219 212.461 159.229 212.401 158.259C211.981 151.419 211.581 144.019 215.261 137.919C215.761 137.089 214.471 136.329 213.971 137.159Z" fill="#3457E5"/>
<path d="M214.671 139.029C213.501 132.439 219.081 127.279 224.681 125.109C227.661 123.949 230.851 123.299 234.001 122.819C237.591 122.269 241.221 122.099 244.821 122.539C245.781 122.659 245.771 121.149 244.821 121.039C240.831 120.559 236.841 120.839 232.881 121.489C229.351 122.069 225.811 122.879 222.551 124.399C216.811 127.069 212.041 132.779 213.221 139.439C213.401 140.369 214.841 139.969 214.671 139.029Z" fill="#3457E5"/>
<path d="M239.991 124.259C246.411 123.099 253.081 125.449 257.671 130.029C262.651 134.999 264.591 142.149 264.251 149.039C264.061 153.039 263.131 156.969 261.761 160.729C261.431 161.639 262.881 162.029 263.211 161.129C265.791 154.079 266.811 146.139 264.561 138.849C262.481 132.099 257.651 126.569 251.051 123.949C247.401 122.499 243.451 122.119 239.591 122.819C238.641 122.989 239.041 124.429 239.991 124.259Z" fill="#3457E5"/>
<path d="M253.891 183.729C248.371 185.369 242.601 184.929 236.921 184.889C235.951 184.879 235.951 186.379 236.921 186.389C242.731 186.439 248.641 186.859 254.291 185.179C255.211 184.899 254.821 183.459 253.891 183.729Z" fill="#3457E5"/>
<path d="M209.851 150.209C209.451 152.249 209.601 154.209 210.411 156.129C211.241 158.079 212.531 159.779 213.601 161.599C216.151 165.939 216.251 171.029 217.001 175.879C217.151 176.829 218.591 176.429 218.451 175.479C217.761 171.019 217.651 166.309 215.631 162.179C213.751 158.339 210.401 155.249 211.301 150.609C211.481 149.669 210.031 149.259 209.851 150.209Z" fill="#3457E5"/>
<path d="M237.421 186.499C238.541 186.469 239.671 186.429 240.791 186.369C241.181 186.349 241.561 186.039 241.541 185.619C241.521 185.229 241.211 184.849 240.791 184.869C239.671 184.929 238.551 184.969 237.421 184.999C237.031 185.009 236.651 185.339 236.671 185.749C236.691 186.149 237.001 186.509 237.421 186.499Z" fill="#3457E5"/>
<path d="M210.141 158.989C215.491 162.799 218.271 169.329 217.681 175.819C217.591 176.779 219.091 176.779 219.181 175.819C219.821 168.779 216.661 161.799 210.901 157.689C210.111 157.129 209.361 158.429 210.141 158.989Z" fill="#3457E5"/>
<path d="M211.701 159.239C215.631 163.849 217.041 169.709 217.071 175.659C217.071 176.619 218.581 176.629 218.571 175.659C218.541 169.289 216.961 163.109 212.761 158.179C212.131 157.449 211.071 158.509 211.701 159.239Z" fill="#3457E5"/>
<path d="M235.471 187.649C240.691 187.899 246.011 188.239 251.111 186.809C252.041 186.549 251.641 185.099 250.711 185.359C245.741 186.749 240.561 186.389 235.471 186.149C234.501 186.099 234.511 187.599 235.471 187.649Z" fill="#3457E5"/>
<path d="M264.211 155.119C260.671 160.389 259.381 166.859 260.371 173.109C260.521 174.059 261.971 173.659 261.821 172.709C260.901 166.859 262.201 160.799 265.511 155.879C266.051 155.069 264.751 154.319 264.211 155.119Z" fill="#3457E5"/>
<path d="M258.691 170.339C259.151 175.219 257.201 180.019 253.121 182.819C249.061 185.599 244.061 186.169 239.261 186.049C238.291 186.029 238.291 187.529 239.261 187.549C244.521 187.679 250.051 186.969 254.391 183.749C258.591 180.639 260.691 175.519 260.201 170.329C260.101 169.389 258.601 169.379 258.691 170.339Z" fill="#3457E5"/>
<path d="M217.181 173.119C217.101 178.369 219.391 183.539 223.341 186.999C224.061 187.629 225.131 186.579 224.401 185.939C220.721 182.729 218.601 177.999 218.681 173.119C218.701 172.149 217.201 172.149 217.181 173.119Z" fill="#3457E5"/>
<path d="M218.981 177.889C219.421 179.659 220.531 181.089 221.801 182.359C223.201 183.759 224.721 185.179 226.481 186.129C230.161 188.129 234.701 187.699 238.741 187.719C239.711 187.729 239.711 186.229 238.741 186.219C235.101 186.199 230.891 186.659 227.531 184.979C225.921 184.179 224.591 182.939 223.301 181.709C222.041 180.509 220.861 179.209 220.431 177.479C220.201 176.549 218.751 176.949 218.981 177.889Z" fill="#3457E5"/>
<path d="M250.151 183.089C244.361 183.889 238.531 184.279 232.691 184.289C231.721 184.289 231.721 185.789 232.691 185.789C238.671 185.779 244.631 185.349 250.551 184.529C251.501 184.409 251.091 182.959 250.151 183.089Z" fill="#3457E5"/>
<path d="M222.181 183.719C222.271 185.489 222.521 187.239 222.931 188.959C223.021 189.349 223.471 189.589 223.851 189.479C224.251 189.369 224.471 188.949 224.371 188.559C223.991 186.959 223.761 185.359 223.681 183.719C223.661 183.319 223.351 182.969 222.931 182.969C222.541 182.969 222.161 183.319 222.181 183.719Z" fill="#3457E5"/>
<path d="M254.601 182.389C253.711 183.959 253.211 185.719 253.111 187.519C253.091 187.909 253.471 188.289 253.861 188.269C254.281 188.249 254.591 187.939 254.611 187.519C254.691 186.019 255.141 184.479 255.891 183.149C256.081 182.809 255.981 182.309 255.621 182.119C255.271 181.929 254.811 182.019 254.601 182.389Z" fill="#3457E5"/>
<path d="M212.181 160.259C211.111 160.869 210.641 162.049 210.671 163.249C210.701 164.619 211.361 165.769 211.961 166.959C212.291 167.609 212.581 168.279 212.641 169.009C212.711 169.859 212.621 170.719 212.781 171.569C213.021 172.859 213.921 173.929 215.251 174.069C216.211 174.169 216.201 172.669 215.251 172.569C214.201 172.459 214.171 170.809 214.161 170.069C214.151 168.799 213.971 167.709 213.421 166.559C212.981 165.629 212.351 164.729 212.191 163.689C212.071 162.909 212.181 161.969 212.921 161.549C213.781 161.079 213.021 159.779 212.181 160.259Z" fill="#3457E5"/>
<path d="M263.791 160.559C264.551 161.019 264.651 161.999 264.541 162.799C264.391 163.879 263.801 164.819 263.361 165.799C262.861 166.919 262.641 167.959 262.711 169.189C262.741 169.689 262.751 170.189 262.231 170.419C261.771 170.619 261.231 170.609 260.741 170.609C259.771 170.599 259.771 172.099 260.741 172.109C261.981 172.119 263.481 171.909 264.021 170.619C264.341 169.859 264.141 169.099 264.181 168.309C264.221 167.579 264.511 166.869 264.821 166.209C265.401 164.959 266.051 163.759 266.071 162.339C266.091 161.109 265.631 159.909 264.551 159.249C263.721 158.769 262.961 160.059 263.791 160.559Z" fill="#3457E5"/>
<path d="M256.761 191.239C257.261 192.499 257.761 193.769 258.261 195.029C258.401 195.389 258.771 195.689 259.181 195.549C259.531 195.439 259.861 195.019 259.701 194.629C259.201 193.369 258.701 192.099 258.201 190.839C258.061 190.479 257.691 190.179 257.281 190.319C256.931 190.429 256.611 190.849 256.761 191.239Z" fill="#3457E5"/>
<path d="M263.711 195.609C268.141 194.799 272.651 194.559 277.141 194.859C278.101 194.929 278.101 193.429 277.141 193.359C272.511 193.049 267.871 193.329 263.311 194.159C262.371 194.339 262.771 195.789 263.711 195.609Z" fill="#3457E5"/>
<path d="M236.491 229.639C223.831 233.799 213.641 244.079 209.871 256.909C207.851 263.799 207.641 271.219 209.321 278.199C210.931 284.879 214.271 290.879 220.351 294.389C225.871 297.579 232.491 298.599 238.791 298.429C246.051 298.239 253.551 296.619 259.601 292.429C264.821 288.809 268.971 283.289 269.971 276.909C270.601 272.899 270.091 268.839 270.081 264.799C270.071 261.069 270.281 257.319 270.011 253.589C269.751 250.059 269.051 246.539 267.401 243.379C265.951 240.599 263.801 238.209 261.321 236.319C255.521 231.879 248.161 230.339 240.981 230.459C238.971 230.489 236.971 230.649 234.971 230.889C234.021 230.999 234.011 232.499 234.971 232.389C242.151 231.549 249.791 231.729 256.391 235.019C262.151 237.889 266.461 242.769 267.881 249.119C268.661 252.599 268.681 256.199 268.641 259.749C268.601 263.409 268.651 267.049 268.761 270.699C268.861 274.129 268.651 277.519 267.371 280.739C266.201 283.669 264.331 286.289 262.071 288.479C257.161 293.249 250.501 295.699 243.811 296.559C237.591 297.359 231.031 297.089 225.101 294.939C218.911 292.709 214.381 288.269 212.071 282.099C209.681 275.699 209.101 268.609 210.261 261.879C212.711 247.579 223.121 235.609 236.891 231.089C237.811 230.779 237.421 229.339 236.491 229.639Z" fill="#3457E5"/>
<path d="M229.161 275.689C227.101 267.659 227.141 257.479 235.071 252.599C238.381 250.559 242.381 250.229 245.811 252.169C248.991 253.979 251.161 257.159 252.751 260.379C254.621 264.159 256.891 269.509 254.451 273.489C253.951 274.319 255.241 275.069 255.751 274.249C258.151 270.329 256.611 265.529 254.961 261.629C253.351 257.829 251.131 254.079 247.731 251.619C240.331 246.269 230.931 251.329 227.861 259.059C225.711 264.479 226.291 270.549 227.711 276.079C227.951 277.029 229.401 276.629 229.161 275.689Z" fill="#3457E5"/>
<path d="M240.781 261.789C240.781 265.829 240.781 269.869 240.781 273.919C240.781 274.889 242.281 274.889 242.281 273.919C242.281 269.879 242.281 265.839 242.281 261.789C242.281 260.829 240.781 260.829 240.781 261.789Z" fill="#3457E5"/>
<path d="M204.001 312.549C202.591 313.879 202.471 315.929 203.301 317.619C204.221 319.489 206.131 320.419 208.111 320.729C210.391 321.079 212.771 321.009 215.071 321.029C217.571 321.049 220.081 320.999 222.571 320.729C232.011 319.689 239.971 314.909 246.981 308.729C260.291 296.979 271.081 282.089 278.661 266.079C282.971 256.979 286.291 247.429 288.501 237.609C288.921 235.729 286.031 234.929 285.611 236.809C282.011 252.819 275.461 268.069 266.371 281.719C261.851 288.519 256.701 294.889 251.001 300.729C245.301 306.579 238.961 312.369 231.301 315.519C226.571 317.459 221.561 318.019 216.481 318.039C213.991 318.049 211.371 318.149 208.891 317.829C207.981 317.709 206.891 317.469 206.261 316.749C205.761 316.169 205.511 315.239 206.121 314.669C207.521 313.339 205.401 311.229 204.001 312.549Z" fill="#3457E5"/>
</svg>
