<svg width="1920" height="762" viewBox="0 0 1920 762" fill="none" xmlns="http://www.w3.org/2000/svg">
<rect y="1" width="1920" height="760" fill="#3457E5"/>
<path opacity="0.05" d="M1336 305C1195.17 305 1081 419.402 1081 560.516V761H1591V560.516C1591 419.402 1476.83 305 1336 305Z" fill="url(#paint0_linear_134_717)"/>
<g opacity="0.05">
<path d="M0 761H204.629C414.495 761 584.629 590.866 584.629 381C584.629 171.134 414.495 1 204.629 1L0 1" stroke="url(#paint1_linear_134_717)" stroke-miterlimit="10"/>
<path d="M0 731.726H204.629C298.308 731.726 386.392 695.247 452.633 629.005C518.875 562.763 555.355 474.679 555.355 381.001C555.355 287.322 518.875 199.254 452.633 133.013C386.392 66.7545 298.308 30.2751 204.629 30.2751L0 30.2751" stroke="url(#paint2_linear_134_717)" stroke-miterlimit="10"/>
<path d="M0 702.451H204.629C290.501 702.451 371.218 669.013 431.93 608.3C492.642 547.588 526.08 466.855 526.08 381C526.08 295.144 492.642 214.411 431.93 153.699C371.218 92.9869 290.501 59.5488 204.629 59.5488L0 59.5488" stroke="url(#paint3_linear_134_717)" stroke-miterlimit="10"/>
<path d="M0 673.177H204.629C282.678 673.177 356.044 642.78 411.226 587.597C466.409 532.415 496.805 459.049 496.805 381C496.805 302.967 466.409 229.586 411.226 174.403C356.044 119.221 282.678 88.824 204.629 88.824L0 88.824" stroke="url(#paint4_linear_134_717)" stroke-miterlimit="10"/>
<path d="M0 643.901H204.629C274.856 643.901 340.87 616.546 390.523 566.893C440.192 517.24 467.531 451.226 467.531 381C467.531 310.773 440.192 244.759 390.539 195.106C340.87 145.453 274.856 118.098 204.629 118.098L0 118.098" stroke="url(#paint5_linear_134_717)" stroke-miterlimit="10"/>
<path d="M0 614.627H204.629C267.033 614.627 325.696 590.33 369.819 546.206C413.958 502.067 438.256 443.404 438.256 381C438.256 318.597 413.958 259.934 369.835 215.81C325.712 171.687 267.033 147.373 204.629 147.373L0 147.373" stroke="url(#paint6_linear_134_717)" stroke-miterlimit="10"/>
<path d="M0 585.352H204.629C259.21 585.352 310.538 564.095 349.132 525.502C387.725 486.892 408.982 435.58 408.982 380.999C408.982 326.419 387.725 275.107 349.132 236.513C310.538 197.903 259.21 176.647 204.629 176.647L0 176.647" stroke="url(#paint7_linear_134_717)" stroke-miterlimit="10"/>
<path d="M0 556.078H204.629C251.403 556.078 295.364 537.863 328.428 504.799C361.492 471.735 379.707 427.758 379.707 381C379.707 334.242 361.492 290.281 328.428 257.217C295.364 224.137 251.403 205.922 204.629 205.922L0 205.922" stroke="url(#paint8_linear_134_717)" stroke-miterlimit="10"/>
<path d="M0 235.197L204.629 235.197C243.581 235.197 280.19 250.371 307.741 277.905C335.275 305.44 350.433 342.065 350.433 381.001C350.433 419.936 335.259 456.561 307.724 484.096C280.19 511.63 243.581 526.804 204.629 526.804H0" stroke="url(#paint9_linear_134_717)" stroke-miterlimit="10"/>
<path d="M321.158 381C321.158 412.161 308.993 441.468 286.923 463.489C264.772 485.608 234.408 497.529 203.117 497.529H0L0 264.471L203.084 264.471C234.375 264.471 264.707 276.376 286.874 298.446C308.977 320.467 321.158 349.806 321.158 381Z" fill="url(#paint10_linear_134_717)"/>
</g>
<defs>
<linearGradient id="paint0_linear_134_717" x1="1590.86" y1="637.815" x2="1081" y2="637.815" gradientUnits="userSpaceOnUse">
<stop stop-color="#D9E4FF"/>
<stop offset="1" stop-color="#E8EEFF" stop-opacity="0.2"/>
</linearGradient>
<linearGradient id="paint1_linear_134_717" x1="584.629" y1="380.648" x2="1.40438e-05" y2="380.648" gradientUnits="userSpaceOnUse">
<stop stop-color="#E7EDFC"/>
<stop offset="1" stop-color="#F2F5FE"/>
</linearGradient>
<linearGradient id="paint2_linear_134_717" x1="524.723" y1="380.649" x2="-2.84786e-05" y2="380.649" gradientUnits="userSpaceOnUse">
<stop stop-color="#E7EDFC"/>
<stop offset="1" stop-color="#F2F5FE"/>
</linearGradient>
<linearGradient id="paint3_linear_134_717" x1="525.444" y1="380.648" x2="-9.07544e-06" y2="380.648" gradientUnits="userSpaceOnUse">
<stop stop-color="#E7EDFC"/>
<stop offset="1" stop-color="#F2F5FE"/>
</linearGradient>
<linearGradient id="paint4_linear_134_717" x1="496.574" y1="380.648" x2="-1.03905e-05" y2="380.648" gradientUnits="userSpaceOnUse">
<stop stop-color="#E7EDFC"/>
<stop offset="1" stop-color="#F1F5FE"/>
</linearGradient>
<linearGradient id="paint5_linear_134_717" x1="467.703" y1="380.648" x2="1.14015e-05" y2="380.648" gradientUnits="userSpaceOnUse">
<stop stop-color="#E7EDFC"/>
<stop offset="1" stop-color="#F2F5FE"/>
</linearGradient>
<linearGradient id="paint6_linear_134_717" x1="438.833" y1="380.648" x2="1.12405e-06" y2="380.648" gradientUnits="userSpaceOnUse">
<stop stop-color="#E7EDFC"/>
<stop offset="1" stop-color="#F1F5FE"/>
</linearGradient>
<linearGradient id="paint7_linear_134_717" x1="408.519" y1="380.647" x2="1.1036e-05" y2="380.647" gradientUnits="userSpaceOnUse">
<stop stop-color="#E6EDFC"/>
<stop offset="1" stop-color="#F2F5FE"/>
</linearGradient>
<linearGradient id="paint8_linear_134_717" x1="379.648" y1="380.648" x2="3.58287e-06" y2="380.648" gradientUnits="userSpaceOnUse">
<stop stop-color="#E7EDFC"/>
<stop offset="1" stop-color="#F2F5FE"/>
</linearGradient>
<linearGradient id="paint9_linear_134_717" x1="319.742" y1="380.649" x2="1.63707e-06" y2="380.649" gradientUnits="userSpaceOnUse">
<stop stop-color="#E7EDFC"/>
<stop offset="1" stop-color="#F2F5FE"/>
</linearGradient>
<linearGradient id="paint10_linear_134_717" x1="320.463" y1="380.648" x2="-1.44537e-06" y2="380.648" gradientUnits="userSpaceOnUse">
<stop stop-color="#E7EDFC"/>
<stop offset="1" stop-color="#F2F5FE"/>
</linearGradient>
</defs>
</svg>
