<svg width="64" height="64" viewBox="0 0 64 64" fill="none" xmlns="http://www.w3.org/2000/svg">
<path d="M13.0898 23.9999L5.08984 18.8399L21.3098 8.17993L30.0598 13.8199L13.0898 23.9999Z" fill="white" stroke="#1A2B6B" stroke-width="2" stroke-miterlimit="10" stroke-linecap="round" stroke-linejoin="round"/>
<path d="M50.5098 23.9999L37.0898 14.5499L44.6698 8.17993L58.4498 16.0899L50.5098 23.9999Z" fill="white" stroke="#1A2B6B" stroke-width="2" stroke-miterlimit="10" stroke-linecap="round" stroke-linejoin="round"/>
<path d="M42.24 43.6401H20.31C17.93 43.6401 16 41.7101 16 39.3301V9.40009C16 7.02009 17.93 5.09009 20.31 5.09009H42.24C44.62 5.09009 46.55 7.02009 46.55 9.40009V39.3301C46.55 41.7101 44.62 43.6401 42.24 43.6401Z" fill="#3457E5"/>
<path d="M31.9998 61.82L13.0898 50.18V24L31.9998 35.64V61.82Z" fill="white" stroke="#1A2B6B" stroke-width="2" stroke-miterlimit="10" stroke-linecap="round" stroke-linejoin="round"/>
<path d="M32 61.82L50.91 50.18V24L32 35.64V61.82Z" fill="white" stroke="#1A2B6B" stroke-width="2" stroke-miterlimit="10" stroke-linecap="round" stroke-linejoin="round"/>
<path d="M13.0898 24L5.08984 29.09L23.5998 40.97L31.9998 35.64L13.0898 24Z" fill="white" stroke="#1A2B6B" stroke-width="2" stroke-miterlimit="10" stroke-linecap="round" stroke-linejoin="round"/>
<path d="M40 40.97L32 35.88L50.51 24L58.91 29.34L40 40.97Z" fill="white" stroke="#1A2B6B" stroke-width="2" stroke-miterlimit="10" stroke-linecap="round" stroke-linejoin="round"/>
<path d="M25.5903 12.8599C26.1903 13.2999 26.5303 13.9799 26.6103 14.9199H25.3203C25.2003 14.3499 24.9803 13.9599 24.6503 13.7299C24.3203 13.4799 23.8403 13.3599 23.1903 13.3599C22.6303 13.3599 22.2003 13.4399 21.9003 13.6099C21.5303 13.7999 21.3503 14.1099 21.3503 14.5399C21.3503 14.9199 21.5603 15.2299 21.9803 15.4499C22.1903 15.5699 22.6803 15.7499 23.4603 15.9799C24.6403 16.3499 25.3803 16.6199 25.6903 16.8199C26.4203 17.2699 26.7903 17.8799 26.7903 18.6599C26.7903 19.4199 26.4903 20.0199 25.8903 20.4599C25.2903 20.8899 24.4603 21.1099 23.3803 21.1099C22.3503 21.1099 21.5403 20.8999 20.9403 20.4899C20.2403 19.9899 19.8503 19.1999 19.7803 18.1199H21.0703C21.1703 18.7999 21.4003 19.2799 21.7903 19.5699C22.1403 19.8299 22.6703 19.9599 23.3803 19.9599C24.0103 19.9599 24.5203 19.8499 24.9203 19.6299C25.3003 19.4099 25.4903 19.1199 25.4903 18.7299C25.4903 18.2599 25.2203 17.8899 24.6803 17.6099C24.4803 17.5099 23.9203 17.3199 22.9803 17.0399C21.9103 16.6999 21.2603 16.4599 21.0203 16.3399C20.3703 15.9499 20.0403 15.3799 20.0403 14.6299C20.0403 13.8799 20.3503 13.2899 20.9803 12.8599C21.5803 12.4499 22.3303 12.2499 23.2403 12.2499C24.2703 12.2199 25.0403 12.4299 25.5903 12.8599Z" fill="white"/>
<path d="M28.0107 12.3899H31.1207C32.4907 12.3899 33.5307 12.7799 34.2507 13.5499C34.9207 14.2699 35.2507 15.2999 35.2507 16.6599C35.2507 17.9899 34.9107 19.0299 34.2207 19.7799C33.5007 20.5399 32.4607 20.9299 31.0907 20.9299H28.0107V12.3899ZM29.3107 13.4999V19.8099H30.8507C31.9307 19.8099 32.7307 19.5499 33.2307 19.0299C33.7207 18.5099 33.9707 17.7199 33.9707 16.6499C33.9707 15.5699 33.7307 14.7699 33.2407 14.2599C32.7407 13.7499 31.9507 13.4999 30.8707 13.4999H29.3107Z" fill="white"/>
<path d="M42.0001 12.3899H43.6501L39.8701 16.0599L44.2001 20.9199H42.4601L38.9901 16.8999L37.8801 17.9599V20.9099H36.5801V12.3799H37.8801V16.4999L42.0001 12.3899Z" fill="white"/>
</svg>
