<svg width="64" height="64" viewBox="0 0 64 64" fill="none" xmlns="http://www.w3.org/2000/svg">
<path d="M5.68945 37.77C7.91945 48.01 15.9795 56.07 26.2295 58.31" stroke="#1A2B6B" stroke-width="2" stroke-miterlimit="10" stroke-linecap="round" stroke-linejoin="round"/>
<path d="M37.7695 58.31C48.0095 56.08 56.0695 48.02 58.3095 37.77" stroke="#1A2B6B" stroke-width="2" stroke-miterlimit="10" stroke-linecap="round" stroke-linejoin="round"/>
<path d="M5.68945 26.2299C7.91945 15.9799 15.9795 7.91994 26.2295 5.68994" stroke="#1A2B6B" stroke-width="2" stroke-miterlimit="10" stroke-linecap="round" stroke-linejoin="round"/>
<path d="M37.7695 5.68994C48.0095 7.91994 56.0695 15.9799 58.3095 26.2299" stroke="#1A2B6B" stroke-width="2" stroke-miterlimit="10" stroke-linecap="round" stroke-linejoin="round"/>
<path d="M5.06969 34.8899C6.66579 34.8899 7.95969 33.596 7.95969 31.9999C7.95969 30.4038 6.66579 29.1099 5.06969 29.1099C3.47358 29.1099 2.17969 30.4038 2.17969 31.9999C2.17969 33.596 3.47358 34.8899 5.06969 34.8899Z" fill="#3457E5"/>
<path d="M58.93 34.8899C60.5261 34.8899 61.82 33.596 61.82 31.9999C61.82 30.4038 60.5261 29.1099 58.93 29.1099C57.3339 29.1099 56.04 30.4038 56.04 31.9999C56.04 33.596 57.3339 34.8899 58.93 34.8899Z" fill="#3457E5"/>
<path d="M31.9994 61.82C33.5955 61.82 34.8894 60.5261 34.8894 58.93C34.8894 57.3339 33.5955 56.04 31.9994 56.04C30.4033 56.04 29.1094 57.3339 29.1094 58.93C29.1094 60.5261 30.4033 61.82 31.9994 61.82Z" fill="#3457E5"/>
<path d="M31.9994 7.95993C33.5955 7.95993 34.8894 6.66603 34.8894 5.06993C34.8894 3.47383 33.5955 2.17993 31.9994 2.17993C30.4033 2.17993 29.1094 3.47383 29.1094 5.06993C29.1094 6.66603 30.4033 7.95993 31.9994 7.95993Z" fill="#3457E5"/>
<path d="M41.9899 26.27H22.0099C20.7199 26.27 19.6699 25.22 19.6699 23.93V21.56C19.6699 20.27 20.7199 19.22 22.0099 19.22H41.9999C43.2899 19.22 44.3399 20.27 44.3399 21.56V23.93C44.3399 25.22 43.2899 26.27 41.9899 26.27Z" stroke="#1A2B6B" stroke-width="2" stroke-miterlimit="10" stroke-linecap="round" stroke-linejoin="round"/>
<path d="M41.9899 34.1999H22.0099C20.7199 34.1999 19.6699 33.1499 19.6699 31.8599V29.4899C19.6699 28.1999 20.7199 27.1499 22.0099 27.1499H41.9999C43.2899 27.1499 44.3399 28.1999 44.3399 29.4899V31.8599C44.3399 33.1499 43.2899 34.1999 41.9899 34.1999Z" stroke="#1A2B6B" stroke-width="2" stroke-miterlimit="10" stroke-linecap="round" stroke-linejoin="round"/>
<path d="M41.9899 42.1301H22.0099C20.7199 42.1301 19.6699 41.0801 19.6699 39.7901V37.4201C19.6699 36.1301 20.7199 35.0801 22.0099 35.0801H41.9999C43.2899 35.0801 44.3399 36.1301 44.3399 37.4201V39.7901C44.3399 41.0801 43.2899 42.1301 41.9899 42.1301Z" stroke="#1A2B6B" stroke-width="2" stroke-miterlimit="10" stroke-linecap="round" stroke-linejoin="round"/>
<path d="M24.0703 43.01V44.78" stroke="#1A2B6B" stroke-width="2" stroke-miterlimit="10" stroke-linecap="round" stroke-linejoin="round"/>
<path d="M39.9297 43.01V44.78" stroke="#1A2B6B" stroke-width="2" stroke-miterlimit="10" stroke-linecap="round" stroke-linejoin="round"/>
<path d="M23.63 23.6299C24.116 23.6299 24.51 23.2359 24.51 22.7499C24.51 22.2639 24.116 21.8699 23.63 21.8699C23.144 21.8699 22.75 22.2639 22.75 22.7499C22.75 23.2359 23.144 23.6299 23.63 23.6299Z" fill="#3457E5"/>
<path d="M23.63 31.56C24.116 31.56 24.51 31.1661 24.51 30.68C24.51 30.194 24.116 29.8 23.63 29.8C23.144 29.8 22.75 30.194 22.75 30.68C22.75 31.1661 23.144 31.56 23.63 31.56Z" fill="#3457E5"/>
<path d="M23.63 39.49C24.116 39.49 24.51 39.096 24.51 38.61C24.51 38.124 24.116 37.73 23.63 37.73C23.144 37.73 22.75 38.124 22.75 38.61C22.75 39.096 23.144 39.49 23.63 39.49Z" fill="#3457E5"/>
<path d="M19.6602 44.78H44.3402" stroke="#3457E5" stroke-width="2" stroke-miterlimit="10" stroke-linecap="round" stroke-linejoin="round"/>
</svg>
