<svg width="1400" height="584" viewBox="0 0 1400 584" fill="none" xmlns="http://www.w3.org/2000/svg">
<path d="M0 460.6V195.18H15.95V140.06H60.92V275.68H152.29V237.97H205.96V117.58H302.41V268.42H382.91V222.01H435.85V172.7H721.21V42.16H779.95V296.71H798.45V251.38H888.73V166.17H903.96V112.87H923.54V79.15H960.53V112.87H979.02V169.43H1000.78V230.35L1067.68 163.45L1171.56 267.34H1250.97V242.32H1273.82V210.77H1400V460.6H0Z" fill="#EFF3F9"/>
<path d="M1005.39 436.38H832.129V198.12C832.129 192.74 836.489 188.38 841.869 188.38H1005.4C1010.78 188.38 1015.14 192.74 1015.14 198.12V426.65C1015.13 432.02 1010.77 436.38 1005.39 436.38Z" fill="white" stroke="#C8D4E8" stroke-miterlimit="10" stroke-linecap="round" stroke-linejoin="round"/>
<path d="M985.659 326.38H854.099C852.459 326.38 851.129 325.05 851.129 323.41V313.35C851.129 311.71 852.459 310.38 854.099 310.38H985.659C987.299 310.38 988.629 311.71 988.629 313.35V323.41C988.629 325.05 987.299 326.38 985.659 326.38Z" fill="#EBF0F7"/>
<path d="M985.659 351.38H854.099C852.459 351.38 851.129 350.05 851.129 348.41V338.35C851.129 336.71 852.459 335.38 854.099 335.38H985.659C987.299 335.38 988.629 336.71 988.629 338.35V348.41C988.629 350.05 987.299 351.38 985.659 351.38Z" fill="#EBF0F7"/>
<path d="M985.659 376.38H854.099C852.459 376.38 851.129 375.05 851.129 373.41V363.35C851.129 361.71 852.459 360.38 854.099 360.38H985.659C987.299 360.38 988.629 361.71 988.629 363.35V373.41C988.629 375.05 987.299 376.38 985.659 376.38Z" fill="#EBF0F7"/>
<path d="M985.659 401.38H854.099C852.459 401.38 851.129 400.05 851.129 398.41V388.35C851.129 386.71 852.459 385.38 854.099 385.38H985.659C987.299 385.38 988.629 386.71 988.629 388.35V398.41C988.629 400.05 987.299 401.38 985.659 401.38Z" fill="#EBF0F7"/>
<path d="M985.659 426.38H854.099C852.459 426.38 851.129 425.05 851.129 423.41V413.35C851.129 411.71 852.459 410.38 854.099 410.38H985.659C987.299 410.38 988.629 411.71 988.629 413.35V423.41C988.629 425.05 987.299 426.38 985.659 426.38Z" fill="#EBF0F7"/>
<path d="M981.459 291.38H915.799C911.559 291.38 908.129 287.95 908.129 283.71V223.05C908.129 218.81 911.559 215.38 915.799 215.38H981.459C985.699 215.38 989.129 218.81 989.129 223.05V283.71C989.129 287.95 985.689 291.38 981.459 291.38Z" fill="#EBF0F7"/>
<path d="M951.579 276.38H945.679C943.999 276.38 942.629 275.01 942.629 273.33V242.43C942.629 240.75 943.999 239.38 945.679 239.38H951.579C953.259 239.38 954.629 240.75 954.629 242.43V273.33C954.629 275.02 953.259 276.38 951.579 276.38Z" fill="#DDE4F1"/>
<path d="M974.079 276.38H968.179C966.499 276.38 965.129 275.01 965.129 273.33V233.43C965.129 231.75 966.499 230.38 968.179 230.38H974.079C975.759 230.38 977.129 231.75 977.129 233.43V273.33C977.129 275.02 975.759 276.38 974.079 276.38Z" fill="#CFD7E8"/>
<path d="M850.129 221.38H881.129" stroke="#C8D4E8" stroke-miterlimit="10" stroke-linecap="round" stroke-linejoin="round"/>
<path d="M851.129 244.38H882.129" stroke="#C8D4E8" stroke-miterlimit="10" stroke-linecap="round" stroke-linejoin="round"/>
<path d="M929.079 276.38H923.179C921.499 276.38 920.129 275.01 920.129 273.33V253.43C920.129 251.75 921.499 250.38 923.179 250.38H929.079C930.759 250.38 932.129 251.75 932.129 253.43V273.33C932.129 275.02 930.759 276.38 929.079 276.38Z" fill="white"/>
<path d="M913.289 475.38H589.129V260.38H918.469C921.049 260.38 923.129 262.47 923.129 265.04V465.55C923.129 470.98 918.719 475.38 913.289 475.38Z" fill="white" stroke="#C8D4E8" stroke-miterlimit="10" stroke-linecap="round" stroke-linejoin="round"/>
<path d="M923.129 301.38H589.129V260.38H918.469C921.049 260.38 923.129 262.47 923.129 265.04V301.38Z" fill="#EBF0F7" stroke="#C8D4E8" stroke-miterlimit="10" stroke-linecap="round" stroke-linejoin="round"/>
<path d="M752.129 326.38H638.129V437.38H752.129V326.38Z" fill="#EBF0F7"/>
<path d="M775.129 332.38H888.129" stroke="#C8D4E8" stroke-miterlimit="10" stroke-linecap="round" stroke-linejoin="round"/>
<path d="M775.129 364.38H888.129" stroke="#C8D4E8" stroke-miterlimit="10" stroke-linecap="round" stroke-linejoin="round"/>
<path d="M775.129 394.38H888.129" stroke="#C8D4E8" stroke-miterlimit="10" stroke-linecap="round" stroke-linejoin="round"/>
<path d="M778.129 424.38H815.129" stroke="#C8D4E8" stroke-miterlimit="10" stroke-linecap="round" stroke-linejoin="round"/>
<path d="M1272.29 494.38H1224.29V542.38H1272.29V494.38Z" stroke="#C8D4E8" stroke-miterlimit="10" stroke-linecap="round" stroke-linejoin="round"/>
<path d="M1272.29 494.38L1224.29 542.38" stroke="#C8D4E8" stroke-miterlimit="10" stroke-linecap="round" stroke-linejoin="round"/>
<path d="M1224.29 494.38L1272.29 542.38" stroke="#C8D4E8" stroke-miterlimit="10" stroke-linecap="round" stroke-linejoin="round"/>
<path d="M1272.29 446.38H1224.29V494.38H1272.29V446.38Z" stroke="#C8D4E8" stroke-miterlimit="10" stroke-linecap="round" stroke-linejoin="round"/>
<path d="M1272.29 446.38L1224.29 494.38" stroke="#C8D4E8" stroke-miterlimit="10" stroke-linecap="round" stroke-linejoin="round"/>
<path d="M1224.29 446.38L1272.29 494.38" stroke="#C8D4E8" stroke-miterlimit="10" stroke-linecap="round" stroke-linejoin="round"/>
<path d="M1272.29 398.38H1224.29V446.38H1272.29V398.38Z" stroke="#C8D4E8" stroke-miterlimit="10" stroke-linecap="round" stroke-linejoin="round"/>
<path d="M1272.29 398.38L1224.29 446.38" stroke="#C8D4E8" stroke-miterlimit="10" stroke-linecap="round" stroke-linejoin="round"/>
<path d="M1224.29 398.38L1272.29 446.38" stroke="#C8D4E8" stroke-miterlimit="10" stroke-linecap="round" stroke-linejoin="round"/>
<path d="M1272.29 350.38H1224.29V398.38H1272.29V350.38Z" stroke="#C8D4E8" stroke-miterlimit="10" stroke-linecap="round" stroke-linejoin="round"/>
<path d="M1272.29 350.38L1224.29 398.38" stroke="#C8D4E8" stroke-miterlimit="10" stroke-linecap="round" stroke-linejoin="round"/>
<path d="M1224.29 350.38L1272.29 398.38" stroke="#C8D4E8" stroke-miterlimit="10" stroke-linecap="round" stroke-linejoin="round"/>
<path d="M1272.29 302.38H1224.29V350.38H1272.29V302.38Z" stroke="#C8D4E8" stroke-miterlimit="10" stroke-linecap="round" stroke-linejoin="round"/>
<path d="M1272.29 302.38L1224.29 350.38" stroke="#C8D4E8" stroke-miterlimit="10" stroke-linecap="round" stroke-linejoin="round"/>
<path d="M1224.29 302.38L1272.29 350.38" stroke="#C8D4E8" stroke-miterlimit="10" stroke-linecap="round" stroke-linejoin="round"/>
<path d="M1272.29 254.38H1224.29V302.38H1272.29V254.38Z" stroke="#C8D4E8" stroke-miterlimit="10" stroke-linecap="round" stroke-linejoin="round"/>
<path d="M1272.29 254.38L1224.29 302.38" stroke="#C8D4E8" stroke-miterlimit="10" stroke-linecap="round" stroke-linejoin="round"/>
<path d="M1224.29 254.38L1272.29 302.38" stroke="#C8D4E8" stroke-miterlimit="10" stroke-linecap="round" stroke-linejoin="round"/>
<path d="M1272.29 206.38H1224.29V254.38H1272.29V206.38Z" stroke="#C8D4E8" stroke-miterlimit="10" stroke-linecap="round" stroke-linejoin="round"/>
<path d="M1272.29 206.38L1224.29 254.38" stroke="#C8D4E8" stroke-miterlimit="10" stroke-linecap="round" stroke-linejoin="round"/>
<path d="M1224.29 206.38L1272.29 254.38" stroke="#C8D4E8" stroke-miterlimit="10" stroke-linecap="round" stroke-linejoin="round"/>
<path d="M1272.29 158.38H1224.29V206.38H1272.29V158.38Z" stroke="#C8D4E8" stroke-miterlimit="10" stroke-linecap="round" stroke-linejoin="round"/>
<path d="M1272.29 158.38L1224.29 206.38" stroke="#C8D4E8" stroke-miterlimit="10" stroke-linecap="round" stroke-linejoin="round"/>
<path d="M1224.29 158.38L1272.29 206.38" stroke="#C8D4E8" stroke-miterlimit="10" stroke-linecap="round" stroke-linejoin="round"/>
<path d="M1320.29 158.38H1272.29V206.38H1320.29V158.38Z" stroke="#C8D4E8" stroke-miterlimit="10" stroke-linecap="round" stroke-linejoin="round"/>
<path d="M1320.29 158.38L1272.29 206.38" stroke="#C8D4E8" stroke-miterlimit="10" stroke-linecap="round" stroke-linejoin="round"/>
<path d="M1272.29 158.38L1320.29 206.38" stroke="#C8D4E8" stroke-miterlimit="10" stroke-linecap="round" stroke-linejoin="round"/>
<path d="M1224.29 158.38H1176.29V206.38H1224.29V158.38Z" stroke="#C8D4E8" stroke-miterlimit="10" stroke-linecap="round" stroke-linejoin="round"/>
<path d="M1224.29 158.38L1176.29 206.38" stroke="#C8D4E8" stroke-miterlimit="10" stroke-linecap="round" stroke-linejoin="round"/>
<path d="M1176.29 158.38L1224.29 206.38" stroke="#C8D4E8" stroke-miterlimit="10" stroke-linecap="round" stroke-linejoin="round"/>
<path d="M1176.29 158.38H1128.29V206.38H1176.29V158.38Z" stroke="#C8D4E8" stroke-miterlimit="10" stroke-linecap="round" stroke-linejoin="round"/>
<path d="M1176.29 158.38L1128.29 206.38" stroke="#C8D4E8" stroke-miterlimit="10" stroke-linecap="round" stroke-linejoin="round"/>
<path d="M1128.29 158.38L1176.29 206.38" stroke="#C8D4E8" stroke-miterlimit="10" stroke-linecap="round" stroke-linejoin="round"/>
<path d="M1128.29 158.38H1080.29V206.38H1128.29V158.38Z" stroke="#C8D4E8" stroke-miterlimit="10" stroke-linecap="round" stroke-linejoin="round"/>
<path d="M1128.29 158.38L1080.29 206.38" stroke="#C8D4E8" stroke-miterlimit="10" stroke-linecap="round" stroke-linejoin="round"/>
<path d="M1080.29 158.38L1128.29 206.38" stroke="#C8D4E8" stroke-miterlimit="10" stroke-linecap="round" stroke-linejoin="round"/>
<path d="M1080.29 206.38H1032.29L1080.29 158.38V206.38Z" stroke="#C8D4E8" stroke-miterlimit="10" stroke-linecap="round" stroke-linejoin="round"/>
<path d="M1272.29 110.38H1224.29V158.38H1272.29V110.38Z" stroke="#C8D4E8" stroke-miterlimit="10" stroke-linecap="round" stroke-linejoin="round"/>
<path d="M1272.29 110.38L1224.29 158.38" stroke="#C8D4E8" stroke-miterlimit="10" stroke-linecap="round" stroke-linejoin="round"/>
<path d="M1224.29 110.38L1272.29 158.38" stroke="#C8D4E8" stroke-miterlimit="10" stroke-linecap="round" stroke-linejoin="round"/>
<path d="M1050.29 206.38V296.38" stroke="#C8D4E8" stroke-miterlimit="10" stroke-linecap="round" stroke-linejoin="round"/>
<path d="M1071.68 221.38H1028.9C1028.01 221.38 1027.29 220.66 1027.29 219.77V215.99C1027.29 215.1 1028.01 214.38 1028.9 214.38H1071.68C1072.57 214.38 1073.29 215.1 1073.29 215.99V219.77C1073.29 220.66 1072.57 221.38 1071.68 221.38Z" fill="#CFD7E8" stroke="#C8D4E8" stroke-miterlimit="10" stroke-linecap="round" stroke-linejoin="round"/>
<path d="M1197.88 292.8L1199.3 287.19L1194.88 286.07C1194.87 284.98 1194.72 283.91 1194.42 282.88L1198.33 280.55L1195.37 275.58L1191.46 277.91C1190.7 277.16 1189.84 276.51 1188.88 275.99L1190 271.57L1184.39 270.15L1183.27 274.57C1182.18 274.57 1181.11 274.73 1180.08 275.03L1177.75 271.12L1172.78 274.08L1175.11 277.99C1174.36 278.75 1173.71 279.61 1173.19 280.57L1168.77 279.45L1167.35 285.06L1171.77 286.18C1171.77 287.27 1171.93 288.34 1172.23 289.37L1168.32 291.7L1171.28 296.67L1175.19 294.34C1175.95 295.09 1176.81 295.74 1177.77 296.26L1176.65 300.68L1182.26 302.1L1183.38 297.68C1184.47 297.68 1185.54 297.52 1186.57 297.22L1188.9 301.13L1193.87 298.17L1191.54 294.26C1192.29 293.5 1192.94 292.64 1193.46 291.68L1197.88 292.8ZM1182.06 291.12C1179.31 290.42 1177.64 287.63 1178.34 284.87C1179.04 282.12 1181.83 280.45 1184.59 281.15C1187.34 281.85 1189.01 284.64 1188.31 287.4C1187.61 290.16 1184.81 291.81 1182.06 291.12Z" fill="#CFD7E8" stroke="#C8D4E8" stroke-miterlimit="10" stroke-linecap="round" stroke-linejoin="round"/>
<path d="M1185.35 281.11L1188.87 272.83L1182.35 270.05C1182.6 268.37 1182.62 266.69 1182.4 265.04L1188.97 262.39L1185.61 254.04L1179.04 256.69C1178.06 255.35 1176.88 254.15 1175.53 253.11L1178.31 246.59L1170.03 243.07L1167.25 249.59C1165.57 249.34 1163.89 249.32 1162.24 249.54L1159.59 242.97L1151.24 246.33L1153.89 252.9C1152.55 253.88 1151.35 255.06 1150.31 256.41L1143.79 253.63L1140.27 261.91L1146.79 264.69C1146.54 266.37 1146.52 268.05 1146.74 269.7L1140.17 272.35L1143.53 280.7L1150.1 278.05C1151.08 279.39 1152.26 280.59 1153.61 281.63L1150.83 288.15L1159.11 291.67L1161.89 285.15C1163.57 285.4 1165.25 285.42 1166.9 285.2L1169.55 291.77L1177.9 288.41L1175.25 281.84C1176.59 280.86 1177.79 279.68 1178.83 278.33L1185.35 281.11ZM1161.44 274.74C1157.37 273.01 1155.48 268.31 1157.21 264.25C1158.94 260.19 1163.64 258.29 1167.7 260.02C1171.77 261.75 1173.66 266.45 1171.93 270.51C1170.2 274.57 1165.5 276.47 1161.44 274.74Z" fill="#EBF0F7" stroke="#C8D4E8" stroke-miterlimit="10" stroke-linecap="round" stroke-linejoin="round"/>
<path d="M923.219 198.38H883.039C881.429 198.38 880.129 197.08 880.129 195.47V170.29C880.129 168.68 881.429 167.38 883.039 167.38H923.219C924.829 167.38 926.129 168.68 926.129 170.29V195.47C926.129 197.08 924.819 198.38 923.219 198.38Z" fill="#EBF0F7" stroke="#C8D4E8" stroke-miterlimit="10" stroke-linecap="round" stroke-linejoin="round"/>
<path d="M930.939 173.38H875.309C874.099 173.38 873.129 172.4 873.129 171.2V164.57C873.129 163.36 874.109 162.39 875.309 162.39H930.939C932.149 162.39 933.119 163.37 933.119 164.57V171.2C933.129 172.4 932.149 173.38 930.939 173.38Z" fill="white" stroke="#C8D4E8" stroke-miterlimit="10" stroke-linecap="round" stroke-linejoin="round"/>
<path d="M903.129 122.88V198.38" stroke="#C8D4E8" stroke-miterlimit="10" stroke-linecap="round" stroke-linejoin="round"/>
<path d="M896.629 149.38C900.219 149.38 903.129 152.29 903.129 155.88V162.38H896.629C893.039 162.38 890.129 159.47 890.129 155.88C890.129 152.29 893.039 149.38 896.629 149.38Z" stroke="#C8D4E8" stroke-miterlimit="10" stroke-linecap="round" stroke-linejoin="round"/>
<path d="M909.629 149.38C913.219 149.38 916.129 152.29 916.129 155.88C916.129 159.47 913.219 162.38 909.629 162.38H903.129V155.88C903.129 152.29 906.039 149.38 909.629 149.38Z" stroke="#C8D4E8" stroke-miterlimit="10" stroke-linecap="round" stroke-linejoin="round"/>
<path d="M923.129 96.38C923.129 109.38 914.179 122.38 903.129 122.38C892.079 122.38 883.129 109.38 883.129 96.38C883.129 85.33 892.079 76.38 903.129 76.38C914.169 76.38 923.129 85.34 923.129 96.38Z" fill="#EBF0F7" stroke="#C8D4E8" stroke-miterlimit="10" stroke-linecap="round" stroke-linejoin="round"/>
<path d="M301.629 215.07L367.539 94.37L403.709 119.41L363.999 215.07H301.629Z" stroke="#C8D4E8" stroke-miterlimit="10" stroke-linecap="round" stroke-linejoin="round"/>
<path d="M380.117 85.58L505.387 46.36L513.797 83.42L403.707 119.41L380.117 85.58Z" stroke="#C8D4E8" stroke-miterlimit="10" stroke-linecap="round" stroke-linejoin="round"/>
<path d="M525.529 54.49L579.059 117.49L555.439 135.87L509.629 83.88L525.529 54.49Z" stroke="#C8D4E8" stroke-miterlimit="10" stroke-linecap="round" stroke-linejoin="round"/>
<path d="M566.629 140.88V200.88" stroke="#C8D4E8" stroke-miterlimit="10" stroke-linecap="round" stroke-linejoin="round"/>
<path d="M281.629 214.88L362.629 77.88L521.629 35.88L586.129 113.38L574.629 120.94" stroke="#C8D4E8" stroke-miterlimit="10" stroke-linecap="round" stroke-linejoin="round"/>
<path d="M521.629 35.88L517.129 49.07" stroke="#C8D4E8" stroke-miterlimit="10" stroke-linecap="round" stroke-linejoin="round"/>
<path d="M362.629 77.88L374.129 92.38" stroke="#C8D4E8" stroke-miterlimit="10" stroke-linecap="round" stroke-linejoin="round"/>
<path d="M364 215.07L330.23 162.68L389.97 152.5L367.54 94.37L431.76 110.24L441.26 66.44L485.23 92.38L498.88 48.4L524.02 52.49L519.58 95.18L556.63 92.38L551.63 131.54" stroke="#C8D4E8" stroke-miterlimit="10" stroke-linecap="round" stroke-linejoin="round"/>
<path d="M170.629 256.88H158.629V276.88H170.629V256.88Z" fill="white" stroke="#C8D4E8" stroke-miterlimit="10" stroke-linecap="round" stroke-linejoin="round"/>
<path d="M174.707 260.88H154.537C152.927 260.88 151.617 259.57 151.617 257.96V248.79C151.617 247.18 152.927 245.87 154.537 245.87H174.707C176.317 245.87 177.627 247.18 177.627 248.79V257.96C177.627 259.58 176.317 260.88 174.707 260.88Z" fill="white" stroke="#C8D4E8" stroke-miterlimit="10" stroke-linecap="round" stroke-linejoin="round"/>
<path d="M232.629 387.88H127.629L145.099 276.27C145.409 274.32 147.079 272.88 149.059 272.88H228.629C230.839 272.88 232.639 274.67 232.639 276.89V387.88H232.629Z" fill="#CFD7E8" stroke="#C8D4E8" stroke-miterlimit="10" stroke-linecap="round" stroke-linejoin="round"/>
<path d="M143.117 288.88H232.617V276.89C232.617 274.68 230.827 272.88 228.607 272.88H149.037C147.067 272.88 145.387 274.32 145.077 276.27L143.117 288.88Z" fill="white" stroke="#C8D4E8" stroke-miterlimit="10" stroke-linecap="round" stroke-linejoin="round"/>
<path d="M312.629 362.88H227.629V240.09C227.629 236.66 230.409 233.88 233.839 233.88H312.629V362.88Z" fill="#EBF0F7" stroke="#C8D4E8" stroke-miterlimit="10" stroke-linecap="round" stroke-linejoin="round"/>
<path d="M138.629 383.88L195.579 352.04H239.419V383.58L138.629 383.88Z" fill="#EBF0F7" stroke="#C8D4E8" stroke-miterlimit="10" stroke-linecap="round" stroke-linejoin="round"/>
<path d="M312.629 391.88H190.629V351.25C190.629 348.29 193.029 345.88 195.999 345.88H312.629V391.88Z" fill="white" stroke="#C8D4E8" stroke-miterlimit="10" stroke-linecap="round" stroke-linejoin="round"/>
<path d="M312.629 403.88H124.629V381.77C124.629 379.62 126.369 377.88 128.519 377.88H312.629V403.88Z" fill="white" stroke="#C8D4E8" stroke-miterlimit="10" stroke-linecap="round" stroke-linejoin="round"/>
<path d="M312.629 477.88H101.629C80.0889 477.88 62.6289 460.42 62.6289 438.88C62.6289 417.34 80.0889 399.88 101.629 399.88H312.629V477.88Z" fill="white" stroke="#C8D4E8" stroke-miterlimit="10" stroke-linecap="round" stroke-linejoin="round"/>
<path d="M312.627 461.38H104.677C92.7672 461.38 83.1172 451.73 83.1172 439.82V437.94C83.1172 426.03 92.7672 416.38 104.677 416.38H312.617V461.38H312.627Z" fill="#CFD7E8" stroke="#C8D4E8" stroke-miterlimit="10" stroke-linecap="round" stroke-linejoin="round"/>
<path d="M106.629 458.38C117.398 458.38 126.129 449.65 126.129 438.88C126.129 428.11 117.398 419.38 106.629 419.38C95.8594 419.38 87.1289 428.11 87.1289 438.88C87.1289 449.65 95.8594 458.38 106.629 458.38Z" fill="#EBF0F7" stroke="#C8D4E8" stroke-miterlimit="10" stroke-linecap="round" stroke-linejoin="round"/>
<path d="M151.629 458.38C162.398 458.38 171.129 449.65 171.129 438.88C171.129 428.11 162.398 419.38 151.629 419.38C140.859 419.38 132.129 428.11 132.129 438.88C132.129 449.65 140.859 458.38 151.629 458.38Z" fill="#EBF0F7" stroke="#C8D4E8" stroke-miterlimit="10" stroke-linecap="round" stroke-linejoin="round"/>
<path d="M196.629 458.38C207.398 458.38 216.129 449.65 216.129 438.88C216.129 428.11 207.398 419.38 196.629 419.38C185.859 419.38 177.129 428.11 177.129 438.88C177.129 449.65 185.859 458.38 196.629 458.38Z" fill="#EBF0F7" stroke="#C8D4E8" stroke-miterlimit="10" stroke-linecap="round" stroke-linejoin="round"/>
<path d="M241.629 458.38C252.398 458.38 261.129 449.65 261.129 438.88C261.129 428.11 252.398 419.38 241.629 419.38C230.859 419.38 222.129 428.11 222.129 438.88C222.129 449.65 230.859 458.38 241.629 458.38Z" fill="#EBF0F7" stroke="#C8D4E8" stroke-miterlimit="10" stroke-linecap="round" stroke-linejoin="round"/>
<path d="M622.629 472.88H244.629V217.82C244.629 212.88 248.629 208.88 253.569 208.88H613.689C618.629 208.88 622.629 212.88 622.629 217.82V472.88V472.88Z" fill="#EBF0F7" stroke="#C8D4E8" stroke-miterlimit="10" stroke-linecap="round" stroke-linejoin="round"/>
<path d="M604.629 472.88H262.629V234.92C262.629 232.14 264.889 229.88 267.669 229.88H599.589C602.369 229.88 604.629 232.14 604.629 234.92V472.88Z" fill="white" stroke="#C8D4E8" stroke-miterlimit="10" stroke-linecap="round" stroke-linejoin="round"/>
<path d="M574.629 472.88H292.629V257.57C292.629 255.54 294.279 253.89 296.309 253.89H570.939C572.969 253.89 574.619 255.54 574.619 257.57V472.88H574.629Z" fill="white" stroke="#C8D4E8" stroke-miterlimit="10" stroke-linecap="round" stroke-linejoin="round"/>
<path d="M380.629 304.88H317.629V472.88H380.629V304.88Z" fill="#DDE4F1"/>
<path d="M547.629 305.88H393.629V327.88H547.629V305.88Z" fill="#EBF0F7"/>
<path d="M547.629 370.88H393.629V450.88H547.629V370.88Z" fill="#EBF0F7"/>
<path d="M547.629 347.88H393.629V352.88H547.629V347.88Z" fill="#EBF0F7"/>
<path d="M574.629 287.91H292.629V257.53C292.629 255.5 294.279 253.85 296.309 253.85H570.939C572.969 253.85 574.619 255.5 574.619 257.53V287.91H574.629Z" fill="#EBF0F7" stroke="#C8D4E8" stroke-miterlimit="10" stroke-linecap="round" stroke-linejoin="round"/>
<path d="M625.917 499.88H241.317C224.917 499.88 211.617 486.58 211.617 470.18V468.61C211.617 464.34 215.077 460.88 219.347 460.88H647.897C652.167 460.88 655.627 464.34 655.627 468.61V470.18C655.627 486.58 642.327 499.88 625.917 499.88Z" fill="white" stroke="#C8D4E8" stroke-miterlimit="10" stroke-linecap="round" stroke-linejoin="round"/>
<path d="M381.129 460.88H464.129C464.129 466.96 459.209 471.88 453.129 471.88H392.129C386.049 471.88 381.129 466.96 381.129 460.88Z" fill="#DDE4F1"/>
<path d="M325.129 276.38C327.338 276.38 329.129 274.589 329.129 272.38C329.129 270.171 327.338 268.38 325.129 268.38C322.92 268.38 321.129 270.171 321.129 272.38C321.129 274.589 322.92 276.38 325.129 276.38Z" fill="#CFD7E8"/>
<path d="M343.129 276.38C345.338 276.38 347.129 274.589 347.129 272.38C347.129 270.171 345.338 268.38 343.129 268.38C340.92 268.38 339.129 270.171 339.129 272.38C339.129 274.589 340.92 276.38 343.129 276.38Z" fill="white"/>
<path d="M361.129 276.38C363.338 276.38 365.129 274.589 365.129 272.38C365.129 270.171 363.338 268.38 361.129 268.38C358.92 268.38 357.129 270.171 357.129 272.38C357.129 274.589 358.92 276.38 361.129 276.38Z" fill="#CFD7E8" stroke="#C8D4E8" stroke-miterlimit="10" stroke-linecap="round" stroke-linejoin="round"/>
<path d="M567.129 218.88V278.88" stroke="#C8D4E8" stroke-miterlimit="10" stroke-linecap="round" stroke-linejoin="round"/>
<path d="M566.629 220.88C572.152 220.88 576.629 216.403 576.629 210.88C576.629 205.357 572.152 200.88 566.629 200.88C561.106 200.88 556.629 205.357 556.629 210.88C556.629 216.403 561.106 220.88 566.629 220.88Z" fill="#CFD7E8" stroke="#C8D4E8" stroke-miterlimit="10" stroke-linecap="round" stroke-linejoin="round"/>
<path d="M385.629 128.88C397.779 128.88 407.629 119.03 407.629 106.88C407.629 94.7297 397.779 84.88 385.629 84.88C373.479 84.88 363.629 94.7297 363.629 106.88C363.629 119.03 373.479 128.88 385.629 128.88Z" fill="#EBF0F7" stroke="#C8D4E8" stroke-miterlimit="10" stroke-linecap="round" stroke-linejoin="round"/>
<path d="M509.629 83.88C520.122 83.88 528.629 75.3734 528.629 64.88C528.629 54.3866 520.122 45.88 509.629 45.88C499.135 45.88 490.629 54.3866 490.629 64.88C490.629 75.3734 499.135 83.88 509.629 83.88Z" fill="#EBF0F7" stroke="#C8D4E8" stroke-miterlimit="10" stroke-linecap="round" stroke-linejoin="round"/>
<path d="M566.629 140.88C574.913 140.88 581.629 134.164 581.629 125.88C581.629 117.596 574.913 110.88 566.629 110.88C558.345 110.88 551.629 117.596 551.629 125.88C551.629 134.164 558.345 140.88 566.629 140.88Z" fill="#EBF0F7" stroke="#C8D4E8" stroke-miterlimit="10" stroke-linecap="round" stroke-linejoin="round"/>
<path d="M362.629 83.38C365.666 83.38 368.129 80.9176 368.129 77.88C368.129 74.8424 365.666 72.38 362.629 72.38C359.591 72.38 357.129 74.8424 357.129 77.88C357.129 80.9176 359.591 83.38 362.629 83.38Z" fill="#EBF0F7" stroke="#C8D4E8" stroke-miterlimit="10" stroke-linecap="round" stroke-linejoin="round"/>
<path d="M521.629 40.38C524.114 40.38 526.129 38.3653 526.129 35.88C526.129 33.3947 524.114 31.38 521.629 31.38C519.144 31.38 517.129 33.3947 517.129 35.88C517.129 38.3653 519.144 40.38 521.629 40.38Z" fill="#EBF0F7" stroke="#C8D4E8" stroke-miterlimit="10" stroke-linecap="round" stroke-linejoin="round"/>
<path d="M586.129 117.38C588.338 117.38 590.129 115.589 590.129 113.38C590.129 111.171 588.338 109.38 586.129 109.38C583.92 109.38 582.129 111.171 582.129 113.38C582.129 115.589 583.92 117.38 586.129 117.38Z" fill="#EBF0F7" stroke="#C8D4E8" stroke-miterlimit="10" stroke-linecap="round" stroke-linejoin="round"/>
<path d="M120.911 471.56L158.791 472.66C156.111 492.54 149.211 507.76 138.111 518.31C127.011 528.86 112.611 534.14 94.9306 534.14C76.5106 534.14 61.2306 528.16 49.1006 516.21C36.9606 504.26 30.8906 489.25 30.8906 471.2C30.8906 453.03 37.1106 437.81 49.5506 425.55C61.9906 413.29 77.4206 407.16 95.8406 407.16C111.451 407.16 124.871 411.73 136.091 420.88C147.311 430.03 154.751 443.2 158.411 460.4L119.621 463.14C115.351 449.72 107.121 443.01 94.9206 443.01C87.2406 443.01 80.8606 445.63 75.8006 450.88C70.7406 456.13 68.2106 462.9 68.2106 471.19C68.2106 479.12 70.6806 485.62 75.6206 490.68C80.5606 495.74 86.8106 498.27 94.3706 498.27C110.121 498.28 118.961 489.37 120.911 471.56Z" fill="#0539DB"/>
<path d="M110.91 471.56H120.91L128.7 476.23L115.69 477.25L110.91 471.56Z" fill="#0539DB"/>
<path d="M109.629 463.14H119.629L125.539 455.52L112.279 454.63L109.629 463.14Z" fill="#0539DB"/>
<path d="M110.911 471.56L148.791 472.66C146.111 492.54 139.211 507.76 128.111 518.31C117.011 528.86 102.611 534.14 84.9306 534.14C66.5106 534.14 51.2306 528.16 39.1006 516.21C26.9606 504.26 20.8906 489.25 20.8906 471.2C20.8906 453.03 27.1106 437.81 39.5506 425.55C51.9906 413.29 67.4206 407.16 85.8406 407.16C101.451 407.16 114.871 411.73 126.091 420.88C137.311 430.03 144.751 443.2 148.411 460.4L109.621 463.14C105.351 449.72 97.1206 443.01 84.9206 443.01C77.2406 443.01 70.8606 445.63 65.8006 450.88C60.7406 456.13 58.2106 462.9 58.2106 471.19C58.2106 479.12 60.6806 485.62 65.6206 490.68C70.5606 495.74 76.8106 498.27 84.3706 498.27C100.121 498.28 108.961 489.37 110.911 471.56Z" fill="#3457E5"/>
<path d="M244.372 407.16C255.832 407.16 266.512 410 276.392 415.67C286.272 421.34 294.082 429.09 299.812 438.91C305.542 448.73 308.412 459.31 308.412 470.66C308.412 482 305.542 492.59 299.812 502.41C294.082 512.23 286.272 519.98 276.392 525.65C266.512 531.32 255.832 534.16 244.372 534.16C232.902 534.16 222.232 531.32 212.352 525.65C202.472 519.98 194.662 512.23 188.932 502.41C183.192 492.59 180.332 482.01 180.332 470.66C180.332 459.32 183.192 448.74 188.932 438.91C194.662 429.09 202.472 421.35 212.352 415.67C222.232 409.99 232.912 407.16 244.372 407.16ZM244.192 498.64C252.002 498.64 258.652 495.89 264.132 490.41C269.622 484.92 272.362 478.33 272.362 470.65C272.362 462.97 269.582 456.35 264.032 450.8C258.482 445.25 251.862 442.47 244.182 442.47C236.502 442.47 229.882 445.25 224.332 450.8C218.782 456.35 216.002 462.97 216.002 470.65C216.002 478.33 218.742 484.92 224.232 490.41C229.722 495.9 236.382 498.64 244.192 498.64Z" fill="#0539DB"/>
<path d="M234.372 407.16C245.832 407.16 256.512 410 266.392 415.67C276.272 421.34 284.082 429.09 289.812 438.91C295.542 448.73 298.412 459.31 298.412 470.66C298.412 482 295.542 492.59 289.812 502.41C284.082 512.23 276.272 519.98 266.392 525.65C256.512 531.32 245.832 534.16 234.372 534.16C222.902 534.16 212.232 531.32 202.352 525.65C192.472 519.98 184.662 512.23 178.932 502.41C173.192 492.59 170.332 482.01 170.332 470.66C170.332 459.32 173.192 448.74 178.932 438.91C184.662 429.09 192.472 421.35 202.352 415.67C212.232 409.99 222.912 407.16 234.372 407.16ZM234.192 498.64C242.002 498.64 248.652 495.89 254.132 490.41C259.622 484.92 262.362 478.33 262.362 470.65C262.362 462.97 259.582 456.35 254.032 450.8C248.482 445.25 241.862 442.47 234.182 442.47C226.502 442.47 219.882 445.25 214.332 450.8C208.782 456.35 206.002 462.97 206.002 470.65C206.002 478.33 208.742 484.92 214.232 490.41C219.722 495.9 226.382 498.64 234.192 498.64Z" fill="#3457E5"/>
<path d="M333.832 534.14V446.13C333.832 435.27 337.152 426.4 343.802 419.51C350.452 412.62 359.022 409.17 369.512 409.17C382.072 409.17 391.712 414.91 398.422 426.37C402.082 420.39 406.322 416.03 411.142 413.29C415.962 410.54 421.902 409.17 428.982 409.17C439.962 409.17 448.382 412.62 454.232 419.51C460.092 426.4 463.012 436.38 463.012 449.43V534.15H426.602V454.74C426.602 451.2 426.292 448.7 425.682 447.24C425.072 445.78 423.852 445.04 422.022 445.04C418.362 445.04 416.532 448.09 416.532 454.19V534.15H380.302V454.74C380.302 451.33 379.992 448.86 379.382 447.33C378.772 445.81 377.492 445.04 375.542 445.04C372.002 445.04 370.232 448.27 370.232 454.74V534.15H333.832V534.14Z" fill="#0539DB"/>
<path d="M323.832 534.14V446.13C323.832 435.27 327.152 426.4 333.802 419.51C340.452 412.62 349.022 409.17 359.512 409.17C372.072 409.17 381.712 414.91 388.422 426.37C392.082 420.39 396.322 416.03 401.142 413.29C405.962 410.54 411.902 409.17 418.982 409.17C429.962 409.17 438.382 412.62 444.232 419.51C450.092 426.4 453.012 436.38 453.012 449.43V534.15H416.602V454.74C416.602 451.2 416.292 448.7 415.682 447.24C415.072 445.78 413.852 445.04 412.022 445.04C408.362 445.04 406.532 448.09 406.532 454.19V534.15H370.302V454.74C370.302 451.33 369.992 448.86 369.382 447.33C368.772 445.81 367.492 445.04 365.542 445.04C362.002 445.04 360.232 448.27 360.232 454.74V534.15H323.832V534.14Z" fill="#3457E5"/>
<path d="M533.949 412.1V534.14H497.719V412.1H533.949Z" fill="#0539DB"/>
<path d="M523.949 412.1V534.14H487.719V412.1H523.949Z" fill="#3457E5"/>
<path d="M569.681 412.56L536.601 340.57C530.841 328.05 529.991 316.26 534.041 305.2C538.091 294.15 546.431 285.71 559.071 279.91C571.481 274.21 582.711 273.51 592.751 277.83C602.791 282.15 610.961 291.18 617.281 304.92L649.831 375.75L616.911 390.88L584.361 320.05C581.251 313.29 577.261 311.03 572.381 313.27C567.831 315.36 567.121 319.79 570.221 326.54L602.771 397.37L569.681 412.56Z" fill="#0539DB"/>
<path d="M560.591 416.73L527.511 344.74C521.751 332.22 520.901 320.43 524.951 309.37C529.001 298.32 537.341 289.88 549.981 284.08C562.391 278.38 573.621 277.68 583.661 282C593.701 286.32 601.871 295.35 608.191 309.09L640.741 379.92L607.821 395.05L575.271 324.22C572.161 317.46 568.171 315.2 563.291 317.44C558.741 319.53 558.031 323.96 561.131 330.71L593.681 401.54L560.591 416.73Z" fill="#3457E5"/>
<path d="M747.863 467.69V501.37C747.863 502.99 749.173 504.3 750.793 504.3H854.633C856.253 504.3 857.563 502.99 857.563 501.37V457.2C857.563 456.58 857.413 455.98 857.133 455.43L833.073 409.18C832.453 407.98 831.213 407.23 829.863 407.23H790.013C788.013 407.23 786.393 408.85 786.393 410.85V464.76H750.803C749.173 464.76 747.863 466.07 747.863 467.69Z" fill="#EBF0F7" stroke="#C8D4E8" stroke-miterlimit="10" stroke-linecap="round" stroke-linejoin="round"/>
<path d="M857.552 458.62H828.652C826.852 458.62 825.402 460.08 825.402 461.87V474.22C825.402 477.99 822.352 481.04 818.582 481.04C817.432 481.04 816.312 480.75 815.302 480.2L813.322 479.11L786.372 464.76H750.782C749.162 464.76 747.852 466.07 747.852 467.69V501.37C747.852 502.99 749.162 504.3 750.782 504.3H854.622C856.242 504.3 857.552 502.99 857.552 501.37V458.62V458.62Z" fill="white" stroke="#C8D4E8" stroke-miterlimit="10" stroke-linecap="round" stroke-linejoin="round"/>
<path d="M832.162 441.87L824.783 449.25C824.103 449.93 823.002 449.93 822.322 449.25C821.642 448.57 821.642 447.47 822.322 446.79L829.703 439.41C830.383 438.73 831.482 438.73 832.162 439.41C832.842 440.09 832.842 441.19 832.162 441.87Z" fill="#CFD7E8" stroke="#C8D4E8" stroke-miterlimit="10" stroke-linecap="round" stroke-linejoin="round"/>
<path d="M829.285 444.742L827.645 446.382L835.84 454.577L837.48 452.937L829.285 444.742Z" fill="#CFD7E8" stroke="#C8D4E8" stroke-miterlimit="10" stroke-linecap="round" stroke-linejoin="round"/>
<path d="M851.972 445.53H837.952C836.602 445.53 835.512 446.62 835.512 447.97V456.32C835.512 459.17 837.822 461.47 840.662 461.47H857.562V457.2C857.562 456.58 857.412 455.98 857.132 455.43L851.972 445.53Z" fill="#CFD7E8" stroke="#C8D4E8" stroke-miterlimit="10" stroke-linecap="round" stroke-linejoin="round"/>
<path d="M811.611 467.69H798.041C797.091 467.69 796.331 466.92 796.331 465.98V458.84C796.331 457.89 795.561 457.13 794.621 457.13H788.081C787.131 457.13 786.371 457.9 786.371 458.84V464.76V477.4C786.371 478.35 787.141 479.11 788.081 479.11H811.601C812.551 479.11 813.311 478.34 813.311 477.4V469.4C813.321 468.45 812.551 467.69 811.611 467.69Z" fill="#CFD7E8" stroke="#C8D4E8" stroke-miterlimit="10" stroke-linecap="round" stroke-linejoin="round"/>
<path d="M861.031 496.55H857.551V397.42C857.551 396.46 858.331 395.68 859.291 395.68C860.251 395.68 861.031 396.46 861.031 397.42V496.55Z" fill="#CFD7E8" stroke="#C8D4E8" stroke-miterlimit="10" stroke-linecap="round" stroke-linejoin="round"/>
<path d="M858.012 495.99V493.63C858.012 493.32 858.262 493.07 858.572 493.07H902.652C903.612 493.07 904.392 493.85 904.392 494.81C904.392 495.77 903.612 496.55 902.652 496.55H858.572C858.262 496.55 858.012 496.29 858.012 495.99Z" fill="#CFD7E8" stroke="#C8D4E8" stroke-miterlimit="10" stroke-linecap="round" stroke-linejoin="round"/>
<path d="M776.271 518.57C784.274 518.57 790.761 512.083 790.761 504.08C790.761 496.077 784.274 489.59 776.271 489.59C768.269 489.59 761.781 496.077 761.781 504.08C761.781 512.083 768.269 518.57 776.271 518.57Z" fill="white" stroke="#C8D4E8" stroke-miterlimit="10" stroke-linecap="round" stroke-linejoin="round"/>
<path d="M776.271 510.46C779.794 510.46 782.651 507.604 782.651 504.08C782.651 500.556 779.794 497.7 776.271 497.7C772.747 497.7 769.891 500.556 769.891 504.08C769.891 507.604 772.747 510.46 776.271 510.46Z" fill="#CFD7E8" stroke="#C8D4E8" stroke-miterlimit="10" stroke-linecap="round" stroke-linejoin="round"/>
<path d="M835.4 518.57C843.403 518.57 849.89 512.083 849.89 504.08C849.89 496.077 843.403 489.59 835.4 489.59C827.398 489.59 820.91 496.077 820.91 504.08C820.91 512.083 827.398 518.57 835.4 518.57Z" fill="white" stroke="#C8D4E8" stroke-miterlimit="10" stroke-linecap="round" stroke-linejoin="round"/>
<path d="M835.403 510.46C838.927 510.46 841.783 507.604 841.783 504.08C841.783 500.556 838.927 497.7 835.403 497.7C831.88 497.7 829.023 500.556 829.023 504.08C829.023 507.604 831.88 510.46 835.403 510.46Z" fill="#CFD7E8" stroke="#C8D4E8" stroke-miterlimit="10" stroke-linecap="round" stroke-linejoin="round"/>
<path d="M715.43 465.43H750.01C757.57 474.82 761.35 484.7 761.35 495.07C761.35 506.54 756.99 516.33 748.27 524.44C739.55 532.55 728.72 536.61 715.79 536.61C705.42 536.61 695.57 533.84 686.24 528.28C676.91 522.73 669.59 514.95 664.28 504.95C658.97 494.95 656.32 484.21 656.32 472.75C656.32 461.16 659 450.46 664.37 440.64C669.74 430.82 677.21 423.2 686.78 417.77C696.35 412.34 706.57 409.63 717.43 409.63C724.63 409.63 731.52 410.85 738.11 413.29V449.52C732.26 446.84 726.64 445.49 721.28 445.49C713.11 445.49 706.43 448.36 701.24 454.09C696.05 459.83 693.46 466.59 693.46 474.4C693.46 482.08 695.96 488.52 700.96 493.7C705.96 498.89 712.73 501.48 721.27 501.48C726.76 501.48 729.5 499.9 729.5 496.72C729.5 494.4 727.67 493.24 724.01 493.24H715.41V465.43H715.43Z" fill="#0539DB"/>
<path d="M705.43 465.43H740.01C747.57 474.82 751.35 484.7 751.35 495.07C751.35 506.54 746.99 516.33 738.27 524.44C729.55 532.55 718.72 536.61 705.79 536.61C695.42 536.61 685.57 533.84 676.24 528.28C666.91 522.73 659.59 514.95 654.28 504.95C648.97 494.95 646.32 484.21 646.32 472.75C646.32 461.16 649 450.46 654.37 440.64C659.74 430.82 667.21 423.2 676.78 417.77C686.35 412.34 696.57 409.63 707.43 409.63C714.63 409.63 721.52 410.85 728.11 413.29V449.52C722.26 446.84 716.64 445.49 711.28 445.49C703.11 445.49 696.43 448.36 691.24 454.09C686.05 459.83 683.46 466.59 683.46 474.4C683.46 482.08 685.96 488.52 690.96 493.7C695.96 498.89 702.73 501.48 711.27 501.48C716.76 501.48 719.5 499.9 719.5 496.72C719.5 494.4 717.67 493.24 714.01 493.24H705.41V465.43H705.43Z" fill="#3457E5"/>
<path d="M1055.29 295.65C1066.75 295.65 1077.43 298.49 1087.31 304.16C1097.19 309.83 1105 317.58 1110.73 327.4C1116.46 337.22 1119.33 347.8 1119.33 359.15C1119.33 370.49 1116.46 381.08 1110.73 390.9C1104.99 400.72 1097.19 408.47 1087.31 414.14C1077.43 419.81 1066.75 422.65 1055.29 422.65C1043.82 422.65 1033.15 419.81 1023.27 414.14C1013.39 408.47 1005.58 400.72 999.85 390.9C994.11 381.08 991.25 370.5 991.25 359.15C991.25 347.81 994.11 337.23 999.85 327.4C1005.58 317.58 1013.39 309.84 1023.27 304.16C1033.15 298.49 1043.82 295.65 1055.29 295.65ZM1055.11 387.14C1062.91 387.14 1069.56 384.39 1075.05 378.91C1080.54 373.43 1083.28 366.83 1083.28 359.15C1083.28 351.47 1080.5 344.85 1074.95 339.3C1069.4 333.75 1062.78 330.97 1055.1 330.97C1047.41 330.97 1040.8 333.75 1035.25 339.3C1029.7 344.85 1026.92 351.47 1026.92 359.15C1026.92 366.83 1029.66 373.42 1035.15 378.91C1040.64 384.4 1047.3 387.14 1055.11 387.14Z" fill="#0539DB"/>
<path d="M1045.29 295.65C1056.75 295.65 1067.43 298.49 1077.31 304.16C1087.19 309.83 1095 317.58 1100.73 327.4C1106.46 337.22 1109.33 347.8 1109.33 359.15C1109.33 370.49 1106.46 381.08 1100.73 390.9C1094.99 400.72 1087.19 408.47 1077.31 414.14C1067.43 419.81 1056.75 422.65 1045.29 422.65C1033.82 422.65 1023.15 419.81 1013.27 414.14C1003.39 408.47 995.58 400.72 989.85 390.9C984.11 381.08 981.25 370.5 981.25 359.15C981.25 347.81 984.11 337.23 989.85 327.4C995.58 317.58 1003.39 309.84 1013.27 304.16C1023.15 298.49 1033.82 295.65 1045.29 295.65ZM1045.11 387.14C1052.91 387.14 1059.56 384.39 1065.05 378.91C1070.54 373.43 1073.28 366.83 1073.28 359.15C1073.28 351.47 1070.5 344.85 1064.95 339.3C1059.4 333.75 1052.78 330.97 1045.1 330.97C1037.41 330.97 1030.8 333.75 1025.25 339.3C1019.7 344.85 1016.92 351.47 1016.92 359.15C1016.92 366.83 1019.66 373.42 1025.15 378.91C1030.64 384.4 1037.3 387.14 1045.11 387.14Z" fill="#3457E5"/>
<path d="M1198.09 417.13C1209.55 417.13 1220.23 419.97 1230.11 425.64C1239.99 431.31 1247.8 439.06 1253.53 448.88C1259.26 458.7 1262.13 469.28 1262.13 480.63C1262.13 491.97 1259.26 502.56 1253.53 512.38C1247.79 522.2 1239.99 529.95 1230.11 535.62C1220.23 541.29 1209.55 544.13 1198.09 544.13C1186.62 544.13 1175.95 541.29 1166.07 535.62C1156.19 529.95 1148.38 522.2 1142.65 512.38C1136.91 502.56 1134.05 491.98 1134.05 480.63C1134.05 469.29 1136.91 458.71 1142.65 448.88C1148.38 439.06 1156.19 431.32 1166.07 425.64C1175.95 419.96 1186.62 417.13 1198.09 417.13ZM1197.91 508.61C1205.71 508.61 1212.36 505.86 1217.85 500.38C1223.34 494.9 1226.08 488.3 1226.08 480.62C1226.08 472.94 1223.3 466.32 1217.75 460.77C1212.2 455.22 1205.58 452.44 1197.9 452.44C1190.21 452.44 1183.6 455.22 1178.05 460.77C1172.5 466.32 1169.72 472.94 1169.72 480.62C1169.72 488.3 1172.46 494.89 1177.95 500.38C1183.44 505.87 1190.1 508.61 1197.91 508.61Z" fill="#CFD7E8" stroke="#C8D4E8" stroke-miterlimit="10" stroke-linecap="round" stroke-linejoin="round"/>
<path d="M1188.09 417.13C1199.55 417.13 1210.23 419.97 1220.11 425.64C1229.99 431.31 1237.8 439.06 1243.53 448.88C1249.26 458.7 1252.13 469.28 1252.13 480.63C1252.13 491.97 1249.26 502.56 1243.53 512.38C1237.79 522.2 1229.99 529.95 1220.11 535.62C1210.23 541.29 1199.55 544.13 1188.09 544.13C1176.62 544.13 1165.95 541.29 1156.07 535.62C1146.19 529.95 1138.38 522.2 1132.65 512.38C1126.91 502.56 1124.05 491.98 1124.05 480.63C1124.05 469.29 1126.91 458.71 1132.65 448.88C1138.38 439.06 1146.19 431.32 1156.07 425.64C1165.95 419.96 1176.62 417.13 1188.09 417.13ZM1187.91 508.61C1195.71 508.61 1202.36 505.86 1207.85 500.38C1213.34 494.9 1216.08 488.3 1216.08 480.62C1216.08 472.94 1213.3 466.32 1207.75 460.77C1202.2 455.22 1195.58 452.44 1187.9 452.44C1180.21 452.44 1173.6 455.22 1168.05 460.77C1162.5 466.32 1159.72 472.94 1159.72 480.62C1159.72 488.3 1162.46 494.89 1167.95 500.38C1173.44 505.87 1180.1 508.61 1187.91 508.61Z" fill="white" stroke="#C8D4E8" stroke-miterlimit="10" stroke-linecap="round" stroke-linejoin="round"/>
<path d="M1251.44 471.22C1250.28 463.38 1247.65 455.93 1243.53 448.87C1237.79 439.05 1229.99 431.31 1220.11 425.63C1210.23 419.96 1199.55 417.12 1188.09 417.12C1176.62 417.12 1165.95 419.96 1156.07 425.63C1146.19 431.3 1138.38 439.05 1132.65 448.87C1129.54 454.2 1127.28 459.75 1125.86 465.52C1134.07 465.43 1142.93 463.57 1150.55 466.48C1152.72 467.31 1155.34 468.47 1157.14 467.01C1157.91 466.39 1158.3 465.42 1158.92 464.65C1160.68 462.45 1163.85 462.17 1166.67 462.06C1166.73 462.06 1166.78 462.06 1166.84 462.05C1167.23 461.61 1167.64 461.18 1168.06 460.75C1173.61 455.2 1180.23 452.42 1187.91 452.42C1195.59 452.42 1202.21 455.2 1207.76 460.75C1208.77 461.76 1209.69 462.82 1210.52 463.9C1213.75 463.47 1216.95 462.5 1220.17 462.92C1225.31 463.58 1229.66 468.19 1230.02 473.36C1230.16 475.33 1229.79 477.32 1230.14 479.26C1230.34 480.38 1230.89 481.58 1231.72 482.37C1233.82 484.36 1234.6 481.56 1234.69 479.81C1234.84 476.98 1233.9 474.23 1233.91 471.41C1233.92 469.51 1234.16 467.21 1235.87 466.38C1237.29 465.69 1239.08 466.48 1240.02 467.75C1240.93 468.98 1240.71 471.08 1241.78 472.08C1242.69 472.94 1244.22 472.54 1245.3 472.32C1247.36 471.91 1249.41 471.59 1251.44 471.22Z" fill="#3457E5"/>
<path d="M1290.92 544.11V464.88C1290.92 451.1 1295.07 440.03 1303.36 431.67C1311.65 423.32 1322.75 419.14 1336.66 419.14C1350.32 419.14 1360.81 423.2 1368.13 431.31C1375.45 439.42 1379.11 451.04 1379.11 466.17V544.12H1342.88V466.17C1342.88 458.73 1340.2 455.01 1334.83 455.01C1329.83 455.01 1327.33 458.73 1327.33 466.17V544.12H1290.92V544.11Z" fill="#CFD7E8" stroke="#C8D4E8" stroke-miterlimit="10" stroke-linecap="round" stroke-linejoin="round"/>
<path d="M1280.92 544.11V464.88C1280.92 451.1 1285.07 440.03 1293.36 431.67C1301.65 423.32 1312.75 419.14 1326.66 419.14C1340.32 419.14 1350.81 423.2 1358.13 431.31C1365.45 439.42 1369.11 451.04 1369.11 466.17V544.12H1332.88V466.17C1332.88 458.73 1330.2 455.01 1324.83 455.01C1319.83 455.01 1317.33 458.73 1317.33 466.17V544.12H1280.92V544.11Z" fill="white" stroke="#C8D4E8" stroke-miterlimit="10" stroke-linecap="round" stroke-linejoin="round"/>
<path d="M934.27 369.01V403.96C931.59 402.99 929.76 402.5 928.78 402.5C925.97 402.5 923.53 403.39 921.46 405.15C919.38 406.92 918.349 409.39 918.349 412.56C918.349 415.49 919.39 418.72 921.46 422.26L924.2 427.02C929.2 435.8 931.7 444.4 931.7 452.82C931.7 463.68 927.519 473.19 919.169 481.36C910.809 489.53 900.419 493.62 887.969 493.62C881.749 493.62 876.01 492.46 870.77 490.14V454.83C874.06 456.91 877.36 457.94 880.65 457.94C883.7 457.94 886.2 457.06 888.15 455.29C890.1 453.52 891.08 451.24 891.08 448.43C891.08 447.09 889.37 443.43 885.96 437.45C880.59 427.82 877.909 418.24 877.909 408.72C877.909 397.26 881.999 387.38 890.169 379.08C898.339 370.79 908.1 366.64 919.45 366.64C924.57 366.63 929.51 367.43 934.27 369.01Z" fill="#0539DB"/>
<path d="M924.27 369.01V403.96C921.59 402.99 919.76 402.5 918.78 402.5C915.97 402.5 913.53 403.39 911.46 405.15C909.38 406.92 908.349 409.39 908.349 412.56C908.349 415.49 909.39 418.72 911.46 422.26L914.2 427.02C919.2 435.8 921.7 444.4 921.7 452.82C921.7 463.68 917.519 473.19 909.169 481.36C900.809 489.53 890.419 493.62 877.969 493.62C871.749 493.62 866.01 492.46 860.77 490.14V454.83C864.06 456.91 867.36 457.94 870.65 457.94C873.7 457.94 876.2 457.06 878.15 455.29C880.1 453.52 881.08 451.24 881.08 448.43C881.08 447.09 879.37 443.43 875.96 437.45C870.59 427.82 867.909 418.24 867.909 408.72C867.909 397.26 871.999 387.38 880.169 379.08C888.339 370.79 898.1 366.64 909.45 366.64C914.57 366.63 919.51 367.43 924.27 369.01Z" fill="#3457E5"/>
<path d="M918.289 519.12H886.289V551.12H918.289V519.12Z" stroke="#C8D4E8" stroke-miterlimit="10" stroke-linecap="round" stroke-linejoin="round"/>
<path d="M918.289 519.12L886.289 551.12" stroke="#C8D4E8" stroke-miterlimit="10" stroke-linecap="round" stroke-linejoin="round"/>
<path d="M886.289 519.12L918.289 551.12" stroke="#C8D4E8" stroke-miterlimit="10" stroke-linecap="round" stroke-linejoin="round"/>
<path d="M1302.29 501.12H788.289V508.12H1302.29V501.12Z" fill="#EBF0F7" stroke="#C8D4E8" stroke-miterlimit="10" stroke-linecap="round" stroke-linejoin="round"/>
<path d="M918.289 487.12H886.289V519.12H918.289V487.12Z" stroke="#C8D4E8" stroke-miterlimit="10" stroke-linecap="round" stroke-linejoin="round"/>
<path d="M918.289 487.12L886.289 519.12" stroke="#C8D4E8" stroke-miterlimit="10" stroke-linecap="round" stroke-linejoin="round"/>
<path d="M886.289 487.12L918.289 519.12" stroke="#C8D4E8" stroke-miterlimit="10" stroke-linecap="round" stroke-linejoin="round"/>
<path d="M918.289 455.12H886.289V487.12H918.289V455.12Z" stroke="#C8D4E8" stroke-miterlimit="10" stroke-linecap="round" stroke-linejoin="round"/>
<path d="M918.289 455.12L886.289 487.12" stroke="#C8D4E8" stroke-miterlimit="10" stroke-linecap="round" stroke-linejoin="round"/>
<path d="M886.289 455.12L918.289 487.12" stroke="#C8D4E8" stroke-miterlimit="10" stroke-linecap="round" stroke-linejoin="round"/>
<path d="M918.289 423.12H886.289V455.12H918.289V423.12Z" stroke="#C8D4E8" stroke-miterlimit="10" stroke-linecap="round" stroke-linejoin="round"/>
<path d="M918.289 423.12L886.289 455.12" stroke="#C8D4E8" stroke-miterlimit="10" stroke-linecap="round" stroke-linejoin="round"/>
<path d="M886.289 423.12L918.289 455.12" stroke="#C8D4E8" stroke-miterlimit="10" stroke-linecap="round" stroke-linejoin="round"/>
<path d="M918.289 391.12H886.289V423.12H918.289V391.12Z" stroke="#C8D4E8" stroke-miterlimit="10" stroke-linecap="round" stroke-linejoin="round"/>
<path d="M918.289 391.12L886.289 423.12" stroke="#C8D4E8" stroke-miterlimit="10" stroke-linecap="round" stroke-linejoin="round"/>
<path d="M886.289 391.12L918.289 423.12" stroke="#C8D4E8" stroke-miterlimit="10" stroke-linecap="round" stroke-linejoin="round"/>
<path d="M1208.24 519.12H1176.24V551.12H1208.24V519.12Z" stroke="#C8D4E8" stroke-miterlimit="10" stroke-linecap="round" stroke-linejoin="round"/>
<path d="M1208.24 519.12L1176.24 551.12" stroke="#C8D4E8" stroke-miterlimit="10" stroke-linecap="round" stroke-linejoin="round"/>
<path d="M1176.24 519.12L1208.24 551.12" stroke="#C8D4E8" stroke-miterlimit="10" stroke-linecap="round" stroke-linejoin="round"/>
<path d="M1208.24 487.12H1176.24V519.12H1208.24V487.12Z" stroke="#C8D4E8" stroke-miterlimit="10" stroke-linecap="round" stroke-linejoin="round"/>
<path d="M1208.24 487.12L1176.24 519.12" stroke="#C8D4E8" stroke-miterlimit="10" stroke-linecap="round" stroke-linejoin="round"/>
<path d="M1176.24 487.12L1208.24 519.12" stroke="#C8D4E8" stroke-miterlimit="10" stroke-linecap="round" stroke-linejoin="round"/>
<path d="M1208.24 455.12H1176.24V487.12H1208.24V455.12Z" stroke="#C8D4E8" stroke-miterlimit="10" stroke-linecap="round" stroke-linejoin="round"/>
<path d="M1208.24 455.12L1176.24 487.12" stroke="#C8D4E8" stroke-miterlimit="10" stroke-linecap="round" stroke-linejoin="round"/>
<path d="M1176.24 455.12L1208.24 487.12" stroke="#C8D4E8" stroke-miterlimit="10" stroke-linecap="round" stroke-linejoin="round"/>
<path d="M1208.24 423.12H1176.24V455.12H1208.24V423.12Z" stroke="#C8D4E8" stroke-miterlimit="10" stroke-linecap="round" stroke-linejoin="round"/>
<path d="M1208.24 423.12L1176.24 455.12" stroke="#C8D4E8" stroke-miterlimit="10" stroke-linecap="round" stroke-linejoin="round"/>
<path d="M1176.24 423.12L1208.24 455.12" stroke="#C8D4E8" stroke-miterlimit="10" stroke-linecap="round" stroke-linejoin="round"/>
<path d="M1264.29 416.12H918.289V423.12H1264.29V416.12Z" fill="#EBF0F7" stroke="#C8D4E8" stroke-miterlimit="10" stroke-linecap="round" stroke-linejoin="round"/>
<path d="M1208.24 391.12H1176.24V423.12H1208.24V391.12Z" stroke="#C8D4E8" stroke-miterlimit="10" stroke-linecap="round" stroke-linejoin="round"/>
<path d="M1208.24 391.12L1176.24 423.12" stroke="#C8D4E8" stroke-miterlimit="10" stroke-linecap="round" stroke-linejoin="round"/>
<path d="M1176.24 391.12L1208.24 423.12" stroke="#C8D4E8" stroke-miterlimit="10" stroke-linecap="round" stroke-linejoin="round"/>
<path d="M1208.24 359.14H1176.24V391.14H1208.24V359.14Z" stroke="#C8D4E8" stroke-miterlimit="10" stroke-linecap="round" stroke-linejoin="round"/>
<path d="M1208.24 359.14L1176.24 391.14" stroke="#C8D4E8" stroke-miterlimit="10" stroke-linecap="round" stroke-linejoin="round"/>
<path d="M1176.24 359.14L1208.24 391.14" stroke="#C8D4E8" stroke-miterlimit="10" stroke-linecap="round" stroke-linejoin="round"/>
<path d="M788.289 508.12V551.12" stroke="#C8D4E8" stroke-miterlimit="10" stroke-linecap="round" stroke-linejoin="round"/>
<path d="M1302.29 508.62V551.62" stroke="#C8D4E8" stroke-miterlimit="10" stroke-linecap="round" stroke-linejoin="round"/>
<path d="M1107.68 482.12H1085.68V501.12H1107.68V482.12Z" fill="white" stroke="#C8D4E8" stroke-miterlimit="10" stroke-linecap="round" stroke-linejoin="round"/>
<path d="M1107.68 482.12H1102.68V501.12H1107.68V482.12Z" fill="#EBF0F7" stroke="#C8D4E8" stroke-miterlimit="10" stroke-linecap="round" stroke-linejoin="round"/>
<path d="M1095.68 482.12H1085.68V501.12H1095.68V482.12Z" fill="#CFD7E8" stroke="#C8D4E8" stroke-miterlimit="10" stroke-linecap="round" stroke-linejoin="round"/>
<path d="M1096.68 471.12L1085.68 482.12H1107.68L1096.68 471.12Z" stroke="#C8D4E8" stroke-miterlimit="10" stroke-linecap="round" stroke-linejoin="round"/>
<path d="M1264.29 423.12V501.12" stroke="#C8D4E8" stroke-miterlimit="10" stroke-linecap="round" stroke-linejoin="round"/>
<path d="M1271.79 491.12V552.12" stroke="#C8D4E8" stroke-miterlimit="10" stroke-linecap="round" stroke-linejoin="round"/>
<path d="M1293.79 491.62V552.62" stroke="#C8D4E8" stroke-miterlimit="10" stroke-linecap="round" stroke-linejoin="round"/>
<path d="M1271.79 495.12H1293.79" stroke="#C8D4E8" stroke-miterlimit="10" stroke-linecap="round" stroke-linejoin="round"/>
<path d="M1271.79 505.12H1293.79" stroke="#C8D4E8" stroke-miterlimit="10" stroke-linecap="round" stroke-linejoin="round"/>
<path d="M1271.79 515.12H1293.79" stroke="#C8D4E8" stroke-miterlimit="10" stroke-linecap="round" stroke-linejoin="round"/>
<path d="M1271.79 525.12H1293.79" stroke="#C8D4E8" stroke-miterlimit="10" stroke-linecap="round" stroke-linejoin="round"/>
<path d="M1271.79 535.12H1293.79" stroke="#C8D4E8" stroke-miterlimit="10" stroke-linecap="round" stroke-linejoin="round"/>
<path d="M1271.79 545.12H1293.79" stroke="#C8D4E8" stroke-miterlimit="10" stroke-linecap="round" stroke-linejoin="round"/>
<path d="M320.129 506.62H243.129V519.62H320.129V506.62Z" fill="#EBF0F7" stroke="#C8D4E8" stroke-miterlimit="10" stroke-linecap="round" stroke-linejoin="round"/>
<path d="M295.129 506.62H268.129V519.62H295.129V506.62Z" fill="#CFD7E8" stroke="#C8D4E8" stroke-miterlimit="10" stroke-linecap="round" stroke-linejoin="round"/>
<path d="M258.129 519.62H253.129V552.62H258.129V519.62Z" fill="white" stroke="#C8D4E8" stroke-miterlimit="10" stroke-linecap="round" stroke-linejoin="round"/>
<path d="M310.129 519.62H305.129V552.62H310.129V519.62Z" fill="white" stroke="#C8D4E8" stroke-miterlimit="10" stroke-linecap="round" stroke-linejoin="round"/>
<path d="M567.129 294.4C562.249 294.4 558.289 290.44 558.289 285.56C558.289 280.68 562.249 276.72 567.129 276.72" stroke="#C8D4E8" stroke-miterlimit="10" stroke-linecap="round" stroke-linejoin="round"/>
<path d="M1147.66 411.55H1124.77C1123.49 411.55 1122.44 412.59 1122.44 413.88V416.13H1149.98V413.88C1149.99 412.59 1148.94 411.55 1147.66 411.55Z" fill="#EBF0F7" stroke="#C8D4E8" stroke-miterlimit="10" stroke-linecap="round" stroke-linejoin="round"/>
<path d="M1136.22 385.37L1126.07 411.55H1146.36L1136.22 385.37Z" fill="#EBF0F7" stroke="#C8D4E8" stroke-miterlimit="10" stroke-linecap="round" stroke-linejoin="round"/>
<path d="M1136.22 389.15C1137.97 389.15 1139.39 387.731 1139.39 385.98C1139.39 384.229 1137.97 382.81 1136.22 382.81C1134.47 382.81 1133.05 384.229 1133.05 385.98C1133.05 387.731 1134.47 389.15 1136.22 389.15Z" fill="#EBF0F7" stroke="#C8D4E8" stroke-miterlimit="10" stroke-linecap="round" stroke-linejoin="round"/>
<path d="M1132.19 395.75H1140.24L1143.1 403.13H1129.33L1132.19 395.75Z" fill="#CFD7E8" stroke="#C8D4E8" stroke-miterlimit="10" stroke-linecap="round" stroke-linejoin="round"/>
<path d="M1146.15 469.32H1124.74C1124 469.32 1123.39 468.72 1123.39 467.97V464.6C1123.39 463.86 1123.99 463.25 1124.74 463.25H1146.15C1146.89 463.25 1147.5 463.85 1147.5 464.6V467.97C1147.5 468.72 1146.9 469.32 1146.15 469.32Z" fill="#3457E5" stroke="#C8D4E8" stroke-miterlimit="10" stroke-linecap="round" stroke-linejoin="round"/>
<path d="M1137.28 479.05H1133.62V486.12H1137.28V479.05Z" fill="#EBF0F7" stroke="#C8D4E8" stroke-miterlimit="10" stroke-linecap="round" stroke-linejoin="round"/>
<path d="M1135.45 479.05V471.85H1121.87V466.29H1123.4" stroke="#C8D4E8" stroke-miterlimit="10" stroke-linecap="round" stroke-linejoin="round"/>
<path d="M595.59 531.85C603.51 531.85 609.93 530.744 609.93 529.38C609.93 528.016 603.51 526.91 595.59 526.91C587.67 526.91 581.25 528.016 581.25 529.38C581.25 530.744 587.67 531.85 595.59 531.85Z" fill="#CFD7E8"/>
<path d="M1050.29 280.99V331.42" stroke="#C8D4E8" stroke-miterlimit="10" stroke-linecap="round" stroke-linejoin="round"/>
</svg>
