<svg width="64" height="64" viewBox="0 0 64 64" fill="none" xmlns="http://www.w3.org/2000/svg">
<path d="M30.1701 29.7401C36.9853 29.7401 42.5101 24.2153 42.5101 17.4001C42.5101 10.5849 36.9853 5.06006 30.1701 5.06006C23.3549 5.06006 17.8301 10.5849 17.8301 17.4001C17.8301 24.2153 23.3549 29.7401 30.1701 29.7401Z" stroke="#1A2B6B" stroke-width="2" stroke-miterlimit="10" stroke-linecap="round" stroke-linejoin="round"/>
<path d="M6.82031 54.4101C6.82031 41.5101 17.2703 31.0601 30.1703 31.0601C36.2003 31.0601 41.7103 33.3501 45.8503 37.1101" stroke="#1A2B6B" stroke-width="2" stroke-miterlimit="10" stroke-linecap="round" stroke-linejoin="round"/>
<path d="M29.4908 57.67L26.3608 54.56C26.0408 54.24 25.9008 53.82 25.9708 53.41L28.0108 41.73C28.0608 41.47 28.3308 41.27 28.6508 41.27H31.6908C32.0108 41.27 32.2908 41.46 32.3308 41.73L34.3708 53.41C34.4408 53.82 34.3008 54.24 33.9808 54.56L30.8508 57.67C30.5008 58.02 29.8508 58.02 29.4908 57.67Z" fill="#3457E5"/>
<path d="M31.9899 35.02H28.3698C27.8598 35.02 27.4698 35.48 27.5598 35.98L27.9798 38.5C28.0498 38.9 28.3898 39.19 28.7898 39.19H31.5598C31.9598 39.19 32.2998 38.9 32.3698 38.5L32.7898 35.98C32.8798 35.48 32.4999 35.02 31.9899 35.02Z" fill="#3457E5"/>
<path d="M56.1407 57.9299H40.3707C39.3507 57.9299 38.5107 57.0999 38.5107 56.0699V37.5299C38.5107 36.5099 39.3407 35.6699 40.3707 35.6699H52.3508L57.9908 41.2399V56.0799C58.0008 57.0999 57.1707 57.9299 56.1407 57.9299Z" fill="white" stroke="#3457E5" stroke-width="2" stroke-miterlimit="10" stroke-linecap="round" stroke-linejoin="round"/>
<path d="M51.5107 35.6699V40.2199C51.5107 41.2399 52.3407 42.0799 53.3707 42.0799H58.0007L51.5107 35.6699Z" fill="#3457E5"/>
<path d="M43.1611 46.7998H50.5811" stroke="#3457E5" stroke-width="2" stroke-miterlimit="10" stroke-linecap="round" stroke-linejoin="round"/>
<path d="M43.1611 52.3701H53.3611" stroke="#3457E5" stroke-width="2" stroke-miterlimit="10" stroke-linecap="round" stroke-linejoin="round"/>
</svg>
