<svg width="88" height="88" viewBox="0 0 88 88" fill="none" xmlns="http://www.w3.org/2000/svg">
<path d="M18 33L7 25.9L29.3 11.24L41.34 19L18 33Z" fill="white" stroke="#1A2B6B" stroke-width="2" stroke-miterlimit="10" stroke-linecap="round" stroke-linejoin="round"/>
<path d="M69.45 33L51 20L61.42 11.24L80.37 22.12L69.45 33Z" fill="white" stroke="#1A2B6B" stroke-width="2" stroke-miterlimit="10" stroke-linecap="round" stroke-linejoin="round"/>
<path d="M59.69 60H26.31C23.93 60 22 58.07 22 55.69V11.3C22 8.91999 23.93 6.98999 26.31 6.98999H59.7C62.08 6.98999 64.01 8.91999 64.01 11.3V55.69C64 58.07 62.07 60 59.69 60Z" fill="#3457E5"/>
<path d="M44 85L18 69V33L44 49V85Z" fill="white" stroke="#1A2B6B" stroke-width="2" stroke-miterlimit="10" stroke-linecap="round" stroke-linejoin="round"/>
<path d="M44 85L70 69V33L44 49V85Z" fill="white" stroke="#1A2B6B" stroke-width="2" stroke-miterlimit="10" stroke-linecap="round" stroke-linejoin="round"/>
<path d="M18 33L7 40L32.45 56.34L44 49L18 33Z" fill="white" stroke="#1A2B6B" stroke-width="2" stroke-miterlimit="10" stroke-linecap="round" stroke-linejoin="round"/>
<path d="M55 56.34L44 49.34L69.45 33L81 40.34L55 56.34Z" fill="white" stroke="#1A2B6B" stroke-width="2" stroke-miterlimit="10" stroke-linecap="round" stroke-linejoin="round"/>
<path d="M35.1902 17.68C36.0102 18.28 36.4802 19.22 36.5902 20.51H34.8202C34.6602 19.73 34.3502 19.19 33.9002 18.87C33.4502 18.53 32.7802 18.36 31.9002 18.36C31.1302 18.36 30.5402 18.48 30.1302 18.71C29.6302 18.97 29.3702 19.4 29.3702 19.99C29.3702 20.52 29.6602 20.93 30.2402 21.24C30.5202 21.4 31.2002 21.65 32.2802 21.96C33.9002 22.46 34.9302 22.85 35.3502 23.11C36.3602 23.72 36.8602 24.57 36.8602 25.64C36.8602 26.68 36.4502 27.51 35.6302 28.12C34.8102 28.71 33.6602 29.01 32.1802 29.01C30.7702 29.01 29.6502 28.73 28.8302 28.16C27.8702 27.47 27.3302 26.39 27.2402 24.91H29.0002C29.1302 25.84 29.4602 26.5 29.9902 26.9C30.4702 27.26 31.2002 27.44 32.1702 27.44C33.0402 27.44 33.7402 27.29 34.2902 26.98C34.8202 26.68 35.0802 26.27 35.0802 25.75C35.0802 25.1 34.7102 24.59 33.9602 24.21C33.6902 24.08 32.9102 23.82 31.6302 23.42C30.1602 22.95 29.2602 22.63 28.9402 22.45C28.0402 21.91 27.5902 21.13 27.5902 20.1C27.5902 19.07 28.0202 18.26 28.8902 17.67C29.7102 17.11 30.7502 16.83 32.0002 16.83C33.3702 16.81 34.4402 17.1 35.1902 17.68Z" fill="white"/>
<path d="M38.51 17.04H42.78C44.66 17.04 46.1 17.57 47.08 18.63C48 19.62 48.46 21.04 48.46 22.9C48.46 24.73 47.99 26.16 47.05 27.19C46.06 28.24 44.63 28.77 42.74 28.77H38.5V17.04H38.51ZM40.3 18.57V27.25H42.42C43.91 27.25 45 26.89 45.69 26.18C46.37 25.47 46.71 24.38 46.71 22.91C46.71 21.42 46.38 20.32 45.71 19.62C45.02 18.92 43.94 18.57 42.46 18.57H40.3Z" fill="white"/>
<path d="M57.75 17.04H60.02L54.83 22.08L60.78 28.77H58.38L53.61 23.25L52.08 24.71V28.77H50.29V17.04H52.08V22.71L57.75 17.04Z" fill="white"/>
</svg>
