<svg width="88" height="88" viewBox="0 0 88 88" fill="none" xmlns="http://www.w3.org/2000/svg">
<path d="M7.83008 51.94C10.9001 66.03 21.9801 77.11 36.0701 80.18" stroke="#1A2B6B" stroke-width="2" stroke-miterlimit="10" stroke-linecap="round" stroke-linejoin="round"/>
<path d="M51.9404 80.17C66.0304 77.1 77.1104 66.02 80.1804 51.93" stroke="#1A2B6B" stroke-width="2" stroke-miterlimit="10" stroke-linecap="round" stroke-linejoin="round"/>
<path d="M7.83008 36.06C10.9001 21.97 21.9801 10.89 36.0701 7.82001" stroke="#1A2B6B" stroke-width="2" stroke-miterlimit="10" stroke-linecap="round" stroke-linejoin="round"/>
<path d="M51.9404 7.82999C66.0304 10.9 77.1104 21.98 80.1804 36.07" stroke="#1A2B6B" stroke-width="2" stroke-miterlimit="10" stroke-linecap="round" stroke-linejoin="round"/>
<path d="M6.97 47.97C9.16257 47.97 10.94 46.1926 10.94 44C10.94 41.8074 9.16257 40.03 6.97 40.03C4.77743 40.03 3 41.8074 3 44C3 46.1926 4.77743 47.97 6.97 47.97Z" fill="#3457E5"/>
<path d="M81.0296 47.97C83.2221 47.97 84.9996 46.1926 84.9996 44C84.9996 41.8074 83.2221 40.03 81.0296 40.03C78.837 40.03 77.0596 41.8074 77.0596 44C77.0596 46.1926 78.837 47.97 81.0296 47.97Z" fill="#3457E5"/>
<path d="M44.0003 85C46.1928 85 47.9703 83.2226 47.9703 81.03C47.9703 78.8374 46.1928 77.06 44.0003 77.06C41.8077 77.06 40.0303 78.8374 40.0303 81.03C40.0303 83.2226 41.8077 85 44.0003 85Z" fill="#3457E5"/>
<path d="M44.0003 10.94C46.1928 10.94 47.9703 9.16257 47.9703 6.97C47.9703 4.77743 46.1928 3 44.0003 3C41.8077 3 40.0303 4.77743 40.0303 6.97C40.0303 9.16257 41.8077 10.94 44.0003 10.94Z" fill="#3457E5"/>
<path d="M58.62 36.13H29.38C28.09 36.13 27.04 35.08 27.04 33.79V28.78C27.04 27.49 28.09 26.44 29.38 26.44H58.62C59.91 26.44 60.96 27.49 60.96 28.78V33.79C60.96 35.08 59.91 36.13 58.62 36.13Z" stroke="#1A2B6B" stroke-width="2" stroke-miterlimit="10" stroke-linecap="round" stroke-linejoin="round"/>
<path d="M58.62 47.03H29.38C28.09 47.03 27.04 45.98 27.04 44.69V39.68C27.04 38.39 28.09 37.34 29.38 37.34H58.62C59.91 37.34 60.96 38.39 60.96 39.68V44.69C60.96 45.98 59.91 47.03 58.62 47.03Z" stroke="#1A2B6B" stroke-width="2" stroke-miterlimit="10" stroke-linecap="round" stroke-linejoin="round"/>
<path d="M58.62 57.93H29.38C28.09 57.93 27.04 56.88 27.04 55.59V50.58C27.04 49.29 28.09 48.24 29.38 48.24H58.62C59.91 48.24 60.96 49.29 60.96 50.58V55.59C60.96 56.88 59.91 57.93 58.62 57.93Z" stroke="#1A2B6B" stroke-width="2" stroke-miterlimit="10" stroke-linecap="round" stroke-linejoin="round"/>
<path d="M33.0996 59.14V61.57" stroke="#1A2B6B" stroke-width="2" stroke-miterlimit="10" stroke-linecap="round" stroke-linejoin="round"/>
<path d="M54.9004 59.14V61.57" stroke="#1A2B6B" stroke-width="2" stroke-miterlimit="10" stroke-linecap="round" stroke-linejoin="round"/>
<path d="M32.4903 32.49C33.1585 32.49 33.7003 31.9483 33.7003 31.28C33.7003 30.6117 33.1585 30.07 32.4903 30.07C31.822 30.07 31.2803 30.6117 31.2803 31.28C31.2803 31.9483 31.822 32.49 32.4903 32.49Z" fill="#3457E5"/>
<path d="M32.4903 43.39C33.1585 43.39 33.7003 42.8483 33.7003 42.18C33.7003 41.5117 33.1585 40.97 32.4903 40.97C31.822 40.97 31.2803 41.5117 31.2803 42.18C31.2803 42.8483 31.822 43.39 32.4903 43.39Z" fill="#3457E5"/>
<path d="M32.4903 54.3C33.1585 54.3 33.7003 53.7583 33.7003 53.09C33.7003 52.4217 33.1585 51.88 32.4903 51.88C31.822 51.88 31.2803 52.4217 31.2803 53.09C31.2803 53.7583 31.822 54.3 32.4903 54.3Z" fill="#3457E5"/>
<path d="M27.04 61.57H60.96" stroke="#3457E5" stroke-width="2" stroke-miterlimit="10" stroke-linecap="round" stroke-linejoin="round"/>
</svg>
