<svg width="88" height="88" viewBox="0 0 88 88" fill="none" xmlns="http://www.w3.org/2000/svg">
<path d="M43.9999 43.66C52.1903 43.66 58.8299 37.0204 58.8299 28.83C58.8299 20.6396 52.1903 14 43.9999 14C35.8095 14 29.1699 20.6396 29.1699 28.83C29.1699 37.0204 35.8095 43.66 43.9999 43.66Z" fill="#3457E5"/>
<path d="M44.0001 53C57.3488 53 68.1701 42.1788 68.1701 28.83C68.1701 15.4813 57.3488 4.66003 44.0001 4.66003C30.6514 4.66003 19.8301 15.4813 19.8301 28.83C19.8301 42.1788 30.6514 53 44.0001 53Z" stroke="#1A2B6B" stroke-width="2" stroke-miterlimit="10" stroke-linecap="round" stroke-linejoin="round"/>
<path d="M43.9999 53C48.6225 53 52.3699 42.1788 52.3699 28.83C52.3699 15.4813 48.6225 4.66003 43.9999 4.66003C39.3773 4.66003 35.6299 15.4813 35.6299 28.83C35.6299 42.1788 39.3773 53 43.9999 53Z" stroke="#1A2B6B" stroke-width="2" stroke-miterlimit="10" stroke-linecap="round" stroke-linejoin="round"/>
<path d="M19.8301 28.83H68.1701" stroke="#1A2B6B" stroke-width="2" stroke-miterlimit="10" stroke-linecap="round" stroke-linejoin="round"/>
<path d="M17.9293 66.8C21.7401 66.8 24.8293 63.7108 24.8293 59.9C24.8293 56.0892 21.7401 53 17.9293 53C14.1185 53 11.0293 56.0892 11.0293 59.9C11.0293 63.7108 14.1185 66.8 17.9293 66.8Z" stroke="#3457E5" stroke-width="2" stroke-miterlimit="10" stroke-linecap="round" stroke-linejoin="round"/>
<path d="M8.16955 82C5.82955 82 4.10954 79.7 4.87954 77.48C6.74954 72.07 11.8895 68.19 17.9295 68.19C23.9695 68.19 29.1095 72.07 30.9795 77.48C31.7495 79.69 30.0295 82 27.6895 82H8.16955Z" stroke="#3457E5" stroke-width="2" stroke-miterlimit="10" stroke-linecap="round" stroke-linejoin="round"/>
<path d="M69.9293 66.8C73.7401 66.8 76.8293 63.7108 76.8293 59.9C76.8293 56.0892 73.7401 53 69.9293 53C66.1185 53 63.0293 56.0892 63.0293 59.9C63.0293 63.7108 66.1185 66.8 69.9293 66.8Z" stroke="#3457E5" stroke-width="2" stroke-miterlimit="10" stroke-linecap="round" stroke-linejoin="round"/>
<path d="M60.1695 82C57.8295 82 56.1095 79.7 56.8795 77.48C58.7495 72.07 63.8895 68.19 69.9295 68.19C75.9695 68.19 81.1095 72.07 82.9795 77.48C83.7495 79.69 82.0295 82 79.6895 82H60.1695Z" stroke="#3457E5" stroke-width="2" stroke-miterlimit="10" stroke-linecap="round" stroke-linejoin="round"/>
</svg>
