<svg width="88" height="88" viewBox="0 0 88 88" fill="none" xmlns="http://www.w3.org/2000/svg">
<path d="M1.5 51.83C1.5 36.48 13.95 24.03 29.3 24.03" stroke="#1A2B6B" stroke-width="2" stroke-miterlimit="10" stroke-linecap="round" stroke-linejoin="round"/>
<path d="M55.0698 62.29C50.9398 72.46 40.9598 79.63 29.2998 79.63" stroke="#1A2B6B" stroke-width="2" stroke-miterlimit="10" stroke-linecap="round" stroke-linejoin="round"/>
<path d="M29.2998 72.29C40.5996 72.29 49.7598 63.1297 49.7598 51.83C49.7598 40.5303 40.5996 31.37 29.2998 31.37C18.0001 31.37 8.83984 40.5303 8.83984 51.83C8.83984 63.1297 18.0001 72.29 29.2998 72.29Z" fill="white" stroke="#1A2B6B" stroke-width="2" stroke-miterlimit="10" stroke-linecap="round" stroke-linejoin="round"/>
<path d="M29.2997 72.29C33.2099 72.29 36.3797 63.1297 36.3797 51.83C36.3797 40.5303 33.2099 31.37 29.2997 31.37C25.3896 31.37 22.2197 40.5303 22.2197 51.83C22.2197 63.1297 25.3896 72.29 29.2997 72.29Z" fill="white" stroke="#1A2B6B" stroke-width="2" stroke-miterlimit="10" stroke-linecap="round" stroke-linejoin="round"/>
<path d="M8.83984 51.83H49.7598" stroke="#1A2B6B" stroke-width="2" stroke-miterlimit="10" stroke-linecap="round" stroke-linejoin="round"/>
<path d="M62.8702 54.98C76.1969 54.98 87.0002 44.1766 87.0002 30.85C87.0002 17.5234 76.1969 6.72 62.8702 6.72C49.5436 6.72 38.7402 17.5234 38.7402 30.85C38.7402 44.1766 49.5436 54.98 62.8702 54.98Z" fill="white" stroke="#1A2B6B" stroke-width="2" stroke-miterlimit="10" stroke-linecap="round" stroke-linejoin="round"/>
<path d="M54.4805 36.62H52.3805C50.6405 36.62 49.2305 35.21 49.2305 33.47V30.32C49.2305 28.58 50.6405 27.17 52.3805 27.17H54.4805V36.62Z" stroke="#3457E5" stroke-width="2" stroke-miterlimit="10" stroke-linecap="round" stroke-linejoin="round"/>
<path d="M72.3109 36.62H70.2109V27.18H72.3109C74.0509 27.18 75.4609 28.59 75.4609 30.33V33.48C75.4609 35.21 74.0509 36.62 72.3109 36.62Z" stroke="#3457E5" stroke-width="2" stroke-miterlimit="10" stroke-linecap="round" stroke-linejoin="round"/>
<path d="M70.2107 31.37V26.65C70.2107 22.3 66.6907 18.78 62.3407 18.78C57.9907 18.78 54.4707 22.3 54.4707 26.65V31.37" stroke="#3457E5" stroke-width="2" stroke-miterlimit="10" stroke-linecap="round" stroke-linejoin="round"/>
<path d="M72.2009 36.62V38.72C72.2009 40.46 70.7909 41.87 69.0509 41.87H64.9609" stroke="#3457E5" stroke-width="2" stroke-miterlimit="10" stroke-linecap="round" stroke-linejoin="round"/>
<path d="M62.35 43.44C63.5098 43.44 64.45 42.4998 64.45 41.34C64.45 40.1802 63.5098 39.24 62.35 39.24C61.1902 39.24 60.25 40.1802 60.25 41.34C60.25 42.4998 61.1902 43.44 62.35 43.44Z" stroke="#3457E5" stroke-width="2" stroke-miterlimit="10" stroke-linecap="round" stroke-linejoin="round"/>
<path d="M28.7799 27.18C30.5196 27.18 31.9299 25.7697 31.9299 24.03C31.9299 22.2903 30.5196 20.88 28.7799 20.88C27.0402 20.88 25.6299 22.2903 25.6299 24.03C25.6299 25.7697 27.0402 27.18 28.7799 27.18Z" fill="white" stroke="#1A2B6B" stroke-width="2" stroke-miterlimit="10" stroke-linecap="round" stroke-linejoin="round"/>
<path d="M29.3004 82.78C31.0401 82.78 32.4504 81.3697 32.4504 79.63C32.4504 77.8903 31.0401 76.48 29.3004 76.48C27.5607 76.48 26.1504 77.8903 26.1504 79.63C26.1504 81.3697 27.5607 82.78 29.3004 82.78Z" fill="white" stroke="#1A2B6B" stroke-width="2" stroke-miterlimit="10" stroke-linecap="round" stroke-linejoin="round"/>
</svg>
