<svg width="440" height="280" viewBox="0 0 440 280" fill="none" xmlns="http://www.w3.org/2000/svg">
<path d="M440 0H0V280H440V0Z" fill="#F7F8FA"/>
<path d="M257.367 40.4646C273.107 41.8546 287.277 47.7646 297.317 60.5546C302.177 66.7446 305.637 74.0646 306.997 81.8346C310.927 104.265 299.577 128.875 309.477 149.385C313.047 156.785 319.137 162.855 322.057 170.535C326.617 182.495 322.467 196.495 314.257 206.315C306.047 216.135 294.367 222.405 282.517 227.245C253.577 239.045 221.097 243.545 190.697 236.255C175.347 232.575 160.367 225.705 149.527 214.225C138.167 202.205 132.137 186.015 128.947 169.785C125.227 150.845 125.067 130.815 131.467 112.605C137.797 94.6146 150.307 79.1646 165.497 67.6246C176.867 58.9846 189.627 52.1546 203.037 47.2846C219.717 41.2346 237.977 39.1346 255.637 40.3146C256.227 40.3646 256.797 40.4146 257.367 40.4646Z" fill="#EFF3F9"/>
<path d="M311.747 56.4847C310.157 57.9247 308.917 59.5947 308.357 61.1647C306.697 65.8547 308.017 71.5947 312.427 74.2547C314.017 75.2147 315.897 75.5747 317.757 75.6347C319.487 75.6847 321.277 75.4647 322.807 74.6447C325.017 73.4547 326.417 71.1047 326.997 68.6647C327.577 66.2247 327.417 63.6747 327.157 61.1747C326.987 59.5647 326.767 57.9347 326.127 56.4447C323.387 50.1447 316.197 52.4547 311.747 56.4847Z" fill="#EFF3F9"/>
<path d="M109.017 189.265C108.717 198.165 112.347 206.655 117.147 213.975C122.007 221.385 130.987 233.755 141.477 230.175C144.717 229.065 147.287 225.705 146.717 222.335C145.997 218.075 141.477 215.255 138.177 213.065C133.917 210.225 130.247 207.365 127.317 203.045C123.517 197.425 121.567 190.385 119.067 184.135C118.537 182.795 117.967 181.415 116.897 180.455C111.617 175.695 109.127 185.925 109.017 189.265Z" fill="#EFF3F9"/>
<path d="M267.907 160.405C267.907 160.405 275.217 165.385 274.837 171.395C274.467 177.395 273.137 181.235 284.437 194.695L271.957 197.785C271.957 197.785 273.127 188.565 270.967 179.855C269.827 175.275 267.637 172.655 268.147 168.335C268.147 168.335 269.217 171.785 270.827 170.555C272.447 169.315 270.247 163.345 267.907 160.405Z" fill="white" stroke="#C8D4E8" stroke-width="0.5" stroke-miterlimit="10" stroke-linejoin="round"/>
<path d="M230.257 197.774C230.257 197.774 213.827 165.654 207.387 162.744C200.947 159.834 195.677 162.144 177.537 171.414C159.397 180.684 129.017 191.664 129.177 198.424C129.337 205.184 133.677 206.794 145.437 201.734C157.197 196.674 177.797 183.694 194.807 190.024C211.817 196.344 220.157 214.834 220.157 214.834L230.257 197.774Z" fill="#DDE4F1"/>
<path d="M199.057 182.695C189.327 180.165 186.677 181.055 154.847 194.245C141.557 199.755 134.007 201.465 129.707 201.595C131.177 205.535 135.837 205.855 145.437 201.725C157.197 196.665 177.797 183.685 194.807 190.005C211.817 196.325 220.157 214.815 220.157 214.815L224.967 206.695C218.607 198.275 206.047 184.515 199.057 182.695Z" fill="#CFD7E8"/>
<path d="M140.827 148.845C138.307 148.845 135.497 161.675 146.177 170.665C156.857 179.665 194.777 187.785 200.177 195.485C205.577 203.185 220.167 235.935 241.877 230.595L251.087 223.365L240.067 195.105C240.067 195.105 234.327 196.415 228.237 190.185C222.147 183.955 213.217 172.315 191.287 172.385C169.357 172.455 157.187 167.385 151.697 160.825C146.207 154.265 145.507 148.845 140.827 148.845Z" fill="#EBF0F7"/>
<path d="M241.887 230.605L249.637 224.515C240.577 223.265 227.457 218.875 215.467 205.145C194.497 181.105 182.027 183.535 171.917 180.445C161.817 177.345 153.877 172.855 146.577 167.965C142.177 165.015 139.747 158.895 138.517 154.495C138.347 159.035 140.017 165.495 146.177 170.685C156.857 179.685 194.777 187.805 200.177 195.505C205.587 203.195 220.177 235.945 241.887 230.605Z" fill="#DDE4F1"/>
<path d="M304.587 184.695C304.587 184.695 295.747 196.675 240.067 195.115C240.067 195.115 235.417 198.745 236.687 208.085C237.957 217.435 245.437 219.015 241.887 230.605C241.887 230.605 255.347 236.315 279.307 226.815C303.267 217.315 313.107 208.765 315.577 188.405L304.587 184.695Z" fill="#3457E5"/>
<path d="M315.567 188.405L307.097 185.535C307.097 185.535 310.087 203.035 285.147 217.305C267.647 227.315 251.107 225.775 242.797 223.965C242.937 225.795 242.717 227.935 241.897 230.605C241.897 230.605 255.357 236.315 279.317 226.815C303.267 217.315 313.097 208.765 315.567 188.405Z" fill="#0539DB"/>
<path d="M150.537 117.854C150.537 117.854 164.247 129.424 167.187 143.314C167.187 143.314 174.657 135.054 184.937 131.184C190.757 128.994 187.697 124.454 184.937 120.484C182.177 116.514 173.877 107.804 174.007 101.024C174.007 101.024 158.187 103.644 150.537 117.854Z" fill="#DDE4F1"/>
<path d="M154.027 117.914C154.027 117.914 159.567 121.454 161.967 126.834C161.967 126.834 164.427 123.994 167.067 122.014C167.067 122.014 163.117 114.664 160.177 113.304C160.177 113.304 157.237 113.084 154.027 117.914Z" fill="#CFD7E8"/>
<path d="M165.327 111.294C165.327 111.294 168.807 107.284 171.617 107.064" stroke="#CFD7E8" stroke-width="0.5" stroke-miterlimit="10"/>
<path d="M168.067 115.194C168.067 115.194 169.987 112.534 173.047 112.384" stroke="#CFD7E8" stroke-width="0.5" stroke-miterlimit="10"/>
<path d="M170.837 118.664C170.837 118.664 175.087 117.124 176.107 115.194" stroke="#CFD7E8" stroke-width="0.5" stroke-miterlimit="10"/>
<path d="M166.017 130.644C166.017 130.644 170.337 121.984 179.157 120.064" stroke="#CFD7E8" stroke-width="0.5" stroke-miterlimit="10"/>
<path d="M168.467 134.974C168.467 134.974 173.727 126.104 181.077 124.234" stroke="#CFD7E8" stroke-width="0.5" stroke-miterlimit="10"/>
<path d="M294.284 124.08L272.427 126.974C270.725 127.195 269.142 126.003 268.92 124.284L266.026 102.427C265.805 100.725 266.997 99.1416 268.716 98.9203L290.573 96.0264C292.276 95.8051 293.859 96.9967 294.08 98.716L296.974 120.573C297.195 122.275 295.987 123.841 294.284 124.08Z" fill="white"/>
<path d="M217.498 75.1157C213.308 75.1257 209.468 72.9657 205.838 71.1357C202.588 69.4957 198.518 68.4957 195.638 66.2657C192.248 63.6357 194.958 59.8457 196.308 56.9157C198.038 53.1757 199.158 49.1157 200.498 45.2257C201.068 43.5757 201.668 41.8657 202.858 40.5857C206.008 37.1757 210.558 40.1157 213.918 41.5257C218.658 43.5257 223.408 45.5257 228.158 47.5257C233.338 49.7057 224.158 68.2457 222.648 71.2457C222.008 72.5157 221.278 73.8357 220.028 74.5057C219.208 74.9257 218.368 75.1057 217.498 75.1157Z" fill="#CFD7E8"/>
<path d="M216.458 57.6359C215.348 55.4759 211.748 50.0459 209.558 52.5459C209.158 52.9959 208.958 53.5859 208.768 54.1559C208.238 55.7459 207.698 57.3359 207.168 58.9259C206.958 59.5659 206.758 60.3359 207.178 60.8659C207.628 61.4259 208.498 61.3559 209.208 61.2359C211.198 60.8859 213.188 60.5359 215.178 60.1759C215.868 60.0559 216.708 59.8059 216.858 59.1159C216.938 58.7659 216.798 58.4059 216.658 58.0759C216.608 57.9459 216.538 57.8059 216.458 57.6359Z" fill="white"/>
<path d="M315.067 161.064C315.067 161.064 305.117 159.414 300.697 172.874C297.847 181.544 303.247 188.414 303.247 188.414C303.247 188.414 302.657 191.204 299.297 192.574C298.267 192.994 298.207 194.414 299.197 194.914C303.287 196.984 311.027 199.034 315.567 188.414C315.567 188.414 330.417 178.614 325.107 170.684C319.807 162.744 322.457 163.814 315.067 161.064Z" fill="white" stroke="#C8D4E8" stroke-width="0.5" stroke-miterlimit="10" stroke-linejoin="round"/>
<path d="M323.517 149.915C323.347 148.705 322.107 147.975 320.957 148.385C316.427 150.025 307.087 154.605 310.187 163.865C311.367 167.385 323.647 171.505 320.467 177.355C317.287 183.205 314.327 181.755 314.497 187.745C314.597 191.105 328.887 187.675 330.847 177.355C332.807 167.035 326.507 160.605 324.997 156.235C324.187 153.865 323.747 151.545 323.517 149.915Z" fill="#292C38"/>
<path d="M253.247 145.695L260.567 143.215C261.497 142.905 262.487 143.485 262.647 144.455L267.037 169.735C267.157 170.455 266.787 171.165 266.127 171.465L260.677 173.945C259.767 174.355 258.707 173.845 258.467 172.875L252.217 147.605C252.007 146.785 252.457 145.965 253.247 145.695Z" fill="white" stroke="#292C38" stroke-width="0.5" stroke-miterlimit="10" stroke-linejoin="round"/>
<path d="M255.147 159.475C253.647 162.145 251.847 167.455 255.387 174.455C255.387 174.455 251.037 192.825 247.527 202.165C244.017 211.505 244.867 215.785 251.007 217.055C257.157 218.325 273.507 216.735 276.637 213.805L272.487 204.085C272.487 204.085 263.467 209.145 257.787 205.145C252.107 201.145 260.417 182.725 260.937 176.135C261.007 175.295 261.047 174.495 261.057 173.755C261.187 168.635 260.317 165.755 260.317 165.755C260.317 165.755 259.017 170.115 257.727 169.905C257.547 169.885 257.367 169.765 257.197 169.535C256.257 168.305 255.667 165.045 255.757 161.945L255.147 159.475Z" fill="white" stroke="#C8D4E8" stroke-width="0.5" stroke-miterlimit="10" stroke-linejoin="round"/>
<path d="M292.997 198.884C295.167 202.714 289.687 213.234 275.507 216.084C275.507 216.084 268.497 210.804 268.487 204.074C268.487 201.214 274.587 198.504 280.527 197.294C286.467 196.084 291.577 196.384 292.997 198.884Z" fill="#3457E5"/>
<path d="M293.057 199.024C292.897 199.094 292.737 199.204 292.577 199.374C290.797 201.184 289.827 203.654 288.057 205.514C287.457 206.144 286.827 206.724 286.167 207.264C281.977 210.684 276.507 212.314 271.077 211.374C273.077 214.254 275.507 216.094 275.507 216.094C289.537 213.264 295.037 202.964 293.057 199.024Z" fill="#0539DB"/>
<path d="M238.057 143.595C238.227 143.485 238.387 143.375 238.547 143.265C239.537 143.635 240.597 143.815 241.677 143.815C240.947 143.345 240.297 142.765 239.747 142.105C240.697 142.555 241.807 142.655 242.867 142.345C241.987 141.915 241.177 141.345 240.477 140.615C240.797 139.465 240.667 138.205 240.007 137.155C238.737 135.125 235.987 134.605 233.857 135.985C233.557 136.185 233.287 136.405 233.037 136.645C231.267 133.495 231.097 129.805 232.307 126.475C231.537 126.535 230.757 126.785 230.047 127.245C228.707 128.115 227.927 129.535 227.857 130.975C227.497 130.365 227.317 129.685 227.287 129.005L227.237 129.035C225.357 130.255 224.597 132.535 225.307 134.435C225.027 134.185 224.767 133.895 224.557 133.565C224.407 133.335 224.287 133.085 224.187 132.835C222.947 134.295 222.697 136.375 223.687 137.985C221.847 137.415 220.217 136.245 219.117 134.545C218.927 134.255 218.757 133.945 218.607 133.645C218.547 135.965 219.147 138.295 220.487 140.345C224.827 147.005 233.017 146.875 238.057 143.595Z" fill="#3457E5"/>
<path d="M280.502 102.726L280.333 102.751C276.057 103.363 273.085 107.31 273.695 111.568L274.957 120.382L278.086 119.934L276.825 111.12C276.462 108.588 278.237 106.231 280.779 105.867L280.949 105.843C283.491 105.479 285.856 107.244 286.218 109.775L287.48 118.589L290.61 118.141L289.348 109.327C288.738 105.069 284.779 102.114 280.502 102.726Z" fill="#3457E5"/>
<path d="M284.348 119.037L281.218 119.486L279.968 110.756C279.845 109.895 280.447 109.096 281.311 108.972C282.175 108.848 282.977 109.447 283.1 110.307L284.35 119.037L284.348 119.037Z" fill="#12D3EB"/>
</svg>
