<svg width="440" height="280" viewBox="0 0 440 280" fill="none" xmlns="http://www.w3.org/2000/svg">
<path opacity="0.3" d="M220.065 186.95C245.89 186.95 266.825 166.015 266.825 140.19C266.825 114.365 245.89 93.4301 220.065 93.4301C194.24 93.4301 173.305 114.365 173.305 140.19C173.305 166.015 194.24 186.95 220.065 186.95Z" fill="#C8D4E8"/>
<path d="M315.489 195.286C322.47 183.195 285.406 148.726 232.705 118.298C180.003 87.87 131.621 73.0047 124.64 85.0956C117.659 97.1864 154.723 131.655 207.425 162.083C260.126 192.511 308.508 207.376 315.489 195.286Z" stroke="#C8D4E8" stroke-miterlimit="10" stroke-linecap="round" stroke-linejoin="round"/>
<path d="M232.705 162.079C285.406 131.651 322.47 97.1824 315.489 85.0915C308.508 73.0006 260.126 87.8659 207.425 118.294C154.723 148.722 117.659 183.191 124.64 195.282C131.621 207.372 180.003 192.507 232.705 162.079Z" stroke="#C8D4E8" stroke-miterlimit="10" stroke-linecap="round" stroke-linejoin="round"/>
<path d="M220.065 250.38C234.027 250.38 245.345 201.046 245.345 140.19C245.345 79.3337 234.027 30 220.065 30C206.103 30 194.785 79.3337 194.785 140.19C194.785 201.046 206.103 250.38 220.065 250.38Z" stroke="#C8D4E8" stroke-miterlimit="10" stroke-linecap="round" stroke-linejoin="round"/>
<path d="M220.547 44.44C223.899 44.44 226.617 41.7224 226.617 38.37C226.617 35.0176 223.899 32.3 220.547 32.3C217.194 32.3 214.477 35.0176 214.477 38.37C214.477 41.7224 217.194 44.44 220.547 44.44Z" fill="white" stroke="#1A2B6B" stroke-width="2" stroke-miterlimit="10" stroke-linecap="round" stroke-linejoin="round"/>
<path d="M211.967 57.81C209.907 57.81 208.397 55.79 209.067 53.84C210.707 49.09 215.227 45.67 220.537 45.67C225.847 45.67 230.367 49.08 232.007 53.84C232.677 55.79 231.167 57.81 229.107 57.81H211.967Z" fill="white" stroke="#1A2B6B" stroke-width="2" stroke-miterlimit="10" stroke-linecap="round" stroke-linejoin="round"/>
<path d="M222.277 39.81C222.567 39.81 222.787 40.09 222.717 40.37C222.467 41.33 221.597 42.05 220.547 42.05C219.507 42.05 218.627 41.34 218.377 40.37C218.307 40.09 218.517 39.81 218.817 39.81H222.277Z" fill="#3457E5"/>
<path d="M139.556 91.2001C142.909 91.2001 145.626 88.4824 145.626 85.1301C145.626 81.7777 142.909 79.0601 139.556 79.0601C136.204 79.0601 133.486 81.7777 133.486 85.1301C133.486 88.4824 136.204 91.2001 139.556 91.2001Z" fill="white" stroke="#1A2B6B" stroke-width="2" stroke-miterlimit="10" stroke-linecap="round" stroke-linejoin="round"/>
<path d="M130.977 104.57C128.917 104.57 127.407 102.55 128.077 100.6C129.717 95.8501 134.237 92.4301 139.547 92.4301C144.857 92.4301 149.377 95.8401 151.017 100.6C151.687 102.55 150.177 104.57 148.117 104.57H130.977Z" fill="white" stroke="#1A2B6B" stroke-width="2" stroke-miterlimit="10" stroke-linecap="round" stroke-linejoin="round"/>
<path d="M141.287 86.5701C141.577 86.5701 141.797 86.8501 141.727 87.1301C141.477 88.0901 140.607 88.8101 139.557 88.8101C138.517 88.8101 137.637 88.1001 137.387 87.1301C137.317 86.8501 137.527 86.5701 137.827 86.5701H141.287Z" fill="#3457E5"/>
<path d="M139.556 184.72C142.909 184.72 145.626 182.002 145.626 178.65C145.626 175.298 142.909 172.58 139.556 172.58C136.204 172.58 133.486 175.298 133.486 178.65C133.486 182.002 136.204 184.72 139.556 184.72Z" fill="white" stroke="#1A2B6B" stroke-width="2" stroke-miterlimit="10" stroke-linecap="round" stroke-linejoin="round"/>
<path d="M130.977 198.08C128.917 198.08 127.407 196.06 128.077 194.11C129.717 189.36 134.237 185.94 139.547 185.94C144.857 185.94 149.377 189.35 151.017 194.11C151.687 196.06 150.177 198.08 148.117 198.08H130.977Z" fill="white" stroke="#1A2B6B" stroke-width="2" stroke-miterlimit="10" stroke-linecap="round" stroke-linejoin="round"/>
<path d="M141.287 180.08C141.577 180.08 141.797 180.36 141.727 180.64C141.477 181.6 140.607 182.32 139.557 182.32C138.517 182.32 137.637 181.61 137.387 180.64C137.317 180.36 137.527 180.08 137.827 180.08H141.287Z" fill="#3457E5"/>
<path d="M301.535 184.72C304.887 184.72 307.605 182.002 307.605 178.65C307.605 175.298 304.887 172.58 301.535 172.58C298.182 172.58 295.465 175.298 295.465 178.65C295.465 182.002 298.182 184.72 301.535 184.72Z" fill="white" stroke="#1A2B6B" stroke-width="2" stroke-miterlimit="10" stroke-linecap="round" stroke-linejoin="round"/>
<path d="M292.955 198.08C290.895 198.08 289.385 196.06 290.055 194.11C291.695 189.36 296.215 185.94 301.525 185.94C306.835 185.94 311.355 189.35 312.995 194.11C313.665 196.06 312.155 198.08 310.095 198.08H292.955Z" fill="white" stroke="#1A2B6B" stroke-width="2" stroke-miterlimit="10" stroke-linecap="round" stroke-linejoin="round"/>
<path d="M303.265 180.08C303.555 180.08 303.775 180.36 303.705 180.64C303.455 181.6 302.585 182.32 301.535 182.32C300.495 182.32 299.615 181.61 299.365 180.64C299.295 180.36 299.505 180.08 299.805 180.08H303.265Z" fill="#3457E5"/>
<path d="M301.535 91.2001C304.887 91.2001 307.605 88.4824 307.605 85.1301C307.605 81.7777 304.887 79.0601 301.535 79.0601C298.182 79.0601 295.465 81.7777 295.465 85.1301C295.465 88.4824 298.182 91.2001 301.535 91.2001Z" fill="white" stroke="#1A2B6B" stroke-width="2" stroke-miterlimit="10" stroke-linecap="round" stroke-linejoin="round"/>
<path d="M292.955 104.57C290.895 104.57 289.385 102.55 290.055 100.6C291.695 95.8501 296.215 92.4301 301.525 92.4301C306.835 92.4301 311.355 95.8401 312.995 100.6C313.665 102.55 312.155 104.57 310.095 104.57H292.955Z" fill="white" stroke="#1A2B6B" stroke-width="2" stroke-miterlimit="10" stroke-linecap="round" stroke-linejoin="round"/>
<path d="M303.265 86.5701C303.555 86.5701 303.775 86.8501 303.705 87.1301C303.455 88.0901 302.585 88.8101 301.535 88.8101C300.495 88.8101 299.615 88.1001 299.365 87.1301C299.295 86.8501 299.505 86.5701 299.805 86.5701H303.265Z" fill="#3457E5"/>
<path d="M220.547 231.48C223.899 231.48 226.617 228.762 226.617 225.41C226.617 222.058 223.899 219.34 220.547 219.34C217.194 219.34 214.477 222.058 214.477 225.41C214.477 228.762 217.194 231.48 220.547 231.48Z" fill="white" stroke="#1A2B6B" stroke-width="2" stroke-miterlimit="10" stroke-linecap="round" stroke-linejoin="round"/>
<path d="M211.967 244.84C209.907 244.84 208.397 242.82 209.067 240.87C210.707 236.12 215.227 232.7 220.537 232.7C225.847 232.7 230.367 236.11 232.007 240.87C232.677 242.82 231.167 244.84 229.107 244.84H211.967Z" fill="white" stroke="#1A2B6B" stroke-width="2" stroke-miterlimit="10" stroke-linecap="round" stroke-linejoin="round"/>
<path d="M222.277 226.84C222.567 226.84 222.787 227.12 222.717 227.4C222.467 228.36 221.597 229.08 220.547 229.08C219.507 229.08 218.627 228.37 218.377 227.4C218.307 227.12 218.517 226.84 218.817 226.84H222.277Z" fill="#3457E5"/>
<path d="M219.566 127.62C224.763 127.62 228.976 123.407 228.976 118.21C228.976 113.013 224.763 108.8 219.566 108.8C214.369 108.8 210.156 113.013 210.156 118.21C210.156 123.407 214.369 127.62 219.566 127.62Z" fill="white" stroke="#1A2B6B" stroke-width="2" stroke-miterlimit="10" stroke-linecap="round" stroke-linejoin="round"/>
<path d="M206.266 148.34C203.076 148.34 200.736 145.2 201.776 142.18C204.326 134.81 211.326 129.52 219.566 129.52C227.806 129.52 234.806 134.81 237.356 142.18C238.396 145.2 236.056 148.34 232.866 148.34H206.266Z" fill="white" stroke="#1A2B6B" stroke-width="2" stroke-miterlimit="10" stroke-linecap="round" stroke-linejoin="round"/>
<path d="M197.437 132.37C199.535 132.37 201.237 130.669 201.237 128.57C201.237 126.471 199.535 124.77 197.437 124.77C195.338 124.77 193.637 126.471 193.637 128.57C193.637 130.669 195.338 132.37 197.437 132.37Z" fill="white" stroke="#3457E5" stroke-width="2" stroke-miterlimit="10" stroke-linecap="round" stroke-linejoin="round"/>
<path d="M195.037 131.49L193.327 133.2C192.347 134.18 191.797 135.51 191.797 136.9V144.76" stroke="#3457E5" stroke-width="2" stroke-miterlimit="10" stroke-linecap="round" stroke-linejoin="round"/>
<path d="M242.736 132.37C244.834 132.37 246.536 130.669 246.536 128.57C246.536 126.471 244.834 124.77 242.736 124.77C240.637 124.77 238.936 126.471 238.936 128.57C238.936 130.669 240.637 132.37 242.736 132.37Z" fill="white" stroke="#3457E5" stroke-width="2" stroke-miterlimit="10" stroke-linecap="round" stroke-linejoin="round"/>
<path d="M245.135 131.49L246.845 133.2C247.825 134.18 248.375 135.51 248.375 136.9V144.76" stroke="#3457E5" stroke-width="2" stroke-miterlimit="10" stroke-linecap="round" stroke-linejoin="round"/>
<path d="M196.586 156.47V171.58" stroke="#1A2B6B" stroke-width="2" stroke-miterlimit="10" stroke-linecap="round" stroke-linejoin="round"/>
<path d="M244.355 156.47V171.58" stroke="#1A2B6B" stroke-width="2" stroke-miterlimit="10" stroke-linecap="round" stroke-linejoin="round"/>
<path d="M212.365 165.68H227.545" stroke="#3457E5" stroke-width="2" stroke-miterlimit="10" stroke-linecap="round" stroke-linejoin="round"/>
<path d="M251.796 144.75H188.336V156.47H251.796V144.75Z" fill="white" stroke="#1A2B6B" stroke-width="2" stroke-miterlimit="10" stroke-linecap="round" stroke-linejoin="round"/>
<path d="M222.166 121.41C222.606 121.41 222.926 121.83 222.826 122.25C222.456 123.7 221.136 124.77 219.566 124.77C217.996 124.77 216.686 123.7 216.306 122.25C216.196 121.82 216.526 121.41 216.966 121.41H222.166Z" fill="#3457E5"/>
<path d="M174.645 93.43C176.407 93.43 177.835 92.0018 177.835 90.2401C177.835 88.4783 176.407 87.05 174.645 87.05C172.883 87.05 171.455 88.4783 171.455 90.2401C171.455 92.0018 172.883 93.43 174.645 93.43Z" fill="#C8D4E8"/>
<path d="M181.026 190.14C182.788 190.14 184.216 188.712 184.216 186.95C184.216 185.188 182.788 183.76 181.026 183.76C179.264 183.76 177.836 185.188 177.836 186.95C177.836 188.712 179.264 190.14 181.026 190.14Z" fill="#C8D4E8"/>
<path d="M242.735 91.99C244.497 91.99 245.925 90.5618 245.925 88.8C245.925 87.0382 244.497 85.61 242.735 85.61C240.973 85.61 239.545 87.0382 239.545 88.8C239.545 90.5618 240.973 91.99 242.735 91.99Z" fill="#C8D4E8"/>
</svg>
