<svg width="440" height="280" viewBox="0 0 440 280" fill="none" xmlns="http://www.w3.org/2000/svg">
<path d="M121 67V132H343V165" stroke="#C8D4E8" stroke-linecap="round"/>
<path d="M133 221H159V132" stroke="#C8D4E8" stroke-linecap="round"/>
<path d="M317 50H216V113.5" stroke="#C8D4E8" stroke-linecap="round"/>
<path d="M283 132V239" stroke="#C8D4E8" stroke-linecap="round"/>
<path d="M121.5 132H92" stroke="#C8D4E8" stroke-linecap="round"/>
<path d="M216 51V35" stroke="#C8D4E8" stroke-linecap="round"/>
<path d="M159 221.5V245" stroke="#C8D4E8" stroke-linecap="round"/>
<path d="M343 132H361.5" stroke="#C8D4E8" stroke-linecap="round"/>
<circle cx="121" cy="67" r="2" fill="#C8D4E8"/>
<circle cx="216" cy="34" r="2" fill="#C8D4E8"/>
<circle cx="315" cy="50" r="2" fill="#C8D4E8"/>
<circle cx="283" cy="239" r="2" fill="#C8D4E8"/>
<circle cx="159" cy="247" r="2" fill="#C8D4E8"/>
<circle cx="134" cy="221" r="2" fill="#C8D4E8"/>
<circle cx="362" cy="132" r="2" fill="#C8D4E8"/>
<circle cx="343" cy="165" r="2" fill="#C8D4E8"/>
<circle cx="91" cy="132" r="2" fill="#C8D4E8"/>
<path d="M332.361 48.7H329.451C328.951 48.7 328.541 49.11 328.541 49.61V61.18H344.851V49.62C344.851 49.12 344.441 48.7099 343.941 48.7099H332.361V48.7Z" fill="white" stroke="#3457E5" stroke-width="2" stroke-miterlimit="10" stroke-linecap="round" stroke-linejoin="round"/>
<path d="M346.05 35.5199C346.05 35.5199 336.75 39.0899 335.73 39.5999C334.71 40.1099 332.16 44.1899 331.59 45.3999C331.02 46.6099 332.04 48.3299 332.35 48.7099H336.04C336.04 48.7099 335.85 47.3099 335.02 46.6099C335.02 46.6099 338.08 45.2399 338.46 44.0399C338.46 44.0399 340.43 45.3899 341.71 45.1999C341.71 45.1999 339.86 47.4299 339.93 48.6999L335.65 51.3299C334.5 52.0299 334.23 53.5799 335.06 54.6399C335.77 55.5299 337.02 55.7499 337.99 55.1599C339.56 54.1999 341.71 52.8699 342.02 52.5899C342.53 52.1399 345.27 52.3399 347.88 48.4499C350.49 44.5599 352.15 39.8499 352.4 38.7699L346.05 35.5199Z" fill="white" stroke="#1A2B6B" stroke-width="2" stroke-miterlimit="10" stroke-linecap="round" stroke-linejoin="round"/>
<path d="M345.451 33.0699L344.001 34.8399C343.711 35.1899 343.821 35.7199 344.221 35.9299L351.141 39.5899C352.561 40.3399 354.271 39.3099 354.271 37.7099V36.8799C354.271 36.5999 354.101 36.3399 353.841 36.2199L346.301 32.8699C346.001 32.7399 345.651 32.8199 345.451 33.0699Z" fill="white" stroke="#1A2B6B" stroke-width="2" stroke-miterlimit="10" stroke-linecap="round" stroke-linejoin="round"/>
<path d="M325.73 61.1899H347.13" stroke="#3457E5" stroke-width="2" stroke-miterlimit="10" stroke-linecap="round" stroke-linejoin="round"/>
<path d="M330.951 48.7H337.631" stroke="#3457E5" stroke-width="2" stroke-miterlimit="10" stroke-linecap="round" stroke-linejoin="round"/>
<path d="M85.361 65.7101H82.451C81.951 65.7101 81.541 66.1201 81.541 66.6201V78.1901H97.851V66.6201C97.851 66.1201 97.441 65.7101 96.941 65.7101H85.361Z" fill="white" stroke="#3457E5" stroke-width="2" stroke-miterlimit="10" stroke-linecap="round" stroke-linejoin="round"/>
<path d="M99.05 52.52C99.05 52.52 89.75 56.09 88.73 56.6C87.71 57.11 85.16 61.19 84.59 62.4C84.02 63.61 85.04 65.33 85.35 65.71H89.04C89.04 65.71 88.85 64.31 88.02 63.61C88.02 63.61 91.08 62.24 91.46 61.04C91.46 61.04 93.43 62.39 94.71 62.2C94.71 62.2 92.86 64.43 92.93 65.7L88.65 68.33C87.5 69.03 87.23 70.58 88.06 71.64C88.77 72.53 90.02 72.75 90.99 72.16C92.56 71.2 94.71 69.87 95.02 69.59C95.53 69.14 98.27 69.34 100.88 65.45C103.49 61.56 105.15 56.85 105.4 55.77L99.05 52.52Z" fill="white" stroke="#1A2B6B" stroke-width="2" stroke-miterlimit="10" stroke-linecap="round" stroke-linejoin="round"/>
<path d="M98.4513 50.08L97.0013 51.84C96.7113 52.19 96.8213 52.72 97.2213 52.93L104.141 56.59C105.561 57.34 107.271 56.31 107.271 54.71V53.88C107.271 53.6 107.101 53.34 106.841 53.22L99.3013 49.87C99.0013 49.75 98.6513 49.83 98.4513 50.08Z" fill="white" stroke="#1A2B6B" stroke-width="2" stroke-miterlimit="10" stroke-linecap="round" stroke-linejoin="round"/>
<path d="M78.7305 78.1901H100.13" stroke="#3457E5" stroke-width="2" stroke-miterlimit="10" stroke-linecap="round" stroke-linejoin="round"/>
<path d="M83.9512 65.7101H90.6312" stroke="#3457E5" stroke-width="2" stroke-miterlimit="10" stroke-linecap="round" stroke-linejoin="round"/>
<path d="M338.361 190.7H335.451C334.951 190.7 334.541 191.11 334.541 191.61V203.18H350.851V191.61C350.851 191.11 350.441 190.7 349.941 190.7H338.361Z" fill="white" stroke="#3457E5" stroke-width="2" stroke-miterlimit="10" stroke-linecap="round" stroke-linejoin="round"/>
<path d="M352.05 177.51C352.05 177.51 342.75 181.08 341.73 181.59C340.71 182.1 338.16 186.18 337.59 187.39C337.02 188.6 338.04 190.32 338.35 190.7H342.04C342.04 190.7 341.85 189.3 341.02 188.6C341.02 188.6 344.08 187.23 344.46 186.03C344.46 186.03 346.43 187.38 347.71 187.19C347.71 187.19 345.86 189.42 345.93 190.69L341.65 193.32C340.5 194.02 340.23 195.57 341.06 196.63C341.77 197.52 343.02 197.74 343.99 197.15C345.56 196.19 347.71 194.86 348.02 194.58C348.53 194.13 351.27 194.33 353.88 190.44C356.49 186.55 358.15 181.84 358.4 180.76L352.05 177.51Z" fill="white" stroke="#1A2B6B" stroke-width="2" stroke-miterlimit="10" stroke-linecap="round" stroke-linejoin="round"/>
<path d="M351.451 175.07L350.001 176.83C349.711 177.18 349.821 177.71 350.221 177.92L357.141 181.58C358.561 182.33 360.271 181.3 360.271 179.7V178.87C360.271 178.59 360.101 178.33 359.841 178.21L352.301 174.86C352.001 174.74 351.651 174.82 351.451 175.07Z" fill="white" stroke="#1A2B6B" stroke-width="2" stroke-miterlimit="10" stroke-linecap="round" stroke-linejoin="round"/>
<path d="M331.73 203.18H353.13" stroke="#3457E5" stroke-width="2" stroke-miterlimit="10" stroke-linecap="round" stroke-linejoin="round"/>
<path d="M336.951 190.7H343.631" stroke="#3457E5" stroke-width="2" stroke-miterlimit="10" stroke-linecap="round" stroke-linejoin="round"/>
<path d="M103.361 220.7H100.451C99.951 220.7 99.541 221.11 99.541 221.61V233.18H115.851V221.61C115.851 221.11 115.441 220.7 114.941 220.7H103.361Z" fill="white" stroke="#3457E5" stroke-width="2" stroke-miterlimit="10" stroke-linecap="round" stroke-linejoin="round"/>
<path d="M117.05 207.52C117.05 207.52 107.75 211.09 106.73 211.6C105.71 212.11 103.16 216.19 102.59 217.4C102.02 218.61 103.04 220.33 103.35 220.71H107.04C107.04 220.71 106.85 219.31 106.02 218.61C106.02 218.61 109.08 217.24 109.46 216.04C109.46 216.04 111.43 217.39 112.71 217.2C112.71 217.2 110.86 219.43 110.93 220.7L106.65 223.33C105.5 224.03 105.23 225.58 106.06 226.64C106.77 227.53 108.02 227.75 108.99 227.16C110.56 226.2 112.71 224.87 113.02 224.59C113.53 224.14 116.27 224.34 118.88 220.45C121.49 216.56 123.15 211.85 123.4 210.77L117.05 207.52Z" fill="white" stroke="#1A2B6B" stroke-width="2" stroke-miterlimit="10" stroke-linecap="round" stroke-linejoin="round"/>
<path d="M116.451 205.07L115.001 206.84C114.711 207.19 114.821 207.72 115.221 207.93L122.141 211.59C123.561 212.34 125.271 211.31 125.271 209.71V208.88C125.271 208.6 125.101 208.34 124.841 208.22L117.301 204.87C117.001 204.74 116.651 204.82 116.451 205.07Z" fill="white" stroke="#1A2B6B" stroke-width="2" stroke-miterlimit="10" stroke-linecap="round" stroke-linejoin="round"/>
<path d="M96.7305 233.19H118.13" stroke="#3457E5" stroke-width="2" stroke-miterlimit="10" stroke-linecap="round" stroke-linejoin="round"/>
<path d="M101.951 220.7H108.631" stroke="#3457E5" stroke-width="2" stroke-miterlimit="10" stroke-linecap="round" stroke-linejoin="round"/>
<path d="M230.233 154.841H181.593C180.236 154.841 179.139 153.746 179.139 152.392V96.3763C179.139 95.0227 180.236 93.9279 181.593 93.9279H230.233C231.59 93.9279 232.687 95.0227 232.687 96.3763V152.392C232.687 153.746 231.59 154.841 230.233 154.841Z" fill="white" stroke="#1A2B6B" stroke-width="2" stroke-miterlimit="10" stroke-linecap="round" stroke-linejoin="round"/>
<path d="M208.377 107.434H222.004" stroke="#1A2B6B" stroke-width="2" stroke-miterlimit="10" stroke-linecap="round" stroke-linejoin="round"/>
<path d="M208.377 114.949H222.004" stroke="#1A2B6B" stroke-width="2" stroke-miterlimit="10" stroke-linecap="round" stroke-linejoin="round"/>
<path d="M185.951 128.455H222.003" stroke="#1A2B6B" stroke-width="2" stroke-miterlimit="10" stroke-linecap="round" stroke-linejoin="round"/>
<path d="M185.951 142.121H222.003" stroke="#1A2B6B" stroke-width="2" stroke-miterlimit="10" stroke-linecap="round" stroke-linejoin="round"/>
<path d="M188.574 101.9H193.313C196.136 101.9 197.542 103.005 197.542 105.225C197.542 106.31 197.063 107.215 196.096 107.942C197.492 108.559 198.191 109.634 198.191 111.187C198.191 112.331 197.812 113.247 197.063 113.924C196.315 114.601 195.318 114.939 194.091 114.939H193.053V111.595H193.722C194.111 111.595 194.39 111.545 194.55 111.435C194.709 111.336 194.789 111.157 194.789 110.908C194.789 110.49 194.46 110.281 193.811 110.281H193.063V106.817C193.781 106.817 194.141 106.568 194.141 106.071C194.141 105.613 193.821 105.384 193.183 105.384H192.455V114.929H188.574V101.9Z" fill="#3457E5"/>
<path d="M221.813 160.713C224.217 157.389 226.771 154.194 229.494 151.119C230.741 149.715 231.908 148.431 233.026 147.277C234.033 146.232 235.041 145.276 235.998 144.38C237.475 142.927 239.071 141.603 240.767 140.419L239.221 138.379C236.986 139.772 234.831 141.265 233.165 142.41C232.198 143.076 231.3 143.723 230.452 144.331C229.604 144.938 228.746 145.604 227.838 146.301C226.252 147.515 224.217 149.138 222.242 150.82L217.294 146.162L211.479 150.72L221.813 160.713Z" fill="#3457E5"/>
<path d="M253.676 180.54H204.607C203.24 180.54 202.133 179.435 202.133 178.072V121.578C202.133 120.214 203.24 119.109 204.607 119.109H253.676C255.043 119.109 256.15 120.214 256.15 121.578V178.082C256.15 179.435 255.043 180.54 253.676 180.54Z" fill="white" stroke="#1A2B6B" stroke-width="2" stroke-miterlimit="10" stroke-linecap="round" stroke-linejoin="round"/>
<path d="M231.631 132.725H245.367" stroke="#1A2B6B" stroke-width="2" stroke-miterlimit="10" stroke-linecap="round" stroke-linejoin="round"/>
<path d="M231.631 140.299H245.367" stroke="#1A2B6B" stroke-width="2" stroke-miterlimit="10" stroke-linecap="round" stroke-linejoin="round"/>
<path d="M209.006 153.925H245.367" stroke="#1A2B6B" stroke-width="2" stroke-miterlimit="10" stroke-linecap="round" stroke-linejoin="round"/>
<path d="M209.006 167.71H245.367" stroke="#1A2B6B" stroke-width="2" stroke-miterlimit="10" stroke-linecap="round" stroke-linejoin="round"/>
<path d="M217.524 133.87V137.323H216.417V140.459H212.486V132.098C212.486 130.476 212.925 129.222 213.813 128.326C214.701 127.43 215.938 126.982 217.554 126.982C219.1 126.982 220.237 127.39 220.976 128.206C221.714 129.023 222.083 130.267 222.083 131.959V140.459H218.172V132.218C218.172 131.72 218.113 131.362 217.983 131.162C217.853 130.963 217.644 130.854 217.344 130.854C216.736 130.854 216.437 131.302 216.437 132.218V133.87H217.524Z" fill="#3457E5"/>
<path d="M245.047 186.472C247.472 183.118 250.055 179.893 252.789 176.797C254.045 175.374 255.223 174.08 256.35 172.926C257.367 171.871 258.385 170.905 259.352 169.999C260.839 168.536 262.455 167.203 264.171 165.998L262.614 163.938C260.36 165.351 258.185 166.854 256.509 168.009C255.532 168.686 254.624 169.333 253.776 169.95C252.918 170.567 252.06 171.234 251.133 171.94C249.536 173.165 247.482 174.807 245.486 176.499L240.489 171.801L234.623 176.399L245.047 186.472Z" fill="#3457E5"/>
</svg>
