<svg width="210" height="237" viewBox="0 0 210 237" fill="none" xmlns="http://www.w3.org/2000/svg">
<path d="M192.605 169.106V67.9345L104.989 17.349L17.373 67.9345V169.106L104.989 219.691L192.605 169.106Z" stroke="#C8D4E8" stroke-miterlimit="10" stroke-linecap="round" stroke-linejoin="round"/>
<path d="M104.988 17.349V219.691" stroke="#C8D4E8" stroke-miterlimit="10" stroke-linecap="round" stroke-linejoin="round"/>
<path d="M17.373 67.9345H192.605" stroke="#C8D4E8" stroke-miterlimit="10" stroke-linecap="round" stroke-linejoin="round"/>
<path d="M17.373 169.106H192.605" stroke="#C8D4E8" stroke-miterlimit="10" stroke-linecap="round" stroke-linejoin="round"/>
<path d="M17.373 67.9345L104.989 219.691" stroke="#C8D4E8" stroke-miterlimit="10" stroke-linecap="round" stroke-linejoin="round"/>
<path d="M104.988 17.349L192.604 169.105" stroke="#C8D4E8" stroke-miterlimit="10" stroke-linecap="round" stroke-linejoin="round"/>
<path d="M192.604 67.9345L104.988 219.691" stroke="#C8D4E8" stroke-miterlimit="10" stroke-linecap="round" stroke-linejoin="round"/>
<path d="M104.989 17.349L17.373 169.105" stroke="#C8D4E8" stroke-miterlimit="10" stroke-linecap="round" stroke-linejoin="round"/>
<path d="M17.373 67.9345L192.605 169.106" stroke="#C8D4E8" stroke-miterlimit="10" stroke-linecap="round" stroke-linejoin="round"/>
<path d="M17.373 169.106L192.605 67.9345" stroke="#C8D4E8" stroke-miterlimit="10" stroke-linecap="round" stroke-linejoin="round"/>
<path d="M105.506 14.9474C109.133 14.9474 112.073 12.0074 112.073 8.38077C112.073 4.75414 109.133 1.81418 105.506 1.81418C101.879 1.81418 98.9395 4.75414 98.9395 8.38077C98.9395 12.0074 101.879 14.9474 105.506 14.9474Z" fill="white" stroke="#1A2B6B" stroke-width="2" stroke-miterlimit="10" stroke-linecap="round" stroke-linejoin="round"/>
<path d="M96.2254 29.4003C93.9969 29.4003 92.3633 27.2151 93.0882 25.1056C94.8731 19.9561 99.7629 16.2672 105.507 16.2672C111.252 16.2672 116.142 19.9561 117.916 25.1056C118.641 27.2151 117.007 29.4003 114.778 29.4003H96.2254Z" fill="white" stroke="#1A2B6B" stroke-width="2" stroke-miterlimit="10" stroke-linecap="round" stroke-linejoin="round"/>
<path d="M107.378 9.92776C107.692 9.92776 107.93 10.2307 107.854 10.5336C107.584 11.5721 106.643 12.351 105.507 12.351C104.382 12.351 103.43 11.5829 103.159 10.5336C103.083 10.2307 103.311 9.92776 103.635 9.92776H107.378Z" fill="#3457E5"/>
<path d="M120.045 30.4822H111.607C110.947 30.4822 110.428 29.898 110.46 29.2057L110.893 21.3625C110.926 20.7243 111.434 20.2266 112.04 20.2266H119.602C120.208 20.2266 120.705 20.7243 120.748 21.3625L121.181 29.2057C121.224 29.898 120.705 30.4822 120.045 30.4822Z" fill="white" stroke="#3457E5" stroke-width="2" stroke-miterlimit="10" stroke-linecap="round" stroke-linejoin="round"/>
<path d="M117.827 23.0718V19.3504C117.827 18.2469 116.929 17.349 115.826 17.349C114.722 17.349 113.824 18.2469 113.824 19.3504V23.0718" stroke="#3457E5" stroke-width="2" stroke-miterlimit="10" stroke-linecap="round" stroke-linejoin="round"/>
<path d="M17.8928 65.5329C21.5194 65.5329 24.4594 62.5929 24.4594 58.9663C24.4594 55.3397 21.5194 52.3997 17.8928 52.3997C14.2661 52.3997 11.3262 55.3397 11.3262 58.9663C11.3262 62.5929 14.2661 65.5329 17.8928 65.5329Z" fill="white" stroke="#1A2B6B" stroke-width="2" stroke-miterlimit="10" stroke-linecap="round" stroke-linejoin="round"/>
<path d="M8.61213 79.9859C6.3836 79.9859 4.75006 77.8006 5.47488 75.6911C7.24905 70.5525 12.1388 66.8527 17.8833 66.8527C23.6277 66.8527 28.5175 70.5416 30.2916 75.6911C31.0164 77.8006 29.3829 79.9859 27.1544 79.9859H8.61213Z" fill="white" stroke="#1A2B6B" stroke-width="2" stroke-miterlimit="10" stroke-linecap="round" stroke-linejoin="round"/>
<path d="M19.7649 60.5133C20.0787 60.5133 20.3167 60.8162 20.2409 61.1191C19.9705 62.1576 19.0293 62.9365 17.8934 62.9365C16.7683 62.9365 15.8163 62.1684 15.5459 61.1191C15.4702 60.8162 15.6973 60.5133 16.0219 60.5133H19.7649Z" fill="#3457E5"/>
<path d="M32.4339 81.0677H23.9958C23.3359 81.0677 22.8166 80.4835 22.8491 79.7911L23.2818 71.948C23.3143 71.3097 23.8227 70.8121 24.4285 70.8121H31.9904C32.5962 70.8121 33.0939 71.3097 33.1371 71.948L33.5699 79.7911C33.6131 80.4835 33.0939 81.0677 32.4339 81.0677Z" fill="white" stroke="#3457E5" stroke-width="2" stroke-miterlimit="10" stroke-linecap="round" stroke-linejoin="round"/>
<path d="M30.2156 73.6573V69.9358C30.2156 68.8324 29.3177 67.9345 28.2142 67.9345C27.1108 67.9345 26.2129 68.8324 26.2129 69.9358V73.6573" stroke="#3457E5" stroke-width="2" stroke-miterlimit="10" stroke-linecap="round" stroke-linejoin="round"/>
<path d="M17.8928 166.693C21.5194 166.693 24.4594 163.753 24.4594 160.126C24.4594 156.5 21.5194 153.56 17.8928 153.56C14.2661 153.56 11.3262 156.5 11.3262 160.126C11.3262 163.753 14.2661 166.693 17.8928 166.693Z" fill="white" stroke="#1A2B6B" stroke-width="2" stroke-miterlimit="10" stroke-linecap="round" stroke-linejoin="round"/>
<path d="M8.61213 181.157C6.3836 181.157 4.75006 178.972 5.47488 176.862C7.24905 171.723 12.1388 168.024 17.8833 168.024C23.6277 168.024 28.5175 171.713 30.2916 176.862C31.0164 178.972 29.3829 181.157 27.1544 181.157H8.61213Z" fill="white" stroke="#1A2B6B" stroke-width="2" stroke-miterlimit="10" stroke-linecap="round" stroke-linejoin="round"/>
<path d="M19.7649 161.684C20.0787 161.684 20.3167 161.987 20.2409 162.29C19.9705 163.329 19.0293 164.108 17.8934 164.108C16.7683 164.108 15.8163 163.339 15.5459 162.29C15.4702 161.987 15.6973 161.684 16.0219 161.684H19.7649Z" fill="#3457E5"/>
<path d="M32.4339 182.239H23.9958C23.3359 182.239 22.8166 181.655 22.8491 180.962L23.2818 173.119C23.3143 172.481 23.8227 171.983 24.4285 171.983H31.9904C32.5962 171.983 33.0939 172.481 33.1371 173.119L33.5699 180.962C33.6131 181.644 33.0939 182.239 32.4339 182.239Z" fill="white" stroke="#3457E5" stroke-width="2" stroke-miterlimit="10" stroke-linecap="round" stroke-linejoin="round"/>
<path d="M30.2156 174.828V171.107C30.2156 170.003 29.3177 169.105 28.2142 169.105C27.1108 169.105 26.2129 170.003 26.2129 171.107V174.828" stroke="#3457E5" stroke-width="2" stroke-miterlimit="10" stroke-linecap="round" stroke-linejoin="round"/>
<path d="M193.125 166.693C196.752 166.693 199.692 163.753 199.692 160.126C199.692 156.5 196.752 153.56 193.125 153.56C189.499 153.56 186.559 156.5 186.559 160.126C186.559 163.753 189.499 166.693 193.125 166.693Z" fill="white" stroke="#1A2B6B" stroke-width="2" stroke-miterlimit="10" stroke-linecap="round" stroke-linejoin="round"/>
<path d="M183.845 181.157C181.616 181.157 179.982 178.972 180.707 176.862C182.481 171.724 187.371 168.024 193.116 168.024C198.86 168.024 203.75 171.713 205.524 176.862C206.249 178.972 204.615 181.157 202.387 181.157H183.845Z" fill="white" stroke="#1A2B6B" stroke-width="2" stroke-miterlimit="10" stroke-linecap="round" stroke-linejoin="round"/>
<path d="M194.997 161.684C195.311 161.684 195.549 161.987 195.473 162.29C195.203 163.329 194.262 164.108 193.126 164.108C192.001 164.108 191.049 163.339 190.778 162.29C190.703 161.987 190.93 161.684 191.254 161.684H194.997Z" fill="#3457E5"/>
<path d="M207.666 182.239H199.228C198.568 182.239 198.049 181.655 198.082 180.962L198.514 173.119C198.547 172.481 199.055 171.983 199.661 171.983H207.223C207.829 171.983 208.326 172.481 208.37 173.119L208.802 180.962C208.846 181.644 208.315 182.239 207.666 182.239Z" fill="white" stroke="#3457E5" stroke-width="2" stroke-miterlimit="10" stroke-linecap="round" stroke-linejoin="round"/>
<path d="M205.448 174.828V171.107C205.448 170.003 204.55 169.106 203.447 169.106C202.343 169.106 201.445 170.003 201.445 171.107V174.828" stroke="#3457E5" stroke-width="2" stroke-miterlimit="10" stroke-linecap="round" stroke-linejoin="round"/>
<path d="M193.125 65.5328C196.752 65.5328 199.692 62.5929 199.692 58.9663C199.692 55.3396 196.752 52.3997 193.125 52.3997C189.499 52.3997 186.559 55.3396 186.559 58.9663C186.559 62.5929 189.499 65.5328 193.125 65.5328Z" fill="white" stroke="#1A2B6B" stroke-width="2" stroke-miterlimit="10" stroke-linecap="round" stroke-linejoin="round"/>
<path d="M183.845 79.9859C181.616 79.9859 179.982 77.8006 180.707 75.6911C182.481 70.5525 187.371 66.8527 193.116 66.8527C198.86 66.8527 203.75 70.5416 205.524 75.6911C206.249 77.8006 204.615 79.9859 202.387 79.9859H183.845Z" fill="white" stroke="#1A2B6B" stroke-width="2" stroke-miterlimit="10" stroke-linecap="round" stroke-linejoin="round"/>
<path d="M194.997 60.5132C195.311 60.5132 195.549 60.8161 195.473 61.1191C195.203 62.1576 194.262 62.9365 193.126 62.9365C192.001 62.9365 191.049 62.1684 190.778 61.1191C190.703 60.8161 190.93 60.5132 191.254 60.5132H194.997Z" fill="#3457E5"/>
<path d="M207.666 81.0677H199.228C198.568 81.0677 198.049 80.4835 198.082 79.7911L198.514 71.948C198.547 71.3097 199.055 70.8121 199.661 70.8121H207.223C207.829 70.8121 208.326 71.3097 208.37 71.948L208.802 79.7911C208.846 80.4835 208.315 81.0677 207.666 81.0677Z" fill="white" stroke="#3457E5" stroke-width="2" stroke-miterlimit="10" stroke-linecap="round" stroke-linejoin="round"/>
<path d="M205.448 73.6572V69.9358C205.448 68.8324 204.55 67.9344 203.447 67.9344C202.343 67.9344 201.445 68.8324 201.445 69.9358V73.6572" stroke="#3457E5" stroke-width="2" stroke-miterlimit="10" stroke-linecap="round" stroke-linejoin="round"/>
<path d="M105.506 217.279C109.133 217.279 112.073 214.339 112.073 210.712C112.073 207.085 109.133 204.145 105.506 204.145C101.879 204.145 98.9395 207.085 98.9395 210.712C98.9395 214.339 101.879 217.279 105.506 217.279Z" fill="white" stroke="#1A2B6B" stroke-width="2" stroke-miterlimit="10" stroke-linecap="round" stroke-linejoin="round"/>
<path d="M96.2254 231.732C93.9969 231.732 92.3633 229.546 93.0882 227.437C94.8623 222.298 99.7521 218.598 105.497 218.598C111.241 218.598 116.131 222.287 117.905 227.437C118.63 229.546 116.996 231.732 114.768 231.732H96.2254Z" fill="white" stroke="#1A2B6B" stroke-width="2" stroke-miterlimit="10" stroke-linecap="round" stroke-linejoin="round"/>
<path d="M107.378 212.259C107.692 212.259 107.93 212.562 107.854 212.865C107.584 213.903 106.643 214.682 105.507 214.682C104.382 214.682 103.43 213.914 103.159 212.865C103.083 212.562 103.311 212.259 103.635 212.259H107.378Z" fill="#3457E5"/>
<path d="M120.045 232.813H111.607C110.947 232.813 110.428 232.229 110.46 231.537L110.893 223.694C110.926 223.055 111.434 222.558 112.04 222.558H119.602C120.208 222.558 120.705 223.055 120.748 223.694L121.181 231.537C121.224 232.229 120.705 232.813 120.045 232.813Z" fill="white" stroke="#3457E5" stroke-width="2" stroke-miterlimit="10" stroke-linecap="round" stroke-linejoin="round"/>
<path d="M117.827 225.414V221.692C117.827 220.589 116.929 219.691 115.826 219.691C114.722 219.691 113.824 220.589 113.824 221.692V225.414" stroke="#3457E5" stroke-width="2" stroke-miterlimit="10" stroke-linecap="round" stroke-linejoin="round"/>
<path d="M127.427 99.9453H83.5918V134.996H127.427V99.9453Z" fill="white" stroke="#1A2B6B" stroke-miterlimit="10" stroke-linecap="round" stroke-linejoin="round"/>
<path d="M105.509 83.545L74.3203 102.087H136.698L105.509 83.545Z" fill="white" stroke="#1A2B6B" stroke-width="2" stroke-miterlimit="10" stroke-linecap="round" stroke-linejoin="round"/>
<path d="M105.51 97.0352C107.374 97.0352 108.885 95.524 108.885 93.6599C108.885 91.7958 107.374 90.2847 105.51 90.2847C103.646 90.2847 102.135 91.7958 102.135 93.6599C102.135 95.524 103.646 97.0352 105.51 97.0352Z" stroke="#1A2B6B" stroke-width="2" stroke-miterlimit="10" stroke-linecap="round" stroke-linejoin="round"/>
<path d="M86.9682 102.087H80.2285V105.463H86.9682V102.087Z" fill="white" stroke="#1A2B6B" stroke-width="2" stroke-miterlimit="10" stroke-linecap="round" stroke-linejoin="round"/>
<path d="M101.289 102.087H94.5488V105.463H101.289V102.087Z" fill="white" stroke="#1A2B6B" stroke-width="2" stroke-miterlimit="10" stroke-linecap="round" stroke-linejoin="round"/>
<path d="M115.623 102.087H108.883V105.463H115.623V102.087Z" fill="white" stroke="#1A2B6B" stroke-width="2" stroke-miterlimit="10" stroke-linecap="round" stroke-linejoin="round"/>
<path d="M130.792 102.087H124.053V105.463H130.792V102.087Z" fill="white" stroke="#1A2B6B" stroke-width="2" stroke-miterlimit="10" stroke-linecap="round" stroke-linejoin="round"/>
<path d="M131.645 133.276H79.3828V139.172H131.645V133.276Z" fill="white" stroke="#1A2B6B" stroke-width="2" stroke-miterlimit="10" stroke-linecap="round" stroke-linejoin="round"/>
<path d="M75.1641 139.183H135.854" stroke="#1A2B6B" stroke-width="2" stroke-miterlimit="10" stroke-linecap="round" stroke-linejoin="round"/>
<path d="M83.5918 106.306V133.276" stroke="#1A2B6B" stroke-width="2" stroke-miterlimit="10" stroke-linecap="round" stroke-linejoin="round"/>
<path d="M97.9258 106.306V133.276" stroke="#1A2B6B" stroke-width="2" stroke-miterlimit="10" stroke-linecap="round" stroke-linejoin="round"/>
<path d="M112.25 106.306V133.276" stroke="#1A2B6B" stroke-width="2" stroke-miterlimit="10" stroke-linecap="round" stroke-linejoin="round"/>
<path d="M127.426 106.306V133.276" stroke="#1A2B6B" stroke-width="2" stroke-miterlimit="10" stroke-linecap="round" stroke-linejoin="round"/>
<path d="M105.51 83.4476V74.1765" stroke="#1A2B6B" stroke-miterlimit="10" stroke-linecap="round" stroke-linejoin="round"/>
<path d="M113.623 79.9642H106.667C106.029 79.9642 105.51 79.4449 105.51 78.8067V75.3341C105.51 74.6958 106.029 74.1765 106.667 74.1765H113.623C114.262 74.1765 114.781 74.6958 114.781 75.3341V78.8067C114.781 79.4449 114.262 79.9642 113.623 79.9642Z" fill="#3457E5"/>
</svg>
