<svg width="440" height="280" viewBox="0 0 440 280" fill="none" xmlns="http://www.w3.org/2000/svg">
<path d="M74.4802 89.78C77.8325 89.78 80.5502 87.0624 80.5502 83.71C80.5502 80.3576 77.8325 77.64 74.4802 77.64C71.1278 77.64 68.4102 80.3576 68.4102 83.71C68.4102 87.0624 71.1278 89.78 74.4802 89.78Z" fill="white" stroke="#1A2B6B" stroke-width="2" stroke-miterlimit="10" stroke-linecap="round" stroke-linejoin="round"/>
<path d="M65.9008 103.14C63.8408 103.14 62.3308 101.12 63.0008 99.17C64.6508 94.41 69.1708 91 74.4808 91C79.7908 91 84.3108 94.41 85.9508 99.17C86.6208 101.12 85.1108 103.14 83.0508 103.14H65.9008Z" fill="white" stroke="#1A2B6B" stroke-width="2" stroke-miterlimit="10" stroke-linecap="round" stroke-linejoin="round"/>
<path d="M76.2104 85.14C76.5004 85.14 76.7204 85.42 76.6504 85.7C76.4004 86.66 75.5304 87.38 74.4804 87.38C73.4404 87.38 72.5604 86.67 72.3104 85.7C72.2404 85.42 72.4504 85.14 72.7504 85.14H76.2104Z" fill="#3457E5"/>
<path d="M87.9199 104.14H80.1199C79.5099 104.14 79.0299 103.6 79.0599 102.96L79.4599 95.71C79.4899 95.12 79.9599 94.66 80.5199 94.66H87.5099C88.0699 94.66 88.5299 95.12 88.5699 95.71L88.9699 102.96C89.0099 103.6 88.5299 104.14 87.9199 104.14Z" fill="white" stroke="#3457E5" stroke-width="2" stroke-miterlimit="10" stroke-linecap="round" stroke-linejoin="round"/>
<path d="M85.8699 97.29V93.85C85.8699 92.83 85.0399 92 84.0199 92C82.9999 92 82.1699 92.83 82.1699 93.85V97.29" stroke="#3457E5" stroke-width="2" stroke-miterlimit="10" stroke-linecap="round" stroke-linejoin="round"/>
<path d="M74.4802 185.78C77.8325 185.78 80.5502 183.062 80.5502 179.71C80.5502 176.358 77.8325 173.64 74.4802 173.64C71.1278 173.64 68.4102 176.358 68.4102 179.71C68.4102 183.062 71.1278 185.78 74.4802 185.78Z" fill="white" stroke="#1A2B6B" stroke-width="2" stroke-miterlimit="10" stroke-linecap="round" stroke-linejoin="round"/>
<path d="M65.9008 199.14C63.8408 199.14 62.3308 197.12 63.0008 195.17C64.6408 190.42 69.1608 187 74.4708 187C79.7808 187 84.3008 190.41 85.9408 195.17C86.6108 197.12 85.1008 199.14 83.0408 199.14H65.9008Z" fill="white" stroke="#1A2B6B" stroke-width="2" stroke-miterlimit="10" stroke-linecap="round" stroke-linejoin="round"/>
<path d="M76.2104 181.14C76.5004 181.14 76.7204 181.42 76.6504 181.7C76.4004 182.66 75.5304 183.38 74.4804 183.38C73.4404 183.38 72.5604 182.67 72.3104 181.7C72.2404 181.42 72.4504 181.14 72.7504 181.14H76.2104Z" fill="#3457E5"/>
<path d="M87.9199 200.14H80.1199C79.5099 200.14 79.0299 199.6 79.0599 198.96L79.4599 191.71C79.4899 191.12 79.9599 190.66 80.5199 190.66H87.5099C88.0699 190.66 88.5299 191.12 88.5699 191.71L88.9699 198.96C89.0099 199.6 88.5299 200.14 87.9199 200.14Z" fill="white" stroke="#3457E5" stroke-width="2" stroke-miterlimit="10" stroke-linecap="round" stroke-linejoin="round"/>
<path d="M85.8699 193.3V189.86C85.8699 188.84 85.0399 188.01 84.0199 188.01C82.9999 188.01 82.1699 188.84 82.1699 189.86V193.3" stroke="#3457E5" stroke-width="2" stroke-miterlimit="10" stroke-linecap="round" stroke-linejoin="round"/>
<path d="M100 92H142V188H100" stroke="#C8D4E8"/>
<path d="M100 140L335 140" stroke="#C8D4E8"/>
<path d="M74.4802 137.78C77.8325 137.78 80.5502 135.062 80.5502 131.71C80.5502 128.358 77.8325 125.64 74.4802 125.64C71.1278 125.64 68.4102 128.358 68.4102 131.71C68.4102 135.062 71.1278 137.78 74.4802 137.78Z" fill="white" stroke="#1A2B6B" stroke-width="2" stroke-miterlimit="10" stroke-linecap="round" stroke-linejoin="round"/>
<path d="M65.9008 151.14C63.8408 151.14 62.3308 149.12 63.0008 147.17C64.6408 142.42 69.1608 139 74.4708 139C79.7808 139 84.3008 142.41 85.9408 147.17C86.6108 149.12 85.1008 151.14 83.0408 151.14H65.9008Z" fill="white" stroke="#1A2B6B" stroke-width="2" stroke-miterlimit="10" stroke-linecap="round" stroke-linejoin="round"/>
<path d="M76.2104 133.14C76.5004 133.14 76.7204 133.42 76.6504 133.7C76.4004 134.66 75.5304 135.38 74.4804 135.38C73.4404 135.38 72.5604 134.67 72.3104 133.7C72.2404 133.42 72.4504 133.14 72.7504 133.14H76.2104Z" fill="#3457E5"/>
<path d="M87.9199 152.14H80.1199C79.5099 152.14 79.0299 151.6 79.0599 150.96L79.4599 143.71C79.4899 143.12 79.9599 142.66 80.5199 142.66H87.5099C88.0699 142.66 88.5299 143.12 88.5699 143.71L88.9699 150.96C89.0099 151.6 88.5299 152.14 87.9199 152.14Z" fill="white" stroke="#3457E5" stroke-width="2" stroke-miterlimit="10" stroke-linecap="round" stroke-linejoin="round"/>
<path d="M85.8699 145.3V141.86C85.8699 140.84 85.0399 140.01 84.0199 140.01C82.9999 140.01 82.1699 140.84 82.1699 141.86V145.3" stroke="#3457E5" stroke-width="2" stroke-miterlimit="10" stroke-linecap="round" stroke-linejoin="round"/>
<path d="M237.61 174.57H183.02C181.5 174.57 180.27 173.34 180.27 171.82V108.81C180.27 107.29 181.5 106.06 183.02 106.06H237.61C239.13 106.06 240.36 107.29 240.36 108.81V171.82C240.36 173.34 239.13 174.57 237.61 174.57Z" fill="white" stroke="#1A2B6B" stroke-width="2" stroke-miterlimit="10" stroke-linecap="round" stroke-linejoin="round"/>
<path d="M200.279 121.24H231.629" stroke="#1A2B6B" stroke-width="2" stroke-miterlimit="10" stroke-linecap="round" stroke-linejoin="round"/>
<path d="M200.279 134.25H231.629" stroke="#1A2B6B" stroke-width="2" stroke-miterlimit="10" stroke-linecap="round" stroke-linejoin="round"/>
<path d="M200.279 147.25H231.629" stroke="#1A2B6B" stroke-width="2" stroke-miterlimit="10" stroke-linecap="round" stroke-linejoin="round"/>
<path d="M200.279 160.26H231.629" stroke="#1A2B6B" stroke-width="2" stroke-miterlimit="10" stroke-linecap="round" stroke-linejoin="round"/>
<path d="M225.23 164.57L242.51 147.29C242.99 146.81 243.76 146.81 244.23 147.29L249.41 152.47C249.89 152.95 249.89 153.72 249.41 154.19L232.13 171.47C231.88 171.72 231.55 171.84 231.2 171.83L226.29 171.56C225.67 171.53 225.18 171.03 225.14 170.41L224.87 165.5C224.86 165.16 224.99 164.82 225.23 164.57Z" fill="white" stroke="#3457E5" stroke-width="2" stroke-miterlimit="10" stroke-linecap="round" stroke-linejoin="round"/>
<path d="M224.869 177.23H249.759" stroke="#3457E5" stroke-width="2" stroke-miterlimit="10" stroke-linecap="round" stroke-linejoin="round"/>
<path d="M195.35 118.06H189V124.41H195.35V118.06Z" stroke="#1A2B6B" stroke-width="2" stroke-miterlimit="10" stroke-linecap="round" stroke-linejoin="round"/>
<path d="M195.35 131.07H189V137.42H195.35V131.07Z" stroke="#1A2B6B" stroke-width="2" stroke-miterlimit="10" stroke-linecap="round" stroke-linejoin="round"/>
<path d="M195.35 144.08H189V150.43H195.35V144.08Z" stroke="#1A2B6B" stroke-width="2" stroke-miterlimit="10" stroke-linecap="round" stroke-linejoin="round"/>
<path d="M195.35 157.08H189V163.43H195.35V157.08Z" stroke="#1A2B6B" stroke-width="2" stroke-miterlimit="10" stroke-linecap="round" stroke-linejoin="round"/>
<path d="M367.369 121.37H332.619C331.979 121.37 331.369 121.63 330.929 122.1L326.249 127.08C325.849 127.51 325.619 128.08 325.619 128.67V168.38C325.619 169.66 326.659 170.7 327.939 170.7H372.049C373.329 170.7 374.369 169.66 374.369 168.38V128.67C374.369 128.08 374.139 127.51 373.739 127.08L369.059 122.1C368.619 121.63 368.009 121.37 367.369 121.37Z" fill="white" stroke="#1A2B6B" stroke-width="2" stroke-miterlimit="10" stroke-linecap="round" stroke-linejoin="round"/>
<path d="M326.199 128.33H373.789" stroke="#1A2B6B" stroke-width="2" stroke-miterlimit="10" stroke-linecap="round" stroke-linejoin="round"/>
<path d="M342.889 147.64H346.109V154.09C346.109 154.82 346.709 155.42 347.439 155.42H352.559C353.289 155.42 353.889 154.82 353.889 154.09V147.64H357.109C358.069 147.64 358.559 146.47 357.879 145.79L350.769 138.68C350.349 138.26 349.659 138.26 349.239 138.68L342.129 145.79C341.449 146.47 341.929 147.64 342.889 147.64Z" fill="#3457E5"/>
<path d="M342 159.37H358" stroke="#3457E5" stroke-width="2" stroke-miterlimit="10" stroke-linecap="round" stroke-linejoin="round"/>
<circle cx="100" cy="140" r="2" fill="#C8D4E8"/>
<circle cx="100" cy="92" r="2" fill="#C8D4E8"/>
<circle cx="100" cy="188" r="2" fill="#C8D4E8"/>
</svg>
