<svg width="440" height="280" viewBox="0 0 440 280" fill="none" xmlns="http://www.w3.org/2000/svg">
<line x1="204" y1="140.5" x2="100" y2="140.5" stroke="#C8D4E8"/>
<path d="M88.9999 169.33C105.198 169.33 118.33 156.199 118.33 140C118.33 123.802 105.198 110.67 88.9999 110.67C72.8014 110.67 59.6699 123.802 59.6699 140C59.6699 156.199 72.8014 169.33 88.9999 169.33Z" fill="#3457E5"/>
<path d="M89.1601 123.45H88.8401C80.8301 123.45 74.3301 129.94 74.3301 137.96V154.55H80.2001V137.96C80.2001 133.2 84.0801 129.32 88.8401 129.32H89.1601C93.9201 129.32 97.8001 133.2 97.8001 137.96V154.55H103.67V137.96C103.67 129.94 97.1701 123.45 89.1601 123.45Z" fill="#F1F5FD"/>
<path d="M91.9305 154.54H86.0605V138.11C86.0605 136.49 87.3705 135.18 88.9905 135.18C90.6105 135.18 91.9205 136.49 91.9205 138.11V154.54H91.9305Z" fill="#12D3EB"/>
<path d="M366.63 194.28V100.76L285.64 54L204.65 100.76V194.28L285.64 241.04L366.63 194.28Z" stroke="#C8D4E8" stroke-miterlimit="10" stroke-linecap="round" stroke-linejoin="round"/>
<path d="M285.641 54V241.04" stroke="#C8D4E8" stroke-miterlimit="10" stroke-linecap="round" stroke-linejoin="round"/>
<path d="M204.65 100.76H366.63" stroke="#C8D4E8" stroke-miterlimit="10" stroke-linecap="round" stroke-linejoin="round"/>
<path d="M204.65 194.28H366.63" stroke="#C8D4E8" stroke-miterlimit="10" stroke-linecap="round" stroke-linejoin="round"/>
<path d="M204.65 100.76L285.64 241.04" stroke="#C8D4E8" stroke-miterlimit="10" stroke-linecap="round" stroke-linejoin="round"/>
<path d="M285.641 54L366.631 194.28" stroke="#C8D4E8" stroke-miterlimit="10" stroke-linecap="round" stroke-linejoin="round"/>
<path d="M366.631 100.76L285.641 241.04" stroke="#C8D4E8" stroke-miterlimit="10" stroke-linecap="round" stroke-linejoin="round"/>
<path d="M285.64 54L204.65 194.28" stroke="#C8D4E8" stroke-miterlimit="10" stroke-linecap="round" stroke-linejoin="round"/>
<path d="M204.65 100.76L366.63 194.28" stroke="#C8D4E8" stroke-miterlimit="10" stroke-linecap="round" stroke-linejoin="round"/>
<path d="M204.65 194.28L366.63 100.76" stroke="#C8D4E8" stroke-miterlimit="10" stroke-linecap="round" stroke-linejoin="round"/>
<path d="M286.121 51.78C289.473 51.78 292.191 49.0624 292.191 45.71C292.191 42.3576 289.473 39.64 286.121 39.64C282.768 39.64 280.051 42.3576 280.051 45.71C280.051 49.0624 282.768 51.78 286.121 51.78Z" fill="white" stroke="#1A2B6B" stroke-width="2" stroke-miterlimit="10" stroke-linecap="round" stroke-linejoin="round"/>
<path d="M277.541 65.14C275.481 65.14 273.971 63.12 274.641 61.17C276.281 56.42 280.801 53 286.111 53C291.421 53 295.941 56.41 297.581 61.17C298.251 63.12 296.741 65.14 294.681 65.14H277.541Z" fill="white" stroke="#1A2B6B" stroke-width="2" stroke-miterlimit="10" stroke-linecap="round" stroke-linejoin="round"/>
<path d="M287.851 47.14C288.141 47.14 288.361 47.42 288.291 47.7C288.041 48.66 287.171 49.38 286.121 49.38C285.081 49.38 284.201 48.67 283.951 47.7C283.881 47.42 284.091 47.14 284.391 47.14H287.851Z" fill="#3457E5"/>
<path d="M299.561 66.14H291.761C291.151 66.14 290.671 65.6 290.701 64.96L291.101 57.71C291.131 57.12 291.601 56.66 292.161 56.66H299.151C299.711 56.66 300.171 57.12 300.211 57.71L300.611 64.96C300.651 65.6 300.171 66.14 299.561 66.14Z" fill="white" stroke="#3457E5" stroke-width="2" stroke-miterlimit="10" stroke-linecap="round" stroke-linejoin="round"/>
<path d="M297.511 59.29V55.85C297.511 54.83 296.681 54 295.661 54C294.641 54 293.811 54.83 293.811 55.85V59.29" stroke="#3457E5" stroke-width="2" stroke-miterlimit="10" stroke-linecap="round" stroke-linejoin="round"/>
<path d="M205.131 98.54C208.483 98.54 211.201 95.8224 211.201 92.47C211.201 89.1177 208.483 86.4 205.131 86.4C201.778 86.4 199.061 89.1177 199.061 92.47C199.061 95.8224 201.778 98.54 205.131 98.54Z" fill="white" stroke="#1A2B6B" stroke-width="2" stroke-miterlimit="10" stroke-linecap="round" stroke-linejoin="round"/>
<path d="M196.551 111.9C194.491 111.9 192.981 109.88 193.651 107.93C195.291 103.18 199.811 99.76 205.121 99.76C210.431 99.76 214.951 103.17 216.591 107.93C217.261 109.88 215.751 111.9 213.691 111.9H196.551Z" fill="white" stroke="#1A2B6B" stroke-width="2" stroke-miterlimit="10" stroke-linecap="round" stroke-linejoin="round"/>
<path d="M206.861 93.9C207.151 93.9 207.371 94.18 207.301 94.46C207.051 95.42 206.181 96.14 205.131 96.14C204.091 96.14 203.211 95.43 202.961 94.46C202.891 94.18 203.101 93.9 203.401 93.9H206.861Z" fill="#3457E5"/>
<path d="M218.57 112.9H210.77C210.16 112.9 209.68 112.36 209.71 111.72L210.11 104.47C210.14 103.88 210.61 103.42 211.17 103.42H218.16C218.72 103.42 219.18 103.88 219.22 104.47L219.62 111.72C219.66 112.36 219.18 112.9 218.57 112.9Z" fill="white" stroke="#3457E5" stroke-width="2" stroke-miterlimit="10" stroke-linecap="round" stroke-linejoin="round"/>
<path d="M216.52 106.05V102.61C216.52 101.59 215.69 100.76 214.67 100.76C213.65 100.76 212.82 101.59 212.82 102.61V106.05" stroke="#3457E5" stroke-width="2" stroke-miterlimit="10" stroke-linecap="round" stroke-linejoin="round"/>
<path d="M205.131 192.05C208.483 192.05 211.201 189.332 211.201 185.98C211.201 182.628 208.483 179.91 205.131 179.91C201.778 179.91 199.061 182.628 199.061 185.98C199.061 189.332 201.778 192.05 205.131 192.05Z" fill="white" stroke="#1A2B6B" stroke-width="2" stroke-miterlimit="10" stroke-linecap="round" stroke-linejoin="round"/>
<path d="M196.551 205.42C194.491 205.42 192.981 203.4 193.651 201.45C195.291 196.7 199.811 193.28 205.121 193.28C210.431 193.28 214.951 196.69 216.591 201.45C217.261 203.4 215.751 205.42 213.691 205.42H196.551Z" fill="white" stroke="#1A2B6B" stroke-width="2" stroke-miterlimit="10" stroke-linecap="round" stroke-linejoin="round"/>
<path d="M206.861 187.42C207.151 187.42 207.371 187.7 207.301 187.98C207.051 188.94 206.181 189.66 205.131 189.66C204.091 189.66 203.211 188.95 202.961 187.98C202.891 187.7 203.101 187.42 203.401 187.42H206.861Z" fill="#3457E5"/>
<path d="M218.57 206.42H210.77C210.16 206.42 209.68 205.88 209.71 205.24L210.11 197.99C210.14 197.4 210.61 196.94 211.17 196.94H218.16C218.72 196.94 219.18 197.4 219.22 197.99L219.62 205.24C219.66 205.87 219.18 206.42 218.57 206.42Z" fill="white" stroke="#3457E5" stroke-width="2" stroke-miterlimit="10" stroke-linecap="round" stroke-linejoin="round"/>
<path d="M216.52 199.57V196.13C216.52 195.11 215.69 194.28 214.67 194.28C213.65 194.28 212.82 195.11 212.82 196.13V199.57" stroke="#3457E5" stroke-width="2" stroke-miterlimit="10" stroke-linecap="round" stroke-linejoin="round"/>
<path d="M367.111 192.05C370.463 192.05 373.181 189.332 373.181 185.98C373.181 182.628 370.463 179.91 367.111 179.91C363.759 179.91 361.041 182.628 361.041 185.98C361.041 189.332 363.759 192.05 367.111 192.05Z" fill="white" stroke="#1A2B6B" stroke-width="2" stroke-miterlimit="10" stroke-linecap="round" stroke-linejoin="round"/>
<path d="M358.532 205.42C356.472 205.42 354.962 203.4 355.632 201.45C357.272 196.7 361.792 193.28 367.102 193.28C372.412 193.28 376.932 196.69 378.572 201.45C379.242 203.4 377.732 205.42 375.672 205.42H358.532Z" fill="white" stroke="#1A2B6B" stroke-width="2" stroke-miterlimit="10" stroke-linecap="round" stroke-linejoin="round"/>
<path d="M368.841 187.42C369.131 187.42 369.351 187.7 369.281 187.98C369.031 188.94 368.161 189.66 367.111 189.66C366.071 189.66 365.191 188.95 364.941 187.98C364.871 187.7 365.081 187.42 365.381 187.42H368.841Z" fill="#3457E5"/>
<path d="M380.551 206.42H372.751C372.141 206.42 371.661 205.88 371.691 205.24L372.091 197.99C372.121 197.4 372.591 196.94 373.151 196.94H380.141C380.701 196.94 381.161 197.4 381.201 197.99L381.601 205.24C381.641 205.87 381.151 206.42 380.551 206.42Z" fill="white" stroke="#3457E5" stroke-width="2" stroke-miterlimit="10" stroke-linecap="round" stroke-linejoin="round"/>
<path d="M378.501 199.57V196.13C378.501 195.11 377.671 194.28 376.651 194.28C375.631 194.28 374.801 195.11 374.801 196.13V199.57" stroke="#3457E5" stroke-width="2" stroke-miterlimit="10" stroke-linecap="round" stroke-linejoin="round"/>
<path d="M367.111 98.54C370.463 98.54 373.181 95.8224 373.181 92.47C373.181 89.1177 370.463 86.4 367.111 86.4C363.759 86.4 361.041 89.1177 361.041 92.47C361.041 95.8224 363.759 98.54 367.111 98.54Z" fill="white" stroke="#1A2B6B" stroke-width="2" stroke-miterlimit="10" stroke-linecap="round" stroke-linejoin="round"/>
<path d="M358.532 111.9C356.472 111.9 354.962 109.88 355.632 107.93C357.272 103.18 361.792 99.76 367.102 99.76C372.412 99.76 376.932 103.17 378.572 107.93C379.242 109.88 377.732 111.9 375.672 111.9H358.532Z" fill="white" stroke="#1A2B6B" stroke-width="2" stroke-miterlimit="10" stroke-linecap="round" stroke-linejoin="round"/>
<path d="M368.841 93.9C369.131 93.9 369.351 94.18 369.281 94.46C369.031 95.42 368.161 96.14 367.111 96.14C366.071 96.14 365.191 95.43 364.941 94.46C364.871 94.18 365.081 93.9 365.381 93.9H368.841Z" fill="#3457E5"/>
<path d="M380.551 112.9H372.751C372.141 112.9 371.661 112.36 371.691 111.72L372.091 104.47C372.121 103.88 372.591 103.42 373.151 103.42H380.141C380.701 103.42 381.161 103.88 381.201 104.47L381.601 111.72C381.641 112.36 381.151 112.9 380.551 112.9Z" fill="white" stroke="#3457E5" stroke-width="2" stroke-miterlimit="10" stroke-linecap="round" stroke-linejoin="round"/>
<path d="M378.501 106.05V102.61C378.501 101.59 377.671 100.76 376.651 100.76C375.631 100.76 374.801 101.59 374.801 102.61V106.05" stroke="#3457E5" stroke-width="2" stroke-miterlimit="10" stroke-linecap="round" stroke-linejoin="round"/>
<path d="M277.841 166.49L293.451 162.39C292.931 159.25 295.411 156.91 295.411 156.91C300.321 153.39 303.571 147.4 303.571 141.11C303.571 131.24 295.571 123.23 285.691 123.23C275.821 123.23 267.811 131.23 267.811 141.11C267.811 147.6 271.271 153.77 276.441 157.24" fill="white"/>
<path d="M277.841 166.49L293.451 162.39C292.931 159.25 295.411 156.91 295.411 156.91C300.321 153.39 303.571 147.4 303.571 141.11C303.571 131.24 295.571 123.23 285.691 123.23C275.821 123.23 267.811 131.23 267.811 141.11C267.811 147.6 271.271 153.77 276.441 157.24" stroke="#1A2B6B" stroke-width="2" stroke-miterlimit="10" stroke-linecap="round" stroke-linejoin="round"/>
<path d="M293.44 167.67L277.83 171.77" stroke="#1A2B6B" stroke-width="2" stroke-miterlimit="10" stroke-linecap="round" stroke-linejoin="round"/>
<path d="M280.9 176.61C282.11 177.54 283.61 178.09 285.25 178.09C286.89 178.09 288.39 177.53 289.6 176.61" stroke="#1A2B6B" stroke-width="2" stroke-miterlimit="10" stroke-linecap="round" stroke-linejoin="round"/>
<path d="M285.641 110.68V115.68" stroke="#3457E5" stroke-width="2" stroke-miterlimit="10" stroke-linecap="round" stroke-linejoin="round"/>
<path d="M261.48 120.73L265.02 124.26" stroke="#3457E5" stroke-width="2" stroke-miterlimit="10" stroke-linecap="round" stroke-linejoin="round"/>
<path d="M254.26 144.91H259.26" stroke="#3457E5" stroke-width="2" stroke-miterlimit="10" stroke-linecap="round" stroke-linejoin="round"/>
<path d="M264.299 166.3L267.839 162.77" stroke="#3457E5" stroke-width="2" stroke-miterlimit="10" stroke-linecap="round" stroke-linejoin="round"/>
<path d="M307.12 166.24L303.59 162.71" stroke="#3457E5" stroke-width="2" stroke-miterlimit="10" stroke-linecap="round" stroke-linejoin="round"/>
<path d="M317.1 144.82H312.1" stroke="#3457E5" stroke-width="2" stroke-miterlimit="10" stroke-linecap="round" stroke-linejoin="round"/>
<path d="M309.819 120.66L306.289 124.2" stroke="#3457E5" stroke-width="2" stroke-miterlimit="10" stroke-linecap="round" stroke-linejoin="round"/>
<path d="M285.249 150.26C289.778 150.26 293.449 146.414 293.449 141.67C293.449 136.926 289.778 133.08 285.249 133.08C280.72 133.08 277.049 136.926 277.049 141.67C277.049 146.414 280.72 150.26 285.249 150.26Z" fill="#3457E5"/>
<path d="M205 140.5L198.25 144.397L198.25 136.603L205 140.5Z" fill="#C8D4E8"/>
</svg>
