<svg width="64" height="64" viewBox="0 0 64 64" fill="none" xmlns="http://www.w3.org/2000/svg">
<path d="M5.68945 37.77C7.91945 48.01 15.9795 56.07 26.2295 58.31" stroke="#1A2B6B" stroke-width="2" stroke-miterlimit="10" stroke-linecap="round" stroke-linejoin="round"/>
<path d="M37.7695 58.31C48.0095 56.08 56.0695 48.02 58.3095 37.77" stroke="#1A2B6B" stroke-width="2" stroke-miterlimit="10" stroke-linecap="round" stroke-linejoin="round"/>
<path d="M5.68945 26.2299C7.91945 15.9899 15.9795 7.92994 26.2295 5.68994" stroke="#1A2B6B" stroke-width="2" stroke-miterlimit="10" stroke-linecap="round" stroke-linejoin="round"/>
<path d="M37.7695 5.68994C48.0095 7.91994 56.0695 15.9799 58.3095 26.2299" stroke="#1A2B6B" stroke-width="2" stroke-miterlimit="10" stroke-linecap="round" stroke-linejoin="round"/>
<path d="M5.06969 34.8904C6.66579 34.8904 7.95969 33.5965 7.95969 32.0004C7.95969 30.4042 6.66579 29.1104 5.06969 29.1104C3.47358 29.1104 2.17969 30.4042 2.17969 32.0004C2.17969 33.5965 3.47358 34.8904 5.06969 34.8904Z" fill="#3457E5"/>
<path d="M58.93 34.8904C60.5261 34.8904 61.82 33.5965 61.82 32.0004C61.82 30.4042 60.5261 29.1104 58.93 29.1104C57.3339 29.1104 56.04 30.4042 56.04 32.0004C56.04 33.5965 57.3339 34.8904 58.93 34.8904Z" fill="#3457E5"/>
<path d="M31.9994 61.82C33.5955 61.82 34.8894 60.5261 34.8894 58.93C34.8894 57.3339 33.5955 56.04 31.9994 56.04C30.4033 56.04 29.1094 57.3339 29.1094 58.93C29.1094 60.5261 30.4033 61.82 31.9994 61.82Z" fill="#3457E5"/>
<path d="M31.9994 7.96017C33.5955 7.96017 34.8894 6.66628 34.8894 5.07018C34.8894 3.47407 33.5955 2.18018 31.9994 2.18018C30.4033 2.18018 29.1094 3.47407 29.1094 5.07018C29.1094 6.66628 30.4033 7.96017 31.9994 7.96017Z" fill="#3457E5"/>
<path d="M41.9999 26.2702H22.0099C20.7199 26.2702 19.6699 25.2202 19.6699 23.9302V21.5602C19.6699 20.2702 20.7199 19.2202 22.0099 19.2202H41.9999C43.2899 19.2202 44.3399 20.2702 44.3399 21.5602V23.9302C44.3399 25.2302 43.2899 26.2702 41.9999 26.2702Z" stroke="#1A2B6B" stroke-width="2" stroke-miterlimit="10" stroke-linecap="round" stroke-linejoin="round"/>
<path d="M41.9999 34.2004H22.0099C20.7199 34.2004 19.6699 33.1504 19.6699 31.8604V29.4904C19.6699 28.2004 20.7199 27.1504 22.0099 27.1504H41.9999C43.2899 27.1504 44.3399 28.2004 44.3399 29.4904V31.8604C44.3399 33.1504 43.2899 34.2004 41.9999 34.2004Z" stroke="#1A2B6B" stroke-width="2" stroke-miterlimit="10" stroke-linecap="round" stroke-linejoin="round"/>
<path d="M41.9999 42.1301H22.0099C20.7199 42.1301 19.6699 41.0801 19.6699 39.7901V37.4201C19.6699 36.1301 20.7199 35.0801 22.0099 35.0801H41.9999C43.2899 35.0801 44.3399 36.1301 44.3399 37.4201V39.7901C44.3399 41.0801 43.2899 42.1301 41.9999 42.1301Z" stroke="#1A2B6B" stroke-width="2" stroke-miterlimit="10" stroke-linecap="round" stroke-linejoin="round"/>
<path d="M24.0703 43.0103V44.7803" stroke="#1A2B6B" stroke-width="2" stroke-miterlimit="10" stroke-linecap="round" stroke-linejoin="round"/>
<path d="M39.9297 43.0103V44.7803" stroke="#1A2B6B" stroke-width="2" stroke-miterlimit="10" stroke-linecap="round" stroke-linejoin="round"/>
<path d="M23.63 23.6301C24.116 23.6301 24.51 23.2361 24.51 22.7501C24.51 22.2641 24.116 21.8701 23.63 21.8701C23.144 21.8701 22.75 22.2641 22.75 22.7501C22.75 23.2361 23.144 23.6301 23.63 23.6301Z" fill="#3457E5"/>
<path d="M23.63 31.5603C24.116 31.5603 24.51 31.1663 24.51 30.6803C24.51 30.1943 24.116 29.8003 23.63 29.8003C23.144 29.8003 22.75 30.1943 22.75 30.6803C22.75 31.1663 23.144 31.5603 23.63 31.5603Z" fill="#3457E5"/>
<path d="M23.63 39.49C24.116 39.49 24.51 39.096 24.51 38.61C24.51 38.124 24.116 37.73 23.63 37.73C23.144 37.73 22.75 38.124 22.75 38.61C22.75 39.096 23.144 39.49 23.63 39.49Z" fill="#3457E5"/>
<path d="M19.6699 44.7803H44.3399" stroke="#3457E5" stroke-width="2" stroke-miterlimit="10" stroke-linecap="round" stroke-linejoin="round"/>
</svg>
