<svg width="312" height="65" viewBox="0 0 312 65" fill="none" xmlns="http://www.w3.org/2000/svg">
<rect x="0.5" y="1.23196" width="311" height="63" rx="7.5" fill="white" stroke="#C8D4E8"/>
<path fill-rule="evenodd" clip-rule="evenodd" d="M18.4023 13.532V48.9011C18.4023 49.9571 18.9509 50.8897 19.7738 51.4382C19.8149 51.4657 19.8561 51.4931 19.9109 51.5205C20.3498 51.7811 20.8572 51.932 21.4058 51.932H59.2983C59.8332 51.932 60.3406 51.7811 60.7795 51.5342C60.8206 51.5068 60.8618 51.4794 60.9166 51.4382C61.7395 50.9034 62.2881 49.9571 62.2881 48.9011V13.532H18.4023ZM35.4492 17.6462H45.2549C46.3383 17.6462 47.2023 18.5651 47.2023 19.7034C47.2023 20.8417 46.3246 21.7605 45.2549 21.7605H35.4492C34.3658 21.7605 33.4881 20.8417 33.4881 19.7034C33.4881 18.5651 34.3658 17.6462 35.4492 17.6462Z" fill="#EFEFEF"/>
<path fill-rule="evenodd" clip-rule="evenodd" d="M60.9241 49.1891C60.9241 49.9845 60.883 50.7663 60.787 51.5343C60.3481 51.7811 59.8407 51.932 59.3058 51.932H21.4133C20.8647 51.932 20.3573 51.7811 19.9184 51.5205C19.8224 50.7525 19.7812 49.9845 19.7812 49.1891C19.7812 45.0885 20.9744 41.276 23.0453 38.0668L23.059 38.0531C26.7207 32.3754 33.0978 28.6177 40.3527 28.6177C48.3481 28.6177 55.2738 33.1708 58.675 39.836C60.115 42.6337 60.9241 45.8154 60.9241 49.1891Z" fill="#D8D8D8"/>
<path d="M58.6707 39.836H40.3484L39.2238 41.7971L33.3953 51.8908L33.3815 51.9045L33.3678 51.932H23.0547V38.0531C26.7164 32.3754 33.0935 28.6177 40.3484 28.6177C48.3438 28.6177 55.2695 33.1708 58.6707 39.836Z" fill="#707070"/>
<path d="M31.1289 51.932H21.4054C20.8569 51.932 20.3494 51.7811 19.9106 51.5205C19.8557 51.4931 19.8146 51.4657 19.7734 51.4382V49.1891C19.7734 45.0885 20.9666 41.276 23.0374 38.0668L23.0512 38.0943L31.1289 51.932Z" fill="#6B6B6B"/>
<path d="M60.9191 49.1891V51.4382C60.8642 51.4794 60.8231 51.5068 60.7819 51.5342C60.3431 51.7811 59.8357 51.932 59.3008 51.932H47.3419L47.3145 51.9182V51.9045L41.4859 41.7971L40.3477 39.836H58.6699C60.1099 42.6337 60.9191 45.8154 60.9191 49.1891Z" fill="#CCCCCC"/>
<path d="M60.9191 49.1891V51.4382C60.8642 51.4794 60.8231 51.5068 60.7819 51.5342C60.3431 51.7811 59.8357 51.932 59.3008 51.932H47.3419L47.3145 51.9182V51.9045L41.4859 41.7971L40.3477 39.836H58.6699C60.1099 42.6337 60.9191 45.8154 60.9191 49.1891Z" fill="url(#paint0_linear_134_717)"/>
<path d="M49.7043 49.1891C49.7043 50.1354 49.5671 51.068 49.2929 51.932H31.4231C31.1489 51.068 31.0117 50.1354 31.0117 49.1891C31.0117 44.0188 35.1946 39.836 40.3511 39.836C45.5214 39.836 49.7043 44.0188 49.7043 49.1891Z" fill="#F1F1F1"/>
<path d="M47.8373 49.1891C47.8373 50.1491 47.659 51.068 47.3161 51.9045V51.9182C47.3161 51.9182 47.3161 51.9182 47.3024 51.932H33.4099C33.3961 51.9182 33.3824 51.9182 33.3824 51.9045L33.3961 51.8908C33.0533 51.0542 32.875 50.1491 32.875 49.1891C32.875 45.4314 35.6316 42.332 39.2247 41.7971C39.595 41.7285 39.9653 41.7011 40.3493 41.7011C40.7333 41.7011 41.1173 41.7285 41.4876 41.7971C45.0944 42.332 47.8373 45.4314 47.8373 49.1891Z" fill="#7D7D7D"/>
<mask id="mask0_134_717" style="mask-type:alpha" maskUnits="userSpaceOnUse" x="18" y="13" width="45" height="39">
<path fill-rule="evenodd" clip-rule="evenodd" d="M18.4023 13.532V48.9011C18.4023 50.5605 19.7601 51.932 21.4058 51.932H59.3121C60.9578 51.932 62.3018 50.5605 62.3018 48.9011V13.532H18.4023ZM33.4881 19.7034C33.4881 18.5651 34.3658 17.6462 35.4492 17.6462H45.2412C46.3383 17.6462 47.2023 18.5651 47.2023 19.7034C47.2023 20.8417 46.3246 21.7605 45.2549 21.7605H35.4629C34.3658 21.7605 33.4881 20.8417 33.4881 19.7034Z" fill="white"/>
</mask>
<g mask="url(#mask0_134_717)">
<path fill-rule="evenodd" clip-rule="evenodd" d="M18.4062 13.532H62.292V31.3605H18.4062V13.532Z" fill="black" fill-opacity="0.04"/>
</g>
<path d="M87.728 22.468H83.168L81.984 25.732H80.576L84.784 14.532H86.096L90.336 25.732H88.928L87.728 22.468ZM87.328 21.364L85.456 16.292H85.392L83.568 21.364H87.328ZM91.0745 17.3H92.4185L94.9465 24.276H95.0265L97.5545 17.3H98.8985L95.8265 25.732H94.1305L91.0745 17.3ZM103.429 25.844C102.682 25.844 102.042 25.652 101.509 25.268C100.986 24.884 100.586 24.3613 100.309 23.7C100.031 23.0386 99.8926 22.292 99.8926 21.46C99.8926 20.628 100.031 19.8813 100.309 19.22C100.597 18.548 101.007 18.0253 101.541 17.652C102.085 17.268 102.73 17.076 103.477 17.076C104.223 17.076 104.826 17.252 105.285 17.604C105.743 17.956 106.09 18.3773 106.325 18.868H106.437V17.3H107.829V25.732H106.437V24.004H106.325C106.069 24.5053 105.706 24.9373 105.237 25.3C104.767 25.6626 104.165 25.844 103.429 25.844ZM103.861 24.66C104.682 24.66 105.311 24.356 105.749 23.748C106.186 23.1293 106.405 22.3666 106.405 21.46C106.405 20.5533 106.186 19.796 105.749 19.188C105.311 18.5693 104.682 18.26 103.861 18.26C103.018 18.26 102.378 18.564 101.941 19.172C101.514 19.78 101.301 20.5373 101.301 21.444C101.301 22.3613 101.514 23.1293 101.941 23.748C102.378 24.356 103.018 24.66 103.861 24.66ZM110.375 17.3H111.751V25.732H110.375V17.3ZM111.047 15.732C110.791 15.732 110.577 15.6466 110.407 15.476C110.236 15.2946 110.151 15.0813 110.151 14.836C110.151 14.5906 110.236 14.3826 110.407 14.212C110.577 14.0306 110.791 13.94 111.047 13.94C111.303 13.94 111.516 14.0306 111.687 14.212C111.868 14.3826 111.959 14.5906 111.959 14.836C111.959 15.0813 111.868 15.2946 111.687 15.476C111.516 15.6466 111.303 15.732 111.047 15.732ZM116.469 25.796C115.84 25.796 115.371 25.6946 115.061 25.492C114.752 25.2893 114.555 25.028 114.469 24.708C114.395 24.3773 114.357 23.9506 114.357 23.428L114.373 13.732H115.749V23.22C115.749 23.6253 115.765 23.9293 115.797 24.132C115.84 24.324 115.941 24.4786 116.101 24.596C116.272 24.7133 116.539 24.772 116.901 24.772C117.125 24.772 117.323 24.756 117.493 24.724V25.716C117.205 25.7693 116.864 25.796 116.469 25.796ZM122.429 25.844C121.682 25.844 121.042 25.652 120.509 25.268C119.986 24.884 119.586 24.3613 119.309 23.7C119.031 23.0386 118.893 22.292 118.893 21.46C118.893 20.628 119.031 19.8813 119.309 19.22C119.597 18.548 120.007 18.0253 120.541 17.652C121.085 17.268 121.73 17.076 122.477 17.076C123.223 17.076 123.826 17.252 124.285 17.604C124.743 17.956 125.09 18.3773 125.325 18.868H125.437V17.3H126.829V25.732H125.437V24.004H125.325C125.069 24.5053 124.706 24.9373 124.237 25.3C123.767 25.6626 123.165 25.844 122.429 25.844ZM122.861 24.66C123.682 24.66 124.311 24.356 124.749 23.748C125.186 23.1293 125.405 22.3666 125.405 21.46C125.405 20.5533 125.186 19.796 124.749 19.188C124.311 18.5693 123.682 18.26 122.861 18.26C122.018 18.26 121.378 18.564 120.941 19.172C120.514 19.78 120.301 20.5373 120.301 21.444C120.301 22.3613 120.514 23.1293 120.941 23.748C121.378 24.356 122.018 24.66 122.861 24.66ZM133.647 25.844C132.911 25.844 132.308 25.6626 131.839 25.3C131.369 24.9373 131.007 24.5053 130.751 24.004H130.639V25.732H129.247V13.732H130.639V18.868H130.751C130.985 18.3773 131.332 17.956 131.791 17.604C132.249 17.252 132.852 17.076 133.599 17.076C134.356 17.076 135.001 17.268 135.535 17.652C136.079 18.0253 136.489 18.548 136.767 19.22C137.044 19.8813 137.183 20.628 137.183 21.46C137.183 22.292 137.044 23.0386 136.767 23.7C136.489 24.3613 136.084 24.884 135.551 25.268C135.017 25.652 134.383 25.844 133.647 25.844ZM133.215 24.66C134.047 24.66 134.676 24.356 135.103 23.748C135.54 23.14 135.759 22.3773 135.759 21.46C135.759 20.5533 135.545 19.796 135.119 19.188C134.692 18.58 134.057 18.276 133.215 18.276C132.383 18.276 131.748 18.58 131.311 19.188C130.884 19.796 130.671 20.5533 130.671 21.46C130.671 22.3666 130.889 23.1293 131.327 23.748C131.764 24.356 132.393 24.66 133.215 24.66ZM141.313 25.796C140.684 25.796 140.214 25.6946 139.905 25.492C139.596 25.2893 139.398 25.028 139.313 24.708C139.238 24.3773 139.201 23.9506 139.201 23.428L139.217 13.732H140.593V23.22C140.593 23.6253 140.609 23.9293 140.641 24.132C140.684 24.324 140.785 24.4786 140.945 24.596C141.116 24.7133 141.382 24.772 141.745 24.772C141.969 24.772 142.166 24.756 142.337 24.724V25.716C142.049 25.7693 141.708 25.796 141.313 25.796ZM147.736 25.844C146.872 25.844 146.142 25.636 145.544 25.22C144.958 24.804 144.52 24.26 144.232 23.588C143.944 22.916 143.8 22.2066 143.8 21.46C143.8 20.7026 143.944 19.9933 144.232 19.332C144.52 18.66 144.963 18.116 145.56 17.7C146.158 17.284 146.888 17.076 147.752 17.076C148.883 17.076 149.784 17.4546 150.456 18.212C151.139 18.9693 151.48 20.0573 151.48 21.476V21.86H145.176V21.972C145.176 22.4413 145.283 22.884 145.496 23.3C145.71 23.716 146.008 24.052 146.392 24.308C146.776 24.564 147.219 24.692 147.72 24.692C148.264 24.692 148.734 24.5533 149.128 24.276C149.523 23.9986 149.816 23.6253 150.008 23.156H151.368C151.144 23.924 150.723 24.564 150.104 25.076C149.496 25.588 148.707 25.844 147.736 25.844ZM150.12 20.884C150.078 19.924 149.843 19.2306 149.416 18.804C148.99 18.3773 148.43 18.164 147.736 18.164C146.979 18.164 146.376 18.4146 145.928 18.916C145.48 19.4173 145.24 20.0733 145.208 20.884H150.12ZM157.312 17.3H158.688V25.732H157.312V17.3ZM157.984 15.732C157.728 15.732 157.515 15.6466 157.344 15.476C157.173 15.2946 157.088 15.0813 157.088 14.836C157.088 14.5906 157.173 14.3826 157.344 14.212C157.515 14.0306 157.728 13.94 157.984 13.94C158.24 13.94 158.453 14.0306 158.624 14.212C158.805 14.3826 158.896 14.5906 158.896 14.836C158.896 15.0813 158.805 15.2946 158.624 15.476C158.453 15.6466 158.24 15.732 157.984 15.732ZM161.247 17.3H162.623V18.82H162.751C162.964 18.3293 163.311 17.9186 163.791 17.588C164.271 17.2466 164.858 17.076 165.551 17.076C166.266 17.076 166.863 17.2466 167.343 17.588C167.823 17.9186 168.175 18.3613 168.399 18.916C168.634 19.46 168.751 20.052 168.751 20.692V25.732H167.375V20.868C167.375 20.036 167.156 19.4013 166.719 18.964C166.292 18.5266 165.732 18.308 165.039 18.308C164.303 18.308 163.716 18.548 163.279 19.028C162.842 19.4973 162.623 20.1106 162.623 20.868V25.732H161.247V17.3ZM176.987 18.404V23.3C176.987 23.6946 177.003 23.988 177.035 24.18C177.078 24.3613 177.179 24.5053 177.339 24.612C177.51 24.7186 177.782 24.772 178.155 24.772C178.411 24.772 178.689 24.7346 178.987 24.66V25.652C178.913 25.684 178.747 25.716 178.491 25.748C178.246 25.78 177.99 25.796 177.723 25.796C177.105 25.796 176.641 25.7106 176.331 25.54C176.033 25.3586 175.835 25.1186 175.739 24.82C175.654 24.5106 175.611 24.1053 175.611 23.604V18.404H174.043V17.3H175.611V14.532H176.987V17.3H178.987V18.404H176.987ZM181.122 13.78H182.498V18.82H182.626C182.839 18.3293 183.186 17.9186 183.666 17.588C184.146 17.2466 184.733 17.076 185.426 17.076C186.141 17.076 186.738 17.2466 187.218 17.588C187.698 17.9186 188.05 18.3613 188.274 18.916C188.509 19.46 188.626 20.052 188.626 20.692V25.732H187.25V20.868C187.25 20.036 187.031 19.4013 186.594 18.964C186.167 18.5266 185.597 18.308 184.882 18.308C184.199 18.308 183.629 18.5373 183.17 18.996C182.722 19.4546 182.498 20.0786 182.498 20.868V25.732H181.122V13.78ZM194.518 25.844C193.654 25.844 192.923 25.636 192.326 25.22C191.739 24.804 191.302 24.26 191.014 23.588C190.726 22.916 190.582 22.2066 190.582 21.46C190.582 20.7026 190.726 19.9933 191.014 19.332C191.302 18.66 191.744 18.116 192.342 17.7C192.939 17.284 193.67 17.076 194.534 17.076C195.664 17.076 196.566 17.4546 197.238 18.212C197.92 18.9693 198.262 20.0573 198.262 21.476V21.86H191.958V21.972C191.958 22.4413 192.064 22.884 192.278 23.3C192.491 23.716 192.79 24.052 193.174 24.308C193.558 24.564 194 24.692 194.502 24.692C195.046 24.692 195.515 24.5533 195.91 24.276C196.304 23.9986 196.598 23.6253 196.79 23.156H198.15C197.926 23.924 197.504 24.564 196.886 25.076C196.278 25.588 195.488 25.844 194.518 25.844ZM196.902 20.884C196.859 19.924 196.624 19.2306 196.198 18.804C195.771 18.3773 195.211 18.164 194.518 18.164C193.76 18.164 193.158 18.4146 192.71 18.916C192.262 19.4173 192.022 20.0733 191.99 20.884H196.902Z" fill="#465388"/>
<path d="M88.88 51.9C87.312 51.9 85.96 51.532 84.824 50.796C83.688 50.044 82.816 49.012 82.208 47.7C81.616 46.388 81.32 44.9 81.32 43.236C81.32 41.572 81.616 40.084 82.208 38.772C82.816 37.46 83.688 36.436 84.824 35.7C85.96 34.948 87.312 34.572 88.88 34.572C90.768 34.572 92.328 35.108 93.56 36.18C94.792 37.236 95.616 38.668 96.032 40.476H93.992C93.656 39.244 93.04 38.268 92.144 37.548C91.248 36.812 90.168 36.444 88.904 36.444C87.16 36.444 85.824 37.06 84.896 38.292C83.968 39.508 83.504 41.148 83.504 43.212C83.504 45.292 83.968 46.948 84.896 48.18C85.824 49.396 87.16 50.004 88.904 50.004C90.104 50.004 91.136 49.684 92 49.044C92.864 48.388 93.48 47.516 93.848 46.428H95.888C95.44 48.092 94.608 49.42 93.392 50.412C92.192 51.404 90.688 51.9 88.88 51.9ZM98.8859 33.804H100.95V41.364H101.142C101.462 40.628 101.982 40.012 102.702 39.516C103.422 39.004 104.302 38.748 105.342 38.748C106.414 38.748 107.31 39.004 108.03 39.516C108.75 40.012 109.278 40.676 109.614 41.508C109.966 42.324 110.142 43.212 110.142 44.172V51.732H108.078V44.436C108.078 43.188 107.75 42.236 107.094 41.58C106.454 40.924 105.598 40.596 104.526 40.596C103.502 40.596 102.646 40.94 101.958 41.628C101.286 42.316 100.95 43.252 100.95 44.436V51.732H98.8859V33.804ZM113.485 39.084H115.549V41.1H115.693C115.901 40.54 116.269 40.068 116.797 39.684C117.341 39.284 118.021 39.084 118.837 39.084C119.093 39.084 119.293 39.1 119.437 39.132C119.597 39.148 119.773 39.188 119.965 39.252L119.893 41.268C119.637 41.188 119.413 41.132 119.221 41.1C119.045 41.068 118.813 41.052 118.525 41.052C116.541 41.052 115.549 42.228 115.549 44.58V51.732H113.485V39.084ZM127.23 51.9C125.95 51.9 124.862 51.596 123.966 50.988C123.086 50.364 122.422 49.556 121.974 48.564C121.526 47.556 121.302 46.476 121.302 45.324C121.302 44.172 121.526 43.1 121.974 42.108C122.422 41.1 123.086 40.292 123.966 39.684C124.862 39.06 125.95 38.748 127.23 38.748C128.51 38.748 129.59 39.06 130.47 39.684C131.366 40.292 132.03 41.1 132.462 42.108C132.91 43.116 133.134 44.188 133.134 45.324C133.134 46.46 132.91 47.532 132.462 48.54C132.014 49.548 131.342 50.364 130.446 50.988C129.566 51.596 128.494 51.9 127.23 51.9ZM127.23 50.124C128.014 50.124 128.694 49.908 129.27 49.476C129.862 49.044 130.31 48.468 130.614 47.748C130.918 47.012 131.07 46.196 131.07 45.3C131.07 43.924 130.726 42.78 130.038 41.868C129.35 40.956 128.414 40.5 127.23 40.5C126.43 40.5 125.734 40.716 125.142 41.148C124.566 41.58 124.126 42.164 123.822 42.9C123.518 43.62 123.366 44.42 123.366 45.3C123.366 46.676 123.71 47.828 124.398 48.756C125.086 49.668 126.03 50.124 127.23 50.124ZM136.152 39.084H138.192V41.412H138.384C138.416 41.252 138.576 40.964 138.864 40.548C139.152 40.116 139.592 39.708 140.184 39.324C140.776 38.94 141.512 38.748 142.392 38.748C143.32 38.748 144.088 38.964 144.696 39.396C145.32 39.828 145.784 40.292 146.088 40.788C146.392 41.284 146.544 41.596 146.544 41.724H146.736C146.96 41.164 147.4 40.532 148.056 39.828C148.728 39.108 149.752 38.748 151.128 38.748C152.152 38.748 153.008 39.012 153.696 39.54C154.384 40.052 154.888 40.716 155.208 41.532C155.544 42.348 155.712 43.22 155.712 44.148V51.732H153.672V44.34C153.672 43.124 153.352 42.204 152.712 41.58C152.088 40.956 151.312 40.644 150.384 40.644C149.424 40.644 148.608 40.972 147.936 41.628C147.28 42.268 146.952 43.172 146.952 44.34V51.732H144.912V44.34C144.912 43.124 144.592 42.204 143.952 41.58C143.328 40.956 142.552 40.644 141.624 40.644C140.664 40.644 139.848 40.972 139.176 41.628C138.52 42.268 138.192 43.172 138.192 44.34V51.732H136.152V39.084ZM164.542 51.9C163.246 51.9 162.15 51.588 161.254 50.964C160.374 50.34 159.718 49.524 159.286 48.516C158.854 47.508 158.638 46.444 158.638 45.324C158.638 44.188 158.854 43.124 159.286 42.132C159.718 41.124 160.382 40.308 161.278 39.684C162.174 39.06 163.27 38.748 164.566 38.748C166.262 38.748 167.614 39.316 168.622 40.452C169.646 41.588 170.158 43.22 170.158 45.348V45.924H160.702V46.092C160.702 46.796 160.862 47.46 161.182 48.084C161.502 48.708 161.95 49.212 162.526 49.596C163.102 49.98 163.766 50.172 164.518 50.172C165.334 50.172 166.038 49.964 166.63 49.548C167.222 49.132 167.662 48.572 167.95 47.868H169.99C169.654 49.02 169.022 49.98 168.094 50.748C167.182 51.516 165.998 51.9 164.542 51.9ZM168.118 44.46C168.054 43.02 167.702 41.98 167.062 41.34C166.422 40.7 165.582 40.38 164.542 40.38C163.406 40.38 162.502 40.756 161.83 41.508C161.158 42.26 160.798 43.244 160.75 44.46H168.118ZM177.298 34.932H179.362L183.105 49.26H183.25L187.906 34.932H189.802L194.434 49.26H194.578L198.346 34.932H200.41L195.898 51.732H193.162L188.914 38.556H188.77L184.522 51.732H181.786L177.298 34.932ZM207.011 51.9C205.715 51.9 204.619 51.588 203.723 50.964C202.843 50.34 202.187 49.524 201.755 48.516C201.323 47.508 201.107 46.444 201.107 45.324C201.107 44.188 201.323 43.124 201.755 42.132C202.187 41.124 202.851 40.308 203.747 39.684C204.643 39.06 205.739 38.748 207.035 38.748C208.731 38.748 210.083 39.316 211.091 40.452C212.115 41.588 212.627 43.22 212.627 45.348V45.924H203.171V46.092C203.171 46.796 203.331 47.46 203.651 48.084C203.971 48.708 204.419 49.212 204.995 49.596C205.571 49.98 206.235 50.172 206.987 50.172C207.803 50.172 208.507 49.964 209.099 49.548C209.691 49.132 210.131 48.572 210.419 47.868H212.459C212.123 49.02 211.491 49.98 210.563 50.748C209.651 51.516 208.467 51.9 207.011 51.9ZM210.587 44.46C210.523 43.02 210.171 41.98 209.531 41.34C208.891 40.7 208.051 40.38 207.011 40.38C205.875 40.38 204.971 40.756 204.299 41.508C203.627 42.26 203.267 43.244 203.219 44.46H210.587ZM222.251 51.9C221.147 51.9 220.243 51.628 219.539 51.084C218.835 50.54 218.291 49.892 217.907 49.14H217.739V51.732H215.651V33.732H217.739V41.436H217.907C218.259 40.7 218.779 40.068 219.467 39.54C220.155 39.012 221.059 38.748 222.179 38.748C223.315 38.748 224.283 39.036 225.083 39.612C225.899 40.172 226.515 40.956 226.931 41.964C227.347 42.956 227.555 44.076 227.555 45.324C227.555 46.572 227.347 47.692 226.931 48.684C226.515 49.676 225.907 50.46 225.107 51.036C224.307 51.612 223.355 51.9 222.251 51.9ZM221.603 50.124C222.851 50.124 223.795 49.668 224.435 48.756C225.091 47.844 225.419 46.7 225.419 45.324C225.419 43.964 225.099 42.828 224.459 41.916C223.819 41.004 222.867 40.548 221.603 40.548C220.355 40.548 219.403 41.004 218.747 41.916C218.107 42.828 217.787 43.964 217.787 45.324C217.787 46.684 218.115 47.828 218.771 48.756C219.427 49.668 220.371 50.124 221.603 50.124ZM241.586 51.924C240.29 51.924 239.178 51.66 238.25 51.132C237.338 50.588 236.65 49.892 236.186 49.044C235.722 48.196 235.49 47.308 235.49 46.38V46.26H237.77V46.38C237.77 46.94 237.898 47.5 238.154 48.06C238.426 48.62 238.85 49.092 239.426 49.476C240.002 49.844 240.738 50.028 241.634 50.028C242.69 50.028 243.562 49.756 244.25 49.212C244.938 48.668 245.282 47.932 245.282 47.004C245.282 46.236 245.026 45.628 244.514 45.18C244.018 44.716 243.378 44.404 242.594 44.244L240.146 43.788C237.33 43.164 235.922 41.684 235.922 39.348C235.922 38.388 236.154 37.548 236.618 36.828C237.082 36.108 237.722 35.556 238.538 35.172C239.37 34.772 240.33 34.572 241.418 34.572C242.65 34.572 243.706 34.82 244.586 35.316C245.466 35.812 246.13 36.46 246.578 37.26C247.026 38.044 247.25 38.86 247.25 39.708V39.804H244.97V39.732C244.97 39.252 244.85 38.764 244.61 38.268C244.386 37.756 244.002 37.316 243.458 36.948C242.93 36.58 242.226 36.396 241.346 36.396C240.338 36.396 239.53 36.676 238.922 37.236C238.33 37.796 238.034 38.492 238.034 39.324C238.034 40.028 238.266 40.604 238.73 41.052C239.194 41.5 239.826 41.804 240.626 41.964L242.834 42.396C245.922 43.02 247.466 44.532 247.466 46.932C247.466 47.908 247.218 48.772 246.722 49.524C246.242 50.276 245.554 50.868 244.658 51.3C243.762 51.716 242.738 51.924 241.586 51.924ZM253.793 40.74V48.084C253.793 48.676 253.817 49.116 253.865 49.404C253.929 49.676 254.081 49.892 254.321 50.052C254.577 50.212 254.985 50.292 255.545 50.292C255.929 50.292 256.345 50.236 256.793 50.124V51.612C256.681 51.66 256.433 51.708 256.049 51.756C255.681 51.804 255.297 51.828 254.897 51.828C253.969 51.828 253.273 51.7 252.809 51.444C252.361 51.172 252.065 50.812 251.921 50.364C251.793 49.9 251.729 49.292 251.729 48.54V40.74H249.377V39.084H251.729V34.932H253.793V39.084H256.793V40.74H253.793ZM265.183 51.9C263.903 51.9 262.815 51.596 261.919 50.988C261.039 50.364 260.375 49.556 259.927 48.564C259.479 47.556 259.255 46.476 259.255 45.324C259.255 44.172 259.479 43.1 259.927 42.108C260.375 41.1 261.039 40.292 261.919 39.684C262.815 39.06 263.903 38.748 265.183 38.748C266.463 38.748 267.543 39.06 268.423 39.684C269.319 40.292 269.983 41.1 270.415 42.108C270.863 43.116 271.087 44.188 271.087 45.324C271.087 46.46 270.863 47.532 270.415 48.54C269.967 49.548 269.295 50.364 268.399 50.988C267.519 51.596 266.447 51.9 265.183 51.9ZM265.183 50.124C265.967 50.124 266.647 49.908 267.223 49.476C267.815 49.044 268.263 48.468 268.567 47.748C268.871 47.012 269.023 46.196 269.023 45.3C269.023 43.924 268.679 42.78 267.991 41.868C267.303 40.956 266.367 40.5 265.183 40.5C264.383 40.5 263.687 40.716 263.095 41.148C262.519 41.58 262.079 42.164 261.775 42.9C261.471 43.62 261.319 44.42 261.319 45.3C261.319 46.676 261.663 47.828 262.351 48.756C263.039 49.668 263.983 50.124 265.183 50.124ZM274.009 39.084H276.073V41.1H276.217C276.425 40.54 276.793 40.068 277.321 39.684C277.865 39.284 278.545 39.084 279.361 39.084C279.617 39.084 279.817 39.1 279.961 39.132C280.121 39.148 280.297 39.188 280.489 39.252L280.417 41.268C280.161 41.188 279.937 41.132 279.745 41.1C279.569 41.068 279.337 41.052 279.049 41.052C277.065 41.052 276.073 42.228 276.073 44.58V51.732H274.009V39.084ZM287.73 51.9C286.434 51.9 285.338 51.588 284.442 50.964C283.562 50.34 282.906 49.524 282.474 48.516C282.042 47.508 281.826 46.444 281.826 45.324C281.826 44.188 282.042 43.124 282.474 42.132C282.906 41.124 283.57 40.308 284.466 39.684C285.362 39.06 286.458 38.748 287.754 38.748C289.45 38.748 290.802 39.316 291.81 40.452C292.834 41.588 293.346 43.22 293.346 45.348V45.924H283.89V46.092C283.89 46.796 284.05 47.46 284.37 48.084C284.69 48.708 285.138 49.212 285.714 49.596C286.29 49.98 286.954 50.172 287.706 50.172C288.522 50.172 289.226 49.964 289.818 49.548C290.41 49.132 290.85 48.572 291.138 47.868H293.178C292.842 49.02 292.21 49.98 291.282 50.748C290.37 51.516 289.186 51.9 287.73 51.9ZM291.306 44.46C291.242 43.02 290.89 41.98 290.25 41.34C289.61 40.7 288.77 40.38 287.73 40.38C286.594 40.38 285.69 40.756 285.018 41.508C284.346 42.26 283.986 43.244 283.938 44.46H291.306Z" fill="#465388"/>
<defs>
<linearGradient id="paint0_linear_134_717" x1="49.5593" y1="52.1614" x2="50.5577" y2="46.1002" gradientUnits="userSpaceOnUse">
<stop stop-color="#B8B8B8"/>
<stop offset="0.66" stop-color="#B8B8B8" stop-opacity="0"/>
</linearGradient>
</defs>
</svg>
