<svg width="264" height="64" viewBox="0 0 264 64" fill="none" xmlns="http://www.w3.org/2000/svg">
<rect x="0.5" y="0.5" width="263" height="63" rx="7.5" fill="white" stroke="#C8D4E8"/>
<mask id="mask0_1986_6117" style="mask-type:alpha" maskUnits="userSpaceOnUse" x="28" y="27" width="30" height="27">
<path fill-rule="evenodd" clip-rule="evenodd" d="M28 39.8493C28 51.9333 39.136 53.1693 41.548 53.1693C42.844 53.1693 44.8 52.7973 45.964 52.4253L46.18 52.3533C50.692 50.7933 54.532 47.7453 57.076 43.7133C57.268 43.4133 57.184 43.0053 56.872 42.8133C56.668 42.6813 56.416 42.6813 56.2 42.7893C55.636 43.0773 55.06 43.3413 54.472 43.5573C52.588 44.2653 50.608 44.6133 48.592 44.6133C40.852 44.6133 34.108 39.2853 34.108 32.4573C34.132 30.5853 35.152 28.8813 36.796 27.9933C29.8 28.2693 28 35.5653 28 39.8493Z" fill="white"/>
</mask>
<g mask="url(#mask0_1986_6117)">
<path d="M28 39.8493C28 51.9333 39.136 53.1693 41.548 53.1693C42.844 53.1693 44.8 52.7973 45.964 52.4253L46.18 52.3533C50.692 50.7933 54.532 47.7453 57.076 43.7133C57.268 43.4133 57.184 43.0053 56.872 42.8133C56.668 42.6813 56.416 42.6813 56.2 42.7893C55.636 43.0773 55.06 43.3413 54.472 43.5573C52.588 44.2653 50.608 44.6133 48.592 44.6133C40.852 44.6133 34.108 39.2853 34.108 32.4573C34.132 30.5853 35.152 28.8813 36.796 27.9933C29.8 28.2693 28 35.5653 28 39.8493Z" fill="url(#paint0_linear_1986_6117)"/>
</g>
<path d="M18.4108 32.2771C18.3868 35.4451 19.0588 38.5651 20.3908 41.4451C23.9188 48.9691 31.4068 53.4931 39.3268 53.5051H39.3868C41.5828 53.5051 43.8028 53.1571 45.9748 52.4251C42.5188 53.5171 38.7748 53.0371 35.7028 51.1171L35.6908 51.1051C34.2268 50.2051 32.9668 49.0171 31.9708 47.6131C27.6748 41.7211 28.9588 33.4531 34.8508 29.1571C35.4628 28.7131 36.1228 28.3171 36.8068 27.9811C37.3228 27.7411 38.1868 27.3091 39.3508 27.3211C41.0068 27.3331 42.5668 28.1251 43.5508 29.4451C44.2108 30.3331 44.5708 31.4011 44.5948 32.4931C44.5948 32.4571 48.6028 19.4731 31.5028 19.4731C24.3268 19.4731 18.4108 26.3011 18.4108 32.2771Z" fill="#3775AE"/>
<mask id="mask1_1986_6117" style="mask-type:alpha" maskUnits="userSpaceOnUse" x="18" y="11" width="43" height="29">
<path fill-rule="evenodd" clip-rule="evenodd" d="M39.3463 11.6C27.8983 11.6 18.5742 20.78 18.4062 32.216C18.5022 26.252 24.4422 21.44 31.4982 21.44C32.0742 21.44 35.3382 21.5 38.3742 23.084C41.0502 24.488 42.4542 26.18 43.4262 27.86C44.4222 29.612 44.6022 31.82 44.6022 32.696C44.6022 33.572 44.1582 34.88 43.3302 35.948C43.1982 36.116 42.7902 36.356 42.7902 36.872C42.7902 37.304 43.0662 37.712 43.5582 38.06C45.9102 39.692 50.3503 39.476 50.3622 39.476C52.1022 39.476 53.8182 38.996 55.3182 38.108C58.3902 36.308 60.2862 33.02 60.2982 29.456C60.2982 29.408 60.2982 29.36 60.2982 29.324V29.264C60.2862 25.712 58.9782 23.336 58.4382 22.28C54.9702 15.5 47.4823 11.6 39.3463 11.6Z" fill="white"/>
</mask>
<g mask="url(#mask1_1986_6117)">
<path d="M39.3423 11.6C27.8943 11.6 18.5703 20.78 18.4023 32.216C18.4983 26.252 24.4383 21.44 31.4943 21.44C32.0703 21.44 35.3343 21.5 38.3703 23.084C41.0463 24.488 42.4503 26.18 43.4223 27.86C44.4183 29.612 44.5983 31.82 44.5983 32.696C44.5983 33.572 44.1543 34.88 43.3263 35.948C43.1943 36.116 42.7863 36.356 42.7863 36.872C42.7863 37.304 43.0623 37.712 43.5543 38.06C45.9063 39.692 50.3463 39.476 50.3583 39.476C52.0983 39.476 53.8143 38.996 55.3143 38.108C58.3863 36.308 60.2823 33.02 60.2943 29.456C60.2943 29.408 60.2943 29.36 60.2943 29.324V29.264C60.2823 25.712 58.9743 23.336 58.4343 22.28C54.9663 15.5 47.4783 11.6 39.3423 11.6Z" fill="url(#paint1_radial_1986_6117)"/>
</g>
<path d="M87.728 21.736H83.168L81.984 25H80.576L84.784 13.8H86.096L90.336 25H88.928L87.728 21.736ZM87.328 20.632L85.456 15.56H85.392L83.568 20.632H87.328ZM94.7575 25.112C94.0108 25.112 93.3708 24.92 92.8375 24.536C92.3148 24.152 91.9148 23.6293 91.6375 22.968C91.3602 22.3067 91.2215 21.56 91.2215 20.728C91.2215 19.8853 91.3602 19.1333 91.6375 18.472C91.9148 17.8107 92.3202 17.2933 92.8535 16.92C93.3868 16.536 94.0322 16.344 94.7895 16.344C95.5362 16.344 96.1388 16.5253 96.5975 16.888C97.0668 17.24 97.4135 17.656 97.6375 18.136H97.7655V13H99.1415V25H97.7655V23.272H97.6375C97.3815 23.784 97.0188 24.2213 96.5495 24.584C96.0908 24.936 95.4935 25.112 94.7575 25.112ZM95.1735 23.928C96.0055 23.928 96.6402 23.624 97.0775 23.016C97.5148 22.3973 97.7335 21.6347 97.7335 20.728C97.7335 19.8213 97.5148 19.064 97.0775 18.456C96.6402 17.848 96.0055 17.544 95.1735 17.544C94.3308 17.544 93.6962 17.848 93.2695 18.456C92.8428 19.064 92.6295 19.8213 92.6295 20.728C92.6295 21.6453 92.8428 22.408 93.2695 23.016C93.7068 23.624 94.3415 23.928 95.1735 23.928ZM104.664 25.112C103.917 25.112 103.277 24.92 102.744 24.536C102.221 24.152 101.821 23.6293 101.544 22.968C101.266 22.3067 101.128 21.56 101.128 20.728C101.128 19.8853 101.266 19.1333 101.544 18.472C101.821 17.8107 102.226 17.2933 102.76 16.92C103.293 16.536 103.938 16.344 104.696 16.344C105.442 16.344 106.045 16.5253 106.504 16.888C106.973 17.24 107.32 17.656 107.544 18.136H107.672V13H109.048V25H107.672V23.272H107.544C107.288 23.784 106.925 24.2213 106.456 24.584C105.997 24.936 105.4 25.112 104.664 25.112ZM105.08 23.928C105.912 23.928 106.546 23.624 106.984 23.016C107.421 22.3973 107.64 21.6347 107.64 20.728C107.64 19.8213 107.421 19.064 106.984 18.456C106.546 17.848 105.912 17.544 105.08 17.544C104.237 17.544 103.602 17.848 103.176 18.456C102.749 19.064 102.536 19.8213 102.536 20.728C102.536 21.6453 102.749 22.408 103.176 23.016C103.613 23.624 104.248 23.928 105.08 23.928ZM115.25 16.568H116.626V25H115.25V16.568ZM115.922 15C115.666 15 115.452 14.9147 115.282 14.744C115.111 14.5627 115.026 14.3493 115.026 14.104C115.026 13.8587 115.111 13.6507 115.282 13.48C115.452 13.2987 115.666 13.208 115.922 13.208C116.178 13.208 116.391 13.2987 116.562 13.48C116.743 13.6507 116.834 13.8587 116.834 14.104C116.834 14.3493 116.743 14.5627 116.562 14.744C116.391 14.9147 116.178 15 115.922 15ZM121.394 17.672V22.568C121.394 22.9627 121.41 23.256 121.442 23.448C121.484 23.6293 121.586 23.7733 121.746 23.88C121.916 23.9867 122.188 24.04 122.562 24.04C122.818 24.04 123.095 24.0027 123.394 23.928V24.92C123.319 24.952 123.154 24.984 122.898 25.016C122.652 25.048 122.396 25.064 122.13 25.064C121.511 25.064 121.047 24.9787 120.738 24.808C120.439 24.6267 120.242 24.3867 120.146 24.088C120.06 23.7787 120.018 23.3733 120.018 22.872V17.672H118.45V16.568H120.018V13.8H121.394V16.568H123.394V17.672H121.394ZM132.674 25.112C131.821 25.112 131.096 24.9093 130.498 24.504C129.912 24.088 129.469 23.5493 129.17 22.888C128.872 22.216 128.722 21.496 128.722 20.728C128.722 19.96 128.872 19.2453 129.17 18.584C129.469 17.912 129.912 17.3733 130.498 16.968C131.096 16.552 131.821 16.344 132.674 16.344C133.528 16.344 134.248 16.552 134.834 16.968C135.432 17.3733 135.874 17.912 136.162 18.584C136.461 19.256 136.61 19.9707 136.61 20.728C136.61 21.4853 136.461 22.2 136.162 22.872C135.864 23.544 135.416 24.088 134.818 24.504C134.232 24.9093 133.517 25.112 132.674 25.112ZM132.674 23.928C133.197 23.928 133.65 23.784 134.034 23.496C134.429 23.208 134.728 22.824 134.93 22.344C135.133 21.8533 135.234 21.3093 135.234 20.712C135.234 19.7947 135.005 19.032 134.546 18.424C134.088 17.816 133.464 17.512 132.674 17.512C132.141 17.512 131.677 17.656 131.282 17.944C130.898 18.232 130.605 18.6213 130.402 19.112C130.2 19.592 130.098 20.1253 130.098 20.712C130.098 21.6293 130.328 22.3973 130.786 23.016C131.245 23.624 131.874 23.928 132.674 23.928ZM138.622 16.568H139.998V18.088H140.126C140.339 17.5973 140.686 17.1867 141.166 16.856C141.646 16.5147 142.233 16.344 142.926 16.344C143.641 16.344 144.238 16.5147 144.718 16.856C145.198 17.1867 145.55 17.6293 145.774 18.184C146.009 18.728 146.126 19.32 146.126 19.96V25H144.75V20.136C144.75 19.304 144.531 18.6693 144.094 18.232C143.667 17.7947 143.107 17.576 142.414 17.576C141.678 17.576 141.091 17.816 140.654 18.296C140.217 18.7653 139.998 19.3787 139.998 20.136V25H138.622V16.568Z" fill="#465388"/>
<path d="M83.888 36.072V41.592H91.16V43.272H83.888V49.128H92.144V51H81.8V34.2H92.144V36.072H83.888ZM100.144 51.168C99.0241 51.168 98.0641 50.88 97.2641 50.304C96.4801 49.728 95.8801 48.944 95.4641 47.952C95.0481 46.96 94.8401 45.84 94.8401 44.592C94.8401 43.328 95.0481 42.2 95.4641 41.208C95.8801 40.216 96.4881 39.44 97.2881 38.88C98.0881 38.304 99.0561 38.016 100.192 38.016C101.312 38.016 102.216 38.288 102.904 38.832C103.608 39.36 104.128 39.984 104.464 40.704H104.656V33H106.72V51H104.656V48.408H104.464C104.08 49.176 103.536 49.832 102.832 50.376C102.144 50.904 101.248 51.168 100.144 51.168ZM100.768 49.392C102.016 49.392 102.968 48.936 103.624 48.024C104.28 47.096 104.608 45.952 104.608 44.592C104.608 43.232 104.28 42.096 103.624 41.184C102.968 40.272 102.016 39.816 100.768 39.816C99.5041 39.816 98.5521 40.272 97.9121 41.184C97.2721 42.096 96.9521 43.232 96.9521 44.592C96.9521 45.968 97.2721 47.112 97.9121 48.024C98.5681 48.936 99.5201 49.392 100.768 49.392ZM115.987 56.064C115.507 56.064 115.115 56.032 114.811 55.968C114.523 55.904 114.227 55.816 113.923 55.704V53.976C114.131 54.04 114.411 54.096 114.763 54.144C115.115 54.208 115.459 54.24 115.795 54.24C117.043 54.24 117.979 53.888 118.603 53.184C119.243 52.48 119.563 51.544 119.563 50.376V48.096H119.371C119.035 48.848 118.491 49.488 117.739 50.016C117.003 50.528 116.107 50.784 115.051 50.784C113.995 50.784 113.067 50.512 112.267 49.968C111.467 49.424 110.843 48.672 110.395 47.712C109.963 46.736 109.747 45.624 109.747 44.376C109.747 43.128 109.963 42.024 110.395 41.064C110.843 40.088 111.467 39.328 112.267 38.784C113.067 38.24 113.995 37.968 115.051 37.968C116.155 37.968 117.075 38.256 117.811 38.832C118.563 39.392 119.091 40.048 119.395 40.8H119.563V38.376H121.651V50.376C121.651 51.272 121.467 52.152 121.099 53.016C120.747 53.88 120.147 54.6 119.299 55.176C118.451 55.768 117.347 56.064 115.987 56.064ZM115.723 49.008C116.539 49.008 117.235 48.792 117.811 48.36C118.387 47.912 118.811 47.336 119.083 46.632C119.371 45.912 119.515 45.144 119.515 44.328C119.515 43.528 119.371 42.784 119.083 42.096C118.811 41.408 118.387 40.848 117.811 40.416C117.251 39.984 116.555 39.768 115.723 39.768C114.491 39.768 113.547 40.216 112.891 41.112C112.251 41.992 111.931 43.064 111.931 44.328C111.931 45.16 112.067 45.936 112.339 46.656C112.627 47.36 113.051 47.928 113.611 48.36C114.187 48.792 114.891 49.008 115.723 49.008ZM130.745 51.168C129.449 51.168 128.353 50.856 127.457 50.232C126.577 49.608 125.921 48.792 125.489 47.784C125.057 46.776 124.841 45.712 124.841 44.592C124.841 43.456 125.057 42.392 125.489 41.4C125.921 40.392 126.585 39.576 127.481 38.952C128.377 38.328 129.473 38.016 130.769 38.016C132.465 38.016 133.817 38.584 134.825 39.72C135.849 40.856 136.361 42.488 136.361 44.616V45.192H126.905V45.36C126.905 46.064 127.065 46.728 127.385 47.352C127.705 47.976 128.153 48.48 128.729 48.864C129.305 49.248 129.969 49.44 130.721 49.44C131.537 49.44 132.241 49.232 132.833 48.816C133.425 48.4 133.865 47.84 134.153 47.136H136.193C135.857 48.288 135.225 49.248 134.297 50.016C133.385 50.784 132.201 51.168 130.745 51.168ZM134.321 43.728C134.257 42.288 133.905 41.248 133.265 40.608C132.625 39.968 131.785 39.648 130.745 39.648C129.609 39.648 128.705 40.024 128.033 40.776C127.361 41.528 127.001 42.512 126.953 43.728H134.321ZM154.733 46.104H147.893L146.117 51H144.005L150.317 34.2H152.285L158.645 51H156.533L154.733 46.104ZM154.133 44.448L151.325 36.84H151.229L148.493 44.448H154.133ZM165.277 51.168C164.157 51.168 163.197 50.88 162.397 50.304C161.613 49.728 161.013 48.944 160.597 47.952C160.181 46.96 159.973 45.84 159.973 44.592C159.973 43.328 160.181 42.2 160.597 41.208C161.013 40.216 161.621 39.44 162.421 38.88C163.221 38.304 164.189 38.016 165.325 38.016C166.445 38.016 167.349 38.288 168.037 38.832C168.741 39.36 169.261 39.984 169.597 40.704H169.789V33H171.853V51H169.789V48.408H169.597C169.213 49.176 168.669 49.832 167.965 50.376C167.277 50.904 166.381 51.168 165.277 51.168ZM165.901 49.392C167.149 49.392 168.101 48.936 168.757 48.024C169.413 47.096 169.741 45.952 169.741 44.592C169.741 43.232 169.413 42.096 168.757 41.184C168.101 40.272 167.149 39.816 165.901 39.816C164.637 39.816 163.685 40.272 163.045 41.184C162.405 42.096 162.085 43.232 162.085 44.592C162.085 45.968 162.405 47.112 163.045 48.024C163.701 48.936 164.653 49.392 165.901 49.392ZM180.136 51.168C179.016 51.168 178.056 50.88 177.256 50.304C176.472 49.728 175.872 48.944 175.456 47.952C175.04 46.96 174.832 45.84 174.832 44.592C174.832 43.328 175.04 42.2 175.456 41.208C175.872 40.216 176.48 39.44 177.28 38.88C178.08 38.304 179.048 38.016 180.184 38.016C181.304 38.016 182.208 38.288 182.896 38.832C183.6 39.36 184.12 39.984 184.456 40.704H184.648V33H186.712V51H184.648V48.408H184.456C184.072 49.176 183.528 49.832 182.824 50.376C182.136 50.904 181.24 51.168 180.136 51.168ZM180.76 49.392C182.008 49.392 182.96 48.936 183.616 48.024C184.272 47.096 184.6 45.952 184.6 44.592C184.6 43.232 184.272 42.096 183.616 41.184C182.96 40.272 182.008 39.816 180.76 39.816C179.496 39.816 178.544 40.272 177.904 41.184C177.264 42.096 176.944 43.232 176.944 44.592C176.944 45.968 177.264 47.112 177.904 48.024C178.56 48.936 179.512 49.392 180.76 49.392ZM191.324 42.648H200.132V44.352H191.324V42.648ZM210.082 51.168C208.802 51.168 207.714 50.864 206.818 50.256C205.938 49.632 205.274 48.824 204.826 47.832C204.378 46.824 204.154 45.744 204.154 44.592C204.154 43.44 204.378 42.368 204.826 41.376C205.274 40.368 205.938 39.56 206.818 38.952C207.714 38.328 208.802 38.016 210.082 38.016C211.362 38.016 212.442 38.328 213.322 38.952C214.218 39.56 214.882 40.368 215.314 41.376C215.762 42.384 215.986 43.456 215.986 44.592C215.986 45.728 215.762 46.8 215.314 47.808C214.866 48.816 214.194 49.632 213.298 50.256C212.418 50.864 211.346 51.168 210.082 51.168ZM210.082 49.392C210.866 49.392 211.546 49.176 212.122 48.744C212.714 48.312 213.162 47.736 213.466 47.016C213.77 46.28 213.922 45.464 213.922 44.568C213.922 43.192 213.578 42.048 212.89 41.136C212.202 40.224 211.266 39.768 210.082 39.768C209.282 39.768 208.586 39.984 207.994 40.416C207.418 40.848 206.978 41.432 206.674 42.168C206.37 42.888 206.218 43.688 206.218 44.568C206.218 45.944 206.562 47.096 207.25 48.024C207.938 48.936 208.882 49.392 210.082 49.392ZM219.003 38.352H221.067V40.632H221.259C221.579 39.896 222.099 39.28 222.819 38.784C223.539 38.272 224.419 38.016 225.459 38.016C226.531 38.016 227.427 38.272 228.147 38.784C228.867 39.28 229.395 39.944 229.731 40.776C230.083 41.592 230.259 42.48 230.259 43.44V51H228.195V43.704C228.195 42.456 227.867 41.504 227.211 40.848C226.571 40.192 225.731 39.864 224.691 39.864C223.587 39.864 222.707 40.224 222.051 40.944C221.395 41.648 221.067 42.568 221.067 43.704V51H219.003V38.352ZM238.018 51.168C236.994 51.168 236.106 50.968 235.354 50.568C234.602 50.152 234.026 49.624 233.626 48.984C233.242 48.344 233.05 47.672 233.05 46.968V46.848H235.114V46.944C235.114 47.344 235.226 47.744 235.45 48.144C235.674 48.528 236.01 48.848 236.458 49.104C236.906 49.344 237.45 49.464 238.09 49.464C238.858 49.464 239.49 49.28 239.986 48.912C240.498 48.528 240.754 48.008 240.754 47.352C240.754 46.808 240.554 46.376 240.154 46.056C239.77 45.736 239.282 45.528 238.69 45.432L237.034 45.192C235.994 45.032 235.122 44.68 234.418 44.136C233.714 43.576 233.362 42.768 233.362 41.712C233.362 40.544 233.778 39.64 234.61 39C235.458 38.344 236.538 38.016 237.85 38.016C238.826 38.016 239.658 38.2 240.346 38.568C241.05 38.92 241.586 39.392 241.954 39.984C242.322 40.56 242.506 41.192 242.506 41.88V41.976H240.442V41.928C240.442 41.608 240.354 41.272 240.178 40.92C240.018 40.568 239.738 40.264 239.338 40.008C238.938 39.752 238.426 39.624 237.802 39.624C237.034 39.624 236.418 39.816 235.954 40.2C235.49 40.568 235.258 41.056 235.258 41.664C235.258 42.16 235.442 42.568 235.81 42.888C236.178 43.208 236.642 43.416 237.202 43.512L239.002 43.8C240.058 43.976 240.946 44.344 241.666 44.904C242.386 45.448 242.746 46.256 242.746 47.328C242.746 48.096 242.538 48.768 242.122 49.344C241.722 49.92 241.162 50.368 240.442 50.688C239.722 51.008 238.914 51.168 238.018 51.168Z" fill="#465388"/>
<defs>
<linearGradient id="paint0_linear_1986_6117" x1="28.0057" y1="40.5702" x2="57.1801" y2="40.5702" gradientUnits="userSpaceOnUse">
<stop stop-color="#0B59A3"/>
<stop offset="1" stop-color="#11498A"/>
</linearGradient>
<radialGradient id="paint1_radial_1986_6117" cx="0" cy="0" r="1" gradientUnits="userSpaceOnUse" gradientTransform="translate(54.2217 34.5203) rotate(88.2279) scale(25.6152 25.615)">
<stop stop-color="#66EB6E"/>
<stop offset="1" stop-color="#40BBD3"/>
</radialGradient>
</defs>
</svg>
