<svg width="312" height="64" viewBox="0 0 312 64" fill="none" xmlns="http://www.w3.org/2000/svg">
<rect x="0.5" y="0.5" width="311" height="63" rx="7.5" fill="white" stroke="#C8D4E8"/>
<path fill-rule="evenodd" clip-rule="evenodd" d="M18.4023 12.8V48.1691C18.4023 49.2251 18.9509 50.1577 19.7738 50.7063C19.8149 50.7337 19.8561 50.7611 19.9109 50.7886C20.3498 51.0491 20.8572 51.2 21.4058 51.2H59.2983C59.8332 51.2 60.3406 51.0491 60.7795 50.8023C60.8206 50.7749 60.8618 50.7474 60.9166 50.7063C61.7395 50.1714 62.2881 49.2251 62.2881 48.1691V12.8H18.4023ZM35.4492 16.9143H45.2549C46.3383 16.9143 47.2023 17.8331 47.2023 18.9714C47.2023 20.1097 46.3246 21.0286 45.2549 21.0286H35.4492C34.3658 21.0286 33.4881 20.1097 33.4881 18.9714C33.4881 17.8331 34.3658 16.9143 35.4492 16.9143Z" fill="#EFEFEF"/>
<path fill-rule="evenodd" clip-rule="evenodd" d="M60.9241 48.4571C60.9241 49.2526 60.883 50.0343 60.787 50.8023C60.3481 51.0491 59.8407 51.2 59.3058 51.2H21.4133C20.8647 51.2 20.3573 51.0491 19.9184 50.7886C19.8224 50.0206 19.7812 49.2526 19.7812 48.4571C19.7812 44.3566 20.9744 40.544 23.0453 37.3349L23.059 37.3211C26.7207 31.6434 33.0978 27.8857 40.3527 27.8857C48.3481 27.8857 55.2738 32.4389 58.675 39.104C60.115 41.9017 60.9241 45.0834 60.9241 48.4571Z" fill="#D8D8D8"/>
<path d="M58.6707 39.104H40.3484L39.2238 41.0651L33.3953 51.1589L33.3815 51.1726L33.3678 51.2H23.0547V37.3211C26.7164 31.6434 33.0935 27.8857 40.3484 27.8857C48.3438 27.8857 55.2695 32.4389 58.6707 39.104Z" fill="#DB4437"/>
<path d="M31.1289 51.2H21.4054C20.8569 51.2 20.3494 51.0491 19.9106 50.7886C19.8557 50.7611 19.8146 50.7337 19.7734 50.7063V48.4571C19.7734 44.3566 20.9666 40.544 23.0374 37.3349L23.0512 37.3623L31.1289 51.2Z" fill="#0F9D58"/>
<path d="M60.9191 48.4571V50.7063C60.8642 50.7474 60.8231 50.7749 60.7819 50.8023C60.3431 51.0491 59.8357 51.2 59.3008 51.2H47.3419L47.3145 51.1863V51.1726L41.4859 41.0651L40.3477 39.104H58.6699C60.1099 41.9017 60.9191 45.0834 60.9191 48.4571Z" fill="#FFCD40"/>
<path d="M60.9191 48.4571V50.7063C60.8642 50.7474 60.8231 50.7749 60.7819 50.8023C60.3431 51.0491 59.8357 51.2 59.3008 51.2H47.3419L47.3145 51.1863V51.1726L41.4859 41.0651L40.3477 39.104H58.6699C60.1099 41.9017 60.9191 45.0834 60.9191 48.4571Z" fill="url(#paint0_linear_1986_6116)"/>
<path d="M49.7043 48.4571C49.7043 49.4034 49.5671 50.336 49.2929 51.2H31.4231C31.1489 50.336 31.0117 49.4034 31.0117 48.4571C31.0117 43.2869 35.1946 39.104 40.3511 39.104C45.5214 39.104 49.7043 43.2869 49.7043 48.4571Z" fill="#F1F1F1"/>
<path d="M47.8373 48.4571C47.8373 49.4171 47.659 50.336 47.3161 51.1726V51.1863C47.3161 51.1863 47.3161 51.1863 47.3024 51.2H33.4099C33.3961 51.1863 33.3824 51.1863 33.3824 51.1726L33.3961 51.1589C33.0533 50.3223 32.875 49.4171 32.875 48.4571C32.875 44.6994 35.6316 41.6 39.2247 41.0651C39.595 40.9966 39.9653 40.9691 40.3493 40.9691C40.7333 40.9691 41.1173 40.9966 41.4876 41.0651C45.0944 41.6 47.8373 44.6994 47.8373 48.4571Z" fill="#4285F4"/>
<mask id="mask0_1986_6116" style="mask-type:alpha" maskUnits="userSpaceOnUse" x="18" y="12" width="45" height="40">
<path fill-rule="evenodd" clip-rule="evenodd" d="M18.4023 12.8V48.1691C18.4023 49.8286 19.7601 51.2 21.4058 51.2H59.3121C60.9578 51.2 62.3018 49.8286 62.3018 48.1691V12.8H18.4023ZM33.4881 18.9714C33.4881 17.8331 34.3658 16.9143 35.4492 16.9143H45.2412C46.3383 16.9143 47.2023 17.8331 47.2023 18.9714C47.2023 20.1097 46.3246 21.0286 45.2549 21.0286H35.4629C34.3658 21.0286 33.4881 20.1097 33.4881 18.9714Z" fill="white"/>
</mask>
<g mask="url(#mask0_1986_6116)">
<path fill-rule="evenodd" clip-rule="evenodd" d="M18.4062 12.8H62.292V30.6286H18.4062V12.8Z" fill="black" fill-opacity="0.04"/>
</g>
<path d="M87.728 21.736H83.168L81.984 25H80.576L84.784 13.8H86.096L90.336 25H88.928L87.728 21.736ZM87.328 20.632L85.456 15.56H85.392L83.568 20.632H87.328ZM91.0745 16.568H92.4185L94.9465 23.544H95.0265L97.5545 16.568H98.8985L95.8265 25H94.1305L91.0745 16.568ZM103.429 25.112C102.682 25.112 102.042 24.92 101.509 24.536C100.986 24.152 100.586 23.6293 100.309 22.968C100.031 22.3067 99.8926 21.56 99.8926 20.728C99.8926 19.896 100.031 19.1493 100.309 18.488C100.597 17.816 101.007 17.2933 101.541 16.92C102.085 16.536 102.73 16.344 103.477 16.344C104.223 16.344 104.826 16.52 105.285 16.872C105.743 17.224 106.09 17.6453 106.325 18.136H106.437V16.568H107.829V25H106.437V23.272H106.325C106.069 23.7733 105.706 24.2053 105.237 24.568C104.767 24.9307 104.165 25.112 103.429 25.112ZM103.861 23.928C104.682 23.928 105.311 23.624 105.749 23.016C106.186 22.3973 106.405 21.6347 106.405 20.728C106.405 19.8213 106.186 19.064 105.749 18.456C105.311 17.8373 104.682 17.528 103.861 17.528C103.018 17.528 102.378 17.832 101.941 18.44C101.514 19.048 101.301 19.8053 101.301 20.712C101.301 21.6293 101.514 22.3973 101.941 23.016C102.378 23.624 103.018 23.928 103.861 23.928ZM110.375 16.568H111.751V25H110.375V16.568ZM111.047 15C110.791 15 110.577 14.9147 110.407 14.744C110.236 14.5627 110.151 14.3493 110.151 14.104C110.151 13.8587 110.236 13.6507 110.407 13.48C110.577 13.2987 110.791 13.208 111.047 13.208C111.303 13.208 111.516 13.2987 111.687 13.48C111.868 13.6507 111.959 13.8587 111.959 14.104C111.959 14.3493 111.868 14.5627 111.687 14.744C111.516 14.9147 111.303 15 111.047 15ZM116.469 25.064C115.84 25.064 115.371 24.9627 115.061 24.76C114.752 24.5573 114.555 24.296 114.469 23.976C114.395 23.6453 114.357 23.2187 114.357 22.696L114.373 13H115.749V22.488C115.749 22.8933 115.765 23.1973 115.797 23.4C115.84 23.592 115.941 23.7467 116.101 23.864C116.272 23.9813 116.539 24.04 116.901 24.04C117.125 24.04 117.323 24.024 117.493 23.992V24.984C117.205 25.0373 116.864 25.064 116.469 25.064ZM122.429 25.112C121.682 25.112 121.042 24.92 120.509 24.536C119.986 24.152 119.586 23.6293 119.309 22.968C119.031 22.3067 118.893 21.56 118.893 20.728C118.893 19.896 119.031 19.1493 119.309 18.488C119.597 17.816 120.007 17.2933 120.541 16.92C121.085 16.536 121.73 16.344 122.477 16.344C123.223 16.344 123.826 16.52 124.285 16.872C124.743 17.224 125.09 17.6453 125.325 18.136H125.437V16.568H126.829V25H125.437V23.272H125.325C125.069 23.7733 124.706 24.2053 124.237 24.568C123.767 24.9307 123.165 25.112 122.429 25.112ZM122.861 23.928C123.682 23.928 124.311 23.624 124.749 23.016C125.186 22.3973 125.405 21.6347 125.405 20.728C125.405 19.8213 125.186 19.064 124.749 18.456C124.311 17.8373 123.682 17.528 122.861 17.528C122.018 17.528 121.378 17.832 120.941 18.44C120.514 19.048 120.301 19.8053 120.301 20.712C120.301 21.6293 120.514 22.3973 120.941 23.016C121.378 23.624 122.018 23.928 122.861 23.928ZM133.647 25.112C132.911 25.112 132.308 24.9307 131.839 24.568C131.369 24.2053 131.007 23.7733 130.751 23.272H130.639V25H129.247V13H130.639V18.136H130.751C130.985 17.6453 131.332 17.224 131.791 16.872C132.249 16.52 132.852 16.344 133.599 16.344C134.356 16.344 135.001 16.536 135.535 16.92C136.079 17.2933 136.489 17.816 136.767 18.488C137.044 19.1493 137.183 19.896 137.183 20.728C137.183 21.56 137.044 22.3067 136.767 22.968C136.489 23.6293 136.084 24.152 135.551 24.536C135.017 24.92 134.383 25.112 133.647 25.112ZM133.215 23.928C134.047 23.928 134.676 23.624 135.103 23.016C135.54 22.408 135.759 21.6453 135.759 20.728C135.759 19.8213 135.545 19.064 135.119 18.456C134.692 17.848 134.057 17.544 133.215 17.544C132.383 17.544 131.748 17.848 131.311 18.456C130.884 19.064 130.671 19.8213 130.671 20.728C130.671 21.6347 130.889 22.3973 131.327 23.016C131.764 23.624 132.393 23.928 133.215 23.928ZM141.313 25.064C140.684 25.064 140.214 24.9627 139.905 24.76C139.596 24.5573 139.398 24.296 139.313 23.976C139.238 23.6453 139.201 23.2187 139.201 22.696L139.217 13H140.593V22.488C140.593 22.8933 140.609 23.1973 140.641 23.4C140.684 23.592 140.785 23.7467 140.945 23.864C141.116 23.9813 141.382 24.04 141.745 24.04C141.969 24.04 142.166 24.024 142.337 23.992V24.984C142.049 25.0373 141.708 25.064 141.313 25.064ZM147.736 25.112C146.872 25.112 146.142 24.904 145.544 24.488C144.958 24.072 144.52 23.528 144.232 22.856C143.944 22.184 143.8 21.4747 143.8 20.728C143.8 19.9707 143.944 19.2613 144.232 18.6C144.52 17.928 144.963 17.384 145.56 16.968C146.158 16.552 146.888 16.344 147.752 16.344C148.883 16.344 149.784 16.7227 150.456 17.48C151.139 18.2373 151.48 19.3253 151.48 20.744V21.128H145.176V21.24C145.176 21.7093 145.283 22.152 145.496 22.568C145.71 22.984 146.008 23.32 146.392 23.576C146.776 23.832 147.219 23.96 147.72 23.96C148.264 23.96 148.734 23.8213 149.128 23.544C149.523 23.2667 149.816 22.8933 150.008 22.424H151.368C151.144 23.192 150.723 23.832 150.104 24.344C149.496 24.856 148.707 25.112 147.736 25.112ZM150.12 20.152C150.078 19.192 149.843 18.4987 149.416 18.072C148.99 17.6453 148.43 17.432 147.736 17.432C146.979 17.432 146.376 17.6827 145.928 18.184C145.48 18.6853 145.24 19.3413 145.208 20.152H150.12ZM157.312 16.568H158.688V25H157.312V16.568ZM157.984 15C157.728 15 157.515 14.9147 157.344 14.744C157.173 14.5627 157.088 14.3493 157.088 14.104C157.088 13.8587 157.173 13.6507 157.344 13.48C157.515 13.2987 157.728 13.208 157.984 13.208C158.24 13.208 158.453 13.2987 158.624 13.48C158.805 13.6507 158.896 13.8587 158.896 14.104C158.896 14.3493 158.805 14.5627 158.624 14.744C158.453 14.9147 158.24 15 157.984 15ZM161.247 16.568H162.623V18.088H162.751C162.964 17.5973 163.311 17.1867 163.791 16.856C164.271 16.5147 164.858 16.344 165.551 16.344C166.266 16.344 166.863 16.5147 167.343 16.856C167.823 17.1867 168.175 17.6293 168.399 18.184C168.634 18.728 168.751 19.32 168.751 19.96V25H167.375V20.136C167.375 19.304 167.156 18.6693 166.719 18.232C166.292 17.7947 165.732 17.576 165.039 17.576C164.303 17.576 163.716 17.816 163.279 18.296C162.842 18.7653 162.623 19.3787 162.623 20.136V25H161.247V16.568ZM176.987 17.672V22.568C176.987 22.9627 177.003 23.256 177.035 23.448C177.078 23.6293 177.179 23.7733 177.339 23.88C177.51 23.9867 177.782 24.04 178.155 24.04C178.411 24.04 178.689 24.0027 178.987 23.928V24.92C178.913 24.952 178.747 24.984 178.491 25.016C178.246 25.048 177.99 25.064 177.723 25.064C177.105 25.064 176.641 24.9787 176.331 24.808C176.033 24.6267 175.835 24.3867 175.739 24.088C175.654 23.7787 175.611 23.3733 175.611 22.872V17.672H174.043V16.568H175.611V13.8H176.987V16.568H178.987V17.672H176.987ZM181.122 13.048H182.498V18.088H182.626C182.839 17.5973 183.186 17.1867 183.666 16.856C184.146 16.5147 184.733 16.344 185.426 16.344C186.141 16.344 186.738 16.5147 187.218 16.856C187.698 17.1867 188.05 17.6293 188.274 18.184C188.509 18.728 188.626 19.32 188.626 19.96V25H187.25V20.136C187.25 19.304 187.031 18.6693 186.594 18.232C186.167 17.7947 185.597 17.576 184.882 17.576C184.199 17.576 183.629 17.8053 183.17 18.264C182.722 18.7227 182.498 19.3467 182.498 20.136V25H181.122V13.048ZM194.518 25.112C193.654 25.112 192.923 24.904 192.326 24.488C191.739 24.072 191.302 23.528 191.014 22.856C190.726 22.184 190.582 21.4747 190.582 20.728C190.582 19.9707 190.726 19.2613 191.014 18.6C191.302 17.928 191.744 17.384 192.342 16.968C192.939 16.552 193.67 16.344 194.534 16.344C195.664 16.344 196.566 16.7227 197.238 17.48C197.92 18.2373 198.262 19.3253 198.262 20.744V21.128H191.958V21.24C191.958 21.7093 192.064 22.152 192.278 22.568C192.491 22.984 192.79 23.32 193.174 23.576C193.558 23.832 194 23.96 194.502 23.96C195.046 23.96 195.515 23.8213 195.91 23.544C196.304 23.2667 196.598 22.8933 196.79 22.424H198.15C197.926 23.192 197.504 23.832 196.886 24.344C196.278 24.856 195.488 25.112 194.518 25.112ZM196.902 20.152C196.859 19.192 196.624 18.4987 196.198 18.072C195.771 17.6453 195.211 17.432 194.518 17.432C193.76 17.432 193.158 17.6827 192.71 18.184C192.262 18.6853 192.022 19.3413 191.99 20.152H196.902Z" fill="#465388"/>
<path d="M88.88 51.168C87.312 51.168 85.96 50.8 84.824 50.064C83.688 49.312 82.816 48.28 82.208 46.968C81.616 45.656 81.32 44.168 81.32 42.504C81.32 40.84 81.616 39.352 82.208 38.04C82.816 36.728 83.688 35.704 84.824 34.968C85.96 34.216 87.312 33.84 88.88 33.84C90.768 33.84 92.328 34.376 93.56 35.448C94.792 36.504 95.616 37.936 96.032 39.744H93.992C93.656 38.512 93.04 37.536 92.144 36.816C91.248 36.08 90.168 35.712 88.904 35.712C87.16 35.712 85.824 36.328 84.896 37.56C83.968 38.776 83.504 40.416 83.504 42.48C83.504 44.56 83.968 46.216 84.896 47.448C85.824 48.664 87.16 49.272 88.904 49.272C90.104 49.272 91.136 48.952 92 48.312C92.864 47.656 93.48 46.784 93.848 45.696H95.888C95.44 47.36 94.608 48.688 93.392 49.68C92.192 50.672 90.688 51.168 88.88 51.168ZM98.8859 33.072H100.95V40.632H101.142C101.462 39.896 101.982 39.28 102.702 38.784C103.422 38.272 104.302 38.016 105.342 38.016C106.414 38.016 107.31 38.272 108.03 38.784C108.75 39.28 109.278 39.944 109.614 40.776C109.966 41.592 110.142 42.48 110.142 43.44V51H108.078V43.704C108.078 42.456 107.75 41.504 107.094 40.848C106.454 40.192 105.598 39.864 104.526 39.864C103.502 39.864 102.646 40.208 101.958 40.896C101.286 41.584 100.95 42.52 100.95 43.704V51H98.8859V33.072ZM113.485 38.352H115.549V40.368H115.693C115.901 39.808 116.269 39.336 116.797 38.952C117.341 38.552 118.021 38.352 118.837 38.352C119.093 38.352 119.293 38.368 119.437 38.4C119.597 38.416 119.773 38.456 119.965 38.52L119.893 40.536C119.637 40.456 119.413 40.4 119.221 40.368C119.045 40.336 118.813 40.32 118.525 40.32C116.541 40.32 115.549 41.496 115.549 43.848V51H113.485V38.352ZM127.23 51.168C125.95 51.168 124.862 50.864 123.966 50.256C123.086 49.632 122.422 48.824 121.974 47.832C121.526 46.824 121.302 45.744 121.302 44.592C121.302 43.44 121.526 42.368 121.974 41.376C122.422 40.368 123.086 39.56 123.966 38.952C124.862 38.328 125.95 38.016 127.23 38.016C128.51 38.016 129.59 38.328 130.47 38.952C131.366 39.56 132.03 40.368 132.462 41.376C132.91 42.384 133.134 43.456 133.134 44.592C133.134 45.728 132.91 46.8 132.462 47.808C132.014 48.816 131.342 49.632 130.446 50.256C129.566 50.864 128.494 51.168 127.23 51.168ZM127.23 49.392C128.014 49.392 128.694 49.176 129.27 48.744C129.862 48.312 130.31 47.736 130.614 47.016C130.918 46.28 131.07 45.464 131.07 44.568C131.07 43.192 130.726 42.048 130.038 41.136C129.35 40.224 128.414 39.768 127.23 39.768C126.43 39.768 125.734 39.984 125.142 40.416C124.566 40.848 124.126 41.432 123.822 42.168C123.518 42.888 123.366 43.688 123.366 44.568C123.366 45.944 123.71 47.096 124.398 48.024C125.086 48.936 126.03 49.392 127.23 49.392ZM136.152 38.352H138.192V40.68H138.384C138.416 40.52 138.576 40.232 138.864 39.816C139.152 39.384 139.592 38.976 140.184 38.592C140.776 38.208 141.512 38.016 142.392 38.016C143.32 38.016 144.088 38.232 144.696 38.664C145.32 39.096 145.784 39.56 146.088 40.056C146.392 40.552 146.544 40.864 146.544 40.992H146.736C146.96 40.432 147.4 39.8 148.056 39.096C148.728 38.376 149.752 38.016 151.128 38.016C152.152 38.016 153.008 38.28 153.696 38.808C154.384 39.32 154.888 39.984 155.208 40.8C155.544 41.616 155.712 42.488 155.712 43.416V51H153.672V43.608C153.672 42.392 153.352 41.472 152.712 40.848C152.088 40.224 151.312 39.912 150.384 39.912C149.424 39.912 148.608 40.24 147.936 40.896C147.28 41.536 146.952 42.44 146.952 43.608V51H144.912V43.608C144.912 42.392 144.592 41.472 143.952 40.848C143.328 40.224 142.552 39.912 141.624 39.912C140.664 39.912 139.848 40.24 139.176 40.896C138.52 41.536 138.192 42.44 138.192 43.608V51H136.152V38.352ZM164.542 51.168C163.246 51.168 162.15 50.856 161.254 50.232C160.374 49.608 159.718 48.792 159.286 47.784C158.854 46.776 158.638 45.712 158.638 44.592C158.638 43.456 158.854 42.392 159.286 41.4C159.718 40.392 160.382 39.576 161.278 38.952C162.174 38.328 163.27 38.016 164.566 38.016C166.262 38.016 167.614 38.584 168.622 39.72C169.646 40.856 170.158 42.488 170.158 44.616V45.192H160.702V45.36C160.702 46.064 160.862 46.728 161.182 47.352C161.502 47.976 161.95 48.48 162.526 48.864C163.102 49.248 163.766 49.44 164.518 49.44C165.334 49.44 166.038 49.232 166.63 48.816C167.222 48.4 167.662 47.84 167.95 47.136H169.99C169.654 48.288 169.022 49.248 168.094 50.016C167.182 50.784 165.998 51.168 164.542 51.168ZM168.118 43.728C168.054 42.288 167.702 41.248 167.062 40.608C166.422 39.968 165.582 39.648 164.542 39.648C163.406 39.648 162.502 40.024 161.83 40.776C161.158 41.528 160.798 42.512 160.75 43.728H168.118ZM177.298 34.2H179.362L183.105 48.528H183.25L187.906 34.2H189.802L194.434 48.528H194.578L198.346 34.2H200.41L195.898 51H193.162L188.914 37.824H188.77L184.522 51H181.786L177.298 34.2ZM207.011 51.168C205.715 51.168 204.619 50.856 203.723 50.232C202.843 49.608 202.187 48.792 201.755 47.784C201.323 46.776 201.107 45.712 201.107 44.592C201.107 43.456 201.323 42.392 201.755 41.4C202.187 40.392 202.851 39.576 203.747 38.952C204.643 38.328 205.739 38.016 207.035 38.016C208.731 38.016 210.083 38.584 211.091 39.72C212.115 40.856 212.627 42.488 212.627 44.616V45.192H203.171V45.36C203.171 46.064 203.331 46.728 203.651 47.352C203.971 47.976 204.419 48.48 204.995 48.864C205.571 49.248 206.235 49.44 206.987 49.44C207.803 49.44 208.507 49.232 209.099 48.816C209.691 48.4 210.131 47.84 210.419 47.136H212.459C212.123 48.288 211.491 49.248 210.563 50.016C209.651 50.784 208.467 51.168 207.011 51.168ZM210.587 43.728C210.523 42.288 210.171 41.248 209.531 40.608C208.891 39.968 208.051 39.648 207.011 39.648C205.875 39.648 204.971 40.024 204.299 40.776C203.627 41.528 203.267 42.512 203.219 43.728H210.587ZM222.251 51.168C221.147 51.168 220.243 50.896 219.539 50.352C218.835 49.808 218.291 49.16 217.907 48.408H217.739V51H215.651V33H217.739V40.704H217.907C218.259 39.968 218.779 39.336 219.467 38.808C220.155 38.28 221.059 38.016 222.179 38.016C223.315 38.016 224.283 38.304 225.083 38.88C225.899 39.44 226.515 40.224 226.931 41.232C227.347 42.224 227.555 43.344 227.555 44.592C227.555 45.84 227.347 46.96 226.931 47.952C226.515 48.944 225.907 49.728 225.107 50.304C224.307 50.88 223.355 51.168 222.251 51.168ZM221.603 49.392C222.851 49.392 223.795 48.936 224.435 48.024C225.091 47.112 225.419 45.968 225.419 44.592C225.419 43.232 225.099 42.096 224.459 41.184C223.819 40.272 222.867 39.816 221.603 39.816C220.355 39.816 219.403 40.272 218.747 41.184C218.107 42.096 217.787 43.232 217.787 44.592C217.787 45.952 218.115 47.096 218.771 48.024C219.427 48.936 220.371 49.392 221.603 49.392ZM241.586 51.192C240.29 51.192 239.178 50.928 238.25 50.4C237.338 49.856 236.65 49.16 236.186 48.312C235.722 47.464 235.49 46.576 235.49 45.648V45.528H237.77V45.648C237.77 46.208 237.898 46.768 238.154 47.328C238.426 47.888 238.85 48.36 239.426 48.744C240.002 49.112 240.738 49.296 241.634 49.296C242.69 49.296 243.562 49.024 244.25 48.48C244.938 47.936 245.282 47.2 245.282 46.272C245.282 45.504 245.026 44.896 244.514 44.448C244.018 43.984 243.378 43.672 242.594 43.512L240.146 43.056C237.33 42.432 235.922 40.952 235.922 38.616C235.922 37.656 236.154 36.816 236.618 36.096C237.082 35.376 237.722 34.824 238.538 34.44C239.37 34.04 240.33 33.84 241.418 33.84C242.65 33.84 243.706 34.088 244.586 34.584C245.466 35.08 246.13 35.728 246.578 36.528C247.026 37.312 247.25 38.128 247.25 38.976V39.072H244.97V39C244.97 38.52 244.85 38.032 244.61 37.536C244.386 37.024 244.002 36.584 243.458 36.216C242.93 35.848 242.226 35.664 241.346 35.664C240.338 35.664 239.53 35.944 238.922 36.504C238.33 37.064 238.034 37.76 238.034 38.592C238.034 39.296 238.266 39.872 238.73 40.32C239.194 40.768 239.826 41.072 240.626 41.232L242.834 41.664C245.922 42.288 247.466 43.8 247.466 46.2C247.466 47.176 247.218 48.04 246.722 48.792C246.242 49.544 245.554 50.136 244.658 50.568C243.762 50.984 242.738 51.192 241.586 51.192ZM253.793 40.008V47.352C253.793 47.944 253.817 48.384 253.865 48.672C253.929 48.944 254.081 49.16 254.321 49.32C254.577 49.48 254.985 49.56 255.545 49.56C255.929 49.56 256.345 49.504 256.793 49.392V50.88C256.681 50.928 256.433 50.976 256.049 51.024C255.681 51.072 255.297 51.096 254.897 51.096C253.969 51.096 253.273 50.968 252.809 50.712C252.361 50.44 252.065 50.08 251.921 49.632C251.793 49.168 251.729 48.56 251.729 47.808V40.008H249.377V38.352H251.729V34.2H253.793V38.352H256.793V40.008H253.793ZM265.183 51.168C263.903 51.168 262.815 50.864 261.919 50.256C261.039 49.632 260.375 48.824 259.927 47.832C259.479 46.824 259.255 45.744 259.255 44.592C259.255 43.44 259.479 42.368 259.927 41.376C260.375 40.368 261.039 39.56 261.919 38.952C262.815 38.328 263.903 38.016 265.183 38.016C266.463 38.016 267.543 38.328 268.423 38.952C269.319 39.56 269.983 40.368 270.415 41.376C270.863 42.384 271.087 43.456 271.087 44.592C271.087 45.728 270.863 46.8 270.415 47.808C269.967 48.816 269.295 49.632 268.399 50.256C267.519 50.864 266.447 51.168 265.183 51.168ZM265.183 49.392C265.967 49.392 266.647 49.176 267.223 48.744C267.815 48.312 268.263 47.736 268.567 47.016C268.871 46.28 269.023 45.464 269.023 44.568C269.023 43.192 268.679 42.048 267.991 41.136C267.303 40.224 266.367 39.768 265.183 39.768C264.383 39.768 263.687 39.984 263.095 40.416C262.519 40.848 262.079 41.432 261.775 42.168C261.471 42.888 261.319 43.688 261.319 44.568C261.319 45.944 261.663 47.096 262.351 48.024C263.039 48.936 263.983 49.392 265.183 49.392ZM274.009 38.352H276.073V40.368H276.217C276.425 39.808 276.793 39.336 277.321 38.952C277.865 38.552 278.545 38.352 279.361 38.352C279.617 38.352 279.817 38.368 279.961 38.4C280.121 38.416 280.297 38.456 280.489 38.52L280.417 40.536C280.161 40.456 279.937 40.4 279.745 40.368C279.569 40.336 279.337 40.32 279.049 40.32C277.065 40.32 276.073 41.496 276.073 43.848V51H274.009V38.352ZM287.73 51.168C286.434 51.168 285.338 50.856 284.442 50.232C283.562 49.608 282.906 48.792 282.474 47.784C282.042 46.776 281.826 45.712 281.826 44.592C281.826 43.456 282.042 42.392 282.474 41.4C282.906 40.392 283.57 39.576 284.466 38.952C285.362 38.328 286.458 38.016 287.754 38.016C289.45 38.016 290.802 38.584 291.81 39.72C292.834 40.856 293.346 42.488 293.346 44.616V45.192H283.89V45.36C283.89 46.064 284.05 46.728 284.37 47.352C284.69 47.976 285.138 48.48 285.714 48.864C286.29 49.248 286.954 49.44 287.706 49.44C288.522 49.44 289.226 49.232 289.818 48.816C290.41 48.4 290.85 47.84 291.138 47.136H293.178C292.842 48.288 292.21 49.248 291.282 50.016C290.37 50.784 289.186 51.168 287.73 51.168ZM291.306 43.728C291.242 42.288 290.89 41.248 290.25 40.608C289.61 39.968 288.77 39.648 287.73 39.648C286.594 39.648 285.69 40.024 285.018 40.776C284.346 41.528 283.986 42.512 283.938 43.728H291.306Z" fill="#465388"/>
<defs>
<linearGradient id="paint0_linear_1986_6116" x1="49.5593" y1="51.4294" x2="50.5577" y2="45.3683" gradientUnits="userSpaceOnUse">
<stop stop-color="#EA6100" stop-opacity="0.3"/>
<stop offset="0.66" stop-color="#EA6100" stop-opacity="0"/>
</linearGradient>
</defs>
</svg>
