<svg width="64" height="64" viewBox="0 0 64 64" fill="none" xmlns="http://www.w3.org/2000/svg">
<path d="M30.172 29.7401C36.9872 29.7401 42.512 24.2153 42.512 17.4001C42.512 10.5849 36.9872 5.06006 30.172 5.06006C23.3568 5.06006 17.832 10.5849 17.832 17.4001C17.832 24.2153 23.3568 29.7401 30.172 29.7401Z" stroke="#1A2B6B" stroke-width="2" stroke-miterlimit="10" stroke-linecap="round" stroke-linejoin="round"/>
<path d="M6.82031 54.4101C6.82031 41.5101 17.2703 31.0601 30.1703 31.0601C36.2003 31.0601 41.7103 33.3501 45.8503 37.1101" stroke="#1A2B6B" stroke-width="2" stroke-miterlimit="10" stroke-linecap="round" stroke-linejoin="round"/>
<path d="M29.4908 57.67L26.3608 54.56C26.0408 54.24 25.9008 53.82 25.9708 53.41L28.0108 41.73C28.0608 41.47 28.3308 41.27 28.6508 41.27H31.6908C32.0108 41.27 32.2908 41.46 32.3308 41.73L34.3708 53.41C34.4408 53.82 34.3008 54.24 33.9808 54.56L30.8508 57.67C30.5008 58.02 29.8508 58.02 29.4908 57.67Z" fill="#3457E5"/>
<path d="M31.9899 35.02H28.3698C27.8598 35.02 27.4698 35.48 27.5598 35.98L27.9798 38.5C28.0498 38.9 28.3898 39.19 28.7898 39.19H31.5598C31.9598 39.19 32.2998 38.9 32.3698 38.5L32.7898 35.98C32.8798 35.48 32.4999 35.02 31.9899 35.02Z" fill="#3457E5"/>
<path d="M56.1417 57.9302H40.3717C39.3517 57.9302 38.5117 57.1002 38.5117 56.0702V37.5302C38.5117 36.5102 39.3417 35.6702 40.3717 35.6702H52.3517L57.9917 41.2402V56.0802C58.0017 57.1002 57.1717 57.9302 56.1417 57.9302Z" fill="white" stroke="#3457E5" stroke-width="2" stroke-miterlimit="10" stroke-linecap="round" stroke-linejoin="round"/>
<path d="M51.5117 35.6702V40.2202C51.5117 41.2402 52.3417 42.0802 53.3717 42.0802H58.0017L51.5117 35.6702Z" fill="#3457E5"/>
<path d="M43.1602 46.8H50.5802" stroke="#3457E5" stroke-width="2" stroke-miterlimit="10" stroke-linecap="round" stroke-linejoin="round"/>
<path d="M43.1602 52.3701H53.3602" stroke="#3457E5" stroke-width="2" stroke-miterlimit="10" stroke-linecap="round" stroke-linejoin="round"/>
</svg>
