<svg width="264" height="65" viewBox="0 0 264 65" fill="none" xmlns="http://www.w3.org/2000/svg">
<rect x="0.5" y="1.23196" width="263" height="63" rx="7.5" fill="white" stroke="#C8D4E8"/>
<mask id="mask0_134_717" style="mask-type:alpha" maskUnits="userSpaceOnUse" x="28" y="28" width="30" height="26">
<path fill-rule="evenodd" clip-rule="evenodd" d="M28 40.5813C28 52.6653 39.136 53.9013 41.548 53.9013C42.844 53.9013 44.8 53.5293 45.964 53.1573L46.18 53.0853C50.692 51.5253 54.532 48.4773 57.076 44.4453C57.268 44.1453 57.184 43.7373 56.872 43.5453C56.668 43.4133 56.416 43.4133 56.2 43.5213C55.636 43.8093 55.06 44.0733 54.472 44.2893C52.588 44.9973 50.608 45.3453 48.592 45.3453C40.852 45.3453 34.108 40.0173 34.108 33.1893C34.132 31.3173 35.152 29.6133 36.796 28.7253C29.8 29.0013 28 36.2973 28 40.5813Z" fill="white"/>
</mask>
<g mask="url(#mask0_134_717)">
<path d="M28 40.5813C28 52.6653 39.136 53.9013 41.548 53.9013C42.844 53.9013 44.8 53.5293 45.964 53.1573L46.18 53.0853C50.692 51.5253 54.532 48.4773 57.076 44.4453C57.268 44.1453 57.184 43.7373 56.872 43.5453C56.668 43.4133 56.416 43.4133 56.2 43.5213C55.636 43.8093 55.06 44.0733 54.472 44.2893C52.588 44.9973 50.608 45.3453 48.592 45.3453C40.852 45.3453 34.108 40.0173 34.108 33.1893C34.132 31.3173 35.152 29.6133 36.796 28.7253C29.8 29.0013 28 36.2973 28 40.5813Z" fill="url(#paint0_linear_134_717)"/>
</g>
<path d="M18.4108 33.0091C18.3868 36.1771 19.0588 39.2971 20.3908 42.1771C23.9188 49.7011 31.4068 54.2251 39.3268 54.2371H39.3868C41.5828 54.2371 43.8028 53.8891 45.9748 53.1571C42.5188 54.2491 38.7748 53.7691 35.7028 51.8491L35.6908 51.8371C34.2268 50.9371 32.9668 49.7491 31.9708 48.3451C27.6748 42.4531 28.9588 34.1851 34.8508 29.8891C35.4628 29.4451 36.1228 29.0491 36.8068 28.7131C37.3228 28.4731 38.1868 28.0411 39.3508 28.0531C41.0068 28.0651 42.5668 28.8571 43.5508 30.1771C44.2108 31.0651 44.5708 32.1331 44.5948 33.2251C44.5948 33.1891 48.6028 20.2051 31.5028 20.2051C24.3268 20.2051 18.4108 27.0331 18.4108 33.0091Z" fill="#3775AE"/>
<mask id="mask1_134_717" style="mask-type:alpha" maskUnits="userSpaceOnUse" x="18" y="12" width="43" height="29">
<path fill-rule="evenodd" clip-rule="evenodd" d="M39.3463 12.332C27.8983 12.332 18.5742 21.512 18.4062 32.948C18.5022 26.984 24.4422 22.172 31.4982 22.172C32.0742 22.172 35.3382 22.232 38.3742 23.816C41.0502 25.22 42.4542 26.912 43.4262 28.592C44.4222 30.344 44.6022 32.552 44.6022 33.428C44.6022 34.304 44.1582 35.612 43.3302 36.68C43.1982 36.848 42.7902 37.088 42.7902 37.604C42.7902 38.036 43.0662 38.444 43.5582 38.792C45.9102 40.424 50.3503 40.208 50.3622 40.208C52.1022 40.208 53.8182 39.728 55.3182 38.84C58.3902 37.04 60.2862 33.752 60.2982 30.188C60.2982 30.14 60.2982 30.092 60.2982 30.056V29.996C60.2862 26.444 58.9782 24.068 58.4382 23.012C54.9702 16.232 47.4823 12.332 39.3463 12.332Z" fill="white"/>
</mask>
<g mask="url(#mask1_134_717)">
<path d="M39.3423 12.332C27.8943 12.332 18.5703 21.512 18.4023 32.948C18.4983 26.984 24.4383 22.172 31.4943 22.172C32.0703 22.172 35.3343 22.232 38.3703 23.816C41.0463 25.22 42.4503 26.912 43.4223 28.592C44.4183 30.344 44.5983 32.552 44.5983 33.428C44.5983 34.304 44.1543 35.612 43.3263 36.68C43.1943 36.848 42.7863 37.088 42.7863 37.604C42.7863 38.036 43.0623 38.444 43.5543 38.792C45.9063 40.424 50.3463 40.208 50.3583 40.208C52.0983 40.208 53.8143 39.728 55.3143 38.84C58.3863 37.04 60.2823 33.752 60.2943 30.188C60.2943 30.14 60.2943 30.092 60.2943 30.056V29.996C60.2823 26.444 58.9743 24.068 58.4343 23.012C54.9663 16.232 47.4783 12.332 39.3423 12.332Z" fill="url(#paint1_radial_134_717)"/>
</g>
<path d="M87.728 22.468H83.168L81.984 25.732H80.576L84.784 14.532H86.096L90.336 25.732H88.928L87.728 22.468ZM87.328 21.364L85.456 16.292H85.392L83.568 21.364H87.328ZM94.7575 25.844C94.0108 25.844 93.3708 25.652 92.8375 25.268C92.3148 24.884 91.9148 24.3613 91.6375 23.7C91.3602 23.0386 91.2215 22.292 91.2215 21.46C91.2215 20.6173 91.3602 19.8653 91.6375 19.204C91.9148 18.5426 92.3202 18.0253 92.8535 17.652C93.3868 17.268 94.0322 17.076 94.7895 17.076C95.5362 17.076 96.1388 17.2573 96.5975 17.62C97.0668 17.972 97.4135 18.388 97.6375 18.868H97.7655V13.732H99.1415V25.732H97.7655V24.004H97.6375C97.3815 24.516 97.0188 24.9533 96.5495 25.316C96.0908 25.668 95.4935 25.844 94.7575 25.844ZM95.1735 24.66C96.0055 24.66 96.6402 24.356 97.0775 23.748C97.5148 23.1293 97.7335 22.3666 97.7335 21.46C97.7335 20.5533 97.5148 19.796 97.0775 19.188C96.6402 18.58 96.0055 18.276 95.1735 18.276C94.3308 18.276 93.6962 18.58 93.2695 19.188C92.8428 19.796 92.6295 20.5533 92.6295 21.46C92.6295 22.3773 92.8428 23.14 93.2695 23.748C93.7068 24.356 94.3415 24.66 95.1735 24.66ZM104.664 25.844C103.917 25.844 103.277 25.652 102.744 25.268C102.221 24.884 101.821 24.3613 101.544 23.7C101.266 23.0386 101.128 22.292 101.128 21.46C101.128 20.6173 101.266 19.8653 101.544 19.204C101.821 18.5426 102.226 18.0253 102.76 17.652C103.293 17.268 103.938 17.076 104.696 17.076C105.442 17.076 106.045 17.2573 106.504 17.62C106.973 17.972 107.32 18.388 107.544 18.868H107.672V13.732H109.048V25.732H107.672V24.004H107.544C107.288 24.516 106.925 24.9533 106.456 25.316C105.997 25.668 105.4 25.844 104.664 25.844ZM105.08 24.66C105.912 24.66 106.546 24.356 106.984 23.748C107.421 23.1293 107.64 22.3666 107.64 21.46C107.64 20.5533 107.421 19.796 106.984 19.188C106.546 18.58 105.912 18.276 105.08 18.276C104.237 18.276 103.602 18.58 103.176 19.188C102.749 19.796 102.536 20.5533 102.536 21.46C102.536 22.3773 102.749 23.14 103.176 23.748C103.613 24.356 104.248 24.66 105.08 24.66ZM115.25 17.3H116.626V25.732H115.25V17.3ZM115.922 15.732C115.666 15.732 115.452 15.6466 115.282 15.476C115.111 15.2946 115.026 15.0813 115.026 14.836C115.026 14.5906 115.111 14.3826 115.282 14.212C115.452 14.0306 115.666 13.94 115.922 13.94C116.178 13.94 116.391 14.0306 116.562 14.212C116.743 14.3826 116.834 14.5906 116.834 14.836C116.834 15.0813 116.743 15.2946 116.562 15.476C116.391 15.6466 116.178 15.732 115.922 15.732ZM121.394 18.404V23.3C121.394 23.6946 121.41 23.988 121.442 24.18C121.484 24.3613 121.586 24.5053 121.746 24.612C121.916 24.7186 122.188 24.772 122.562 24.772C122.818 24.772 123.095 24.7346 123.394 24.66V25.652C123.319 25.684 123.154 25.716 122.898 25.748C122.652 25.78 122.396 25.796 122.13 25.796C121.511 25.796 121.047 25.7106 120.738 25.54C120.439 25.3586 120.242 25.1186 120.146 24.82C120.06 24.5106 120.018 24.1053 120.018 23.604V18.404H118.45V17.3H120.018V14.532H121.394V17.3H123.394V18.404H121.394ZM132.674 25.844C131.821 25.844 131.096 25.6413 130.498 25.236C129.912 24.82 129.469 24.2813 129.17 23.62C128.872 22.948 128.722 22.228 128.722 21.46C128.722 20.692 128.872 19.9773 129.17 19.316C129.469 18.644 129.912 18.1053 130.498 17.7C131.096 17.284 131.821 17.076 132.674 17.076C133.528 17.076 134.248 17.284 134.834 17.7C135.432 18.1053 135.874 18.644 136.162 19.316C136.461 19.988 136.61 20.7026 136.61 21.46C136.61 22.2173 136.461 22.932 136.162 23.604C135.864 24.276 135.416 24.82 134.818 25.236C134.232 25.6413 133.517 25.844 132.674 25.844ZM132.674 24.66C133.197 24.66 133.65 24.516 134.034 24.228C134.429 23.94 134.728 23.556 134.93 23.076C135.133 22.5853 135.234 22.0413 135.234 21.444C135.234 20.5266 135.005 19.764 134.546 19.156C134.088 18.548 133.464 18.244 132.674 18.244C132.141 18.244 131.677 18.388 131.282 18.676C130.898 18.964 130.605 19.3533 130.402 19.844C130.2 20.324 130.098 20.8573 130.098 21.444C130.098 22.3613 130.328 23.1293 130.786 23.748C131.245 24.356 131.874 24.66 132.674 24.66ZM138.622 17.3H139.998V18.82H140.126C140.339 18.3293 140.686 17.9186 141.166 17.588C141.646 17.2466 142.233 17.076 142.926 17.076C143.641 17.076 144.238 17.2466 144.718 17.588C145.198 17.9186 145.55 18.3613 145.774 18.916C146.009 19.46 146.126 20.052 146.126 20.692V25.732H144.75V20.868C144.75 20.036 144.531 19.4013 144.094 18.964C143.667 18.5266 143.107 18.308 142.414 18.308C141.678 18.308 141.091 18.548 140.654 19.028C140.217 19.4973 139.998 20.1106 139.998 20.868V25.732H138.622V17.3Z" fill="#465388"/>
<path d="M83.888 36.804V42.324H91.16V44.004H83.888V49.86H92.144V51.732H81.8V34.932H92.144V36.804H83.888ZM100.144 51.9C99.0241 51.9 98.0641 51.612 97.2641 51.036C96.4801 50.46 95.8801 49.676 95.4641 48.684C95.0481 47.692 94.8401 46.572 94.8401 45.324C94.8401 44.06 95.0481 42.932 95.4641 41.94C95.8801 40.948 96.4881 40.172 97.2881 39.612C98.0881 39.036 99.0561 38.748 100.192 38.748C101.312 38.748 102.216 39.02 102.904 39.564C103.608 40.092 104.128 40.716 104.464 41.436H104.656V33.732H106.72V51.732H104.656V49.14H104.464C104.08 49.908 103.536 50.564 102.832 51.108C102.144 51.636 101.248 51.9 100.144 51.9ZM100.768 50.124C102.016 50.124 102.968 49.668 103.624 48.756C104.28 47.828 104.608 46.684 104.608 45.324C104.608 43.964 104.28 42.828 103.624 41.916C102.968 41.004 102.016 40.548 100.768 40.548C99.5041 40.548 98.5521 41.004 97.9121 41.916C97.2721 42.828 96.9521 43.964 96.9521 45.324C96.9521 46.7 97.2721 47.844 97.9121 48.756C98.5681 49.668 99.5201 50.124 100.768 50.124ZM115.987 56.796C115.507 56.796 115.115 56.764 114.811 56.7C114.523 56.636 114.227 56.548 113.923 56.436V54.708C114.131 54.772 114.411 54.828 114.763 54.876C115.115 54.94 115.459 54.972 115.795 54.972C117.043 54.972 117.979 54.62 118.603 53.916C119.243 53.212 119.563 52.276 119.563 51.108V48.828H119.371C119.035 49.58 118.491 50.22 117.739 50.748C117.003 51.26 116.107 51.516 115.051 51.516C113.995 51.516 113.067 51.244 112.267 50.7C111.467 50.156 110.843 49.404 110.395 48.444C109.963 47.468 109.747 46.356 109.747 45.108C109.747 43.86 109.963 42.756 110.395 41.796C110.843 40.82 111.467 40.06 112.267 39.516C113.067 38.972 113.995 38.7 115.051 38.7C116.155 38.7 117.075 38.988 117.811 39.564C118.563 40.124 119.091 40.78 119.395 41.532H119.563V39.108H121.651V51.108C121.651 52.004 121.467 52.884 121.099 53.748C120.747 54.612 120.147 55.332 119.299 55.908C118.451 56.5 117.347 56.796 115.987 56.796ZM115.723 49.74C116.539 49.74 117.235 49.524 117.811 49.092C118.387 48.644 118.811 48.068 119.083 47.364C119.371 46.644 119.515 45.876 119.515 45.06C119.515 44.26 119.371 43.516 119.083 42.828C118.811 42.14 118.387 41.58 117.811 41.148C117.251 40.716 116.555 40.5 115.723 40.5C114.491 40.5 113.547 40.948 112.891 41.844C112.251 42.724 111.931 43.796 111.931 45.06C111.931 45.892 112.067 46.668 112.339 47.388C112.627 48.092 113.051 48.66 113.611 49.092C114.187 49.524 114.891 49.74 115.723 49.74ZM130.745 51.9C129.449 51.9 128.353 51.588 127.457 50.964C126.577 50.34 125.921 49.524 125.489 48.516C125.057 47.508 124.841 46.444 124.841 45.324C124.841 44.188 125.057 43.124 125.489 42.132C125.921 41.124 126.585 40.308 127.481 39.684C128.377 39.06 129.473 38.748 130.769 38.748C132.465 38.748 133.817 39.316 134.825 40.452C135.849 41.588 136.361 43.22 136.361 45.348V45.924H126.905V46.092C126.905 46.796 127.065 47.46 127.385 48.084C127.705 48.708 128.153 49.212 128.729 49.596C129.305 49.98 129.969 50.172 130.721 50.172C131.537 50.172 132.241 49.964 132.833 49.548C133.425 49.132 133.865 48.572 134.153 47.868H136.193C135.857 49.02 135.225 49.98 134.297 50.748C133.385 51.516 132.201 51.9 130.745 51.9ZM134.321 44.46C134.257 43.02 133.905 41.98 133.265 41.34C132.625 40.7 131.785 40.38 130.745 40.38C129.609 40.38 128.705 40.756 128.033 41.508C127.361 42.26 127.001 43.244 126.953 44.46H134.321ZM154.733 46.836H147.893L146.117 51.732H144.005L150.317 34.932H152.285L158.645 51.732H156.533L154.733 46.836ZM154.133 45.18L151.325 37.572H151.229L148.493 45.18H154.133ZM165.277 51.9C164.157 51.9 163.197 51.612 162.397 51.036C161.613 50.46 161.013 49.676 160.597 48.684C160.181 47.692 159.973 46.572 159.973 45.324C159.973 44.06 160.181 42.932 160.597 41.94C161.013 40.948 161.621 40.172 162.421 39.612C163.221 39.036 164.189 38.748 165.325 38.748C166.445 38.748 167.349 39.02 168.037 39.564C168.741 40.092 169.261 40.716 169.597 41.436H169.789V33.732H171.853V51.732H169.789V49.14H169.597C169.213 49.908 168.669 50.564 167.965 51.108C167.277 51.636 166.381 51.9 165.277 51.9ZM165.901 50.124C167.149 50.124 168.101 49.668 168.757 48.756C169.413 47.828 169.741 46.684 169.741 45.324C169.741 43.964 169.413 42.828 168.757 41.916C168.101 41.004 167.149 40.548 165.901 40.548C164.637 40.548 163.685 41.004 163.045 41.916C162.405 42.828 162.085 43.964 162.085 45.324C162.085 46.7 162.405 47.844 163.045 48.756C163.701 49.668 164.653 50.124 165.901 50.124ZM180.136 51.9C179.016 51.9 178.056 51.612 177.256 51.036C176.472 50.46 175.872 49.676 175.456 48.684C175.04 47.692 174.832 46.572 174.832 45.324C174.832 44.06 175.04 42.932 175.456 41.94C175.872 40.948 176.48 40.172 177.28 39.612C178.08 39.036 179.048 38.748 180.184 38.748C181.304 38.748 182.208 39.02 182.896 39.564C183.6 40.092 184.12 40.716 184.456 41.436H184.648V33.732H186.712V51.732H184.648V49.14H184.456C184.072 49.908 183.528 50.564 182.824 51.108C182.136 51.636 181.24 51.9 180.136 51.9ZM180.76 50.124C182.008 50.124 182.96 49.668 183.616 48.756C184.272 47.828 184.6 46.684 184.6 45.324C184.6 43.964 184.272 42.828 183.616 41.916C182.96 41.004 182.008 40.548 180.76 40.548C179.496 40.548 178.544 41.004 177.904 41.916C177.264 42.828 176.944 43.964 176.944 45.324C176.944 46.7 177.264 47.844 177.904 48.756C178.56 49.668 179.512 50.124 180.76 50.124ZM191.324 43.38H200.132V45.084H191.324V43.38ZM210.082 51.9C208.802 51.9 207.714 51.596 206.818 50.988C205.938 50.364 205.274 49.556 204.826 48.564C204.378 47.556 204.154 46.476 204.154 45.324C204.154 44.172 204.378 43.1 204.826 42.108C205.274 41.1 205.938 40.292 206.818 39.684C207.714 39.06 208.802 38.748 210.082 38.748C211.362 38.748 212.442 39.06 213.322 39.684C214.218 40.292 214.882 41.1 215.314 42.108C215.762 43.116 215.986 44.188 215.986 45.324C215.986 46.46 215.762 47.532 215.314 48.54C214.866 49.548 214.194 50.364 213.298 50.988C212.418 51.596 211.346 51.9 210.082 51.9ZM210.082 50.124C210.866 50.124 211.546 49.908 212.122 49.476C212.714 49.044 213.162 48.468 213.466 47.748C213.77 47.012 213.922 46.196 213.922 45.3C213.922 43.924 213.578 42.78 212.89 41.868C212.202 40.956 211.266 40.5 210.082 40.5C209.282 40.5 208.586 40.716 207.994 41.148C207.418 41.58 206.978 42.164 206.674 42.9C206.37 43.62 206.218 44.42 206.218 45.3C206.218 46.676 206.562 47.828 207.25 48.756C207.938 49.668 208.882 50.124 210.082 50.124ZM219.003 39.084H221.067V41.364H221.259C221.579 40.628 222.099 40.012 222.819 39.516C223.539 39.004 224.419 38.748 225.459 38.748C226.531 38.748 227.427 39.004 228.147 39.516C228.867 40.012 229.395 40.676 229.731 41.508C230.083 42.324 230.259 43.212 230.259 44.172V51.732H228.195V44.436C228.195 43.188 227.867 42.236 227.211 41.58C226.571 40.924 225.731 40.596 224.691 40.596C223.587 40.596 222.707 40.956 222.051 41.676C221.395 42.38 221.067 43.3 221.067 44.436V51.732H219.003V39.084ZM238.018 51.9C236.994 51.9 236.106 51.7 235.354 51.3C234.602 50.884 234.026 50.356 233.626 49.716C233.242 49.076 233.05 48.404 233.05 47.7V47.58H235.114V47.676C235.114 48.076 235.226 48.476 235.45 48.876C235.674 49.26 236.01 49.58 236.458 49.836C236.906 50.076 237.45 50.196 238.09 50.196C238.858 50.196 239.49 50.012 239.986 49.644C240.498 49.26 240.754 48.74 240.754 48.084C240.754 47.54 240.554 47.108 240.154 46.788C239.77 46.468 239.282 46.26 238.69 46.164L237.034 45.924C235.994 45.764 235.122 45.412 234.418 44.868C233.714 44.308 233.362 43.5 233.362 42.444C233.362 41.276 233.778 40.372 234.61 39.732C235.458 39.076 236.538 38.748 237.85 38.748C238.826 38.748 239.658 38.932 240.346 39.3C241.05 39.652 241.586 40.124 241.954 40.716C242.322 41.292 242.506 41.924 242.506 42.612V42.708H240.442V42.66C240.442 42.34 240.354 42.004 240.178 41.652C240.018 41.3 239.738 40.996 239.338 40.74C238.938 40.484 238.426 40.356 237.802 40.356C237.034 40.356 236.418 40.548 235.954 40.932C235.49 41.3 235.258 41.788 235.258 42.396C235.258 42.892 235.442 43.3 235.81 43.62C236.178 43.94 236.642 44.148 237.202 44.244L239.002 44.532C240.058 44.708 240.946 45.076 241.666 45.636C242.386 46.18 242.746 46.988 242.746 48.06C242.746 48.828 242.538 49.5 242.122 50.076C241.722 50.652 241.162 51.1 240.442 51.42C239.722 51.74 238.914 51.9 238.018 51.9Z" fill="#465388"/>
<rect x="0.5" y="1.23196" width="263" height="63" rx="7.5" fill="white" stroke="#C8D4E8"/>
<mask id="mask2_134_717" style="mask-type:alpha" maskUnits="userSpaceOnUse" x="28" y="28" width="30" height="26">
<path fill-rule="evenodd" clip-rule="evenodd" d="M28 40.5813C28 52.6653 39.136 53.9013 41.548 53.9013C42.844 53.9013 44.8 53.5293 45.964 53.1573L46.18 53.0853C50.692 51.5253 54.532 48.4773 57.076 44.4453C57.268 44.1453 57.184 43.7373 56.872 43.5453C56.668 43.4133 56.416 43.4133 56.2 43.5213C55.636 43.8093 55.06 44.0733 54.472 44.2893C52.588 44.9973 50.608 45.3453 48.592 45.3453C40.852 45.3453 34.108 40.0173 34.108 33.1893C34.132 31.3173 35.152 29.6133 36.796 28.7253C29.8 29.0013 28 36.2973 28 40.5813Z" fill="white"/>
</mask>
<g mask="url(#mask2_134_717)">
<path d="M28 40.5813C28 52.6653 39.136 53.9013 41.548 53.9013C42.844 53.9013 44.8 53.5293 45.964 53.1573L46.18 53.0853C50.692 51.5253 54.532 48.4773 57.076 44.4453C57.268 44.1453 57.184 43.7373 56.872 43.5453C56.668 43.4133 56.416 43.4133 56.2 43.5213C55.636 43.8093 55.06 44.0733 54.472 44.2893C52.588 44.9973 50.608 45.3453 48.592 45.3453C40.852 45.3453 34.108 40.0173 34.108 33.1893C34.132 31.3173 35.152 29.6133 36.796 28.7253C29.8 29.0013 28 36.2973 28 40.5813Z" fill="url(#paint2_linear_134_717)"/>
</g>
<path d="M18.4108 33.0091C18.3868 36.1771 19.0588 39.2971 20.3908 42.1771C23.9188 49.7011 31.4068 54.2251 39.3268 54.2371H39.3868C41.5828 54.2371 43.8028 53.8891 45.9748 53.1571C42.5188 54.2491 38.7748 53.7691 35.7028 51.8491L35.6908 51.8371C34.2268 50.9371 32.9668 49.7491 31.9708 48.3451C27.6748 42.4531 28.9588 34.1851 34.8508 29.8891C35.4628 29.4451 36.1228 29.0491 36.8068 28.7131C37.3228 28.4731 38.1868 28.0411 39.3508 28.0531C41.0068 28.0651 42.5668 28.8571 43.5508 30.1771C44.2108 31.0651 44.5708 32.1331 44.5948 33.2251C44.5948 33.1891 48.6028 20.2051 31.5028 20.2051C24.3268 20.2051 18.4108 27.0331 18.4108 33.0091Z" fill="#696969"/>
<mask id="mask3_134_717" style="mask-type:alpha" maskUnits="userSpaceOnUse" x="18" y="12" width="43" height="29">
<path fill-rule="evenodd" clip-rule="evenodd" d="M39.3463 12.332C27.8983 12.332 18.5742 21.512 18.4062 32.948C18.5022 26.984 24.4422 22.172 31.4982 22.172C32.0742 22.172 35.3382 22.232 38.3742 23.816C41.0502 25.22 42.4542 26.912 43.4262 28.592C44.4222 30.344 44.6022 32.552 44.6022 33.428C44.6022 34.304 44.1582 35.612 43.3302 36.68C43.1982 36.848 42.7902 37.088 42.7902 37.604C42.7902 38.036 43.0662 38.444 43.5582 38.792C45.9102 40.424 50.3503 40.208 50.3622 40.208C52.1022 40.208 53.8182 39.728 55.3182 38.84C58.3902 37.04 60.2862 33.752 60.2982 30.188C60.2982 30.14 60.2982 30.092 60.2982 30.056V29.996C60.2862 26.444 58.9782 24.068 58.4382 23.012C54.9702 16.232 47.4823 12.332 39.3463 12.332Z" fill="white"/>
</mask>
<g mask="url(#mask3_134_717)">
<path d="M39.3423 12.332C27.8943 12.332 18.5703 21.512 18.4023 32.948C18.4983 26.984 24.4383 22.172 31.4943 22.172C32.0703 22.172 35.3343 22.232 38.3703 23.816C41.0463 25.22 42.4503 26.912 43.4223 28.592C44.4183 30.344 44.5983 32.552 44.5983 33.428C44.5983 34.304 44.1543 35.612 43.3263 36.68C43.1943 36.848 42.7863 37.088 42.7863 37.604C42.7863 38.036 43.0623 38.444 43.5543 38.792C45.9063 40.424 50.3463 40.208 50.3583 40.208C52.0983 40.208 53.8143 39.728 55.3143 38.84C58.3863 37.04 60.2823 33.752 60.2943 30.188C60.2943 30.14 60.2943 30.092 60.2943 30.056V29.996C60.2823 26.444 58.9743 24.068 58.4343 23.012C54.9663 16.232 47.4783 12.332 39.3423 12.332Z" fill="url(#paint3_radial_134_717)"/>
</g>
<path d="M87.728 22.468H83.168L81.984 25.732H80.576L84.784 14.532H86.096L90.336 25.732H88.928L87.728 22.468ZM87.328 21.364L85.456 16.292H85.392L83.568 21.364H87.328ZM94.7575 25.844C94.0108 25.844 93.3708 25.652 92.8375 25.268C92.3148 24.884 91.9148 24.3613 91.6375 23.7C91.3602 23.0386 91.2215 22.292 91.2215 21.46C91.2215 20.6173 91.3602 19.8653 91.6375 19.204C91.9148 18.5426 92.3202 18.0253 92.8535 17.652C93.3868 17.268 94.0322 17.076 94.7895 17.076C95.5362 17.076 96.1388 17.2573 96.5975 17.62C97.0668 17.972 97.4135 18.388 97.6375 18.868H97.7655V13.732H99.1415V25.732H97.7655V24.004H97.6375C97.3815 24.516 97.0188 24.9533 96.5495 25.316C96.0908 25.668 95.4935 25.844 94.7575 25.844ZM95.1735 24.66C96.0055 24.66 96.6402 24.356 97.0775 23.748C97.5148 23.1293 97.7335 22.3666 97.7335 21.46C97.7335 20.5533 97.5148 19.796 97.0775 19.188C96.6402 18.58 96.0055 18.276 95.1735 18.276C94.3308 18.276 93.6962 18.58 93.2695 19.188C92.8428 19.796 92.6295 20.5533 92.6295 21.46C92.6295 22.3773 92.8428 23.14 93.2695 23.748C93.7068 24.356 94.3415 24.66 95.1735 24.66ZM104.664 25.844C103.917 25.844 103.277 25.652 102.744 25.268C102.221 24.884 101.821 24.3613 101.544 23.7C101.266 23.0386 101.128 22.292 101.128 21.46C101.128 20.6173 101.266 19.8653 101.544 19.204C101.821 18.5426 102.226 18.0253 102.76 17.652C103.293 17.268 103.938 17.076 104.696 17.076C105.442 17.076 106.045 17.2573 106.504 17.62C106.973 17.972 107.32 18.388 107.544 18.868H107.672V13.732H109.048V25.732H107.672V24.004H107.544C107.288 24.516 106.925 24.9533 106.456 25.316C105.997 25.668 105.4 25.844 104.664 25.844ZM105.08 24.66C105.912 24.66 106.546 24.356 106.984 23.748C107.421 23.1293 107.64 22.3666 107.64 21.46C107.64 20.5533 107.421 19.796 106.984 19.188C106.546 18.58 105.912 18.276 105.08 18.276C104.237 18.276 103.602 18.58 103.176 19.188C102.749 19.796 102.536 20.5533 102.536 21.46C102.536 22.3773 102.749 23.14 103.176 23.748C103.613 24.356 104.248 24.66 105.08 24.66ZM115.25 17.3H116.626V25.732H115.25V17.3ZM115.922 15.732C115.666 15.732 115.452 15.6466 115.282 15.476C115.111 15.2946 115.026 15.0813 115.026 14.836C115.026 14.5906 115.111 14.3826 115.282 14.212C115.452 14.0306 115.666 13.94 115.922 13.94C116.178 13.94 116.391 14.0306 116.562 14.212C116.743 14.3826 116.834 14.5906 116.834 14.836C116.834 15.0813 116.743 15.2946 116.562 15.476C116.391 15.6466 116.178 15.732 115.922 15.732ZM121.394 18.404V23.3C121.394 23.6946 121.41 23.988 121.442 24.18C121.484 24.3613 121.586 24.5053 121.746 24.612C121.916 24.7186 122.188 24.772 122.562 24.772C122.818 24.772 123.095 24.7346 123.394 24.66V25.652C123.319 25.684 123.154 25.716 122.898 25.748C122.652 25.78 122.396 25.796 122.13 25.796C121.511 25.796 121.047 25.7106 120.738 25.54C120.439 25.3586 120.242 25.1186 120.146 24.82C120.06 24.5106 120.018 24.1053 120.018 23.604V18.404H118.45V17.3H120.018V14.532H121.394V17.3H123.394V18.404H121.394ZM132.674 25.844C131.821 25.844 131.096 25.6413 130.498 25.236C129.912 24.82 129.469 24.2813 129.17 23.62C128.872 22.948 128.722 22.228 128.722 21.46C128.722 20.692 128.872 19.9773 129.17 19.316C129.469 18.644 129.912 18.1053 130.498 17.7C131.096 17.284 131.821 17.076 132.674 17.076C133.528 17.076 134.248 17.284 134.834 17.7C135.432 18.1053 135.874 18.644 136.162 19.316C136.461 19.988 136.61 20.7026 136.61 21.46C136.61 22.2173 136.461 22.932 136.162 23.604C135.864 24.276 135.416 24.82 134.818 25.236C134.232 25.6413 133.517 25.844 132.674 25.844ZM132.674 24.66C133.197 24.66 133.65 24.516 134.034 24.228C134.429 23.94 134.728 23.556 134.93 23.076C135.133 22.5853 135.234 22.0413 135.234 21.444C135.234 20.5266 135.005 19.764 134.546 19.156C134.088 18.548 133.464 18.244 132.674 18.244C132.141 18.244 131.677 18.388 131.282 18.676C130.898 18.964 130.605 19.3533 130.402 19.844C130.2 20.324 130.098 20.8573 130.098 21.444C130.098 22.3613 130.328 23.1293 130.786 23.748C131.245 24.356 131.874 24.66 132.674 24.66ZM138.622 17.3H139.998V18.82H140.126C140.339 18.3293 140.686 17.9186 141.166 17.588C141.646 17.2466 142.233 17.076 142.926 17.076C143.641 17.076 144.238 17.2466 144.718 17.588C145.198 17.9186 145.55 18.3613 145.774 18.916C146.009 19.46 146.126 20.052 146.126 20.692V25.732H144.75V20.868C144.75 20.036 144.531 19.4013 144.094 18.964C143.667 18.5266 143.107 18.308 142.414 18.308C141.678 18.308 141.091 18.548 140.654 19.028C140.217 19.4973 139.998 20.1106 139.998 20.868V25.732H138.622V17.3Z" fill="#465388"/>
<path d="M83.888 36.804V42.324H91.16V44.004H83.888V49.86H92.144V51.732H81.8V34.932H92.144V36.804H83.888ZM100.144 51.9C99.0241 51.9 98.0641 51.612 97.2641 51.036C96.4801 50.46 95.8801 49.676 95.4641 48.684C95.0481 47.692 94.8401 46.572 94.8401 45.324C94.8401 44.06 95.0481 42.932 95.4641 41.94C95.8801 40.948 96.4881 40.172 97.2881 39.612C98.0881 39.036 99.0561 38.748 100.192 38.748C101.312 38.748 102.216 39.02 102.904 39.564C103.608 40.092 104.128 40.716 104.464 41.436H104.656V33.732H106.72V51.732H104.656V49.14H104.464C104.08 49.908 103.536 50.564 102.832 51.108C102.144 51.636 101.248 51.9 100.144 51.9ZM100.768 50.124C102.016 50.124 102.968 49.668 103.624 48.756C104.28 47.828 104.608 46.684 104.608 45.324C104.608 43.964 104.28 42.828 103.624 41.916C102.968 41.004 102.016 40.548 100.768 40.548C99.5041 40.548 98.5521 41.004 97.9121 41.916C97.2721 42.828 96.9521 43.964 96.9521 45.324C96.9521 46.7 97.2721 47.844 97.9121 48.756C98.5681 49.668 99.5201 50.124 100.768 50.124ZM115.987 56.796C115.507 56.796 115.115 56.764 114.811 56.7C114.523 56.636 114.227 56.548 113.923 56.436V54.708C114.131 54.772 114.411 54.828 114.763 54.876C115.115 54.94 115.459 54.972 115.795 54.972C117.043 54.972 117.979 54.62 118.603 53.916C119.243 53.212 119.563 52.276 119.563 51.108V48.828H119.371C119.035 49.58 118.491 50.22 117.739 50.748C117.003 51.26 116.107 51.516 115.051 51.516C113.995 51.516 113.067 51.244 112.267 50.7C111.467 50.156 110.843 49.404 110.395 48.444C109.963 47.468 109.747 46.356 109.747 45.108C109.747 43.86 109.963 42.756 110.395 41.796C110.843 40.82 111.467 40.06 112.267 39.516C113.067 38.972 113.995 38.7 115.051 38.7C116.155 38.7 117.075 38.988 117.811 39.564C118.563 40.124 119.091 40.78 119.395 41.532H119.563V39.108H121.651V51.108C121.651 52.004 121.467 52.884 121.099 53.748C120.747 54.612 120.147 55.332 119.299 55.908C118.451 56.5 117.347 56.796 115.987 56.796ZM115.723 49.74C116.539 49.74 117.235 49.524 117.811 49.092C118.387 48.644 118.811 48.068 119.083 47.364C119.371 46.644 119.515 45.876 119.515 45.06C119.515 44.26 119.371 43.516 119.083 42.828C118.811 42.14 118.387 41.58 117.811 41.148C117.251 40.716 116.555 40.5 115.723 40.5C114.491 40.5 113.547 40.948 112.891 41.844C112.251 42.724 111.931 43.796 111.931 45.06C111.931 45.892 112.067 46.668 112.339 47.388C112.627 48.092 113.051 48.66 113.611 49.092C114.187 49.524 114.891 49.74 115.723 49.74ZM130.745 51.9C129.449 51.9 128.353 51.588 127.457 50.964C126.577 50.34 125.921 49.524 125.489 48.516C125.057 47.508 124.841 46.444 124.841 45.324C124.841 44.188 125.057 43.124 125.489 42.132C125.921 41.124 126.585 40.308 127.481 39.684C128.377 39.06 129.473 38.748 130.769 38.748C132.465 38.748 133.817 39.316 134.825 40.452C135.849 41.588 136.361 43.22 136.361 45.348V45.924H126.905V46.092C126.905 46.796 127.065 47.46 127.385 48.084C127.705 48.708 128.153 49.212 128.729 49.596C129.305 49.98 129.969 50.172 130.721 50.172C131.537 50.172 132.241 49.964 132.833 49.548C133.425 49.132 133.865 48.572 134.153 47.868H136.193C135.857 49.02 135.225 49.98 134.297 50.748C133.385 51.516 132.201 51.9 130.745 51.9ZM134.321 44.46C134.257 43.02 133.905 41.98 133.265 41.34C132.625 40.7 131.785 40.38 130.745 40.38C129.609 40.38 128.705 40.756 128.033 41.508C127.361 42.26 127.001 43.244 126.953 44.46H134.321ZM154.733 46.836H147.893L146.117 51.732H144.005L150.317 34.932H152.285L158.645 51.732H156.533L154.733 46.836ZM154.133 45.18L151.325 37.572H151.229L148.493 45.18H154.133ZM165.277 51.9C164.157 51.9 163.197 51.612 162.397 51.036C161.613 50.46 161.013 49.676 160.597 48.684C160.181 47.692 159.973 46.572 159.973 45.324C159.973 44.06 160.181 42.932 160.597 41.94C161.013 40.948 161.621 40.172 162.421 39.612C163.221 39.036 164.189 38.748 165.325 38.748C166.445 38.748 167.349 39.02 168.037 39.564C168.741 40.092 169.261 40.716 169.597 41.436H169.789V33.732H171.853V51.732H169.789V49.14H169.597C169.213 49.908 168.669 50.564 167.965 51.108C167.277 51.636 166.381 51.9 165.277 51.9ZM165.901 50.124C167.149 50.124 168.101 49.668 168.757 48.756C169.413 47.828 169.741 46.684 169.741 45.324C169.741 43.964 169.413 42.828 168.757 41.916C168.101 41.004 167.149 40.548 165.901 40.548C164.637 40.548 163.685 41.004 163.045 41.916C162.405 42.828 162.085 43.964 162.085 45.324C162.085 46.7 162.405 47.844 163.045 48.756C163.701 49.668 164.653 50.124 165.901 50.124ZM180.136 51.9C179.016 51.9 178.056 51.612 177.256 51.036C176.472 50.46 175.872 49.676 175.456 48.684C175.04 47.692 174.832 46.572 174.832 45.324C174.832 44.06 175.04 42.932 175.456 41.94C175.872 40.948 176.48 40.172 177.28 39.612C178.08 39.036 179.048 38.748 180.184 38.748C181.304 38.748 182.208 39.02 182.896 39.564C183.6 40.092 184.12 40.716 184.456 41.436H184.648V33.732H186.712V51.732H184.648V49.14H184.456C184.072 49.908 183.528 50.564 182.824 51.108C182.136 51.636 181.24 51.9 180.136 51.9ZM180.76 50.124C182.008 50.124 182.96 49.668 183.616 48.756C184.272 47.828 184.6 46.684 184.6 45.324C184.6 43.964 184.272 42.828 183.616 41.916C182.96 41.004 182.008 40.548 180.76 40.548C179.496 40.548 178.544 41.004 177.904 41.916C177.264 42.828 176.944 43.964 176.944 45.324C176.944 46.7 177.264 47.844 177.904 48.756C178.56 49.668 179.512 50.124 180.76 50.124ZM191.324 43.38H200.132V45.084H191.324V43.38ZM210.082 51.9C208.802 51.9 207.714 51.596 206.818 50.988C205.938 50.364 205.274 49.556 204.826 48.564C204.378 47.556 204.154 46.476 204.154 45.324C204.154 44.172 204.378 43.1 204.826 42.108C205.274 41.1 205.938 40.292 206.818 39.684C207.714 39.06 208.802 38.748 210.082 38.748C211.362 38.748 212.442 39.06 213.322 39.684C214.218 40.292 214.882 41.1 215.314 42.108C215.762 43.116 215.986 44.188 215.986 45.324C215.986 46.46 215.762 47.532 215.314 48.54C214.866 49.548 214.194 50.364 213.298 50.988C212.418 51.596 211.346 51.9 210.082 51.9ZM210.082 50.124C210.866 50.124 211.546 49.908 212.122 49.476C212.714 49.044 213.162 48.468 213.466 47.748C213.77 47.012 213.922 46.196 213.922 45.3C213.922 43.924 213.578 42.78 212.89 41.868C212.202 40.956 211.266 40.5 210.082 40.5C209.282 40.5 208.586 40.716 207.994 41.148C207.418 41.58 206.978 42.164 206.674 42.9C206.37 43.62 206.218 44.42 206.218 45.3C206.218 46.676 206.562 47.828 207.25 48.756C207.938 49.668 208.882 50.124 210.082 50.124ZM219.003 39.084H221.067V41.364H221.259C221.579 40.628 222.099 40.012 222.819 39.516C223.539 39.004 224.419 38.748 225.459 38.748C226.531 38.748 227.427 39.004 228.147 39.516C228.867 40.012 229.395 40.676 229.731 41.508C230.083 42.324 230.259 43.212 230.259 44.172V51.732H228.195V44.436C228.195 43.188 227.867 42.236 227.211 41.58C226.571 40.924 225.731 40.596 224.691 40.596C223.587 40.596 222.707 40.956 222.051 41.676C221.395 42.38 221.067 43.3 221.067 44.436V51.732H219.003V39.084ZM238.018 51.9C236.994 51.9 236.106 51.7 235.354 51.3C234.602 50.884 234.026 50.356 233.626 49.716C233.242 49.076 233.05 48.404 233.05 47.7V47.58H235.114V47.676C235.114 48.076 235.226 48.476 235.45 48.876C235.674 49.26 236.01 49.58 236.458 49.836C236.906 50.076 237.45 50.196 238.09 50.196C238.858 50.196 239.49 50.012 239.986 49.644C240.498 49.26 240.754 48.74 240.754 48.084C240.754 47.54 240.554 47.108 240.154 46.788C239.77 46.468 239.282 46.26 238.69 46.164L237.034 45.924C235.994 45.764 235.122 45.412 234.418 44.868C233.714 44.308 233.362 43.5 233.362 42.444C233.362 41.276 233.778 40.372 234.61 39.732C235.458 39.076 236.538 38.748 237.85 38.748C238.826 38.748 239.658 38.932 240.346 39.3C241.05 39.652 241.586 40.124 241.954 40.716C242.322 41.292 242.506 41.924 242.506 42.612V42.708H240.442V42.66C240.442 42.34 240.354 42.004 240.178 41.652C240.018 41.3 239.738 40.996 239.338 40.74C238.938 40.484 238.426 40.356 237.802 40.356C237.034 40.356 236.418 40.548 235.954 40.932C235.49 41.3 235.258 41.788 235.258 42.396C235.258 42.892 235.442 43.3 235.81 43.62C236.178 43.94 236.642 44.148 237.202 44.244L239.002 44.532C240.058 44.708 240.946 45.076 241.666 45.636C242.386 46.18 242.746 46.988 242.746 48.06C242.746 48.828 242.538 49.5 242.122 50.076C241.722 50.652 241.162 51.1 240.442 51.42C239.722 51.74 238.914 51.9 238.018 51.9Z" fill="#465388"/>
<defs>
<linearGradient id="paint0_linear_134_717" x1="28.0057" y1="41.3021" x2="57.1801" y2="41.3021" gradientUnits="userSpaceOnUse">
<stop stop-color="#0B59A3"/>
<stop offset="1" stop-color="#11498A"/>
</linearGradient>
<radialGradient id="paint1_radial_134_717" cx="0" cy="0" r="1" gradientUnits="userSpaceOnUse" gradientTransform="translate(54.2217 35.2523) rotate(88.2279) scale(25.6152 25.615)">
<stop stop-color="#66EB6E"/>
<stop offset="1" stop-color="#40BBD3"/>
</radialGradient>
<linearGradient id="paint2_linear_134_717" x1="28.0057" y1="41.3021" x2="57.1801" y2="41.3021" gradientUnits="userSpaceOnUse">
<stop stop-color="#494949"/>
<stop offset="1" stop-color="#404040"/>
</linearGradient>
<radialGradient id="paint3_radial_134_717" cx="0" cy="0" r="1" gradientUnits="userSpaceOnUse" gradientTransform="translate(54.2217 35.2523) rotate(88.2279) scale(25.6152 25.615)">
<stop stop-color="#ACACAC"/>
<stop offset="1" stop-color="#999999"/>
</radialGradient>
</defs>
</svg>
