<svg width="64" height="64" viewBox="0 0 64 64" fill="none" xmlns="http://www.w3.org/2000/svg">
<path d="M5.69141 37.77C7.92141 48.01 15.9814 56.07 26.2314 58.31" stroke="#1A2B6B" stroke-width="2" stroke-miterlimit="10" stroke-linecap="round" stroke-linejoin="round"/>
<path d="M37.7695 58.31C48.0095 56.08 56.0695 48.02 58.3095 37.77" stroke="#1A2B6B" stroke-width="2" stroke-miterlimit="10" stroke-linecap="round" stroke-linejoin="round"/>
<path d="M5.69141 26.2299C7.92141 15.9899 15.9814 7.92994 26.2314 5.68994" stroke="#1A2B6B" stroke-width="2" stroke-miterlimit="10" stroke-linecap="round" stroke-linejoin="round"/>
<path d="M37.7695 5.68994C48.0095 7.91994 56.0695 15.9799 58.3095 26.2299" stroke="#1A2B6B" stroke-width="2" stroke-miterlimit="10" stroke-linecap="round" stroke-linejoin="round"/>
<path d="M5.06969 34.8899C6.66579 34.8899 7.95969 33.596 7.95969 31.9999C7.95969 30.4038 6.66579 29.1099 5.06969 29.1099C3.47358 29.1099 2.17969 30.4038 2.17969 31.9999C2.17969 33.596 3.47358 34.8899 5.06969 34.8899Z" fill="#3457E5"/>
<path d="M58.9291 34.8899C60.5252 34.8899 61.8191 33.596 61.8191 31.9999C61.8191 30.4038 60.5252 29.1099 58.9291 29.1099C57.333 29.1099 56.0391 30.4038 56.0391 31.9999C56.0391 33.596 57.333 34.8899 58.9291 34.8899Z" fill="#3457E5"/>
<path d="M31.9994 61.82C33.5955 61.82 34.8894 60.5261 34.8894 58.93C34.8894 57.3339 33.5955 56.04 31.9994 56.04C30.4033 56.04 29.1094 57.3339 29.1094 58.93C29.1094 60.5261 30.4033 61.82 31.9994 61.82Z" fill="#3457E5"/>
<path d="M31.9994 7.95993C33.5955 7.95993 34.8894 6.66603 34.8894 5.06993C34.8894 3.47383 33.5955 2.17993 31.9994 2.17993C30.4033 2.17993 29.1094 3.47383 29.1094 5.06993C29.1094 6.66603 30.4033 7.95993 31.9994 7.95993Z" fill="#3457E5"/>
<path d="M42.0019 26.27H22.0119C20.7219 26.27 19.6719 25.22 19.6719 23.93V21.56C19.6719 20.27 20.7219 19.22 22.0119 19.22H42.0019C43.2919 19.22 44.3419 20.27 44.3419 21.56V23.93C44.3419 25.23 43.2919 26.27 42.0019 26.27Z" stroke="#1A2B6B" stroke-width="2" stroke-miterlimit="10" stroke-linecap="round" stroke-linejoin="round"/>
<path d="M42.0019 34.1999H22.0119C20.7219 34.1999 19.6719 33.1499 19.6719 31.8599V29.4899C19.6719 28.1999 20.7219 27.1499 22.0119 27.1499H42.0019C43.2919 27.1499 44.3419 28.1999 44.3419 29.4899V31.8599C44.3419 33.1499 43.2919 34.1999 42.0019 34.1999Z" stroke="#1A2B6B" stroke-width="2" stroke-miterlimit="10" stroke-linecap="round" stroke-linejoin="round"/>
<path d="M42.0019 42.1301H22.0119C20.7219 42.1301 19.6719 41.0801 19.6719 39.7901V37.4201C19.6719 36.1301 20.7219 35.0801 22.0119 35.0801H42.0019C43.2919 35.0801 44.3419 36.1301 44.3419 37.4201V39.7901C44.3419 41.0801 43.2919 42.1301 42.0019 42.1301Z" stroke="#1A2B6B" stroke-width="2" stroke-miterlimit="10" stroke-linecap="round" stroke-linejoin="round"/>
<path d="M24.0703 43.01V44.78" stroke="#1A2B6B" stroke-width="2" stroke-miterlimit="10" stroke-linecap="round" stroke-linejoin="round"/>
<path d="M39.9336 43.01V44.78" stroke="#1A2B6B" stroke-width="2" stroke-miterlimit="10" stroke-linecap="round" stroke-linejoin="round"/>
<path d="M23.63 23.6299C24.116 23.6299 24.51 23.2359 24.51 22.7499C24.51 22.2639 24.116 21.8699 23.63 21.8699C23.144 21.8699 22.75 22.2639 22.75 22.7499C22.75 23.2359 23.144 23.6299 23.63 23.6299Z" fill="#3457E5"/>
<path d="M23.63 31.5601C24.116 31.5601 24.51 31.1661 24.51 30.6801C24.51 30.194 24.116 29.8 23.63 29.8C23.144 29.8 22.75 30.194 22.75 30.6801C22.75 31.1661 23.144 31.5601 23.63 31.5601Z" fill="#3457E5"/>
<path d="M23.63 39.49C24.116 39.49 24.51 39.096 24.51 38.61C24.51 38.124 24.116 37.73 23.63 37.73C23.144 37.73 22.75 38.124 22.75 38.61C22.75 39.096 23.144 39.49 23.63 39.49Z" fill="#3457E5"/>
<path d="M19.6719 44.78H44.3419" stroke="#3457E5" stroke-width="2" stroke-miterlimit="10" stroke-linecap="round" stroke-linejoin="round"/>
</svg>
