<svg width="200" height="48" viewBox="0 0 200 48" fill="none" xmlns="http://www.w3.org/2000/svg">
<g opacity="0.4">
<path d="M21.31 34.63L8.23001 26.87L21.31 45.43V34.63Z" fill="#CFD7E8"/>
<path d="M21.31 34.63V45.43L34.4 26.87L21.31 34.63Z" fill="#DDE4F1"/>
<path d="M21.31 18.44V31.96L34.4 24.28L21.31 18.44Z" fill="#C8D4E9"/>
<path d="M8.23001 24.28L21.31 31.96V18.44L8.23001 24.28Z" fill="#DDE4F1"/>
<path d="M21.31 18.44L34.4 24.28L21.31 2.57001V18.44Z" fill="#778197"/>
<path d="M21.31 18.44L34.4 24.28L21.31 2.57001V18.44Z" fill="#DDE4F1"/>
<path d="M21.31 2.57001L8.23001 24.28L21.31 18.44V2.57001Z" fill="#778197"/>
<path d="M21.31 2.57001L8.23001 24.28L21.31 18.44V2.57001Z" fill="#CFD7E8"/>
<path d="M64.2 27.36C64.2 24.57 63.37 22.33 61.71 20.63C60.05 18.93 57.89 18.08 55.23 18.08C52.73 18.08 50.65 18.93 48.99 20.63C47.33 22.33 46.5 24.46 46.5 27.04C46.5 29.55 47.33 31.64 48.99 33.31C50.65 34.98 52.81 35.81 55.45 35.81C57.15 35.81 58.63 35.51 59.87 34.9C61.11 34.3 62.17 33.36 63.06 32.1L59.5 30.43C58.36 31.54 57.01 32.09 55.43 32.09C54.11 32.09 53.02 31.74 52.17 31.03C51.32 30.32 50.79 29.37 50.6 28.17H64.19L64.2 27.36ZM50.78 24.83C51.26 23.79 51.77 23.06 52.33 22.65C53.22 21.99 54.25 21.66 55.43 21.66C56.52 21.66 57.47 21.95 58.29 22.54C59.11 23.13 59.66 23.89 59.94 24.83H50.78Z" fill="#778197"/>
<path d="M68.12 12.3H72.35V18.51H74.86V22.15H72.35V35.37H68.12V22.15H65.95V18.51H68.12V12.3Z" fill="#778197"/>
<path d="M77.14 12H81.34V20.21C82.17 19.5 83 18.96 83.83 18.61C84.67 18.25 85.51 18.08 86.37 18.08C88.04 18.08 89.45 18.66 90.6 19.82C91.58 20.82 92.07 22.29 92.07 24.24V35.38H87.9V27.99C87.9 26.04 87.81 24.72 87.62 24.02C87.43 23.33 87.12 22.81 86.67 22.47C86.22 22.13 85.67 21.96 85 21.96C84.14 21.96 83.41 22.24 82.79 22.81C82.18 23.38 81.75 24.15 81.51 25.13C81.39 25.64 81.32 26.79 81.32 28.6V35.37H77.12V12H77.14Z" fill="#778197"/>
<path d="M113.05 28.16H99.46C99.66 29.36 100.18 30.31 101.03 31.02C101.88 31.73 102.97 32.08 104.29 32.08C105.87 32.08 107.23 31.53 108.36 30.42L111.92 32.09C111.03 33.35 109.97 34.28 108.73 34.89C107.49 35.49 106.02 35.8 104.31 35.8C101.67 35.8 99.51 34.97 97.85 33.3C96.19 31.63 95.36 29.54 95.36 27.03C95.36 24.46 96.19 22.32 97.85 20.62C99.51 18.92 101.59 18.07 104.09 18.07C106.74 18.07 108.9 18.92 110.57 20.62C112.23 22.32 113.06 24.56 113.06 27.35L113.05 28.16ZM108.82 24.83C108.54 23.89 107.99 23.13 107.17 22.54C106.35 21.95 105.39 21.66 104.31 21.66C103.13 21.66 102.1 21.99 101.21 22.65C100.65 23.06 100.13 23.79 99.66 24.83H108.82Z" fill="#778197"/>
<path d="M115.48 18.51H119.11V20.63C119.5 19.79 120.02 19.16 120.67 18.72C121.32 18.29 122.03 18.07 122.81 18.07C123.36 18.07 123.93 18.21 124.53 18.5L123.21 22.14C122.71 21.89 122.31 21.77 121.99 21.77C121.34 21.77 120.79 22.17 120.34 22.98C119.89 23.79 119.67 25.37 119.67 27.72L119.69 28.54V35.36H115.49V18.51H115.48Z" fill="#778197"/>
<path d="M143.51 28.16H129.92C130.12 29.36 130.64 30.31 131.49 31.02C132.34 31.73 133.43 32.08 134.75 32.08C136.33 32.08 137.69 31.53 138.82 30.42L142.38 32.09C141.49 33.35 140.43 34.28 139.19 34.89C137.95 35.49 136.48 35.8 134.77 35.8C132.13 35.8 129.97 34.97 128.31 33.3C126.65 31.63 125.82 29.54 125.82 27.03C125.82 24.46 126.65 22.32 128.31 20.62C129.97 18.92 132.05 18.07 134.55 18.07C137.2 18.07 139.36 18.92 141.03 20.62C142.69 22.32 143.52 24.56 143.52 27.35L143.51 28.16ZM139.28 24.83C139 23.89 138.45 23.13 137.63 22.54C136.81 21.95 135.85 21.66 134.77 21.66C133.59 21.66 132.56 21.99 131.67 22.65C131.11 23.06 130.59 23.79 130.12 24.83H139.28Z" fill="#778197"/>
<path d="M146.92 18.51H151.2V26.63C151.2 28.21 151.31 29.31 151.53 29.92C151.75 30.53 152.1 31.01 152.58 31.35C153.06 31.69 153.65 31.86 154.36 31.86C155.06 31.86 155.66 31.69 156.15 31.36C156.64 31.02 157.01 30.53 157.24 29.88C157.42 29.39 157.5 28.36 157.5 26.77V18.51H161.73V25.65C161.73 28.59 161.5 30.61 161.03 31.69C160.46 33.01 159.63 34.03 158.52 34.73C157.41 35.44 156.01 35.79 154.31 35.79C152.46 35.79 150.97 35.38 149.82 34.55C148.68 33.72 147.88 32.57 147.41 31.09C147.08 30.07 146.91 28.21 146.91 25.51V18.51H146.92Z" fill="#778197"/>
<path d="M165.94 18.51H170.17V20.45C170.89 19.65 171.7 19.06 172.58 18.67C173.46 18.28 174.43 18.08 175.47 18.08C176.52 18.08 177.47 18.34 178.32 18.85C179.17 19.37 179.85 20.12 180.37 21.11C181.04 20.12 181.87 19.36 182.84 18.85C183.82 18.33 184.88 18.08 186.04 18.08C187.24 18.08 188.29 18.36 189.2 18.92C190.11 19.48 190.76 20.21 191.16 21.1C191.56 22 191.76 23.46 191.76 25.48V35.36H187.5V26.81C187.5 24.9 187.26 23.61 186.79 22.93C186.31 22.25 185.6 21.92 184.65 21.92C183.93 21.92 183.28 22.13 182.71 22.54C182.14 22.95 181.71 23.52 181.43 24.25C181.15 24.98 181.01 26.15 181.01 27.76V35.37H176.75V27.2C176.75 25.69 176.64 24.6 176.42 23.92C176.2 23.24 175.86 22.74 175.42 22.41C174.97 22.08 174.44 21.91 173.8 21.91C173.1 21.91 172.46 22.12 171.88 22.54C171.31 22.96 170.88 23.54 170.59 24.3C170.31 25.05 170.16 26.24 170.16 27.86V35.36H165.93V18.51H165.94Z" fill="#778197"/>
</g>
</svg>
