<svg width="64" height="64" viewBox="0 0 64 64" fill="none" xmlns="http://www.w3.org/2000/svg">
<path d="M59.11 61H51.8999C51.4099 61 51.0099 60.6 51.0099 60.11V8.89C50.9999 8.4 51.4 8 51.89 8H59.1C59.6 8 60 8.4 60 8.89V60.1C60 60.6 59.6 61 59.11 61Z" fill="#EBEFFD"/>
<path d="M58.51 61H36.49C35.67 61 35 60.33 35 59.51V9.49C35 8.67 35.67 8 36.49 8H58.51C59.33 8 60 8.67 60 9.49V59.51C60 60.33 59.33 61 58.51 61Z" stroke="#1A2B6B" stroke-width="2" stroke-miterlimit="10" stroke-linecap="round" stroke-linejoin="round"/>
<path d="M49.39 53H4.59999C3.70999 53 2.98999 52.28 2.98999 51.39V22.61C2.98999 21.72 3.70999 21 4.59999 21H49.39C50.28 21 51 21.72 51 22.61V51.4C51 52.28 50.28 53 49.39 53Z" fill="white"/>
<path d="M50.43 53H45.56C45.25 53 44.99 52.75 44.99 52.43V21.57C44.99 21.26 45.24 21 45.56 21H50.43C50.74 21 51 21.25 51 21.57V52.44C51 52.75 50.75 53 50.43 53Z" fill="#EBEFFD"/>
<path d="M49.39 53H4.59999C3.70999 53 2.98999 52.28 2.98999 51.39V22.61C2.98999 21.72 3.70999 21 4.59999 21H49.39C50.28 21 51 21.72 51 22.61V51.4C51 52.28 50.28 53 49.39 53Z" stroke="#1A2B6B" stroke-width="2" stroke-miterlimit="10" stroke-linecap="round" stroke-linejoin="round"/>
<path d="M29.5 53H21.5V61H29.5V53Z" stroke="#1A2B6B" stroke-width="2" stroke-miterlimit="10" stroke-linecap="round" stroke-linejoin="round"/>
<path d="M14.75 61H36.25" stroke="#1A2B6B" stroke-width="2" stroke-miterlimit="10" stroke-linecap="round" stroke-linejoin="round"/>
<path d="M17 35H12V49H17V35Z" fill="#3457E5"/>
<path d="M26 39H21V49H26V39Z" fill="#3457E5"/>
<path d="M35 43H30V49H35V43Z" fill="#3457E5"/>
<path d="M6.96997 29.1299L6.99997 48.9999H43" stroke="#1A2B6B" stroke-width="2" stroke-miterlimit="10" stroke-linecap="round" stroke-linejoin="round"/>
<path d="M13.3799 25.8601L21.4999 32.0001L24.9899 28.0001L38.8899 40.0601" stroke="#1A2B6B" stroke-width="2" stroke-miterlimit="10" stroke-linecap="round" stroke-linejoin="round"/>
<path d="M41.32 41.4599L40.74 38.1999C40.64 37.6099 39.91 37.3899 39.49 37.8099L36.8 40.4999C36.38 40.9199 36.61 41.6399 37.19 41.7499L40.4499 42.3299C40.9699 42.4099 41.41 41.9699 41.32 41.4599Z" fill="#1A2B6B"/>
<path d="M55 15C56.1046 15 57 14.1046 57 13C57 11.8954 56.1046 11 55 11C53.8954 11 53 11.8954 53 13C53 14.1046 53.8954 15 55 15Z" fill="#1A2B6B"/>
</svg>
