<svg width="200" height="49" viewBox="0 0 200 49" fill="none" xmlns="http://www.w3.org/2000/svg">
<g opacity="0.4">
<path d="M85.1 40.16C77.47 45.78 66.43 48.79 56.91 48.79C43.58 48.79 31.55 43.84 22.46 35.65C21.74 35 22.39 34.12 23.24 34.63C33.04 40.34 45.18 43.76 57.71 43.76C66.16 43.76 75.45 42.02 83.99 38.38C85.28 37.82 86.36 39.22 85.1 40.16ZM88.26 36.54C87.28 35.3 81.81 35.95 79.37 36.24C78.63 36.33 78.5 35.67 79.17 35.22C83.53 32.15 90.67 33.04 91.52 34.07C92.35 35.09 91.3 42.26 87.21 45.7C86.58 46.22 85.99 45.94 86.25 45.24C87.19 42.94 89.24 37.78 88.26 36.54Z" fill="#CFD7E8"/>
<path d="M79.55 13.55V10.57C79.55 10.11 79.9 9.81 80.31 9.81H93.67C94.11 9.81 94.43 10.12 94.43 10.57V13.12C94.43 13.56 94.06 14.1 93.43 14.99L86.52 24.86C89.09 24.79 91.81 25.19 94.12 26.49C94.64 26.8 94.8 27.23 94.84 27.64V30.82C94.84 31.26 94.36 31.76 93.86 31.5C89.76 29.34 84.29 29.1 79.76 31.52C79.3 31.78 78.8 31.26 78.8 30.84V27.83C78.8 27.35 78.8 26.52 79.3 25.78L87.27 14.3H80.3C79.87 14.31 79.55 14.01 79.55 13.55ZM30.87 32.16H26.82C26.43 32.14 26.12 31.83 26.1 31.46V10.63C26.1 10.22 26.45 9.89 26.88 9.89H30.67C31.06 9.91 31.39 10.22 31.41 10.59V13.31H31.48C32.46 10.67 34.33 9.45 36.82 9.45C39.37 9.45 40.96 10.67 42.09 13.31C43.07 10.67 45.31 9.45 47.69 9.45C49.39 9.45 51.26 10.15 52.4 11.74C53.69 13.48 53.42 16.03 53.42 18.28V31.44C53.42 31.85 53.07 32.2 52.64 32.2H48.59C48.18 32.18 47.85 31.85 47.85 31.44V20.35C47.85 19.48 47.94 17.28 47.74 16.45C47.43 15.06 46.52 14.66 45.34 14.66C44.36 14.66 43.34 15.31 42.92 16.36C42.51 17.41 42.55 19.17 42.55 20.35V31.4C42.55 31.81 42.2 32.16 41.77 32.16H37.72C37.31 32.14 36.98 31.81 36.98 31.4V20.35C36.98 18.02 37.37 14.6 34.47 14.6C31.55 14.6 31.66 17.93 31.66 20.35V31.4C31.66 31.83 31.31 32.16 30.87 32.16ZM105.91 9.43C111.95 9.43 115.19 14.62 115.19 21.2C115.19 27.56 111.59 32.6 105.91 32.6C99.98 32.6 96.78 27.41 96.78 20.97C96.76 14.49 100.03 9.43 105.91 9.43ZM105.93 13.68C102.95 13.68 102.75 17.75 102.75 20.3C102.75 22.85 102.71 28.3 105.89 28.3C109.03 28.3 109.18 23.92 109.18 21.24C109.18 19.48 109.11 17.38 108.57 15.71C108.13 14.25 107.24 13.68 105.93 13.68ZM123.01 32.16H118.96C118.55 32.14 118.22 31.81 118.22 31.4V10.55C118.26 10.16 118.59 9.87 119 9.87H122.77C123.12 9.89 123.42 10.13 123.49 10.46V13.64H123.56C124.69 10.79 126.28 9.43 129.09 9.43C130.92 9.43 132.69 10.08 133.84 11.89C134.91 13.57 134.91 16.36 134.91 18.38V31.5C134.87 31.87 134.52 32.15 134.13 32.15H130.06C129.69 32.13 129.38 31.85 129.34 31.5V20.18C129.34 17.89 129.6 14.56 126.79 14.56C125.81 14.56 124.89 15.21 124.44 16.24C123.87 17.5 123.79 18.79 123.79 20.18V31.4C123.8 31.83 123.45 32.16 123.01 32.16ZM76.12 28.35C75.38 27.33 74.59 26.5 74.59 24.58V18.24C74.59 15.56 74.79 13.1 72.8 11.25C71.23 9.75 68.66 9.22 66.68 9.22C62.82 9.22 58.51 10.66 57.59 15.43C57.5 15.93 57.8699 16.21 58.2 16.28L62.14 16.69C62.51 16.67 62.77 16.32 62.86 15.95C63.19 14.29 64.58 13.51 66.13 13.51C66.98 13.51 67.92 13.82 68.42 14.58C68.99 15.41 68.92 16.56 68.92 17.52V18.04C66.57 18.3 63.49 18.48 61.27 19.46C58.72 20.55 56.93 22.79 56.93 26.11C56.93 30.34 59.59 32.43 63.01 32.43C65.89 32.43 67.4799 31.75 69.7 29.47C70.4399 30.54 70.68 31.06 72.03 32.17C72.34 32.32 72.73 32.32 72.99 32.08V32.1C73.8 31.38 75.28 30.1 76.11 29.4C76.45 29.15 76.39 28.7 76.12 28.35ZM68.13 26.52C67.48 27.65 66.45 28.37 65.32 28.37C63.75 28.37 62.84 27.17 62.84 25.43C62.84 21.97 65.93 21.33 68.88 21.33V22.2C68.89 23.79 68.93 25.1 68.13 26.52ZM22.92 28.35C22.18 27.33 21.39 26.5 21.39 24.58V18.24C21.39 15.56 21.59 13.1 19.6 11.25C18.03 9.75 15.46 9.22 13.48 9.22C9.61998 9.22 5.30995 10.66 4.38995 15.43C4.29995 15.93 4.67 16.21 5 16.28L8.94 16.69C9.31 16.67 9.56995 16.32 9.63995 15.95C9.96995 14.29 11.36 13.51 12.91 13.51C13.74 13.51 14.7 13.82 15.2 14.58C15.77 15.41 15.7 16.56 15.7 17.52V18.04C13.35 18.3 10.27 18.48 8.04999 19.46C5.49999 20.55 3.70996 22.79 3.70996 26.11C3.70996 30.34 6.36998 32.43 9.78998 32.43C12.69 32.43 14.26 31.75 16.48 29.47C17.22 30.54 17.46 31.06 18.81 32.17C19.12 32.32 19.51 32.32 19.77 32.08L19.79 32.1C20.6 31.38 22.08 30.1 22.91 29.4C23.22 29.15 23.18 28.7 22.92 28.35ZM14.92 26.52C14.27 27.65 13.24 28.37 12.11 28.37C10.54 28.37 9.64996 27.17 9.64996 25.43C9.64996 21.97 12.74 21.33 15.69 21.33V22.2C15.68 23.79 15.71 25.1 14.92 26.52Z" fill="#778197"/>
<path d="M138.2 28.79C138.44 29.1 138.56 29.5 138.56 30C138.56 30.5 138.44 30.91 138.2 31.24C137.94 31.57 137.65 31.73 137.33 31.73C137.01 31.73 136.72 31.57 136.46 31.24C136.22 30.89 136.1 30.48 136.1 30C136.1 29.5 136.22 29.1 136.46 28.79C136.69 28.46 136.98 28.3 137.33 28.3C137.68 28.3 137.97 28.47 138.2 28.79Z" fill="#778197"/>
<path d="M152 11.12C153.17 12.42 153.9 14.41 154.17 17.1H151.82C151.62 15.4 151.15 14.13 150.39 13.28C149.64 12.46 148.64 12.05 147.41 12.05C145.92 12.05 144.74 12.86 143.87 14.47C143.04 16.03 142.62 18.15 142.62 20.83C142.62 23.54 143.03 25.65 143.84 27.15C144.65 28.7 145.83 29.48 147.38 29.48C150.02 29.48 151.52 27.59 151.88 23.8H154.26C153.9 26.66 153.14 28.79 151.97 30.2C150.8 31.61 149.27 32.32 147.39 32.32C145.09 32.32 143.29 31.22 142 29.01C140.79 26.95 140.18 24.23 140.18 20.87C140.18 17.51 140.79 14.78 142 12.69C143.31 10.37 145.12 9.20999 147.42 9.20999C149.32 9.21999 150.85 9.84999 152 11.12Z" fill="#778197"/>
<path d="M169.45 12.61C170.76 14.76 171.42 17.49 171.42 20.79C171.42 24.04 170.77 26.74 169.48 28.89C168.09 31.18 166.24 32.32 163.94 32.32C161.64 32.32 159.8 31.18 158.43 28.89C157.12 26.77 156.47 24.07 156.47 20.79C156.47 17.48 157.12 14.75 158.43 12.61C159.78 10.35 161.62 9.22 163.94 9.22C166.26 9.22 168.1 10.35 169.45 12.61ZM160.13 14.73C159.32 16.31 158.91 18.33 158.91 20.79C158.91 23.22 159.32 25.23 160.13 26.81C161.02 28.59 162.29 29.48 163.94 29.48C165.55 29.48 166.83 28.59 167.78 26.81C168.59 25.17 169 23.16 169 20.79C169 18.39 168.59 16.37 167.78 14.73C166.83 12.95 165.55 12.06 163.94 12.06C162.29 12.06 161.02 12.95 160.13 14.73Z" fill="#778197"/>
<path d="M186.06 13.37C186.66 11.9 187.37 10.85 188.2 10.23C188.95 9.54999 189.86 9.20999 190.91 9.20999C192.5 9.20999 193.8 9.92999 194.81 11.37C195.78 12.9 196.27 14.89 196.27 17.35V31.72H193.89V17.91C193.89 15.99 193.6 14.55 193.03 13.58C192.45 12.59 191.5 12.1 190.17 12.1C189.12 12.1 188.27 12.64 187.64 13.71C186.95 14.78 186.6 16.21 186.6 17.99V31.73H184.22V17.91C184.22 14.04 183.04 12.1 180.68 12.1C179.57 12.1 178.67 12.72 177.97 13.97C177.26 15.16 176.9 16.63 176.9 18.38V31.74H174.52V9.80999H176.9V12.74C178.05 10.39 179.5 9.21999 181.25 9.21999C183.6 9.21999 185.21 10.6 186.06 13.37Z" fill="#778197"/>
</g>
</svg>
