<svg width="200" height="48" viewBox="0 0 200 48" fill="none" xmlns="http://www.w3.org/2000/svg">
<g opacity="0.4">
<path d="M113.42 16.29L110.71 22.85L111.76 16.29H107.79L105.58 22.19L106.3 16.29H101.48L99.55 32.13H104.55L106.99 26.73L106.54 32.13H111.71L118.26 16.29H113.42ZM93.91 19.65C94.03 19.25 94.4501 18.92 94.8501 18.92C95.2501 18.92 95.49 19.25 95.37 19.65L94.6901 22.01H93.2201L93.91 19.65ZM92.16 25.74L92.4501 24.72L92.51 24.52H98.76L99.8301 20.79C100.54 18.31 99.11 16.3 96.63 16.3H94.6901C92.2101 16.3 89.62 18.31 88.9 20.79L86.8501 27.94C86.1401 30.42 87.57 32.43 90.05 32.43H91.99C94.47 32.43 97.06 30.42 97.78 27.94L98.41 25.74H94L93.1001 28.88C92.9501 29.39 92.42 29.8 91.91 29.8C91.4 29.8 91.11 29.39 91.25 28.88L92.16 25.74ZM122.83 19.65C122.95 19.25 123.37 18.92 123.77 18.92C124.18 18.92 124.41 19.25 124.29 19.65L123.61 22.01H122.14L122.83 19.65ZM122.93 25.74L122.03 28.88C121.88 29.39 121.35 29.8 120.84 29.8C120.33 29.8 120.04 29.39 120.18 28.88L121.08 25.74L121.37 24.72L121.43 24.52H127.68L128.75 20.79C129.46 18.31 128.03 16.3 125.55 16.3H123.61C121.13 16.3 118.54 18.31 117.83 20.79L115.78 27.94C115.07 30.42 116.5 32.43 118.98 32.43H120.92C123.4 32.43 125.99 30.42 126.71 27.94L127.34 25.74H122.93ZM134.73 26.69C134.54 27.05 134.15 27.31 133.76 27.31C133.31 27.31 133.05 26.95 133.18 26.49L135.26 19.26C135.39 18.81 135.86 18.44 136.31 18.44C136.69 18.44 136.94 18.7 136.92 19.06L134.73 26.69ZM137.81 15.96L137.43 17.28C137.1 16.29 136.2 15.62 134.95 15.62C133.03 15.62 131.02 17.18 130.47 19.1L128.28 26.71C127.73 28.63 128.84 30.19 130.76 30.19C132.01 30.19 133.3 29.53 134.2 28.53L133.42 31.26C133.29 31.71 132.82 32.08 132.37 32.08C131.58 32.08 131.89 30.92 131.89 30.92H127.13C126.73 32.97 127.99 34.58 130.1 34.58H133.22C135.45 34.58 137.78 32.77 138.42 30.54L142.6 15.96H137.81ZM147.37 26.69C147.18 27.05 146.79 27.31 146.4 27.31C145.95 27.31 145.69 26.95 145.82 26.49L147.9 19.26C148.03 18.81 148.5 18.44 148.95 18.44C149.33 18.44 149.58 18.7 149.56 19.06L147.37 26.69ZM150.07 17.28C149.74 16.29 148.84 15.62 147.59 15.62C145.67 15.62 143.66 17.18 143.11 19.1L140.92 26.71C140.37 28.63 141.48 30.19 143.4 30.19C144.65 30.19 145.94 29.53 146.84 28.53L146.06 31.26C145.93 31.71 145.46 32.08 145.01 32.08C144.22 32.08 144.53 30.92 144.53 30.92H139.77C139.37 32.97 140.63 34.58 142.74 34.58H145.86C148.09 34.58 150.41 32.77 151.06 30.54L155.24 15.96H150.46L150.07 17.28ZM85.26 16.29C84.23 16.29 83.1901 16.74 82.3501 17.44L82.5901 16.59H77.76L73.2101 32.43H78.04L81.8101 19.28C81.9501 19.21 82.1 19.17 82.25 19.16C82.7 19.16 82.9601 19.53 82.8301 19.98L79.26 32.43H84.0901L87.7301 19.76C88.2901 17.85 87.18 16.29 85.26 16.29ZM157.97 19.12C157.18 19.08 156.55 18.42 156.55 17.62C156.55 16.82 157.17 16.17 157.97 16.12C158.77 16.16 159.4 16.82 159.4 17.62C159.4 18.43 158.77 19.09 157.97 19.12ZM157.97 15.82C156.97 15.82 156.17 16.63 156.17 17.62C156.17 18.62 156.98 19.42 157.97 19.42C158.97 19.42 159.77 18.61 159.77 17.62C159.77 16.63 158.96 15.82 157.97 15.82Z" fill="#778197"/>
<path d="M158.01 17.58H157.64V16.91H158.01C158.36 16.91 158.56 16.99 158.56 17.23C158.56 17.46 158.37 17.58 158.01 17.58ZM158.85 17.23C158.85 16.85 158.51 16.72 158.05 16.72H157.34V18.52H157.63V17.76H158.03L158.58 18.52H158.91L158.33 17.73C158.65 17.68 158.85 17.51 158.85 17.23Z" fill="#778197"/>
<path d="M86.76 13.49H91.29C91.29 13.49 100.76 0.760008 111.13 0.760008C120.25 0.760008 122.5 13.25 122.5 13.25C122.5 13.25 124.34 10.47 119.42 3.72001C114.5 -3.02999 102.16 1.14001 98.4 3.54001C98.4 3.54001 96.09 0.0600082 89.16 0.0500082C83.48 0.0400082 78.1801 3.57001 78.1801 3.57001C78.1801 3.57001 75.66 0.170008 68.91 0.170008C62.16 0.170008 40.2201 10.3 40.2201 30.55C40.2201 47.16 59.76 49.91 68.11 44.41C68.11 44.41 71.9901 46.99 78.1801 46.99C84.3701 46.99 88.37 44.33 88.37 44.33C88.37 44.33 92.8101 47.97 99.2101 47.97C105.61 47.97 113.96 45.04 118.84 35.45C118.84 35.45 110.85 44.33 102.58 44.33C94.3201 44.33 89.7 39.09 87.66 35.09H82.0601C82.0601 35.09 84.1 40.69 87.39 43.44C87.39 43.44 78.4201 47.35 69.9801 40.42C61.5401 33.49 65.8901 18.48 71.2201 12.53C76.5501 6.58001 83.7401 1.16001 89.9601 1.16001C95.2001 1.16001 97.51 4.00001 97.51 4.00001C97.51 4.00001 89.16 9.23001 86.76 13.49ZM60.2001 28.41C60.2001 38 64.61 41.92 66.89 43.45C66.89 43.45 66.0001 44.34 60.4401 44.34C54.8701 44.34 44.9301 40.61 44.9301 28.83C44.9301 17.05 58.0201 0.940008 70.2201 0.940008C75.0801 0.940008 77.3101 3.99001 77.3101 3.99001C77.3101 3.99001 60.2001 14.26 60.2001 28.41Z" fill="#778197"/>
</g>
</svg>
