<svg width="64" height="64" viewBox="0 0 64 64" fill="none" xmlns="http://www.w3.org/2000/svg">
<path d="M28 19L31 22L37 16" stroke="#3457E5" stroke-width="2" stroke-miterlimit="10" stroke-linecap="round" stroke-linejoin="round"/>
<path d="M53.0001 28.52V25.16C53.0001 23.75 52.2501 22.45 51.0301 21.74L48.8201 20.46" stroke="#1A2B6B" stroke-width="2" stroke-miterlimit="10" stroke-linecap="round" stroke-linejoin="round"/>
<path d="M27.99 56.9299L30.02 58.0999C31.24 58.8099 32.75 58.8099 33.97 58.0999L35.28 57.3399" stroke="#1A2B6B" stroke-width="2" stroke-miterlimit="10" stroke-linecap="round" stroke-linejoin="round"/>
<path d="M15.04 20.54L12.97 21.73C11.75 22.44 11 23.74 11 25.15V28.38" stroke="#1A2B6B" stroke-width="2" stroke-miterlimit="10" stroke-linecap="round" stroke-linejoin="round"/>
<path d="M45.6701 24.63V11.82C45.6701 10.9 45.1801 10.05 44.3801 9.58996L33.2801 3.17996C32.4801 2.71996 31.5101 2.71996 30.7101 3.17996L19.61 9.58996C18.81 10.05 18.3201 10.9 18.3201 11.82V24.63C18.3201 25.55 18.81 26.4 19.61 26.86L30.7101 33.27C31.5101 33.73 32.4801 33.73 33.2801 33.27L44.3801 26.86C45.1801 26.39 45.6701 25.54 45.6701 24.63Z" stroke="#3457E5" stroke-width="2" stroke-miterlimit="10" stroke-linecap="round" stroke-linejoin="round"/>
<path d="M29.6701 51.63V38.82C29.6701 37.9 29.1801 37.05 28.3801 36.59L17.2801 30.18C16.4801 29.72 15.5101 29.72 14.7101 30.18L3.61005 36.59C2.81005 37.05 2.32007 37.9 2.32007 38.82V51.63C2.32007 52.55 2.81005 53.4 3.61005 53.86L14.7101 60.27C15.5101 60.73 16.4801 60.73 17.2801 60.27L28.3801 53.86C29.1801 53.39 29.6701 52.54 29.6701 51.63Z" stroke="#1A2B6B" stroke-width="2" stroke-miterlimit="10" stroke-linecap="round" stroke-linejoin="round"/>
<path d="M24.8499 49.3699V41.0699C24.8499 40.4799 24.5299 39.9299 24.0199 39.6299L16.8299 35.4799C16.3099 35.1799 15.6799 35.1799 15.1699 35.4799L7.97992 39.6299C7.45992 39.9299 7.1499 40.4799 7.1499 41.0699V49.3699C7.1499 49.9599 7.46992 50.5099 7.97992 50.8099L15.1699 54.9599C15.6899 55.2599 16.3199 55.2599 16.8299 54.9599L24.0199 50.8099C24.5299 50.5099 24.8499 49.9699 24.8499 49.3699Z" fill="#EBEFFD"/>
<path d="M56.8499 49.3699V41.0699C56.8499 40.4799 56.5299 39.9299 56.0199 39.6299L48.8299 35.4799C48.3099 35.1799 47.6799 35.1799 47.1699 35.4799L39.9799 39.6299C39.4599 39.9299 39.1499 40.4799 39.1499 41.0699V49.3699C39.1499 49.9599 39.4699 50.5099 39.9799 50.8099L47.1699 54.9599C47.6899 55.2599 48.3199 55.2599 48.8299 54.9599L56.0199 50.8099C56.5299 50.5099 56.8499 49.9699 56.8499 49.3699Z" fill="#EBEFFD"/>
<path d="M61.6701 51.63V38.82C61.6701 37.9 61.1801 37.05 60.3801 36.59L49.2801 30.18C48.4801 29.72 47.5101 29.72 46.7101 30.18L35.61 36.59C34.81 37.05 34.3201 37.9 34.3201 38.82V51.63C34.3201 52.55 34.81 53.4 35.61 53.86L46.7101 60.27C47.5101 60.73 48.4801 60.73 49.2801 60.27L60.3801 53.86C61.1801 53.39 61.6701 52.54 61.6701 51.63Z" stroke="#1A2B6B" stroke-width="2" stroke-miterlimit="10" stroke-linecap="round" stroke-linejoin="round"/>
</svg>
