<svg width="64" height="64" viewBox="0 0 64 64" fill="none" xmlns="http://www.w3.org/2000/svg">
<path d="M55.5 6H8.5C7.4 6 6.5 6.9 6.5 8V40H10.5V12C10.5 10.9 11.4 10 12.5 10H51.5C52.6 10 53.5 10.9 53.5 12V40H57.5V8C57.5 6.9 56.6 6 55.5 6Z" fill="#EBEFFD"/>
<path d="M57.5 40H6.5V8C6.5 6.9 7.4 6 8.5 6H55.5C56.6 6 57.5 6.9 57.5 8V40Z" stroke="#1A2B6B" stroke-width="2" stroke-miterlimit="10" stroke-linecap="round" stroke-linejoin="round"/>
<path d="M57.66 59H6.33998C2.49998 59 0.179983 54.74 2.25998 51.51L6.49999 40H57.5L61.74 51.51C63.82 54.74 61.5 59 57.66 59Z" fill="white" stroke="#1A2B6B" stroke-width="2" stroke-miterlimit="10" stroke-linecap="round" stroke-linejoin="round"/>
<path d="M2.45996 53.53H61.5399" stroke="#1A2B6B" stroke-width="2" stroke-miterlimit="10" stroke-linecap="round" stroke-linejoin="round"/>
<path d="M26.5 18L21 23.5L26.45 28.95" stroke="#3457E5" stroke-width="2" stroke-miterlimit="10" stroke-linecap="round" stroke-linejoin="round"/>
<path d="M39 18L44.5 23.5L39.05 28.95" stroke="#3457E5" stroke-width="2" stroke-miterlimit="10" stroke-linecap="round" stroke-linejoin="round"/>
<path d="M34.5 18L30.5 29" stroke="#3457E5" stroke-width="2" stroke-miterlimit="10" stroke-linecap="round" stroke-linejoin="round"/>
<path d="M10.5 44H17.5" stroke="#3457E5" stroke-width="2" stroke-miterlimit="10" stroke-linecap="round" stroke-linejoin="round"/>
<path d="M9.5 49H55.5" stroke="#1A2B6B" stroke-width="2" stroke-miterlimit="10" stroke-linecap="round" stroke-linejoin="round"/>
</svg>
