<svg width="64" height="64" viewBox="0 0 64 64" fill="none" xmlns="http://www.w3.org/2000/svg">
<path d="M57 9H50V54H57V9Z" fill="#EBEFFD"/>
<path d="M55 54H6C4.9 54 4 53.1 4 52V11C4 9.9 4.9 9 6 9H55C56.1 9 57 9.9 57 11V52C57 53.1 56.1 54 55 54Z" stroke="#1A2B6B" stroke-width="2" stroke-miterlimit="10" stroke-linecap="round" stroke-linejoin="round"/>
<path d="M57 9H4V16H57V9Z" fill="#1A2B6B"/>
<path d="M59 61H43C41.9 61 41 60.1 41 59V43C41 41.9 41.9 41 43 41H59C60.1 41 61 41.9 61 43V59C61 60.1 60.1 61 59 61Z" fill="white" stroke="#1A2B6B" stroke-width="2" stroke-miterlimit="10" stroke-linecap="round" stroke-linejoin="round"/>
<path d="M10.3301 48H19.6701" stroke="#1A2B6B" stroke-width="2" stroke-miterlimit="10" stroke-linecap="round" stroke-linejoin="round"/>
<path d="M10 22H30" stroke="#3457E5" stroke-width="2" stroke-miterlimit="10" stroke-linecap="round" stroke-linejoin="round"/>
<path d="M10 27H30" stroke="#3457E5" stroke-width="2" stroke-miterlimit="10" stroke-linecap="round" stroke-linejoin="round"/>
<path d="M10 32H30" stroke="#3457E5" stroke-width="2" stroke-miterlimit="10" stroke-linecap="round" stroke-linejoin="round"/>
<path d="M7 13C7.55228 13 8 12.5523 8 12C8 11.4477 7.55228 11 7 11C6.44772 11 6 11.4477 6 12C6 12.5523 6.44772 13 7 13Z" fill="white"/>
<path d="M11 13C11.5523 13 12 12.5523 12 12C12 11.4477 11.5523 11 11 11C10.4477 11 10 11.4477 10 12C10 12.5523 10.4477 13 11 13Z" fill="white"/>
<path d="M15 13C15.5523 13 16 12.5523 16 12C16 11.4477 15.5523 11 15 11C14.4477 11 14 11.4477 14 12C14 12.5523 14.4477 13 15 13Z" fill="white"/>
<path d="M47 53C48.1046 53 49 52.1046 49 51C49 49.8954 48.1046 49 47 49C45.8954 49 45 49.8954 45 51C45 52.1046 45.8954 53 47 53Z" fill="#3457E5"/>
<path d="M53 49C54.1046 49 55 48.1046 55 47C55 45.8954 54.1046 45 53 45C51.8954 45 51 45.8954 51 47C51 48.1046 51.8954 49 53 49Z" fill="#3457E5"/>
<path d="M54 57C55.1046 57 56 56.1046 56 55C56 53.8954 55.1046 53 54 53C52.8954 53 52 53.8954 52 55C52 56.1046 52.8954 57 54 57Z" fill="#3457E5"/>
<path d="M47 51L53.5 54.5" stroke="#3457E5" stroke-miterlimit="10" stroke-linecap="round" stroke-linejoin="round"/>
<path d="M47.5 51.5L52.5 47.5" stroke="#3457E5" stroke-miterlimit="10" stroke-linecap="round" stroke-linejoin="round"/>
</svg>
