<svg width="200" height="48" viewBox="0 0 200 48" fill="none" xmlns="http://www.w3.org/2000/svg">
<g opacity="0.4">
<path d="M40.61 23.22L32.61 18.6C32.25 18.39 31.85 18.29 31.45 18.29C31.05 18.29 30.65 18.39 30.29 18.6L26.96 20.52L24.91 21.7L22.28 23.22L21.13 23.88L14.59 27.65L8.05002 23.88V16.33L14.59 12.56L21.13 16.33V20.9L24.91 18.72V15.5C24.91 14.67 24.47 13.9 23.75 13.49L15.75 8.87C15.39 8.66 14.99 8.56 14.59 8.56C14.19 8.56 13.79 8.66 13.43 8.87L5.43002 13.49C4.71002 13.9 4.27002 14.67 4.27002 15.5V24.73C4.27002 25.56 4.71002 26.33 5.43002 26.74L13.43 31.36C13.79 31.57 14.19 31.67 14.59 31.67C14.99 31.67 15.39 31.57 15.75 31.36L21.13 28.26L24.91 26.08L26.56 25.12L31.44 22.3L37.98 26.07V33.62L31.44 37.39L24.9 33.62V29.17L21.12 31.35V34.46C21.12 35.29 21.56 36.06 22.28 36.47L30.28 41.09C30.64 41.3 31.04 41.4 31.44 41.4C31.84 41.4 32.24 41.3 32.6 41.09L41.76 35.8V25.23C41.77 24.4 41.33 23.63 40.61 23.22Z" fill="#778197"/>
<path d="M57.17 14.16V16.32C58.06 15.43 59.02 14.77 60.05 14.32C61.08 13.88 62.19 13.65 63.36 13.65C65.92 13.65 68.09 14.62 69.87 16.55C71.66 18.48 72.55 20.96 72.55 23.98C72.55 26.9 71.63 29.33 69.78 31.3C67.93 33.26 65.74 34.24 63.21 34.24C62.08 34.24 61.03 34.04 60.06 33.64C59.09 33.24 58.12 32.58 57.16 31.67V40.9H52.28V14.16H57.17ZM62.33 18.19C60.78 18.19 59.5 18.72 58.48 19.77C57.46 20.83 56.95 22.21 56.95 23.91C56.95 25.65 57.46 27.06 58.48 28.13C59.5 29.2 60.78 29.74 62.33 29.74C63.83 29.74 65.09 29.19 66.12 28.1C67.15 27.01 67.66 25.62 67.66 23.92C67.66 22.24 67.16 20.86 66.15 19.79C65.14 18.72 63.87 18.19 62.33 18.19Z" fill="#778197"/>
<path d="M85.82 13.65C87.67 13.65 89.4 14.11 91.03 15.04C92.66 15.96 93.92 17.22 94.84 18.8C95.75 20.38 96.21 22.09 96.21 23.93C96.21 25.78 95.75 27.51 94.83 29.11C93.91 30.72 92.66 31.97 91.08 32.88C89.5 33.79 87.75 34.24 85.84 34.24C83.03 34.24 80.64 33.24 78.65 31.24C76.66 29.24 75.67 26.82 75.67 23.96C75.67 20.9 76.79 18.35 79.04 16.31C81 14.54 83.26 13.65 85.82 13.65ZM85.9 18.28C84.37 18.28 83.1 18.81 82.09 19.87C81.07 20.93 80.57 22.29 80.57 23.95C80.57 25.65 81.07 27.03 82.08 28.09C83.08 29.15 84.35 29.67 85.89 29.67C87.43 29.67 88.71 29.14 89.73 28.07C90.75 27 91.26 25.63 91.26 23.95C91.26 22.27 90.76 20.91 89.75 19.86C88.74 18.8 87.46 18.28 85.9 18.28Z" fill="#778197"/>
<path d="M99.67 6.60001H104.58V33.74H99.67V6.60001Z" fill="#778197"/>
<path d="M106.88 14.16H111.9L116.99 26.45L122.6 14.16H127.64L115.37 40.9H110.3L114.33 32.28L106.88 14.16Z" fill="#778197"/>
<path d="M144.9 14.16H149.8V30.93C149.8 34.24 149.13 36.68 147.8 38.24C146.01 40.35 143.32 41.41 139.72 41.41C137.8 41.41 136.19 41.17 134.88 40.69C133.57 40.21 132.47 39.5 131.57 38.58C130.67 37.65 130 36.52 129.57 35.19H134.99C135.47 35.74 136.09 36.16 136.84 36.44C137.6 36.72 138.49 36.86 139.52 36.86C140.84 36.86 141.9 36.66 142.71 36.25C143.51 35.84 144.08 35.31 144.41 34.67C144.74 34.02 144.9 32.91 144.9 31.32C144.04 32.18 143.13 32.8 142.18 33.18C141.23 33.56 140.16 33.75 138.96 33.75C136.33 33.75 134.11 32.8 132.3 30.91C130.49 29.01 129.58 26.61 129.58 23.71C129.58 20.6 130.54 18.11 132.46 16.22C134.2 14.52 136.28 13.66 138.69 13.66C139.82 13.66 140.88 13.87 141.88 14.28C142.88 14.69 143.89 15.38 144.89 16.32V14.16H144.9ZM139.81 18.24C138.26 18.24 136.98 18.76 135.98 19.8C134.97 20.84 134.47 22.14 134.47 23.71C134.47 25.34 134.99 26.68 136.02 27.72C137.05 28.76 138.35 29.29 139.91 29.29C141.43 29.29 142.69 28.78 143.68 27.76C144.67 26.74 145.16 25.4 145.16 23.75C145.16 22.12 144.66 20.79 143.67 19.77C142.66 18.75 141.38 18.24 139.81 18.24Z" fill="#778197"/>
<path d="M163.96 13.65C165.81 13.65 167.54 14.11 169.17 15.04C170.8 15.96 172.06 17.22 172.98 18.8C173.89 20.38 174.35 22.09 174.35 23.93C174.35 25.78 173.89 27.51 172.97 29.11C172.05 30.72 170.8 31.97 169.22 32.88C167.64 33.79 165.89 34.24 163.98 34.24C161.17 34.24 158.78 33.24 156.79 31.24C154.8 29.24 153.81 26.82 153.81 23.96C153.81 20.9 154.93 18.35 157.18 16.31C159.14 14.54 161.4 13.65 163.96 13.65ZM164.04 18.28C162.51 18.28 161.24 18.81 160.23 19.87C159.21 20.93 158.71 22.29 158.71 23.95C158.71 25.65 159.21 27.03 160.22 28.09C161.22 29.15 162.49 29.67 164.03 29.67C165.57 29.67 166.85 29.14 167.87 28.07C168.89 27 169.4 25.63 169.4 23.95C169.4 22.27 168.9 20.91 167.89 19.86C166.88 18.8 165.6 18.28 164.04 18.28Z" fill="#778197"/>
<path d="M178.36 14.16H183.27V16.17C184.38 15.23 185.39 14.58 186.3 14.21C187.2 13.84 188.13 13.66 189.08 13.66C191.02 13.66 192.67 14.34 194.02 15.69C195.16 16.84 195.73 18.55 195.73 20.8V33.74H190.87V25.17C190.87 22.83 190.77 21.28 190.56 20.51C190.35 19.74 189.99 19.16 189.46 18.76C188.94 18.36 188.3 18.16 187.53 18.16C186.54 18.16 185.68 18.49 184.97 19.16C184.26 19.83 183.76 20.75 183.49 21.92C183.35 22.53 183.27 23.86 183.27 25.89V33.75H178.36V14.16Z" fill="#778197"/>
</g>
</svg>
