<svg width="64" height="64" viewBox="0 0 64 64" fill="none" xmlns="http://www.w3.org/2000/svg">
<path d="M32.0022 61.066C18.1976 61.066 7 50.0339 7 36.4333V16.2291C7 13.5621 8.67814 11.1806 11.2053 10.2456L29.7248 3.40595C31.1931 2.86468 32.8113 2.86468 34.2797 3.40595L52.7991 10.2456C55.3263 11.1806 57.0044 13.5621 57.0044 16.2291V36.4333C57.0044 50.0339 45.8069 61.066 32.0022 61.066Z" fill="white" stroke="#4D78FF" stroke-width="4" stroke-miterlimit="10" stroke-linecap="round" stroke-linejoin="round"/>
<path d="M32.0021 41.0586C37.1823 41.0586 41.3817 36.9213 41.3817 31.8176C41.3817 26.714 37.1823 22.5767 32.0021 22.5767C26.8219 22.5767 22.6226 26.714 22.6226 31.8176C22.6226 36.9213 26.8219 41.0586 32.0021 41.0586Z" fill="#12D3EB"/>
</svg>
