<svg width="64" height="65" viewBox="0 0 64 65" fill="none" xmlns="http://www.w3.org/2000/svg">
<path d="M19.11 15.1901C18.81 15.1601 18.5 15.1401 18.2 15.1401C13.59 15.1401 9.86002 18.8701 9.86002 23.4801C9.86002 28.0901 13.59 31.8201 18.2 31.8201C19.44 31.8201 20.62 31.5501 21.68 31.0601" stroke="#3457E5" stroke-width="2" stroke-miterlimit="10" stroke-linecap="round" stroke-linejoin="round"/>
<path d="M18.49 36.2202C9.56001 36.2202 2.32001 43.4602 2.32001 52.3902" stroke="#3457E5" stroke-width="2" stroke-miterlimit="10" stroke-linecap="round" stroke-linejoin="round"/>
<path d="M44.89 15.1901C45.19 15.1601 45.5 15.1401 45.8 15.1401C50.41 15.1401 54.14 18.8701 54.14 23.4801C54.14 28.0901 50.41 31.8201 45.8 31.8201C44.56 31.8201 43.38 31.5501 42.32 31.0601" stroke="#3457E5" stroke-width="2" stroke-miterlimit="10" stroke-linecap="round" stroke-linejoin="round"/>
<path d="M45.51 36.2202C54.44 36.2202 61.68 43.4602 61.68 52.3902" stroke="#3457E5" stroke-width="2" stroke-miterlimit="10" stroke-linecap="round" stroke-linejoin="round"/>
<path d="M32 32.9601C38.2574 32.9601 43.33 27.8875 43.33 21.6301C43.33 15.3727 38.2574 10.3001 32 10.3001C25.7426 10.3001 20.67 15.3727 20.67 21.6301C20.67 27.8875 25.7426 32.9601 32 32.9601Z" fill="white" stroke="#1A2B6B" stroke-width="2" stroke-miterlimit="10" stroke-linecap="round" stroke-linejoin="round"/>
<path d="M15.99 57.9001C12.15 57.9001 9.33002 54.1201 10.58 50.4901C13.65 41.6201 22.08 35.2501 32 35.2501C41.92 35.2501 50.35 41.6201 53.42 50.4901C54.68 54.1201 51.86 57.9001 48.01 57.9001H15.99Z" fill="white" stroke="#1A2B6B" stroke-width="2" stroke-miterlimit="10" stroke-linecap="round" stroke-linejoin="round"/>
</svg>
