<svg width="64" height="64" viewBox="0 0 64 64" fill="none" xmlns="http://www.w3.org/2000/svg">
<path d="M16.44 18.88C21.1013 18.88 24.88 15.1013 24.88 10.44C24.88 5.77872 21.1013 2 16.44 2C11.7787 2 8 5.77872 8 10.44C8 15.1013 11.7787 18.88 16.44 18.88Z" stroke="#3457E5" stroke-width="2" stroke-miterlimit="10" stroke-linecap="round" stroke-linejoin="round"/>
<path d="M41.74 44.8299C50.3391 44.8299 57.31 37.859 57.31 29.2599C57.31 20.6609 50.3391 13.6899 41.74 13.6899C33.141 13.6899 26.17 20.6609 26.17 29.2599C26.17 37.859 33.141 44.8299 41.74 44.8299Z" stroke="#1A2B6B" stroke-width="2" stroke-miterlimit="10" stroke-linecap="round" stroke-linejoin="round"/>
<path d="M11.76 61.54V43.69C11.76 43.16 11.33 42.74 10.81 42.74H7.98003C7.45003 42.74 7.03003 43.17 7.03003 43.69V61.55C7.03003 62.08 7.46003 62.5 7.98003 62.5H10.8C11.33 62.5 11.76 62.07 11.76 61.54Z" fill="#1A2B6B"/>
<path d="M10.42 46.05H24.85C27.79 46.05 30.18 48.4401 30.18 51.3801H38.81C42.23 51.3801 45 54.15 45 57.57C45 58.24 44.45 58.7901 43.78 58.7901H10.42V46.05Z" stroke="#1A2B6B" stroke-width="2" stroke-miterlimit="10" stroke-linecap="round" stroke-linejoin="round"/>
<path d="M30.18 51.3799H22.77" stroke="#1A2B6B" stroke-width="2" stroke-miterlimit="10" stroke-linecap="round" stroke-linejoin="round"/>
<path d="M44.7199 22.34L44.5899 22.28C41.3999 20.8 37.6099 22.19 36.1299 25.38L33.0699 31.99L35.4099 33.07L38.4699 26.46C39.3499 24.56 41.6099 23.73 43.5099 24.61L43.6399 24.67C45.5399 25.55 46.3699 27.81 45.4899 29.71L42.4299 36.32L44.7699 37.4L47.8299 30.79C49.2999 27.6 47.9199 23.82 44.7199 22.34Z" fill="#3457E5"/>
<path d="M40.09 35.2399L37.75 34.1599L40.78 27.6199C41.08 26.9699 41.85 26.6899 42.49 26.9899C43.14 27.2899 43.42 28.0599 43.12 28.6999L40.09 35.2399Z" fill="#1A2B6B"/>
</svg>
