<svg width="64" height="64" viewBox="0 0 64 64" fill="none" xmlns="http://www.w3.org/2000/svg">
<path d="M30.91 31C38.9182 31 45.41 24.5081 45.41 16.5C45.41 8.49187 38.9182 2 30.91 2C22.9019 2 16.41 8.49187 16.41 16.5C16.41 24.5081 22.9019 31 30.91 31Z" stroke="#3457E5" stroke-width="2" stroke-miterlimit="10" stroke-linecap="round" stroke-linejoin="round"/>
<path d="M30.91 2C30.16 2 29.43 2.07 28.7 2.19C35.66 3.25 41 9.24 41 16.5C41 23.76 35.6599 29.75 28.7099 30.81C29.4299 30.92 30.16 31 30.92 31C38.93 31 45.4199 24.51 45.4199 16.5C45.4199 8.49 38.92 2 30.91 2Z" fill="#EBEFFD"/>
<path d="M30.91 31C33.7708 31 36.09 24.5081 36.09 16.5C36.09 8.49187 33.7708 2 30.91 2C28.0491 2 25.73 8.49187 25.73 16.5C25.73 24.5081 28.0491 31 30.91 31Z" stroke="#3457E5" stroke-width="2" stroke-miterlimit="10" stroke-linecap="round" stroke-linejoin="round"/>
<path d="M30.91 31C38.9182 31 45.41 24.5081 45.41 16.5C45.41 8.49187 38.9182 2 30.91 2C22.9019 2 16.41 8.49187 16.41 16.5C16.41 24.5081 22.9019 31 30.91 31Z" stroke="#3457E5" stroke-width="2" stroke-miterlimit="10" stroke-linecap="round" stroke-linejoin="round"/>
<path d="M16.41 16.5H45.41" stroke="#3457E5" stroke-width="2" stroke-miterlimit="10" stroke-linecap="round" stroke-linejoin="round"/>
<path d="M5 24H10.46C11.37 24 12.16 24.61 12.39 25.48L19.2 51.03C19.67 52.78 21.25 54 23.06 54H46" stroke="#1A2B6B" stroke-width="2" stroke-miterlimit="10" stroke-linecap="round" stroke-linejoin="round"/>
<path d="M44 30H46.27C47.62 30 48.58 31.31 48.18 32.6L43.88 46.27C43.36 47.94 41.81 49.07 40.06 49.07H37" fill="#EBEFFD"/>
<path d="M19 30H46.27C47.62 30 48.58 31.31 48.18 32.6L43.88 46.27C43.36 47.94 41.81 49.07 40.06 49.07H24.86" stroke="#1A2B6B" stroke-width="2" stroke-miterlimit="10" stroke-linecap="round" stroke-linejoin="round"/>
<path d="M19.43 62.9999C20.9046 62.9999 22.1 61.8045 22.1 60.3299C22.1 58.8553 20.9046 57.6599 19.43 57.6599C17.9554 57.6599 16.76 58.8553 16.76 60.3299C16.76 61.8045 17.9554 62.9999 19.43 62.9999Z" fill="#1A2B6B"/>
<path d="M41.4 62.9999C42.8746 62.9999 44.07 61.8045 44.07 60.3299C44.07 58.8553 42.8746 57.6599 41.4 57.6599C39.9254 57.6599 38.73 58.8553 38.73 60.3299C38.73 61.8045 39.9254 62.9999 41.4 62.9999Z" fill="#1A2B6B"/>
<path d="M16 36H47" stroke="#1A2B6B" stroke-width="2" stroke-miterlimit="10" stroke-linecap="round" stroke-linejoin="round"/>
</svg>
