<svg width="200" height="48" viewBox="0 0 200 48" fill="none" xmlns="http://www.w3.org/2000/svg">
<g opacity="0.4">
<path d="M11.49 19.8003L7.28979 24.0005L11.49 28.2007L15.6901 24.0005L11.49 19.8003Z" fill="#778197"/>
<path d="M33.09 26.94L25.86 34.17L18.63 26.94L14.43 31.14L25.86 42.57L37.29 31.14L33.09 26.94Z" fill="#778197"/>
<path d="M40.2302 19.8009L36.0295 24.0005L40.2291 28.2013L44.4298 24.0017L40.2302 19.8009Z" fill="#778197"/>
<path d="M25.86 5.42999L14.43 16.86L18.63 21.06L25.86 13.83L33.09 21.06L37.29 16.86L25.86 5.42999Z" fill="#778197"/>
<path d="M25.8594 19.7145L21.5743 23.9995L25.8594 28.2845L30.1444 23.9995L25.8594 19.7145Z" fill="#778197"/>
<path d="M66.7 25.77C65.9 24.52 63.9 23.75 63.9 23.75C65.88 22.8 66.42 20.96 66.42 19.17C66.42 17.38 64.63 14.38 60.31 14.38H54.97H53.62H50.86V34.03H53.28H54.98C54.98 34.03 59.21 34.03 60.87 34.03C62.53 34.03 64.48 33.56 65.74 32.62C67 31.67 67.52 30.05 67.52 28.94C67.51 27.83 67.49 27.02 66.7 25.77ZM54.96 18.2C54.96 18.2 58.88 18.2 59.74 18.2C60.59 18.2 62.16 18.71 62.16 20.16C62.16 21.61 61.02 22.38 59.74 22.38C58.46 22.38 54.96 22.38 54.96 22.38V18.2ZM60.88 30.29C59.6 30.29 54.96 30.29 54.96 30.29V26C54.96 26 60.03 26 60.88 26C61.73 26 63.3 26.62 63.3 28.07C63.3 29.52 62.16 30.29 60.88 30.29Z" fill="#778197"/>
<path d="M77.22 14.38H72.97V34.03H77.22V14.38Z" fill="#778197"/>
<path d="M97.09 14.38V26.5L88.08 14.7L87.85 14.38H83.84V34.04H88.08V21.51L97.09 33.23L97.71 34.04H101.33V14.38H97.09Z" fill="#778197"/>
<path d="M144.84 14.38V26.5L135.84 14.7L135.6 14.38H131.6V34.04H135.84V21.51L144.84 33.23L145.47 34.04H149.09V14.38H144.84Z" fill="#778197"/>
<path d="M122.41 34.04H126.91L118.49 14.39H114.46L106.03 34.04H110.48L112.25 29.68H120.6L122.41 34.04ZM113.79 25.91L116.41 19.45L119.07 25.91H113.79Z" fill="#778197"/>
<path d="M170.03 28.09C168.79 29.55 166.94 30.49 165.14 30.48C161.41 30.47 159.13 27.7 159.13 24.26C159.13 20.83 161.28 18.05 165.14 18.05C166.78 18.05 168.6 18.94 169.87 20.33L172.64 17.13C170.73 15.26 168.07 14.11 165.14 14.11C158.83 14.11 154.6 18.66 154.6 24.27C154.6 29.88 158.64 34.43 165.14 34.43C168.24 34.43 170.57 33.27 172.8 30.94L170.03 28.09Z" fill="#778197"/>
<path d="M192.71 18.25V14.38H182.12H179.02H177.87V34.04H179.02H182.12H192.71V30.27H182.12V26.1H191.41V22.33H182.12V18.25H192.71Z" fill="#778197"/>
</g>
</svg>
