<svg width="64" height="65" viewBox="0 0 64 65" fill="none" xmlns="http://www.w3.org/2000/svg">
<path d="M22.55 37.4001H14.23V56.1101H22.55V37.4001Z" fill="white" stroke="#1A2B6B" stroke-width="2" stroke-miterlimit="10" stroke-linecap="round" stroke-linejoin="round"/>
<path d="M37.1 31.1601H28.78V56.1101H37.1V31.1601Z" fill="white" stroke="#1A2B6B" stroke-width="2" stroke-miterlimit="10" stroke-linecap="round" stroke-linejoin="round"/>
<path d="M51.66 21.8101H43.34V56.1101H51.66V21.8101Z" fill="white" stroke="#3457E5" stroke-width="2" stroke-miterlimit="10" stroke-linecap="round" stroke-linejoin="round"/>
<path d="M10.07 29.1601L27.23 15.8401L30.85 20.0001L45.31 7.46008" stroke="#1A2B6B" stroke-width="2" stroke-miterlimit="10" stroke-linecap="round" stroke-linejoin="round"/>
<path d="M47.82 6.01009L47.22 9.40009C47.11 10.0101 46.36 10.2501 45.92 9.81009L43.13 7.02009C42.69 6.58009 42.93 5.83009 43.54 5.72009L46.93 5.12009C47.46 5.03009 47.92 5.49009 47.82 6.01009Z" fill="#1A2B6B"/>
<path d="M8 56.1101H57.89" stroke="#1A2B6B" stroke-width="2" stroke-miterlimit="10" stroke-linecap="round" stroke-linejoin="round"/>
<path d="M17.87 30.2101C22.1778 30.2101 25.67 26.7179 25.67 22.4101C25.67 18.1023 22.1778 14.6101 17.87 14.6101C13.5622 14.6101 10.07 18.1023 10.07 22.4101C10.07 26.7179 13.5622 30.2101 17.87 30.2101Z" fill="white" stroke="#3457E5" stroke-width="2" stroke-miterlimit="10" stroke-linecap="round" stroke-linejoin="round"/>
<path d="M15.8 23.8601C15.79 23.9101 15.78 23.9401 15.71 23.9201L14.94 23.7301L14.74 24.5301L16.16 24.8901L15.87 26.0501L16.63 26.2401L16.92 25.0801L17.39 25.2001L17.1 26.3601L17.82 26.5401L18.11 25.3801L18.65 25.5201C19.01 25.6101 20.39 25.6301 20.68 24.4301C20.88 23.7701 20.59 23.0601 19.99 22.7201C19.39 22.3801 20.84 22.4601 20.96 21.6901C21.08 20.9201 20.54 20.5501 20.22 20.3601C19.97 20.2201 19.71 20.1001 19.44 20.0201L19.74 18.8101L19.04 18.6401L18.74 19.8401L18.18 19.7001L18.48 18.4901L17.78 18.3201L17.48 19.5301L16.01 19.1601L15.83 19.8701L16.64 20.0701C16.72 20.0901 16.71 20.1301 16.7 20.1601L15.8 23.8601ZM18.03 20.3901L18.89 20.6101C19.04 20.6501 19.72 20.9501 19.57 21.5601C19.49 21.9101 19.17 22.1401 18.82 22.1201C18.75 22.1201 18.68 22.1101 18.61 22.1001L17.66 21.8601L18.03 20.3901ZM17.49 22.6101L18.83 22.9501C19.03 23.0001 19.19 23.1301 19.29 23.3101C19.39 23.4901 19.4 23.7001 19.34 23.8901C19.22 24.3701 18.74 24.4801 18.51 24.4801C18.48 24.4801 18.44 24.4801 18.41 24.4701L17.11 24.1501L17.49 22.6101Z" fill="#3457E5"/>
</svg>
