<svg width="64" height="65" viewBox="0 0 64 65" fill="none" xmlns="http://www.w3.org/2000/svg">
<path d="M45.39 53.2601H13.72V11.1601C13.72 10.0301 14.64 9.11011 15.77 9.11011H43.35C44.48 9.11011 45.4 10.0301 45.4 11.1601V53.2601H45.39Z" fill="white" stroke="#1A2B6B" stroke-width="2" stroke-miterlimit="10" stroke-linecap="round" stroke-linejoin="round"/>
<path d="M50.11 55.6701H9.89001C8.86001 55.6701 8.02002 54.8301 8.02002 53.8001V26.3401C8.02002 25.3101 8.86001 24.4701 9.89001 24.4701H50.11C51.14 24.4701 51.98 25.3101 51.98 26.3401V53.8001C51.98 54.8301 51.14 55.6701 50.11 55.6701Z" fill="white" stroke="#1A2B6B" stroke-width="2" stroke-miterlimit="10" stroke-linecap="round" stroke-linejoin="round"/>
<path d="M8.02002 32.4701H51.98" stroke="#3457E5" stroke-width="2" stroke-miterlimit="10" stroke-linecap="round" stroke-linejoin="round"/>
<path d="M13.51 48.8601H17.94" stroke="#1A2B6B" stroke-width="2" stroke-miterlimit="10" stroke-linecap="round" stroke-linejoin="round"/>
<path d="M18.34 18.4701C18.33 18.5201 18.32 18.5401 18.26 18.5301L17.52 18.3401L17.33 19.1001L18.7 19.4401L18.42 20.5501L19.15 20.7301L19.43 19.6201L19.88 19.7301L19.6 20.8401L20.29 21.0101L20.57 19.9001L21.09 20.0301C21.44 20.1201 22.76 20.1301 23.04 18.9801C23.23 18.3501 22.95 17.6701 22.38 17.3401C21.8 17.0101 23.19 17.0901 23.31 16.3501C23.42 15.6101 22.91 15.2601 22.6 15.0701C22.36 14.9301 22.11 14.8201 21.85 14.7401L22.14 13.5801L21.47 13.4201L21.18 14.5701L20.64 14.4401L20.93 13.2801L20.25 13.1201L19.96 14.2801L18.55 13.9301L18.38 14.6101L19.16 14.8001C19.24 14.8201 19.23 14.8601 19.22 14.8801L18.34 18.4701ZM20.47 15.1401L21.29 15.3501C21.43 15.3901 22.09 15.6801 21.94 16.2601C21.86 16.5901 21.56 16.8201 21.22 16.8001C21.15 16.8001 21.09 16.7901 21.02 16.7801L20.11 16.5501L20.47 15.1401ZM19.95 17.2701L21.24 17.6001C21.43 17.6501 21.59 17.7801 21.68 17.9501C21.77 18.1201 21.79 18.3201 21.73 18.5101C21.61 18.9701 21.16 19.0801 20.93 19.0801C20.9 19.0801 20.86 19.0801 20.83 19.0701L19.59 18.7601L19.95 17.2701Z" fill="#1A2B6B"/>
<path d="M48.2 58.1101C53.6124 58.1101 58 53.7225 58 48.3101C58 42.8977 53.6124 38.5101 48.2 38.5101C42.7877 38.5101 38.4 42.8977 38.4 48.3101C38.4 53.7225 42.7877 58.1101 48.2 58.1101Z" fill="white" stroke="#3457E5" stroke-width="2" stroke-miterlimit="10" stroke-linecap="round" stroke-linejoin="round"/>
<path d="M48.2 43.4101V48.3101L50.16 51.2501" stroke="#3457E5" stroke-width="2" stroke-miterlimit="10" stroke-linecap="round" stroke-linejoin="round"/>
<path d="M26.2 14.8701H35.8" stroke="#1A2B6B" stroke-width="2" stroke-miterlimit="10" stroke-linecap="round" stroke-linejoin="round"/>
<path d="M26.2 19.6701H39.64" stroke="#1A2B6B" stroke-width="2" stroke-miterlimit="10" stroke-linecap="round" stroke-linejoin="round"/>
</svg>
