<svg width="200" height="48" viewBox="0 0 200 48" fill="none" xmlns="http://www.w3.org/2000/svg">
<g opacity="0.4">
<path d="M46.5201 12.52C44.0401 9.87001 36.9701 9.93001 36.9701 9.93001C32.1701 10.05 28.79 12.54 26.44 13.38C21.49 15.13 18.06 16.37 14.43 19.23C11.17 21.79 9.00007 25.13 6.79007 28.59C4.38007 32.19 3.26004 33.29 4.57004 35.8C5.45004 37.49 9.21005 35.82 9.21005 35.82C8.78005 35.59 8.77007 34.48 8.79007 34.1C8.96007 32.22 12.0901 30.13 14.4001 29.33L14.7301 29.22L14.81 25.07C14.86 25.09 14.9201 25.1 14.9701 25.11C19.1001 26.2 23.7901 25.58 27.8401 22.57C27.9801 22.97 28.1301 23.46 28.0901 24H28.8401C29.0201 22.46 27.98 20.96 26.26 20.85C26.76 21.25 27.12 21.57 27.3 21.85L27.2 21.95C22.67 25.12 18.2501 24.62 16.3401 24.22L19.58 21.24L18.75 19.15C25.21 16.9 30.35 15.4 38.45 13.97L39.51 13.78L37.2701 11.97L37.5 11.83C42.5 13.22 45.9801 14.42 45.8501 16.65C45.7901 17.06 47.9401 19.77 48.1701 16.2C48.3201 14.19 47.7601 13.84 46.5201 12.52Z" fill="#A8B7D1"/>
<path d="M39.48 34.82C36.94 35 37.19 33.64 38.7 31.67C42.14 27.09 48.5 20.86 48.79 16.31C49.19 10.4 43.24 8.57001 37.12 8.57001C32.86 8.68001 28.46 9.86001 25.45 10.93C15.11 14.58 8.63001 20.31 4.51001 26.76C0.250014 33.13 1.58002 39.26 10.77 39.44C17.72 39.15 22.4 37.22 27.12 34.79C27.15 34.79 13.99 38.55 9.12 35.79C8.58 35.5 8.05004 35.11 7.91004 34C7.91004 31.74 11.63 29.38 13.82 28.63V24.76V23.45C13.82 23.45 14.58 23.8 15.4 24L18.59 20.88L17.7 18.62C24.04 16.4 29.26 14.79 37.95 13.25L36.01 11.68L37.01 11.07C42.16 12.5 45.63 13.57 45.46 16.3C45.39 16.76 45.21 17.3 44.92 17.88C43.39 20.92 38.88 25.83 37.05 27.94C35.87 29.34 34.69 30.63 33.86 31.92C32.93 33.24 32.46 34.46 32.43 35.57C32.61 44.56 59.13 31.35 64.36 27.87C56.73 31.13 48.46 34.25 39.48 34.82Z" fill="#778197"/>
<path d="M60.65 11.23H63.7L69.78 27.05H66.65L65.41 23.79H58.95L57.66 27.05H54.53L60.65 11.23ZM62.2 15.42L60.08 20.85H64.31L62.2 15.42Z" fill="#778197"/>
<path d="M71.47 10.83H74.41V27.05H71.47V10.83Z" fill="#778197"/>
<path d="M78.22 10.53C78.73 10.53 79.18 10.72 79.54 11.09C79.91 11.46 80.09 11.91 80.09 12.45C80.09 12.97 79.91 13.42 79.54 13.79C79.18 14.16 78.74 14.34 78.23 14.34C77.71 14.34 77.26 14.15 76.89 13.78C76.52 13.4 76.34 12.95 76.34 12.41C76.34 11.89 76.52 11.45 76.89 11.09C77.27 10.71 77.71 10.53 78.22 10.53ZM76.75 15.35H79.69V27.05H76.75V15.35Z" fill="#778197"/>
<path d="M85.27 10.83V16.64C85.8 16.11 86.37 15.71 86.99 15.45C87.61 15.18 88.27 15.05 88.97 15.05C90.5 15.05 91.79 15.63 92.86 16.78C93.93 17.93 94.46 19.41 94.46 21.22C94.46 22.96 93.91 24.42 92.8 25.59C91.7 26.76 90.39 27.35 88.87 27.35C88.2 27.35 87.57 27.23 86.99 26.99C86.41 26.75 85.83 26.36 85.26 25.81V27.05H82.35V10.83H85.27ZM88.36 17.76C87.44 17.76 86.67 18.08 86.06 18.71C85.45 19.34 85.15 20.17 85.15 21.18C85.15 22.22 85.45 23.06 86.06 23.7C86.67 24.34 87.44 24.66 88.36 24.66C89.26 24.66 90.01 24.33 90.62 23.68C91.23 23.03 91.54 22.2 91.54 21.18C91.54 20.18 91.24 19.35 90.64 18.71C90.04 18.08 89.28 17.76 88.36 17.76Z" fill="#778197"/>
<path d="M105.53 15.35H108.47V27.05H105.53V25.81C104.96 26.35 104.38 26.75 103.81 26.99C103.23 27.23 102.61 27.35 101.94 27.35C100.43 27.35 99.12 26.76 98.02 25.59C96.92 24.42 96.37 22.96 96.37 21.22C96.37 19.41 96.9 17.93 97.97 16.78C99.04 15.63 100.33 15.05 101.86 15.05C102.56 15.05 103.22 15.18 103.84 15.45C104.46 15.72 105.03 16.11 105.55 16.64V15.35H105.53ZM102.45 17.76C101.54 17.76 100.79 18.08 100.19 18.72C99.59 19.36 99.29 20.18 99.29 21.19C99.29 22.2 99.6 23.03 100.21 23.69C100.82 24.34 101.57 24.67 102.47 24.67C103.39 24.67 104.16 24.35 104.76 23.71C105.37 23.07 105.67 22.23 105.67 21.19C105.67 20.17 105.37 19.35 104.76 18.72C104.14 18.07 103.38 17.76 102.45 17.76Z" fill="#778197"/>
<path d="M114.35 10.83V16.64C114.88 16.11 115.45 15.71 116.07 15.45C116.69 15.18 117.35 15.05 118.05 15.05C119.58 15.05 120.87 15.63 121.94 16.78C123.01 17.93 123.54 19.41 123.54 21.22C123.54 22.96 122.99 24.42 121.88 25.59C120.78 26.76 119.47 27.35 117.95 27.35C117.28 27.35 116.65 27.23 116.07 26.99C115.49 26.75 114.91 26.36 114.34 25.81V27.05H111.43V10.83H114.35ZM117.44 17.76C116.52 17.76 115.75 18.08 115.14 18.71C114.53 19.34 114.23 20.17 114.23 21.18C114.23 22.22 114.53 23.06 115.14 23.7C115.75 24.34 116.52 24.66 117.44 24.66C118.34 24.66 119.09 24.33 119.7 23.68C120.31 23.03 120.62 22.2 120.62 21.18C120.62 20.18 120.32 19.35 119.72 18.71C119.12 18.08 118.36 17.76 117.44 17.76Z" fill="#778197"/>
<path d="M134.61 15.35H137.55V27.05H134.61V25.81C134.04 26.35 133.46 26.75 132.89 26.99C132.31 27.23 131.69 27.35 131.02 27.35C129.51 27.35 128.2 26.76 127.1 25.59C126 24.42 125.45 22.96 125.45 21.22C125.45 19.41 125.98 17.93 127.05 16.78C128.12 15.63 129.41 15.05 130.94 15.05C131.64 15.05 132.3 15.18 132.92 15.45C133.54 15.72 134.11 16.11 134.63 16.64V15.35H134.61ZM131.53 17.76C130.62 17.76 129.87 18.08 129.27 18.72C128.67 19.36 128.37 20.18 128.37 21.19C128.37 22.2 128.68 23.03 129.29 23.69C129.9 24.34 130.65 24.67 131.55 24.67C132.47 24.67 133.24 24.35 133.84 23.71C134.45 23.07 134.75 22.23 134.75 21.19C134.75 20.17 134.45 19.35 133.84 18.72C133.23 18.07 132.46 17.76 131.53 17.76Z" fill="#778197"/>
<path d="M142.12 23.98C142.59 23.98 142.98 24.14 143.31 24.47C143.64 24.8 143.8 25.19 143.8 25.66C143.8 26.13 143.63 26.52 143.31 26.85C142.98 27.18 142.58 27.34 142.12 27.34C141.65 27.34 141.26 27.17 140.93 26.85C140.6 26.52 140.44 26.12 140.44 25.66C140.44 25.19 140.6 24.8 140.93 24.47C141.26 24.15 141.66 23.98 142.12 23.98Z" fill="#778197"/>
<path d="M158.23 17.78L157.04 18.52C156.01 17.15 154.6 16.47 152.82 16.47C151.39 16.47 150.21 16.93 149.27 17.85C148.33 18.77 147.86 19.88 147.86 21.19C147.86 22.04 148.08 22.84 148.51 23.6C148.94 24.35 149.54 24.94 150.29 25.35C151.05 25.77 151.89 25.97 152.83 25.97C154.55 25.97 155.95 25.29 157.04 23.92L158.23 24.71C157.67 25.55 156.92 26.21 155.98 26.67C155.04 27.13 153.96 27.37 152.76 27.37C150.91 27.37 149.38 26.78 148.16 25.61C146.94 24.43 146.33 23 146.33 21.32C146.33 20.19 146.62 19.14 147.18 18.16C147.75 17.19 148.53 16.43 149.53 15.89C150.53 15.35 151.64 15.07 152.87 15.07C153.64 15.07 154.39 15.19 155.11 15.42C155.83 15.66 156.44 15.96 156.94 16.34C157.45 16.71 157.88 17.19 158.23 17.78Z" fill="#778197"/>
<path d="M166.66 15.05C168.46 15.05 169.96 15.7 171.14 17.01C172.22 18.2 172.76 19.61 172.76 21.24C172.76 22.87 172.19 24.3 171.05 25.53C169.91 26.75 168.45 27.36 166.66 27.36C164.86 27.36 163.4 26.75 162.26 25.53C161.12 24.31 160.55 22.88 160.55 21.24C160.55 19.62 161.09 18.21 162.17 17.02C163.36 15.7 164.85 15.05 166.66 15.05ZM166.66 16.52C165.41 16.52 164.33 16.98 163.43 17.91C162.53 18.83 162.08 19.95 162.08 21.27C162.08 22.12 162.29 22.9 162.7 23.64C163.11 24.37 163.66 24.94 164.36 25.33C165.06 25.73 165.82 25.93 166.66 25.93C167.49 25.93 168.26 25.73 168.96 25.33C169.66 24.93 170.21 24.37 170.62 23.64C171.03 22.91 171.24 22.12 171.24 21.27C171.24 19.96 170.79 18.84 169.89 17.91C168.98 16.98 167.9 16.52 166.66 16.52Z" fill="#778197"/>
<path d="M175.54 15.35H177.05V17.37C177.57 16.62 178.11 16.08 178.66 15.74C179.42 15.28 180.22 15.05 181.06 15.05C181.63 15.05 182.17 15.16 182.67 15.38C183.18 15.6 183.6 15.9 183.92 16.27C184.24 16.64 184.52 17.17 184.76 17.86C185.26 16.94 185.89 16.25 186.64 15.77C187.39 15.29 188.2 15.05 189.06 15.05C189.87 15.05 190.58 15.25 191.2 15.66C191.82 16.07 192.28 16.64 192.58 17.37C192.88 18.1 193.03 19.2 193.03 20.66V27.05H191.49V20.66C191.49 19.41 191.4 18.54 191.22 18.07C191.04 17.6 190.74 17.22 190.3 16.94C189.87 16.65 189.35 16.51 188.75 16.51C188.02 16.51 187.35 16.73 186.75 17.16C186.15 17.59 185.7 18.16 185.43 18.88C185.15 19.6 185.01 20.79 185.01 22.47V27.05H183.5V21.06C183.5 19.65 183.41 18.69 183.24 18.18C183.06 17.67 182.76 17.27 182.32 16.96C181.88 16.66 181.36 16.5 180.76 16.5C180.06 16.5 179.41 16.71 178.81 17.13C178.2 17.55 177.76 18.11 177.47 18.82C177.18 19.53 177.03 20.62 177.03 22.08V27.04H175.52V15.35H175.54Z" fill="#778197"/>
<path d="M196.63 11.86C195.37 11.86 194.36 12.88 194.36 14.13C194.36 15.39 195.38 16.4 196.63 16.4C197.88 16.4 198.9 15.38 198.9 14.13C198.91 12.88 197.89 11.86 196.63 11.86ZM196.63 16.09C195.55 16.09 194.68 15.22 194.68 14.14C194.68 13.06 195.55 12.19 196.63 12.19C197.71 12.19 198.58 13.06 198.58 14.14C198.58 15.21 197.71 16.09 196.63 16.09Z" fill="#778197"/>
<path d="M197.6 15.18L197.04 14.43H197.05C197.38 14.32 197.61 14.02 197.61 13.66C197.61 13.21 197.25 12.85 196.8 12.85H196.15C196.06 12.85 195.99 12.92 195.99 13.01V15.28C195.99 15.37 196.06 15.44 196.15 15.44C196.24 15.44 196.31 15.37 196.31 15.28V14.47H196.66L197.35 15.38C197.4 15.45 197.51 15.47 197.58 15.41C197.64 15.35 197.66 15.25 197.6 15.18ZM196.31 14.14V13.17H196.8C197.07 13.17 197.29 13.39 197.29 13.66C197.29 13.93 197.07 14.15 196.8 14.15H196.31V14.14Z" fill="#778197"/>
</g>
</svg>
