<svg width="72" height="72" viewBox="0 0 72 72" fill="none" xmlns="http://www.w3.org/2000/svg">
<rect width="72" height="72" rx="36" fill="#3457E5"/>
<g clip-path="url(#clip0_134_717)">
<path d="M36.1877 16H35.8198C26.5314 16 19 23.5225 19 32.8V52H25.803V32.8C25.803 27.2875 30.3008 22.795 35.8198 22.795H36.1877C41.7067 22.795 46.2045 27.2875 46.2045 32.8V52H53.0075V32.8C53 23.5225 45.4761 16 36.1877 16Z" fill="white"/>
<path d="M39.4016 52H32.5986V32.98C32.5986 31.105 34.1229 29.5825 36.0001 29.5825C37.8773 29.5825 39.4016 31.105 39.4016 32.98V52Z" fill="#12D3EB"/>
</g>
<defs>
<clipPath id="clip0_134_717">
<rect width="34" height="36" fill="white" transform="translate(19 16)"/>
</clipPath>
</defs>
</svg>
