<svg width="140" height="40" viewBox="0 0 140 40" fill="none" xmlns="http://www.w3.org/2000/svg">
<path d="M19.1239 0H18.7139C8.37721 0 0 8.34211 0 18.6354V39.9398H7.56582V18.6354C7.56582 12.5153 12.568 7.53412 18.7139 7.53412H19.1239C25.2697 7.53412 30.2719 12.5153 30.2719 18.6354V39.9398H37.8377V18.6354C37.8377 8.34211 29.4605 0 19.1239 0Z" fill="white"/>
<path d="M22.7017 39.9398H15.1359V18.8374C15.1359 16.7572 16.8321 15.0682 18.921 15.0682C21.0099 15.0682 22.7061 16.7572 22.7061 18.8374V39.9398H22.7017Z" fill="#12D3EB"/>
<path d="M58.6491 17.3331V18.8503C56.9789 17.8876 55.041 17.3331 52.9737 17.3331C46.7026 17.3331 41.6228 22.3917 41.6228 28.6364C41.6228 34.8812 46.7026 39.9398 52.9737 39.9398C55.041 39.9398 56.9789 39.3854 58.6491 38.4226V39.9398H64.3246V17.3331H58.6491V17.3331ZM52.9737 34.2881C49.8446 34.2881 47.2982 31.7524 47.2982 28.6364C47.2982 25.5205 49.8446 22.9848 52.9737 22.9848C56.1027 22.9848 58.6491 25.5205 58.6491 28.6364C58.6491 31.7524 56.1027 34.2881 52.9737 34.2881Z" fill="white"/>
<path d="M73.7851 17.3331H68.1096V39.9398H73.7851V17.3331Z" fill="white"/>
<path d="M70.9452 15.6398C72.5136 15.6398 73.7851 14.3737 73.7851 12.8119C73.7851 11.25 72.5136 9.98389 70.9452 9.98389C69.3768 9.98389 68.1053 11.25 68.1053 12.8119C68.1053 14.3737 69.3768 15.6398 70.9452 15.6398Z" fill="#12D3EB"/>
<path d="M87.0263 17.3331C81.804 17.3331 77.5658 21.5493 77.5658 26.754V39.9398H83.2412V34.2881V32.4057V26.754C83.2412 24.6781 84.9374 22.9848 87.0263 22.9848C89.1109 22.9848 90.8114 24.6738 90.8114 26.754V32.4057V34.2881V39.9398H96.4868V26.754C96.4868 21.5493 92.2529 17.3331 87.0263 17.3331Z" fill="white"/>
<path d="M122.706 31.0862C122.883 30.2954 122.974 29.4789 122.974 28.6365C122.974 27.7941 122.883 26.9775 122.706 26.1867C122.68 26.0621 122.65 25.9331 122.615 25.8085C121.355 20.9347 116.91 17.3289 111.623 17.3289C106.336 17.3289 101.89 20.9347 100.63 25.8085C100.6 25.9331 100.57 26.0578 100.539 26.1867C100.363 26.9775 100.272 27.7941 100.272 28.6365C100.272 29.4789 100.363 30.2954 100.539 31.0862C100.565 31.2109 100.596 31.3398 100.63 31.4645C101.89 36.3382 106.336 39.9441 111.623 39.9441C114.402 39.9441 116.949 38.9513 118.921 37.3009L115.27 32.9687C114.286 33.7939 113.013 34.2924 111.623 34.2924C109.525 34.2924 107.691 33.1535 106.711 31.4645C106.638 31.3441 106.573 31.2152 106.513 31.0862H116.737H122.706ZM106.513 26.1867C106.573 26.0578 106.642 25.9331 106.711 25.8085C107.695 24.1194 109.525 22.9805 111.623 22.9805C113.72 22.9805 115.55 24.1194 116.534 25.8085C116.608 25.9288 116.672 26.0578 116.733 26.1867H106.513Z" fill="white"/>
<path d="M134.325 28.6926V22.233H138.11V17.3335H134.325V10.0443H128.649V17.3335H124.864V22.233H128.649V28.6969C128.649 34.9288 133.742 40.0003 140 40.0003V34.3486C136.871 34.3486 134.325 31.8129 134.325 28.6926Z" fill="white"/>
</svg>
