<svg width="198" height="56" viewBox="0 0 198 56" fill="none" xmlns="http://www.w3.org/2000/svg">
<path d="M27.0466 0H26.4667C11.8478 0 0 11.679 0 26.0896V55.9158H10.7002V26.0896C10.7002 17.5214 17.7747 10.5478 26.4667 10.5478H27.0466C35.7386 10.5478 42.8131 17.5214 42.8131 26.0896V55.9158H53.5133V26.0896C53.5133 11.679 41.6656 0 27.0466 0Z" fill="white"/>
<path d="M32.1068 55.916H21.4066V26.3726C21.4066 23.4604 23.8055 21.0957 26.7598 21.0957C29.7141 21.0957 32.1129 23.4604 32.1129 26.3726V55.916H32.1068Z" fill="white"/>
<path d="M82.9467 24.2656V26.3896C80.5844 25.0418 77.8438 24.2656 74.92 24.2656C66.0509 24.2656 58.8666 31.3476 58.8666 40.0903C58.8666 48.8329 66.0509 55.9149 74.92 55.9149C77.8438 55.9149 80.5844 55.1387 82.9467 53.7909V55.9149H90.9734V24.2656H82.9467ZM74.92 48.0026C70.4946 48.0026 66.8933 44.4526 66.8933 40.0903C66.8933 35.728 70.4946 32.1779 74.92 32.1779C79.3453 32.1779 82.9467 35.728 82.9467 40.0903C82.9467 44.4526 79.3453 48.0026 74.92 48.0026Z" fill="white"/>
<path d="M104.353 24.2656H96.3265V55.9149H104.353V24.2656Z" fill="white"/>
<path d="M100.337 21.8949C102.555 21.8949 104.353 20.1223 104.353 17.9357C104.353 15.7491 102.555 13.9766 100.337 13.9766C98.1186 13.9766 96.3204 15.7491 96.3204 17.9357C96.3204 20.1223 98.1186 21.8949 100.337 21.8949Z" fill="white"/>
<path d="M123.08 24.2656C115.694 24.2656 109.7 30.1683 109.7 37.4548V55.9149H117.727V48.0026V45.3672V37.4548C117.727 34.5486 120.126 32.1779 123.08 32.1779C126.028 32.1779 128.433 34.5426 128.433 37.4548V45.3672V48.0026V55.9149H136.46V37.4548C136.46 30.1683 130.472 24.2656 123.08 24.2656Z" fill="white"/>
<path d="M173.542 43.5191C173.792 42.412 173.92 41.2688 173.92 40.0894C173.92 38.9101 173.792 37.7669 173.542 36.6598C173.505 36.4853 173.462 36.3048 173.413 36.1303C171.631 29.307 165.344 24.2588 157.867 24.2588C150.389 24.2588 144.102 29.307 142.32 36.1303C142.277 36.3048 142.234 36.4793 142.192 36.6598C141.941 37.7669 141.813 38.9101 141.813 40.0894C141.813 41.2688 141.941 42.412 142.192 43.5191C142.228 43.6936 142.271 43.8741 142.32 44.0486C144.102 50.8719 150.389 55.9201 157.867 55.9201C161.798 55.9201 165.399 54.5302 168.188 52.2197L163.024 46.1546C161.633 47.3098 159.832 48.0078 157.867 48.0078C154.9 48.0078 152.306 46.4133 150.92 44.0486C150.817 43.8801 150.725 43.6996 150.64 43.5191H165.1H173.542ZM150.64 36.6598C150.725 36.4793 150.823 36.3048 150.92 36.1303C152.312 33.7656 154.9 32.1711 157.867 32.1711C160.833 32.1711 163.421 33.7656 164.813 36.1303C164.917 36.2988 165.008 36.4793 165.094 36.6598H150.64Z" fill="white"/>
<path d="M189.973 40.1692V31.1257H195.326V24.2663H189.973V14.0615H181.947V24.2663H176.593V31.1257H181.947V40.1752C181.947 48.8998 189.149 55.9998 198 55.9998V48.0875C193.575 48.0875 189.973 44.5375 189.973 40.1692Z" fill="white"/>
</svg>
