<svg width="1400" height="512" viewBox="0 0 1400 512" fill="none" xmlns="http://www.w3.org/2000/svg">
<path d="M1399.5 295.5H1298.5V246.83C1298.5 219.038 1321.11 196.5 1349 196.5C1376.89 196.5 1399.5 219.038 1399.5 246.83V295.5Z" fill="#DDE4F1" stroke="#C8D4E8" stroke-miterlimit="10" stroke-linejoin="round"/>
<path d="M1349 252.8C1359.61 252.8 1368.2 244.231 1368.2 233.66C1368.2 223.089 1359.61 214.52 1349 214.52C1338.39 214.52 1329.79 223.089 1329.79 233.66C1329.79 244.231 1338.39 252.8 1349 252.8Z" fill="white" stroke="#C8D4E8" stroke-miterlimit="10" stroke-linejoin="round"/>
<path d="M1306.41 296H1391.58C1388.27 275.53 1370.47 259.89 1348.99 259.89C1327.53 259.88 1309.72 275.52 1306.41 296Z" fill="#12D3EB"/>
<path d="M1354.47 240.72C1354.47 243.73 1352.02 246.17 1349 246.17C1345.98 246.17 1343.53 243.73 1343.53 240.72" fill="white"/>
<path d="M1354.47 240.72C1354.47 243.73 1352.02 246.17 1349 246.17C1345.98 246.17 1343.53 243.73 1343.53 240.72" stroke="#C8D4E8" stroke-miterlimit="10" stroke-linejoin="round"/>
<path d="M1355.67 265.85L1352.83 262.76H1349H1345.17L1342.33 265.85L1346.32 272.71L1342.33 287.89L1349 293.12L1355.67 287.89L1351.68 272.71L1355.67 265.85Z" fill="white"/>
<path d="M700.507 425.124L545.5 335.417V155.986L700.507 66.2792L855.5 155.986V335.417L700.507 425.124Z" fill="white" stroke="#C8D4E8"/>
<path d="M545.618 334.452L700.203 66.7015L854.789 334.452H545.618Z" stroke="#C8D4E8"/>
<path d="M545.615 155.952L854.786 155.952L700.201 423.702L545.615 155.952Z" stroke="#C8D4E8"/>
<line x1="700.5" y1="80.7015" x2="700.5" y2="405.702" stroke="#C8D4E8"/>
<line x1="559.52" y1="161.519" x2="840.978" y2="324.019" stroke="#C8D4E8"/>
<line x1="559.02" y1="324.019" x2="840.478" y2="161.519" stroke="#C8D4E8"/>
<circle cx="700" cy="245" r="67.5" fill="white" stroke="#3457E5"/>
<circle cx="700" cy="245" r="60" fill="#3457E5"/>
<circle cx="699.516" cy="66" r="47.5" fill="white" stroke="#3457E5"/>
<circle cx="699.516" cy="424" r="47.5" fill="white" stroke="#3457E5"/>
<circle cx="854.464" cy="334.624" r="47.5" transform="rotate(120 854.464 334.624)" fill="white" stroke="#3457E5"/>
<circle cx="544.569" cy="155.376" r="47.5" transform="rotate(120 544.569 155.376)" fill="white" stroke="#3457E5"/>
<circle cx="854.423" cy="155.305" r="47.5" transform="rotate(60 854.423 155.305)" fill="white" stroke="#3457E5"/>
<circle cx="544.61" cy="334.695" r="47.5" transform="rotate(60 544.61 334.695)" fill="white" stroke="#3457E5"/>
<path d="M154 246L164 251.774L164 240.226L154 246ZM492 246L482 240.226L482 251.773L492 246ZM163 247L483 247L483 245L163 245L163 247Z" fill="#3457E5"/>
<path d="M908 245.5L918 251.274V239.726L908 245.5ZM1246 245.5L1236 239.726V251.274L1246 245.5ZM917 246.5H1237V244.5H917V246.5Z" fill="#3457E5"/>
<path d="M130.239 235.768V237H124.559V235.768H126.831V227.448H126.767L124.527 229.56V227.912L126.767 225.8H128.127V235.768H130.239ZM139.746 237.16C138.402 237.16 137.394 236.701 136.722 235.784C136.061 234.856 135.73 233.656 135.73 232.184V230.52C135.73 229.048 136.061 227.859 136.722 226.952C137.394 226.035 138.402 225.576 139.746 225.576C141.09 225.576 142.093 226.035 142.754 226.952C143.415 227.859 143.746 229.048 143.746 230.52V232.184C143.746 233.656 143.41 234.856 142.738 235.784C142.077 236.701 141.079 237.16 139.746 237.16ZM139.746 235.944C140.557 235.944 141.175 235.624 141.602 234.984C142.039 234.344 142.258 233.395 142.258 232.136V230.584C142.258 229.325 142.045 228.381 141.618 227.752C141.191 227.112 140.567 226.792 139.746 226.792C138.925 226.792 138.295 227.112 137.858 227.752C137.431 228.381 137.218 229.325 137.218 230.584V232.136C137.218 233.395 137.431 234.344 137.858 234.984C138.295 235.624 138.925 235.944 139.746 235.944ZM155.818 235.768V237H150.138V235.768H152.41V227.448H152.346L150.106 229.56V227.912L152.346 225.8H153.706V235.768H155.818ZM167.708 235.768V237H162.028V235.768H164.3V227.448H164.236L161.996 229.56V227.912L164.236 225.8H165.596V235.768H167.708ZM179.599 235.768V237H173.919V235.768H176.191V227.448H176.127L173.887 229.56V227.912L176.127 225.8H177.487V235.768H179.599ZM189.105 237.16C187.761 237.16 186.753 236.701 186.081 235.784C185.42 234.856 185.089 233.656 185.089 232.184V230.52C185.089 229.048 185.42 227.859 186.081 226.952C186.753 226.035 187.761 225.576 189.105 225.576C190.449 225.576 191.452 226.035 192.113 226.952C192.775 227.859 193.105 229.048 193.105 230.52V232.184C193.105 233.656 192.769 234.856 192.097 235.784C191.436 236.701 190.439 237.16 189.105 237.16ZM189.105 235.944C189.916 235.944 190.535 235.624 190.961 234.984C191.399 234.344 191.617 233.395 191.617 232.136V230.584C191.617 229.325 191.404 228.381 190.977 227.752C190.551 227.112 189.927 226.792 189.105 226.792C188.284 226.792 187.655 227.112 187.217 227.752C186.791 228.381 186.577 229.325 186.577 230.584V232.136C186.577 233.395 186.791 234.344 187.217 234.984C187.655 235.624 188.284 235.944 189.105 235.944ZM202.84 237.16C201.496 237.16 200.488 236.701 199.816 235.784C199.154 234.856 198.824 233.656 198.824 232.184V230.52C198.824 229.048 199.154 227.859 199.816 226.952C200.488 226.035 201.496 225.576 202.84 225.576C204.184 225.576 205.186 226.035 205.848 226.952C206.509 227.859 206.84 229.048 206.84 230.52V232.184C206.84 233.656 206.504 234.856 205.832 235.784C205.17 236.701 204.173 237.16 202.84 237.16ZM202.84 235.944C203.65 235.944 204.269 235.624 204.696 234.984C205.133 234.344 205.352 233.395 205.352 232.136V230.584C205.352 229.325 205.138 228.381 204.712 227.752C204.285 227.112 203.661 226.792 202.84 226.792C202.018 226.792 201.389 227.112 200.952 227.752C200.525 228.381 200.312 229.325 200.312 230.584V232.136C200.312 233.395 200.525 234.344 200.952 234.984C201.389 235.624 202.018 235.944 202.84 235.944ZM218.911 235.768V237H213.231V235.768H215.503V227.448H215.439L213.199 229.56V227.912L215.439 225.8H216.799V235.768H218.911ZM228.418 237.16C227.074 237.16 226.066 236.701 225.394 235.784C224.733 234.856 224.402 233.656 224.402 232.184V230.52C224.402 229.048 224.733 227.859 225.394 226.952C226.066 226.035 227.074 225.576 228.418 225.576C229.762 225.576 230.765 226.035 231.426 226.952C232.087 227.859 232.418 229.048 232.418 230.52V232.184C232.418 233.656 232.082 234.856 231.41 235.784C230.749 236.701 229.751 237.16 228.418 237.16ZM228.418 235.944C229.229 235.944 229.847 235.624 230.274 234.984C230.711 234.344 230.93 233.395 230.93 232.136V230.584C230.93 229.325 230.717 228.381 230.29 227.752C229.863 227.112 229.239 226.792 228.418 226.792C227.597 226.792 226.967 227.112 226.53 227.752C226.103 228.381 225.89 229.325 225.89 230.584V232.136C225.89 233.395 226.103 234.344 226.53 234.984C226.967 235.624 227.597 235.944 228.418 235.944ZM244.489 235.768V237H238.809V235.768H241.081V227.448H241.017L238.777 229.56V227.912L241.017 225.8H242.377V235.768H244.489ZM256.38 235.768V237H250.7V235.768H252.972V227.448H252.908L250.668 229.56V227.912L252.908 225.8H254.268V235.768H256.38ZM268.271 235.768V237H262.591V235.768H264.863V227.448H264.799L262.559 229.56V227.912L264.799 225.8H266.159V235.768H268.271ZM280.161 235.768V237H274.481V235.768H276.753V227.448H276.689L274.449 229.56V227.912L276.689 225.8H278.049V235.768H280.161ZM289.668 237.16C288.324 237.16 287.316 236.701 286.644 235.784C285.983 234.856 285.652 233.656 285.652 232.184V230.52C285.652 229.048 285.983 227.859 286.644 226.952C287.316 226.035 288.324 225.576 289.668 225.576C291.012 225.576 292.015 226.035 292.676 226.952C293.337 227.859 293.668 229.048 293.668 230.52V232.184C293.668 233.656 293.332 234.856 292.66 235.784C291.999 236.701 291.001 237.16 289.668 237.16ZM289.668 235.944C290.479 235.944 291.097 235.624 291.524 234.984C291.961 234.344 292.18 233.395 292.18 232.136V230.584C292.18 229.325 291.967 228.381 291.54 227.752C291.113 227.112 290.489 226.792 289.668 226.792C288.847 226.792 288.217 227.112 287.78 227.752C287.353 228.381 287.14 229.325 287.14 230.584V232.136C287.14 233.395 287.353 234.344 287.78 234.984C288.217 235.624 288.847 235.944 289.668 235.944ZM303.402 237.16C302.058 237.16 301.05 236.701 300.378 235.784C299.717 234.856 299.386 233.656 299.386 232.184V230.52C299.386 229.048 299.717 227.859 300.378 226.952C301.05 226.035 302.058 225.576 303.402 225.576C304.746 225.576 305.749 226.035 306.41 226.952C307.072 227.859 307.402 229.048 307.402 230.52V232.184C307.402 233.656 307.066 234.856 306.394 235.784C305.733 236.701 304.736 237.16 303.402 237.16ZM303.402 235.944C304.213 235.944 304.832 235.624 305.258 234.984C305.696 234.344 305.914 233.395 305.914 232.136V230.584C305.914 229.325 305.701 228.381 305.274 227.752C304.848 227.112 304.224 226.792 303.402 226.792C302.581 226.792 301.952 227.112 301.514 227.752C301.088 228.381 300.874 229.325 300.874 230.584V232.136C300.874 233.395 301.088 234.344 301.514 234.984C301.952 235.624 302.581 235.944 303.402 235.944ZM319.474 235.768V237H313.794V235.768H316.066V227.448H316.002L313.762 229.56V227.912L316.002 225.8H317.362V235.768H319.474ZM331.364 235.768V237H325.684V235.768H327.956V227.448H327.892L325.652 229.56V227.912L327.892 225.8H329.252V235.768H331.364ZM343.255 235.768V237H337.575V235.768H339.847V227.448H339.783L337.543 229.56V227.912L339.783 225.8H341.143V235.768H343.255ZM352.762 237.16C351.418 237.16 350.41 236.701 349.738 235.784C349.076 234.856 348.746 233.656 348.746 232.184V230.52C348.746 229.048 349.076 227.859 349.738 226.952C350.41 226.035 351.418 225.576 352.762 225.576C354.106 225.576 355.108 226.035 355.77 226.952C356.431 227.859 356.762 229.048 356.762 230.52V232.184C356.762 233.656 356.426 234.856 355.754 235.784C355.092 236.701 354.095 237.16 352.762 237.16ZM352.762 235.944C353.572 235.944 354.191 235.624 354.618 234.984C355.055 234.344 355.274 233.395 355.274 232.136V230.584C355.274 229.325 355.06 228.381 354.634 227.752C354.207 227.112 353.583 226.792 352.762 226.792C351.94 226.792 351.311 227.112 350.874 227.752C350.447 228.381 350.234 229.325 350.234 230.584V232.136C350.234 233.395 350.447 234.344 350.874 234.984C351.311 235.624 351.94 235.944 352.762 235.944ZM368.833 235.768V237H363.153V235.768H365.425V227.448H365.361L363.121 229.56V227.912L365.361 225.8H366.721V235.768H368.833ZM378.34 237.16C376.996 237.16 375.988 236.701 375.316 235.784C374.654 234.856 374.324 233.656 374.324 232.184V230.52C374.324 229.048 374.654 227.859 375.316 226.952C375.988 226.035 376.996 225.576 378.34 225.576C379.684 225.576 380.686 226.035 381.348 226.952C382.009 227.859 382.34 229.048 382.34 230.52V232.184C382.34 233.656 382.004 234.856 381.332 235.784C380.67 236.701 379.673 237.16 378.34 237.16ZM378.34 235.944C379.15 235.944 379.769 235.624 380.196 234.984C380.633 234.344 380.852 233.395 380.852 232.136V230.584C380.852 229.325 380.638 228.381 380.212 227.752C379.785 227.112 379.161 226.792 378.34 226.792C377.518 226.792 376.889 227.112 376.452 227.752C376.025 228.381 375.812 229.325 375.812 230.584V232.136C375.812 233.395 376.025 234.344 376.452 234.984C376.889 235.624 377.518 235.944 378.34 235.944ZM394.411 235.768V237H388.731V235.768H391.003V227.448H390.939L388.699 229.56V227.912L390.939 225.8H392.299V235.768H394.411ZM403.918 237.16C402.574 237.16 401.566 236.701 400.894 235.784C400.233 234.856 399.902 233.656 399.902 232.184V230.52C399.902 229.048 400.233 227.859 400.894 226.952C401.566 226.035 402.574 225.576 403.918 225.576C405.262 225.576 406.265 226.035 406.926 226.952C407.587 227.859 407.918 229.048 407.918 230.52V232.184C407.918 233.656 407.582 234.856 406.91 235.784C406.249 236.701 405.251 237.16 403.918 237.16ZM403.918 235.944C404.729 235.944 405.347 235.624 405.774 234.984C406.211 234.344 406.43 233.395 406.43 232.136V230.584C406.43 229.325 406.217 228.381 405.79 227.752C405.363 227.112 404.739 226.792 403.918 226.792C403.097 226.792 402.467 227.112 402.03 227.752C401.603 228.381 401.39 229.325 401.39 230.584V232.136C401.39 233.395 401.603 234.344 402.03 234.984C402.467 235.624 403.097 235.944 403.918 235.944ZM419.989 235.768V237H414.309V235.768H416.581V227.448H416.517L414.277 229.56V227.912L416.517 225.8H417.877V235.768H419.989ZM429.496 237.16C428.152 237.16 427.144 236.701 426.472 235.784C425.811 234.856 425.48 233.656 425.48 232.184V230.52C425.48 229.048 425.811 227.859 426.472 226.952C427.144 226.035 428.152 225.576 429.496 225.576C430.84 225.576 431.843 226.035 432.504 226.952C433.165 227.859 433.496 229.048 433.496 230.52V232.184C433.496 233.656 433.16 234.856 432.488 235.784C431.827 236.701 430.829 237.16 429.496 237.16ZM429.496 235.944C430.307 235.944 430.925 235.624 431.352 234.984C431.789 234.344 432.008 233.395 432.008 232.136V230.584C432.008 229.325 431.795 228.381 431.368 227.752C430.941 227.112 430.317 226.792 429.496 226.792C428.675 226.792 428.045 227.112 427.608 227.752C427.181 228.381 426.968 229.325 426.968 230.584V232.136C426.968 233.395 427.181 234.344 427.608 234.984C428.045 235.624 428.675 235.944 429.496 235.944ZM445.568 235.768V237H439.888V235.768H442.16V227.448H442.096L439.856 229.56V227.912L442.096 225.8H443.456V235.768H445.568ZM455.074 237.16C453.73 237.16 452.722 236.701 452.05 235.784C451.389 234.856 451.058 233.656 451.058 232.184V230.52C451.058 229.048 451.389 227.859 452.05 226.952C452.722 226.035 453.73 225.576 455.074 225.576C456.418 225.576 457.421 226.035 458.082 226.952C458.744 227.859 459.074 229.048 459.074 230.52V232.184C459.074 233.656 458.738 234.856 458.066 235.784C457.405 236.701 456.408 237.16 455.074 237.16ZM455.074 235.944C455.885 235.944 456.504 235.624 456.93 234.984C457.368 234.344 457.586 233.395 457.586 232.136V230.584C457.586 229.325 457.373 228.381 456.946 227.752C456.52 227.112 455.896 226.792 455.074 226.792C454.253 226.792 453.624 227.112 453.186 227.752C452.76 228.381 452.546 229.325 452.546 230.584V232.136C452.546 233.395 452.76 234.344 453.186 234.984C453.624 235.624 454.253 235.944 455.074 235.944ZM471.146 235.768V237H465.466V235.768H467.738V227.448H467.674L465.434 229.56V227.912L467.674 225.8H469.034V235.768H471.146ZM480.652 237.16C479.308 237.16 478.3 236.701 477.628 235.784C476.967 234.856 476.636 233.656 476.636 232.184V230.52C476.636 229.048 476.967 227.859 477.628 226.952C478.3 226.035 479.308 225.576 480.652 225.576C481.996 225.576 482.999 226.035 483.66 226.952C484.322 227.859 484.652 229.048 484.652 230.52V232.184C484.652 233.656 484.316 234.856 483.644 235.784C482.983 236.701 481.986 237.16 480.652 237.16ZM480.652 235.944C481.463 235.944 482.082 235.624 482.508 234.984C482.946 234.344 483.164 233.395 483.164 232.136V230.584C483.164 229.325 482.951 228.381 482.524 227.752C482.098 227.112 481.474 226.792 480.652 226.792C479.831 226.792 479.202 227.112 478.764 227.752C478.338 228.381 478.124 229.325 478.124 230.584V232.136C478.124 233.395 478.338 234.344 478.764 234.984C479.202 235.624 479.831 235.944 480.652 235.944ZM496.724 235.768V237H491.044V235.768H493.316V227.448H493.252L491.012 229.56V227.912L493.252 225.8H494.612V235.768H496.724ZM508.614 235.768V237H502.934V235.768H505.206V227.448H505.142L502.902 229.56V227.912L505.142 225.8H506.502V235.768H508.614ZM518.121 237.16C516.777 237.16 515.769 236.701 515.097 235.784C514.436 234.856 514.105 233.656 514.105 232.184V230.52C514.105 229.048 514.436 227.859 515.097 226.952C515.769 226.035 516.777 225.576 518.121 225.576C519.465 225.576 520.468 226.035 521.129 226.952C521.79 227.859 522.121 229.048 522.121 230.52V232.184C522.121 233.656 521.785 234.856 521.113 235.784C520.452 236.701 519.454 237.16 518.121 237.16ZM518.121 235.944C518.932 235.944 519.55 235.624 519.977 234.984C520.414 234.344 520.633 233.395 520.633 232.136V230.584C520.633 229.325 520.42 228.381 519.993 227.752C519.566 227.112 518.942 226.792 518.121 226.792C517.3 226.792 516.67 227.112 516.233 227.752C515.806 228.381 515.593 229.325 515.593 230.584V232.136C515.593 233.395 515.806 234.344 516.233 234.984C516.67 235.624 517.3 235.944 518.121 235.944Z" fill="#3457E5"/>
<path d="M884.239 235.768V237H878.559V235.768H880.831V227.448H880.767L878.527 229.56V227.912L880.767 225.8H882.127V235.768H884.239ZM893.746 237.16C892.402 237.16 891.394 236.701 890.722 235.784C890.061 234.856 889.73 233.656 889.73 232.184V230.52C889.73 229.048 890.061 227.859 890.722 226.952C891.394 226.035 892.402 225.576 893.746 225.576C895.09 225.576 896.093 226.035 896.754 226.952C897.415 227.859 897.746 229.048 897.746 230.52V232.184C897.746 233.656 897.41 234.856 896.738 235.784C896.077 236.701 895.079 237.16 893.746 237.16ZM893.746 235.944C894.557 235.944 895.175 235.624 895.602 234.984C896.039 234.344 896.258 233.395 896.258 232.136V230.584C896.258 229.325 896.045 228.381 895.618 227.752C895.191 227.112 894.567 226.792 893.746 226.792C892.925 226.792 892.295 227.112 891.858 227.752C891.431 228.381 891.218 229.325 891.218 230.584V232.136C891.218 233.395 891.431 234.344 891.858 234.984C892.295 235.624 892.925 235.944 893.746 235.944ZM909.818 235.768V237H904.138V235.768H906.41V227.448H906.346L904.106 229.56V227.912L906.346 225.8H907.706V235.768H909.818ZM921.708 235.768V237H916.028V235.768H918.3V227.448H918.236L915.996 229.56V227.912L918.236 225.8H919.596V235.768H921.708ZM933.599 235.768V237H927.919V235.768H930.191V227.448H930.127L927.887 229.56V227.912L930.127 225.8H931.487V235.768H933.599ZM943.105 237.16C941.761 237.16 940.753 236.701 940.081 235.784C939.42 234.856 939.089 233.656 939.089 232.184V230.52C939.089 229.048 939.42 227.859 940.081 226.952C940.753 226.035 941.761 225.576 943.105 225.576C944.449 225.576 945.452 226.035 946.113 226.952C946.775 227.859 947.105 229.048 947.105 230.52V232.184C947.105 233.656 946.769 234.856 946.097 235.784C945.436 236.701 944.439 237.16 943.105 237.16ZM943.105 235.944C943.916 235.944 944.535 235.624 944.961 234.984C945.399 234.344 945.617 233.395 945.617 232.136V230.584C945.617 229.325 945.404 228.381 944.977 227.752C944.551 227.112 943.927 226.792 943.105 226.792C942.284 226.792 941.655 227.112 941.217 227.752C940.791 228.381 940.577 229.325 940.577 230.584V232.136C940.577 233.395 940.791 234.344 941.217 234.984C941.655 235.624 942.284 235.944 943.105 235.944ZM956.84 237.16C955.496 237.16 954.488 236.701 953.816 235.784C953.154 234.856 952.824 233.656 952.824 232.184V230.52C952.824 229.048 953.154 227.859 953.816 226.952C954.488 226.035 955.496 225.576 956.84 225.576C958.184 225.576 959.186 226.035 959.848 226.952C960.509 227.859 960.84 229.048 960.84 230.52V232.184C960.84 233.656 960.504 234.856 959.832 235.784C959.17 236.701 958.173 237.16 956.84 237.16ZM956.84 235.944C957.65 235.944 958.269 235.624 958.696 234.984C959.133 234.344 959.352 233.395 959.352 232.136V230.584C959.352 229.325 959.138 228.381 958.712 227.752C958.285 227.112 957.661 226.792 956.84 226.792C956.018 226.792 955.389 227.112 954.952 227.752C954.525 228.381 954.312 229.325 954.312 230.584V232.136C954.312 233.395 954.525 234.344 954.952 234.984C955.389 235.624 956.018 235.944 956.84 235.944ZM972.911 235.768V237H967.231V235.768H969.503V227.448H969.439L967.199 229.56V227.912L969.439 225.8H970.799V235.768H972.911ZM982.418 237.16C981.074 237.16 980.066 236.701 979.394 235.784C978.733 234.856 978.402 233.656 978.402 232.184V230.52C978.402 229.048 978.733 227.859 979.394 226.952C980.066 226.035 981.074 225.576 982.418 225.576C983.762 225.576 984.765 226.035 985.426 226.952C986.087 227.859 986.418 229.048 986.418 230.52V232.184C986.418 233.656 986.082 234.856 985.41 235.784C984.749 236.701 983.751 237.16 982.418 237.16ZM982.418 235.944C983.229 235.944 983.847 235.624 984.274 234.984C984.711 234.344 984.93 233.395 984.93 232.136V230.584C984.93 229.325 984.717 228.381 984.29 227.752C983.863 227.112 983.239 226.792 982.418 226.792C981.597 226.792 980.967 227.112 980.53 227.752C980.103 228.381 979.89 229.325 979.89 230.584V232.136C979.89 233.395 980.103 234.344 980.53 234.984C980.967 235.624 981.597 235.944 982.418 235.944ZM998.489 235.768V237H992.809V235.768H995.081V227.448H995.017L992.777 229.56V227.912L995.017 225.8H996.377V235.768H998.489ZM1010.38 235.768V237H1004.7V235.768H1006.97V227.448H1006.91L1004.67 229.56V227.912L1006.91 225.8H1008.27V235.768H1010.38ZM1022.27 235.768V237H1016.59V235.768H1018.86V227.448H1018.8L1016.56 229.56V227.912L1018.8 225.8H1020.16V235.768H1022.27ZM1034.16 235.768V237H1028.48V235.768H1030.75V227.448H1030.69L1028.45 229.56V227.912L1030.69 225.8H1032.05V235.768H1034.16ZM1043.67 237.16C1042.32 237.16 1041.32 236.701 1040.64 235.784C1039.98 234.856 1039.65 233.656 1039.65 232.184V230.52C1039.65 229.048 1039.98 227.859 1040.64 226.952C1041.32 226.035 1042.32 225.576 1043.67 225.576C1045.01 225.576 1046.01 226.035 1046.68 226.952C1047.34 227.859 1047.67 229.048 1047.67 230.52V232.184C1047.67 233.656 1047.33 234.856 1046.66 235.784C1046 236.701 1045 237.16 1043.67 237.16ZM1043.67 235.944C1044.48 235.944 1045.1 235.624 1045.52 234.984C1045.96 234.344 1046.18 233.395 1046.18 232.136V230.584C1046.18 229.325 1045.97 228.381 1045.54 227.752C1045.11 227.112 1044.49 226.792 1043.67 226.792C1042.85 226.792 1042.22 227.112 1041.78 227.752C1041.35 228.381 1041.14 229.325 1041.14 230.584V232.136C1041.14 233.395 1041.35 234.344 1041.78 234.984C1042.22 235.624 1042.85 235.944 1043.67 235.944ZM1057.4 237.16C1056.06 237.16 1055.05 236.701 1054.38 235.784C1053.72 234.856 1053.39 233.656 1053.39 232.184V230.52C1053.39 229.048 1053.72 227.859 1054.38 226.952C1055.05 226.035 1056.06 225.576 1057.4 225.576C1058.75 225.576 1059.75 226.035 1060.41 226.952C1061.07 227.859 1061.4 229.048 1061.4 230.52V232.184C1061.4 233.656 1061.07 234.856 1060.39 235.784C1059.73 236.701 1058.74 237.16 1057.4 237.16ZM1057.4 235.944C1058.21 235.944 1058.83 235.624 1059.26 234.984C1059.7 234.344 1059.91 233.395 1059.91 232.136V230.584C1059.91 229.325 1059.7 228.381 1059.27 227.752C1058.85 227.112 1058.22 226.792 1057.4 226.792C1056.58 226.792 1055.95 227.112 1055.51 227.752C1055.09 228.381 1054.87 229.325 1054.87 230.584V232.136C1054.87 233.395 1055.09 234.344 1055.51 234.984C1055.95 235.624 1056.58 235.944 1057.4 235.944ZM1073.47 235.768V237H1067.79V235.768H1070.07V227.448H1070L1067.76 229.56V227.912L1070 225.8H1071.36V235.768H1073.47ZM1085.36 235.768V237H1079.68V235.768H1081.96V227.448H1081.89L1079.65 229.56V227.912L1081.89 225.8H1083.25V235.768H1085.36ZM1097.26 235.768V237H1091.58V235.768H1093.85V227.448H1093.78L1091.54 229.56V227.912L1093.78 225.8H1095.14V235.768H1097.26ZM1106.76 237.16C1105.42 237.16 1104.41 236.701 1103.74 235.784C1103.08 234.856 1102.75 233.656 1102.75 232.184V230.52C1102.75 229.048 1103.08 227.859 1103.74 226.952C1104.41 226.035 1105.42 225.576 1106.76 225.576C1108.11 225.576 1109.11 226.035 1109.77 226.952C1110.43 227.859 1110.76 229.048 1110.76 230.52V232.184C1110.76 233.656 1110.43 234.856 1109.75 235.784C1109.09 236.701 1108.1 237.16 1106.76 237.16ZM1106.76 235.944C1107.57 235.944 1108.19 235.624 1108.62 234.984C1109.06 234.344 1109.27 233.395 1109.27 232.136V230.584C1109.27 229.325 1109.06 228.381 1108.63 227.752C1108.21 227.112 1107.58 226.792 1106.76 226.792C1105.94 226.792 1105.31 227.112 1104.87 227.752C1104.45 228.381 1104.23 229.325 1104.23 230.584V232.136C1104.23 233.395 1104.45 234.344 1104.87 234.984C1105.31 235.624 1105.94 235.944 1106.76 235.944ZM1122.83 235.768V237H1117.15V235.768H1119.43V227.448H1119.36L1117.12 229.56V227.912L1119.36 225.8H1120.72V235.768H1122.83ZM1132.34 237.16C1131 237.16 1129.99 236.701 1129.32 235.784C1128.65 234.856 1128.32 233.656 1128.32 232.184V230.52C1128.32 229.048 1128.65 227.859 1129.32 226.952C1129.99 226.035 1131 225.576 1132.34 225.576C1133.68 225.576 1134.69 226.035 1135.35 226.952C1136.01 227.859 1136.34 229.048 1136.34 230.52V232.184C1136.34 233.656 1136 234.856 1135.33 235.784C1134.67 236.701 1133.67 237.16 1132.34 237.16ZM1132.34 235.944C1133.15 235.944 1133.77 235.624 1134.2 234.984C1134.63 234.344 1134.85 233.395 1134.85 232.136V230.584C1134.85 229.325 1134.64 228.381 1134.21 227.752C1133.79 227.112 1133.16 226.792 1132.34 226.792C1131.52 226.792 1130.89 227.112 1130.45 227.752C1130.03 228.381 1129.81 229.325 1129.81 230.584V232.136C1129.81 233.395 1130.03 234.344 1130.45 234.984C1130.89 235.624 1131.52 235.944 1132.34 235.944ZM1148.41 235.768V237H1142.73V235.768H1145V227.448H1144.94L1142.7 229.56V227.912L1144.94 225.8H1146.3V235.768H1148.41ZM1157.92 237.16C1156.57 237.16 1155.57 236.701 1154.89 235.784C1154.23 234.856 1153.9 233.656 1153.9 232.184V230.52C1153.9 229.048 1154.23 227.859 1154.89 226.952C1155.57 226.035 1156.57 225.576 1157.92 225.576C1159.26 225.576 1160.26 226.035 1160.93 226.952C1161.59 227.859 1161.92 229.048 1161.92 230.52V232.184C1161.92 233.656 1161.58 234.856 1160.91 235.784C1160.25 236.701 1159.25 237.16 1157.92 237.16ZM1157.92 235.944C1158.73 235.944 1159.35 235.624 1159.77 234.984C1160.21 234.344 1160.43 233.395 1160.43 232.136V230.584C1160.43 229.325 1160.22 228.381 1159.79 227.752C1159.36 227.112 1158.74 226.792 1157.92 226.792C1157.1 226.792 1156.47 227.112 1156.03 227.752C1155.6 228.381 1155.39 229.325 1155.39 230.584V232.136C1155.39 233.395 1155.6 234.344 1156.03 234.984C1156.47 235.624 1157.1 235.944 1157.92 235.944ZM1173.99 235.768V237H1168.31V235.768H1170.58V227.448H1170.52L1168.28 229.56V227.912L1170.52 225.8H1171.88V235.768H1173.99ZM1183.5 237.16C1182.15 237.16 1181.14 236.701 1180.47 235.784C1179.81 234.856 1179.48 233.656 1179.48 232.184V230.52C1179.48 229.048 1179.81 227.859 1180.47 226.952C1181.14 226.035 1182.15 225.576 1183.5 225.576C1184.84 225.576 1185.84 226.035 1186.5 226.952C1187.17 227.859 1187.5 229.048 1187.5 230.52V232.184C1187.5 233.656 1187.16 234.856 1186.49 235.784C1185.83 236.701 1184.83 237.16 1183.5 237.16ZM1183.5 235.944C1184.31 235.944 1184.93 235.624 1185.35 234.984C1185.79 234.344 1186.01 233.395 1186.01 232.136V230.584C1186.01 229.325 1185.79 228.381 1185.37 227.752C1184.94 227.112 1184.32 226.792 1183.5 226.792C1182.67 226.792 1182.05 227.112 1181.61 227.752C1181.18 228.381 1180.97 229.325 1180.97 230.584V232.136C1180.97 233.395 1181.18 234.344 1181.61 234.984C1182.05 235.624 1182.67 235.944 1183.5 235.944ZM1199.57 235.768V237H1193.89V235.768H1196.16V227.448H1196.1L1193.86 229.56V227.912L1196.1 225.8H1197.46V235.768H1199.57ZM1209.07 237.16C1207.73 237.16 1206.72 236.701 1206.05 235.784C1205.39 234.856 1205.06 233.656 1205.06 232.184V230.52C1205.06 229.048 1205.39 227.859 1206.05 226.952C1206.72 226.035 1207.73 225.576 1209.07 225.576C1210.42 225.576 1211.42 226.035 1212.08 226.952C1212.74 227.859 1213.07 229.048 1213.07 230.52V232.184C1213.07 233.656 1212.74 234.856 1212.07 235.784C1211.4 236.701 1210.41 237.16 1209.07 237.16ZM1209.07 235.944C1209.88 235.944 1210.5 235.624 1210.93 234.984C1211.37 234.344 1211.59 233.395 1211.59 232.136V230.584C1211.59 229.325 1211.37 228.381 1210.95 227.752C1210.52 227.112 1209.9 226.792 1209.07 226.792C1208.25 226.792 1207.62 227.112 1207.19 227.752C1206.76 228.381 1206.55 229.325 1206.55 230.584V232.136C1206.55 233.395 1206.76 234.344 1207.19 234.984C1207.62 235.624 1208.25 235.944 1209.07 235.944ZM1225.15 235.768V237H1219.47V235.768H1221.74V227.448H1221.67L1219.43 229.56V227.912L1221.67 225.8H1223.03V235.768H1225.15ZM1234.65 237.16C1233.31 237.16 1232.3 236.701 1231.63 235.784C1230.97 234.856 1230.64 233.656 1230.64 232.184V230.52C1230.64 229.048 1230.97 227.859 1231.63 226.952C1232.3 226.035 1233.31 225.576 1234.65 225.576C1236 225.576 1237 226.035 1237.66 226.952C1238.32 227.859 1238.65 229.048 1238.65 230.52V232.184C1238.65 233.656 1238.32 234.856 1237.64 235.784C1236.98 236.701 1235.99 237.16 1234.65 237.16ZM1234.65 235.944C1235.46 235.944 1236.08 235.624 1236.51 234.984C1236.95 234.344 1237.16 233.395 1237.16 232.136V230.584C1237.16 229.325 1236.95 228.381 1236.52 227.752C1236.1 227.112 1235.47 226.792 1234.65 226.792C1233.83 226.792 1233.2 227.112 1232.76 227.752C1232.34 228.381 1232.12 229.325 1232.12 230.584V232.136C1232.12 233.395 1232.34 234.344 1232.76 234.984C1233.2 235.624 1233.83 235.944 1234.65 235.944ZM1250.72 235.768V237H1245.04V235.768H1247.32V227.448H1247.25L1245.01 229.56V227.912L1247.25 225.8H1248.61V235.768H1250.72ZM1262.61 235.768V237H1256.93V235.768H1259.21V227.448H1259.14L1256.9 229.56V227.912L1259.14 225.8H1260.5V235.768H1262.61ZM1272.12 237.16C1270.78 237.16 1269.77 236.701 1269.1 235.784C1268.44 234.856 1268.11 233.656 1268.11 232.184V230.52C1268.11 229.048 1268.44 227.859 1269.1 226.952C1269.77 226.035 1270.78 225.576 1272.12 225.576C1273.47 225.576 1274.47 226.035 1275.13 226.952C1275.79 227.859 1276.12 229.048 1276.12 230.52V232.184C1276.12 233.656 1275.79 234.856 1275.11 235.784C1274.45 236.701 1273.45 237.16 1272.12 237.16ZM1272.12 235.944C1272.93 235.944 1273.55 235.624 1273.98 234.984C1274.41 234.344 1274.63 233.395 1274.63 232.136V230.584C1274.63 229.325 1274.42 228.381 1273.99 227.752C1273.57 227.112 1272.94 226.792 1272.12 226.792C1271.3 226.792 1270.67 227.112 1270.23 227.752C1269.81 228.381 1269.59 229.325 1269.59 230.584V232.136C1269.59 233.395 1269.81 234.344 1270.23 234.984C1270.67 235.624 1271.3 235.944 1272.12 235.944Z" fill="#3457E5"/>
<path d="M126.91 269.16C125.566 269.16 124.558 268.701 123.886 267.784C123.225 266.856 122.894 265.656 122.894 264.184V262.52C122.894 261.048 123.225 259.859 123.886 258.952C124.558 258.035 125.566 257.576 126.91 257.576C128.254 257.576 129.257 258.035 129.918 258.952C130.579 259.859 130.91 261.048 130.91 262.52V264.184C130.91 265.656 130.574 266.856 129.902 267.784C129.241 268.701 128.243 269.16 126.91 269.16ZM126.91 267.944C127.721 267.944 128.339 267.624 128.766 266.984C129.203 266.344 129.422 265.395 129.422 264.136V262.584C129.422 261.325 129.209 260.381 128.782 259.752C128.355 259.112 127.731 258.792 126.91 258.792C126.089 258.792 125.459 259.112 125.022 259.752C124.595 260.381 124.382 261.325 124.382 262.584V264.136C124.382 265.395 124.595 266.344 125.022 266.984C125.459 267.624 126.089 267.944 126.91 267.944ZM142.982 267.768V269H137.302V267.768H139.574V259.448H139.51L137.27 261.56V259.912L139.51 257.8H140.87V267.768H142.982ZM152.488 269.16C151.144 269.16 150.136 268.701 149.464 267.784C148.803 266.856 148.472 265.656 148.472 264.184V262.52C148.472 261.048 148.803 259.859 149.464 258.952C150.136 258.035 151.144 257.576 152.488 257.576C153.832 257.576 154.835 258.035 155.496 258.952C156.158 259.859 156.488 261.048 156.488 262.52V264.184C156.488 265.656 156.152 266.856 155.48 267.784C154.819 268.701 153.822 269.16 152.488 269.16ZM152.488 267.944C153.299 267.944 153.918 267.624 154.344 266.984C154.782 266.344 155 265.395 155 264.136V262.584C155 261.325 154.787 260.381 154.36 259.752C153.934 259.112 153.31 258.792 152.488 258.792C151.667 258.792 151.038 259.112 150.6 259.752C150.174 260.381 149.96 261.325 149.96 262.584V264.136C149.96 265.395 150.174 266.344 150.6 266.984C151.038 267.624 151.667 267.944 152.488 267.944ZM166.223 269.16C164.879 269.16 163.871 268.701 163.199 267.784C162.537 266.856 162.207 265.656 162.207 264.184V262.52C162.207 261.048 162.537 259.859 163.199 258.952C163.871 258.035 164.879 257.576 166.223 257.576C167.567 257.576 168.569 258.035 169.231 258.952C169.892 259.859 170.223 261.048 170.223 262.52V264.184C170.223 265.656 169.887 266.856 169.215 267.784C168.553 268.701 167.556 269.16 166.223 269.16ZM166.223 267.944C167.033 267.944 167.652 267.624 168.079 266.984C168.516 266.344 168.735 265.395 168.735 264.136V262.584C168.735 261.325 168.521 260.381 168.095 259.752C167.668 259.112 167.044 258.792 166.223 258.792C165.401 258.792 164.772 259.112 164.335 259.752C163.908 260.381 163.695 261.325 163.695 262.584V264.136C163.695 265.395 163.908 266.344 164.335 266.984C164.772 267.624 165.401 267.944 166.223 267.944ZM182.294 267.768V269H176.614V267.768H178.886V259.448H178.822L176.582 261.56V259.912L178.822 257.8H180.182V267.768H182.294ZM191.801 269.16C190.457 269.16 189.449 268.701 188.777 267.784C188.115 266.856 187.785 265.656 187.785 264.184V262.52C187.785 261.048 188.115 259.859 188.777 258.952C189.449 258.035 190.457 257.576 191.801 257.576C193.145 257.576 194.147 258.035 194.809 258.952C195.47 259.859 195.801 261.048 195.801 262.52V264.184C195.801 265.656 195.465 266.856 194.793 267.784C194.131 268.701 193.134 269.16 191.801 269.16ZM191.801 267.944C192.611 267.944 193.23 267.624 193.657 266.984C194.094 266.344 194.313 265.395 194.313 264.136V262.584C194.313 261.325 194.099 260.381 193.673 259.752C193.246 259.112 192.622 258.792 191.801 258.792C190.979 258.792 190.35 259.112 189.913 259.752C189.486 260.381 189.273 261.325 189.273 262.584V264.136C189.273 265.395 189.486 266.344 189.913 266.984C190.35 267.624 190.979 267.944 191.801 267.944ZM207.872 267.768V269H202.192V267.768H204.464V259.448H204.4L202.16 261.56V259.912L204.4 257.8H205.76V267.768H207.872ZM219.763 267.768V269H214.083V267.768H216.355V259.448H216.291L214.051 261.56V259.912L216.291 257.8H217.651V267.768H219.763ZM231.654 267.768V269H225.974V267.768H228.246V259.448H228.182L225.942 261.56V259.912L228.182 257.8H229.542V267.768H231.654ZM243.544 267.768V269H237.864V267.768H240.136V259.448H240.072L237.832 261.56V259.912L240.072 257.8H241.432V267.768H243.544ZM255.435 267.768V269H249.755V267.768H252.027V259.448H251.963L249.723 261.56V259.912L251.963 257.8H253.323V267.768H255.435ZM264.941 269.16C263.597 269.16 262.589 268.701 261.917 267.784C261.256 266.856 260.925 265.656 260.925 264.184V262.52C260.925 261.048 261.256 259.859 261.917 258.952C262.589 258.035 263.597 257.576 264.941 257.576C266.285 257.576 267.288 258.035 267.949 258.952C268.611 259.859 268.941 261.048 268.941 262.52V264.184C268.941 265.656 268.605 266.856 267.933 267.784C267.272 268.701 266.275 269.16 264.941 269.16ZM264.941 267.944C265.752 267.944 266.371 267.624 266.797 266.984C267.235 266.344 267.453 265.395 267.453 264.136V262.584C267.453 261.325 267.24 260.381 266.813 259.752C266.387 259.112 265.763 258.792 264.941 258.792C264.12 258.792 263.491 259.112 263.053 259.752C262.627 260.381 262.413 261.325 262.413 262.584V264.136C262.413 265.395 262.627 266.344 263.053 266.984C263.491 267.624 264.12 267.944 264.941 267.944ZM278.676 269.16C277.332 269.16 276.324 268.701 275.652 267.784C274.99 266.856 274.66 265.656 274.66 264.184V262.52C274.66 261.048 274.99 259.859 275.652 258.952C276.324 258.035 277.332 257.576 278.676 257.576C280.02 257.576 281.022 258.035 281.684 258.952C282.345 259.859 282.676 261.048 282.676 262.52V264.184C282.676 265.656 282.34 266.856 281.668 267.784C281.006 268.701 280.009 269.16 278.676 269.16ZM278.676 267.944C279.486 267.944 280.105 267.624 280.532 266.984C280.969 266.344 281.188 265.395 281.188 264.136V262.584C281.188 261.325 280.974 260.381 280.548 259.752C280.121 259.112 279.497 258.792 278.676 258.792C277.854 258.792 277.225 259.112 276.788 259.752C276.361 260.381 276.148 261.325 276.148 262.584V264.136C276.148 265.395 276.361 266.344 276.788 266.984C277.225 267.624 277.854 267.944 278.676 267.944ZM294.747 267.768V269H289.067V267.768H291.339V259.448H291.275L289.035 261.56V259.912L291.275 257.8H292.635V267.768H294.747ZM306.638 267.768V269H300.958V267.768H303.23V259.448H303.166L300.926 261.56V259.912L303.166 257.8H304.526V267.768H306.638ZM318.529 267.768V269H312.849V267.768H315.121V259.448H315.057L312.817 261.56V259.912L315.057 257.8H316.417V267.768H318.529ZM330.419 267.768V269H324.739V267.768H327.011V259.448H326.947L324.707 261.56V259.912L326.947 257.8H328.307V267.768H330.419ZM339.926 269.16C338.582 269.16 337.574 268.701 336.902 267.784C336.24 266.856 335.91 265.656 335.91 264.184V262.52C335.91 261.048 336.24 259.859 336.902 258.952C337.574 258.035 338.582 257.576 339.926 257.576C341.27 257.576 342.272 258.035 342.934 258.952C343.595 259.859 343.926 261.048 343.926 262.52V264.184C343.926 265.656 343.59 266.856 342.918 267.784C342.256 268.701 341.259 269.16 339.926 269.16ZM339.926 267.944C340.736 267.944 341.355 267.624 341.782 266.984C342.219 266.344 342.438 265.395 342.438 264.136V262.584C342.438 261.325 342.224 260.381 341.798 259.752C341.371 259.112 340.747 258.792 339.926 258.792C339.104 258.792 338.475 259.112 338.038 259.752C337.611 260.381 337.398 261.325 337.398 262.584V264.136C337.398 265.395 337.611 266.344 338.038 266.984C338.475 267.624 339.104 267.944 339.926 267.944ZM355.997 267.768V269H350.317V267.768H352.589V259.448H352.525L350.285 261.56V259.912L352.525 257.8H353.885V267.768H355.997ZM367.888 267.768V269H362.208V267.768H364.48V259.448H364.416L362.176 261.56V259.912L364.416 257.8H365.776V267.768H367.888ZM377.395 269.16C376.051 269.16 375.043 268.701 374.371 267.784C373.709 266.856 373.379 265.656 373.379 264.184V262.52C373.379 261.048 373.709 259.859 374.371 258.952C375.043 258.035 376.051 257.576 377.395 257.576C378.739 257.576 379.741 258.035 380.403 258.952C381.064 259.859 381.395 261.048 381.395 262.52V264.184C381.395 265.656 381.059 266.856 380.387 267.784C379.725 268.701 378.728 269.16 377.395 269.16ZM377.395 267.944C378.205 267.944 378.824 267.624 379.251 266.984C379.688 266.344 379.907 265.395 379.907 264.136V262.584C379.907 261.325 379.693 260.381 379.267 259.752C378.84 259.112 378.216 258.792 377.395 258.792C376.573 258.792 375.944 259.112 375.507 259.752C375.08 260.381 374.867 261.325 374.867 262.584V264.136C374.867 265.395 375.08 266.344 375.507 266.984C375.944 267.624 376.573 267.944 377.395 267.944ZM393.466 267.768V269H387.786V267.768H390.058V259.448H389.994L387.754 261.56V259.912L389.994 257.8H391.354V267.768H393.466ZM402.973 269.16C401.629 269.16 400.621 268.701 399.949 267.784C399.287 266.856 398.957 265.656 398.957 264.184V262.52C398.957 261.048 399.287 259.859 399.949 258.952C400.621 258.035 401.629 257.576 402.973 257.576C404.317 257.576 405.319 258.035 405.981 258.952C406.642 259.859 406.973 261.048 406.973 262.52V264.184C406.973 265.656 406.637 266.856 405.965 267.784C405.303 268.701 404.306 269.16 402.973 269.16ZM402.973 267.944C403.783 267.944 404.402 267.624 404.829 266.984C405.266 266.344 405.485 265.395 405.485 264.136V262.584C405.485 261.325 405.271 260.381 404.845 259.752C404.418 259.112 403.794 258.792 402.973 258.792C402.151 258.792 401.522 259.112 401.085 259.752C400.658 260.381 400.445 261.325 400.445 262.584V264.136C400.445 265.395 400.658 266.344 401.085 266.984C401.522 267.624 402.151 267.944 402.973 267.944ZM419.044 267.768V269H413.364V267.768H415.636V259.448H415.572L413.332 261.56V259.912L415.572 257.8H416.932V267.768H419.044ZM428.551 269.16C427.207 269.16 426.199 268.701 425.527 267.784C424.865 266.856 424.535 265.656 424.535 264.184V262.52C424.535 261.048 424.865 259.859 425.527 258.952C426.199 258.035 427.207 257.576 428.551 257.576C429.895 257.576 430.897 258.035 431.559 258.952C432.22 259.859 432.551 261.048 432.551 262.52V264.184C432.551 265.656 432.215 266.856 431.543 267.784C430.881 268.701 429.884 269.16 428.551 269.16ZM428.551 267.944C429.361 267.944 429.98 267.624 430.407 266.984C430.844 266.344 431.063 265.395 431.063 264.136V262.584C431.063 261.325 430.849 260.381 430.423 259.752C429.996 259.112 429.372 258.792 428.551 258.792C427.729 258.792 427.1 259.112 426.663 259.752C426.236 260.381 426.023 261.325 426.023 262.584V264.136C426.023 265.395 426.236 266.344 426.663 266.984C427.1 267.624 427.729 267.944 428.551 267.944ZM442.285 269.16C440.941 269.16 439.933 268.701 439.261 267.784C438.6 266.856 438.269 265.656 438.269 264.184V262.52C438.269 261.048 438.6 259.859 439.261 258.952C439.933 258.035 440.941 257.576 442.285 257.576C443.629 257.576 444.632 258.035 445.293 258.952C445.954 259.859 446.285 261.048 446.285 262.52V264.184C446.285 265.656 445.949 266.856 445.277 267.784C444.616 268.701 443.618 269.16 442.285 269.16ZM442.285 267.944C443.096 267.944 443.714 267.624 444.141 266.984C444.578 266.344 444.797 265.395 444.797 264.136V262.584C444.797 261.325 444.584 260.381 444.157 259.752C443.73 259.112 443.106 258.792 442.285 258.792C441.464 258.792 440.834 259.112 440.397 259.752C439.97 260.381 439.757 261.325 439.757 262.584V264.136C439.757 265.395 439.97 266.344 440.397 266.984C440.834 267.624 441.464 267.944 442.285 267.944ZM458.357 267.768V269H452.677V267.768H454.949V259.448H454.885L452.645 261.56V259.912L454.885 257.8H456.245V267.768H458.357ZM467.863 269.16C466.519 269.16 465.511 268.701 464.839 267.784C464.178 266.856 463.847 265.656 463.847 264.184V262.52C463.847 261.048 464.178 259.859 464.839 258.952C465.511 258.035 466.519 257.576 467.863 257.576C469.207 257.576 470.21 258.035 470.871 258.952C471.533 259.859 471.863 261.048 471.863 262.52V264.184C471.863 265.656 471.527 266.856 470.855 267.784C470.194 268.701 469.197 269.16 467.863 269.16ZM467.863 267.944C468.674 267.944 469.293 267.624 469.719 266.984C470.157 266.344 470.375 265.395 470.375 264.136V262.584C470.375 261.325 470.162 260.381 469.735 259.752C469.309 259.112 468.685 258.792 467.863 258.792C467.042 258.792 466.413 259.112 465.975 259.752C465.549 260.381 465.335 261.325 465.335 262.584V264.136C465.335 265.395 465.549 266.344 465.975 266.984C466.413 267.624 467.042 267.944 467.863 267.944ZM481.598 269.16C480.254 269.16 479.246 268.701 478.574 267.784C477.912 266.856 477.582 265.656 477.582 264.184V262.52C477.582 261.048 477.912 259.859 478.574 258.952C479.246 258.035 480.254 257.576 481.598 257.576C482.942 257.576 483.944 258.035 484.606 258.952C485.267 259.859 485.598 261.048 485.598 262.52V264.184C485.598 265.656 485.262 266.856 484.59 267.784C483.928 268.701 482.931 269.16 481.598 269.16ZM481.598 267.944C482.408 267.944 483.027 267.624 483.454 266.984C483.891 266.344 484.11 265.395 484.11 264.136V262.584C484.11 261.325 483.896 260.381 483.47 259.752C483.043 259.112 482.419 258.792 481.598 258.792C480.776 258.792 480.147 259.112 479.71 259.752C479.283 260.381 479.07 261.325 479.07 262.584V264.136C479.07 265.395 479.283 266.344 479.71 266.984C480.147 267.624 480.776 267.944 481.598 267.944ZM497.669 267.768V269H491.989V267.768H494.261V259.448H494.197L491.957 261.56V259.912L494.197 257.8H495.557V267.768H497.669ZM509.56 267.768V269H503.88V267.768H506.152V259.448H506.088L503.848 261.56V259.912L506.088 257.8H507.448V267.768H509.56ZM519.066 269.16C517.722 269.16 516.714 268.701 516.042 267.784C515.381 266.856 515.05 265.656 515.05 264.184V262.52C515.05 261.048 515.381 259.859 516.042 258.952C516.714 258.035 517.722 257.576 519.066 257.576C520.41 257.576 521.413 258.035 522.074 258.952C522.736 259.859 523.066 261.048 523.066 262.52V264.184C523.066 265.656 522.73 266.856 522.058 267.784C521.397 268.701 520.4 269.16 519.066 269.16ZM519.066 267.944C519.877 267.944 520.496 267.624 520.922 266.984C521.36 266.344 521.578 265.395 521.578 264.136V262.584C521.578 261.325 521.365 260.381 520.938 259.752C520.512 259.112 519.888 258.792 519.066 258.792C518.245 258.792 517.616 259.112 517.178 259.752C516.752 260.381 516.538 261.325 516.538 262.584V264.136C516.538 265.395 516.752 266.344 517.178 266.984C517.616 267.624 518.245 267.944 519.066 267.944Z" fill="#3457E5"/>
<path d="M880.91 269.16C879.566 269.16 878.558 268.701 877.886 267.784C877.225 266.856 876.894 265.656 876.894 264.184V262.52C876.894 261.048 877.225 259.859 877.886 258.952C878.558 258.035 879.566 257.576 880.91 257.576C882.254 257.576 883.257 258.035 883.918 258.952C884.579 259.859 884.91 261.048 884.91 262.52V264.184C884.91 265.656 884.574 266.856 883.902 267.784C883.241 268.701 882.243 269.16 880.91 269.16ZM880.91 267.944C881.721 267.944 882.339 267.624 882.766 266.984C883.203 266.344 883.422 265.395 883.422 264.136V262.584C883.422 261.325 883.209 260.381 882.782 259.752C882.355 259.112 881.731 258.792 880.91 258.792C880.089 258.792 879.459 259.112 879.022 259.752C878.595 260.381 878.382 261.325 878.382 262.584V264.136C878.382 265.395 878.595 266.344 879.022 266.984C879.459 267.624 880.089 267.944 880.91 267.944ZM896.982 267.768V269H891.302V267.768H893.574V259.448H893.51L891.27 261.56V259.912L893.51 257.8H894.87V267.768H896.982ZM906.488 269.16C905.144 269.16 904.136 268.701 903.464 267.784C902.803 266.856 902.472 265.656 902.472 264.184V262.52C902.472 261.048 902.803 259.859 903.464 258.952C904.136 258.035 905.144 257.576 906.488 257.576C907.832 257.576 908.835 258.035 909.496 258.952C910.158 259.859 910.488 261.048 910.488 262.52V264.184C910.488 265.656 910.152 266.856 909.48 267.784C908.819 268.701 907.822 269.16 906.488 269.16ZM906.488 267.944C907.299 267.944 907.918 267.624 908.344 266.984C908.782 266.344 909 265.395 909 264.136V262.584C909 261.325 908.787 260.381 908.36 259.752C907.934 259.112 907.31 258.792 906.488 258.792C905.667 258.792 905.038 259.112 904.6 259.752C904.174 260.381 903.96 261.325 903.96 262.584V264.136C903.96 265.395 904.174 266.344 904.6 266.984C905.038 267.624 905.667 267.944 906.488 267.944ZM920.223 269.16C918.879 269.16 917.871 268.701 917.199 267.784C916.537 266.856 916.207 265.656 916.207 264.184V262.52C916.207 261.048 916.537 259.859 917.199 258.952C917.871 258.035 918.879 257.576 920.223 257.576C921.567 257.576 922.569 258.035 923.231 258.952C923.892 259.859 924.223 261.048 924.223 262.52V264.184C924.223 265.656 923.887 266.856 923.215 267.784C922.553 268.701 921.556 269.16 920.223 269.16ZM920.223 267.944C921.033 267.944 921.652 267.624 922.079 266.984C922.516 266.344 922.735 265.395 922.735 264.136V262.584C922.735 261.325 922.521 260.381 922.095 259.752C921.668 259.112 921.044 258.792 920.223 258.792C919.401 258.792 918.772 259.112 918.335 259.752C917.908 260.381 917.695 261.325 917.695 262.584V264.136C917.695 265.395 917.908 266.344 918.335 266.984C918.772 267.624 919.401 267.944 920.223 267.944ZM936.294 267.768V269H930.614V267.768H932.886V259.448H932.822L930.582 261.56V259.912L932.822 257.8H934.182V267.768H936.294ZM945.801 269.16C944.457 269.16 943.449 268.701 942.777 267.784C942.115 266.856 941.785 265.656 941.785 264.184V262.52C941.785 261.048 942.115 259.859 942.777 258.952C943.449 258.035 944.457 257.576 945.801 257.576C947.145 257.576 948.147 258.035 948.809 258.952C949.47 259.859 949.801 261.048 949.801 262.52V264.184C949.801 265.656 949.465 266.856 948.793 267.784C948.131 268.701 947.134 269.16 945.801 269.16ZM945.801 267.944C946.611 267.944 947.23 267.624 947.657 266.984C948.094 266.344 948.313 265.395 948.313 264.136V262.584C948.313 261.325 948.099 260.381 947.673 259.752C947.246 259.112 946.622 258.792 945.801 258.792C944.979 258.792 944.35 259.112 943.913 259.752C943.486 260.381 943.273 261.325 943.273 262.584V264.136C943.273 265.395 943.486 266.344 943.913 266.984C944.35 267.624 944.979 267.944 945.801 267.944ZM961.872 267.768V269H956.192V267.768H958.464V259.448H958.4L956.16 261.56V259.912L958.4 257.8H959.76V267.768H961.872ZM973.763 267.768V269H968.083V267.768H970.355V259.448H970.291L968.051 261.56V259.912L970.291 257.8H971.651V267.768H973.763ZM985.654 267.768V269H979.974V267.768H982.246V259.448H982.182L979.942 261.56V259.912L982.182 257.8H983.542V267.768H985.654ZM997.544 267.768V269H991.864V267.768H994.136V259.448H994.072L991.832 261.56V259.912L994.072 257.8H995.432V267.768H997.544ZM1009.43 267.768V269H1003.75V267.768H1006.03V259.448H1005.96L1003.72 261.56V259.912L1005.96 257.8H1007.32V267.768H1009.43ZM1018.94 269.16C1017.6 269.16 1016.59 268.701 1015.92 267.784C1015.26 266.856 1014.93 265.656 1014.93 264.184V262.52C1014.93 261.048 1015.26 259.859 1015.92 258.952C1016.59 258.035 1017.6 257.576 1018.94 257.576C1020.29 257.576 1021.29 258.035 1021.95 258.952C1022.61 259.859 1022.94 261.048 1022.94 262.52V264.184C1022.94 265.656 1022.61 266.856 1021.93 267.784C1021.27 268.701 1020.27 269.16 1018.94 269.16ZM1018.94 267.944C1019.75 267.944 1020.37 267.624 1020.8 266.984C1021.23 266.344 1021.45 265.395 1021.45 264.136V262.584C1021.45 261.325 1021.24 260.381 1020.81 259.752C1020.39 259.112 1019.76 258.792 1018.94 258.792C1018.12 258.792 1017.49 259.112 1017.05 259.752C1016.63 260.381 1016.41 261.325 1016.41 262.584V264.136C1016.41 265.395 1016.63 266.344 1017.05 266.984C1017.49 267.624 1018.12 267.944 1018.94 267.944ZM1032.68 269.16C1031.33 269.16 1030.32 268.701 1029.65 267.784C1028.99 266.856 1028.66 265.656 1028.66 264.184V262.52C1028.66 261.048 1028.99 259.859 1029.65 258.952C1030.32 258.035 1031.33 257.576 1032.68 257.576C1034.02 257.576 1035.02 258.035 1035.68 258.952C1036.35 259.859 1036.68 261.048 1036.68 262.52V264.184C1036.68 265.656 1036.34 266.856 1035.67 267.784C1035.01 268.701 1034.01 269.16 1032.68 269.16ZM1032.68 267.944C1033.49 267.944 1034.11 267.624 1034.53 266.984C1034.97 266.344 1035.19 265.395 1035.19 264.136V262.584C1035.19 261.325 1034.97 260.381 1034.55 259.752C1034.12 259.112 1033.5 258.792 1032.68 258.792C1031.85 258.792 1031.23 259.112 1030.79 259.752C1030.36 260.381 1030.15 261.325 1030.15 262.584V264.136C1030.15 265.395 1030.36 266.344 1030.79 266.984C1031.23 267.624 1031.85 267.944 1032.68 267.944ZM1048.75 267.768V269H1043.07V267.768H1045.34V259.448H1045.28L1043.04 261.56V259.912L1045.28 257.8H1046.64V267.768H1048.75ZM1060.64 267.768V269H1054.96V267.768H1057.23V259.448H1057.17L1054.93 261.56V259.912L1057.17 257.8H1058.53V267.768H1060.64ZM1072.53 267.768V269H1066.85V267.768H1069.12V259.448H1069.06L1066.82 261.56V259.912L1069.06 257.8H1070.42V267.768H1072.53ZM1084.42 267.768V269H1078.74V267.768H1081.01V259.448H1080.95L1078.71 261.56V259.912L1080.95 257.8H1082.31V267.768H1084.42ZM1093.93 269.16C1092.58 269.16 1091.57 268.701 1090.9 267.784C1090.24 266.856 1089.91 265.656 1089.91 264.184V262.52C1089.91 261.048 1090.24 259.859 1090.9 258.952C1091.57 258.035 1092.58 257.576 1093.93 257.576C1095.27 257.576 1096.27 258.035 1096.93 258.952C1097.6 259.859 1097.93 261.048 1097.93 262.52V264.184C1097.93 265.656 1097.59 266.856 1096.92 267.784C1096.26 268.701 1095.26 269.16 1093.93 269.16ZM1093.93 267.944C1094.74 267.944 1095.36 267.624 1095.78 266.984C1096.22 266.344 1096.44 265.395 1096.44 264.136V262.584C1096.44 261.325 1096.22 260.381 1095.8 259.752C1095.37 259.112 1094.75 258.792 1093.93 258.792C1093.1 258.792 1092.48 259.112 1092.04 259.752C1091.61 260.381 1091.4 261.325 1091.4 262.584V264.136C1091.4 265.395 1091.61 266.344 1092.04 266.984C1092.48 267.624 1093.1 267.944 1093.93 267.944ZM1110 267.768V269H1104.32V267.768H1106.59V259.448H1106.53L1104.29 261.56V259.912L1106.53 257.8H1107.89V267.768H1110ZM1121.89 267.768V269H1116.21V267.768H1118.48V259.448H1118.42L1116.18 261.56V259.912L1118.42 257.8H1119.78V267.768H1121.89ZM1131.39 269.16C1130.05 269.16 1129.04 268.701 1128.37 267.784C1127.71 266.856 1127.38 265.656 1127.38 264.184V262.52C1127.38 261.048 1127.71 259.859 1128.37 258.952C1129.04 258.035 1130.05 257.576 1131.39 257.576C1132.74 257.576 1133.74 258.035 1134.4 258.952C1135.06 259.859 1135.39 261.048 1135.39 262.52V264.184C1135.39 265.656 1135.06 266.856 1134.39 267.784C1133.73 268.701 1132.73 269.16 1131.39 269.16ZM1131.39 267.944C1132.21 267.944 1132.82 267.624 1133.25 266.984C1133.69 266.344 1133.91 265.395 1133.91 264.136V262.584C1133.91 261.325 1133.69 260.381 1133.27 259.752C1132.84 259.112 1132.22 258.792 1131.39 258.792C1130.57 258.792 1129.94 259.112 1129.51 259.752C1129.08 260.381 1128.87 261.325 1128.87 262.584V264.136C1128.87 265.395 1129.08 266.344 1129.51 266.984C1129.94 267.624 1130.57 267.944 1131.39 267.944ZM1147.47 267.768V269H1141.79V267.768H1144.06V259.448H1143.99L1141.75 261.56V259.912L1143.99 257.8H1145.35V267.768H1147.47ZM1156.97 269.16C1155.63 269.16 1154.62 268.701 1153.95 267.784C1153.29 266.856 1152.96 265.656 1152.96 264.184V262.52C1152.96 261.048 1153.29 259.859 1153.95 258.952C1154.62 258.035 1155.63 257.576 1156.97 257.576C1158.32 257.576 1159.32 258.035 1159.98 258.952C1160.64 259.859 1160.97 261.048 1160.97 262.52V264.184C1160.97 265.656 1160.64 266.856 1159.96 267.784C1159.3 268.701 1158.31 269.16 1156.97 269.16ZM1156.97 267.944C1157.78 267.944 1158.4 267.624 1158.83 266.984C1159.27 266.344 1159.48 265.395 1159.48 264.136V262.584C1159.48 261.325 1159.27 260.381 1158.84 259.752C1158.42 259.112 1157.79 258.792 1156.97 258.792C1156.15 258.792 1155.52 259.112 1155.08 259.752C1154.66 260.381 1154.44 261.325 1154.44 262.584V264.136C1154.44 265.395 1154.66 266.344 1155.08 266.984C1155.52 267.624 1156.15 267.944 1156.97 267.944ZM1173.04 267.768V269H1167.36V267.768H1169.64V259.448H1169.57L1167.33 261.56V259.912L1169.57 257.8H1170.93V267.768H1173.04ZM1182.55 269.16C1181.21 269.16 1180.2 268.701 1179.53 267.784C1178.87 266.856 1178.53 265.656 1178.53 264.184V262.52C1178.53 261.048 1178.87 259.859 1179.53 258.952C1180.2 258.035 1181.21 257.576 1182.55 257.576C1183.89 257.576 1184.9 258.035 1185.56 258.952C1186.22 259.859 1186.55 261.048 1186.55 262.52V264.184C1186.55 265.656 1186.21 266.856 1185.54 267.784C1184.88 268.701 1183.88 269.16 1182.55 269.16ZM1182.55 267.944C1183.36 267.944 1183.98 267.624 1184.41 266.984C1184.84 266.344 1185.06 265.395 1185.06 264.136V262.584C1185.06 261.325 1184.85 260.381 1184.42 259.752C1184 259.112 1183.37 258.792 1182.55 258.792C1181.73 258.792 1181.1 259.112 1180.66 259.752C1180.24 260.381 1180.02 261.325 1180.02 262.584V264.136C1180.02 265.395 1180.24 266.344 1180.66 266.984C1181.1 267.624 1181.73 267.944 1182.55 267.944ZM1196.29 269.16C1194.94 269.16 1193.93 268.701 1193.26 267.784C1192.6 266.856 1192.27 265.656 1192.27 264.184V262.52C1192.27 261.048 1192.6 259.859 1193.26 258.952C1193.93 258.035 1194.94 257.576 1196.29 257.576C1197.63 257.576 1198.63 258.035 1199.29 258.952C1199.95 259.859 1200.29 261.048 1200.29 262.52V264.184C1200.29 265.656 1199.95 266.856 1199.28 267.784C1198.62 268.701 1197.62 269.16 1196.29 269.16ZM1196.29 267.944C1197.1 267.944 1197.71 267.624 1198.14 266.984C1198.58 266.344 1198.8 265.395 1198.8 264.136V262.584C1198.8 261.325 1198.58 260.381 1198.16 259.752C1197.73 259.112 1197.11 258.792 1196.29 258.792C1195.46 258.792 1194.83 259.112 1194.4 259.752C1193.97 260.381 1193.76 261.325 1193.76 262.584V264.136C1193.76 265.395 1193.97 266.344 1194.4 266.984C1194.83 267.624 1195.46 267.944 1196.29 267.944ZM1212.36 267.768V269H1206.68V267.768H1208.95V259.448H1208.88L1206.64 261.56V259.912L1208.88 257.8H1210.24V267.768H1212.36ZM1221.86 269.16C1220.52 269.16 1219.51 268.701 1218.84 267.784C1218.18 266.856 1217.85 265.656 1217.85 264.184V262.52C1217.85 261.048 1218.18 259.859 1218.84 258.952C1219.51 258.035 1220.52 257.576 1221.86 257.576C1223.21 257.576 1224.21 258.035 1224.87 258.952C1225.53 259.859 1225.86 261.048 1225.86 262.52V264.184C1225.86 265.656 1225.53 266.856 1224.86 267.784C1224.19 268.701 1223.2 269.16 1221.86 269.16ZM1221.86 267.944C1222.67 267.944 1223.29 267.624 1223.72 266.984C1224.16 266.344 1224.38 265.395 1224.38 264.136V262.584C1224.38 261.325 1224.16 260.381 1223.74 259.752C1223.31 259.112 1222.68 258.792 1221.86 258.792C1221.04 258.792 1220.41 259.112 1219.98 259.752C1219.55 260.381 1219.34 261.325 1219.34 262.584V264.136C1219.34 265.395 1219.55 266.344 1219.98 266.984C1220.41 267.624 1221.04 267.944 1221.86 267.944ZM1235.6 269.16C1234.25 269.16 1233.25 268.701 1232.57 267.784C1231.91 266.856 1231.58 265.656 1231.58 264.184V262.52C1231.58 261.048 1231.91 259.859 1232.57 258.952C1233.25 258.035 1234.25 257.576 1235.6 257.576C1236.94 257.576 1237.94 258.035 1238.61 258.952C1239.27 259.859 1239.6 261.048 1239.6 262.52V264.184C1239.6 265.656 1239.26 266.856 1238.59 267.784C1237.93 268.701 1236.93 269.16 1235.6 269.16ZM1235.6 267.944C1236.41 267.944 1237.03 267.624 1237.45 266.984C1237.89 266.344 1238.11 265.395 1238.11 264.136V262.584C1238.11 261.325 1237.9 260.381 1237.47 259.752C1237.04 259.112 1236.42 258.792 1235.6 258.792C1234.78 258.792 1234.15 259.112 1233.71 259.752C1233.28 260.381 1233.07 261.325 1233.07 262.584V264.136C1233.07 265.395 1233.28 266.344 1233.71 266.984C1234.15 267.624 1234.78 267.944 1235.6 267.944ZM1251.67 267.768V269H1245.99V267.768H1248.26V259.448H1248.2L1245.96 261.56V259.912L1248.2 257.8H1249.56V267.768H1251.67ZM1263.56 267.768V269H1257.88V267.768H1260.15V259.448H1260.09L1257.85 261.56V259.912L1260.09 257.8H1261.45V267.768H1263.56ZM1273.07 269.16C1271.72 269.16 1270.71 268.701 1270.04 267.784C1269.38 266.856 1269.05 265.656 1269.05 264.184V262.52C1269.05 261.048 1269.38 259.859 1270.04 258.952C1270.71 258.035 1271.72 257.576 1273.07 257.576C1274.41 257.576 1275.41 258.035 1276.07 258.952C1276.74 259.859 1277.07 261.048 1277.07 262.52V264.184C1277.07 265.656 1276.73 266.856 1276.06 267.784C1275.4 268.701 1274.4 269.16 1273.07 269.16ZM1273.07 267.944C1273.88 267.944 1274.5 267.624 1274.92 266.984C1275.36 266.344 1275.58 265.395 1275.58 264.136V262.584C1275.58 261.325 1275.37 260.381 1274.94 259.752C1274.51 259.112 1273.89 258.792 1273.07 258.792C1272.25 258.792 1271.62 259.112 1271.18 259.752C1270.75 260.381 1270.54 261.325 1270.54 262.584V264.136C1270.54 265.395 1270.75 266.344 1271.18 266.984C1271.62 267.624 1272.25 267.944 1273.07 267.944Z" fill="#3457E5"/>
<path d="M684.932 448C683.712 448 682.721 447.009 682.721 445.788V443.577H687.144V445.788C687.144 447.034 686.152 448 684.932 448Z" fill="#3457E5"/>
<path d="M716.778 448C715.558 448 714.566 447.009 714.566 445.788V443.577H718.989V445.788C718.989 447.034 717.998 448 716.778 448Z" fill="#3457E5"/>
<path d="M719.577 410.457H681.623V438.928H719.577V410.457Z" fill="white" stroke="#3457E5" stroke-miterlimit="10"/>
<path d="M721.446 414H677.612C677.003 414 676.529 413.481 676.529 412.868V403.132C676.529 402.495 677.025 402 677.612 402H721.446C722.055 402 722.529 402.519 722.529 403.132V412.868C722.551 413.481 722.055 414 721.446 414Z" fill="white" stroke="#3457E5" stroke-miterlimit="10"/>
<path d="M721.446 429.038H677.612C677.003 429.038 676.529 428.52 676.529 427.907V418.17C676.529 417.534 677.025 417.038 677.612 417.038H721.446C722.055 417.038 722.529 417.557 722.529 418.17V427.907C722.551 428.52 722.055 429.038 721.446 429.038Z" fill="white" stroke="#3457E5" stroke-miterlimit="10"/>
<path d="M721.446 444.077H677.612C677.003 444.077 676.529 443.558 676.529 442.945V433.209C676.529 432.572 677.025 432.077 677.612 432.077H721.446C722.055 432.077 722.529 432.596 722.529 433.209V442.945C722.551 443.558 722.055 444.077 721.446 444.077Z" fill="white" stroke="#3457E5" stroke-miterlimit="10"/>
<path d="M682.922 409.065C683.564 409.065 684.084 408.545 684.084 407.903C684.084 407.262 683.564 406.741 682.922 406.741C682.28 406.741 681.76 407.262 681.76 407.903C681.76 408.545 682.28 409.065 682.922 409.065Z" fill="#3457E5"/>
<path d="M682.922 424.081C683.564 424.081 684.084 423.56 684.084 422.919C684.084 422.277 683.564 421.757 682.922 421.757C682.28 421.757 681.76 422.277 681.76 422.919C681.76 423.56 682.28 424.081 682.922 424.081Z" fill="#3457E5"/>
<path d="M682.922 439.143C683.564 439.143 684.084 438.622 684.084 437.98C684.084 437.339 683.564 436.818 682.922 436.818C682.28 436.818 681.76 437.339 681.76 437.98C681.76 438.622 682.28 439.143 682.922 439.143Z" fill="#3457E5"/>
<line x1="669.5" y1="448.5" x2="730.5" y2="448.5" stroke="#3457E5" stroke-linecap="round"/>
<path d="M684.932 89.9999C683.712 89.9999 682.721 89.0086 682.721 87.7884V85.5769H687.144V87.7884C687.144 89.034 686.152 89.9999 684.932 89.9999Z" fill="#3457E5"/>
<path d="M716.778 89.9999C715.558 89.9999 714.566 89.0086 714.566 87.7884V85.5769H718.989V87.7884C718.989 89.034 717.998 89.9999 716.778 89.9999Z" fill="#3457E5"/>
<path d="M719.577 52.4566H681.623V80.9276H719.577V52.4566Z" fill="white" stroke="#3457E5" stroke-miterlimit="10"/>
<path d="M721.446 56H677.612C677.003 56 676.529 55.4813 676.529 54.8684V45.1316C676.529 44.4951 677.025 44 677.612 44H721.446C722.055 44 722.529 44.5187 722.529 45.1316V54.8684C722.551 55.4813 722.055 56 721.446 56Z" fill="white" stroke="#3457E5" stroke-miterlimit="10"/>
<path d="M721.446 71.0385H677.612C677.003 71.0385 676.529 70.5198 676.529 69.9068V60.1701C676.529 59.5335 677.025 59.0385 677.612 59.0385H721.446C722.055 59.0385 722.529 59.5571 722.529 60.1701V69.9068C722.551 70.5198 722.055 71.0385 721.446 71.0385Z" fill="white" stroke="#3457E5" stroke-miterlimit="10"/>
<path d="M721.446 86.0769H677.612C677.003 86.0769 676.529 85.5582 676.529 84.9453V75.2085C676.529 74.572 677.025 74.0769 677.612 74.0769H721.446C722.055 74.0769 722.529 74.5956 722.529 75.2085V84.9453C722.551 85.5582 722.055 86.0769 721.446 86.0769Z" fill="white" stroke="#3457E5" stroke-miterlimit="10"/>
<path d="M682.922 51.0654C683.564 51.0654 684.084 50.5452 684.084 49.9034C684.084 49.2616 683.564 48.7413 682.922 48.7413C682.28 48.7413 681.76 49.2616 681.76 49.9034C681.76 50.5452 682.28 51.0654 682.922 51.0654Z" fill="#3457E5"/>
<path d="M682.922 66.0807C683.564 66.0807 684.084 65.5604 684.084 64.9186C684.084 64.2768 683.564 63.7565 682.922 63.7565C682.28 63.7565 681.76 64.2768 681.76 64.9186C681.76 65.5604 682.28 66.0807 682.922 66.0807Z" fill="#3457E5"/>
<path d="M682.922 81.1425C683.564 81.1425 684.084 80.6222 684.084 79.9804C684.084 79.3386 683.564 78.8184 682.922 78.8184C682.28 78.8184 681.76 79.3386 681.76 79.9804C681.76 80.6222 682.28 81.1425 682.922 81.1425Z" fill="#3457E5"/>
<line x1="669.5" y1="90.5" x2="730.5" y2="90.5" stroke="#3457E5" stroke-linecap="round"/>
<path d="M529.932 359C528.712 359 527.721 358.009 527.721 356.788V354.577H532.144V356.788C532.144 358.034 531.152 359 529.932 359Z" fill="#3457E5"/>
<path d="M561.778 359C560.558 359 559.566 358.009 559.566 356.788V354.577H563.989V356.788C563.989 358.034 562.998 359 561.778 359Z" fill="#3457E5"/>
<path d="M564.577 321.457H526.623V349.928H564.577V321.457Z" fill="white" stroke="#3457E5" stroke-miterlimit="10"/>
<path d="M566.446 325H522.612C522.003 325 521.529 324.481 521.529 323.868V314.132C521.529 313.495 522.025 313 522.612 313H566.446C567.055 313 567.529 313.519 567.529 314.132V323.868C567.551 324.481 567.055 325 566.446 325Z" fill="white" stroke="#3457E5" stroke-miterlimit="10"/>
<path d="M566.446 340.038H522.612C522.003 340.038 521.529 339.52 521.529 338.907V329.17C521.529 328.534 522.025 328.038 522.612 328.038H566.446C567.055 328.038 567.529 328.557 567.529 329.17V338.907C567.551 339.52 567.055 340.038 566.446 340.038Z" fill="white" stroke="#3457E5" stroke-miterlimit="10"/>
<path d="M566.446 355.077H522.612C522.003 355.077 521.529 354.558 521.529 353.945V344.209C521.529 343.572 522.025 343.077 522.612 343.077H566.446C567.055 343.077 567.529 343.596 567.529 344.209V353.945C567.551 354.558 567.055 355.077 566.446 355.077Z" fill="white" stroke="#3457E5" stroke-miterlimit="10"/>
<path d="M527.922 320.065C528.564 320.065 529.084 319.545 529.084 318.903C529.084 318.262 528.564 317.741 527.922 317.741C527.28 317.741 526.76 318.262 526.76 318.903C526.76 319.545 527.28 320.065 527.922 320.065Z" fill="#3457E5"/>
<path d="M527.922 335.081C528.564 335.081 529.084 334.56 529.084 333.919C529.084 333.277 528.564 332.757 527.922 332.757C527.28 332.757 526.76 333.277 526.76 333.919C526.76 334.56 527.28 335.081 527.922 335.081Z" fill="#3457E5"/>
<path d="M527.922 350.143C528.564 350.143 529.084 349.622 529.084 348.98C529.084 348.339 528.564 347.818 527.922 347.818C527.28 347.818 526.76 348.339 526.76 348.98C526.76 349.622 527.28 350.143 527.922 350.143Z" fill="#3457E5"/>
<line x1="514.5" y1="359.5" x2="575.5" y2="359.5" stroke="#3457E5" stroke-linecap="round"/>
<path d="M529.932 179C528.712 179 527.721 178.009 527.721 176.788V174.577H532.144V176.788C532.144 178.034 531.152 179 529.932 179Z" fill="#3457E5"/>
<path d="M561.778 179C560.558 179 559.566 178.009 559.566 176.788V174.577H563.989V176.788C563.989 178.034 562.998 179 561.778 179Z" fill="#3457E5"/>
<path d="M564.577 141.457H526.623V169.928H564.577V141.457Z" fill="white" stroke="#3457E5" stroke-miterlimit="10"/>
<path d="M566.446 145H522.612C522.003 145 521.529 144.481 521.529 143.868V134.132C521.529 133.495 522.025 133 522.612 133H566.446C567.055 133 567.529 133.519 567.529 134.132V143.868C567.551 144.481 567.055 145 566.446 145Z" fill="white" stroke="#3457E5" stroke-miterlimit="10"/>
<path d="M566.446 160.038H522.612C522.003 160.038 521.529 159.52 521.529 158.907V149.17C521.529 148.534 522.025 148.038 522.612 148.038H566.446C567.055 148.038 567.529 148.557 567.529 149.17V158.907C567.551 159.52 567.055 160.038 566.446 160.038Z" fill="white" stroke="#3457E5" stroke-miterlimit="10"/>
<path d="M566.446 175.077H522.612C522.003 175.077 521.529 174.558 521.529 173.945V164.209C521.529 163.572 522.025 163.077 522.612 163.077H566.446C567.055 163.077 567.529 163.596 567.529 164.209V173.945C567.551 174.558 567.055 175.077 566.446 175.077Z" fill="white" stroke="#3457E5" stroke-miterlimit="10"/>
<path d="M527.922 140.065C528.564 140.065 529.084 139.545 529.084 138.903C529.084 138.262 528.564 137.741 527.922 137.741C527.28 137.741 526.76 138.262 526.76 138.903C526.76 139.545 527.28 140.065 527.922 140.065Z" fill="#3457E5"/>
<path d="M527.922 155.081C528.564 155.081 529.084 154.56 529.084 153.919C529.084 153.277 528.564 152.757 527.922 152.757C527.28 152.757 526.76 153.277 526.76 153.919C526.76 154.56 527.28 155.081 527.922 155.081Z" fill="#3457E5"/>
<path d="M527.922 170.143C528.564 170.143 529.084 169.622 529.084 168.98C529.084 168.339 528.564 167.818 527.922 167.818C527.28 167.818 526.76 168.339 526.76 168.98C526.76 169.622 527.28 170.143 527.922 170.143Z" fill="#3457E5"/>
<line x1="514.5" y1="179.5" x2="575.5" y2="179.5" stroke="#3457E5" stroke-linecap="round"/>
<path d="M840.932 359C839.712 359 838.721 358.009 838.721 356.788V354.577H843.144V356.788C843.144 358.034 842.152 359 840.932 359Z" fill="#3457E5"/>
<path d="M872.778 359C871.558 359 870.566 358.009 870.566 356.788V354.577H874.989V356.788C874.989 358.034 873.998 359 872.778 359Z" fill="#3457E5"/>
<path d="M875.577 321.457H837.623V349.928H875.577V321.457Z" fill="white" stroke="#3457E5" stroke-miterlimit="10"/>
<path d="M877.446 325H833.612C833.003 325 832.529 324.481 832.529 323.868V314.132C832.529 313.495 833.025 313 833.612 313H877.446C878.055 313 878.529 313.519 878.529 314.132V323.868C878.551 324.481 878.055 325 877.446 325Z" fill="white" stroke="#3457E5" stroke-miterlimit="10"/>
<path d="M877.446 340.038H833.612C833.003 340.038 832.529 339.52 832.529 338.907V329.17C832.529 328.534 833.025 328.038 833.612 328.038H877.446C878.055 328.038 878.529 328.557 878.529 329.17V338.907C878.551 339.52 878.055 340.038 877.446 340.038Z" fill="white" stroke="#3457E5" stroke-miterlimit="10"/>
<path d="M877.446 355.077H833.612C833.003 355.077 832.529 354.558 832.529 353.945V344.209C832.529 343.572 833.025 343.077 833.612 343.077H877.446C878.055 343.077 878.529 343.596 878.529 344.209V353.945C878.551 354.558 878.055 355.077 877.446 355.077Z" fill="white" stroke="#3457E5" stroke-miterlimit="10"/>
<path d="M838.922 320.065C839.564 320.065 840.084 319.545 840.084 318.903C840.084 318.262 839.564 317.741 838.922 317.741C838.28 317.741 837.76 318.262 837.76 318.903C837.76 319.545 838.28 320.065 838.922 320.065Z" fill="#3457E5"/>
<path d="M838.922 335.081C839.564 335.081 840.084 334.56 840.084 333.919C840.084 333.277 839.564 332.757 838.922 332.757C838.28 332.757 837.76 333.277 837.76 333.919C837.76 334.56 838.28 335.081 838.922 335.081Z" fill="#3457E5"/>
<path d="M838.922 350.143C839.564 350.143 840.084 349.622 840.084 348.98C840.084 348.339 839.564 347.818 838.922 347.818C838.28 347.818 837.76 348.339 837.76 348.98C837.76 349.622 838.28 350.143 838.922 350.143Z" fill="#3457E5"/>
<line x1="825.5" y1="359.5" x2="886.5" y2="359.5" stroke="#3457E5" stroke-linecap="round"/>
<path d="M840.932 179C839.712 179 838.721 178.009 838.721 176.788V174.577H843.144V176.788C843.144 178.034 842.152 179 840.932 179Z" fill="#3457E5"/>
<path d="M872.778 179C871.558 179 870.566 178.009 870.566 176.788V174.577H874.989V176.788C874.989 178.034 873.998 179 872.778 179Z" fill="#3457E5"/>
<path d="M875.577 141.457H837.623V169.928H875.577V141.457Z" fill="white" stroke="#3457E5" stroke-miterlimit="10"/>
<path d="M877.446 145H833.612C833.003 145 832.529 144.481 832.529 143.868V134.132C832.529 133.495 833.025 133 833.612 133H877.446C878.055 133 878.529 133.519 878.529 134.132V143.868C878.551 144.481 878.055 145 877.446 145Z" fill="white" stroke="#3457E5" stroke-miterlimit="10"/>
<path d="M877.446 160.038H833.612C833.003 160.038 832.529 159.52 832.529 158.907V149.17C832.529 148.534 833.025 148.038 833.612 148.038H877.446C878.055 148.038 878.529 148.557 878.529 149.17V158.907C878.551 159.52 878.055 160.038 877.446 160.038Z" fill="white" stroke="#3457E5" stroke-miterlimit="10"/>
<path d="M877.446 175.077H833.612C833.003 175.077 832.529 174.558 832.529 173.945V164.209C832.529 163.572 833.025 163.077 833.612 163.077H877.446C878.055 163.077 878.529 163.596 878.529 164.209V173.945C878.551 174.558 878.055 175.077 877.446 175.077Z" fill="white" stroke="#3457E5" stroke-miterlimit="10"/>
<path d="M838.922 140.065C839.564 140.065 840.084 139.545 840.084 138.903C840.084 138.262 839.564 137.741 838.922 137.741C838.28 137.741 837.76 138.262 837.76 138.903C837.76 139.545 838.28 140.065 838.922 140.065Z" fill="#3457E5"/>
<path d="M838.922 155.081C839.564 155.081 840.084 154.56 840.084 153.919C840.084 153.277 839.564 152.757 838.922 152.757C838.28 152.757 837.76 153.277 837.76 153.919C837.76 154.56 838.28 155.081 838.922 155.081Z" fill="#3457E5"/>
<path d="M838.922 170.143C839.564 170.143 840.084 169.622 840.084 168.98C840.084 168.339 839.564 167.818 838.922 167.818C838.28 167.818 837.76 168.339 837.76 168.98C837.76 169.622 838.28 170.143 838.922 170.143Z" fill="#3457E5"/>
<line x1="825.5" y1="179.5" x2="886.5" y2="179.5" stroke="#3457E5" stroke-linecap="round"/>
<path d="M0.5 295.5V246.83C0.5 219.038 23.1107 196.5 51 196.5C78.8893 196.5 101.5 219.038 101.5 246.83V295.5H0.5Z" fill="#DDE4F1" stroke="#C8D4E8" stroke-miterlimit="10" stroke-linejoin="round"/>
<path d="M51.0009 252.8C61.607 252.8 70.2049 244.231 70.2049 233.66C70.2049 223.089 61.607 214.52 51.0009 214.52C40.3948 214.52 31.7969 223.089 31.7969 233.66C31.7969 244.231 40.3948 252.8 51.0009 252.8Z" fill="white" stroke="#C8D4E8" stroke-miterlimit="10" stroke-linejoin="round"/>
<path d="M8.41797 296H93.5919C90.2808 275.53 72.4815 259.89 50.9999 259.89C29.5283 259.88 11.719 275.52 8.41797 296Z" fill="#3457E5"/>
<path d="M56.4775 240.72C56.4775 243.73 54.0293 246.17 51.0092 246.17C47.9892 246.17 45.541 243.73 45.541 240.72" fill="white"/>
<path d="M56.4775 240.72C56.4775 243.73 54.0293 246.17 51.0092 246.17C47.9892 246.17 45.541 243.73 45.541 240.72" stroke="#C8D4E8" stroke-miterlimit="10" stroke-linejoin="round"/>
<path d="M699.925 207H699.443C687.216 207 677.311 216.906 677.311 229.132V254.431H686.258V229.132C686.258 221.869 692.172 215.948 699.443 215.948H699.925C707.188 215.948 713.109 221.862 713.109 229.132V254.431H722.057V229.132C722.057 216.906 712.144 207 699.925 207Z" fill="white"/>
<path d="M704.153 254.424H695.205V229.37C695.205 226.902 697.211 224.896 699.679 224.896C702.147 224.896 704.153 226.902 704.153 229.37V254.424Z" fill="#12D3EB"/>
<path d="M692.011 267.056V267.825C691.165 267.335 690.18 267.056 689.138 267.056C685.957 267.056 683.385 269.628 683.385 272.809C683.385 275.99 685.957 278.562 689.138 278.562C690.187 278.562 691.165 278.282 692.011 277.793V278.562H694.884V267.056H692.011ZM689.138 275.689C687.551 275.689 686.265 274.396 686.265 272.816C686.265 271.229 687.558 269.943 689.138 269.943C690.725 269.943 692.011 271.236 692.011 272.816C692.011 274.396 690.725 275.689 689.138 275.689Z" fill="white"/>
<path d="M699.68 267.056H696.807V278.562H699.68V267.056Z" fill="white"/>
<path d="M681.462 263.316V278.562H678.589V268.02L675.569 272.173L673.794 274.619L672.018 272.173L668.998 268.02V278.562H666.125V263.316H669.138L673.794 269.726L678.449 263.316H681.462Z" fill="white"/>
<path d="M698.247 266.196C699.042 266.196 699.687 265.551 699.687 264.756C699.687 263.96 699.042 263.316 698.247 263.316C697.451 263.316 696.807 263.96 696.807 264.756C696.807 265.551 697.451 266.196 698.247 266.196Z" fill="#12D3EB"/>
<path d="M706.391 267.056C703.742 267.056 701.596 269.202 701.596 271.851V278.562H704.469V275.689V274.731V271.858C704.469 270.803 705.329 269.943 706.384 269.943C707.44 269.943 708.3 270.803 708.3 271.858V274.731V275.689V278.562H711.173V271.851C711.187 269.202 709.041 267.056 706.391 267.056Z" fill="white"/>
<path d="M724.475 274.053C724.566 273.655 724.608 273.235 724.608 272.809C724.608 272.382 724.559 271.963 724.475 271.565C724.461 271.502 724.447 271.439 724.433 271.376C723.797 268.894 721.539 267.063 718.861 267.063C716.184 267.063 713.926 268.894 713.29 271.376C713.276 271.439 713.255 271.502 713.248 271.565C713.157 271.963 713.115 272.382 713.115 272.809C713.115 273.235 713.164 273.655 713.248 274.053C713.262 274.116 713.276 274.179 713.29 274.242C713.926 276.724 716.184 278.555 718.861 278.555C720.267 278.555 721.56 278.052 722.559 277.213L720.707 275.011C720.211 275.43 719.561 275.682 718.861 275.682C717.799 275.682 716.869 275.102 716.373 274.242C716.338 274.179 716.303 274.116 716.268 274.053H721.448H724.475ZM716.268 271.565C716.303 271.502 716.331 271.432 716.373 271.376C716.869 270.516 717.799 269.936 718.861 269.936C719.924 269.936 720.854 270.516 721.35 271.376C721.385 271.439 721.42 271.502 721.455 271.565H716.268Z" fill="white"/>
<path d="M730.361 272.837V269.544H732.276V267.049H730.361V263.337H727.488V267.049H725.572V269.544H727.488V272.837C727.488 276.01 730.067 278.59 733.241 278.59V275.717C731.654 275.717 730.361 274.424 730.361 272.837Z" fill="white"/>
</svg>
