<svg width="1920" height="624" viewBox="0 0 1920 624" fill="none" xmlns="http://www.w3.org/2000/svg">
<rect width="1920" height="624" fill="url(#paint0_linear_134_717)"/>
<path d="M0 575.488H141.756C287.14 575.488 405 457.628 405 312.244C405 166.86 287.14 49 141.756 49H0" stroke="url(#paint1_linear_134_717)" stroke-miterlimit="10"/>
<path d="M0 555.208H141.756C206.652 555.208 267.672 529.937 313.56 484.048C359.449 438.159 384.72 377.139 384.72 312.244C384.72 247.348 359.449 186.34 313.56 140.451C267.672 94.5508 206.652 69.2798 141.756 69.2798H0" stroke="url(#paint2_linear_134_717)" stroke-miterlimit="10"/>
<path d="M0 534.928H141.756C201.244 534.928 257.16 511.764 299.218 469.706C341.276 427.647 364.44 371.72 364.44 312.244C364.44 252.767 341.276 196.84 299.218 154.782C257.16 112.724 201.244 89.5597 141.756 89.5597H0" stroke="url(#paint3_linear_134_717)" stroke-miterlimit="10"/>
<path d="M0 514.648H141.756C195.825 514.648 246.648 493.591 284.876 455.363C323.103 417.136 344.16 366.312 344.16 312.244C344.16 258.187 323.103 207.352 284.876 169.124C246.648 130.897 195.825 109.84 141.756 109.84H0" stroke="url(#paint4_linear_134_717)" stroke-miterlimit="10"/>
<path d="M0 494.368H141.756C190.405 494.368 236.136 475.418 270.533 441.021C304.941 406.624 323.881 360.893 323.881 312.244C323.881 263.595 304.941 217.864 270.545 183.467C236.136 149.07 190.405 130.119 141.756 130.119H0" stroke="url(#paint5_linear_134_717)" stroke-miterlimit="10"/>
<path d="M0 474.088H141.756C184.986 474.088 225.625 457.256 256.191 426.69C286.768 396.112 303.601 355.474 303.601 312.244C303.601 269.014 286.768 228.375 256.202 197.809C225.636 167.243 184.986 150.399 141.756 150.399H0" stroke="url(#paint6_linear_134_717)" stroke-miterlimit="10"/>
<path d="M0 453.808H141.756C179.567 453.808 215.124 439.083 241.86 412.347C268.595 385.601 283.321 350.054 283.321 312.244C283.321 274.433 268.595 238.887 241.86 212.151C215.124 185.405 179.567 170.679 141.756 170.679H0" stroke="url(#paint7_linear_134_717)" stroke-miterlimit="10"/>
<path d="M0 433.529H141.756C174.159 433.529 204.612 420.91 227.517 398.005C250.422 375.1 263.041 344.635 263.041 312.244C263.041 279.852 250.422 249.399 227.517 226.494C204.612 203.578 174.159 190.959 141.756 190.959H0" stroke="url(#paint8_linear_134_717)" stroke-miterlimit="10"/>
<path d="M0 211.239H141.756C168.74 211.239 194.101 221.751 213.186 240.825C232.261 259.899 242.761 285.272 242.761 312.244C242.761 339.216 232.249 364.588 213.175 383.663C194.101 402.737 168.74 413.249 141.756 413.249H0" stroke="url(#paint9_linear_134_717)" stroke-miterlimit="10"/>
<path d="M222.481 312.244C222.481 333.831 214.054 354.133 198.765 369.388C183.42 384.71 162.385 392.969 140.708 392.969H0V231.519H140.686C162.363 231.519 183.375 239.766 198.731 255.055C214.043 270.31 222.481 290.634 222.481 312.244Z" fill="url(#paint10_linear_134_717)"/>
<path d="M1405 168C1264.17 168 1150 282.402 1150 423.516V624H1660V423.516C1660 282.402 1545.83 168 1405 168Z" fill="url(#paint11_linear_134_717)"/>
<defs>
<linearGradient id="paint0_linear_134_717" x1="1920" y1="374" x2="-4.61208e-05" y2="380" gradientUnits="userSpaceOnUse">
<stop stop-color="#DFE7FB"/>
<stop offset="1" stop-color="#F2F5FE"/>
</linearGradient>
<linearGradient id="paint1_linear_134_717" x1="405" y1="312" x2="9.72879e-06" y2="312" gradientUnits="userSpaceOnUse">
<stop stop-color="#E7EDFC"/>
<stop offset="1" stop-color="#F2F5FE"/>
</linearGradient>
<linearGradient id="paint2_linear_134_717" x1="363.5" y1="312" x2="-1.97285e-05" y2="312" gradientUnits="userSpaceOnUse">
<stop stop-color="#E7EDFC"/>
<stop offset="1" stop-color="#F2F5FE"/>
</linearGradient>
<linearGradient id="paint3_linear_134_717" x1="364" y1="312" x2="-6.28698e-06" y2="312" gradientUnits="userSpaceOnUse">
<stop stop-color="#E7EDFC"/>
<stop offset="1" stop-color="#F2F5FE"/>
</linearGradient>
<linearGradient id="paint4_linear_134_717" x1="344" y1="312" x2="-7.19798e-06" y2="312" gradientUnits="userSpaceOnUse">
<stop stop-color="#E7EDFC"/>
<stop offset="1" stop-color="#F1F5FE"/>
</linearGradient>
<linearGradient id="paint5_linear_134_717" x1="324" y1="312" x2="7.89832e-06" y2="312" gradientUnits="userSpaceOnUse">
<stop stop-color="#E7EDFC"/>
<stop offset="1" stop-color="#F2F5FE"/>
</linearGradient>
<linearGradient id="paint6_linear_134_717" x1="304" y1="312" x2="7.78681e-07" y2="312" gradientUnits="userSpaceOnUse">
<stop stop-color="#E7EDFC"/>
<stop offset="1" stop-color="#F1F5FE"/>
</linearGradient>
<linearGradient id="paint7_linear_134_717" x1="283" y1="312" x2="7.64514e-06" y2="312" gradientUnits="userSpaceOnUse">
<stop stop-color="#E6EDFC"/>
<stop offset="1" stop-color="#F2F5FE"/>
</linearGradient>
<linearGradient id="paint8_linear_134_717" x1="263" y1="312" x2="2.48202e-06" y2="312" gradientUnits="userSpaceOnUse">
<stop stop-color="#E7EDFC"/>
<stop offset="1" stop-color="#F2F5FE"/>
</linearGradient>
<linearGradient id="paint9_linear_134_717" x1="221.5" y1="312" x2="1.13408e-06" y2="312" gradientUnits="userSpaceOnUse">
<stop stop-color="#E7EDFC"/>
<stop offset="1" stop-color="#F2F5FE"/>
</linearGradient>
<linearGradient id="paint10_linear_134_717" x1="222" y1="312" x2="-1.00128e-06" y2="312" gradientUnits="userSpaceOnUse">
<stop stop-color="#E7EDFC"/>
<stop offset="1" stop-color="#F2F5FE"/>
</linearGradient>
<linearGradient id="paint11_linear_134_717" x1="1659.86" y1="500.815" x2="1150" y2="500.815" gradientUnits="userSpaceOnUse">
<stop stop-color="#D9E4FF"/>
<stop offset="1" stop-color="#E8EEFF"/>
</linearGradient>
</defs>
</svg>