<svg width="682" height="558" viewBox="0 0 682 558" fill="none" xmlns="http://www.w3.org/2000/svg">
<path d="M80.5047 477.21H525.683C534.425 477.21 541.506 470.13 541.506 461.389V178.147C541.506 169.407 534.425 162.327 525.683 162.327H80.4947C71.7531 162.327 64.6719 169.407 64.6719 178.147V461.389C64.6819 470.12 71.7632 477.21 80.5047 477.21Z" fill="#EBF0F7" stroke="#C8D4E8" stroke-miterlimit="10" stroke-linejoin="round"/>
<path d="M86.5553 477.21H519.632C523.502 477.21 526.633 474.08 526.633 470.21V185.738C526.633 181.868 523.502 178.737 519.632 178.737H86.5553C82.6846 178.737 79.5541 181.868 79.5541 185.738V470.21C79.5541 474.07 82.6946 477.21 86.5553 477.21Z" fill="white" stroke="#C8D4E8" stroke-miterlimit="10" stroke-linejoin="round"/>
<path d="M40.8576 496.991H565.33C583.453 496.991 598.136 482.3 598.136 464.189C598.136 457.729 592.895 452.499 586.444 452.499H19.7539C13.2928 452.499 8.06183 457.739 8.06183 464.189C8.05182 482.31 22.7444 496.991 40.8576 496.991Z" fill="white" stroke="#C8D4E8" stroke-miterlimit="10" stroke-linejoin="round"/>
<path d="M139.675 376.046H481.505V433.928H139.675V376.046Z" fill="#DDE4F1"/>
<path d="M308.544 229.38H481.505V248.46H308.544V229.38Z" fill="#DDE4F1"/>
<path d="M124.612 229.38H297.572V248.46H124.612V229.38Z" fill="#DDE4F1"/>
<path d="M124.612 265.801H297.572V284.882H124.612V265.801Z" fill="#DDE4F1"/>
<path d="M124.612 302.213H297.572V321.293H124.612V302.213Z" fill="#DDE4F1"/>
<path d="M124.612 338.634H297.572V357.715H124.612V338.634Z" fill="#DDE4F1"/>
<path d="M7.61115 483.08H264.036C267.687 483.08 270.647 480.12 270.647 476.47V314.063C270.647 310.413 267.687 307.453 264.036 307.453H7.61115C3.96048 307.453 1 310.413 1 314.063V476.47C0.98999 480.12 3.9505 483.08 7.61115 483.08Z" fill="white" stroke="#C8D4E8" stroke-miterlimit="10" stroke-linejoin="round"/>
<path d="M23.8445 338.724H135.164V450.029H23.8445V338.724Z" fill="white" stroke="#C8D4E8" stroke-miterlimit="10" stroke-linejoin="round"/>
<path d="M189.933 353.215H253.475V369.125H189.933V353.215Z" fill="white" stroke="#C8D4E8" stroke-miterlimit="10" stroke-linejoin="round"/>
<path d="M154.987 383.906H253.475V399.817H154.987V383.906Z" fill="white" stroke="#C8D4E8" stroke-miterlimit="10" stroke-linejoin="round"/>
<path d="M154.987 414.907H253.475V450.039H154.987V414.907Z" fill="white" stroke="#C8D4E8" stroke-miterlimit="10" stroke-linejoin="round"/>
<path d="M308.544 274.141H481.505V357.715H308.544V274.141Z" fill="#DDE4F1"/>
<path d="M250.694 326.644C248.788 326.644 247.243 325.099 247.243 323.193C247.243 321.288 248.788 319.743 250.694 319.743C252.6 319.743 254.145 321.288 254.145 323.193C254.145 325.099 252.6 326.644 250.694 326.644Z" fill="white" stroke="#C8D4E8" stroke-miterlimit="10" stroke-linejoin="round"/>
<path d="M239.222 326.644C237.317 326.644 235.772 325.099 235.772 323.193C235.772 321.288 237.317 319.743 239.222 319.743C241.128 319.743 242.673 321.288 242.673 323.193C242.673 325.099 241.128 326.644 239.222 326.644Z" fill="white" stroke="#C8D4E8" stroke-miterlimit="10" stroke-linejoin="round"/>
<path d="M227.76 326.644C225.855 326.644 224.31 325.099 224.31 323.193C224.31 321.288 225.855 319.743 227.76 319.743C229.666 319.743 231.211 321.288 231.211 323.193C231.211 325.099 229.666 326.644 227.76 326.644Z" fill="white" stroke="#C8D4E8" stroke-miterlimit="10" stroke-linejoin="round"/>
<path d="M526.633 91.0838V271.341C526.633 276.251 530.614 280.222 535.514 280.222H671.818C676.889 280.222 681 276.111 681 271.041V76.4531C681 71.3829 676.889 67.2728 671.818 67.2728H550.437L526.633 91.0838Z" fill="white" stroke="#C8D4E8" stroke-miterlimit="10" stroke-linejoin="round"/>
<path d="M584.603 168.327H660.066V177.817H584.603V168.327Z" fill="white" stroke="#C8D4E8" stroke-miterlimit="10" stroke-linejoin="round"/>
<path d="M549.947 191.778H660.066V202.418H549.947V191.778Z" fill="white" stroke="#C8D4E8" stroke-miterlimit="10" stroke-linejoin="round"/>
<path d="M549.947 216.619H660.066V227.259H549.947V216.619Z" fill="white" stroke="#C8D4E8" stroke-miterlimit="10" stroke-linejoin="round"/>
<path d="M549.947 241.47H660.066V252.111H549.947V241.47Z" fill="white" stroke="#C8D4E8" stroke-miterlimit="10" stroke-linejoin="round"/>
<path d="M550.446 67.2728V85.9335C550.446 88.8237 548.106 91.1638 545.215 91.1638H526.642L550.446 67.2728Z" stroke="#C8D4E8" stroke-miterlimit="10"/>
<path d="M594.525 157.827H654.605C657.616 157.827 660.066 155.387 660.066 152.366V92.2939C660.066 89.2838 657.626 86.8337 654.605 86.8337H594.525C591.514 86.8337 589.064 89.2738 589.064 92.2939V152.366C589.074 155.387 591.514 157.827 594.525 157.827Z" fill="white" stroke="#C8D4E8" stroke-miterlimit="10" stroke-linejoin="round"/>
<path d="M219.971 167.528H265.459C268.759 167.528 271.43 164.858 271.43 161.558V116.076C271.43 112.776 268.759 110.106 265.459 110.106H219.971C216.67 110.106 214 112.776 214 116.076V161.558C213.99 164.858 216.67 167.528 219.971 167.528Z" fill="white" stroke="#C8D4E8" stroke-miterlimit="10" stroke-linejoin="round"/>
<path d="M189.082 0H242.511C267.876 0 293.23 0 318.595 0C324.726 0 329.687 4.97021 329.687 11.0905V38.7916C329.687 44.9219 324.716 49.8821 318.595 49.8821H294.81V62.5226L281.958 49.8821H189.092C182.961 49.8821 178 44.9119 178 38.7916V11.0905C177.99 4.97021 182.961 0 189.082 0Z" fill="#CFD7E8"/>
<path d="M250.106 136.927L254.697 152.028C254.977 152.938 254.287 153.858 253.337 153.858H232.093C231.143 153.858 230.453 152.938 230.733 152.028L235.323 136.927C235.493 136.367 235.593 135.797 235.633 135.207L236.134 126.757C235.563 126.757 235.273 128.087 235.273 128.087L230.893 127.427C230.893 127.427 230.893 123.486 233.083 120.416C235.263 117.366 238.774 117.366 238.774 117.366C238.774 118.456 240.964 119.546 242.715 119.546V119.526C244.465 119.526 246.655 118.436 246.655 117.346C246.655 117.346 250.156 117.346 252.346 120.416C254.537 123.486 254.537 127.427 254.537 127.427L250.156 128.087C250.156 128.087 249.866 126.757 249.296 126.757L249.796 135.227C249.836 135.797 249.936 136.377 250.106 136.927Z" fill="#DDE4F1"/>
<path d="M32.3652 222.889H112.849C118.24 222.889 122.621 218.519 122.621 213.119V132.646C122.621 127.255 118.25 122.875 112.849 122.875H32.3652C26.9743 122.875 22.5935 127.245 22.5935 132.646V213.119C22.6035 218.519 26.9743 222.889 32.3652 222.889Z" fill="#F7F8FA" stroke="#C8D4E8" stroke-miterlimit="10" stroke-linejoin="round"/>
<path d="M71.9426 137.576H72.6127C89.5957 137.576 103.368 151.336 103.368 168.327V203.479H90.936V168.327C90.936 158.227 82.7145 150.016 72.6228 150.016H71.9527C61.8509 150.016 53.6394 158.237 53.6394 168.327V203.479H41.2073V168.327C41.1873 151.336 54.9497 137.576 71.9426 137.576Z" fill="#3457E5"/>
<path d="M66.051 203.469H78.4932V168.657C78.4932 165.227 75.7127 162.437 72.2721 162.437C68.8415 162.437 66.051 165.217 66.051 168.657V203.469Z" fill="#12D3EB"/>
<path d="M644.495 136.526C642.545 136.526 640.964 134.945 640.964 132.996C640.964 131.046 642.545 129.465 644.495 129.465C646.445 129.465 648.025 131.046 648.025 132.996C648.025 134.945 646.445 136.526 644.495 136.526Z" fill="#292C38"/>
<path d="M640.023 135.826C650.255 135.826 653.585 134.696 653.725 131.165C653.905 126.755 650.025 124.855 646.044 123.275C644.304 122.585 642.133 121.505 639.833 120.365C636.982 118.945 634.032 117.485 631.502 116.555C627.311 115.025 618.209 114.945 616.419 114.945H616.189C615.839 114.955 607.857 115.135 605.177 116.145C603.137 116.905 601.576 119.055 600.546 120.475C600.176 120.985 599.856 121.435 599.626 121.645C597.335 123.815 595.235 128.965 597.025 132.416C598.406 135.066 604.557 135.146 615.719 135.296C619.649 135.346 624.11 135.406 629.141 135.586C633.812 135.746 637.263 135.826 640.023 135.826C640.013 135.826 640.013 135.826 640.023 135.826Z" fill="white"/>
<path d="M616.419 115.455C616.269 115.455 616.189 115.455 616.189 115.455C616.189 115.455 607.977 115.635 605.347 116.615C602.716 117.595 600.886 121.135 599.976 122.005C597.866 124.005 595.785 128.925 597.475 132.176C599.166 135.426 610.378 134.396 629.171 135.076C633.462 135.236 637.042 135.326 640.013 135.326C650.035 135.326 653.095 134.286 653.215 131.146C653.375 127.075 649.765 125.285 645.854 123.745C641.943 122.195 635.862 118.685 631.331 117.035C627.191 115.515 617.989 115.455 616.419 115.455ZM616.419 114.455C618.219 114.455 627.401 114.535 631.671 116.095C634.222 117.025 637.182 118.495 640.053 119.925C642.343 121.065 644.504 122.135 646.224 122.815C649.295 124.025 654.425 126.055 654.215 131.185C654.045 135.536 649.295 136.326 640.013 136.326C637.252 136.326 633.802 136.246 629.131 136.076C624.11 135.896 619.659 135.836 615.729 135.786C603.997 135.626 598.106 135.556 596.595 132.636C594.695 128.985 596.885 123.555 599.296 121.275C599.486 121.095 599.806 120.655 600.156 120.175C601.226 118.705 602.836 116.485 605.017 115.675C607.777 114.645 615.839 114.455 616.189 114.445L616.419 114.455Z" fill="#C8D4E8"/>
<path d="M627.381 116.135C628.882 116.355 630.272 116.645 631.332 117.035C634.723 118.275 638.973 120.545 642.544 122.265C639.123 122.725 633.452 122.845 630.252 120.365C626.671 117.585 622.28 116.335 622.28 116.335L627.381 116.135Z" fill="#292C38"/>
<path d="M613.499 116.845C616.379 116.735 619.92 116.275 625.871 119.205C631.822 122.135 631.822 123.405 631.282 123.615C630.752 123.825 617.459 122.995 612.188 122.415C606.918 121.835 604.627 121.415 604.507 119.615C604.387 117.815 604.747 117.185 613.499 116.845Z" fill="#292C38"/>
<path d="M644.105 123.675C644.105 123.675 637.834 123.405 637.303 123.745C636.773 124.085 643.195 127.905 649.626 126.835C649.626 126.835 649.766 126.065 644.105 123.675Z" fill="#DDE4F1"/>
<path d="M640.023 135.826C650.255 135.826 653.586 134.696 653.726 131.165C653.766 130.165 653.596 129.245 653.206 128.415C653.146 128.285 653.036 128.185 652.896 128.145C652.846 128.135 652.796 128.125 652.746 128.125C652.656 128.125 652.566 128.145 652.486 128.195C651.895 128.545 650.685 128.975 648.295 128.975C648.065 128.975 647.815 128.975 647.565 128.965C644.864 128.875 642.994 127.845 641.003 126.745C638.873 125.575 636.673 124.365 633.422 124.365H633.092C632.632 124.375 632.152 124.385 631.652 124.385C625.331 124.385 616.389 123.515 611.708 122.455C610.028 122.075 607.828 121.875 605.187 121.875C602.727 121.875 600.446 122.045 599.306 122.145C599.176 122.155 599.066 122.215 598.976 122.305C597.106 124.375 595.325 129.155 597.026 132.416C598.406 135.066 604.557 135.146 615.719 135.296C619.65 135.346 624.111 135.406 629.141 135.586C633.812 135.746 637.263 135.826 640.023 135.826C640.013 135.826 640.013 135.826 640.023 135.826Z" fill="white"/>
<path d="M605.197 122.365C602.816 122.365 600.606 122.525 599.356 122.635C597.466 124.715 595.945 129.235 597.476 132.176C599.166 135.426 610.378 134.396 629.171 135.076C633.462 135.236 637.042 135.326 640.013 135.326C650.035 135.326 653.095 134.286 653.215 131.146C653.255 130.185 653.085 129.355 652.745 128.615C652.015 129.055 650.685 129.465 648.294 129.465C648.054 129.465 647.804 129.465 647.544 129.455C641.753 129.265 639.503 124.855 633.422 124.855C633.322 124.855 633.212 124.855 633.102 124.855C632.642 124.865 632.152 124.875 631.652 124.875C625.32 124.875 616.269 123.995 611.598 122.935C609.718 122.495 607.377 122.365 605.197 122.365ZM605.197 121.365C607.887 121.365 610.118 121.565 611.828 121.955C616.479 123.015 625.37 123.875 631.662 123.875C632.152 123.875 632.632 123.865 633.092 123.855C633.202 123.855 633.322 123.855 633.432 123.855C636.812 123.855 639.073 125.095 641.253 126.305C643.184 127.365 645.014 128.375 647.584 128.455C647.834 128.465 648.074 128.465 648.294 128.465C650.575 128.465 651.695 128.085 652.225 127.755C652.385 127.665 652.555 127.615 652.735 127.615C652.835 127.615 652.935 127.625 653.035 127.655C653.305 127.735 653.525 127.935 653.645 128.195C654.065 129.095 654.246 130.105 654.205 131.176C654.035 135.526 649.285 136.316 640.003 136.316C637.243 136.316 633.792 136.236 629.121 136.066C624.1 135.886 619.649 135.826 615.719 135.776C603.987 135.616 598.096 135.546 596.585 132.626C594.765 129.125 596.595 124.185 598.616 121.955C598.786 121.765 599.016 121.655 599.266 121.635C600.416 121.535 602.716 121.365 605.197 121.365Z" fill="#C8D4E8"/>
<path d="M602.286 132.396C611.008 134.766 635.422 133.466 645.124 132.786C650.185 132.436 652.325 131.375 653.205 130.455C653.225 130.675 653.225 130.905 653.215 131.145C653.055 135.216 647.954 135.766 629.171 135.076C610.378 134.396 599.176 135.426 597.475 132.176C597.225 131.696 597.055 131.195 596.965 130.705C598.225 131.195 599.936 131.756 602.286 132.396Z" fill="#DDE4F1"/>
<path d="M636.163 137.936C633.622 137.936 631.562 135.876 631.562 133.336C631.562 130.795 633.622 128.735 636.163 128.735C638.704 128.735 640.764 130.795 640.764 133.336C640.764 135.876 638.704 137.936 636.163 137.936Z" fill="#292C38"/>
<path d="M636.163 135.966C634.71 135.966 633.533 134.788 633.533 133.336C633.533 131.883 634.71 130.705 636.163 130.705C637.615 130.705 638.793 131.883 638.793 133.336C638.793 134.788 637.615 135.966 636.163 135.966Z" fill="white"/>
<path d="M603.007 137.936C600.466 137.936 598.406 135.876 598.406 133.336C598.406 130.795 600.466 128.735 603.007 128.735C605.548 128.735 607.607 130.795 607.607 133.336C607.607 135.876 605.548 137.936 603.007 137.936Z" fill="#292C38"/>
<path d="M603.007 135.966C601.554 135.966 600.377 134.788 600.377 133.336C600.377 131.883 601.554 130.705 603.007 130.705C604.459 130.705 605.637 131.883 605.637 133.336C605.637 134.788 604.459 135.966 603.007 135.966Z" fill="white"/>
<path d="M64.9923 425.468H112.101V365.135C112.101 361.335 109.02 358.265 105.229 358.265H71.8635C68.0628 358.265 64.9923 361.345 64.9923 365.135V425.468Z" fill="#DDE4F1"/>
<path d="M44.8987 425.468H64.9922V380.996H49.5595C46.979 380.996 44.8987 383.086 44.8987 385.656V425.468Z" fill="#CFD7E8"/>
<path d="M116.061 425.468H41.4175" stroke="#C8D4E8" stroke-miterlimit="10" stroke-linecap="round" stroke-linejoin="round"/>
<path d="M98.5977 372.095H78.7441" stroke="#F7F8FA" stroke-miterlimit="10" stroke-linecap="round" stroke-linejoin="round"/>
<path d="M98.5977 383.956H78.7441" stroke="#F7F8FA" stroke-miterlimit="10" stroke-linecap="round" stroke-linejoin="round"/>
<path d="M98.5977 395.816H78.7441" stroke="#F7F8FA" stroke-miterlimit="10" stroke-linecap="round" stroke-linejoin="round"/>
<path d="M98.5977 407.677H78.7441" stroke="#F7F8FA" stroke-miterlimit="10" stroke-linecap="round" stroke-linejoin="round"/>
<path d="M314.253 16.8607H202.213" stroke="white" stroke-miterlimit="10" stroke-linecap="round"/>
<path d="M314.253 31.2612H202.213" stroke="white" stroke-miterlimit="10" stroke-linecap="round"/>
<path d="M347.247 157.832C347.247 157.832 341.957 163.467 339.747 163.688C337.537 163.908 332.837 163.688 332.837 163.688L342.957 149.204C342.957 149.204 342.037 144.749 334.677 141.046C327.317 137.342 319.137 137.442 319.137 137.442L282.747 184.377C282.747 184.377 281.107 194.717 291.747 195.378C302.377 196.039 343.777 194.427 343.777 194.427L347.247 157.832Z" fill="#3457E5"/>
<path d="M334.667 141.046C342.027 144.739 342.947 149.204 342.947 149.204C340.617 152.857 331.777 150.195 326.237 147.282C320.697 144.369 317.797 139.164 319.127 137.442C319.137 137.442 327.307 137.342 334.667 141.046Z" fill="#0539DB"/>
<path d="M331.637 175.469C329.627 180.494 321.787 181.345 322.507 179.263C323.227 177.181 332.827 163.688 332.827 163.688C332.827 163.688 333.857 163.738 335.188 163.758C334.517 166.44 333.097 171.825 331.637 175.469Z" fill="#0539DB"/>
<path d="M343.767 194.427C343.767 194.427 321.577 195.288 305.517 195.488C306.517 193.656 308.767 191.925 311.467 191.384C317.707 190.153 329.867 181.615 334.127 177.541C338.387 173.467 344.177 161.706 344.177 161.706C344.177 161.706 345.607 161.225 346.957 160.785L343.767 194.427Z" fill="#0539DB"/>
<path d="M366.877 127.673C366.877 127.673 361.867 128.244 360.377 130.896C358.897 133.549 355.007 138.674 349.697 138.864C344.387 139.054 341.317 141.997 341.317 141.997L331.637 144.609C331.637 144.609 325.367 142.197 325.567 140.485C325.767 138.774 329.507 135.611 329.507 135.611C329.507 135.611 337.217 127.283 338.037 123.209C338.857 119.135 344.677 110.186 351.067 108.024C357.457 105.862 365.487 107.534 365.817 107.894C366.137 108.264 370.397 124.44 370.397 124.44L366.877 127.673Z" fill="white" stroke="#C8D4E8" stroke-miterlimit="10" stroke-linejoin="round"/>
<path d="M342.477 145.23L338.557 150.055C338.557 150.055 325.787 148.443 322.467 142.938L328.347 135.541C328.647 135.16 329.277 135.19 329.517 135.601C330.737 137.643 334.337 142.357 341.317 141.987C341.317 141.987 342.267 142.367 342.737 143.318C343.037 143.949 342.917 144.679 342.477 145.23Z" fill="white" stroke="#C8D4E8" stroke-miterlimit="10" stroke-linejoin="round"/>
<path d="M363.397 112.749C363.397 112.749 359.427 114.11 356.167 113.309L346.827 118.925C346.297 119.245 346.007 119.845 346.087 120.466L347.677 132.808C347.827 133.949 349.117 134.55 350.077 133.919L365.177 124.019L363.397 112.749Z" fill="#292C38"/>
<path d="M424.137 524.404L426.188 526.777V544.514C426.188 544.514 421.508 544.323 420.538 548.307C419.558 552.291 413.658 560.229 386.888 557.406C374.787 556.135 373.308 555.514 377.418 547.927C377.418 547.927 340.647 550.92 333.077 546.766C333.077 546.766 334.717 539.218 343.298 538.738C351.887 538.258 351.478 535.415 359.037 530.48C366.597 525.545 374.777 519.86 374.777 519.86L417.917 516.977L424.137 524.404Z" fill="#CFD7E8"/>
<path d="M371.097 545.274C378.047 540.6 377.477 527.457 368.307 524.294C372.057 521.752 374.777 519.86 374.777 519.86L416.257 517.087C420.067 521.662 423.037 526.056 423.037 526.056C423.037 526.056 402.777 526.456 396.857 527.667C390.927 528.879 393.577 532.812 388.057 538.568C382.547 544.323 377.407 547.927 377.407 547.927C377.407 547.927 340.637 550.92 333.067 546.766C333.077 546.766 362.927 550.77 371.097 545.274Z" fill="#292C38"/>
<path d="M386.877 557.406C378.567 556.535 375.267 555.965 375.347 553.232C377.217 554.823 398.607 555.664 407.667 554.463C416.727 553.252 418.527 549.628 420.097 543.563C420.877 540.55 423.617 539.299 426.177 538.798V544.504C426.177 544.504 421.497 544.313 420.527 548.297C419.557 552.281 413.657 560.229 386.877 557.406Z" fill="#292C38"/>
<path d="M409.717 147.272C409.717 147.272 441.837 157.992 443.877 162.356C445.917 166.721 445.637 188.531 439.137 205.218C432.637 221.904 430.747 234.255 420.137 238.229L428.747 284.494L424.317 286.766C424.317 286.766 418.367 345.642 421.817 367.984C425.267 390.325 430.997 421.235 429.847 446.089C428.697 470.943 426.177 526.776 426.177 526.776C426.177 526.776 397.077 519.269 389.427 527.437C389.427 527.437 380.707 522.743 371.437 522.913C371.437 522.913 366.257 518.198 366.257 515.956C366.257 513.714 372.797 500.952 372.797 500.952C372.797 500.952 374.417 438.932 371.847 414.469C369.277 390.005 352.237 293.342 344.737 283.733C344.737 283.733 341.917 288.538 342.847 294.103L336.277 292.011C336.277 292.011 344.547 237.018 342.187 219.221C339.827 201.424 338.727 176.52 340.707 167.451C342.687 158.383 347.797 156.02 350.867 153.688C353.937 151.356 366.887 151.686 366.887 151.686L409.717 147.272Z" fill="#3457E5"/>
<path d="M353.727 173.797L360.887 170.484L356.727 162.096L408.997 147.342L409.737 147.272C409.877 147.322 412.327 148.143 415.857 149.394L403.347 169.643H393.787L398.817 179.032L356.987 227.949C356.987 227.949 355.347 238.87 354.227 241.623C353.107 244.375 352.647 257.077 357.127 256.417C379.747 253.074 420.137 238.229 420.137 238.229L421.507 245.586C406.677 244.525 403.937 246.828 385.937 258.549C352.627 280.24 350.587 272.873 350.047 276.106C349.497 279.349 355.107 295.714 355.107 295.714C395.337 298.837 424.327 286.776 424.327 286.776C424.327 286.776 424.187 288.187 423.957 290.66C409.547 296.735 370.497 306.395 370.497 306.395C370.497 306.395 384.667 351.758 390.637 407.392C396.607 463.025 391.137 519.409 391.137 519.409C396.627 517.968 413.647 521.391 426.267 525.005C426.217 526.146 426.187 526.776 426.187 526.776C426.187 526.776 397.087 519.269 389.437 527.437C389.437 527.437 380.717 522.743 371.447 522.913C371.447 522.913 366.267 518.198 366.267 515.956C366.267 515.726 366.337 515.396 366.457 514.975C375.457 515.806 386.147 518.268 385.017 515.646C383.187 511.372 372.807 500.952 372.807 500.952C372.807 500.952 374.427 438.932 371.857 414.469C369.287 390.005 352.247 293.342 344.747 283.733C344.747 283.733 341.927 288.538 342.857 294.103L339.757 293.112C342.537 274.834 351.197 236.317 351.197 236.317L353.727 173.797Z" fill="#0539DB"/>
<path d="M404.827 138.864C404.827 138.864 408.687 138.834 410.917 142.627C413.147 146.421 413.417 149.074 413.417 149.074L402.507 168.422L392.707 170.484L396.657 177.521L352.397 228.43L355.107 172.556L361.017 168.302L356.727 162.106C356.727 162.106 359.997 152.527 364.327 150.805C368.657 149.084 370.877 149.444 370.877 149.444L404.827 138.864Z" fill="#3457E5"/>
<path d="M365.727 108.044C365.727 106.833 365.727 96.2028 365.727 96.2028L380.287 91.6484L399.497 94.2809L405.537 102.809L403.747 109.866C403.977 115.631 401.677 117.984 401.677 117.984L404.327 143.318L393.417 150.055L373.587 152.217L373.907 139.935C370.927 139.614 368.727 138.804 368.357 138.403C367.047 136.982 366.787 128.684 366.787 126.712C366.787 124.74 364.357 120.336 364.357 116.582C364.357 112.829 365.727 109.255 365.727 108.044Z" fill="white"/>
<path d="M365.727 108.044C365.727 106.833 365.727 96.2028 365.727 96.2028L380.287 91.6484L399.497 94.2809L405.537 102.809L403.747 109.866C403.977 115.631 401.677 117.984 401.677 117.984L404.327 143.318L393.417 150.055L373.587 152.217L373.907 139.935C370.927 139.614 368.727 138.804 368.357 138.403C367.047 136.982 366.787 128.684 366.787 126.712C366.787 124.74 364.357 120.336 364.357 116.582C364.357 112.829 365.727 109.255 365.727 108.044Z" stroke="#C8D4E8" stroke-miterlimit="10" stroke-linejoin="round"/>
<path d="M382.857 79.6369C383.307 78.9562 382.777 78.0553 381.967 78.0754C378.867 78.1654 373.367 78.6759 369.367 81.0182C363.507 84.4615 361.377 89.2161 361.687 91.8486C361.997 94.4811 363.107 97.6141 366.747 98.9354C369.887 100.066 381.687 98.3448 386.937 96.413C388.437 95.8624 390.127 96.6832 390.487 98.2347C390.707 99.1756 390.827 100.427 390.697 102.068C390.297 107.534 390.497 114.01 389.987 115.832C389.477 117.653 394.337 115.832 394.837 113.81C395.347 111.788 395.547 105.011 400.697 105.211C403.327 105.312 404.567 108.935 404.167 110.146C404.167 110.146 409.187 99.0355 408.587 94.7814C407.977 90.5273 405.457 87.4944 400.297 87.1941C395.137 86.8938 383.617 88.4053 381.797 86.1831C380.527 84.6216 381.637 81.5287 382.857 79.6369Z" fill="#292C38"/>
<path d="M379.627 119.495C376.855 119.495 374.607 116.874 374.607 113.64C374.607 110.406 376.855 107.784 379.627 107.784C382.4 107.784 384.647 110.406 384.647 113.64C384.647 116.874 382.4 119.495 379.627 119.495Z" stroke="#C8D4E8" stroke-miterlimit="10"/>
<path d="M365.437 119.495C362.665 119.495 360.417 116.874 360.417 113.64C360.417 110.406 362.665 107.784 365.437 107.784C368.21 107.784 370.457 110.406 370.457 113.64C370.457 116.874 368.21 119.495 365.437 119.495Z" stroke="#C8D4E8" stroke-miterlimit="10"/>
<path d="M394.987 112.318L384.647 112.198" stroke="#C8D4E8" stroke-miterlimit="10" stroke-linecap="round"/>
<path d="M374.867 111.808C374.867 111.808 373.427 111.378 370.207 111.808" stroke="#C8D4E8" stroke-miterlimit="10"/>
<path d="M384.647 138.363C393.797 134.059 396.438 128.234 396.438 128.234C396.438 128.234 396.118 138.433 373.658 149.294L373.908 139.935C377.018 140.265 380.977 140.085 384.647 138.363Z" fill="#C8D4E8"/>
<path d="M355.647 221.623C355.817 221.623 355.987 221.533 356.077 221.383C356.337 220.952 381.897 177.911 388.497 167.03C393.297 159.103 400.127 151.215 403.787 146.981C405.277 145.259 406.257 144.128 406.547 143.638C407.147 142.647 406.977 141.596 406.607 140.955C406.267 140.345 405.717 139.984 405.127 139.984C404.717 139.984 404.317 140.165 403.967 140.495C398.527 145.69 380.677 150.224 377.217 150.354H377.057C374.177 150.354 373.327 147.432 373.287 147.301C373.227 147.081 373.027 146.931 372.807 146.931C372.787 146.931 372.767 146.931 372.747 146.931C370.757 147.181 369.537 149.724 367.537 157.801C365.647 165.439 355.247 220.472 355.147 221.022C355.107 221.262 355.237 221.493 355.457 221.583C355.527 221.613 355.587 221.623 355.647 221.623Z" fill="white"/>
<path d="M405.137 140.485C404.877 140.485 404.597 140.595 404.317 140.856C398.767 146.161 380.707 150.725 377.247 150.855C377.187 150.855 377.127 150.855 377.067 150.855C373.757 150.855 372.817 147.442 372.817 147.442C371.117 147.652 369.937 150.225 368.027 157.932C366.117 165.65 355.637 221.133 355.637 221.133C355.637 221.133 381.387 177.781 388.067 166.761C394.747 155.75 405.137 145 406.127 143.368C406.907 142.087 406.137 140.485 405.137 140.485ZM405.137 139.484C405.907 139.484 406.617 139.945 407.047 140.706C407.597 141.686 407.577 142.908 406.977 143.899C406.677 144.399 405.847 145.36 404.167 147.302C400.507 151.526 393.707 159.393 388.927 167.281C382.327 178.172 356.767 221.203 356.507 221.633C356.327 221.944 355.987 222.124 355.647 222.124C355.527 222.124 355.407 222.104 355.297 222.064C354.847 221.894 354.577 221.423 354.667 220.943C355.097 218.68 365.177 165.339 367.067 157.692C369.157 149.254 370.417 146.731 372.707 146.441C372.747 146.431 372.787 146.431 372.827 146.431C373.277 146.431 373.667 146.731 373.787 147.172C373.817 147.272 374.577 149.854 377.067 149.854C377.117 149.854 377.157 149.854 377.207 149.854C380.517 149.734 398.377 145.15 403.627 140.135C404.197 139.594 404.767 139.484 405.137 139.484Z" fill="#C8D4E8"/>
<path d="M375.397 152.217C375.907 152.267 377.787 154.269 378.097 156.411C378.407 158.553 374.307 166.02 374.307 166.02L372.827 192.245L355.647 221.123L362.077 187.47C362.077 187.47 370.617 168.672 371.577 166.27C372.527 163.868 370.897 157.091 371.717 155.27C372.527 153.458 375.397 152.217 375.397 152.217Z" fill="#292C38"/>
<path d="M435.497 163.678C435.497 163.678 416.957 167.812 398.017 206.809L381.787 220.062C381.787 220.062 392.287 214.316 405.107 212.605C417.927 210.893 424.327 216.058 424.327 216.058C424.327 216.058 425.457 204.076 407.787 207.87C407.787 207.87 412.807 189.002 427.327 180.794C427.327 180.794 424.757 177.641 420.147 178.332C420.137 178.342 424.257 169.373 435.497 163.678Z" fill="#0539DB"/>
<path d="M359.447 227.439C359.447 227.439 361.087 225.517 361.627 227.439C362.167 229.361 361.767 244.075 359.447 249.68C357.127 255.286 356.617 256.677 355.647 251.742C354.677 246.807 355.647 243.865 355.647 243.865L359.447 227.439Z" fill="#0539DB"/>
<path d="M379.597 244.115C378.388 244.115 377.407 243.559 377.407 242.874C377.407 242.188 378.388 241.633 379.597 241.633C380.807 241.633 381.787 242.188 381.787 242.874C381.787 243.559 380.807 244.115 379.597 244.115Z" fill="white"/>
<path d="M359.447 227.439C359.447 227.439 361.217 233.915 359.447 239.601C357.677 245.286 356.587 245.797 356.587 245.797L348.587 244.415C348.587 244.415 347.587 243.144 347.447 239.35C347.307 235.557 350.717 226.218 350.717 226.218L359.447 227.439Z" fill="white" stroke="#C8D4E8" stroke-miterlimit="10" stroke-linejoin="round"/>
<path d="M368.517 246.898C367.241 246.898 366.207 246.275 366.207 245.506C366.207 244.738 367.241 244.115 368.517 244.115C369.793 244.115 370.827 244.738 370.827 245.506C370.827 246.275 369.793 246.898 368.517 246.898Z" fill="white"/>
<path d="M312.827 185.829L331.637 242.874L285.157 233.244L265.257 174.838L312.827 185.829Z" fill="#CFD7E8" stroke="#C8D4E8" stroke-miterlimit="10" stroke-linejoin="round"/>
<path d="M350.857 227.048C350.857 227.048 343.977 227.619 340.907 223.885C337.837 220.152 336.407 218.26 330.347 216.869C324.277 215.477 322.377 214.787 322.377 214.787L324.697 221.833C324.697 221.833 318.957 223.155 313.637 221.123C308.317 219.081 300.517 215.768 296.807 218.2C295.647 218.961 299.877 220.282 301.037 222.124C302.197 223.956 303.017 226.238 304.237 229.201C305.467 232.173 311.187 237.418 316.977 238.81C322.767 240.201 335.397 238.249 338.787 238.81C342.167 239.37 348.327 240.892 349.007 240.071C349.697 239.25 351.737 232.744 350.857 227.048Z" fill="white" stroke="#C8D4E8" stroke-miterlimit="10" stroke-linejoin="round"/>
<path d="M400.097 109.726C399.747 109.706 399.427 109.886 399.147 110.106C398.247 110.807 397.677 111.878 397.447 112.989C397.207 114.1 397.287 115.261 397.477 116.392" stroke="#C8D4E8" stroke-miterlimit="10" stroke-linecap="round"/>
<path d="M379.287 115.031C378.719 115.031 378.257 114.569 378.257 114C378.257 113.43 378.719 112.969 379.287 112.969C379.856 112.969 380.317 113.43 380.317 114C380.317 114.569 379.856 115.031 379.287 115.031Z" fill="#C8D4E8"/>
<path d="M367.067 115.031C366.498 115.031 366.037 114.569 366.037 114C366.037 113.43 366.498 112.969 367.067 112.969C367.636 112.969 368.097 113.43 368.097 114C368.097 114.569 367.636 115.031 367.067 115.031Z" fill="#C8D4E8"/>
<path d="M376.497 104.491C376.497 105.221 377.197 105.812 379.587 105.812C381.977 105.812 385.147 105.221 385.147 104.491C385.147 103.76 381.977 103.169 379.587 103.169C377.197 103.169 376.497 103.76 376.497 104.491Z" fill="#C8D4E8"/>
<path d="M369.757 104.831C369.757 105.372 369.237 105.812 367.457 105.812C365.677 105.812 363.327 105.372 363.327 104.831C363.327 104.291 365.687 103.85 367.457 103.85C369.227 103.85 369.757 104.281 369.757 104.831Z" fill="#C8D4E8"/>
<path d="M370.487 114.19C369.857 116.763 369.237 119.335 368.607 121.907C368.537 122.178 368.477 122.448 368.467 122.728C368.447 123.559 368.997 123.819 369.757 124.16C370.397 124.44 371.387 124.53 372.357 124.67" stroke="#C8D4E8" stroke-miterlimit="10" stroke-linecap="round"/>
<path d="M373.397 132.057C376.667 131.987 378.617 128.083 378.697 127.923C378.797 127.713 378.747 127.462 378.567 127.312C378.477 127.242 378.367 127.202 378.257 127.202C378.147 127.202 378.037 127.242 377.947 127.312C377.927 127.322 376.027 128.744 371.397 128.744C370.877 128.744 370.317 128.724 369.727 128.683C369.717 128.683 369.707 128.683 369.697 128.683C369.547 128.683 369.407 128.754 369.307 128.874C369.207 129.004 369.167 129.174 369.217 129.324C369.487 130.275 370.687 132.057 373.277 132.057H373.397Z" fill="white"/>
<path d="M378.257 127.703C378.257 127.703 376.307 129.245 371.397 129.245C370.867 129.245 370.297 129.224 369.697 129.184C369.697 129.184 370.377 131.557 373.277 131.557C373.317 131.557 373.357 131.557 373.387 131.557C376.387 131.497 378.257 127.703 378.257 127.703ZM378.247 126.702C378.477 126.702 378.697 126.782 378.887 126.932C379.247 127.233 379.357 127.723 379.147 128.143C379.057 128.324 376.977 132.488 373.407 132.558H373.267C370.377 132.558 369.027 130.536 368.727 129.465C368.637 129.154 368.707 128.814 368.907 128.564C369.097 128.324 369.387 128.194 369.687 128.194C369.707 128.194 369.727 128.194 369.757 128.194C370.317 128.234 370.867 128.254 371.387 128.254C375.797 128.254 377.617 126.932 377.637 126.912C377.827 126.772 378.037 126.702 378.247 126.702Z" fill="#C8D4E8"/>
<path d="M370.797 134.169C369.517 135.34 371.167 137.182 372.427 137.472" stroke="#C8D4E8" stroke-miterlimit="10" stroke-linecap="round"/>
<path d="M369.367 81.0182C369.947 80.6778 370.567 80.3876 371.207 80.1173C371.057 80.2274 370.897 80.3375 370.747 80.4476C370.087 80.9281 369.417 81.4086 368.897 82.0291C368.367 82.6598 368.007 83.4105 367.677 84.1712C366.577 86.7437 366.467 89.176 367.707 91.7485C368.387 93.1498 369.217 94.5111 370.437 95.4721C372.737 97.2838 375.957 97.3238 378.847 96.8934C381.747 96.463 384.717 95.5822 387.677 96.0626C387.877 96.0927 388.037 96.1627 388.177 96.2528C387.767 96.2128 387.347 96.2528 386.937 96.403C381.677 98.3248 369.887 100.056 366.747 98.9254C363.107 97.6141 361.997 94.4711 361.687 91.8386C361.377 89.206 363.507 84.4615 369.367 81.0182Z" fill="#191B23"/>
</svg>
