<svg width="200" height="48" viewBox="0 0 200 48" fill="none" xmlns="http://www.w3.org/2000/svg">
<path d="M65.5383 13.5073C58.9826 13.5073 53.5195 16.2909 53.5195 24.6763C53.5195 31.3273 57.1963 35.507 65.703 35.507C75.7273 35.507 76.369 28.908 76.369 28.908H71.5216C71.5216 28.908 70.481 32.4633 65.4169 32.4633C61.2892 32.4633 58.3236 29.6797 58.3236 25.7689H76.8806V23.3148C76.8893 19.456 74.4353 13.5073 65.5383 13.5073ZM65.3735 16.6377C69.3017 16.6377 71.9725 19.0398 71.9725 22.6471H58.4363C58.4363 18.8143 61.9223 16.6377 65.3735 16.6377Z" fill="#B9BDC5"/>
<path d="M76.8804 5.38232V31.3015C76.8804 32.7757 76.7764 34.8395 76.7764 34.8395H81.407C81.407 34.8395 81.5717 33.3567 81.5717 32.0039C81.5717 32.0039 83.861 35.5853 90.0785 35.5853C96.6342 35.5853 101.083 31.0327 101.083 24.5204C101.083 18.459 96.9897 13.5856 90.0871 13.5856C83.6182 13.5856 81.6151 17.0715 81.6151 17.0715V5.38232H76.8804ZM88.8992 16.768C93.3476 16.768 96.1746 20.0719 96.1746 24.5031C96.1746 29.2551 92.9054 32.3681 88.9252 32.3681C84.1732 32.3681 81.6151 28.6567 81.6151 24.5464C81.6151 20.7223 83.913 16.768 88.8992 16.768Z" fill="#B9BDC5"/>
<path d="M112.599 13.5073C102.739 13.5073 102.106 18.9097 102.106 19.7682H107.014C107.014 19.7682 107.274 16.6117 112.261 16.6117C115.504 16.6117 118.019 18.0946 118.019 20.9475V21.9621H112.261C104.621 21.9621 100.58 24.1993 100.58 28.7345C100.58 33.2004 104.318 35.6284 109.356 35.6284C116.232 35.6284 118.443 31.8303 118.443 31.8303C118.443 33.3391 118.565 34.8306 118.565 34.8306H122.927C122.927 34.8306 122.753 32.9836 122.753 31.8043V21.6065C122.753 14.9121 117.351 13.5073 112.599 13.5073ZM118.01 25.0144V26.3672C118.01 28.1362 116.917 32.524 110.5 32.524C106.988 32.524 105.479 30.7723 105.479 28.7345C105.488 25.0405 110.561 25.0144 118.01 25.0144Z" fill="#B9BDC5"/>
<path d="M120.108 14.3486H125.632L133.558 30.2262L141.466 14.3486H146.47L132.066 42.6178H126.82L130.974 34.7354L120.108 14.3486Z" fill="#B9BDC5"/>
</svg>
