<svg width="320" height="320" viewBox="0 0 320 320" fill="none" xmlns="http://www.w3.org/2000/svg">
<g clip-path="url(#clip0_490_2257)">
<path d="M260.593 142.516H110.137C107.339 142.516 105.072 140.255 105.072 137.462V42.2823C105.072 39.4899 107.339 37.2285 110.137 37.2285H260.593C263.392 37.2285 265.659 39.4899 265.659 42.2823V137.467C265.659 140.255 263.388 142.516 260.593 142.516Z" fill="white" stroke="#C8D4E8" stroke-miterlimit="10" stroke-linejoin="round"/>
<path d="M145.451 117.339H111.041V124.526H145.451V117.339Z" stroke="#C8D4E8" stroke-miterlimit="10" stroke-linejoin="round"/>
<path d="M137.652 126.952H111.041V129.241H137.652V126.952Z" stroke="#C8D4E8" stroke-miterlimit="10" stroke-linejoin="round"/>
<path d="M198.673 117.339H173.897V122.512H198.673V117.339Z" stroke="#C8D4E8" stroke-miterlimit="10" stroke-linejoin="round"/>
<path d="M194.369 125.295H173.897V127.584H194.369V125.295Z" stroke="#C8D4E8" stroke-miterlimit="10" stroke-linejoin="round"/>
<path d="M251.436 117.339H226.66V122.512H251.436V117.339Z" stroke="#C8D4E8" stroke-miterlimit="10" stroke-linejoin="round"/>
<path d="M245.82 125.295H226.66V127.584H245.82V125.295Z" stroke="#C8D4E8" stroke-miterlimit="10" stroke-linejoin="round"/>
<path d="M164.506 110.014H114.464C112.573 110.014 111.041 108.485 111.041 106.599V56.6655C111.041 54.7794 112.573 53.2505 114.464 53.2505H164.506C166.396 53.2505 167.928 54.7794 167.928 56.6655V106.595C167.933 108.485 166.396 110.014 164.506 110.014Z" stroke="#C8D4E8" stroke-miterlimit="10" stroke-linejoin="round"/>
<path d="M218.012 110.014H176.577C175.095 110.014 173.897 108.815 173.897 107.341V65.9952C173.897 64.5166 175.1 63.3218 176.577 63.3218H218.012C219.494 63.3218 220.691 64.5211 220.691 65.9952V107.337C220.696 108.815 219.494 110.014 218.012 110.014Z" stroke="#C8D4E8" stroke-miterlimit="10" stroke-linejoin="round"/>
<path d="M265.659 110.014H229.34C227.858 110.014 226.66 108.815 226.66 107.341V65.9952C226.66 64.5166 227.862 63.3218 229.34 63.3218H265.659V110.014Z" stroke="#C8D4E8" stroke-miterlimit="10" stroke-linejoin="round"/>
<path d="M112.417 45.4688C113.178 45.4688 113.794 44.8539 113.794 44.0955C113.794 43.337 113.178 42.7222 112.417 42.7222C111.657 42.7222 111.041 43.337 111.041 44.0955C111.041 44.8539 111.657 45.4688 112.417 45.4688Z" fill="#CFD7E8"/>
<path d="M163.345 124.663H156.005C154.229 124.663 152.793 123.23 152.793 121.459C152.793 119.687 154.229 118.254 156.005 118.254H163.345C165.121 118.254 166.557 119.687 166.557 121.459C166.557 123.23 165.116 124.663 163.345 124.663Z" fill="#DDE4F1"/>
<path d="M217.438 123.908H210.097C208.322 123.908 206.886 122.475 206.886 120.703C206.886 118.932 208.322 117.499 210.097 117.499H217.438C219.214 117.499 220.65 118.932 220.65 120.703C220.65 122.475 219.214 123.908 217.438 123.908Z" fill="#DDE4F1"/>
<path d="M118.841 45.4688C119.601 45.4688 120.218 44.8539 120.218 44.0955C120.218 43.337 119.601 42.7222 118.841 42.7222C118.081 42.7222 117.465 43.337 117.465 44.0955C117.465 44.8539 118.081 45.4688 118.841 45.4688Z" fill="#CFD7E8"/>
<path d="M125.264 45.4688C126.024 45.4688 126.641 44.8539 126.641 44.0955C126.641 43.337 126.024 42.7222 125.264 42.7222C124.504 42.7222 123.888 43.337 123.888 44.0955C123.888 44.8539 124.504 45.4688 125.264 45.4688Z" stroke="#C8D4E8" stroke-miterlimit="10" stroke-linejoin="round"/>
<path d="M131.169 83.116L126.007 100.072C125.695 101.097 126.466 102.132 127.535 102.132H151.43C152.503 102.132 153.27 101.097 152.958 100.072L147.796 83.116C147.603 82.4888 147.489 81.8434 147.452 81.1888L146.892 71.7037C147.53 71.7037 147.856 73.1961 147.856 73.1961L152.783 72.4591C152.783 72.4591 152.783 68.0324 150.32 64.5945C147.856 61.1521 143.915 61.1521 143.915 61.1521C143.915 62.3789 141.451 63.6012 139.478 63.6012V63.5829C137.505 63.5829 135.041 62.3652 135.041 61.1338C135.041 61.1338 131.1 61.1338 128.636 64.5762C126.173 68.0187 126.173 72.4408 126.173 72.4408L131.1 73.1778C131.1 73.1778 131.426 71.6854 132.064 71.6854L131.504 81.1888C131.472 81.8434 131.357 82.4888 131.169 83.116Z" fill="#DDE4F1"/>
<path d="M210.455 99.1605H184.129C183.271 99.1605 182.61 98.4006 182.725 97.5537L184.973 81.518C185.069 80.8222 185.67 80.3003 186.377 80.3003H208.202C208.909 80.3003 209.505 80.8176 209.606 81.518L211.854 97.5537C211.978 98.4006 211.318 99.1605 210.455 99.1605Z" stroke="#C8D4E8" stroke-miterlimit="10" stroke-linejoin="round"/>
<path d="M187.703 79.3619C187.703 76.4962 190.029 74.1753 192.901 74.1753H201.692C204.564 74.1753 206.89 76.4962 206.89 79.3619" stroke="#C8D4E8" stroke-miterlimit="10" stroke-linecap="round"/>
<path d="M243.397 90.5686C243.466 90.5686 243.521 90.6235 243.521 90.6922V100.965C243.521 101.033 243.466 101.088 243.397 101.088H238.566C238.497 101.088 238.442 101.033 238.442 100.965V90.6968C238.442 90.6281 238.497 90.5732 238.566 90.5732H243.397V90.5686ZM243.397 90.1108H238.566C238.245 90.1108 237.983 90.3718 237.983 90.6922V100.965C237.983 101.285 238.245 101.546 238.566 101.546H243.397C243.718 101.546 243.98 101.285 243.98 100.965V90.6968C243.98 90.3718 243.718 90.1108 243.397 90.1108Z" fill="#C8D4E8"/>
<path d="M242.765 87.7122L242.778 87.7259L242.765 89.438L238.915 89.4242L238.929 87.7122H242.765ZM242.765 87.2544H238.934C238.672 87.2544 238.461 87.465 238.461 87.7259V89.4242C238.461 89.6852 238.672 89.8957 238.934 89.8957H242.765C243.026 89.8957 243.237 89.6852 243.237 89.4242V87.7259C243.242 87.465 243.026 87.2544 242.765 87.2544Z" fill="#C8D4E8"/>
<path d="M242.562 82.6492L242.553 86.5815L239.263 86.5723V85.1075C239.263 84.9473 239.341 84.8008 239.475 84.7092L242.562 82.6492ZM242.617 82.1411C242.544 82.1411 242.466 82.164 242.393 82.2098L239.222 84.3293C238.961 84.5032 238.805 84.7962 238.805 85.1075V86.5723C238.805 86.8287 239.016 87.0393 239.273 87.0393H242.553C242.81 87.0393 243.021 86.8287 243.021 86.5723V82.5485C243.021 82.3105 242.828 82.1411 242.617 82.1411Z" fill="#C8D4E8"/>
<path d="M251.307 90.5686C251.495 90.5686 251.651 90.7197 251.651 90.9119V100.749C251.651 100.937 251.5 101.093 251.307 101.093H246.87C246.682 101.093 246.526 100.942 246.526 100.749V90.9119C246.526 90.7243 246.678 90.5686 246.87 90.5686H251.307ZM251.307 90.1108H246.87C246.43 90.1108 246.067 90.4679 246.067 90.9119V100.749C246.067 101.189 246.425 101.551 246.87 101.551H251.307C251.747 101.551 252.11 101.194 252.11 100.749V90.9119C252.105 90.4725 251.747 90.1108 251.307 90.1108Z" fill="#C8D4E8"/>
<path d="M263.369 98.3186V100.099C263.369 100.644 262.924 101.093 262.374 101.093H256.34C255.794 101.093 255.345 100.649 255.345 100.099V98.3186H263.369ZM263.617 97.8608H255.102C254.987 97.8608 254.891 97.957 254.891 98.0714V100.099C254.891 100.9 255.542 101.55 256.345 101.55H262.378C263.181 101.55 263.833 100.9 263.833 100.099V98.0714C263.828 97.957 263.736 97.8608 263.617 97.8608Z" fill="#C8D4E8"/>
<path d="M263.658 96.5059H255.06C254.964 96.5059 254.891 96.5837 254.891 96.6752V97.1834C254.891 97.2795 254.969 97.3527 255.06 97.3527H263.658C263.755 97.3527 263.828 97.2749 263.828 97.1834V96.6752C263.828 96.5791 263.755 96.5059 263.658 96.5059Z" fill="#C8D4E8"/>
<path d="M264.406 72.2439L263.387 95.5491H255.326L254.308 72.2439H264.406ZM264.888 71.7861H253.835L254.881 95.7825C254.886 95.9107 254.991 96.0068 255.12 96.0068H263.608C263.736 96.0068 263.837 95.9061 263.846 95.7825L264.888 71.7861Z" fill="#C8D4E8"/>
<path d="M249.412 76.1992H248.935C248.719 76.1992 248.545 76.3732 248.545 76.5883V89.9003H249.412V76.1992Z" fill="#C8D4E8"/>
<path d="M250.11 75.7231H247.848C247.632 75.7231 247.458 75.8971 247.458 76.1123C247.458 76.3274 247.632 76.5014 247.848 76.5014H250.11C250.326 76.5014 250.5 76.3274 250.5 76.1123C250.5 75.8971 250.326 75.7231 250.11 75.7231Z" fill="#C8D4E8"/>
<path d="M250.499 76.895H247.457C247.242 76.895 247.067 77.069 247.067 77.2841C247.067 77.4993 247.242 77.6732 247.457 77.6732H250.499C250.715 77.6732 250.889 77.4993 250.889 77.2841C250.889 77.069 250.715 76.895 250.499 76.895Z" fill="#C8D4E8"/>
<path d="M250.715 78.0669H247.238C247.022 78.0669 246.848 78.2408 246.848 78.456C246.848 78.6712 247.022 78.8451 247.238 78.8451H250.715C250.931 78.8451 251.105 78.6712 251.105 78.456C251.11 78.2408 250.931 78.0669 250.715 78.0669Z" fill="#C8D4E8"/>
<path d="M250.499 79.2339H247.457C247.242 79.2339 247.067 79.4078 247.067 79.623C247.067 79.8381 247.242 80.0121 247.457 80.0121H250.499C250.715 80.0121 250.889 79.8381 250.889 79.623C250.889 79.4078 250.715 79.2339 250.499 79.2339Z" fill="#C8D4E8"/>
<path d="M250.11 80.4058H247.848C247.632 80.4058 247.458 80.5797 247.458 80.7949C247.458 81.01 247.632 81.184 247.848 81.184H250.11C250.326 81.184 250.5 81.01 250.5 80.7949C250.5 80.5797 250.326 80.4058 250.11 80.4058Z" fill="#C8D4E8"/>
<path d="M265.659 123.908H262.217C260.442 123.908 259.006 122.475 259.006 120.703C259.006 118.932 260.442 117.499 262.217 117.499H265.659V123.908Z" fill="#DDE4F1"/>
<path d="M224.725 233.434V228.811C224.725 221.784 230.432 216.089 237.475 216.089H241.416" stroke="#C8D4E8" stroke-miterlimit="10" stroke-linejoin="round"/>
<path d="M220.205 240.965H201.151C200.316 240.965 199.637 240.287 199.637 239.454V225.254C199.637 224.421 200.316 223.743 201.151 223.743H220.205C221.04 223.743 221.719 224.421 221.719 225.254V239.454C221.719 240.287 221.04 240.965 220.205 240.965Z" fill="white" stroke="#C8D4E8" stroke-miterlimit="10" stroke-linejoin="round"/>
<path d="M199.637 230.349H221.719" stroke="#C8D4E8" stroke-miterlimit="10" stroke-linejoin="round"/>
<path d="M208.455 240.965V223.743" stroke="#C8D4E8" stroke-miterlimit="10" stroke-linejoin="round"/>
<path d="M212.901 223.743V240.965" stroke="#C8D4E8" stroke-miterlimit="10" stroke-linejoin="round"/>
<path d="M206.198 217.092C207.446 217.092 208.455 218.099 208.455 219.344V223.748H206.198C204.95 223.748 203.94 222.741 203.94 221.496V219.344C203.94 218.099 204.95 217.092 206.198 217.092Z" stroke="#C8D4E8" stroke-miterlimit="10" stroke-linejoin="round"/>
<path d="M215.19 217.092C213.942 217.092 212.933 218.099 212.933 219.344V223.748H215.19C216.438 223.748 217.447 222.741 217.447 221.496V219.344C217.447 218.099 216.438 217.092 215.19 217.092Z" stroke="#C8D4E8" stroke-miterlimit="10" stroke-linejoin="round"/>
<path d="M224.724 267.223H161.602L147.471 231.292C146.915 229.882 147.957 228.362 149.476 228.362H224.724V267.223Z" fill="white" stroke="#C8D4E8" stroke-miterlimit="10" stroke-linejoin="round"/>
<path d="M161.602 267.223L165.827 276.602L181.656 267.223H161.602Z" stroke="#C8D4E8" stroke-miterlimit="10" stroke-linejoin="round"/>
<path d="M224.724 267.223V276.602L209.593 267.223H224.724Z" stroke="#C8D4E8" stroke-miterlimit="10" stroke-linejoin="round"/>
<path d="M166.189 284C170.203 284 173.457 280.753 173.457 276.749C173.457 272.744 170.203 269.498 166.189 269.498C162.176 269.498 158.922 272.744 158.922 276.749C158.922 280.753 162.176 284 166.189 284Z" fill="#292C38"/>
<path d="M166.19 279.747C167.849 279.747 169.195 278.405 169.195 276.749C169.195 275.093 167.849 273.75 166.19 273.75C164.53 273.75 163.185 275.093 163.185 276.749C163.185 278.405 164.53 279.747 166.19 279.747Z" fill="white"/>
<path d="M224.725 284C228.738 284 231.992 280.753 231.992 276.749C231.992 272.744 228.738 269.498 224.725 269.498C220.711 269.498 217.457 272.744 217.457 276.749C217.457 280.753 220.711 284 224.725 284Z" fill="#292C38"/>
<path d="M224.724 279.747C226.384 279.747 227.729 278.405 227.729 276.749C227.729 275.093 226.384 273.75 224.724 273.75C223.064 273.75 221.719 275.093 221.719 276.749C221.719 278.405 223.064 279.747 224.724 279.747Z" fill="white"/>
<path d="M166.189 240.058H204.752" stroke="#C8D4E8" stroke-miterlimit="10" stroke-linecap="round" stroke-linejoin="round"/>
<path d="M169.663 248.353H213.534" stroke="#C8D4E8" stroke-miterlimit="10" stroke-linecap="round" stroke-linejoin="round"/>
<path d="M172.384 256.652H213.534" stroke="#C8D4E8" stroke-miterlimit="10" stroke-linecap="round" stroke-linejoin="round"/>
<path d="M180.5 238.122V261.423" stroke="#C8D4E8" stroke-miterlimit="10" stroke-linecap="round" stroke-linejoin="round"/>
<path d="M189.864 246.852V259.889" stroke="#C8D4E8" stroke-miterlimit="10" stroke-linecap="round" stroke-linejoin="round"/>
<path d="M199.224 232.917V255.815" stroke="#C8D4E8" stroke-miterlimit="10" stroke-linecap="round" stroke-linejoin="round"/>
<path d="M208.588 242.457V261.423" stroke="#C8D4E8" stroke-miterlimit="10" stroke-linecap="round" stroke-linejoin="round"/>
<path d="M188.62 216.089H166.189V228.344H188.62V216.089Z" fill="white" stroke="#C8D4E8" stroke-miterlimit="10" stroke-linejoin="round"/>
<path d="M77.6677 77.389L81.7281 81.2068L82.2511 84.132L82.2465 84.251C82.0997 87.5378 81.6547 97.5493 72.2813 97.6454H72.2125C70.6342 97.6454 69.478 97.1006 68.6705 95.9837C65.5001 91.5799 68.9733 80.012 69.5973 78.0436L77.6677 77.389ZM77.8328 76.9175L69.2578 77.6133C69.2578 77.6133 62.339 98.1077 72.2125 98.1077C72.2354 98.1077 72.2629 98.1077 72.2905 98.1077C82.2741 98.0025 82.5769 87.1166 82.7145 84.1045L82.1548 80.9825L77.8328 76.9175Z" fill="#C8D4E8"/>
<path d="M74.7811 94.2075V108.051H67.9861V96.2995L74.7811 94.2075ZM75.2399 93.585L67.5273 95.9562V108.504H75.2399V93.585Z" fill="#C8D4E8"/>
<path d="M61.9438 67.9682C56.4244 71.0033 57.9568 77.6135 57.9568 77.6135C57.9568 77.6135 54.4561 80.264 56.2593 87.2954C58.0624 94.3222 65.6648 97.7234 71.2714 98.0805C76.8734 98.4421 77.791 95.2377 77.3322 93.8644C76.8734 92.4911 73.469 88.774 75.942 86.4668C78.415 84.1596 78.8646 81.5915 78.8141 80.3006C78.8141 80.3006 81.3284 80.9186 82.714 84.1001C82.714 84.1001 83.5169 78.7304 79.1123 73.814C79.1123 73.814 80.5989 71.1955 78.5205 68.9387C76.8825 67.158 72.7349 68.3711 72.7349 68.3711C72.7349 68.3711 68.3717 64.4342 61.9438 67.9682Z" fill="#292C38"/>
<path d="M98.4834 224.348C96.8409 215.119 94.1614 190.592 84.3155 150.935C72.1984 146.471 61.0403 152.281 61.0403 152.281C61.0403 152.281 59.852 161.358 53.9839 175.101C48.1158 188.847 41.3713 203.853 39.4627 210.692C37.5541 217.527 35.0352 226.371 32.7871 229.397C30.5389 232.423 31.9383 238.813 44.7206 243.405C57.5029 247.992 71.9048 250.441 86.4581 247.287C101.011 244.133 100.126 233.572 98.4834 224.348Z" fill="#EBF0F7"/>
<path d="M52.5942 196.163C52.5942 196.163 56.6501 217.939 42.0004 222.828C36.848 224.549 39.2843 219.573 43.5695 215.297C47.864 211.013 51.7684 206.517 52.5942 196.163Z" fill="#DDE4F1"/>
<path d="M81.1865 248.188C81.2968 248.175 81.4116 248.156 81.5218 248.143C81.407 248.156 81.2968 248.175 81.1865 248.188Z" fill="#DDE4F1"/>
<path d="M79.4883 248.381C79.5118 248.381 79.5306 248.376 79.5541 248.376C79.5353 248.376 79.5118 248.376 79.4883 248.381Z" fill="#DDE4F1"/>
<path d="M86.4631 247.282C86.4581 247.282 86.4581 247.282 86.4531 247.282C86.4581 247.287 86.4581 247.287 86.4631 247.282C86.4681 247.282 86.4681 247.282 86.4731 247.282C86.4681 247.282 86.4681 247.282 86.4631 247.282Z" fill="#DDE4F1"/>
<path d="M77.6211 248.537C77.7313 248.527 77.837 248.523 77.9472 248.514C77.837 248.523 77.7313 248.532 77.6211 248.537Z" fill="#DDE4F1"/>
<path d="M75.9883 248.632C76.0847 248.628 76.1766 248.623 76.273 248.619C76.1812 248.623 76.0847 248.628 75.9883 248.632Z" fill="#DDE4F1"/>
<path d="M82.7646 247.964C82.9298 247.937 83.095 247.914 83.2647 247.886C83.0996 247.914 82.9298 247.937 82.7646 247.964Z" fill="#DDE4F1"/>
<path d="M97.8274 239.816C97.419 240.622 96.9097 241.391 96.2949 242.114C96.9143 241.391 97.419 240.622 97.8274 239.816Z" fill="#DDE4F1"/>
<path d="M68.2021 241.958C74.3593 244.586 80.6312 246.289 86.2378 245.405C93.7484 244.22 96.6343 241.784 97.8272 239.811C100.107 235.302 99.4193 229.608 98.4833 224.348C96.9922 215.975 94.6477 195 86.8709 161.555C87.7381 165.318 90.3303 176.845 85.366 182.896C85.366 182.896 81.8837 186.54 82.9298 195.558C83.9759 204.577 93.152 214.551 94.7349 224.009C96.3177 233.462 92.6702 237.065 92.6702 237.065C88.7199 241.372 76.5432 244.279 68.2021 241.958Z" fill="#DDE4F1"/>
<path d="M84.4072 247.689C84.5678 247.662 84.7238 247.635 84.8844 247.603C84.7238 247.635 84.5632 247.662 84.4072 247.689Z" fill="#DDE4F1"/>
<path d="M94.2815 243.991C94.1437 244.091 94.0105 244.197 93.8682 244.297C94.0105 244.197 94.1437 244.096 94.2815 243.991Z" fill="#DDE4F1"/>
<path d="M94.9738 243.437C94.8406 243.551 94.712 243.661 94.5742 243.771C94.712 243.661 94.8452 243.551 94.9738 243.437Z" fill="#DDE4F1"/>
<path d="M93.469 244.559C93.2533 244.696 93.0331 244.833 92.8037 244.966C93.0331 244.833 93.2533 244.696 93.469 244.559Z" fill="#DDE4F1"/>
<path d="M92.2993 245.25C92.1707 245.318 92.0375 245.382 91.9043 245.446C92.0329 245.382 92.1707 245.314 92.2993 245.25Z" fill="#DDE4F1"/>
<path d="M95.7949 242.668C95.9235 242.535 96.0521 242.402 96.1716 242.265C96.0475 242.398 95.9235 242.535 95.7949 242.668Z" fill="#DDE4F1"/>
<path d="M89.2934 246.508C89.1465 246.559 89.0041 246.604 88.8525 246.655C89.0041 246.609 89.1511 246.559 89.2934 246.508Z" fill="#DDE4F1"/>
<path d="M88.0922 246.879C87.9591 246.916 87.835 246.953 87.6973 246.989C87.8305 246.953 87.9591 246.916 88.0922 246.879Z" fill="#DDE4F1"/>
<path d="M91.3766 245.698C91.2389 245.762 91.0965 245.822 90.9541 245.881C91.0965 245.822 91.2389 245.762 91.3766 245.698Z" fill="#DDE4F1"/>
<path d="M95.2168 243.226C95.35 243.107 95.4786 242.983 95.6026 242.86C95.4786 242.983 95.35 243.107 95.2168 243.226Z" fill="#DDE4F1"/>
<path d="M90.3809 246.12C90.2341 246.175 90.0918 246.234 89.9404 246.284C90.0872 246.234 90.2341 246.175 90.3809 246.12Z" fill="#DDE4F1"/>
<path d="M53.2914 142.681C53.2914 142.681 59.7514 138.401 65.3764 137.248C65.3764 137.248 66.2297 145.08 58.297 148.71C50.3643 152.34 47.3545 150.939 47.3545 150.939L53.2914 142.681Z" fill="white" stroke="#C8D4E8" stroke-miterlimit="10" stroke-linejoin="round"/>
<path d="M92.4362 131.635C92.4362 131.635 103.686 126.769 105.613 121.267C105.613 121.267 104.966 113.704 108.155 110.459C108.462 110.147 108.994 110.344 109.027 110.779C109.095 111.75 109.15 113.269 108.958 114.455C108.939 114.56 109.086 114.606 109.132 114.51C110.059 112.651 112.491 108.316 116.303 105.396C116.487 105.258 116.753 105.368 116.776 105.597C116.84 106.238 116.601 107.611 114.583 110.06C114.583 110.06 116.184 109.955 116.01 111.621C116.01 111.621 117.267 111.567 117.092 113.013C117.092 113.013 118.675 112.693 118.363 114.226C118.051 115.76 116.748 118.708 113.835 121.482C110.921 124.256 107.728 126.073 104.085 132.285C100.442 138.502 97.9373 147.982 94.2576 147.483C90.5826 146.989 92.4362 131.635 92.4362 131.635Z" fill="white" stroke="#C8D4E8" stroke-miterlimit="10" stroke-linejoin="round"/>
<path d="M60.3018 107.538C60.3018 107.538 62.7518 101.326 71.3865 101.047C80.0212 100.768 79.6083 106.526 79.6083 106.526L60.3018 107.538Z" fill="#3457E5"/>
<path d="M60.8848 107.51L79.6086 106.526C79.6086 106.526 79.7004 105.235 78.8791 103.903C78.2827 103.139 65.6013 102.534 60.8848 107.51Z" fill="#0539DB"/>
<path d="M71.2719 104.728C62.6555 105.034 52.1581 110.578 48.9097 117.985C45.6614 125.391 37.3203 147.305 45.3632 150.825C51.7819 153.636 55.0119 148.834 55.7735 141.523C56.5351 134.208 58.0904 130.175 58.0904 130.175C58.0904 130.175 59.9899 132.761 60.724 136.144C61.4581 139.527 61.6324 150.01 61.0451 152.281C61.0451 152.281 72.1987 146.472 84.3203 150.935C84.3203 150.935 82.9944 147.117 84.1506 142.814C84.1506 142.814 85.137 150.294 93.1936 149.607C101.25 148.921 98.9333 132.94 96.4374 123.611C93.9415 114.281 84.7011 104.247 71.2719 104.728Z" fill="#3457E5"/>
<path d="M60.926 67.9774C60.926 67.9774 52.7088 67.7302 51.7545 72.9443C51.2865 75.4849 53.3465 77.1054 56.6637 77.0917" stroke="#292C38" stroke-width="0.75" stroke-miterlimit="10" stroke-linecap="round"/>
<path d="M55.8565 78.0986C55.8565 78.0986 51.117 81.5136 52.7825 87.515C54.1176 92.317 60.9309 93.5896 60.9309 93.5896" stroke="#292C38" stroke-width="0.75" stroke-miterlimit="10" stroke-linecap="round"/>
<path d="M59.1455 95.3843C59.1455 95.3843 59.4437 100.104 64.1924 100.434C68.941 100.763 69.6338 96.6844 69.6338 96.6844" stroke="#292C38" stroke-width="0.75" stroke-miterlimit="10" stroke-linecap="round"/>
<path d="M71.3318 99.3853C71.3318 99.3853 70.3821 105.075 65.0967 105.085" stroke="#292C38" stroke-width="0.75" stroke-miterlimit="10" stroke-linecap="round"/>
<path d="M70.373 96.7669C70.373 96.7669 73.5984 101.761 80.8613 97.9114C83.0177 96.7669 84.4813 93.503 82.2745 92.3174" stroke="#292C38" stroke-width="0.75" stroke-miterlimit="10" stroke-linecap="round"/>
<path d="M80.7416 94.0796C80.7416 94.0796 81.1592 95.517 80.4296 96.991C79.6956 98.465 78.6862 100.557 81.2968 101.66C83.9074 102.764 86.2427 103.903 85.4123 106.97" stroke="#292C38" stroke-width="0.75" stroke-miterlimit="10" stroke-linecap="round"/>
<path d="M84.1503 142.818C83.5401 139.692 81.6774 133.603 80.8745 122.846C80.6634 120.044 81.1543 115.265 81.1543 115.265C81.1543 115.265 78.6539 126.247 82.7326 142.763C83.1364 144.407 83.976 148.573 78.2134 148.55C73.9786 148.531 66.39 148.335 61.0449 152.285C61.0449 152.285 72.1985 146.476 84.3201 150.939C84.3155 150.935 82.9896 147.121 84.1503 142.818Z" fill="#0539DB"/>
<path d="M44.7206 243.405C57.5029 247.992 71.9048 250.441 86.4581 247.287C92.7117 245.932 96.1068 243.208 97.8227 239.816C96.6298 241.789 93.744 244.224 86.2333 245.41C75.9744 247.03 63.4904 239.994 53.548 234.455C43.6012 228.916 35.1178 226.701 32.7871 229.402C30.5436 232.423 31.9383 238.813 44.7206 243.405Z" fill="#292C38"/>
<path d="M30.2962 275.114C28.1031 275.114 26.69 274.13 26.2725 273.796C28.594 269.378 29.53 264.141 30.6173 258.09C31.4248 253.585 32.3379 248.481 33.985 243.043C34.3979 241.674 34.8659 240.346 35.3797 239.106C37.3985 234.199 39.798 231.301 41.4864 229.712C44.0282 230.541 46.8636 231.754 49.9239 233.324C49.2357 235.924 47.8592 239.559 45.8405 244.132C43.9502 248.422 41.5369 253.448 38.6648 259.078C34.4438 267.36 32.9435 273.75 32.7278 274.748C31.902 274.986 31.0853 275.114 30.2962 275.114Z" fill="white"/>
<path d="M41.5461 229.965C43.9961 230.775 46.7214 231.942 49.6532 233.439C48.9512 236.016 47.5977 239.578 45.6294 244.036C43.7392 248.321 41.3258 253.343 38.4583 258.969C34.3841 266.962 32.8379 273.206 32.5305 274.561C31.7689 274.78 31.0165 274.89 30.2962 274.89C28.3829 274.89 27.0891 274.121 26.5615 273.737C28.8326 269.324 29.764 264.128 30.8376 258.136C31.6451 253.641 32.5581 248.541 34.2006 243.112C34.6089 241.748 35.0769 240.434 35.5908 239.193C37.5591 234.414 39.8806 231.558 41.5461 229.965ZM41.4314 229.447C39.6191 231.123 37.2058 234.066 35.1687 239.015C34.6732 240.214 34.2006 241.528 33.7647 242.974C29.9245 255.668 30.131 266.101 25.9834 273.851C25.9834 273.851 27.5342 275.343 30.2962 275.343C31.0761 275.343 31.957 275.224 32.9251 274.918C32.9251 274.918 34.2557 268.23 38.8712 259.175C41.0276 254.945 43.7575 249.42 46.0515 244.22C47.8868 240.068 49.4421 236.117 50.1945 233.201C47.0196 231.562 44.0466 230.29 41.4314 229.447Z" fill="#C8D4E8"/>
<path d="M32.9248 274.918C28.5386 276.305 25.9877 273.856 25.9831 273.851C25.9326 273.865 22.9229 274.803 19.1331 281.477C18.7477 282.16 19.2387 283.006 20.0232 283.006H33.0808C33.6176 283.006 34.0397 282.549 33.9892 282.018C33.9021 281.107 33.7094 279.706 33.2781 278.429C32.5578 276.305 32.9248 274.918 32.9248 274.918Z" fill="#CFD7E8"/>
<path d="M41.4318 229.447C41.0739 229.777 40.6931 230.161 40.2939 230.596C42.4549 231.407 47.6669 234.442 45.9372 244.48C45.974 244.394 46.0152 244.307 46.0519 244.22C47.8872 240.068 49.4425 236.117 50.195 233.201C47.02 231.562 44.047 230.29 41.4318 229.447Z" fill="#292C38"/>
<path d="M80.0258 248.783C79.9432 259.308 78.2273 274.364 78.2273 274.364C75.0019 273.352 72.3958 274.574 72.3958 274.574C72.3958 274.574 70.7304 267.131 70.0055 255.691C69.8449 253.141 69.799 250.953 69.8219 249.09C69.8495 246.577 70.0146 244.654 70.1982 243.24C73.497 244.526 76.805 245.497 80.0028 245.895C80.0304 246.806 80.0349 247.772 80.0258 248.783Z" fill="white" stroke="#C8D4E8" stroke-miterlimit="10" stroke-linejoin="round"/>
<path d="M91.5282 282.558C90.8354 281.501 89.6288 280.063 87.8348 279.294C84.7608 277.976 83.0312 277.422 82.3796 276.996C81.7281 276.575 78.2321 274.364 78.2321 274.364L78.2275 274.359C75.0204 273.357 72.4282 274.556 72.4006 274.57L72.396 274.574C72.396 274.574 70.336 274.826 69.4367 282.65C69.3542 283.368 69.9185 284.005 70.6434 284L90.8033 283.876C91.4823 283.876 91.8999 283.126 91.5282 282.558Z" fill="#CFD7E8"/>
<path d="M80.0166 246.591C80.012 246.357 80.012 246.119 80.0028 245.895C76.805 245.497 73.497 244.526 70.1982 243.24C70.0146 244.654 69.8495 246.577 69.8219 249.09C69.799 250.953 69.8449 253.141 70.0055 255.691C70.0422 256.268 70.0835 256.826 70.1202 257.385C71.1479 246.897 77.4794 246.371 80.0166 246.591Z" fill="#292C38"/>
<path d="M56.6772 120.113C56.6772 120.113 55.2411 124.599 56.7735 129.809C58.0903 134.277 52.6535 143.917 53.9978 142.759C56.9983 140.173 53.7959 149.383 51.6487 150.363C47.4781 152.276 44.0187 150.189 42.2432 146.385C42.679 148.486 43.6471 150.074 45.3585 150.825C51.7771 153.636 55.0071 148.834 55.7687 141.523C56.5304 134.208 58.0857 130.175 58.0857 130.175C55.5715 126.705 56.6772 120.113 56.6772 120.113Z" fill="#0539DB"/>
<path d="M94.1655 118.058C94.2114 118.2 100.369 133.649 97.0881 140.25C93.7709 146.925 97.2716 143.157 96.3677 145.593C95.4639 148.023 90.5822 150.958 86.5264 147.515C87.8753 148.857 89.9674 149.891 93.1928 149.616C101.249 148.93 98.9325 132.949 96.4366 123.62C95.9411 121.761 95.1748 119.88 94.1655 118.058Z" fill="#0539DB"/>
<path d="M160.371 103.391H277.83V248.706H219.103" stroke="#C8D4E8" stroke-miterlimit="10" stroke-linejoin="round"/>
<path d="M160.371 105.039C161.284 105.039 162.023 104.301 162.023 103.391C162.023 102.481 161.284 101.743 160.371 101.743C159.459 101.743 158.72 102.481 158.72 103.391C158.72 104.301 159.459 105.039 160.371 105.039Z" fill="#CFD7E8"/>
<path d="M277.83 105.039C278.743 105.039 279.482 104.301 279.482 103.391C279.482 102.481 278.743 101.743 277.83 101.743C276.918 101.743 276.179 102.481 276.179 103.391C276.179 104.301 276.918 105.039 277.83 105.039Z" fill="#CFD7E8"/>
<path d="M219.103 250.354C220.015 250.354 220.755 249.616 220.755 248.706C220.755 247.795 220.015 247.058 219.103 247.058C218.191 247.058 217.451 247.795 217.451 248.706C217.451 249.616 218.191 250.354 219.103 250.354Z" fill="#CFD7E8"/>
<path d="M277.83 250.002C278.743 250.002 279.482 249.264 279.482 248.354C279.482 247.443 278.743 246.706 277.83 246.706C276.918 246.706 276.179 247.443 276.179 248.354C276.179 249.264 276.918 250.002 277.83 250.002Z" fill="#CFD7E8"/>
<path d="M296.288 198.937H259.368C256.895 198.937 254.886 196.936 254.886 194.464V157.627C254.886 155.16 256.891 153.155 259.368 153.155H296.288C298.761 153.155 300.771 155.155 300.771 157.627V194.464C300.771 196.936 298.766 198.937 296.288 198.937Z" fill="#F7F8FA" stroke="#C8D4E8" stroke-miterlimit="10" stroke-linejoin="round"/>
<path d="M278.138 159.884H277.831C270.04 159.884 263.723 166.183 263.723 173.96V190.051H269.426V173.96C269.426 169.337 273.197 165.578 277.826 165.578H278.134C282.768 165.578 286.534 169.341 286.534 173.96V190.051H292.237V173.96C292.247 166.183 285.929 159.884 278.138 159.884Z" fill="#3457E5"/>
<path d="M280.836 190.047H275.133V174.112C275.133 172.541 276.408 171.264 277.987 171.264C279.56 171.264 280.84 172.537 280.84 174.112V190.047H280.836Z" fill="#12D3EB"/>
<path d="M277.986 142.585C282.041 142.585 285.327 139.306 285.327 135.26C285.327 131.215 282.041 127.936 277.986 127.936C273.932 127.936 270.646 131.215 270.646 135.26C270.646 139.306 273.932 142.585 277.986 142.585Z" fill="white" stroke="#C8D4E8" stroke-miterlimit="10" stroke-linejoin="round"/>
<path d="M274.82 135.293L277.908 137.211L281.147 135.357L277.908 130.019L274.82 135.293Z" fill="#C8D4E8"/>
<path d="M274.82 136.057L277.94 140.502L281.147 135.984L277.908 137.952L274.82 136.057Z" fill="#DDE4F1"/>
<path d="M256.198 163.578C261.012 163.578 264.915 159.684 264.915 154.881C264.915 150.077 261.012 146.183 256.198 146.183C251.383 146.183 247.48 150.077 247.48 154.881C247.48 159.684 251.383 163.578 256.198 163.578Z" fill="white" stroke="#C8D4E8" stroke-miterlimit="10" stroke-linejoin="round"/>
<path d="M259.428 156.181C259.369 156.002 259.282 155.833 259.171 155.673C259.061 155.512 258.928 155.366 258.772 155.233C258.616 155.1 258.442 154.981 258.249 154.881C258.639 154.693 258.942 154.446 259.153 154.13C259.364 153.819 259.47 153.471 259.47 153.095C259.47 152.734 259.401 152.395 259.268 152.079C259.135 151.763 258.947 151.489 258.713 151.26C258.479 151.026 258.203 150.843 257.887 150.71C257.68 150.623 257.46 150.564 257.231 150.536H257.263V149.419H256.419V150.5L256.653 150.509H255.882V149.419H255.038V150.504L252.872 150.5V151.525H253.716V158.373H252.872V159.381H255.038V160.36H255.882V159.381H256.419V160.36H257.263V159.381H256.923C257.281 159.381 257.621 159.312 257.933 159.175C258.249 159.037 258.52 158.85 258.754 158.611C258.988 158.373 259.172 158.094 259.309 157.774C259.442 157.453 259.511 157.11 259.511 156.739C259.52 156.542 259.493 156.359 259.428 156.181ZM254.872 151.516H256.887C257.07 151.516 257.245 151.562 257.405 151.649C257.566 151.74 257.708 151.855 257.832 152.001C257.951 152.148 258.047 152.308 258.121 152.496C258.19 152.679 258.226 152.871 258.226 153.059C258.226 153.233 258.19 153.402 258.121 153.567C258.052 153.732 257.956 153.874 257.836 154.002C257.717 154.125 257.575 154.226 257.414 154.299C257.254 154.373 257.079 154.409 256.891 154.409H254.877V151.516H254.872ZM258.171 157.343C258.102 157.536 258.006 157.705 257.887 157.856C257.768 158.007 257.625 158.126 257.465 158.222C257.304 158.314 257.13 158.364 256.942 158.364H254.872V155.43H256.942C257.125 155.43 257.3 155.467 257.46 155.54C257.621 155.613 257.763 155.714 257.882 155.837C258.002 155.961 258.098 156.103 258.167 156.263C258.236 156.423 258.272 156.588 258.272 156.762C258.272 156.959 258.24 157.156 258.171 157.343Z" fill="#C8D4E8"/>
<path d="M168.397 178.296H122.397C120.195 178.296 118.41 176.515 118.41 174.318V165.46L112.537 161.555H122.213H168.397C170.599 161.555 172.384 163.336 172.384 165.533V174.313C172.384 176.515 170.599 178.296 168.397 178.296Z" fill="#CFD7E8"/>
<path d="M125.939 167.543H164.406" stroke="white" stroke-miterlimit="10" stroke-linecap="round"/>
<path d="M125.939 172.665H164.406" stroke="white" stroke-miterlimit="10" stroke-linecap="round"/>
<path d="M223.37 208.083H211.533C210.721 208.083 210.061 207.424 210.061 206.613V194.803C210.061 193.993 210.721 193.333 211.533 193.333H223.37C224.183 193.333 224.843 193.993 224.843 194.803V206.613C224.843 207.424 224.183 208.083 223.37 208.083Z" fill="white" stroke="#C8D4E8" stroke-miterlimit="10" stroke-linejoin="round"/>
<path d="M217.452 204.325L216.117 203.464C213.121 201.532 213.121 200.086 213.121 199.536C213.121 198.181 214.222 197.087 215.576 197.087C216.324 197.087 216.998 197.422 217.448 197.953C217.897 197.422 218.572 197.087 219.32 197.087C220.678 197.087 221.774 198.186 221.774 199.536C221.774 200.081 221.774 201.532 218.778 203.464L217.452 204.325Z" fill="#F7637F"/>
<path d="M213.074 159.751H196.429C194.589 159.751 193.098 158.264 193.098 156.428V139.82C193.098 137.984 194.589 136.497 196.429 136.497H213.074C214.914 136.497 216.405 137.984 216.405 139.82V156.428C216.405 158.264 214.914 159.751 213.074 159.751Z" fill="white" stroke="#C8D4E8" stroke-miterlimit="10" stroke-linejoin="round"/>
<path d="M208.183 154.217H201.324C200.792 154.217 200.365 153.786 200.365 153.26V142.988C200.365 142.456 200.797 142.031 201.324 142.031H208.183C208.716 142.031 209.142 142.461 209.142 142.988V153.26C209.142 153.791 208.711 154.217 208.183 154.217Z" fill="#DDE4F1"/>
<path d="M203.416 152.555H206.086" stroke="white" stroke-miterlimit="10" stroke-linecap="round"/>
<path d="M125.448 230.349H99.6261C96.7723 230.349 94.46 228.042 94.46 225.194V199.431C94.46 196.584 96.7723 194.276 99.6261 194.276H125.448C128.301 194.276 130.614 196.584 130.614 199.431V225.194C130.614 228.042 128.301 230.349 125.448 230.349Z" fill="white" stroke="#C8D4E8" stroke-miterlimit="10" stroke-linejoin="round"/>
<path d="M120.773 217.22H104.301C103.416 217.22 102.7 216.506 102.7 215.622V206.453C102.7 205.57 103.416 204.855 104.301 204.855H120.773C121.658 204.855 122.374 205.57 122.374 206.453V215.622C122.369 216.506 121.653 217.22 120.773 217.22Z" fill="white" stroke="#C8D4E8" stroke-miterlimit="10" stroke-linejoin="round"/>
<path d="M108.188 219.765H116.882" stroke="#C8D4E8" stroke-miterlimit="10" stroke-linecap="round" stroke-linejoin="round"/>
<path d="M112.532 217.22V219.765" stroke="#C8D4E8" stroke-miterlimit="10" stroke-linejoin="round"/>
<path d="M120.098 215.865H104.971C104.54 215.865 104.187 215.517 104.187 215.082V206.989C104.187 206.559 104.535 206.206 104.971 206.206H120.098C120.529 206.206 120.882 206.554 120.882 206.989V215.082C120.878 215.517 120.529 215.865 120.098 215.865Z" fill="#DDE4F1"/>
</g>
<defs>
<clipPath id="clip0_490_2257">
<rect width="282" height="247" fill="white" transform="translate(19 37)"/>
</clipPath>
</defs>
</svg>
