<svg width="200" height="48" viewBox="0 0 200 48" fill="none" xmlns="http://www.w3.org/2000/svg">
<g opacity="0.4">
<path d="M113.42 16.2901L110.71 22.8501L111.76 16.2901H107.79L105.58 22.1901L106.3 16.2901H101.48L99.5499 32.1301H104.55L106.99 26.7301L106.54 32.1301H111.71L118.26 16.2901H113.42ZM93.9099 19.6501C94.0299 19.2501 94.45 18.9201 94.85 18.9201C95.25 18.9201 95.4899 19.2501 95.3699 19.6501L94.6899 22.0101H93.22L93.9099 19.6501ZM92.1599 25.7401L92.45 24.7201L92.5099 24.5201H98.7599L99.83 20.7901C100.54 18.3101 99.1099 16.3001 96.6299 16.3001H94.6899C92.2099 16.3001 89.6199 18.3101 88.8999 20.7901L86.85 27.9401C86.14 30.4201 87.5699 32.4301 90.0499 32.4301H91.9899C94.4699 32.4301 97.0599 30.4201 97.7799 27.9401L98.4099 25.7401H93.9999L93.1 28.8801C92.95 29.3901 92.4199 29.8001 91.9099 29.8001C91.3999 29.8001 91.1099 29.3901 91.2499 28.8801L92.1599 25.7401ZM122.83 19.6501C122.95 19.2501 123.37 18.9201 123.77 18.9201C124.18 18.9201 124.41 19.2501 124.29 19.6501L123.61 22.0101H122.14L122.83 19.6501ZM122.93 25.7401L122.03 28.8801C121.88 29.3901 121.35 29.8001 120.84 29.8001C120.33 29.8001 120.04 29.3901 120.18 28.8801L121.08 25.7401L121.37 24.7201L121.43 24.5201H127.68L128.75 20.7901C129.46 18.3101 128.03 16.3001 125.55 16.3001H123.61C121.13 16.3001 118.54 18.3101 117.83 20.7901L115.78 27.9401C115.07 30.4201 116.5 32.4301 118.98 32.4301H120.92C123.4 32.4301 125.99 30.4201 126.71 27.9401L127.34 25.7401H122.93ZM134.73 26.6901C134.54 27.0501 134.15 27.3101 133.76 27.3101C133.31 27.3101 133.05 26.9501 133.18 26.4901L135.26 19.2601C135.39 18.8101 135.86 18.4401 136.31 18.4401C136.69 18.4401 136.94 18.7001 136.92 19.0601L134.73 26.6901ZM137.81 15.9601L137.43 17.2801C137.1 16.2901 136.2 15.6201 134.95 15.6201C133.03 15.6201 131.02 17.1801 130.47 19.1001L128.28 26.7101C127.73 28.6301 128.84 30.1901 130.76 30.1901C132.01 30.1901 133.3 29.5301 134.2 28.5301L133.42 31.2601C133.29 31.7101 132.82 32.0801 132.37 32.0801C131.58 32.0801 131.89 30.9201 131.89 30.9201H127.13C126.73 32.9701 127.99 34.5801 130.1 34.5801H133.22C135.45 34.5801 137.78 32.7701 138.42 30.5401L142.6 15.9601H137.81ZM147.37 26.6901C147.18 27.0501 146.79 27.3101 146.4 27.3101C145.95 27.3101 145.69 26.9501 145.82 26.4901L147.9 19.2601C148.03 18.8101 148.5 18.4401 148.95 18.4401C149.33 18.4401 149.58 18.7001 149.56 19.0601L147.37 26.6901ZM150.07 17.2801C149.74 16.2901 148.84 15.6201 147.59 15.6201C145.67 15.6201 143.66 17.1801 143.11 19.1001L140.92 26.7101C140.37 28.6301 141.48 30.1901 143.4 30.1901C144.65 30.1901 145.94 29.5301 146.84 28.5301L146.06 31.2601C145.93 31.7101 145.46 32.0801 145.01 32.0801C144.22 32.0801 144.53 30.9201 144.53 30.9201H139.77C139.37 32.9701 140.63 34.5801 142.74 34.5801H145.86C148.09 34.5801 150.41 32.7701 151.06 30.5401L155.24 15.9601H150.46L150.07 17.2801ZM85.2599 16.2901C84.2299 16.2901 83.19 16.7401 82.35 17.4401L82.59 16.5901H77.7599L73.21 32.4301H78.0399L81.8099 19.2801C81.9499 19.2101 82.0999 19.1701 82.2499 19.1601C82.6999 19.1601 82.96 19.5301 82.83 19.9801L79.2599 32.4301H84.09L87.73 19.7601C88.29 17.8501 87.1799 16.2901 85.2599 16.2901ZM157.97 19.1201C157.18 19.0801 156.55 18.4201 156.55 17.6201C156.55 16.8201 157.17 16.1701 157.97 16.1201C158.77 16.1601 159.4 16.8201 159.4 17.6201C159.4 18.4301 158.77 19.0901 157.97 19.1201ZM157.97 15.8201C156.97 15.8201 156.17 16.6301 156.17 17.6201C156.17 18.6201 156.98 19.4201 157.97 19.4201C158.97 19.4201 159.77 18.6101 159.77 17.6201C159.77 16.6301 158.96 15.8201 157.97 15.8201Z" fill="#778197"/>
<path d="M158.01 17.5802H157.64V16.9102H158.01C158.36 16.9102 158.56 16.9902 158.56 17.2302C158.56 17.4602 158.37 17.5802 158.01 17.5802ZM158.85 17.2302C158.85 16.8502 158.51 16.7202 158.05 16.7202H157.34V18.5202H157.63V17.7602H158.03L158.58 18.5202H158.91L158.33 17.7302C158.65 17.6802 158.85 17.5102 158.85 17.2302Z" fill="#778197"/>
<path d="M86.7596 13.4901H91.2897C91.2897 13.4901 100.76 0.76013 111.13 0.76013C120.25 0.76013 122.5 13.2501 122.5 13.2501C122.5 13.2501 124.34 10.4701 119.42 3.72013C114.5 -3.02987 102.16 1.14013 98.3997 3.54013C98.3997 3.54013 96.0897 0.0601302 89.1597 0.0501302C83.4797 0.0401302 78.1797 3.57013 78.1797 3.57013C78.1797 3.57013 75.6597 0.17013 68.9097 0.17013C62.1597 0.17013 40.2197 10.3001 40.2197 30.5501C40.2197 47.1601 59.7596 49.9101 68.1096 44.4101C68.1096 44.4101 71.9897 46.9901 78.1797 46.9901C84.3697 46.9901 88.3696 44.3301 88.3696 44.3301C88.3696 44.3301 92.8097 47.9701 99.2097 47.9701C105.61 47.9701 113.96 45.0401 118.84 35.4501C118.84 35.4501 110.85 44.3301 102.58 44.3301C94.3197 44.3301 89.6997 39.0901 87.6597 35.0901H82.0597C82.0597 35.0901 84.0996 40.6901 87.3896 43.4401C87.3896 43.4401 78.4197 47.3501 69.9797 40.4201C61.5397 33.4901 65.8897 18.4801 71.2197 12.5301C76.5497 6.58013 83.7397 1.16013 89.9597 1.16013C95.1997 1.16013 97.5096 4.00013 97.5096 4.00013C97.5096 4.00013 89.1596 9.23013 86.7596 13.4901ZM60.1997 28.4101C60.1997 38.0001 64.6096 41.9201 66.8896 43.4501C66.8896 43.4501 65.9997 44.3401 60.4397 44.3401C54.8697 44.3401 44.9297 40.6101 44.9297 28.8301C44.9297 17.0501 58.0197 0.94013 70.2197 0.94013C75.0797 0.94013 77.3097 3.99013 77.3097 3.99013C77.3097 3.99013 60.1997 14.2601 60.1997 28.4101Z" fill="#778197"/>
</g>
</svg>
