<svg width="320" height="320" viewBox="0 0 320 320" fill="none" xmlns="http://www.w3.org/2000/svg">
<path d="M165.432 117.592H138.911C136.973 117.592 135.404 116.021 135.404 114.088V87.5892C135.404 85.6522 136.977 84.085 138.911 84.085H165.432C167.37 84.085 168.939 85.6568 168.939 87.5892V114.088C168.943 116.025 167.37 117.592 165.432 117.592Z" fill="#EBF0F7"/>
<path d="M158.075 103.21C158.015 103.542 157.894 103.838 157.723 104.097C157.575 104.324 157.353 104.527 157.057 104.712C156.761 104.897 156.358 104.985 155.854 104.985C155.521 104.985 155.206 104.962 154.91 104.92C154.614 104.878 154.35 104.804 154.123 104.698C153.897 104.592 153.712 104.458 153.568 104.287C153.425 104.116 153.337 103.908 153.314 103.667C153.286 103.422 153.323 103.168 153.42 102.9C153.517 102.632 153.661 102.391 153.85 102.174C154.045 101.957 154.276 101.776 154.549 101.638C154.822 101.499 155.123 101.43 155.447 101.43C155.997 101.43 156.478 101.527 156.886 101.716V96.2473L150.94 97.1118L150.991 104.398V104.726C150.991 104.989 150.94 105.244 150.834 105.493C150.727 105.743 150.584 105.96 150.394 106.154C150.205 106.349 149.978 106.501 149.714 106.612C149.446 106.728 149.154 106.783 148.831 106.783C148.484 106.783 148.16 106.751 147.864 106.686C147.567 106.621 147.304 106.524 147.077 106.399C146.85 106.275 146.665 106.117 146.526 105.928C146.388 105.738 146.304 105.526 146.277 105.281C146.249 105.036 146.286 104.8 146.383 104.569C146.48 104.338 146.624 104.13 146.822 103.949C147.017 103.764 147.253 103.612 147.53 103.487C147.803 103.362 148.104 103.279 148.428 103.247C148.673 103.21 148.914 103.21 149.15 103.242C149.386 103.274 149.608 103.321 149.816 103.394V96.0809L158.079 94.8882V103.21H158.075Z" fill="#CFD7E8"/>
<path d="M270.914 98.7354H193.421V105.041H270.914V98.7354Z" fill="white" stroke="#C8D4E8" stroke-miterlimit="10" stroke-linejoin="round"/>
<path d="M239.947 71.2886H233.159V98.7353H239.947V71.2886Z" fill="white" stroke="#C8D4E8" stroke-miterlimit="10" stroke-linejoin="round"/>
<path d="M249.057 73.8584H239.947V98.7347H249.057V73.8584Z" fill="#C8D4E8"/>
<path d="M257.006 70.3545H249.058V98.735H257.006V70.3545Z" fill="white" stroke="#C8D4E8" stroke-miterlimit="10" stroke-linejoin="round"/>
<path d="M264.955 65.9165H257.006V98.7351H264.955V65.9165Z" fill="#C8D4E8"/>
<path d="M211.225 65.4956C216.444 70.7103 216.444 79.1658 211.225 84.3805C206.006 79.1658 206.006 70.7103 211.225 65.4956Z" fill="#CFD7E8"/>
<path d="M222.644 72.0879C222.644 78.7404 217.245 84.1354 210.587 84.1354C210.587 77.4829 215.986 72.0879 222.644 72.0879Z" fill="#EBF0F7"/>
<path d="M199.468 72.0879C199.468 78.7404 204.867 84.1354 211.525 84.1354C211.525 77.4829 206.126 72.0879 199.468 72.0879Z" fill="white" stroke="#C8D4E8" stroke-miterlimit="10" stroke-linejoin="round"/>
<path d="M211.053 98.7348C206.926 98.7348 203.461 95.6374 203.007 91.5368L202.244 84.6809C202.175 84.0614 202.66 83.5205 203.28 83.5205H218.826C219.446 83.5205 219.932 84.0614 219.863 84.6809L219.099 91.5368C218.646 95.6327 215.18 98.7348 211.053 98.7348Z" fill="white" stroke="#C8D4E8" stroke-miterlimit="10" stroke-linejoin="round"/>
<path d="M122.695 146.135H102.384C100.381 146.135 98.752 144.512 98.752 142.506V122.211C98.752 120.209 100.376 118.582 102.384 118.582H122.695C124.699 118.582 126.327 120.205 126.327 122.211V142.506C126.327 144.512 124.699 146.135 122.695 146.135Z" fill="#F7F8FA" stroke="#C8D4E8" stroke-miterlimit="10" stroke-linejoin="round"/>
<path d="M112.541 139.487C116.481 139.487 119.675 136.296 119.675 132.359C119.675 128.422 116.481 125.23 112.541 125.23C108.6 125.23 105.406 128.422 105.406 132.359C105.406 136.296 108.6 139.487 112.541 139.487Z" fill="#F7F8FA" stroke="#C8D4E8" stroke-miterlimit="10" stroke-linejoin="round"/>
<path d="M112.54 130.264C113.358 130.264 114.021 129.602 114.021 128.785C114.021 127.968 113.358 127.306 112.54 127.306C111.722 127.306 111.06 127.968 111.06 128.785C111.06 129.602 111.722 130.264 112.54 130.264Z" fill="#C8D4E8"/>
<path d="M112.54 137.717C113.358 137.717 114.021 137.054 114.021 136.237C114.021 135.42 113.358 134.758 112.54 134.758C111.722 134.758 111.06 135.42 111.06 136.237C111.06 137.054 111.722 137.717 112.54 137.717Z" fill="#C8D4E8"/>
<path d="M116.27 133.991C117.087 133.991 117.75 133.329 117.75 132.512C117.75 131.695 117.087 131.032 116.27 131.032C115.452 131.032 114.789 131.695 114.789 132.512C114.789 133.329 115.452 133.991 116.27 133.991Z" fill="#C8D4E8"/>
<path d="M108.812 133.991C109.629 133.991 110.292 133.329 110.292 132.512C110.292 131.695 109.629 131.032 108.812 131.032C107.994 131.032 107.331 131.695 107.331 132.512C107.331 133.329 107.994 133.991 108.812 133.991Z" fill="#C8D4E8"/>
<path d="M112.54 139.492H119.267" stroke="#C8D4E8" stroke-miterlimit="10" stroke-linecap="round" stroke-linejoin="round"/>
<path d="M139.365 105.254H82.78C79.5413 105.254 76.918 102.633 76.918 99.3965V42.8573C76.918 39.6212 79.5413 37 82.78 37H139.365C142.604 37 145.227 39.6212 145.227 42.8573V99.3965C145.227 102.633 142.604 105.254 139.365 105.254Z" fill="#F7F8FA" stroke="#C8D4E8" stroke-miterlimit="10" stroke-linejoin="round"/>
<path d="M96.1995 86.6326H92.785C91.7486 86.6326 90.9111 85.7958 90.9111 84.7603V74.3401C90.9111 73.3045 91.7486 72.4678 92.785 72.4678H96.1995C97.2359 72.4678 98.0733 73.3045 98.0733 74.3401V84.7603C98.0733 85.7958 97.2313 86.6326 96.1995 86.6326Z" fill="#C8D4E8" stroke="#C8D4E8" stroke-miterlimit="10" stroke-linejoin="round"/>
<path d="M129.365 86.6326H125.95C124.914 86.6326 124.076 85.7958 124.076 84.7603V74.3401C124.076 73.3045 124.914 72.4678 125.95 72.4678H129.365C130.401 72.4678 131.238 73.3045 131.238 74.3401V84.7603C131.238 85.7958 130.401 86.6326 129.365 86.6326Z" fill="#C8D4E8" stroke="#C8D4E8" stroke-miterlimit="10" stroke-linejoin="round"/>
<path d="M98.0732 83.3084V68.6166C98.0732 61.4417 103.894 55.626 111.074 55.626C118.255 55.626 124.075 61.4417 124.075 68.6166V83.3084" stroke="#C8D4E8" stroke-miterlimit="10" stroke-linecap="round" stroke-linejoin="round"/>
<path d="M102.279 79.5504H108.183L109.821 74.2524L113.675 84.6033L115.604 79.5504H119.518" stroke="#C8D4E8" stroke-miterlimit="10" stroke-linejoin="round"/>
<path d="M219.718 149.561C219.723 146.796 217.479 144.549 214.708 144.549H133.587C130.265 144.549 125.412 145.28 125.051 154.359C124.69 163.434 117.444 180.072 100.261 188.69C83.0771 197.307 51.8652 214.144 40.2382 227.916C28.6112 241.688 22.9296 257.581 23.7531 268.815H206.43C213.69 268.815 219.58 262.939 219.589 255.686L219.718 149.561Z" fill="#C8D4E8"/>
<path d="M23.7549 269.048C23.6346 269.048 23.5329 268.955 23.5236 268.835C22.6445 256.829 29.1358 240.709 40.0595 227.769C51.7097 213.97 82.7134 197.234 100.156 188.488C117.479 179.801 124.479 162.941 124.817 154.356C125.173 145.378 129.971 144.329 133.552 144.324C133.677 144.324 133.783 144.426 133.783 144.555C133.783 144.685 133.681 144.787 133.557 144.787C133.274 144.791 126.69 145.018 126.681 157.047C126.677 163.829 126.172 170.661 120.144 179.648C113.088 190.17 99.4344 201.987 78.4151 215.782C48.2257 235.587 48.2396 256.788 48.2442 268.174V268.669C48.2442 268.747 48.2072 268.817 48.1424 268.863L47.9157 269.015C47.8787 269.039 47.8325 269.052 47.7862 269.052H23.7549V269.048Z" fill="white"/>
<path d="M133.555 144.55C133.056 144.554 126.463 144.878 126.453 157.041C126.444 169.685 125.186 184.816 78.289 215.582C47.549 235.752 48.0163 257.452 48.0163 268.668L47.7896 268.82H23.7537C22.9301 257.586 28.6118 241.688 40.2387 227.916C51.8657 214.144 83.0823 197.307 100.261 188.69C117.445 180.073 124.69 163.435 125.051 154.36C125.412 145.312 130.233 144.554 133.555 144.55ZM133.555 144.087C129.882 144.092 124.954 145.16 124.589 154.341C124.39 159.38 122.141 165.778 118.574 171.451C115.418 176.471 109.64 183.471 100.053 188.274C82.5965 197.03 51.5603 213.784 39.8825 227.616C34.3026 234.222 29.8147 241.669 26.8952 249.149C24.1146 256.273 22.87 263.088 23.291 268.853C23.3095 269.093 23.5085 269.283 23.7537 269.283H47.7896C47.8821 269.283 47.97 269.255 48.0487 269.204L48.2754 269.051C48.4049 268.964 48.4789 268.82 48.4789 268.668V268.173C48.4743 256.828 48.4604 235.71 78.5434 215.975C99.5904 202.166 113.262 190.327 120.337 179.777C126.402 170.734 126.911 163.865 126.916 157.046C126.921 152.164 128.036 148.544 130.136 146.579C131.732 145.086 133.379 145.021 133.56 145.017C133.814 145.012 134.018 144.804 134.018 144.55C134.018 144.295 133.81 144.087 133.555 144.087Z" fill="#C8D4E8"/>
<path d="M209.465 142.33C207.624 142.33 194.947 142.02 182.69 141.72C170.758 141.428 159.487 141.151 157.896 141.151C154.962 141.151 146.042 141.151 146.042 131.503C146.042 122.044 153.056 118.859 156.258 118.859C156.748 118.864 205.121 119.377 209.47 119.377C213.754 119.377 218.344 124.032 218.344 130.957C218.339 137.795 212.995 142.33 209.465 142.33Z" fill="white"/>
<path d="M156.254 119.095C156.254 119.095 205.066 119.612 209.466 119.612C213.866 119.612 218.109 124.49 218.109 130.966C218.109 137.443 213.056 142.103 209.466 142.103C205.875 142.103 161.158 140.929 157.896 140.929C154.634 140.929 146.274 140.698 146.274 131.512C146.269 122.317 153.006 119.095 156.254 119.095ZM156.254 118.632C152.983 118.632 145.807 121.873 145.807 131.507C145.807 135.64 147.44 138.525 150.655 140.078C153.367 141.387 156.541 141.387 157.892 141.387C159.479 141.387 170.749 141.664 182.677 141.955C194.938 142.256 207.615 142.566 209.461 142.566C213.084 142.566 218.567 137.938 218.567 130.966C218.567 124.564 214.398 119.15 209.461 119.15C205.117 119.15 156.744 118.637 156.258 118.632C156.258 118.632 156.258 118.632 156.254 118.632Z" fill="#C8D4E8"/>
<path d="M183.023 119.372C179.137 119.335 175.25 119.294 171.688 119.257C170.147 120.88 168.801 122.387 168.944 122.544C169.259 122.895 166.95 129.219 166.293 130.995C165.835 132.229 162.67 137.735 160.787 140.971C167.459 141.11 183.62 141.517 195.552 141.803C195.363 140.328 194.516 138.23 192.115 135.41C186.623 128.97 182.648 133.87 182.648 133.87C182.648 133.87 178.623 129.081 178.623 127.449C178.623 122.34 181.718 120.112 183.023 119.372Z" fill="#C8D4E8"/>
<path d="M69.0771 265.463C69.0771 265.463 69.4935 272.966 66.9858 273.563C64.4782 274.159 41.6961 275.509 40.9373 272.906C40.1832 270.303 50.5656 266.748 56.9458 265.782C63.3261 264.816 69.0771 265.463 69.0771 265.463Z" fill="#C8D4E8"/>
<path d="M63.3859 267.312C59.9297 267.312 56.9825 266.045 56.8576 265.99C56.765 265.948 56.7095 265.856 56.7188 265.754C61.9146 214.582 67.971 190.057 76.3592 186.239C95.5139 177.515 136.229 174.7 136.636 174.672C136.641 174.672 136.646 174.672 136.65 174.672C136.669 174.672 136.687 174.672 136.71 174.681L145.645 176.993C145.723 177.016 145.788 177.076 145.811 177.159C145.848 177.293 149.189 190.552 136.775 198.263C124.912 205.632 88.9069 208.276 85.8996 208.489C84.4838 223.625 69.4515 265.121 69.2989 265.541C69.2803 265.588 69.2526 265.625 69.2156 265.652C67.6286 266.753 65.6715 267.312 63.3859 267.312Z" fill="white"/>
<path d="M136.65 174.904L145.584 177.215C145.584 177.215 149.064 190.354 136.65 198.065C124.237 205.776 85.682 208.268 85.682 208.268C84.368 223.38 69.0767 265.459 69.0767 265.459C67.3232 266.684 65.2828 267.081 63.3812 267.081C59.9343 267.081 56.9454 265.778 56.9454 265.778C61.438 221.55 67.1057 190.705 76.4517 186.447C95.7914 177.645 136.65 174.904 136.65 174.904ZM136.65 174.441C136.641 174.441 136.632 174.441 136.618 174.441C136.211 174.469 95.4537 177.289 76.262 186.031C71.663 188.125 67.7951 196.299 64.4315 211.023C61.5397 223.672 58.9395 241.567 56.4874 265.732C56.4689 265.93 56.5799 266.12 56.7603 266.203C56.8853 266.259 59.8788 267.544 63.3812 267.544C65.7131 267.544 67.7211 266.971 69.3404 265.838C69.4191 265.782 69.4792 265.708 69.5116 265.616C69.6643 265.2 84.5762 224.028 86.1031 208.702C90.429 208.407 125.051 205.813 136.891 198.458C143.451 194.385 145.589 188.791 146.223 184.82C146.912 180.525 146.061 177.234 146.024 177.095C145.982 176.933 145.853 176.808 145.691 176.767L136.757 174.455C136.729 174.446 136.687 174.441 136.65 174.441Z" fill="#C8D4E8"/>
<path d="M124.039 202.766L137.512 185.629C137.512 185.629 127.023 192.064 116.206 194.926C89.8471 201.897 94.4646 207.51 86.6038 206.682C83.5085 206.354 82.1112 205.189 81.7735 204.985C82.2685 205.304 83.874 208.295 83.8 210.806C83.7121 213.607 79.0576 232.529 78.6181 233.491C78.1785 234.452 67.0559 263.096 62.6743 264.497C60.8699 265.075 59.6392 265.778 58.9961 266.462C61.4899 267.137 65.7835 267.766 69.0824 265.459C69.0824 265.459 84.3737 223.38 85.6877 208.268C85.6831 208.272 107.905 206.835 124.039 202.766Z" fill="#DDE4F1"/>
<path d="M81.7764 204.987C81.7287 204.958 81.6953 204.934 81.6953 204.934C81.6953 204.934 81.7239 204.953 81.7764 204.987Z" fill="#DDE4F1"/>
<path d="M53.6224 275.325C53.6224 275.325 54.483 277.275 51.9707 279.078C49.4584 280.881 46.2706 282.643 44.0127 281.843C41.7549 281.043 37.9101 277.021 32.3811 274.303C26.8522 271.585 25.4503 265.815 27.7868 265.778C30.1233 265.746 45.2157 269.139 45.2157 269.139L53.6224 275.325Z" fill="#C8D4E8"/>
<path d="M176.783 182.166C176.783 182.166 179.725 204.56 158.535 211.12C137.345 217.68 104.351 222.238 104.351 222.238C104.351 222.238 98.48 230.347 90.8042 237.924C83.1285 245.501 54.8869 275.305 54.8869 275.305C54.8869 275.305 48.3308 276.97 45.2217 269.138C45.2217 269.138 78.9274 216.048 93.3073 205.392C107.683 194.736 123.455 198.342 137.978 185.217L147.398 180.377L176.783 182.166Z" fill="white"/>
<path d="M176.782 182.166L148.647 180.451L138.519 178.736C138.519 178.736 144.196 189.868 168.042 187.066C172.516 187.066 175.26 192.036 172.803 195.776C171.706 197.45 170.055 199.234 167.607 201.023C158.048 207.999 111.762 223.505 101.944 219.39C101.944 219.39 104.355 221.54 93.2878 232.816C82.2207 244.091 57.551 273.123 53.7663 273.914C49.9816 274.704 47.7793 273.16 47.7793 273.16C50.9902 276.299 54.886 275.31 54.886 275.31C54.886 275.31 83.1229 245.506 90.8033 237.929C98.479 230.352 104.35 222.243 104.35 222.243C104.35 222.243 137.339 217.689 158.534 211.124C179.729 204.56 176.782 182.166 176.782 182.166Z" fill="#DDE4F1"/>
<path d="M176.783 182.166C176.783 182.166 179.725 204.56 158.535 211.12C137.345 217.68 104.351 222.238 104.351 222.238C104.351 222.238 98.48 230.347 90.8042 237.924C83.1285 245.501 54.8869 275.305 54.8869 275.305C54.8869 275.305 48.3308 276.97 45.2217 269.138C45.2217 269.138 78.9274 216.048 93.3073 205.392C107.683 194.736 123.455 198.342 137.978 185.217" stroke="#C8D4E8" stroke-miterlimit="10" stroke-linecap="round" stroke-linejoin="round"/>
<path d="M111.706 269.047C111.581 269.047 111.475 268.945 111.475 268.821L111.47 268.58C111.466 268.469 111.461 268.358 111.461 268.247C111.461 250.241 117.809 234.911 130.329 222.679C140.443 212.799 154.638 204.871 172.525 199.106C202.617 189.411 208.766 162.436 208.766 155.742C208.766 150.241 210.626 144.319 214.706 144.319C216.108 144.319 217.422 144.864 218.412 145.854C219.403 146.843 219.949 148.161 219.944 149.561L219.814 255.687C219.805 263.056 213.8 269.047 206.425 269.047H111.706Z" fill="white"/>
<path d="M214.709 144.55C217.476 144.55 219.72 146.792 219.72 149.561L219.59 255.686C219.581 262.94 213.691 268.816 206.432 268.816H111.704C111.699 268.626 111.69 268.441 111.69 268.247C111.69 229.053 141.523 209.336 172.596 199.328C203.67 189.319 209 161.451 209 155.747C209 150.037 210.952 144.55 214.709 144.55ZM214.709 144.087C210.466 144.087 208.537 150.13 208.537 155.742C208.537 162.399 202.411 189.236 172.453 198.884C154.534 204.658 140.307 212.605 130.165 222.507C117.599 234.786 111.228 250.171 111.228 268.242C111.228 268.358 111.232 268.474 111.237 268.589C111.241 268.668 111.241 268.742 111.241 268.82C111.246 269.075 111.45 269.278 111.704 269.278H206.432C213.932 269.278 220.044 263.18 220.053 255.686L220.182 149.561C220.182 148.1 219.618 146.727 218.582 145.692C217.55 144.656 216.171 144.087 214.709 144.087Z" fill="#C8D4E8"/>
<path d="M217.119 145.169C215.467 145.488 213.274 146.986 212.863 152.547C212.178 161.687 207.306 192.425 180.637 205.846C154.82 218.836 134.296 228.508 133.01 268.82H206.427C213.686 268.82 219.576 262.944 219.585 255.691L219.715 149.565C219.719 147.67 218.669 146.02 217.119 145.169Z" fill="#C8D4E8"/>
<path d="M164.666 130.028C164.666 130.028 154.408 128.904 149.041 131.951C143.679 134.997 136.318 142.274 134.597 145.246C134.597 145.246 134.712 152.297 140.468 155.255L144.937 153.827C144.937 153.827 141.578 168.819 135.619 173.719C135.619 173.719 137.729 184.953 158.017 185.707C174.72 186.326 176.788 182.166 176.788 182.166C176.788 182.166 176.732 176.669 181.817 159.203C181.817 159.203 188.327 161.542 195.239 156.938C195.239 156.938 194.295 139.907 188.984 132.732C187.425 130.629 177.477 129.861 175.395 130.282C173.313 130.703 164.666 130.028 164.666 130.028Z" fill="#3457E5"/>
<path d="M164.999 138.271C165.364 138.692 165.776 138.909 166.22 138.909C166.252 138.909 166.28 138.909 166.313 138.905C168.51 138.761 170.551 136.034 172.642 130.421C172.48 130.421 172.318 130.417 172.151 130.417C170.176 135.678 168.242 138.317 166.285 138.447C165.956 138.47 165.651 138.313 165.355 137.971C164.221 136.667 163.611 133.204 163.393 129.927C163.25 129.917 163.092 129.908 162.926 129.899C163.134 133.264 163.768 136.857 164.999 138.271Z" fill="#0539DB"/>
<path d="M161.029 161.487C159.743 160.262 159.016 158.45 159.016 158.45C159.016 158.45 151.225 153.254 149.772 152.376C148.916 151.858 146.7 153.393 144.623 155.089C143.665 158.802 140.523 169.679 135.614 173.715C135.614 173.715 136.535 178.616 143.012 182.161C142.999 182.148 140.861 180.16 138.524 176.318C136.179 172.462 141.92 166.097 142.739 164.289C143.558 162.477 148 163.355 153.728 163.522C159.451 163.693 162.315 162.717 161.029 161.487Z" fill="#0539DB"/>
<path d="M152.099 185.13C151.748 185.074 151.391 185.01 151.03 184.936C151.377 185.005 151.734 185.07 152.099 185.13Z" fill="#0539DB"/>
<path d="M181.373 160.744C180.753 159.389 179.735 153.994 179.735 153.994C178.939 148.724 180.41 142.099 180.41 142.099C180.41 142.099 177.745 147.036 178.856 157.461C179.966 167.886 175.274 175.768 171.245 175.389C167.21 175.01 166.817 176.559 170.893 176.383C174.969 176.208 177.125 178.75 174.599 180.151C172.156 181.51 163.611 186.984 152.127 185.139C153.894 185.43 155.847 185.629 158.012 185.712C174.715 186.332 176.783 182.171 176.783 182.171C176.783 182.171 176.732 176.993 181.373 160.744Z" fill="#0539DB"/>
<path d="M167.777 134.101C166.092 134.101 165.338 133.375 165.005 132.769C164.464 131.789 164.681 130.596 165.116 129.903C165.829 128.766 166.079 125.382 165.745 123.69C165.389 121.877 175.249 119.145 178.284 118.35C178.302 118.345 178.321 118.341 178.344 118.341C178.413 118.341 178.483 118.373 178.529 118.429C178.585 118.503 178.594 118.604 178.548 118.683C178.515 118.743 175.105 124.882 176.271 130.231C176.285 130.291 176.271 130.351 176.239 130.407C176.137 130.559 173.796 134.101 167.777 134.101Z" fill="white"/>
<path d="M178.341 118.572C178.341 118.572 174.838 124.781 176.041 130.282C176.041 130.282 173.737 133.87 167.778 133.87C164.641 133.87 164.558 131.23 165.312 130.028C166.066 128.821 166.316 125.386 165.973 123.644C165.631 121.901 178.341 118.572 178.341 118.572ZM178.341 118.11C178.304 118.11 178.262 118.114 178.225 118.124C178.192 118.133 174.995 118.97 171.882 120.015C166.033 121.975 165.367 122.959 165.52 123.731C165.839 125.349 165.599 128.701 164.923 129.778C164.456 130.527 164.215 131.817 164.803 132.88C165.168 133.541 165.983 134.332 167.778 134.332C173.922 134.332 176.333 130.689 176.434 130.532C176.499 130.43 176.522 130.305 176.499 130.185C175.347 124.924 178.715 118.859 178.748 118.799C178.84 118.637 178.826 118.438 178.711 118.29C178.618 118.175 178.479 118.11 178.341 118.11Z" fill="#C8D4E8"/>
<path d="M165.975 123.644C166.317 125.386 166.067 128.821 165.313 130.028C164.559 131.235 164.638 133.87 167.779 133.87C167.83 133.87 167.876 133.865 167.927 133.865C164.323 132.594 167.395 127.615 168.89 127.24C176.718 125.285 177.889 118.697 177.889 118.692C175.645 119.303 165.669 122.1 165.975 123.644Z" fill="#292C38"/>
<path d="M167.035 126.168C166.929 126.168 166.836 126.168 166.753 126.163C165.143 126.08 162.737 124.235 161.654 121.411C160.59 118.637 160.572 112.119 160.572 111.388L159.198 108.73C159.174 108.684 159.165 108.633 159.174 108.587L160.572 100.455C160.586 100.372 160.646 100.302 160.729 100.274L166.281 98.4946C166.304 98.4854 166.327 98.4854 166.351 98.4854C166.388 98.4854 166.42 98.4946 166.452 98.5085L181.716 105.919C181.771 105.947 181.818 105.998 181.836 106.058L183.761 112.229C183.779 112.294 183.77 112.359 183.738 112.419L180.934 117.088C180.92 117.107 180.906 117.125 180.888 117.144L176.742 120.754C173.684 126.015 167.711 126.168 167.035 126.168Z" fill="white"/>
<path d="M166.36 98.7074L181.623 106.113L183.548 112.285L180.744 116.954L176.571 120.588C173.897 125.234 168.784 125.937 167.04 125.937C166.938 125.937 166.85 125.932 166.772 125.932C165.365 125.858 162.973 124.199 161.876 121.328C160.775 118.457 160.808 111.333 160.808 111.333L159.41 108.624L160.808 100.492L166.36 98.7074ZM166.36 98.2451C166.314 98.2451 166.263 98.2544 166.216 98.2682L160.664 100.048C160.502 100.099 160.377 100.242 160.35 100.409L158.952 108.541C158.934 108.638 158.952 108.739 158.999 108.832L160.345 111.444C160.345 112.405 160.387 118.743 161.442 121.494C162.557 124.407 165.064 126.307 166.744 126.394C166.827 126.399 166.924 126.404 167.035 126.404C167.72 126.404 173.795 126.247 176.927 120.889L181.04 117.306C181.077 117.273 181.11 117.236 181.133 117.195L183.937 112.526C184.006 112.415 184.02 112.276 183.983 112.151L182.058 105.979C182.021 105.859 181.933 105.757 181.818 105.702L166.554 98.296C166.499 98.259 166.429 98.2451 166.36 98.2451Z" fill="#C8D4E8"/>
<path d="M156.864 87.7001C156.211 88.3196 158.034 92.6375 160.153 94.1585C160.153 94.1585 156.586 93.0489 154.435 93.9967C154.319 94.0475 154.24 94.1585 154.273 94.2833C154.444 94.9998 155.217 97.3021 158.326 98.4578C158.326 98.4578 153.954 99.461 152.667 101.736C152.427 102.165 152.575 102.711 153.019 102.928C154.041 103.428 155.716 103.506 157.9 103.534C157.9 103.534 155.235 107.218 157.539 109.867C158.812 111.333 160.806 111.333 160.806 111.333C160.806 111.333 160.306 105.059 162.953 102.249C162.953 102.249 166.557 109.585 176.569 109.419C176.569 109.419 175.866 112.53 176.458 115.008C176.458 115.008 177.753 109.789 180.502 110.163C183.25 110.538 181.941 114.606 180.206 115.558C178.471 116.511 176.564 120.593 176.564 120.593C176.564 120.593 178.545 121.018 181.51 117.703C184.476 114.389 185.471 108.92 185.531 105.258C185.591 101.597 184.092 99.706 184.092 99.706C184.092 99.706 185.082 96.4006 184.148 94.1862C183.995 93.8256 183.546 93.71 183.245 93.9597C182.542 94.5468 181.376 95.684 181.066 96.997C181.066 96.997 182.191 90.0116 172.03 87.395C171.628 87.2887 171.207 87.4597 171.179 87.8758C171.142 88.4075 171.068 89.1102 170.901 89.7897C170.707 90.5941 169.8 90.9963 169.078 90.5895C166.52 89.1471 159.043 85.6337 156.864 87.7001Z" fill="#292C38"/>
<path d="M161.343 109.868C163.055 109.868 164.452 111.259 164.452 112.974C164.452 114.689 163.06 116.081 161.343 116.081C159.627 116.081 158.234 114.689 158.234 112.974C158.234 111.259 159.631 109.868 161.343 109.868ZM161.343 109.405C159.372 109.405 157.771 111 157.771 112.974C157.771 114.944 159.368 116.543 161.343 116.543C163.319 116.543 164.915 114.948 164.915 112.974C164.915 111 163.314 109.405 161.343 109.405Z" fill="#C8D4E8"/>
<path d="M170.601 109.868C172.313 109.868 173.71 111.259 173.71 112.974C173.71 114.689 172.318 116.081 170.601 116.081C168.889 116.081 167.492 114.689 167.492 112.974C167.492 111.259 168.889 109.868 170.601 109.868ZM170.601 109.405C168.63 109.405 167.029 111 167.029 112.974C167.029 114.944 168.626 116.543 170.601 116.543C172.577 116.543 174.173 114.948 174.173 112.974C174.173 111 172.572 109.405 170.601 109.405Z" fill="#C8D4E8"/>
<path d="M164.915 112.97C164.915 112.97 166.072 112.405 167.034 112.97" stroke="#C8D4E8" stroke-miterlimit="10" stroke-linecap="round" stroke-linejoin="round"/>
<path d="M165.156 111.989C165.156 111.989 165.78 114.176 164.054 116.395C163.901 116.589 163.906 116.867 164.063 117.056C164.304 117.347 164.744 117.754 165.479 118.045" stroke="#C8D4E8" stroke-miterlimit="10" stroke-linecap="round" stroke-linejoin="round"/>
<path d="M195.561 178.626C195.469 178.626 195.376 178.616 195.288 178.598C182.25 175.93 168.106 154.42 167.963 154.202L166.903 153.107L167.422 148.558L172.705 148.867L187.071 159.93C187.113 159.963 187.164 159.976 187.215 159.976C187.219 159.976 187.229 159.976 187.233 159.976C190.962 159.644 193.891 158.044 194.719 157.549C199.281 168.131 198.934 174.899 197.236 177.488C196.755 178.223 196.163 178.626 195.561 178.626Z" fill="white"/>
<path d="M167.627 148.797L172.624 149.089L186.93 160.11C187.013 160.175 187.11 160.207 187.212 160.207C187.226 160.207 187.24 160.207 187.254 160.207C190.742 159.897 193.537 158.492 194.61 157.882C199.029 168.242 198.696 174.843 197.039 177.363C196.604 178.029 196.077 178.394 195.559 178.394C195.485 178.394 195.406 178.385 195.332 178.371C182.391 175.722 168.293 154.29 168.155 154.072C168.136 154.049 168.118 154.026 168.099 154.003L167.146 153.018L167.627 148.797ZM167.215 148.312L166.66 153.185L167.766 154.327C167.766 154.327 181.956 176.105 195.239 178.824C195.346 178.847 195.452 178.856 195.559 178.856C198.307 178.856 201.152 171.723 194.828 157.211C194.828 157.211 191.543 159.361 187.212 159.745L172.791 148.636L167.215 148.312Z" fill="#C8D4E8"/>
<path d="M194.825 166.31C194.825 166.32 194.83 166.329 194.83 166.339C194.83 166.339 194.825 166.329 194.825 166.31Z" fill="#292C38"/>
<path d="M194.828 157.211H194.818C191.857 158.839 189.22 159.648 186.967 159.773C187.605 160.355 188.545 161.109 190.196 162.033C194.351 164.363 194.781 166.088 194.823 166.309C194.578 164.289 191.88 162.075 190.178 160.859C189.66 160.489 189.784 159.689 190.395 159.504C194.194 158.349 194.828 157.211 194.828 157.211Z" fill="#292C38"/>
<path d="M172.791 148.636L167.215 148.312L166.66 153.185L167.766 154.327C167.766 154.327 168.599 155.764 170.163 157.734C170.436 151.839 175.83 150.979 175.83 150.979L172.791 148.636Z" fill="#292C38"/>
<path d="M166.295 138.673C166.295 138.673 164.953 142.7 165.434 148.996C165.915 155.298 165.698 166.291 162.237 172.158C158.776 178.024 152.891 176.975 150.814 177.719C148.736 178.463 148.778 180.636 149.698 181.136C150.619 181.635 151.364 183.415 150.443 183.72C149.523 184.025 150.115 177.83 153.224 174.978C159.262 169.439 152.271 162.579 152.271 162.579" stroke="#0539DB" stroke-miterlimit="10" stroke-linecap="round" stroke-linejoin="round"/>
<path d="M165.832 138.211C165.832 138.211 164.49 142.238 164.971 148.534C165.452 154.835 165.235 165.829 161.774 171.695C158.313 177.562 152.428 176.512 150.351 177.257C148.273 178.001 148.315 180.174 149.236 180.673C150.156 181.172 150.901 182.952 149.98 183.257C149.06 183.562 149.652 177.368 152.761 174.515C158.799 168.977 151.808 162.116 151.808 162.116" stroke="#C8D4E8" stroke-miterlimit="10" stroke-linecap="round" stroke-linejoin="round"/>
<path d="M166.165 154.295C163.82 154.295 160.132 153.449 159.6 151.924C158.911 149.94 159.591 148.022 159.6 148.003C159.628 147.934 159.614 147.855 159.572 147.791C159.531 147.731 159.457 147.694 159.383 147.694H154.441C153.923 147.694 153.502 147.273 153.502 146.755C153.502 146.302 153.826 145.914 154.275 145.83L161.113 144.601C161.164 144.592 161.205 144.568 161.242 144.531C161.256 144.513 162.843 142.853 165.152 142.784C165.212 142.784 165.277 142.779 165.337 142.779C169.645 142.779 171.916 147.227 172.453 148.424C168.085 148.771 167.6 153.218 167.544 154.156C167.206 154.244 166.725 154.295 166.165 154.295Z" fill="white"/>
<path d="M165.331 143.01C169.204 143.01 171.392 146.764 172.1 148.225C168.07 148.743 167.423 152.742 167.321 153.967C167.02 154.027 166.622 154.064 166.164 154.064C163.587 154.064 160.251 153.098 159.816 151.849C159.155 149.949 159.807 148.1 159.812 148.082C159.863 147.938 159.844 147.781 159.756 147.656C159.668 147.531 159.529 147.457 159.377 147.457H154.435C154.047 147.457 153.728 147.138 153.728 146.75C153.728 146.408 153.973 146.112 154.311 146.052L161.149 144.822C161.246 144.804 161.339 144.758 161.403 144.684C161.417 144.665 162.944 143.075 165.151 143.01C165.216 143.01 165.276 143.01 165.331 143.01ZM165.331 142.548C165.267 142.548 165.206 142.548 165.142 142.552C162.703 142.622 161.07 144.369 161.07 144.369L154.232 145.599C153.672 145.701 153.27 146.186 153.27 146.75C153.27 147.397 153.792 147.92 154.44 147.92H159.381C159.381 147.92 158.655 149.903 159.381 151.997C159.951 153.638 163.735 154.521 166.164 154.521C166.83 154.521 167.395 154.457 167.765 154.323C167.765 154.323 167.765 148.784 172.79 148.636C172.79 148.636 170.504 142.548 165.331 142.548Z" fill="#C8D4E8"/>
<path d="M187.086 159.943C188.331 160.859 190.741 162.398 192.374 163.415C194.003 164.432 195.025 166.526 194.951 167.349" stroke="#C8D4E8" stroke-miterlimit="10" stroke-linecap="round" stroke-linejoin="round"/>
<path d="M201.443 130.962C201.443 138.66 205.612 141.873 209.781 142.085C213.343 141.826 218.104 137.25 218.104 130.962C218.104 124.486 213.862 119.608 209.461 119.608C206.218 119.608 201.443 122.983 201.443 130.962Z" fill="#C8D4E8"/>
<path d="M144.243 162.561C144.141 162.561 144.049 162.491 144.021 162.394L136.919 138.133C136.901 138.063 136.915 137.989 136.956 137.929C136.998 137.869 137.067 137.837 137.141 137.837H151.692C151.794 137.837 151.882 137.902 151.914 137.999L159.599 161.839C159.623 161.909 159.609 161.983 159.567 162.043C159.525 162.103 159.456 162.14 159.387 162.14C159.387 162.14 144.248 162.561 144.243 162.561Z" fill="white"/>
<path d="M151.697 138.068L159.382 161.909L144.248 162.329L137.146 138.068H151.697ZM151.697 137.605H137.146C137.002 137.605 136.864 137.675 136.776 137.79C136.688 137.906 136.66 138.059 136.702 138.197L143.804 162.459C143.859 162.657 144.044 162.792 144.248 162.792C144.252 162.792 144.257 162.792 144.262 162.792L159.396 162.371C159.539 162.366 159.678 162.292 159.761 162.177C159.845 162.056 159.868 161.909 159.826 161.77L152.141 137.929C152.076 137.735 151.896 137.605 151.697 137.605Z" fill="#C8D4E8"/>
<path d="M143.497 159.782C145.82 159.13 153.884 156.38 152.283 149.838C150.419 142.219 143.844 152.214 143.844 152.214L142.16 155.21L143.497 159.782Z" fill="#C8D4E8"/>
<path d="M127.032 167.314C124.534 167.314 122.933 165.908 122.405 163.25C121.503 158.706 132.681 149.131 134.694 147.453C135.416 151.267 137.817 152.913 137.923 152.982C137.96 153.01 138.007 153.019 138.053 153.019C138.094 153.019 138.141 153.005 138.178 152.982C138.256 152.931 138.293 152.844 138.28 152.751C137.997 151.059 139.214 148.863 139.783 147.953C139.848 148.188 139.917 148.41 139.982 148.614C140.056 148.859 140.126 149.081 140.172 149.27C140.237 149.524 140.385 150.116 140.931 150.116C140.982 150.116 141.032 150.111 141.093 150.098C144.891 149.339 149.49 145.267 150.809 144.037C150.961 143.898 151.16 143.815 151.364 143.815C151.53 143.815 151.679 143.87 151.799 143.972C152.507 144.578 151.637 146.052 151.628 146.071C151.591 146.136 151.581 146.214 151.614 146.284C151.642 146.353 151.706 146.404 151.78 146.418C152.104 146.487 152.312 146.635 152.423 146.866C152.706 147.467 152.275 148.526 152.086 148.882C152.053 148.946 152.049 149.025 152.081 149.09C152.113 149.154 152.178 149.205 152.248 149.215C152.484 149.256 152.562 149.372 152.604 149.455C152.858 149.987 152.299 151.216 152.086 151.609C152.03 151.711 152.058 151.836 152.15 151.905C152.211 151.951 152.391 152.085 152.322 152.515C152.09 153.888 149.597 156.57 146.205 157.638C145.391 157.897 144.836 158.04 144.391 158.155C142.832 158.567 142.832 158.567 138.909 161.419C138.192 161.942 137.34 162.561 136.322 163.296C132.704 165.931 129.493 167.314 127.032 167.314Z" fill="white"/>
<path d="M151.364 144.055C151.443 144.055 151.554 144.073 151.651 144.156C152.118 144.554 151.637 145.617 151.433 145.955C151.355 146.084 151.345 146.241 151.406 146.38C151.466 146.519 151.586 146.62 151.734 146.648C152.063 146.717 152.164 146.865 152.215 146.967C152.456 147.476 152.044 148.47 151.882 148.779C151.813 148.909 151.808 149.066 151.878 149.2C151.942 149.334 152.067 149.426 152.215 149.454C152.359 149.477 152.386 149.533 152.4 149.565C152.576 149.935 152.197 150.943 151.887 151.507C151.776 151.71 151.831 151.965 152.016 152.103C152.049 152.126 152.146 152.196 152.095 152.492C151.882 153.777 149.393 156.407 146.136 157.434C145.326 157.688 144.776 157.836 144.331 157.951C142.73 158.372 142.656 158.427 138.77 161.252C138.053 161.774 137.202 162.394 136.188 163.129C132.607 165.718 129.443 167.086 127.032 167.086C124.654 167.086 123.136 165.746 122.632 163.212C121.878 159.403 130.47 151.29 134.546 147.882C135.369 151.525 137.687 153.116 137.794 153.185C137.872 153.236 137.96 153.264 138.053 153.264C138.141 153.264 138.229 153.24 138.303 153.19C138.46 153.088 138.539 152.908 138.506 152.727C138.275 151.336 139.117 149.57 139.709 148.534C139.728 148.59 139.742 148.645 139.76 148.696C139.839 148.941 139.904 149.158 139.95 149.334C140.015 149.588 140.204 150.356 140.935 150.356C141 150.356 141.069 150.346 141.144 150.333C144.891 149.584 149.263 145.807 150.971 144.216C151.077 144.11 151.221 144.055 151.364 144.055ZM151.364 143.592C151.11 143.592 150.846 143.694 150.651 143.874C149.263 145.169 144.766 149.131 141.051 149.875C141.009 149.884 140.972 149.889 140.935 149.889C140.616 149.889 140.491 149.579 140.399 149.214C140.283 148.756 140.047 148.114 139.876 147.392C139.876 147.392 137.669 150.485 138.053 152.792C138.053 152.792 135.476 151.068 134.856 147.018C134.856 147.018 121.156 158.127 122.179 163.291C122.715 166 124.39 167.539 127.032 167.539C129.424 167.539 132.607 166.282 136.461 163.494C144.572 157.623 142.083 159.19 146.275 157.868C150.466 156.546 153.534 152.649 152.289 151.729C152.289 151.729 153.668 149.237 152.289 148.997C152.289 148.997 153.58 146.565 151.827 146.195C151.827 146.195 152.831 144.549 151.952 143.8C151.78 143.657 151.572 143.592 151.364 143.592Z" fill="#C8D4E8"/>
<path d="M134.745 146.639C134.745 146.639 133.417 147.915 137.382 153.171C137.382 153.171 130.484 156.356 129.392 157.799C129.392 157.799 132.223 156.259 134.814 155.094C136.725 154.234 138.682 153.837 138.354 153.074C138.354 153.074 136.262 151.497 134.745 146.639Z" fill="#292C38"/>
<path d="M137.147 138.3C137.063 138.3 136.985 138.254 136.943 138.18C136.902 138.106 136.906 138.013 136.957 137.944L137.66 136.899C137.702 136.834 137.776 136.797 137.855 136.797H152.202C152.281 136.797 152.355 136.839 152.396 136.904C152.438 136.968 152.443 137.056 152.41 137.126L151.915 138.17C151.878 138.249 151.795 138.304 151.707 138.304H137.147V138.3Z" fill="white"/>
<path d="M152.192 137.023L151.697 138.068H137.146L137.849 137.023H152.192ZM152.192 136.561H137.845C137.692 136.561 137.544 136.64 137.461 136.764L136.758 137.809C136.66 137.953 136.651 138.133 136.734 138.285C136.818 138.438 136.97 138.53 137.142 138.53H151.693C151.873 138.53 152.035 138.429 152.109 138.267L152.604 137.222C152.673 137.079 152.66 136.912 152.576 136.778C152.493 136.644 152.35 136.561 152.192 136.561Z" fill="#C8D4E8"/>
<path d="M159.372 162.14C159.275 162.135 159.192 162.071 159.159 161.978L151.474 138.138C151.456 138.082 151.46 138.022 151.484 137.966L151.979 136.922C152.016 136.838 152.099 136.788 152.187 136.788C152.191 136.788 152.196 136.788 152.201 136.788C152.293 136.792 152.377 136.857 152.404 136.949L160.006 160.813C160.025 160.864 160.02 160.92 160.001 160.97L159.59 161.992C159.553 162.08 159.469 162.135 159.377 162.135C159.377 162.14 159.377 162.14 159.372 162.14Z" fill="white"/>
<path d="M152.191 137.023L159.793 160.887L159.381 161.909L151.696 138.068L152.191 137.023ZM152.191 136.561C152.016 136.561 151.849 136.663 151.775 136.825L151.28 137.869C151.229 137.976 151.22 138.096 151.257 138.207L158.942 162.052C159.002 162.237 159.173 162.367 159.368 162.371C159.372 162.371 159.377 162.371 159.386 162.371C159.576 162.371 159.742 162.256 159.816 162.08L160.228 161.058C160.27 160.957 160.274 160.846 160.242 160.744L152.64 136.88C152.585 136.7 152.418 136.57 152.229 136.561C152.21 136.561 152.201 136.561 152.191 136.561Z" fill="#C8D4E8"/>
<path d="M178.921 113.228C178.588 113.228 177.723 113.394 177.926 114.712C177.991 115.142 178.491 115.105 178.592 115.382C178.75 115.822 178.463 116.418 178.116 116.797C177.972 116.95 178.005 117.199 178.185 117.305C178.315 117.384 178.486 117.366 178.592 117.255C179.129 116.714 180.577 115.063 179.869 113.69C179.647 113.27 178.921 113.228 178.921 113.228Z" fill="#C8D4E8"/>
<path d="M178.175 117.302C178.175 117.302 175.256 119.53 173.317 125.84C171.378 132.151 168.88 138.013 165.831 138.212C162.782 138.415 162.176 126.404 162.851 123.168" stroke="#C8D4E8" stroke-miterlimit="10" stroke-linejoin="round"/>
<path d="M150.988 162.144L152.015 163.282C152.182 163.467 152.436 163.536 152.672 163.467C153.103 163.337 153.269 162.81 152.987 162.459L152.7 162.098L150.988 162.144Z" fill="#C8D4E8"/>
<path d="M128.545 158.455C131.344 155.982 138.525 153.776 138.525 153.776L138.289 152.796" stroke="#C8D4E8" stroke-miterlimit="10" stroke-linecap="round" stroke-linejoin="round"/>
<path d="M151.827 146.194C151.827 146.194 149.763 149.098 145.47 150.938" stroke="#C8D4E8" stroke-miterlimit="10" stroke-linecap="round" stroke-linejoin="round"/>
<path d="M152.284 148.997C152.284 148.997 149.924 152.755 147.264 153.449" stroke="#C8D4E8" stroke-miterlimit="10" stroke-linecap="round" stroke-linejoin="round"/>
<path d="M152.285 151.729C152.285 151.729 150.629 154.775 148.223 155.505" stroke="#C8D4E8" stroke-miterlimit="10" stroke-linecap="round" stroke-linejoin="round"/>
<path d="M245.719 194.589H214.674C212.226 194.589 210.241 192.606 210.241 190.16V159.14C210.241 156.694 212.226 154.711 214.674 154.711H245.719C248.167 154.711 250.151 156.694 250.151 159.14V190.16C250.151 192.61 248.167 194.589 245.719 194.589Z" fill="#F7F8FA" stroke="#C8D4E8" stroke-miterlimit="10" stroke-linejoin="round"/>
<path d="M225.634 165.64L219.952 172.509L230.131 183.669L240.439 172.509L235.22 165.64H225.634Z" stroke="#C8D4E8" stroke-miterlimit="10" stroke-linecap="round" stroke-linejoin="round"/>
<path d="M225.306 173.166L230.131 178.764L234.888 173.166" stroke="#C8D4E8" stroke-miterlimit="10" stroke-linecap="round" stroke-linejoin="round"/>
<path d="M70.2238 194.926H23.48C20.6021 194.926 18.2656 192.591 18.2656 189.715V143.009C18.2656 140.134 20.6021 137.799 23.48 137.799H70.2238C73.1016 137.799 75.4381 140.134 75.4381 143.009V189.715C75.4381 192.596 73.1063 194.926 70.2238 194.926Z" fill="#F7F8FA" stroke="#C8D4E8" stroke-miterlimit="10" stroke-linejoin="round"/>
<path d="M57.552 153.037H49.4876C48.0348 153.037 46.855 154.215 46.855 155.667C46.855 154.215 45.6752 153.037 44.2224 153.037H36.158C34.7052 153.037 33.5254 154.215 33.5254 155.667V175.518C33.5254 176.97 34.7052 178.149 36.158 178.149H43.5885C44.3612 179.092 45.5364 179.697 46.855 179.697C48.1736 179.697 49.3442 179.096 50.1215 178.149H57.552C59.0048 178.149 60.1846 176.97 60.1846 175.518V155.667C60.1846 154.211 59.0048 153.037 57.552 153.037Z" fill="#F7F8FA" stroke="#C8D4E8" stroke-miterlimit="10" stroke-linejoin="round"/>
<path d="M46.8535 155.667V169.91" stroke="#C8D4E8" stroke-miterlimit="10" stroke-linecap="round" stroke-linejoin="round"/>
<path d="M37.7354 158.612H42.6536" stroke="#C8D4E8" stroke-miterlimit="10" stroke-linecap="round" stroke-linejoin="round"/>
<path d="M37.7354 165.356H42.6536" stroke="#C8D4E8" stroke-miterlimit="10" stroke-linecap="round" stroke-linejoin="round"/>
<path d="M37.7354 172.102H42.6536" stroke="#C8D4E8" stroke-miterlimit="10" stroke-linecap="round" stroke-linejoin="round"/>
<path d="M51.4951 158.612H56.4133" stroke="#C8D4E8" stroke-miterlimit="10" stroke-linecap="round" stroke-linejoin="round"/>
<path d="M51.4951 165.356H56.4133" stroke="#C8D4E8" stroke-miterlimit="10" stroke-linecap="round" stroke-linejoin="round"/>
<path d="M51.4951 172.102H56.4133" stroke="#C8D4E8" stroke-miterlimit="10" stroke-linecap="round" stroke-linejoin="round"/>
<path d="M211.083 247.239C206.618 247.198 187.871 248.987 186.358 261.321C184.845 273.655 206.253 276.808 228.6 276.193C250.947 275.578 259.978 269.134 260.062 261.187C260.15 253.244 249.943 248.95 236.595 247.9C223.242 246.851 211.083 247.239 211.083 247.239Z" fill="white" stroke="#C8D4E8" stroke-miterlimit="10" stroke-linejoin="round"/>
<path d="M191.254 258.63C191.254 258.63 194.229 257.405 198.61 262.07" stroke="#C8D4E8" stroke-miterlimit="10" stroke-linecap="round" stroke-linejoin="round"/>
<path d="M214.821 269.134C214.821 269.134 216.561 264.21 226.166 265.69" stroke="#C8D4E8" stroke-miterlimit="10" stroke-linecap="round" stroke-linejoin="round"/>
<path d="M254.033 258.275C254.033 258.275 249.823 257.873 248.37 260.771" stroke="#C8D4E8" stroke-miterlimit="10" stroke-linecap="round" stroke-linejoin="round"/>
<path d="M245.857 258.584C245.857 258.584 249.563 259.809 249.244 262.481C248.925 265.153 245.404 265.579 242.438 265.135C239.472 264.696 237.404 261.977 237.404 261.977L245.857 258.584Z" fill="white" stroke="#C8D4E8" stroke-miterlimit="10" stroke-linejoin="round"/>
<path d="M242.443 268.944C242.443 268.944 241.675 265.449 236.229 264.557" stroke="#C8D4E8" stroke-miterlimit="10" stroke-linecap="round" stroke-linejoin="round"/>
<path d="M226.217 236.921C226.217 236.921 229.262 238.89 230.548 241.465C230.548 241.465 235.258 240.092 239.801 241.405C239.801 241.405 241.8 238.044 243.743 237.892C243.743 237.892 246.492 239.228 246.353 246.588C246.353 246.588 249.693 252.741 247.778 258.205C245.862 263.67 239.376 266.545 226.472 264.798C226.472 264.798 224.436 267.756 216.46 264.557C216.46 264.557 209.506 269.074 200.141 264.197C192.59 260.267 196.875 252.066 199.743 251.419C199.743 251.419 198.725 243.615 207.053 240.078C215.382 236.542 222.951 242.579 222.951 242.579C222.951 242.579 224.14 238.41 226.217 236.921Z" fill="#EBF0F7"/>
<path d="M204.235 258.205C204.235 258.205 201.594 258.792 200.682 260.771C200.233 261.746 200.127 263.087 200.141 264.201C200.141 264.201 200.141 264.201 200.145 264.201C200.955 264.622 201.746 264.969 202.514 265.26C202.454 264.196 202.496 262.639 203.107 261.478C203.875 260.017 205.378 259.444 206.072 259.25C205.489 259 204.883 258.658 204.259 258.21L204.235 258.205Z" fill="#DDE4F1"/>
<path d="M207.442 259.698C207.04 260.396 206.322 261.922 206.433 263.84C206.494 264.89 206.873 265.74 207.308 266.383C208.839 266.526 210.223 266.452 211.426 266.268C210.658 265.398 209.718 264.099 209.654 262.911C209.584 261.649 209.806 260.475 209.982 259.763C209.223 259.897 208.372 259.906 207.442 259.698Z" fill="#DDE4F1"/>
<path d="M217.856 263.027C217.393 263.766 216.861 264.335 216.459 264.557C216.459 264.557 216.209 264.719 215.737 264.95C211.897 263.41 211.638 260.359 211.689 259.222C212.313 258.926 212.822 258.589 213.192 258.316C213.771 261.339 216.736 262.638 217.856 263.027Z" fill="#DDE4F1"/>
<path d="M226.67 240.324C226.429 240.176 226.115 240.278 226.004 240.536C225.68 241.281 225.088 242.783 225.083 243.796C225.083 244.813 227.119 243.805 228.211 243.195C228.595 242.977 228.715 242.478 228.465 242.113C228.09 241.567 227.48 240.814 226.67 240.324Z" fill="#DDE4F1"/>
<path d="M243.286 241.377C242.92 241.71 242.379 242.302 242.161 243.055C242.06 243.397 242.259 243.762 242.601 243.873L243.91 244.303C244.253 244.414 244.604 244.16 244.604 243.795C244.604 243.222 244.479 242.371 243.92 241.469C243.776 241.252 243.475 241.201 243.286 241.377Z" fill="#DDE4F1"/>
<path d="M227.3 254.854C227.3 254.854 228.207 255.894 229.872 255.894C231.538 255.894 231.894 255.108 231.894 255.108" stroke="#C8D4E8" stroke-miterlimit="10" stroke-linecap="round" stroke-linejoin="round"/>
<path d="M240.281 255.223C240.281 255.223 240.374 255.866 242.636 255.866C244.251 255.866 244.635 254.854 244.635 254.854" stroke="#C8D4E8" stroke-miterlimit="10" stroke-linecap="round" stroke-linejoin="round"/>
<path d="M235.966 256.273L236.776 256.236C237.229 256.217 237.544 256.684 237.354 257.1C237.044 257.766 236.151 257.909 235.651 257.369L235.558 257.267C235.211 256.897 235.461 256.296 235.966 256.273Z" fill="#C8D4E8"/>
<path d="M226.47 264.797C227.141 264.016 227.52 260.613 222.135 259.162" stroke="#C8D4E8" stroke-miterlimit="10" stroke-linecap="round" stroke-linejoin="round"/>
<path d="M223.696 259.703C222.063 260.207 219.976 261.654 220.305 265.759C225.121 266.762 226.472 264.798 226.472 264.798C227.069 264.104 227.435 261.326 223.696 259.703Z" fill="white" stroke="#C8D4E8" stroke-miterlimit="10" stroke-linejoin="round"/>
<path d="M216.459 264.557C217.847 263.799 220.729 258.95 217.431 256.966C216.14 256.194 214.608 257.257 213.729 257.914C212.85 258.57 208.936 262.056 203.597 257.715" stroke="#C8D4E8" stroke-miterlimit="10" stroke-linecap="round" stroke-linejoin="round"/>
<path d="M199.748 251.424C200.169 253.301 200.563 253.684 200.563 253.684" stroke="#C8D4E8" stroke-miterlimit="10" stroke-linecap="round" stroke-linejoin="round"/>
<path d="M230.867 245.381C232.052 245.792 232.834 243.629 232.366 241.091C231.251 241.266 230.548 241.47 230.548 241.47C230.548 241.47 229.576 244.937 230.867 245.381Z" fill="#DDE4F1"/>
<path d="M234.67 245.742C236.484 245.889 236.812 242.593 236.484 240.869C235.396 240.809 234.369 240.86 233.49 240.947C233.282 242.265 232.935 245.598 234.67 245.742Z" fill="#DDE4F1"/>
<path d="M238.501 245.746C240.638 245.547 239.801 241.405 239.801 241.405C239.153 241.22 238.506 241.086 237.862 240.998C237.46 242.783 236.974 245.889 238.501 245.746Z" fill="#DDE4F1"/>
<path d="M221.813 241.798C221.137 241.377 220.189 240.846 219.032 240.36C218.222 241.646 218.269 243.643 218.583 244.438C219.004 245.501 220.971 245.917 220.836 243.902C220.758 242.76 221.313 242.131 221.813 241.798Z" fill="#DDE4F1"/>
<path d="M214.947 239.172C214.762 239.44 214.605 239.727 214.494 240.032C214.128 241.003 214.124 242.126 214.586 243.07C214.591 243.083 214.6 243.093 214.605 243.107C214.868 243.624 216.104 245.178 216.539 243.999C216.886 243.051 216.326 242.025 216.705 241.082C216.89 240.624 217.279 240.384 217.617 240.055C217.672 240.005 217.719 239.944 217.769 239.884C216.904 239.584 215.956 239.334 214.947 239.172Z" fill="#DDE4F1"/>
<path d="M209.362 239.325C209.181 239.829 209.14 240.411 209.093 240.906C208.95 242.455 208.931 246.259 211.495 245.404C212.244 245.154 212.429 244.392 212.314 243.68C212.147 242.649 211.786 241.729 211.98 240.661C212.078 240.134 212.277 239.635 212.596 239.2C212.633 239.154 212.721 239.071 212.827 238.978C211.721 238.95 210.555 239.052 209.362 239.325Z" fill="#DDE4F1"/>
<path d="M207.053 240.078C206.188 240.448 205.425 240.864 204.749 241.308C204.462 242.459 204.597 243.795 204.851 244.914C204.999 245.561 205.254 246.264 205.749 246.731C206.355 247.299 207.414 247.489 207.974 246.759C208.849 245.617 207.53 244.221 207.248 243.116C207.155 242.755 207.1 242.39 207.077 242.025C207.03 241.354 207.09 240.675 207.215 240.014C207.16 240.041 207.109 240.055 207.053 240.078Z" fill="#DDE4F1"/>
<path d="M199.988 248.127C200.062 248.363 200.159 248.59 200.294 248.811C200.937 249.893 202.066 250.832 203.338 251.035C203.958 251.137 204.684 250.966 204.809 250.268C204.985 249.278 204.222 248.617 203.648 247.952C202.843 247.022 202.589 245.89 202.519 244.688C202.491 244.193 202.491 243.708 202.496 243.25C201.034 244.873 200.321 246.643 199.988 248.127Z" fill="#DDE4F1"/>
<path d="M226.217 236.921C226.217 236.921 229.262 238.89 230.548 241.465C230.548 241.465 235.258 240.092 239.801 241.405C239.801 241.405 241.8 238.044 243.743 237.892C243.743 237.892 246.492 239.228 246.353 246.588C246.353 246.588 249.693 252.741 247.778 258.205C245.862 263.67 239.376 266.545 226.472 264.798C226.472 264.798 224.436 267.756 216.46 264.557C216.46 264.557 209.506 269.074 200.141 264.197C192.59 260.267 196.875 252.066 199.743 251.419C199.743 251.419 198.725 243.615 207.053 240.078C215.382 236.542 222.951 242.579 222.951 242.579C222.951 242.579 224.14 238.41 226.217 236.921Z" stroke="#C8D4E8" stroke-miterlimit="10" stroke-linecap="round" stroke-linejoin="round"/>
<path d="M289.531 135.104H252.3C249.806 135.104 247.779 133.083 247.779 130.587V93.3858C247.779 90.894 249.801 88.8691 252.3 88.8691H289.531C292.025 88.8691 294.051 90.8894 294.051 93.3858V130.587C294.047 133.083 292.025 135.104 289.531 135.104Z" fill="#F7F8FA" stroke="#C8D4E8" stroke-miterlimit="10" stroke-linejoin="round"/>
<path d="M271.229 95.6655H270.919C263.062 95.6655 256.691 102.027 256.691 109.881V126.131H262.442V109.881C262.442 105.212 266.246 101.417 270.914 101.417H271.224C275.897 101.417 279.695 105.217 279.695 109.881V126.131H285.447V109.881C285.451 102.027 279.085 95.6655 271.229 95.6655Z" fill="#3457E5"/>
<path d="M273.948 126.126H268.197V110.034C268.197 108.448 269.483 107.158 271.075 107.158C272.662 107.158 273.953 108.443 273.953 110.034V126.126H273.948Z" fill="#12D3EB"/>
<path d="M197.214 82.5873C197.149 82.578 197.089 82.5318 197.038 82.444C196.987 82.3608 196.945 82.2036 196.917 81.9771C196.871 81.6072 196.751 81.3391 196.557 81.1634C196.362 80.9877 196.062 80.8629 195.654 80.7889C195.229 80.7057 194.854 80.5301 194.525 80.2712C194.202 80.0123 193.929 79.7673 193.711 79.5407C193.503 79.3419 193.341 79.2726 193.23 79.3281C193.114 79.3836 193.059 79.4899 193.059 79.6378V81.5795C193.059 82.1065 193.059 82.6797 193.05 83.2946C193.045 83.9095 193.04 84.4873 193.04 85.0375V87.2889C193.05 87.5154 193.013 87.7697 192.934 88.047C192.855 88.3244 192.703 88.5879 192.48 88.8329C192.258 89.078 191.962 89.2906 191.592 89.4617C191.222 89.6373 190.764 89.739 190.218 89.7668C189.658 89.7945 189.158 89.6974 188.71 89.4709C188.261 89.2444 187.914 88.9578 187.669 88.6157C187.423 88.2689 187.303 87.8945 187.308 87.483C187.312 87.0716 187.488 86.6879 187.84 86.3273C188.191 85.9667 188.566 85.717 188.973 85.5784C189.381 85.435 189.774 85.3565 190.149 85.3426C190.528 85.3287 190.866 85.3565 191.162 85.4212C191.458 85.4859 191.68 85.5506 191.819 85.6061V81.598C191.819 80.4838 191.823 79.2264 191.833 77.8302C191.833 77.5575 191.902 77.3309 192.046 77.1553C192.189 76.9796 192.379 76.8779 192.615 76.8502C192.814 76.8224 192.976 76.864 193.105 76.9704C193.235 77.0767 193.364 77.2292 193.494 77.4234C193.628 77.6176 193.79 77.8349 193.984 78.0799C194.178 78.3249 194.442 78.5653 194.771 78.8011C195.053 79.0183 195.303 79.1755 195.516 79.268C195.728 79.3604 195.927 79.4483 196.112 79.5315C196.298 79.6101 196.478 79.7072 196.658 79.8227C196.839 79.9383 197.038 80.1186 197.255 80.3775C197.473 80.6225 197.607 80.8768 197.653 81.1403C197.699 81.4038 197.704 81.6442 197.662 81.8615C197.621 82.0788 197.551 82.2544 197.459 82.3931C197.357 82.5318 197.278 82.5965 197.214 82.5873Z" fill="#F7637F"/>
<path d="M46.8531 143.762C47.773 143.762 48.5187 143.017 48.5187 142.098C48.5187 141.179 47.773 140.434 46.8531 140.434C45.9332 140.434 45.1875 141.179 45.1875 142.098C45.1875 143.017 45.9332 143.762 46.8531 143.762Z" fill="#CFD7E8"/>
<path d="M271.068 72.9521C271.988 72.9521 272.734 72.207 272.734 71.2878C272.734 70.3687 271.988 69.6235 271.068 69.6235C270.148 69.6235 269.402 70.3687 269.402 71.2878C269.402 72.207 270.148 72.9521 271.068 72.9521Z" fill="#CFD7E8"/>
<path d="M270.912 176.317C271.832 176.317 272.577 175.572 272.577 174.653C272.577 173.734 271.832 172.989 270.912 172.989C269.992 172.989 269.246 173.734 269.246 174.653C269.246 175.572 269.992 176.317 270.912 176.317Z" fill="#CFD7E8"/>
<path d="M46.8535 142.098V132.357H98.7516" stroke="#C8D4E8" stroke-miterlimit="10" stroke-linecap="round" stroke-linejoin="round"/>
<path d="M111.688 118.572V105.253" stroke="#C8D4E8" stroke-miterlimit="10" stroke-linecap="round" stroke-linejoin="round"/>
<path d="M250.152 174.653H271.07V135.353" stroke="#C8D4E8" stroke-miterlimit="10" stroke-linecap="round" stroke-linejoin="round"/>
<path d="M145.467 71.2876H270.911V88.8734" stroke="#C8D4E8" stroke-miterlimit="10" stroke-linecap="round" stroke-linejoin="round"/>
<path d="M136.361 51.2478V65.9906C136.361 68.2096 138.161 70.0079 140.382 70.0079H177.974L181.921 75.9254V66.1755V51.2478C181.921 49.0288 180.121 47.2305 177.9 47.2305H140.382C138.166 47.2305 136.361 49.0288 136.361 51.2478Z" fill="#CFD7E8"/>
<path d="M173.615 54.6411H143.463" stroke="white" stroke-miterlimit="10" stroke-linecap="round"/>
<path d="M173.615 61.5806H159.143" stroke="white" stroke-miterlimit="10" stroke-linecap="round"/>
<path d="M271.07 161.016C275.158 161.016 278.473 157.704 278.473 153.619C278.473 149.534 275.158 146.222 271.07 146.222C266.981 146.222 263.667 149.534 263.667 153.619C263.667 157.704 266.981 161.016 271.07 161.016Z" fill="white" stroke="#C8D4E8" stroke-miterlimit="10" stroke-linejoin="round"/>
<path d="M267.874 153.652L270.992 155.584L274.259 153.712L270.992 148.326L267.874 153.652Z" fill="#C8D4E8"/>
<path d="M267.873 154.424L271.019 158.908L274.258 154.345L270.991 156.333L267.873 154.424Z" fill="#DDE4F1"/>
<path d="M293.157 141.008C298.012 141.008 301.948 137.075 301.948 132.224C301.948 127.373 298.012 123.44 293.157 123.44C288.302 123.44 284.366 127.373 284.366 132.224C284.366 137.075 288.302 141.008 293.157 141.008Z" fill="white" stroke="#C8D4E8" stroke-miterlimit="10" stroke-linejoin="round"/>
<path d="M296.414 133.542C296.354 133.362 296.266 133.191 296.155 133.029C296.044 132.867 295.91 132.719 295.753 132.585C295.595 132.451 295.42 132.331 295.225 132.229C295.618 132.04 295.924 131.79 296.137 131.471C296.35 131.157 296.456 130.805 296.456 130.426C296.456 130.061 296.387 129.719 296.252 129.4C296.118 129.081 295.928 128.803 295.693 128.572C295.457 128.337 295.179 128.152 294.86 128.018C294.652 127.93 294.429 127.87 294.198 127.842H294.23V126.714H293.379V127.805L293.615 127.814H292.838V126.714H291.987V127.81L289.803 127.805V128.84H290.654V135.756H289.803V136.773H291.987V137.763H292.838V136.773H293.379V137.763H294.23V136.773H293.888C294.249 136.773 294.591 136.704 294.906 136.565C295.225 136.427 295.498 136.237 295.734 135.997C295.97 135.756 296.155 135.474 296.294 135.151C296.428 134.827 296.498 134.48 296.498 134.106C296.507 133.907 296.474 133.722 296.414 133.542ZM291.82 128.827H293.851C294.036 128.827 294.212 128.873 294.374 128.961C294.536 129.053 294.679 129.169 294.804 129.317C294.924 129.465 295.022 129.626 295.096 129.816C295.165 130.001 295.202 130.195 295.202 130.385C295.202 130.56 295.165 130.731 295.096 130.898C295.026 131.064 294.929 131.207 294.809 131.337C294.689 131.462 294.545 131.563 294.383 131.637C294.221 131.711 294.045 131.748 293.856 131.748H291.825V128.827H291.82ZM295.142 134.716C295.073 134.91 294.975 135.081 294.855 135.234C294.735 135.387 294.591 135.507 294.429 135.604C294.268 135.696 294.092 135.747 293.902 135.747H291.815V132.784H293.902C294.087 132.784 294.263 132.821 294.425 132.895C294.587 132.969 294.73 133.07 294.85 133.195C294.971 133.32 295.068 133.463 295.137 133.625C295.207 133.787 295.244 133.953 295.244 134.129C295.248 134.328 295.211 134.522 295.142 134.716Z" fill="#C8D4E8"/>
</svg>
