<svg width="200" height="48" viewBox="0 0 200 48" fill="none" xmlns="http://www.w3.org/2000/svg">
<path d="M28 11.2588C28.1617 9.61602 28.9278 8.31374 30.2896 7.38597C31.1068 6.84122 32.0345 6.56885 33.0729 6.56885H57.4163C60.1996 6.56885 62.4382 8.80741 62.4382 11.5907V35.9341C62.4382 38.7174 60.1996 40.9559 57.4163 40.9559H36.784C36.9457 40.3005 37.1075 39.6451 37.2181 39.0493C37.5416 37.6875 37.8735 36.266 38.197 34.9041C38.248 34.5807 38.4183 34.4701 38.7417 34.4701C40.9803 34.1977 43.1593 33.9764 45.3468 33.5934C47.696 33.1593 49.9856 32.4443 52.0029 31.1931C54.5649 29.661 56.2076 27.482 56.6928 24.537C57.0162 22.6814 56.5311 20.9876 55.4416 19.464C54.2414 17.7191 52.5476 16.4594 50.6921 15.421C47.9088 13.8889 44.9637 13.0207 41.8485 12.3653C37.5331 11.4886 33.0049 11.2162 28.4767 11.3269H28.0936C28.1107 11.3098 28.0511 11.3098 28 11.2588Z" fill="#B9BDC5"/>
<path d="M28 17.3192C32.2048 16.8851 36.3499 16.8255 40.5547 17.2085C40.393 17.9746 40.2312 18.63 40.0099 19.3364C38.2651 26.4351 36.5202 33.4743 34.7668 40.5645C34.7157 40.8369 34.605 40.9475 34.3327 40.9475C33.2943 40.9475 32.3154 40.9986 31.277 40.6241C29.3108 39.858 28 38.0025 28 35.8746V17.3192ZM39.4056 30.2484C39.6269 29.3206 39.7886 28.5035 40.0099 27.6864C40.8271 24.4094 41.5931 21.0813 42.4102 17.8043C42.4613 17.583 42.5209 17.4213 42.8443 17.4809C45.8489 17.915 48.845 18.5704 51.6284 19.8812C52.6668 20.3748 53.6456 20.9707 54.4627 21.8474C55.0671 22.5028 55.5522 23.2092 55.6118 24.137C55.6629 25.3371 55.0671 26.1543 54.1904 26.8692C53.2115 27.6864 52.1135 28.2311 50.9134 28.6737C48.7855 29.4398 46.598 29.9249 44.419 30.0952C42.9975 30.2058 41.5846 30.2058 40.2142 30.2569H39.4056V30.2484Z" fill="#B9BDC5"/>
<path d="M78.3975 25.7283H73.1117V34.8698H69.5879V11.6245H78.406C82.9427 11.6245 85.8537 14.6291 85.8537 18.6807C85.8537 22.7322 82.9427 25.7283 78.3975 25.7283ZM78.2017 14.7908H73.1117V22.5279H78.2017C80.653 22.5279 82.3128 21.1235 82.3128 18.6722C82.3128 16.2208 80.653 14.7908 78.2017 14.7908Z" fill="#B9BDC5"/>
<path d="M98.3146 34.8782V33.3801C97.1059 34.5888 95.9653 35.0739 93.9055 35.0739C91.8457 35.0739 90.4753 34.5803 89.4624 33.5759C88.6113 32.6907 88.1602 31.4224 88.1602 30.018C88.1602 27.2432 90.0838 25.2515 93.8715 25.2515H98.2465V24.0769C98.2465 21.983 97.1995 20.9786 94.6205 20.9786C92.7905 20.9786 91.9138 21.4042 90.9945 22.5788L88.807 20.519C90.3732 18.689 92.0074 18.1357 94.7482 18.1357C99.2849 18.1357 101.575 20.0594 101.575 23.813V34.8782H98.3146ZM98.255 27.5581H94.3737C92.416 27.5581 91.4031 28.4434 91.4031 29.9414C91.4031 31.4395 92.3479 32.2906 94.4418 32.2906C95.7185 32.2906 96.6633 32.1885 97.54 31.3458C98.0337 30.8522 98.255 30.0691 98.255 28.8945V27.5581Z" fill="#B9BDC5"/>
<path d="M111.9 38.1724C111.576 39.0832 111.185 39.7386 110.691 40.2322C109.78 41.143 108.572 41.4409 107.295 41.4409H105.958V38.4363H106.81C108.214 38.4363 108.708 38.0107 109.193 36.6744L110.104 34.0953L104.324 18.3232H107.848L111.797 29.9757L115.653 18.3232H119.211L111.9 38.1724Z" fill="#B9BDC5"/>
<path d="M131.195 25.7283H125.91V34.8698H122.386V11.6245H131.204C135.741 11.6245 138.652 14.6291 138.652 18.6807C138.652 22.7322 135.732 25.7283 131.195 25.7283ZM131 14.7908H125.91V22.5279H131C133.451 22.5279 135.111 21.1235 135.111 18.6722C135.111 16.2208 133.442 14.7908 131 14.7908Z" fill="#B9BDC5"/>
<path d="M151.104 34.8782V33.3801C149.895 34.5888 148.754 35.0739 146.695 35.0739C144.635 35.0739 143.264 34.5803 142.252 33.5759C141.4 32.6907 140.949 31.4224 140.949 30.018C140.949 27.2432 142.873 25.2515 146.661 25.2515H151.036V24.0769C151.036 21.983 149.989 20.9786 147.41 20.9786C145.58 20.9786 144.703 21.4042 143.784 22.5788L141.596 20.519C143.162 18.689 144.796 18.1357 147.537 18.1357C152.074 18.1357 154.364 20.0594 154.364 23.813V34.8782H151.104ZM151.044 27.5581H147.163C145.205 27.5581 144.192 28.4434 144.192 29.9414C144.192 31.4395 145.137 32.2906 147.231 32.2906C148.508 32.2906 149.452 32.1885 150.329 31.3458C150.823 30.8522 151.044 30.0691 151.044 28.8945V27.5581Z" fill="#B9BDC5"/>
<path d="M164.689 38.1724C164.365 39.0832 163.974 39.7386 163.48 40.2322C162.569 41.143 161.361 41.4409 160.084 41.4409H158.748V38.4363H159.599C161.003 38.4363 161.497 38.0107 161.982 36.6744L162.893 34.0953L157.113 18.3232H160.637L164.587 29.9757L168.442 18.3232H172L164.689 38.1724Z" fill="#B9BDC5"/>
</svg>
