<svg width="320" height="320" viewBox="0 0 320 320" fill="none" xmlns="http://www.w3.org/2000/svg">
<g clip-path="url(#clip0_490_2258)">
<path d="M109.204 75.0547L32.1748 100.85V277.294L109.204 251.499V75.0547Z" fill="white" stroke="#C8D4E8" stroke-miterlimit="10" stroke-linejoin="round"/>
<path d="M40.2618 131.293C40.2498 131.811 40.2498 132.328 40.2739 132.849C40.6325 141.715 46.0883 150.188 54.0059 154.262C57.7331 156.179 61.9719 157.205 65.2679 159.796C68.5841 162.402 70.6068 166.332 73.7497 169.139C76.9933 172.034 81.4014 173.598 85.7571 173.397C88.8638 173.253 92.1315 172.074 93.8239 169.48C95.4074 167.058 95.3188 163.966 95.7539 161.107C96.5598 155.822 99.2877 151.034 100.807 145.906C104.433 133.659 100.956 120.543 97.0312 108.385C94.3517 100.08 88.4528 94.7071 79.3787 98.4644C76.1713 99.7916 73.3024 101.813 70.1797 103.328C64.4057 106.135 57.8378 107.198 52.3378 110.502C45.1494 114.813 40.4875 122.957 40.2618 131.293Z" fill="#DDE4F1"/>
<path d="M57.9746 213.497C57.2815 215.249 56.5764 216.993 55.7866 218.698C53.9049 222.764 51.4994 226.754 51.1287 231.217C50.8628 234.412 51.6646 237.676 50.9716 240.808C50.5364 242.769 49.5412 244.553 48.8884 246.454C48.2397 248.355 47.9657 250.544 48.9529 252.297C49.8071 253.816 51.4954 254.743 53.224 255.011C54.9526 255.28 56.7214 254.967 58.4017 254.486C65.4853 252.445 71.4487 247.393 75.5506 241.293C79.6524 235.194 82.0338 228.097 83.573 220.919C84.8986 214.748 85.636 208.352 84.5964 202.129C84.1854 199.671 83.4682 197.188 81.9048 195.244C75.5909 187.38 65.8721 197.313 62.6003 203.071C60.7226 206.383 59.3768 209.952 57.9746 213.497Z" fill="#DDE4F1"/>
<path d="M109.203 75.0547L186.232 100.85V277.294L109.203 251.499V75.0547Z" fill="white" stroke="#C8D4E8" stroke-miterlimit="10" stroke-linejoin="round"/>
<path d="M263.261 75.0547L186.232 100.85V277.294L263.261 251.499V75.0547Z" fill="white" stroke="#C8D4E8" stroke-miterlimit="10" stroke-linejoin="round"/>
<path d="M231.196 100.758C229.246 101.412 227.239 101.949 225.124 102.278C220.792 102.952 216.372 102.904 212.057 103.649C207.741 104.395 203.361 106.079 200.601 109.468C196.902 114.007 197.011 120.92 200.09 125.896C202.177 129.269 205.416 131.831 208.982 133.591C217.513 137.806 228.001 137.481 236.571 133.347C245.142 129.213 251.754 121.493 255.171 112.648C256.678 108.746 257.576 104.303 255.981 100.433C254.018 95.6777 248.7 94.3063 244.126 95.81C239.662 97.2777 235.564 99.2987 231.196 100.758Z" fill="#DDE4F1"/>
<path d="M223.153 158.019C219.321 159.21 215.965 161.48 213.833 164.993C211.376 169.039 210.469 173.814 209.788 178.494C208.358 188.294 207.689 198.311 204.401 207.658C201.226 216.68 195.673 224.873 193.679 234.228C192.913 237.825 192.704 241.618 193.731 245.151C194.759 248.683 197.148 251.935 200.521 253.435C206.137 255.929 212.601 253.159 218.012 250.239C231.591 242.913 245.117 233.747 251.983 219.977C258.035 207.839 258.12 193.427 254.937 180.25C253.22 173.153 250.323 165.883 244.457 161.5C238.84 157.314 230.193 155.834 223.153 158.019Z" fill="#DDE4F1"/>
<path d="M169.773 116.008C171.739 116.2 173.604 116.818 175.216 118.073C178.069 120.286 178.976 124.128 179.624 127.668C185.205 158.144 185.024 190.52 172.887 219.042C171.412 222.503 169.293 226.292 165.602 227.09C163.535 227.535 161.408 226.922 159.308 226.653C157.209 226.384 154.787 226.601 153.446 228.225C151.987 229.993 152.479 232.748 153.869 234.569C155.263 236.389 157.342 237.528 159.284 238.755C162.725 240.932 165.892 243.535 168.689 246.486C171.03 248.952 173.226 252.028 172.919 255.408C172.549 259.502 168.354 262.506 164.224 262.658C160.094 262.81 156.186 260.717 153.015 258.087C148.252 254.137 144.597 248.691 143.501 242.62C142.405 236.549 144.085 229.881 148.482 225.526C151.105 222.928 154.614 221.143 156.532 217.996C158.087 215.441 158.374 212.322 158.273 209.338C158.204 207.261 157.946 205.108 156.859 203.331C155.795 201.587 154.054 200.388 152.527 199.025C147.047 194.117 144.251 186.863 142.913 179.649C141.575 172.435 141.503 165.045 140.459 157.783C139.117 148.476 136.305 138.391 140.826 130.139C144.005 124.332 150.069 121.052 156.093 118.847C160.026 117.403 165.187 115.559 169.773 116.008Z" fill="#DDE4F1"/>
<path d="M248.038 111.529C248.743 111.95 249.38 112.443 249.948 112.996" stroke="#C8D4E8" stroke-linecap="round" stroke-linejoin="round"/>
<path d="M252.612 117.018C253.978 120.327 254.155 124.308 253.426 127.865C252.193 133.856 249.018 139.269 247.237 145.124C245.307 151.48 245.069 158.208 244.843 164.845C244.666 170.085 244.489 175.326 244.311 180.567C244.187 184.309 244.054 188.086 243.127 191.715C241.382 198.536 236.607 204.667 230.112 207.462C223.621 210.257 215.522 209.375 210.171 204.771C205.066 200.376 203.007 193.515 201.294 187.019C198.139 175.042 195.343 162.972 192.913 150.826C191.575 144.145 190.177 137.08 185.6 132.015C178.931 124.637 165.973 124.208 158.825 131.129C156.415 133.463 154.695 136.39 153.003 139.281C150.517 143.524 148.034 147.766 145.548 152.009C143.171 156.071 140.761 160.173 137.478 163.553C131.289 169.929 122.017 173.702 113.217 172.327C101.266 170.458 101.064 105.779 78.2624 113.702C56.5845 121.237 43.5577 186.422 62.4351 211.813" stroke="#C8D4E8" stroke-linecap="round" stroke-linejoin="round" stroke-dasharray="12.09 12.09"/>
<path d="M63.9658 213.705C64.5017 214.311 65.0618 214.892 65.642 215.437" stroke="#C8D4E8" stroke-linecap="round" stroke-linejoin="round"/>
<path d="M245.798 112.707C247.47 112.707 248.824 111.359 248.824 109.696C248.824 108.033 247.47 106.685 245.798 106.685C244.127 106.685 242.772 108.033 242.772 109.696C242.772 111.359 244.127 112.707 245.798 112.707Z" fill="white" stroke="#C8D4E8" stroke-miterlimit="10" stroke-linejoin="round"/>
<path d="M244.44 177.941C246.111 177.941 247.466 176.593 247.466 174.929C247.466 173.266 246.111 171.918 244.44 171.918C242.769 171.918 241.414 173.266 241.414 174.929C241.414 176.593 242.769 177.941 244.44 177.941Z" fill="white" stroke="#C8D4E8" stroke-miterlimit="10" stroke-linejoin="round"/>
<path d="M222.046 211.816C223.717 211.816 225.072 210.468 225.072 208.805C225.072 207.142 223.717 205.793 222.046 205.793C220.374 205.793 219.02 207.142 219.02 208.805C219.02 210.468 220.374 211.816 222.046 211.816Z" fill="white" stroke="#C8D4E8" stroke-miterlimit="10" stroke-linejoin="round"/>
<path d="M168.979 129.521C170.65 129.521 172.005 128.173 172.005 126.51C172.005 124.847 170.65 123.499 168.979 123.499C167.308 123.499 165.953 124.847 165.953 126.51C165.953 128.173 167.308 129.521 168.979 129.521Z" fill="white" stroke="#C8D4E8" stroke-miterlimit="10" stroke-linejoin="round"/>
<path d="M81.1754 116.718C82.8467 116.718 84.2015 115.369 84.2015 113.706C84.2015 112.043 82.8467 110.695 81.1754 110.695C79.5042 110.695 78.1494 112.043 78.1494 113.706C78.1494 115.369 79.5042 116.718 81.1754 116.718Z" fill="white" stroke="#C8D4E8" stroke-miterlimit="10" stroke-linejoin="round"/>
<path d="M66.6979 217.466C68.3691 217.466 69.7239 216.118 69.7239 214.455C69.7239 212.792 68.3691 211.443 66.6979 211.443C65.0267 211.443 63.6719 212.792 63.6719 214.455C63.6719 216.118 65.0267 217.466 66.6979 217.466Z" fill="white" stroke="#C8D4E8" stroke-miterlimit="10" stroke-linejoin="round"/>
<path d="M71.7471 201.459C71.8479 201.459 71.9528 201.459 72.0536 201.459" stroke="#C8D4E8" stroke-miterlimit="10" stroke-linecap="round" stroke-linejoin="round" stroke-dasharray="12 12"/>
<path d="M102.213 45.8149L184.907 86.1867" stroke="#C8D4E8" stroke-miterlimit="10" stroke-linecap="round" stroke-linejoin="round"/>
<path d="M92.5671 48.934C92.3696 48.902 92.1883 48.8498 92.0191 48.7616C91.6282 48.5651 90.8748 47.6188 90.1978 46.7647L87.5103 45.5938C87.337 45.5176 87.2 45.3772 87.1315 45.2048C87.063 45.0284 87.067 44.8359 87.1436 44.6635C87.2604 44.3988 87.5264 44.2304 87.8205 44.2384L86.8092 43.272C86.656 43.1277 86.8212 42.8791 87.0147 42.9633C88.3081 43.5126 89.4766 43.9858 89.9964 44.1221L91.592 44.5432L93.9733 48.5812C94.1264 48.8418 93.9048 49.1586 93.6107 49.1105L92.5671 48.934Z" fill="#C8D4E8"/>
<path d="M101.368 42.5143C101.436 42.4622 101.468 42.374 101.456 42.2898C101.44 42.2056 101.38 42.1334 101.299 42.1053L100.949 41.985C100.642 41.8768 100.312 41.8607 99.9977 41.9329L95.8314 42.8592C94.8522 42.2697 93.865 41.7003 92.8658 41.1469L100.376 36.0143C100.449 35.9621 100.489 35.8739 100.477 35.7857C100.465 35.6975 100.401 35.6213 100.316 35.5972L98.9259 35.092C98.5512 34.9557 98.1805 34.9797 97.8138 35.1321L93.591 36.9125L91.524 36.0343C91.3145 35.9461 91.0808 35.9421 90.8672 36.0263C90.6577 36.1105 90.4885 36.2749 90.3998 36.4834C90.2145 36.9165 90.4159 37.4177 90.8511 37.6022L91.2178 37.7586L87.9782 38.725C86.6163 38.1435 85.2503 37.6503 83.9166 37.3014C83.3928 37.1651 82.6272 37.3576 81.8979 37.4217C80.951 37.506 80.1613 37.4258 79.8792 37.9912C79.5004 38.733 81.9019 39.944 82.3734 40.1365C83.4975 40.7018 88.9533 43.1559 90.1701 43.4807L97.975 45.5458C98.6882 45.8345 99.0951 45.197 98.797 44.7318L101.368 42.5143Z" fill="#C8D4E8"/>
<path d="M290.206 193.86H257.786C255.614 193.86 253.85 192.108 253.85 189.943V157.675C253.85 155.514 255.61 153.757 257.786 153.757H290.21C292.382 153.757 294.147 155.51 294.147 157.675V189.943C294.143 192.104 292.382 193.86 290.206 193.86Z" fill="#F7F8FA" stroke="#C8D4E8" stroke-miterlimit="10" stroke-linejoin="round"/>
<path d="M274.267 159.648H273.997C267.155 159.648 261.606 165.166 261.606 171.978V186.073H266.615V171.978C266.615 167.928 269.927 164.636 273.993 164.636H274.267C278.336 164.636 281.644 167.932 281.644 171.978V186.073H286.653V171.978C286.657 165.17 281.112 159.648 274.267 159.648Z" fill="#3457E5"/>
<path d="M276.636 186.073H271.628V172.115C271.628 170.739 272.748 169.621 274.134 169.621C275.516 169.621 276.64 170.735 276.64 172.115V186.073H276.636Z" fill="#12D3EB"/>
<path d="M208.423 167.748H228.32C230.685 167.748 232.603 169.657 232.603 172.011V172.576L235.391 174.176C235.975 174.509 235.975 175.347 235.391 175.684L232.603 177.284V191.812C232.603 194.165 230.685 196.074 228.32 196.074H208.423C206.058 196.074 204.14 194.165 204.14 191.812V172.011C204.14 169.657 206.058 167.748 208.423 167.748Z" fill="#F7F8FA" stroke="#C8D4E8" stroke-miterlimit="10" stroke-linejoin="round"/>
<path d="M221.173 187.649H213.09V177.348C213.09 176.698 213.618 176.173 214.27 176.173H219.996C220.649 176.173 221.177 176.698 221.177 177.348V187.649H221.173Z" fill="#DDE4F1"/>
<path d="M224.617 187.649H221.168V180.054H223.815C224.258 180.054 224.617 180.411 224.617 180.852V187.649Z" fill="#CFD7E8"/>
<path d="M212.408 187.649H225.217" stroke="#C8D4E8" stroke-miterlimit="10" stroke-linecap="round" stroke-linejoin="round"/>
<path d="M215.406 178.535H218.811" stroke="#F7F8FA" stroke-miterlimit="10" stroke-linecap="round" stroke-linejoin="round"/>
<path d="M215.406 180.56H218.811" stroke="#F7F8FA" stroke-miterlimit="10" stroke-linecap="round" stroke-linejoin="round"/>
<path d="M215.406 182.584H218.811" stroke="#F7F8FA" stroke-miterlimit="10" stroke-linecap="round" stroke-linejoin="round"/>
<path d="M215.406 184.61H218.811" stroke="#F7F8FA" stroke-miterlimit="10" stroke-linecap="round" stroke-linejoin="round"/>
<path d="M153.297 269.684H68.5726C63.411 269.684 59.2285 265.521 59.2285 260.385V79.2653C59.2285 74.1286 63.411 69.9663 68.5726 69.9663H153.297C158.459 69.9663 162.642 74.1286 162.642 79.2653V260.385C162.642 265.521 158.459 269.684 153.297 269.684Z" fill="white" stroke="#C8D4E8" stroke-miterlimit="10" stroke-linejoin="round"/>
<path d="M153.289 75.2192H134.613C133.622 75.2192 132.816 76.0212 132.816 77.0077V79.574C132.816 81.0857 131.587 82.3087 130.068 82.3087H91.8018C90.2827 82.3087 89.0537 81.0857 89.0537 79.574V77.0077C89.0537 76.0212 88.2479 75.2192 87.2567 75.2192H68.5807C65.9737 75.2192 63.8623 77.3204 63.8623 79.9148V259.735C63.8623 262.329 65.9737 264.431 68.5807 264.431H153.289C155.896 264.431 158.008 262.329 158.008 259.735V79.9148C158.008 77.3244 155.892 75.2192 153.289 75.2192Z" fill="white" stroke="#C8D4E8" stroke-miterlimit="10" stroke-linejoin="round"/>
<path d="M146.359 95.686H119.842C118.319 95.686 116.893 96.5482 116.296 97.9436C115.414 100.025 113.343 101.484 110.929 101.484C108.516 101.484 106.449 100.025 105.562 97.9436C104.97 96.5482 103.539 95.686 102.016 95.686H75.4992C73.0091 95.686 70.9863 97.695 70.9863 100.177V139.703C70.9863 142.181 73.005 144.194 75.4992 144.194H102.016C103.539 144.194 104.966 143.332 105.562 141.936C106.445 139.855 108.516 138.396 110.929 138.396C113.343 138.396 115.41 139.855 116.296 141.936C116.889 143.332 118.319 144.194 119.842 144.194H146.359C148.849 144.194 150.872 142.185 150.872 139.703V100.177C150.872 97.695 148.853 95.686 146.359 95.686Z" fill="white" stroke="#C8D4E8" stroke-miterlimit="10" stroke-linejoin="round"/>
<path d="M77.3281 115.483H92.1037" stroke="#C8D4E8" stroke-miterlimit="10" stroke-linecap="round" stroke-linejoin="round"/>
<path d="M92.3173 119.99H77.3281V125.644H92.3173V119.99Z" fill="#C8D4E8"/>
<path d="M77.3281 134.085H95.581" stroke="#C8D4E8" stroke-miterlimit="10" stroke-linecap="round" stroke-linejoin="round"/>
<path d="M129.803 115.483H144.578" stroke="#C8D4E8" stroke-miterlimit="10" stroke-linecap="round" stroke-linejoin="round"/>
<path d="M144.578 119.99H129.589V125.644H144.578V119.99Z" fill="#C8D4E8"/>
<path d="M126.325 134.085H144.578" stroke="#C8D4E8" stroke-miterlimit="10" stroke-linecap="round" stroke-linejoin="round"/>
<path d="M119.738 107.575H102.134V110.169H119.738V107.575Z" fill="#C8D4E8"/>
<path d="M108.178 127.625H109.165L112.533 123.679C112.533 123.679 113.521 123.679 114.746 123.679C115.97 123.679 116.152 122.821 116.152 122.821C116.152 122.821 115.97 121.963 114.746 121.963C113.521 121.963 112.533 121.963 112.533 121.963L109.165 118.017H108.178L110.35 122.063C110.35 122.063 108.415 122.159 107.968 122.34L106.244 120.579L105.716 120.607L106.663 122.825L105.716 125.042L106.244 125.071L107.968 123.31C108.415 123.491 110.35 123.587 110.35 123.587L108.178 127.625Z" fill="#C8D4E8"/>
<path opacity="0.36" d="M99.1961 123.165C99.3875 123.165 99.5427 123.011 99.5427 122.82C99.5427 122.63 99.3875 122.476 99.1961 122.476C99.0048 122.476 98.8496 122.63 98.8496 122.82C98.8496 123.011 99.0048 123.165 99.1961 123.165Z" fill="#4D78FF"/>
<path opacity="0.36" d="M101.11 123.165C101.302 123.165 101.457 123.011 101.457 122.82C101.457 122.63 101.302 122.476 101.11 122.476C100.919 122.476 100.764 122.63 100.764 122.82C100.764 123.011 100.919 123.165 101.11 123.165Z" fill="#4D78FF"/>
<path opacity="0.36" d="M103.023 123.165C103.215 123.165 103.37 123.011 103.37 122.82C103.37 122.63 103.215 122.476 103.023 122.476C102.832 122.476 102.677 122.63 102.677 122.82C102.677 123.011 102.832 123.165 103.023 123.165Z" fill="#4D78FF"/>
<path opacity="0.36" d="M120.35 123.165C120.542 123.165 120.697 123.011 120.697 122.82C120.697 122.63 120.542 122.476 120.35 122.476C120.159 122.476 120.004 122.63 120.004 122.82C120.004 123.011 120.159 123.165 120.35 123.165Z" fill="#4D78FF"/>
<path opacity="0.36" d="M122.261 123.165C122.452 123.165 122.607 123.011 122.607 122.82C122.607 122.63 122.452 122.476 122.261 122.476C122.069 122.476 121.914 122.63 121.914 122.82C121.914 123.011 122.069 123.165 122.261 123.165Z" fill="#4D78FF"/>
<path opacity="0.36" d="M124.174 123.165C124.365 123.165 124.52 123.011 124.52 122.82C124.52 122.63 124.365 122.476 124.174 122.476C123.982 122.476 123.827 122.63 123.827 122.82C123.827 123.011 123.982 123.165 124.174 123.165Z" fill="#4D78FF"/>
<path d="M141.073 255.769H118.516C117.223 255.769 116.006 256.503 115.502 257.69C114.749 259.458 112.988 260.701 110.937 260.701C108.886 260.701 107.125 259.458 106.372 257.69C105.868 256.503 104.651 255.769 103.358 255.769H80.8018C78.6823 255.769 76.9658 257.477 76.9658 259.586V264.426H144.913V259.586C144.909 257.477 143.192 255.769 141.073 255.769Z" fill="white" stroke="#C8D4E8" stroke-miterlimit="10" stroke-linejoin="round"/>
<path d="M141.935 152.586H118.73C117.396 152.586 116.147 153.34 115.627 154.559C114.853 156.38 113.044 157.655 110.933 157.655C108.822 157.655 107.012 156.376 106.239 154.559C105.719 153.34 104.47 152.586 103.136 152.586H79.9312C77.7513 152.586 75.9824 154.347 75.9824 156.516V191.106C75.9824 193.275 77.7513 195.035 79.9312 195.035H103.136C104.47 195.035 105.719 194.281 106.239 193.062C107.012 191.242 108.822 189.967 110.933 189.967C113.044 189.967 114.853 191.246 115.627 193.062C116.147 194.281 117.396 195.035 118.73 195.035H141.935C144.115 195.035 145.883 193.275 145.883 191.106V156.516C145.883 154.347 144.115 152.586 141.935 152.586Z" fill="white" stroke="#C8D4E8" stroke-miterlimit="10" stroke-linejoin="round"/>
<path d="M133.465 183.291H141.378" stroke="#C8D4E8" stroke-miterlimit="10" stroke-linecap="round" stroke-linejoin="round"/>
<path d="M80.3506 160.414H105.715" stroke="#C8D4E8" stroke-miterlimit="10" stroke-linecap="round" stroke-linejoin="round"/>
<path d="M135.367 160.414H141.379" stroke="#C8D4E8" stroke-miterlimit="10" stroke-linecap="round" stroke-linejoin="round"/>
<path d="M98.8775 165.394H80.3506V183.832H98.8775V165.394Z" fill="#C8D4E8"/>
<path d="M120.35 165.394H103.023V168.634H120.35V165.394Z" fill="#C8D4E8"/>
<path d="M141.378 165.394H133.465V168.634H141.378V165.394Z" fill="#C8D4E8"/>
<path d="M103.023 174.184H120.35" stroke="#C8D4E8" stroke-miterlimit="10" stroke-linecap="round" stroke-linejoin="round"/>
<path d="M103.023 183.291H110.933" stroke="#C8D4E8" stroke-miterlimit="10" stroke-linecap="round" stroke-linejoin="round"/>
<path d="M118.242 183.291H126.156" stroke="#C8D4E8" stroke-miterlimit="10" stroke-linecap="round" stroke-linejoin="round"/>
<path d="M91.2049 170.739H85.7451V178.49H91.2049V170.739Z" stroke="white" stroke-miterlimit="10" stroke-linecap="round" stroke-linejoin="round"/>
<path d="M93.5341 173.357H91.2051V178.486H93.5341V173.357Z" stroke="white" stroke-miterlimit="10" stroke-linecap="round" stroke-linejoin="round"/>
<path d="M85.2861 178.486H93.9371" stroke="white" stroke-miterlimit="10" stroke-linecap="round" stroke-linejoin="round"/>
<path d="M87.3086 172.335H89.6093" stroke="white" stroke-miterlimit="10" stroke-linecap="round" stroke-linejoin="round"/>
<path d="M87.3086 173.702H89.6093" stroke="white" stroke-miterlimit="10" stroke-linecap="round" stroke-linejoin="round"/>
<path d="M87.3086 175.07H89.6093" stroke="white" stroke-miterlimit="10" stroke-linecap="round" stroke-linejoin="round"/>
<path d="M87.3086 176.438H89.6093" stroke="white" stroke-miterlimit="10" stroke-linecap="round" stroke-linejoin="round"/>
<path d="M141.935 204.178H118.73C117.396 204.178 116.147 204.932 115.627 206.151C114.853 207.971 113.044 209.246 110.933 209.246C108.822 209.246 107.012 207.967 106.239 206.151C105.719 204.932 104.47 204.178 103.136 204.178H79.9312C77.7513 204.178 75.9824 205.938 75.9824 208.107V242.697C75.9824 244.866 77.7513 246.627 79.9312 246.627H103.136C104.47 246.627 105.719 245.873 106.239 244.654C107.012 242.833 108.822 241.558 110.933 241.558C113.044 241.558 114.853 242.837 115.627 244.654C116.147 245.873 117.396 246.627 118.73 246.627H141.935C144.115 246.627 145.883 244.866 145.883 242.697V208.107C145.883 205.938 144.115 204.178 141.935 204.178Z" fill="white" stroke="#C8D4E8" stroke-miterlimit="10" stroke-linejoin="round"/>
<path d="M105.24 213.016H80.3506V237.785H105.24V213.016Z" fill="white" stroke="#C8D4E8" stroke-miterlimit="10" stroke-linejoin="round"/>
<path d="M131.145 213.016H108.83V216.255H131.145V213.016Z" fill="#C8D4E8"/>
<path d="M139.01 238.334H134.38C133.07 238.334 132.011 237.279 132.011 235.976C132.011 234.673 133.07 233.619 134.38 233.619H139.01C140.319 233.619 141.379 234.673 141.379 235.976C141.379 237.275 140.319 238.334 139.01 238.334Z" fill="#C8D4E8"/>
<path d="M127.312 238.334H122.683C121.373 238.334 120.313 237.279 120.313 235.976C120.313 234.673 121.373 233.619 122.683 233.619H127.312C128.622 233.619 129.682 234.673 129.682 235.976C129.678 237.275 128.618 238.334 127.312 238.334Z" fill="white" stroke="#C8D4E8" stroke-miterlimit="10" stroke-linejoin="round"/>
<path d="M92.0231 223.958C92.0231 223.958 86.8575 226.028 88.7432 232.399L92.0231 232.01C92.0231 232.01 89.5209 227.68 92.966 224.508L92.0231 223.958Z" fill="#F7F8FA" stroke="#C8D4E8" stroke-miterlimit="10" stroke-linejoin="round"/>
<path d="M86.6279 234.328H96.7416C96.7416 234.328 96.0042 231.205 92.128 231.205C88.2517 231.205 86.9745 232.604 86.6279 234.328Z" fill="#C8D4E8"/>
<path d="M92.499 222.463C92.499 222.463 91.6206 224.672 92.6843 226.982C93.9012 229.621 96.0972 229.5 96.0972 229.5C96.0972 229.5 96.3148 227.616 95.251 225.326C94.1913 223.032 92.499 222.463 92.499 222.463Z" fill="#EBF0F7"/>
<path d="M92.809 225.554C93.4165 225.554 93.909 225.064 93.909 224.46C93.909 223.855 93.4165 223.365 92.809 223.365C92.2015 223.365 91.709 223.855 91.709 224.46C91.709 225.064 92.2015 225.554 92.809 225.554Z" fill="#C8D4E8"/>
<path d="M98.9542 222.407C98.9542 222.407 97.016 221.156 94.6186 221.721C91.8746 222.362 91.5684 224.46 91.5684 224.46C91.5684 224.46 93.3211 225.025 95.7065 224.46C98.0878 223.894 98.9542 222.407 98.9542 222.407Z" fill="#DDE4F1"/>
<path d="M89.803 216.472C89.803 216.472 88.7957 218.537 89.6539 220.839C90.6371 223.469 92.7645 223.51 92.7645 223.51C92.7645 223.51 93.1111 221.705 92.2528 219.423C91.3946 217.142 89.803 216.472 89.803 216.472Z" fill="#EBF0F7"/>
<path d="M93.0872 223.361C93.0872 223.361 90.9879 221.857 88.2681 222.359C85.1575 222.932 84.7021 225.262 84.7021 225.262C84.7021 225.262 86.6362 225.991 89.3359 225.486C92.0355 224.981 93.0872 223.361 93.0872 223.361Z" fill="#DDE4F1"/>
<path d="M97.1726 220.441C98.1562 220.441 98.9535 219.648 98.9535 218.669C98.9535 217.69 98.1562 216.897 97.1726 216.897C96.189 216.897 95.3916 217.69 95.3916 218.669C95.3916 219.648 96.189 220.441 97.1726 220.441Z" fill="#DDE4F1"/>
<path d="M108.83 223.377H128.348" stroke="#C8D4E8" stroke-miterlimit="10" stroke-linecap="round" stroke-linejoin="round"/>
<path d="M108.83 228.915H141.379" stroke="#C8D4E8" stroke-miterlimit="10" stroke-linecap="round" stroke-linejoin="round"/>
<path d="M141.052 226.846C141.853 226.846 142.503 226.2 142.503 225.402C142.503 224.605 141.853 223.959 141.052 223.959C140.251 223.959 139.602 224.605 139.602 225.402C139.602 226.2 140.251 226.846 141.052 226.846Z" fill="#CFD7E8"/>
<path d="M239.952 108.75L237.03 107.07V87.9707C237.03 85.9778 235.407 84.3618 233.404 84.3618H207.088C205.086 84.3618 203.462 85.9778 203.462 87.9707V114.159C203.462 116.152 205.086 117.768 207.088 117.768H233.404C235.407 117.768 237.03 116.152 237.03 114.159V112.319L239.952 110.639C240.681 110.222 240.681 109.171 239.952 108.75Z" fill="#F7F8FA" stroke="#C8D4E8" stroke-miterlimit="10" stroke-linejoin="round"/>
<path d="M220.437 99.6235C220.437 99.6235 215.272 101.693 217.157 108.064L220.437 107.675C220.437 107.675 217.935 103.345 221.38 100.173L220.437 99.6235Z" fill="#F7F8FA" stroke="#C8D4E8" stroke-miterlimit="10" stroke-linejoin="round"/>
<path d="M215.046 109.993H225.16C225.16 109.993 224.422 106.87 220.546 106.87C216.67 106.87 215.392 108.269 215.046 109.993Z" fill="#C8D4E8"/>
<path d="M220.913 98.1279C220.913 98.1279 220.035 100.337 221.098 102.647C222.315 105.286 224.511 105.165 224.511 105.165C224.511 105.165 224.729 103.281 223.665 100.991C222.601 98.7014 220.913 98.1279 220.913 98.1279Z" fill="#EBF0F7"/>
<path d="M221.223 101.22C221.831 101.22 222.323 100.729 222.323 100.125C222.323 99.5204 221.831 99.0303 221.223 99.0303C220.616 99.0303 220.123 99.5204 220.123 100.125C220.123 100.729 220.616 101.22 221.223 101.22Z" fill="#C8D4E8"/>
<path d="M227.368 98.0716C227.368 98.0716 225.43 96.8206 223.033 97.386C220.289 98.0275 219.982 100.125 219.982 100.125C219.982 100.125 221.735 100.69 224.121 100.125C226.506 99.5592 227.368 98.0716 227.368 98.0716Z" fill="#DDE4F1"/>
<path d="M218.217 92.1372C218.217 92.1372 217.21 94.2023 218.068 96.504C219.051 99.1345 221.179 99.1746 221.179 99.1746C221.179 99.1746 221.525 97.3701 220.667 95.0885C219.809 92.8069 218.217 92.1372 218.217 92.1372Z" fill="#EBF0F7"/>
<path d="M221.505 99.0261C221.505 99.0261 219.406 97.5225 216.686 98.0237C213.575 98.597 213.12 100.927 213.12 100.927C213.12 100.927 215.054 101.656 217.754 101.151C220.454 100.646 221.505 99.0261 221.505 99.0261Z" fill="#DDE4F1"/>
<path d="M225.587 96.1026C226.57 96.1026 227.368 95.3091 227.368 94.3303C227.368 93.3516 226.57 92.5581 225.587 92.5581C224.603 92.5581 223.806 93.3516 223.806 94.3303C223.806 95.3091 224.603 96.1026 225.587 96.1026Z" fill="#DDE4F1"/>
<path d="M156.992 182.356H135.37C132.808 182.356 130.729 184.425 130.729 186.975V228.702H132.929V187.124C132.929 185.596 134.174 184.353 135.713 184.353H156.653C158.188 184.353 159.438 185.592 159.438 187.124V228.702H161.638V186.975C161.634 184.425 159.554 182.356 156.992 182.356Z" fill="white" stroke="#C8D4E8" stroke-miterlimit="10" stroke-linejoin="round"/>
<path d="M154.445 185.825H137.917C136.511 185.825 135.366 184.69 135.366 183.286C135.366 181.887 136.507 180.748 137.917 180.748H154.445C155.851 180.748 156.996 181.883 156.996 183.286C156.992 184.69 155.851 185.825 154.445 185.825Z" fill="#C8D4E8"/>
<path d="M133.562 286C132.341 286 131.35 285.014 131.35 283.799V279.348H135.778V283.799C135.778 285.014 134.787 286 133.562 286Z" fill="#C8D4E8"/>
<path d="M158.797 286C157.576 286 156.585 285.014 156.585 283.799V279.348H161.013V283.799C161.013 285.014 160.022 286 158.797 286Z" fill="#C8D4E8"/>
<path d="M158.837 281.926H133.521C128.73 281.926 124.842 278.06 124.842 273.289V228.338C124.842 223.57 128.726 219.7 133.521 219.7H158.837C163.628 219.7 167.517 223.566 167.517 228.338V273.293C167.517 278.06 163.632 281.926 158.837 281.926Z" fill="white" stroke="#C8D4E8" stroke-miterlimit="10" stroke-linejoin="round"/>
<path d="M153.885 271.452H138.477C135.153 271.452 132.453 268.769 132.453 265.457V236.165C132.453 232.857 135.149 230.17 138.477 230.17H153.885C157.209 230.17 159.909 232.853 159.909 236.165V265.457C159.905 268.769 157.209 271.452 153.885 271.452Z" fill="white" stroke="#C8D4E8" stroke-miterlimit="10" stroke-linejoin="round"/>
<path d="M150.267 242.132H142.091C140.689 242.132 139.549 241.001 139.549 239.602C139.549 238.206 140.685 237.071 142.091 237.071H150.267C151.669 237.071 152.809 238.202 152.809 239.602C152.809 240.997 151.673 242.132 150.267 242.132Z" fill="#C8D4E8"/>
<path d="M243.704 219.881H224.536L222.84 216.958C222.485 216.348 221.607 216.348 221.252 216.958L219.556 219.881H215.164C213.085 219.881 211.4 221.557 211.4 223.626V252.028C211.4 254.097 213.085 255.774 215.164 255.774H243.704C245.783 255.774 247.467 254.097 247.467 252.028V223.626C247.463 221.557 245.783 219.881 243.704 219.881Z" fill="#F7F8FA" stroke="#C8D4E8" stroke-miterlimit="10" stroke-linejoin="round"/>
<path d="M236.946 244.822H221.916C221.135 244.822 220.498 244.189 220.498 243.411V235.182C220.498 234.405 221.135 233.771 221.916 233.771H236.946C237.728 233.771 238.364 234.405 238.364 235.182V243.411C238.364 244.189 237.732 244.822 236.946 244.822Z" fill="#CFD7E8"/>
<path d="M229.162 243.439C231.411 243.439 233.235 241.624 233.235 239.385C233.235 237.146 231.411 235.331 229.162 235.331C226.912 235.331 225.088 237.146 225.088 239.385C225.088 241.624 226.912 243.439 229.162 243.439Z" fill="white"/>
<path d="M229.162 241.787C230.495 241.787 231.575 240.712 231.575 239.385C231.575 238.059 230.495 236.983 229.162 236.983C227.829 236.983 226.748 238.059 226.748 239.385C226.748 240.712 227.829 241.787 229.162 241.787Z" fill="#DDE4F1"/>
<path d="M235.648 236.293C236.156 236.293 236.567 235.884 236.567 235.379C236.567 234.874 236.156 234.465 235.648 234.465C235.141 234.465 234.729 234.874 234.729 235.379C234.729 235.884 235.141 236.293 235.648 236.293Z" fill="white"/>
<path d="M231.349 233.771H226.429C225.906 233.771 225.479 233.346 225.479 232.825C225.479 232.303 225.906 231.878 226.429 231.878H231.349C231.873 231.878 232.3 232.303 232.3 232.825C232.3 233.346 231.873 233.771 231.349 233.771Z" fill="#DDE4F1"/>
<path d="M234.444 232.803C234.71 232.634 234.65 232.066 234.309 231.533C233.968 231.001 233.475 230.707 233.209 230.876C232.943 231.045 233.003 231.614 233.344 232.146C233.685 232.678 234.178 232.972 234.444 232.803Z" fill="#CFD7E8"/>
<path d="M236.148 232.592C236.563 232.329 236.793 231.949 236.661 231.744C236.529 231.538 236.086 231.585 235.672 231.848C235.257 232.111 235.028 232.491 235.159 232.697C235.291 232.902 235.734 232.855 236.148 232.592Z" fill="#CFD7E8"/>
<path d="M246.431 165.19C245.331 164.095 243.55 164.095 242.45 165.19C241.35 166.284 241.35 168.057 242.45 169.151L244.44 171.132L246.431 169.151C247.527 168.053 247.527 166.28 246.431 165.19ZM244.44 168.277C243.892 168.277 243.449 167.836 243.449 167.291C243.449 166.746 243.892 166.304 244.44 166.304C244.988 166.304 245.432 166.746 245.432 167.291C245.432 167.836 244.988 168.277 244.44 168.277Z" fill="#12D3EB"/>
<path d="M86.0069 60.511V81.8236C86.0069 83.7484 84.4395 85.3082 82.5054 85.3082H57.8257L54.3887 90.4409V81.984V60.511C54.3887 58.5862 55.9561 57.0264 57.8902 57.0264H82.5054C84.4355 57.0264 86.0069 58.5862 86.0069 60.511Z" fill="white" stroke="#CFD7E8" stroke-miterlimit="10"/>
<path d="M61.6211 71.9751H81.2158" stroke="#C8D4E8" stroke-miterlimit="10" stroke-linecap="round" stroke-linejoin="round"/>
<path d="M61.6211 65.9565H81.2158" stroke="#C8D4E8" stroke-miterlimit="10" stroke-linecap="round" stroke-linejoin="round"/>
<path d="M61.6211 77.9941H74.2249" stroke="#C8D4E8" stroke-miterlimit="10" stroke-linecap="round" stroke-linejoin="round"/>
<path d="M145.493 121.381C146.294 121.381 146.943 120.735 146.943 119.938C146.943 119.14 146.294 118.494 145.493 118.494C144.691 118.494 144.042 119.14 144.042 119.938C144.042 120.735 144.691 121.381 145.493 121.381Z" fill="#CFD7E8"/>
<path d="M273.996 121.381C274.798 121.381 275.447 120.735 275.447 119.938C275.447 119.14 274.798 118.494 273.996 118.494C273.195 118.494 272.546 119.14 272.546 119.938C272.546 120.735 273.195 121.381 273.996 121.381Z" fill="#CFD7E8"/>
<path d="M141.052 175.254C141.853 175.254 142.503 174.608 142.503 173.811C142.503 173.013 141.853 172.367 141.052 172.367C140.251 172.367 139.602 173.013 139.602 173.811C139.602 174.608 140.251 175.254 141.052 175.254Z" fill="#CFD7E8"/>
<path d="M273.996 226.846C274.798 226.846 275.447 226.2 275.447 225.402C275.447 224.605 274.798 223.959 273.996 223.959C273.195 223.959 272.546 224.605 272.546 225.402C272.546 226.2 273.195 226.846 273.996 226.846Z" fill="#CFD7E8"/>
<path d="M145.492 119.938H273.996V153.573" stroke="#C8D4E8" stroke-miterlimit="10" stroke-linecap="round" stroke-linejoin="round"/>
<path d="M141.052 225.402H273.996V193.86" stroke="#C8D4E8" stroke-miterlimit="10" stroke-linecap="round" stroke-linejoin="round"/>
<path d="M141.378 173.811H253.849" stroke="#C8D4E8" stroke-miterlimit="10" stroke-linecap="round" stroke-linejoin="round"/>
<path d="M294.143 161.192C298.371 161.192 301.799 157.781 301.799 153.573C301.799 149.365 298.371 145.954 294.143 145.954C289.915 145.954 286.487 149.365 286.487 153.573C286.487 157.781 289.915 161.192 294.143 161.192Z" fill="white" stroke="#C8D4E8" stroke-miterlimit="10" stroke-linejoin="round"/>
<path d="M290.843 153.609L294.066 155.602L297.443 153.669L294.066 148.123L290.843 153.609Z" fill="#C8D4E8"/>
<path d="M290.843 154.403L294.094 159.026L297.443 154.323L294.066 156.372L290.843 154.403Z" fill="#DDE4F1"/>
<path d="M273.996 214.455C277.556 214.455 280.443 211.583 280.443 208.039C280.443 204.496 277.556 201.624 273.996 201.624C270.435 201.624 267.549 204.496 267.549 208.039C267.549 211.583 270.435 214.455 273.996 214.455Z" fill="white" stroke="#C8D4E8" stroke-miterlimit="10" stroke-linejoin="round"/>
<path d="M276.385 208.998C276.341 208.865 276.277 208.741 276.196 208.621C276.115 208.504 276.019 208.396 275.902 208.296C275.785 208.196 275.656 208.112 275.515 208.035C275.805 207.899 276.027 207.715 276.184 207.482C276.341 207.253 276.418 206.997 276.418 206.72C276.418 206.451 276.369 206.203 276.269 205.97C276.168 205.738 276.031 205.537 275.858 205.365C275.684 205.192 275.479 205.06 275.245 204.96C275.092 204.896 274.931 204.851 274.762 204.831H274.786V204.005H274.161V204.799L274.334 204.807H273.762V204.005H273.138V204.807L271.538 204.803V205.557H272.163V210.61H271.538V211.352H273.138V212.073H273.762V211.352H274.161V212.073H274.786V211.352H274.532C274.798 211.352 275.048 211.299 275.281 211.199C275.515 211.099 275.717 210.959 275.89 210.786C276.063 210.61 276.2 210.405 276.301 210.169C276.401 209.932 276.45 209.679 276.45 209.407C276.45 209.266 276.43 209.13 276.385 208.998ZM273.013 205.557H274.504C274.641 205.557 274.766 205.589 274.886 205.657C275.007 205.726 275.112 205.81 275.201 205.918C275.289 206.026 275.362 206.147 275.414 206.283C275.467 206.419 275.491 206.56 275.491 206.7C275.491 206.828 275.467 206.953 275.414 207.077C275.362 207.197 275.293 207.306 275.205 207.398C275.116 207.49 275.011 207.562 274.895 207.618C274.774 207.674 274.645 207.698 274.508 207.698H273.017V205.557H273.013ZM275.451 209.856C275.398 209.996 275.33 210.124 275.241 210.233C275.152 210.345 275.048 210.433 274.931 210.501C274.814 210.57 274.685 210.606 274.544 210.606H273.013V208.44H274.544C274.681 208.44 274.806 208.468 274.927 208.521C275.048 208.577 275.152 208.649 275.237 208.741C275.326 208.833 275.394 208.938 275.447 209.058C275.499 209.174 275.523 209.298 275.523 209.423C275.527 209.575 275.503 209.715 275.451 209.856Z" fill="#C8D4E8"/>
<path d="M57.8024 108.321C56.6379 107.002 56.4808 106.12 56.3438 104.796C56.2068 103.473 56.2955 100.634 56.2955 100.634C56.2955 100.634 54.0592 100.089 53.1687 100.089C52.2782 100.089 47.4188 101.304 47.4188 101.304L37.3535 113.715L37.7081 120.034L46.2785 122.669L48.6034 118.149L52.3548 116.157L57.6936 113.001C57.6936 113.001 57.4438 111.69 57.4156 110.984C57.3914 110.278 58.3867 108.987 57.8024 108.321Z" fill="white" stroke="#C8D4E8" stroke-miterlimit="10" stroke-linejoin="round"/>
<path d="M37.7078 95.0081C35.6206 95.8502 34.9195 97.37 34.7301 100.562C34.5407 103.754 34.3997 110.47 35.1572 112.487C35.9147 114.504 37.2888 115.014 39.2752 114.893C41.2617 114.769 42.6881 112.415 42.7767 110.174C42.8654 107.932 43.5705 106.224 45.9639 106.641C48.3574 107.058 47.5676 110.514 47.5676 110.514C47.5676 110.514 45.291 112.11 45.2386 114.159C45.1863 116.212 48.7039 120.138 52.4632 121.385C56.2226 122.632 57.3347 120.202 57.5402 117.58C57.7457 114.957 57.6933 113.458 57.6933 113.001C57.6933 112.543 55.179 110.799 53.9058 111.405C52.6325 112.014 51.6977 114.532 50.7024 114.24C49.7112 113.951 51.331 110.815 50.5292 108.052C49.7273 105.29 48.45 104.359 49.0987 103.445C49.7475 102.531 51.1779 102.134 51.1779 102.134C51.1779 102.134 55.453 102.607 57.0768 100.217C58.7007 97.8231 58.1728 94.7836 55.038 93.7771C51.9032 92.7706 48.0874 94.1019 45.432 95.5615C45.4401 95.5655 41.4873 93.4803 37.7078 95.0081Z" fill="#292C38"/>
<path d="M27.8554 137.321C27.8554 137.321 20.5261 154.371 22.9477 160.514C25.3693 166.657 39.4358 169.825 39.4358 169.825L41.8896 155.514L27.8554 137.321Z" fill="#0539DB"/>
<path d="M21.1389 268.817C21.1389 268.817 18.0806 274.155 18 276.801C18 276.801 20.7682 280.687 33.8514 281.08C46.9347 281.473 45.9636 280.37 45.9636 280.37L46.423 277.92L32.6184 272.146L21.1389 268.817Z" fill="#292C38"/>
<path d="M29.8541 195.031C29.8541 195.031 29.7373 215.341 31.2604 228.959C31.2604 228.959 27.1061 240.058 25.2083 252.561C23.3105 265.064 21.1387 268.818 21.1387 268.818C21.1387 268.818 24.3057 272.747 32.6183 272.146L42.1678 216.067L29.8541 195.031Z" fill="#EBF0F7"/>
<path d="M32.59 276.829C32.59 276.829 31.7277 279.66 31.9009 282.391C32.0742 285.122 46.3784 286.441 61.3151 284.665C61.3151 284.665 61.9397 282.09 60.7994 280.37C60.7994 280.37 54.1308 279.319 51.685 278.333C49.2432 277.351 47.3454 275.723 45.9633 275.666C44.5772 275.61 32.59 276.829 32.59 276.829Z" fill="#292C38"/>
<path d="M25.5708 186.658C25.5708 186.658 25.6353 183.354 28.8426 183.29C32.05 183.226 30.3697 178.057 30.3697 178.057L25.9415 178.751C25.9415 178.751 24.8979 183.711 25.5708 186.658Z" fill="#0539DB"/>
<path d="M27.7798 178.855C27.7798 178.855 26.1963 188.262 29.2263 196.779C32.2524 205.296 33.3685 208.621 33.848 214.022C34.3275 219.423 35.504 230.591 36.3985 233.707C36.3985 233.707 31.0395 257.987 30.9992 277.326C30.9992 277.326 33.0905 279.404 39.07 279.103C42.7166 278.918 46.0005 276.552 45.9642 275.666C45.9642 275.666 42.7971 269.046 44.1993 260.453C45.6016 251.859 53.1485 221.749 54.6756 209.976C56.2028 198.203 57.3229 183.956 56.8636 180.996C56.4002 178.045 27.7798 178.855 27.7798 178.855Z" fill="#EBF0F7"/>
<path d="M56.9603 183.587C56.9562 183.579 56.2632 182.139 55.1753 179.97C48.9661 178.254 27.7798 178.855 27.7798 178.855C27.7798 178.855 26.1963 188.262 29.2263 196.779C32.2564 205.296 33.3685 208.621 33.848 214.022C34.3234 219.427 35.504 230.591 36.3986 233.707C36.3986 233.707 31.0395 257.987 30.9992 277.326C30.9992 277.326 33.0905 279.403 39.07 279.107C40.162 279.051 41.2217 278.798 42.1686 278.449C42.1686 278.449 34.4967 280.57 33.582 275.666C29.4882 253.776 41.2096 238.23 38.3085 233.618C35.4073 229.007 39.3762 222.731 36.1689 210.12C32.9615 197.509 28.5333 189.249 31.8011 186.743C39.8154 180.591 56.9361 183.583 56.9603 183.587Z" fill="#DDE4F1"/>
<path d="M34.1331 122.673C34.1331 122.673 27.6943 127.837 27.8997 137.188C28.1052 146.54 30.958 151.929 30.4987 160.326C30.0393 168.722 23.1451 177.039 25.5748 186.659C25.5748 186.659 25.1517 183.362 26.5539 180.271C26.5539 180.271 28.2664 182.528 28.4155 185.704C28.4155 185.704 46.0157 178.599 61.1096 185.007C61.1096 185.007 55.5974 172.933 57.0722 155.277L57.5678 145.381C57.5678 145.381 57.2898 139.117 53.8205 133.343L52.9461 130.38L44.1944 123.198L35.4064 121.381L34.1331 122.673Z" fill="#3457E5"/>
<path d="M34.1338 122.673C34.1338 122.673 42.1159 122.512 48.7966 129.586L52.2416 131.406L51.327 133.114C51.327 133.114 55.864 138.387 57.0486 142.798C57.0486 142.798 56.1743 137.024 53.0435 132.733L52.8138 130.993L46.0566 125.211L39.2994 122.669L35.2539 122.059L34.1338 122.673Z" fill="#0539DB"/>
<path d="M41.894 130.468C41.894 130.468 46.7454 129.658 50.9077 133.876C55.07 138.094 57.0484 142.798 57.0484 142.798L53.6154 145.878C53.6154 145.878 42.6596 138.167 42.164 136.875C41.6684 135.584 41.894 130.468 41.894 130.468Z" fill="#0539DB"/>
<path d="M55.7143 164.532C56.1091 165.571 56.5927 166.569 57.0842 167.483C56.7659 163.842 56.6934 159.736 57.0641 155.277L57.1729 153.136L36.0833 135.127C36.0833 135.127 35.487 143.713 45.1816 151.235C54.8762 158.758 54.2677 160.743 55.7143 164.532Z" fill="#0539DB"/>
<path d="M33.5488 119.99L34.1331 122.668C34.1331 122.668 41.3295 121.181 49.2713 129.173L52.6842 131.282L51.7937 133.042C51.7937 133.042 56.3348 137.08 57.5637 145.381C57.5637 145.381 58.3333 135.32 50.1376 126.165C50.1376 126.165 49.5574 122.255 48.8039 121.381C48.0545 120.503 42.4537 118.418 33.5488 119.99Z" fill="#3457E5"/>
<path d="M74.4789 132.192C74.4789 132.192 76.014 132.837 77.4162 134.357C78.8185 135.877 80.3254 137.557 80.3496 138.163C80.3738 138.764 76.6587 139.45 76.5298 139.374C76.4009 139.297 74.2371 137.325 74.225 136.334C74.2129 135.344 74.4789 132.192 74.4789 132.192Z" fill="#292C38"/>
<path d="M74.9508 135.179C74.9508 135.179 74.572 131.358 76.2482 128.31C77.3442 126.313 80.1043 125.556 80.8014 124.449C81.1721 123.859 81.849 124.02 82.0142 124.164C82.3124 124.425 82.7516 125.191 81.4541 126.482C80.1567 127.773 80.0761 127.893 80.334 128.018C80.5918 128.142 84.2021 128.447 86.4344 125.981C87.4578 124.85 87.9252 124.004 88.7795 124.208C89.6337 124.413 88.574 126.273 88.1348 126.795C88.1348 126.795 88.723 126.718 89.267 125.977C89.811 125.235 90.3348 125.235 90.6773 125.596C91.0198 125.957 90.6571 127.565 88.9326 128.719C88.9326 128.719 89.5692 128.499 89.9963 128.13C90.4234 127.757 91.0601 127.645 91.2897 128.006C91.5194 128.367 90.9593 129.457 89.3315 130.38C89.3315 130.38 89.8795 130.267 90.1454 130.115C90.4113 129.962 90.7619 130.091 90.8787 130.279C90.9956 130.468 91.0117 130.913 90.4073 131.306C89.8029 131.699 87.5183 132.781 85.2296 133.034C82.9409 133.287 79.5241 136.17 78.8673 137.637C78.2105 139.105 74.9508 135.179 74.9508 135.179Z" fill="white" stroke="#C8D4E8" stroke-miterlimit="10" stroke-linejoin="round"/>
<path d="M36.225 134.161C36.225 134.161 34.1862 140.645 44.8639 149.795C55.5377 158.946 57.8626 160.955 64.9341 158.188C68.6693 156.729 80.3503 138.159 80.3503 138.159C80.3503 138.159 76.3976 136.507 74.4796 132.188C74.4796 132.188 63.4876 146.159 59.8571 145.373C56.2267 144.587 51.1054 128.683 41.2577 130.632" fill="#3457E5"/>
<path d="M39.5527 163.938C39.5527 163.938 42.9293 175.254 55.1987 175.383C56.7056 175.399 57.4954 173.45 53.3734 172.231C49.2514 171.012 42.3451 167.551 39.5527 163.938Z" fill="#0539DB"/>
<path d="M88.1351 126.799C87.8813 127.108 86.2897 128.703 85.2461 128.912" stroke="#C8D4E8" stroke-miterlimit="10" stroke-linecap="round" stroke-linejoin="round"/>
<path d="M88.9322 128.724C88.9322 128.724 87.2601 129.694 86.0352 129.862" stroke="#C8D4E8" stroke-miterlimit="10" stroke-linecap="round" stroke-linejoin="round"/>
<path d="M89.3313 130.379C88.8115 130.656 87.4979 131.065 87.0547 131.113" stroke="#C8D4E8" stroke-miterlimit="10" stroke-linecap="round" stroke-linejoin="round"/>
<path d="M52.274 201.371C52.3183 200.917 51.9516 224.873 49.0263 224.015C46.101 223.156 50.4527 219.804 52.274 201.371Z" fill="#DDE4F1"/>
<path d="M64.7016 142.798C64.6931 142.807 64.6846 142.811 64.6719 142.82C64.6889 142.811 64.7016 142.798 64.7016 142.798Z" fill="#0539DB"/>
<path d="M60.3974 148.071C60.2806 146.756 62.8513 144.374 64.0722 143.324C62.3677 144.711 60.8406 145.589 59.8534 145.373C59.3417 145.261 58.8018 144.852 58.2256 144.238C60.4337 147.017 60.5384 149.651 60.3974 148.071Z" fill="#0539DB"/>
<path d="M57.5889 143.496C57.4881 143.368 57.3832 143.235 57.2783 143.103C57.359 143.227 57.4558 143.356 57.5849 143.492C57.5849 143.496 57.5849 143.496 57.5889 143.496Z" fill="#0539DB"/>
</g>
<defs>
<clipPath id="clip0_490_2258">
<rect width="284" height="251" fill="white" transform="translate(18 35)"/>
</clipPath>
</defs>
</svg>
