<svg width="200" height="48" viewBox="0 0 200 48" fill="none" xmlns="http://www.w3.org/2000/svg">
<path d="M161.392 18.3521C162.143 18.3521 162.894 17.9768 163.09 17.2262L163.841 7.06571C163.841 5.93975 162.715 5.18018 161.392 5.18018C160.079 5.18018 158.944 5.93082 158.944 7.06571L159.694 17.2262C159.694 17.7891 160.445 18.3521 161.392 18.3521ZM155.369 20.613C155.745 19.8623 155.745 19.1117 155.369 18.7274L147.282 13.4551C146.531 13.0798 145.209 13.4551 144.646 14.7687C143.895 15.8947 144.083 17.2172 144.833 17.5925L153.493 21.3547C154.234 21.7389 154.806 21.3636 155.369 20.613ZM165.717 20.613C166.093 21.3636 166.843 21.7389 167.415 21.5513L176.074 17.7891C176.825 17.4138 177.013 16.0913 176.262 14.9653C175.511 13.8393 174.377 13.2674 173.626 13.6517L165.726 18.924C165.342 19.1117 165.342 20.05 165.717 20.613ZM161.392 29.6475C162.143 29.6475 162.894 30.0228 163.09 30.7734L163.841 40.9339C163.841 42.0598 162.715 42.8194 161.392 42.8194C160.079 42.8194 158.944 42.0688 158.944 40.9339L159.694 30.7734C159.694 30.2104 160.445 29.6475 161.392 29.6475ZM165.717 27.3866C166.093 26.636 166.843 26.2607 167.415 26.4483L176.074 30.3981C176.825 30.7734 177.013 32.096 176.262 33.2219C175.511 34.3479 174.377 34.9198 173.626 34.5356L165.726 29.2632C165.342 28.8879 165.342 28.1373 165.717 27.3866ZM155.369 27.3866C155.745 28.1373 155.745 28.8879 155.369 29.2721L147.282 34.5445C146.531 34.9198 145.209 34.5445 144.646 33.2309C143.895 32.1049 144.083 30.7824 144.833 30.407L153.493 26.6449C154.234 26.2606 154.806 26.636 155.369 27.3866Z" fill="#DCDFE6"/>
<path d="M113.78 24.9381C113.78 21.1759 112.279 17.9768 107.007 17.9768C104.37 17.9768 102.118 18.7274 100.984 19.4781L101.734 22.4896C102.86 21.7389 104.558 21.1759 106.059 21.1759C108.695 21.1759 109.071 22.6772 109.071 23.6245V23.8121C103.235 23.8121 99.661 25.8853 99.661 30.0228C99.661 32.6589 101.547 34.9109 104.746 34.9109C106.631 34.9109 108.32 34.1602 109.446 32.8377C109.446 32.8377 110.009 35.6615 113.771 34.5355C113.584 33.4096 113.584 32.087 113.584 30.5857L113.78 24.9381ZM109.455 28.8879C109.455 29.2632 109.455 29.4509 109.267 29.8262C108.892 30.9521 107.766 31.8994 106.256 31.8994C105.13 31.8994 103.995 31.1487 103.995 29.8262C103.995 27.5653 106.444 27.0023 109.267 27.0023L109.455 28.8879ZM23.2744 12.901C23.2744 12.901 27.0366 28.7091 27.5995 31.3453C28.3502 34.3568 29.4851 35.4828 33.2472 34.7321L35.6957 24.947C36.2587 22.4985 36.634 20.8096 37.0093 18.361C37.197 20.8096 37.5723 22.4985 38.1353 24.947C38.1353 24.947 39.0736 29.4598 39.6366 31.7206C40.1996 33.9815 41.5221 35.4828 45.0966 34.7321L50.7443 12.901H46.2315L44.346 22.3108C43.783 24.947 43.4077 27.1989 43.0323 29.6474C42.657 27.1989 42.2817 25.1347 41.7187 22.4985L39.8332 12.901H35.1327L32.8719 22.3108C32.3089 25.1347 31.7459 27.3955 31.3706 29.8351C30.9953 27.5743 30.4323 24.7504 29.8693 21.9355C29.8693 21.9355 28.5557 15.1619 28.1715 12.901H23.2744ZM63.9162 24.9381C63.9162 21.1759 62.4149 17.9768 57.1426 17.9768C54.5064 17.9768 52.2545 18.7274 51.1196 19.4781L51.8702 22.4896C52.9962 21.7389 54.6941 21.1759 56.1953 21.1759C58.8315 21.1759 59.2068 22.6772 59.2068 23.6245V23.8121C53.3715 23.8121 49.797 25.8853 49.797 30.0228C49.797 32.6589 51.6826 34.9109 54.8817 34.9109C56.9549 34.9109 58.4562 34.1602 59.5822 32.8377C59.5822 32.8377 60.1451 35.6615 63.9073 34.5355C63.7196 33.4096 63.7196 32.087 63.7196 30.5857L63.9162 24.9381ZM59.5911 28.8879C59.5911 29.2632 59.5911 29.4509 59.4034 29.8262C59.0281 30.9521 57.9022 31.8994 56.3919 31.8994C55.266 31.8994 54.1311 31.1487 54.1311 29.8262C54.1311 27.5653 56.5796 27.0023 59.4034 27.0023L59.5911 28.8879ZM71.2528 30.0228V12.901H66.9277V34.7232H71.2528V30.0228ZM127.89 12.901V29.0845C127.89 31.3453 128.266 32.8466 129.204 33.7849C129.955 34.7232 131.277 35.0985 132.779 35.0985C134.092 35.0985 135.227 34.9109 135.978 34.5355V31.1487C135.602 31.3364 135.039 31.3364 134.28 31.3364C132.779 31.3364 132.394 30.3981 132.394 28.3249V22.3019H136.156V18.1644H132.394V12.8921H127.89V12.901ZM116.792 18.3521V34.7232H121.304V25.1257C121.68 23.2402 123.002 22.3019 124.879 22.3019C125.442 22.3019 125.817 22.3019 126.193 22.4896V18.1644H125.254C123.565 18.1644 121.68 19.2904 120.929 21.5513H120.741V18.3521H116.792ZM74.2643 18.3521V34.7232H78.5894V25.1257C78.5894 24.7504 78.5895 24.1874 78.7771 23.8121C79.1524 22.8738 80.0907 21.7389 81.4133 21.7389C83.1112 21.7389 84.0495 23.2402 84.0495 25.5011V34.7232H88.3746V24.9381C88.3746 24.5628 88.3746 23.9998 88.5622 23.6245C88.9375 22.4985 89.8759 21.5513 91.1984 21.5513C92.8874 21.5513 93.8346 23.0525 93.8346 25.6887V34.7232H98.1597V24.9381C98.1597 19.8534 95.7112 17.7891 92.6997 17.7891C91.3861 17.7891 90.4388 18.1644 89.5005 18.7274C88.7499 19.2904 87.9993 19.8534 87.4273 20.8006C86.6767 18.9151 85.1665 17.7891 83.1022 17.7891C80.2784 17.7891 79.1524 19.2904 78.4018 20.4253V18.1644L74.2643 18.3521Z" fill="#B9BDC5"/>
</svg>
