<svg width="200" height="48" viewBox="0 0 200 48" fill="none" xmlns="http://www.w3.org/2000/svg">
<g opacity="0.4">
<path d="M85.1001 39.16C77.4701 44.78 66.4301 47.79 56.9101 47.79C43.5801 47.79 31.5501 42.84 22.4601 34.65C21.7401 34 22.3901 33.12 23.2401 33.63C33.0401 39.34 45.1801 42.76 57.7101 42.76C66.1601 42.76 75.4501 41.02 83.9901 37.38C85.2801 36.82 86.3601 38.22 85.1001 39.16ZM88.2601 35.54C87.2801 34.3 81.8101 34.95 79.3701 35.24C78.6301 35.33 78.5001 34.67 79.1701 34.22C83.5301 31.15 90.6701 32.04 91.5201 33.07C92.3501 34.09 91.3001 41.26 87.2101 44.7C86.5801 45.22 85.9901 44.94 86.2501 44.24C87.1901 41.94 89.2401 36.78 88.2601 35.54Z" fill="#CFD7E8"/>
<path d="M79.55 12.5497V9.56973C79.55 9.10973 79.9 8.80973 80.31 8.80973H93.67C94.11 8.80973 94.43 9.11973 94.43 9.56973V12.1197C94.43 12.5597 94.06 13.0997 93.43 13.9897L86.52 23.8597C89.09 23.7897 91.81 24.1897 94.12 25.4897C94.64 25.7997 94.8 26.2297 94.84 26.6397V29.8197C94.84 30.2597 94.36 30.7597 93.86 30.4997C89.76 28.3397 84.29 28.0997 79.76 30.5197C79.3 30.7797 78.8 30.2597 78.8 29.8397V26.8297C78.8 26.3497 78.8 25.5197 79.3 24.7797L87.27 13.2997H80.3C79.87 13.3097 79.55 13.0097 79.55 12.5497ZM30.87 31.1597H26.82C26.43 31.1397 26.12 30.8297 26.1 30.4597V9.62973C26.1 9.21973 26.45 8.88973 26.88 8.88973H30.67C31.06 8.90973 31.39 9.21973 31.41 9.58973V12.3097H31.48C32.46 9.66973 34.33 8.44973 36.82 8.44973C39.37 8.44973 40.96 9.66973 42.09 12.3097C43.07 9.66973 45.31 8.44973 47.69 8.44973C49.39 8.44973 51.26 9.14973 52.4 10.7397C53.69 12.4797 53.42 15.0297 53.42 17.2797V30.4397C53.42 30.8497 53.07 31.1997 52.64 31.1997H48.59C48.18 31.1797 47.85 30.8497 47.85 30.4397V19.3497C47.85 18.4797 47.94 16.2797 47.74 15.4497C47.43 14.0597 46.52 13.6597 45.34 13.6597C44.36 13.6597 43.34 14.3097 42.92 15.3597C42.51 16.4097 42.55 18.1697 42.55 19.3497V30.3997C42.55 30.8097 42.2 31.1597 41.77 31.1597H37.72C37.31 31.1397 36.98 30.8097 36.98 30.3997V19.3497C36.98 17.0197 37.37 13.5997 34.47 13.5997C31.55 13.5997 31.66 16.9297 31.66 19.3497V30.3997C31.66 30.8297 31.31 31.1597 30.87 31.1597ZM105.91 8.42973C111.95 8.42973 115.19 13.6197 115.19 20.1997C115.19 26.5597 111.59 31.5997 105.91 31.5997C99.98 31.5997 96.78 26.4097 96.78 19.9697C96.76 13.4897 100.03 8.42973 105.91 8.42973ZM105.93 12.6797C102.95 12.6797 102.75 16.7497 102.75 19.2997C102.75 21.8497 102.71 27.2997 105.89 27.2997C109.03 27.2997 109.18 22.9197 109.18 20.2397C109.18 18.4797 109.11 16.3797 108.57 14.7097C108.13 13.2497 107.24 12.6797 105.93 12.6797ZM123.01 31.1597H118.96C118.55 31.1397 118.22 30.8097 118.22 30.3997V9.54973C118.26 9.15973 118.59 8.86973 119 8.86973H122.77C123.12 8.88973 123.42 9.12973 123.49 9.45973V12.6397H123.56C124.69 9.78973 126.28 8.42973 129.09 8.42973C130.92 8.42973 132.69 9.07973 133.84 10.8897C134.91 12.5697 134.91 15.3597 134.91 17.3797V30.4997C134.87 30.8697 134.52 31.1497 134.13 31.1497H130.06C129.69 31.1297 129.38 30.8497 129.34 30.4997V19.1797C129.34 16.8897 129.6 13.5597 126.79 13.5597C125.81 13.5597 124.89 14.2097 124.44 15.2397C123.87 16.4997 123.79 17.7897 123.79 19.1797V30.3997C123.8 30.8297 123.45 31.1597 123.01 31.1597ZM76.12 27.3497C75.38 26.3297 74.59 25.4997 74.59 23.5797V17.2397C74.59 14.5597 74.79 12.0997 72.8 10.2497C71.23 8.74973 68.66 8.21973 66.68 8.21973C62.82 8.21973 58.51 9.65973 57.59 14.4297C57.5 14.9297 57.87 15.2097 58.2 15.2797L62.14 15.6897C62.51 15.6697 62.77 15.3197 62.86 14.9497C63.19 13.2897 64.58 12.5097 66.13 12.5097C66.98 12.5097 67.92 12.8197 68.42 13.5797C68.99 14.4097 68.92 15.5597 68.92 16.5197V17.0397C66.57 17.2997 63.49 17.4797 61.27 18.4597C58.72 19.5497 56.93 21.7897 56.93 25.1097C56.93 29.3397 59.59 31.4297 63.01 31.4297C65.89 31.4297 67.48 30.7497 69.7 28.4697C70.44 29.5397 70.68 30.0597 72.03 31.1697C72.34 31.3197 72.73 31.3197 72.99 31.0797V31.0997C73.8 30.3797 75.28 29.0997 76.11 28.3997C76.45 28.1497 76.39 27.6997 76.12 27.3497ZM68.13 25.5197C67.48 26.6497 66.45 27.3697 65.32 27.3697C63.75 27.3697 62.84 26.1697 62.84 24.4297C62.84 20.9697 65.93 20.3297 68.88 20.3297V21.1997C68.89 22.7897 68.93 24.0997 68.13 25.5197ZM22.92 27.3497C22.18 26.3297 21.39 25.4997 21.39 23.5797V17.2397C21.39 14.5597 21.59 12.0997 19.6 10.2497C18.03 8.74973 15.46 8.21973 13.48 8.21973C9.61998 8.21973 5.30995 9.65973 4.38995 14.4297C4.29995 14.9297 4.67 15.2097 5 15.2797L8.94 15.6897C9.31 15.6697 9.56995 15.3197 9.63995 14.9497C9.96995 13.2897 11.36 12.5097 12.91 12.5097C13.74 12.5097 14.7 12.8197 15.2 13.5797C15.77 14.4097 15.7 15.5597 15.7 16.5197V17.0397C13.35 17.2997 10.27 17.4797 8.04999 18.4597C5.49999 19.5497 3.70996 21.7897 3.70996 25.1097C3.70996 29.3397 6.36998 31.4297 9.78998 31.4297C12.69 31.4297 14.26 30.7497 16.48 28.4697C17.22 29.5397 17.46 30.0597 18.81 31.1697C19.12 31.3197 19.51 31.3197 19.77 31.0797L19.79 31.0997C20.6 30.3797 22.08 29.0997 22.91 28.3997C23.22 28.1497 23.18 27.6997 22.92 27.3497ZM14.92 25.5197C14.27 26.6497 13.24 27.3697 12.11 27.3697C10.54 27.3697 9.64996 26.1697 9.64996 24.4297C9.64996 20.9697 12.74 20.3297 15.69 20.3297V21.1997C15.68 22.7897 15.71 24.0997 14.92 25.5197Z" fill="#778197"/>
<path d="M138.2 27.7898C138.44 28.0998 138.56 28.4998 138.56 28.9998C138.56 29.4998 138.44 29.9098 138.2 30.2398C137.94 30.5698 137.65 30.7298 137.33 30.7298C137.01 30.7298 136.72 30.5698 136.46 30.2398C136.22 29.8898 136.1 29.4798 136.1 28.9998C136.1 28.4998 136.22 28.0998 136.46 27.7898C136.69 27.4598 136.98 27.2998 137.33 27.2998C137.68 27.2998 137.97 27.4698 138.2 27.7898Z" fill="#778197"/>
<path d="M152 10.12C153.17 11.42 153.9 13.41 154.17 16.1H151.82C151.62 14.4 151.15 13.13 150.39 12.28C149.64 11.46 148.64 11.05 147.41 11.05C145.92 11.05 144.74 11.86 143.87 13.47C143.04 15.03 142.62 17.15 142.62 19.83C142.62 22.54 143.03 24.65 143.84 26.15C144.65 27.7 145.83 28.48 147.38 28.48C150.02 28.48 151.52 26.59 151.88 22.8H154.26C153.9 25.66 153.14 27.79 151.97 29.2C150.8 30.61 149.27 31.32 147.39 31.32C145.09 31.32 143.29 30.22 142 28.01C140.79 25.95 140.18 23.23 140.18 19.87C140.18 16.51 140.79 13.78 142 11.69C143.31 9.36996 145.12 8.20996 147.42 8.20996C149.32 8.21996 150.85 8.84996 152 10.12Z" fill="#778197"/>
<path d="M169.45 11.6097C170.76 13.7597 171.42 16.4897 171.42 19.7897C171.42 23.0397 170.77 25.7397 169.48 27.8897C168.09 30.1797 166.24 31.3197 163.94 31.3197C161.64 31.3197 159.8 30.1797 158.43 27.8897C157.12 25.7697 156.47 23.0697 156.47 19.7897C156.47 16.4797 157.12 13.7497 158.43 11.6097C159.78 9.34973 161.62 8.21973 163.94 8.21973C166.26 8.21973 168.1 9.34973 169.45 11.6097ZM160.13 13.7297C159.32 15.3097 158.91 17.3297 158.91 19.7897C158.91 22.2197 159.32 24.2297 160.13 25.8097C161.02 27.5897 162.29 28.4797 163.94 28.4797C165.55 28.4797 166.83 27.5897 167.78 25.8097C168.59 24.1697 169 22.1597 169 19.7897C169 17.3897 168.59 15.3697 167.78 13.7297C166.83 11.9497 165.55 11.0597 163.94 11.0597C162.29 11.0597 161.02 11.9497 160.13 13.7297Z" fill="#778197"/>
<path d="M186.06 12.37C186.66 10.9 187.37 9.84996 188.2 9.22996C188.95 8.54996 189.86 8.20996 190.91 8.20996C192.5 8.20996 193.8 8.92996 194.81 10.37C195.78 11.9 196.27 13.89 196.27 16.35V30.72H193.89V16.91C193.89 14.99 193.6 13.55 193.03 12.58C192.45 11.59 191.5 11.1 190.17 11.1C189.12 11.1 188.27 11.64 187.64 12.71C186.95 13.78 186.6 15.21 186.6 16.99V30.73H184.22V16.91C184.22 13.04 183.04 11.1 180.68 11.1C179.57 11.1 178.67 11.72 177.97 12.97C177.26 14.16 176.9 15.63 176.9 17.38V30.74H174.52V8.80996H176.9V11.74C178.05 9.38996 179.5 8.21996 181.25 8.21996C183.6 8.21996 185.21 9.59996 186.06 12.37Z" fill="#778197"/>
</g>
</svg>
