<svg width="200" height="48" viewBox="0 0 200 48" fill="none" xmlns="http://www.w3.org/2000/svg">
<g opacity="0.4">
<path d="M46.5201 12.5198C44.0401 9.8698 36.9701 9.9298 36.9701 9.9298C32.1701 10.0498 28.79 12.5398 26.44 13.3798C21.49 15.1298 18.06 16.3698 14.43 19.2298C11.17 21.7898 9.00007 25.1298 6.79007 28.5898C4.38007 32.1898 3.26004 33.2898 4.57004 35.7998C5.45004 37.4898 9.21005 35.8198 9.21005 35.8198C8.78005 35.5898 8.77007 34.4798 8.79007 34.0998C8.96007 32.2198 12.0901 30.1298 14.4001 29.3298L14.7301 29.2198L14.81 25.0698C14.86 25.0898 14.9201 25.0998 14.9701 25.1098C19.1001 26.1998 23.7901 25.5798 27.8401 22.5698C27.9801 22.9698 28.1301 23.4598 28.0901 23.9998H28.8401C29.0201 22.4598 27.98 20.9598 26.26 20.8498C26.76 21.2498 27.12 21.5698 27.3 21.8498L27.2 21.9498C22.67 25.1198 18.2501 24.6198 16.3401 24.2198L19.58 21.2398L18.75 19.1498C25.21 16.8998 30.35 15.3998 38.45 13.9698L39.51 13.7798L37.2701 11.9698L37.5 11.8298C42.5 13.2198 45.9801 14.4198 45.8501 16.6498C45.7901 17.0598 47.9401 19.7698 48.1701 16.1998C48.3201 14.1898 47.7601 13.8398 46.5201 12.5198Z" fill="#A8B7D1"/>
<path d="M39.4804 34.8198C36.9404 34.9998 37.1904 33.6398 38.7004 31.6698C42.1404 27.0898 48.5004 20.8598 48.7904 16.3098C49.1904 10.3998 43.2404 8.56982 37.1204 8.56982C32.8604 8.67982 28.4604 9.85982 25.4504 10.9298C15.1104 14.5798 8.63038 20.3098 4.51038 26.7598C0.25038 33.1298 1.58039 39.2598 10.7704 39.4398C17.7204 39.1498 22.4004 37.2198 27.1204 34.7898C27.1504 34.7898 13.9904 38.5498 9.12037 35.7898C8.58037 35.4998 8.0504 35.1098 7.9104 33.9998C7.9104 31.7398 11.6304 29.3798 13.8204 28.6298V24.7598V23.4498C13.8204 23.4498 14.5804 23.7998 15.4004 23.9998L18.5904 20.8798L17.7004 18.6198C24.0404 16.3998 29.2604 14.7898 37.9504 13.2498L36.0104 11.6798L37.0104 11.0698C42.1604 12.4998 45.6304 13.5698 45.4604 16.2998C45.3904 16.7598 45.2104 17.2998 44.9204 17.8798C43.3904 20.9198 38.8804 25.8298 37.0504 27.9398C35.8704 29.3398 34.6904 30.6298 33.8604 31.9198C32.9304 33.2398 32.4604 34.4598 32.4304 35.5698C32.6104 44.5598 59.1304 31.3498 64.3604 27.8698C56.7304 31.1298 48.4604 34.2498 39.4804 34.8198Z" fill="#778197"/>
<path d="M60.6503 11.23H63.7003L69.7803 27.05H66.6503L65.4103 23.79H58.9503L57.6603 27.05H54.5303L60.6503 11.23ZM62.2003 15.42L60.0803 20.85H64.3102L62.2003 15.42Z" fill="#778197"/>
<path d="M71.4707 10.8296H74.4107V27.0496H71.4707V10.8296Z" fill="#778197"/>
<path d="M78.2198 10.5298C78.7298 10.5298 79.1799 10.7198 79.5399 11.0898C79.9099 11.4598 80.0898 11.9098 80.0898 12.4498C80.0898 12.9698 79.9099 13.4198 79.5399 13.7898C79.1799 14.1598 78.7399 14.3398 78.2299 14.3398C77.7099 14.3398 77.2598 14.1498 76.8898 13.7798C76.5198 13.3998 76.3398 12.9498 76.3398 12.4098C76.3398 11.8898 76.5198 11.4498 76.8898 11.0898C77.2698 10.7098 77.7098 10.5298 78.2198 10.5298ZM76.7498 15.3498H79.6898V27.0498H76.7498V15.3498Z" fill="#778197"/>
<path d="M85.2706 10.8296V16.6396C85.8006 16.1096 86.3705 15.7096 86.9905 15.4496C87.6105 15.1796 88.2706 15.0496 88.9706 15.0496C90.5006 15.0496 91.7905 15.6296 92.8605 16.7796C93.9305 17.9296 94.4606 19.4096 94.4606 21.2196C94.4606 22.9596 93.9105 24.4196 92.8005 25.5896C91.7005 26.7596 90.3905 27.3496 88.8705 27.3496C88.2005 27.3496 87.5705 27.2296 86.9905 26.9896C86.4105 26.7496 85.8306 26.3596 85.2606 25.8096V27.0496H82.3506V10.8296H85.2706ZM88.3605 17.7596C87.4405 17.7596 86.6705 18.0796 86.0605 18.7096C85.4505 19.3396 85.1506 20.1696 85.1506 21.1796C85.1506 22.2196 85.4505 23.0596 86.0605 23.6996C86.6705 24.3396 87.4405 24.6596 88.3605 24.6596C89.2605 24.6596 90.0105 24.3296 90.6205 23.6796C91.2305 23.0296 91.5406 22.1996 91.5406 21.1796C91.5406 20.1796 91.2406 19.3496 90.6406 18.7096C90.0406 18.0796 89.2805 17.7596 88.3605 17.7596Z" fill="#778197"/>
<path d="M105.53 15.3498H108.47V27.0498H105.53V25.8098C104.96 26.3498 104.38 26.7498 103.81 26.9898C103.23 27.2298 102.61 27.3498 101.94 27.3498C100.43 27.3498 99.1201 26.7598 98.0201 25.5898C96.9201 24.4198 96.3701 22.9598 96.3701 21.2198C96.3701 19.4098 96.9002 17.9298 97.9702 16.7798C99.0402 15.6298 100.33 15.0498 101.86 15.0498C102.56 15.0498 103.22 15.1798 103.84 15.4498C104.46 15.7198 105.03 16.1098 105.55 16.6398V15.3498H105.53ZM102.45 17.7598C101.54 17.7598 100.79 18.0798 100.19 18.7198C99.5901 19.3598 99.2902 20.1798 99.2902 21.1898C99.2902 22.1998 99.6001 23.0298 100.21 23.6898C100.82 24.3398 101.57 24.6698 102.47 24.6698C103.39 24.6698 104.16 24.3498 104.76 23.7098C105.37 23.0698 105.67 22.2298 105.67 21.1898C105.67 20.1698 105.37 19.3498 104.76 18.7198C104.14 18.0698 103.38 17.7598 102.45 17.7598Z" fill="#778197"/>
<path d="M114.351 10.8296V16.6396C114.881 16.1096 115.451 15.7096 116.071 15.4496C116.691 15.1796 117.351 15.0496 118.051 15.0496C119.581 15.0496 120.871 15.6296 121.941 16.7796C123.011 17.9296 123.541 19.4096 123.541 21.2196C123.541 22.9596 122.991 24.4196 121.881 25.5896C120.781 26.7596 119.471 27.3496 117.951 27.3496C117.281 27.3496 116.651 27.2296 116.071 26.9896C115.491 26.7496 114.911 26.3596 114.341 25.8096V27.0496H111.431V10.8296H114.351ZM117.441 17.7596C116.521 17.7596 115.751 18.0796 115.141 18.7096C114.531 19.3396 114.231 20.1696 114.231 21.1796C114.231 22.2196 114.531 23.0596 115.141 23.6996C115.751 24.3396 116.521 24.6596 117.441 24.6596C118.341 24.6596 119.091 24.3296 119.701 23.6796C120.311 23.0296 120.621 22.1996 120.621 21.1796C120.621 20.1796 120.321 19.3496 119.721 18.7096C119.121 18.0796 118.361 17.7596 117.441 17.7596Z" fill="#778197"/>
<path d="M134.61 15.3498H137.55V27.0498H134.61V25.8098C134.04 26.3498 133.46 26.7498 132.89 26.9898C132.31 27.2298 131.69 27.3498 131.02 27.3498C129.51 27.3498 128.2 26.7598 127.1 25.5898C126 24.4198 125.45 22.9598 125.45 21.2198C125.45 19.4098 125.98 17.9298 127.05 16.7798C128.12 15.6298 129.41 15.0498 130.94 15.0498C131.64 15.0498 132.3 15.1798 132.92 15.4498C133.54 15.7198 134.11 16.1098 134.63 16.6398V15.3498H134.61ZM131.53 17.7598C130.62 17.7598 129.87 18.0798 129.27 18.7198C128.67 19.3598 128.37 20.1798 128.37 21.1898C128.37 22.1998 128.68 23.0298 129.29 23.6898C129.9 24.3398 130.65 24.6698 131.55 24.6698C132.47 24.6698 133.24 24.3498 133.84 23.7098C134.45 23.0698 134.75 22.2298 134.75 21.1898C134.75 20.1698 134.45 19.3498 133.84 18.7198C133.23 18.0698 132.46 17.7598 131.53 17.7598Z" fill="#778197"/>
<path d="M142.12 23.98C142.59 23.98 142.98 24.14 143.31 24.47C143.64 24.8 143.8 25.19 143.8 25.66C143.8 26.13 143.63 26.52 143.31 26.85C142.98 27.18 142.58 27.34 142.12 27.34C141.65 27.34 141.26 27.17 140.93 26.85C140.6 26.52 140.44 26.12 140.44 25.66C140.44 25.19 140.6 24.8 140.93 24.47C141.26 24.15 141.66 23.98 142.12 23.98Z" fill="#778197"/>
<path d="M158.23 17.7798L157.04 18.5198C156.01 17.1498 154.6 16.4698 152.82 16.4698C151.39 16.4698 150.21 16.9298 149.27 17.8498C148.33 18.7698 147.86 19.8798 147.86 21.1898C147.86 22.0398 148.08 22.8398 148.51 23.5998C148.94 24.3498 149.54 24.9398 150.29 25.3498C151.05 25.7698 151.89 25.9698 152.83 25.9698C154.55 25.9698 155.95 25.2898 157.04 23.9198L158.23 24.7098C157.67 25.5498 156.92 26.2098 155.98 26.6698C155.04 27.1298 153.96 27.3698 152.76 27.3698C150.91 27.3698 149.38 26.7798 148.16 25.6098C146.94 24.4298 146.33 22.9998 146.33 21.3198C146.33 20.1898 146.62 19.1398 147.18 18.1598C147.75 17.1898 148.53 16.4298 149.53 15.8898C150.53 15.3498 151.64 15.0698 152.87 15.0698C153.64 15.0698 154.39 15.1898 155.11 15.4198C155.83 15.6598 156.44 15.9598 156.94 16.3398C157.45 16.7098 157.88 17.1898 158.23 17.7798Z" fill="#778197"/>
<path d="M166.66 15.0498C168.46 15.0498 169.96 15.6998 171.14 17.0098C172.22 18.1998 172.76 19.6098 172.76 21.2398C172.76 22.8698 172.19 24.2998 171.05 25.5298C169.91 26.7498 168.45 27.3598 166.66 27.3598C164.86 27.3598 163.4 26.7498 162.26 25.5298C161.12 24.3098 160.55 22.8798 160.55 21.2398C160.55 19.6198 161.09 18.2098 162.17 17.0198C163.36 15.6998 164.85 15.0498 166.66 15.0498ZM166.66 16.5198C165.41 16.5198 164.33 16.9798 163.43 17.9098C162.53 18.8298 162.08 19.9498 162.08 21.2698C162.08 22.1198 162.29 22.8998 162.7 23.6398C163.11 24.3698 163.66 24.9398 164.36 25.3298C165.06 25.7298 165.82 25.9298 166.66 25.9298C167.49 25.9298 168.26 25.7298 168.96 25.3298C169.66 24.9298 170.21 24.3698 170.62 23.6398C171.03 22.9098 171.24 22.1198 171.24 21.2698C171.24 19.9598 170.79 18.8398 169.89 17.9098C168.98 16.9798 167.9 16.5198 166.66 16.5198Z" fill="#778197"/>
<path d="M175.541 15.3498H177.051V17.3698C177.571 16.6198 178.111 16.0798 178.661 15.7398C179.421 15.2798 180.221 15.0498 181.061 15.0498C181.631 15.0498 182.171 15.1598 182.671 15.3798C183.181 15.5998 183.601 15.8998 183.921 16.2698C184.241 16.6398 184.52 17.1698 184.76 17.8598C185.26 16.9398 185.891 16.2498 186.641 15.7698C187.391 15.2898 188.201 15.0498 189.061 15.0498C189.871 15.0498 190.581 15.2498 191.201 15.6598C191.821 16.0698 192.28 16.6398 192.58 17.3698C192.88 18.0998 193.031 19.1998 193.031 20.6598V27.0498H191.49V20.6598C191.49 19.4098 191.4 18.5398 191.22 18.0698C191.04 17.5998 190.741 17.2198 190.301 16.9398C189.871 16.6498 189.35 16.5098 188.75 16.5098C188.02 16.5098 187.35 16.7298 186.75 17.1598C186.15 17.5898 185.701 18.1598 185.431 18.8798C185.151 19.5998 185.01 20.7898 185.01 22.4698V27.0498H183.5V21.0598C183.5 19.6498 183.41 18.6898 183.24 18.1798C183.06 17.6698 182.761 17.2698 182.321 16.9598C181.881 16.6598 181.36 16.4998 180.76 16.4998C180.06 16.4998 179.411 16.7098 178.811 17.1298C178.201 17.5498 177.76 18.1098 177.47 18.8198C177.18 19.5298 177.031 20.6198 177.031 22.0798V27.0398H175.521V15.3498H175.541Z" fill="#778197"/>
<path d="M196.63 11.8599C195.37 11.8599 194.36 12.8799 194.36 14.1299C194.36 15.3899 195.38 16.3999 196.63 16.3999C197.88 16.3999 198.9 15.3799 198.9 14.1299C198.91 12.8799 197.89 11.8599 196.63 11.8599ZM196.63 16.0899C195.55 16.0899 194.68 15.2199 194.68 14.1399C194.68 13.0599 195.55 12.1899 196.63 12.1899C197.71 12.1899 198.58 13.0599 198.58 14.1399C198.58 15.2099 197.71 16.0899 196.63 16.0899Z" fill="#778197"/>
<path d="M197.6 15.1801L197.04 14.4301H197.05C197.38 14.3201 197.61 14.0201 197.61 13.6601C197.61 13.2101 197.25 12.8501 196.8 12.8501H196.15C196.06 12.8501 195.99 12.9201 195.99 13.0101V15.2801C195.99 15.3701 196.06 15.4401 196.15 15.4401C196.24 15.4401 196.31 15.3701 196.31 15.2801V14.4701H196.66L197.35 15.3801C197.4 15.4501 197.51 15.4701 197.58 15.4101C197.64 15.3501 197.66 15.2501 197.6 15.1801ZM196.31 14.1401V13.1701H196.8C197.07 13.1701 197.29 13.3901 197.29 13.6601C197.29 13.9301 197.07 14.1501 196.8 14.1501H196.31V14.1401Z" fill="#778197"/>
</g>
</svg>
