<svg width="320" height="320" viewBox="0 0 320 320" fill="none" xmlns="http://www.w3.org/2000/svg">
<g clip-path="url(#clip0_490_2259)">
<path d="M197.78 202.6C201.672 202.6 204.828 199.421 204.828 195.499C204.828 191.577 201.672 188.397 197.78 188.397C193.887 188.397 190.731 191.577 190.731 195.499C190.731 199.421 193.887 202.6 197.78 202.6Z" fill="#DDE4F1"/>
<path d="M197.78 209.904C205.677 209.904 212.078 203.455 212.078 195.499C212.078 187.543 205.677 181.093 197.78 181.093C189.884 181.093 183.482 187.543 183.482 195.499C183.482 203.455 189.884 209.904 197.78 209.904Z" stroke="#C8D4E8" stroke-miterlimit="10" stroke-linejoin="round"/>
<path d="M202.305 136.101C200.226 136.101 198.536 134.398 198.536 132.303V100.512C198.536 99.1273 199.654 98.0015 201.027 98.0015H229.17C231.249 98.0015 232.939 99.7041 232.939 101.799V109.486H226.454C226.326 109.486 226.225 109.588 226.225 109.717V132.335C226.225 134.412 224.549 136.096 222.493 136.096H202.305V136.101Z" fill="white"/>
<path d="M229.17 98.2324C231.121 98.2324 232.71 99.8335 232.71 101.799V109.256H226.454C226.202 109.256 225.996 109.463 225.996 109.717V132.336C225.996 134.283 224.426 135.866 222.493 135.866H202.31C200.359 135.866 198.77 134.264 198.77 132.299V100.507C198.77 99.2521 199.787 98.2278 201.033 98.2278H226.454H229.17V98.2324ZM229.17 97.771H226.45H201.028C199.526 97.771 198.308 98.9984 198.308 100.512V132.303C198.308 134.527 200.098 136.332 202.306 136.332H222.488C224.677 136.332 226.45 134.546 226.45 132.34V109.722H233.164V101.804C233.168 99.5751 231.378 97.771 229.17 97.771Z" fill="#C8D4E8"/>
<path d="M226.45 109.948C226.321 109.948 226.221 109.846 226.221 109.717V101.675C226.221 99.709 227.81 98.1079 229.761 98.1079H229.857C231.808 98.1079 233.397 99.709 233.397 101.675V109.717C233.397 109.846 233.296 109.948 233.168 109.948H226.45Z" fill="#DDE4F1"/>
<path d="M229.857 98.3433C231.685 98.3433 233.169 99.8382 233.169 101.679V109.722H226.455V101.675C226.455 99.8336 227.939 98.3386 229.766 98.3386H229.857V98.3433ZM229.857 97.8818H229.761C227.682 97.8818 225.992 99.5845 225.992 101.679V109.722C225.992 109.976 226.198 110.183 226.45 110.183H233.164C233.416 110.183 233.622 109.976 233.622 109.722V101.675C233.627 99.5845 231.937 97.8818 229.857 97.8818Z" fill="#C8D4E8"/>
<path d="M197.822 136.562C195.491 136.562 193.595 134.652 193.595 132.303V124.385C193.595 124.256 193.695 124.154 193.824 124.154H218.458C218.586 124.154 218.687 124.256 218.687 124.385V132.303C218.687 134.398 220.377 136.1 222.456 136.1C222.584 136.1 222.685 136.202 222.685 136.331C222.685 136.46 222.584 136.562 222.456 136.562H197.822Z" fill="#DDE4F1"/>
<path d="M218.458 124.385V132.303C218.458 134.527 220.249 136.331 222.456 136.331H197.822C195.615 136.331 193.824 134.527 193.824 132.303V124.385H218.458ZM218.458 123.924H193.824C193.572 123.924 193.366 124.131 193.366 124.385V132.303C193.366 134.776 195.363 136.793 197.822 136.793H222.456C222.708 136.793 222.914 136.585 222.914 136.331C222.914 136.078 222.708 135.87 222.456 135.87C220.505 135.87 218.916 134.269 218.916 132.303V124.385C218.916 124.131 218.71 123.924 218.458 123.924Z" fill="#C8D4E8"/>
<path d="M203.666 104.028H215.692" stroke="#C8D4E8" stroke-miterlimit="10" stroke-linecap="round" stroke-linejoin="round"/>
<path d="M203.666 109.717H215.692" stroke="#C8D4E8" stroke-miterlimit="10" stroke-linecap="round" stroke-linejoin="round"/>
<path d="M203.666 115.406H215.692" stroke="#C8D4E8" stroke-miterlimit="10" stroke-linecap="round" stroke-linejoin="round"/>
<path d="M203.666 121.091H215.692" stroke="#C8D4E8" stroke-miterlimit="10" stroke-linecap="round" stroke-linejoin="round"/>
<path d="M221.137 102.653H219.113V104.692H221.137V102.653Z" stroke="#C8D4E8" stroke-miterlimit="10" stroke-linecap="round" stroke-linejoin="round"/>
<path d="M219.548 103.428L220.125 103.866L222.456 102.118" stroke="#C8D4E8" stroke-miterlimit="10" stroke-linecap="round" stroke-linejoin="round"/>
<path d="M221.137 108.43H219.113V110.469H221.137V108.43Z" stroke="#C8D4E8" stroke-miterlimit="10" stroke-linecap="round" stroke-linejoin="round"/>
<path d="M219.548 109.205L220.125 109.643L222.456 107.895" stroke="#C8D4E8" stroke-miterlimit="10" stroke-linecap="round" stroke-linejoin="round"/>
<path d="M221.137 114.207H219.113V116.246H221.137V114.207Z" stroke="#C8D4E8" stroke-miterlimit="10" stroke-linecap="round" stroke-linejoin="round"/>
<path d="M219.548 114.982L220.125 115.42L222.456 113.671" stroke="#C8D4E8" stroke-miterlimit="10" stroke-linecap="round" stroke-linejoin="round"/>
<path d="M221.137 119.983H219.113V122.023H221.137V119.983Z" stroke="#C8D4E8" stroke-miterlimit="10" stroke-linecap="round" stroke-linejoin="round"/>
<path d="M219.548 120.759L220.125 121.192L222.456 119.448" stroke="#C8D4E8" stroke-miterlimit="10" stroke-linecap="round" stroke-linejoin="round"/>
<path d="M206.913 149.394C206.913 149.394 205.676 153.814 208.103 157.889C210.535 161.963 216.26 159.997 216.26 159.997L213.746 147.465L206.913 149.394Z" fill="#292C38"/>
<path d="M238.15 201.142C232.082 201.142 224.745 199.499 222.346 194.88C217.995 186.506 223.637 181.827 225.762 180.064C226.073 179.806 226.302 179.617 226.426 179.474C227.415 178.362 227.25 176.553 227.241 176.479C227.228 176.359 227.131 176.271 227.012 176.271H226.788C219.309 176.271 215.879 170.333 213.516 164.528C210.915 158.147 211.556 150.718 211.647 149.782L221.443 142.491L237.917 143.645L246.971 151.899L245.052 166.254C245.047 166.296 245.052 166.342 245.07 166.383C248.45 173.692 252.384 176.253 253.02 176.631C253.236 177.356 254.756 182.75 254.967 192.403C254.999 193.925 254.413 195.323 253.217 196.555C250.474 199.384 244.694 201.142 238.15 201.142Z" fill="white"/>
<path d="M221.522 142.727L237.83 143.871L246.738 151.992L244.832 166.222C244.819 166.31 244.832 166.397 244.869 166.48C248.153 173.582 251.981 176.253 252.833 176.784C253.117 177.762 254.541 183.096 254.748 192.407C254.78 193.866 254.212 195.208 253.062 196.394C250.392 199.144 244.539 200.921 238.151 200.921C230.613 200.921 224.489 198.512 222.552 194.784C218.289 186.575 223.825 181.979 225.909 180.249C226.23 179.981 226.463 179.792 226.601 179.635C227.654 178.45 227.48 176.544 227.475 176.461C227.453 176.226 227.256 176.046 227.022 176.046C227.017 176.046 227.017 176.046 227.013 176.046C226.94 176.046 226.866 176.046 226.793 176.046C219.447 176.046 216.067 170.181 213.732 164.446C211.231 158.304 211.753 151.171 211.872 149.911L221.522 142.727ZM221.384 142.251L211.437 149.653C211.437 149.653 210.489 157.69 213.31 164.616C216.099 171.468 219.74 176.502 226.793 176.502C226.866 176.502 226.944 176.502 227.017 176.502C227.017 176.502 227.191 178.27 226.257 179.322C225.323 180.374 217.08 185.246 222.14 194.991C224.398 199.333 231.258 201.377 238.146 201.377C246.715 201.377 255.329 198.217 255.201 192.394C254.967 181.887 253.218 176.475 253.218 176.475C253.218 176.475 248.899 174.108 245.281 166.282L247.219 151.807L238.018 143.419L221.384 142.251Z" fill="#C8D4E8"/>
<path d="M255.205 192.394C254.971 181.887 253.222 176.475 253.222 176.475C253.222 176.475 248.903 174.108 245.285 166.282L247.222 151.808L240.179 145.385C238.727 145.542 236.991 145.92 236.758 146.852C236.355 148.485 239.07 153.967 239.07 153.967L239.826 153.561C239.826 153.561 240.027 152.043 240.742 150.973C241.369 150.036 242.665 149.874 243.554 150.566C246.009 152.468 244.277 155.208 242.981 157.146C241.534 159.301 240.275 165.267 248.711 173.647C257.146 182.026 241.731 193.197 238.837 193.663C236.515 194.036 244.969 198.019 249.288 199.361C252.86 197.839 255.273 195.495 255.205 192.394Z" fill="#292C38"/>
<path d="M233.859 195.254C225.405 193.935 224.127 180.572 228.812 178.473C233.497 176.373 234.436 173.231 234.436 173.231C233.049 175.183 230.617 176.35 227.017 176.502C227.017 176.502 227.191 178.27 226.257 179.322C225.336 180.36 217.304 185.126 221.956 194.613C228.185 195.619 240.298 196.256 233.859 195.254Z" fill="#292C38"/>
<path d="M206.432 129.35C201.27 132.862 204.829 139.709 210.521 139.465C210.521 139.465 198.99 145.698 202.53 150.668C204.169 152.97 214.785 150.875 218.861 148.038C219.342 147.701 219.937 147.599 220.5 147.756C222.181 148.218 225.813 148.919 228.556 147.35C228.955 147.124 229.454 147.309 229.628 147.738C230.214 149.187 231.854 151.854 235.962 151.983C236.511 152.001 236.974 152.412 237.074 152.956C237.404 154.71 238.251 158.327 239.717 158.18C240.683 158.083 240.015 154.184 240.015 154.184C240.015 154.184 238.595 150.516 241.466 149.556C243.866 148.753 245.574 150.571 245.254 153.409C244.938 156.246 242.465 156.256 243.115 159.638C243.765 163.02 244.553 164.879 245.286 166.287C245.286 166.287 249.898 161.945 251.409 155.074C252.829 148.619 249.875 142.99 247.763 140.95C247.557 140.752 247.534 140.434 247.708 140.207C248.464 139.225 250.03 136.502 247.548 133.056C245.139 129.71 241.04 130.532 239.277 131.09C238.851 131.224 238.412 130.956 238.325 130.518C237.981 128.787 236.529 125.119 230.361 125.119C226.807 125.119 224.21 127.085 223.129 128.063C222.786 128.377 222.3 128.464 221.87 128.284C219.676 127.352 212.765 125.036 206.432 129.35Z" fill="#292C38"/>
<path d="M302.513 243.431L277.289 244.017C277.289 244.017 286.21 265.025 286.443 284.769H200.817C200.817 284.769 188.268 265.117 190.957 243.671C193.178 226.045 196.626 207.205 201.856 197.082C206.596 187.904 213.397 182.815 225.043 180.369C225.043 180.369 224.471 190.922 230.626 193.035C236.781 195.148 248.922 193.469 253.222 176.475C253.222 176.475 262.528 173.845 270.149 178.039C277.765 182.238 307.011 213.822 302.513 243.431Z" fill="white" stroke="#C8D4E8" stroke-miterlimit="10" stroke-linejoin="round"/>
<path d="M206.596 277.414C210.502 278.798 221.892 276.03 216.259 270.724C210.626 265.417 206.71 254.916 206.71 254.916C206.71 254.916 199.447 268.204 198.751 269.372C198.059 270.534 202.685 276.03 206.596 277.414Z" fill="#EBF0F7"/>
<path d="M268.459 236.602C272.974 229.187 265.097 207.297 265.097 207.297C265.097 207.297 265.084 227.59 257.316 242.273C249.549 256.955 254.591 260.453 269.86 269.893C285.124 279.334 227.264 279.495 224.434 282.134C223.587 282.924 223.248 283.856 223.188 284.769H286.443C286.21 265.025 277.288 244.017 277.288 244.017L278.47 243.989C272.938 239.975 268.459 236.602 268.459 236.602Z" fill="#EBF0F7"/>
<path d="M216.534 265.565C216.415 265.565 216.291 265.551 216.177 265.523C215.884 265.454 215.673 265.293 215.536 265.039C215.009 264.079 215.627 262.192 215.632 262.174C215.655 262.109 215.646 262.044 215.614 261.984C215.581 261.929 215.527 261.887 215.462 261.874C215.453 261.874 214.482 261.657 214.001 260.752C213.58 259.959 213.64 258.87 214.18 257.522C215.472 254.293 220.354 244.737 225.648 243.297C226.477 243.071 227.374 242.96 228.395 242.96C229.87 242.96 231.4 243.186 233.012 243.426C234.766 243.689 236.579 243.957 238.489 243.957C240.17 243.957 241.699 243.745 243.17 243.306L244.301 242.969C251.152 240.916 267.199 236.104 279.958 236.104C280.38 236.104 280.792 236.108 281.204 236.117C293.642 236.431 299.449 240.27 300.315 240.893C299.994 242.194 297.311 251.972 288.463 253.739C285.376 254.357 279.77 254.671 271.811 254.671C260.316 254.671 247.804 254.002 247.681 253.997C247.676 253.997 247.671 253.997 247.667 253.997C247.63 253.997 247.594 254.006 247.561 254.025C247.534 254.039 244.539 255.594 239.556 255.594C238.439 255.594 237.294 255.515 236.144 255.363C236.135 255.363 236.126 255.363 236.112 255.363C236.034 255.363 235.966 255.4 235.92 255.465C235.892 255.506 232.993 259.783 228.624 259.783C228.276 259.783 228.258 259.041 228.258 259.036C228.258 258.934 228.189 258.847 228.098 258.814C228.075 258.81 228.052 258.805 228.029 258.805C227.956 258.805 227.883 258.842 227.841 258.907C227.823 258.939 225.767 261.975 223.775 261.975C223.578 261.975 223.385 261.943 223.198 261.883C222.039 261.5 222.359 259.58 222.359 259.562C222.378 259.447 222.314 259.336 222.204 259.304C222.181 259.299 222.158 259.294 222.135 259.294C222.048 259.294 221.966 259.345 221.929 259.428C221.906 259.483 219.108 265.565 216.534 265.565Z" fill="white"/>
<path d="M279.959 236.334C280.375 236.334 280.792 236.339 281.195 236.348C293.061 236.648 298.864 240.178 300.05 240.99C299.596 242.734 296.853 251.824 288.417 253.513C285.344 254.127 279.757 254.44 271.811 254.44C260.325 254.44 247.814 253.771 247.69 253.767C247.681 253.767 247.672 253.767 247.667 253.767C247.594 253.767 247.521 253.785 247.452 253.818C247.424 253.831 244.47 255.359 239.552 255.359C238.444 255.359 237.308 255.28 236.172 255.128C236.154 255.123 236.131 255.123 236.113 255.123C235.961 255.123 235.819 255.197 235.732 255.326C235.705 255.368 232.87 259.544 228.629 259.548C228.57 259.507 228.497 259.253 228.492 259.027C228.492 258.824 228.359 258.644 228.167 258.584C228.121 258.57 228.08 258.566 228.034 258.566C227.883 258.566 227.741 258.639 227.654 258.769C227.1 259.594 225.327 261.735 223.779 261.735C223.605 261.735 223.436 261.708 223.276 261.657C222.305 261.334 222.589 259.613 222.593 259.594C222.634 259.364 222.497 259.142 222.277 259.073C222.231 259.059 222.186 259.05 222.14 259.05C221.966 259.05 221.801 259.152 221.723 259.318C220.963 260.988 218.545 265.325 216.53 265.325C216.424 265.325 216.324 265.311 216.228 265.288C215.999 265.233 215.843 265.113 215.733 264.915C215.334 264.195 215.678 262.737 215.847 262.234C215.889 262.109 215.875 261.971 215.811 261.855C215.747 261.74 215.632 261.662 215.504 261.634C215.495 261.634 214.634 261.436 214.203 260.633C213.814 259.899 213.874 258.879 214.391 257.592C216.003 253.559 220.89 244.815 225.707 243.5C226.518 243.279 227.397 243.173 228.396 243.173C229.857 243.173 231.373 243.399 232.98 243.639C234.743 243.902 236.566 244.174 238.489 244.174C240.193 244.174 241.746 243.957 243.234 243.514L244.365 243.177C251.207 241.138 267.232 236.334 279.959 236.334ZM279.959 235.873C266.439 235.873 249.568 241.166 243.106 243.09C241.517 243.565 239.978 243.731 238.489 243.731C234.853 243.731 231.505 242.73 228.396 242.73C227.439 242.73 226.504 242.827 225.588 243.076C220.496 244.46 215.582 253.402 213.965 257.44C212.348 261.477 215.412 262.105 215.412 262.105C215.412 262.105 214.341 265.325 216.122 265.754C216.26 265.787 216.397 265.801 216.534 265.801C219.287 265.801 222.144 259.525 222.144 259.525C222.144 259.525 221.769 261.652 223.134 262.105C223.349 262.174 223.564 262.206 223.779 262.206C225.918 262.206 228.034 259.036 228.034 259.036C228.034 259.036 228.034 260.014 228.629 260.014C233.177 260.014 236.113 255.594 236.113 255.594C237.344 255.76 238.494 255.829 239.552 255.829C244.658 255.829 247.663 254.233 247.663 254.233C247.663 254.233 260.174 254.906 271.807 254.906C278.525 254.906 284.95 254.68 288.5 253.97C298.2 252.032 300.563 240.801 300.563 240.801C300.563 240.801 294.911 236.238 281.2 235.892C280.797 235.878 280.38 235.873 279.959 235.873Z" fill="#C8D4E8"/>
<path d="M200.817 284.769H187.407C187.407 284.769 188.268 265.118 190.956 243.671C194.716 245.157 200.72 246.319 210.1 245.6C210.1 245.6 210.223 273.054 200.817 284.769Z" fill="#292C38"/>
<path d="M215.819 206.266C215.824 206.241 215.829 206.231 215.829 206.231C215.829 206.231 215.824 206.246 215.819 206.266Z" fill="#EBF0F7"/>
<path d="M215.82 206.266C215.545 207.447 207.526 241.407 195.838 243.017C194.176 243.248 192.536 243.479 190.952 243.723C190.517 247.212 190.489 250.649 190.741 253.967C193.897 253.981 210.104 245.601 210.104 245.601C211.112 226.688 215.618 207.142 215.82 206.266Z" fill="#EBF0F7"/>
<path d="M212.481 164.418C215.668 164.418 218.252 161.815 218.252 158.604C218.252 155.393 215.668 152.791 212.481 152.791C209.294 152.791 206.711 155.393 206.711 158.604C206.711 161.815 209.294 164.418 212.481 164.418Z" stroke="#24285B" stroke-miterlimit="10"/>
<path d="M227.214 162.66C230.401 162.66 232.984 160.057 232.984 156.846C232.984 153.635 230.401 151.032 227.214 151.032C224.027 151.032 221.443 153.635 221.443 156.846C221.443 160.057 224.027 162.66 227.214 162.66Z" stroke="#24285B" stroke-miterlimit="10"/>
<path d="M218.21 157.893C218.21 157.893 219.117 156.92 221.457 157.192" stroke="#24285B" stroke-miterlimit="10" stroke-linecap="round"/>
<path d="M232.71 155.069L239.726 152.052" stroke="#24285B" stroke-miterlimit="10" stroke-linecap="round"/>
<path d="M215.412 262.1C216.195 259.894 219.392 254.154 222.144 250.836L215.412 262.1Z" fill="white"/>
<path d="M215.412 262.1C216.195 259.894 219.392 254.154 222.144 250.836" stroke="#C8D4E8" stroke-miterlimit="10" stroke-linecap="round" stroke-linejoin="round"/>
<path d="M222.145 259.521C223.331 257.638 225.602 254.413 226.724 252.655L222.145 259.521Z" fill="white"/>
<path d="M222.145 259.521C223.331 257.638 225.602 254.413 226.724 252.655" stroke="#C8D4E8" stroke-miterlimit="10" stroke-linecap="round" stroke-linejoin="round"/>
<path d="M228.033 259.031C228.033 259.031 230.74 254.519 232.182 253.467L228.033 259.031Z" fill="white"/>
<path d="M228.033 259.031C228.033 259.031 230.74 254.519 232.182 253.467" stroke="#C8D4E8" stroke-miterlimit="10" stroke-linecap="round" stroke-linejoin="round"/>
<path d="M300.571 240.801C300.571 240.801 294.92 236.237 281.208 235.891C276.056 235.762 270.336 236.463 264.845 237.502C274.462 235.914 290.491 238.281 294.32 240.805C298.345 243.459 295.002 250.587 294.961 250.675C299.325 246.684 300.571 240.801 300.571 240.801Z" fill="#292C38"/>
<path d="M86.1782 206.001C85.221 206.001 84.1814 205.927 83.0914 205.784C75.1915 204.755 67.0396 200.542 66.9617 200.501C66.8015 200.418 66.6274 200.261 66.4305 200.021C64.5666 197.658 62.4416 188.245 64.5666 183.76C65.281 182.252 66.403 181.481 67.9006 181.467C68.3357 181.463 68.7524 181.453 69.1463 181.43C75.8647 181.08 77.4035 178.163 79.3132 171.588C80.3161 168.146 79.6933 164.561 79.0338 160.763C78.324 156.689 77.5912 152.472 78.869 148.144C81.7771 138.325 89.2099 136.857 93.3866 136.857C95.3375 136.857 97.3022 137.185 98.7723 137.753C102.931 139.358 105.756 142.519 107.181 147.138C109.507 154.696 107.323 164.672 103.97 169.581C99.4547 176.179 94.0186 176.516 92.9744 176.516C92.8325 176.516 92.75 176.512 92.7454 176.512C92.7409 176.512 92.7317 176.512 92.7271 176.512C92.6126 176.512 92.5119 176.599 92.4981 176.719C92.0676 180.918 94.9941 183.576 97.545 185.066C97.5541 185.075 97.5679 185.085 97.5816 185.089C99.1021 185.971 100.462 186.441 100.952 186.594C100.815 187.595 100.078 192.43 97.8335 197.169C97.8243 197.178 97.8152 197.192 97.8106 197.206C96.5557 199.864 95.0261 202.06 93.2629 203.735C91.6829 205.239 89.2969 206.001 86.1782 206.001Z" fill="white"/>
<path d="M93.3916 136.627V137.088C95.315 137.088 97.2477 137.411 98.6948 137.97C102.785 139.548 105.564 142.658 106.966 147.212C109.269 154.705 107.108 164.589 103.783 169.452C99.3314 175.958 94.0007 176.286 92.9748 176.286C92.8466 176.286 92.7733 176.281 92.7641 176.281C92.7504 176.281 92.7412 176.281 92.7275 176.281C92.4939 176.281 92.297 176.456 92.2741 176.696C91.8299 181.011 94.8113 183.728 97.4171 185.26C97.4354 185.274 97.4492 185.283 97.4675 185.293C98.846 186.091 100.092 186.557 100.701 186.755C100.513 188.066 99.739 192.601 97.6369 197.054C97.6278 197.072 97.614 197.091 97.6049 197.109C96.3638 199.744 94.8479 201.917 93.1076 203.569C91.5688 205.032 89.2332 205.77 86.174 205.77C85.226 205.77 84.1955 205.696 83.1147 205.558C76.5154 204.7 69.1283 201.391 67.0583 200.298C66.9301 200.233 66.7789 200.09 66.6095 199.883C64.7685 197.552 62.6801 188.283 64.773 183.862C65.4554 182.423 66.4813 181.712 67.9055 181.703C68.4276 181.698 68.8123 181.684 69.1604 181.666C76.0254 181.311 77.5962 178.344 79.538 171.658C80.5592 168.16 79.9273 164.552 79.2632 160.727C78.5579 156.676 77.8297 152.49 79.0937 148.213C81.9561 138.537 89.279 137.093 93.3916 137.093V136.627ZM93.3916 136.627C88.1066 136.627 81.3515 138.971 78.6541 148.079C76.1719 156.468 81.1684 164.427 79.0983 171.524C77.152 178.219 75.6132 180.863 69.1375 181.2C68.7436 181.223 68.3315 181.232 67.901 181.237C60.9032 181.301 63.6052 196.814 66.2523 200.169C66.4584 200.422 66.6553 200.607 66.8522 200.708C68.6017 201.631 76.1124 205.11 83.0598 206.015C84.1223 206.153 85.1664 206.232 86.1785 206.232C89.0546 206.232 91.6421 205.595 93.4236 203.906C95.4066 202.023 96.9042 199.675 98.0216 197.308H98.0262C100.595 191.9 101.209 186.432 101.209 186.432L101.205 186.428C101.09 186.4 99.4871 185.929 97.701 184.891C97.701 184.886 97.701 184.886 97.701 184.886C95.1868 183.424 92.3107 180.831 92.7321 176.742C92.7321 176.742 92.8191 176.747 92.9794 176.747C94.1884 176.747 99.6199 176.36 104.163 169.715C109.311 162.185 111.967 142.607 98.8597 137.541C97.5682 137.042 95.6127 136.627 93.3916 136.627Z" fill="#C8D4E8"/>
<path d="M80.7052 121.22C76.1942 121.331 74.802 125.235 76.3774 127.915C77.9574 130.596 82.2027 130.319 85.3353 129.941C88.4678 129.563 89.5119 126.707 89.173 125.562C88.8387 124.413 87.4328 121.054 80.7052 121.22Z" fill="#292C38"/>
<path d="M99.4275 139.737C99.4275 139.737 98.0261 129.78 85.9998 129.314C73.9735 128.848 76.3367 145.749 82.3498 145.283C88.3629 144.817 99.4275 139.737 99.4275 139.737Z" fill="#292C38"/>
<path d="M98.8592 137.54C94.5039 135.856 82.4822 135.141 78.6535 148.075C77.6827 151.351 77.9758 155.37 78.42 158.489C79.9862 158.729 79.597 161.423 80.8106 161.253C81.7448 161.119 80.5221 159.019 81.0854 158.489C82.212 157.427 84.6987 158.756 87.5931 158.669C99.7751 158.3 101.52 151.226 101.52 151.226C102.17 157.377 105.115 160.311 107.469 161.696C109.608 152.836 108.499 141.269 98.8592 137.54Z" fill="#292C38"/>
<path d="M79.556 159.583C79.556 159.583 79.2492 158.337 77.7425 158.517C76.2312 158.701 75.1504 160.076 75.1916 161.608C75.2511 163.888 76.6845 166.762 80.4445 166.845" fill="white"/>
<path d="M79.556 159.583C79.556 159.583 79.2492 158.337 77.7425 158.517C76.2312 158.701 75.1504 160.076 75.1916 161.608C75.2511 163.888 76.6845 166.762 80.4445 166.845" stroke="#C8D4E8" stroke-miterlimit="10" stroke-linecap="round" stroke-linejoin="round"/>
<path d="M97.7002 184.891C97.7002 184.887 97.7002 184.887 97.7002 184.887C95.1859 183.424 92.3099 180.831 92.7312 176.743C87.6203 176.466 85.1243 173.665 85.1289 173.227C85.1289 173.227 85.3213 175.086 91.1375 177.444C92.1542 177.855 91.7466 179.746 94.5494 183.535C96.0011 185.496 97.6086 188.273 96.5598 192.002C94.7967 198.245 87.1074 203.629 79.3539 203.159C69.2511 202.54 85.6876 204.252 92.0763 204.903C92.5618 204.621 93.0152 204.294 93.4228 203.911C95.4058 202.028 96.9033 199.68 98.0208 197.312H98.0253C100.595 191.905 101.208 186.437 101.208 186.437L101.204 186.432C101.089 186.4 99.4863 185.929 97.7002 184.891Z" fill="#292C38"/>
<path d="M102.11 245.074C94.9841 245.074 87.3314 239.694 86.2002 238.863L106.571 189.842H109.667C110.495 191.12 118.817 204.783 114.773 230.479C113.248 240.164 108.989 245.074 102.11 245.074Z" fill="white"/>
<path d="M109.544 190.078C110.061 190.89 112.026 194.221 113.579 200.003C115.237 206.167 116.748 216.452 114.545 230.447C113.043 239.998 108.857 244.843 102.111 244.843C95.3148 244.843 88.0056 239.874 86.4852 238.785L106.727 190.078H109.544ZM109.791 189.616H106.425L85.9219 238.946C85.9219 238.946 94.2661 245.305 102.111 245.305C107.785 245.305 113.194 241.978 114.998 230.521C119.299 203.21 109.791 189.616 109.791 189.616Z" fill="#C8D4E8"/>
<path d="M30.0128 261.726C30.0128 261.726 18.0369 270.964 19.2459 284.502H97.7007V250.131L30.0128 261.726Z" fill="#EBF0F7"/>
<path d="M19.2459 284.506H23.789C23.9584 282.831 24.7141 277.788 27.7916 274.761C28.4053 274.157 29.2067 273.76 30.0631 273.663C35.7649 272.998 38.5081 267.005 38.5081 267.005C38.5081 267.005 35.2107 264.13 32.0004 261.389L30.0173 261.731C30.0128 261.726 18.0369 270.964 19.2459 284.506Z" fill="#DDE4F1"/>
<path d="M106.896 198.032C107.51 195.001 108.435 192.099 109.791 189.621C109.791 189.621 108.027 186.986 101.208 186.432L101.204 186.428C101.089 186.4 99.4863 185.929 97.7003 184.891C97.7506 185.122 99.294 192.279 94.9937 197.345C93.2671 199.38 90.6017 201.078 86.5166 201.858C85.1427 202.121 83.604 202.277 81.8911 202.31C74.0278 202.453 70.4099 199.117 68.9031 195.056C68.1841 193.114 68.0009 191.01 68.2391 188.952L69.1367 181.2C65.2669 181.075 60.4124 180.102 54.4634 180.918C52.6361 181.168 51.5461 185.703 49.5036 186.372C40.825 189.21 12.408 224.933 25.135 241.572C27.3333 244.442 27.5302 248.604 37.5048 244.022C35.7278 250.772 33.2777 257.509 30.0124 261.731C30.0124 261.731 36.6529 272.496 70.0893 272.417C87.4784 272.38 96.6057 258.552 101.364 245.291C105.751 233.049 106.42 221.288 106.42 221.288C106.42 221.288 105.509 214.759 105.852 207.035C105.98 204.109 106.287 201.013 106.896 198.032Z" fill="#3457E5"/>
<path d="M96.304 207.381C94.3943 208.082 85.6287 215.16 79.7301 216.212C73.8314 217.264 43.807 236.233 47.7959 225.219C51.7894 214.205 58.4712 203.712 60.2527 198.48L54.0426 193.57L36.942 197.691C34.0934 201.216 31.2494 205.313 28.8085 209.632L27.572 223.115C27.572 223.115 25.0531 231.199 23.2441 238.309C23.7296 239.458 24.3524 240.547 25.1264 241.562C27.3246 244.432 27.5216 248.594 37.4962 244.012C35.7192 250.763 33.2691 257.5 30.0038 261.722C30.0038 261.722 32.0097 264.974 39.3647 267.886C37.5374 266.433 37.4137 264.37 37.1939 262.474C36.8367 259.437 31.3914 259.701 38.0686 251.607C44.7458 243.514 56.0302 238.844 64.3835 231.72C72.7369 224.596 83.8839 218.298 87.8728 215.764C91.8663 213.231 99.0656 212.355 103.407 209.821C104.52 209.171 105.276 208.723 105.793 208.391C105.807 207.939 105.821 207.487 105.844 207.025C105.862 206.568 105.889 206.112 105.917 205.646C103.535 205.493 97.7833 206.841 96.304 207.381Z" fill="#0539DB"/>
<path d="M44.9014 269.695C45.6021 269.879 46.3302 270.059 47.0905 270.235C46.6004 269.985 45.886 269.796 44.9014 269.695Z" fill="#0539DB"/>
<path d="M22.2771 248.871C20.2895 248.871 18.8744 248.34 18.073 247.298C14.6657 242.845 14.3176 236.104 17.0334 227.267C22.9732 207.939 42.414 184.051 48.5875 182.035C50.4972 181.407 52.4619 180.955 54.4357 180.687C54.8845 180.628 55.3242 180.595 55.7409 180.595C60.3939 180.595 61.4198 184.42 61.7587 185.675C61.7816 185.763 61.8045 185.837 61.8182 185.897C62.8669 189.404 62.3815 195.877 58.846 201.82C55.86 206.836 47.2822 216.729 43.4536 220.517C54.8479 214.486 74.6688 210.075 78.7127 209.212C80.1049 208.912 81.6025 207.348 82.8894 205.862C83.4252 205.239 83.961 204.584 84.5243 203.892C85.1197 203.163 85.7288 202.411 86.347 201.705C87.9499 199.859 89.8642 197.917 91.8701 197.483C92.7082 197.303 93.7524 197.179 94.9843 197.114C95.6209 197.082 96.3124 197.068 97.0406 197.068C97.3658 197.068 97.6955 197.072 98.0252 197.077C99.5869 197.105 101.35 197.206 103.127 197.363C104.496 197.483 105.847 197.64 106.933 197.801C107.73 197.917 108.38 198.037 108.769 198.143C109.374 198.304 109.754 198.609 109.887 199.038C110.07 199.615 109.749 200.256 109.529 200.598C109.987 200.81 110.844 201.327 110.844 202.236C110.844 203.237 108.444 203.588 107.07 203.703C107.35 203.994 107.629 204.464 107.629 205.198C107.629 206.001 107.066 206.688 105.957 207.237C104.702 207.856 103.086 208.128 102.435 208.216C102.513 208.525 102.477 208.815 102.326 209.088C101.868 209.923 100.32 210.509 97.7276 210.836C96.4315 211.007 95.2591 211.049 94.8973 211.063C91.4213 215.714 82.4497 216.789 81.5292 216.886C65.1614 229.025 49.5629 238.738 37.6008 244.229C30.8961 247.311 25.7394 248.871 22.2771 248.871Z" fill="white"/>
<path d="M55.7368 180.826C60.5455 180.826 61.3332 185.09 61.5943 185.962C62.6934 189.635 62.0294 196.016 58.645 201.701C55.1323 207.598 43.5869 220.61 41.7001 221.763C52.7829 215.119 74.88 210.265 78.759 209.439C80.1237 209.143 81.5617 207.75 83.0593 206.015C84.1813 204.714 85.3354 203.219 86.517 201.858C88.271 199.841 90.0754 198.106 91.9164 197.709C92.7912 197.52 93.8445 197.405 94.994 197.345C95.6489 197.313 96.3358 197.299 97.0365 197.299C97.3617 197.299 97.6914 197.303 98.0212 197.308C99.734 197.34 101.502 197.451 103.105 197.594C104.556 197.723 105.875 197.88 106.897 198.032C107.721 198.152 108.348 198.272 108.706 198.369C110.652 198.895 109.173 200.709 109.173 200.709C109.173 200.709 110.611 201.179 110.611 202.241C110.611 203.302 106.42 203.523 106.42 203.523C106.42 203.523 107.396 203.906 107.396 205.203C107.396 206.015 106.718 206.606 105.852 207.035C104.295 207.801 102.12 208.027 102.12 208.027C102.857 209.623 100.05 210.315 97.696 210.611C96.1389 210.814 94.7787 210.837 94.7787 210.837C91.2661 215.686 81.4427 216.664 81.4427 216.664C64.9375 228.91 49.2199 238.642 37.5051 244.022C31.0248 246.998 25.7673 248.645 22.2776 248.645C20.3954 248.645 19.026 248.165 18.2566 247.159C5.52966 230.521 39.9781 185.094 48.6566 182.257C50.6992 181.588 52.6364 181.168 54.4637 180.918C54.9171 180.854 55.3384 180.826 55.7368 180.826ZM55.7368 180.365C55.3109 180.365 54.8621 180.397 54.4042 180.462C52.4212 180.734 50.4381 181.191 48.5193 181.818C45.3043 182.87 38.8698 189.372 32.5132 197.991C25.1949 207.921 19.4703 218.565 16.8186 227.203C14.08 236.118 14.4417 242.924 17.8994 247.441C18.7467 248.544 20.2213 249.102 22.2822 249.102C25.7765 249.102 30.9653 247.533 37.6974 244.437C49.6596 238.942 65.2535 229.238 81.6167 217.107C82.8257 216.974 91.5043 215.848 95.0123 211.289C95.4657 211.275 96.5465 211.224 97.7555 211.067C100.458 210.726 102.019 210.117 102.523 209.203C102.628 209.014 102.72 208.746 102.697 208.414C103.462 208.294 104.904 208.017 106.059 207.45C107.254 206.859 107.858 206.103 107.858 205.203C107.858 204.644 107.707 204.215 107.51 203.902C109.154 203.731 111.073 203.302 111.073 202.241C111.073 201.35 110.373 200.796 109.855 200.51C110.07 200.109 110.286 199.527 110.107 198.969C109.997 198.618 109.681 198.152 108.829 197.922C108.435 197.816 107.776 197.691 106.965 197.576C105.875 197.414 104.52 197.257 103.15 197.133C101.374 196.976 99.6057 196.874 98.0349 196.847C97.7006 196.842 97.3708 196.837 97.0411 196.837C96.3084 196.837 95.6168 196.851 94.9757 196.883C93.73 196.948 92.6721 197.073 91.8248 197.257C89.7502 197.705 87.8084 199.68 86.1781 201.553C85.5598 202.268 84.9416 203.02 84.3462 203.749C83.7829 204.437 83.2517 205.092 82.7158 205.71C81.4564 207.168 79.9909 208.7 78.6628 208.986C74.7609 209.817 56.2086 213.947 44.6403 219.65C48.8994 215.229 56.433 206.31 59.0388 201.936C62.611 195.938 63.0964 189.381 62.0339 185.828C62.0156 185.773 61.9973 185.699 61.9744 185.611C61.0401 182.132 58.9381 180.365 55.7368 180.365Z" fill="#C8D4E8"/>
<path d="M99.1888 161.253C98.9553 161.544 96.7982 163.219 96.7982 167.8C96.7982 169.715 95.1221 168.829 95.1221 168.829" fill="white"/>
<path d="M99.1888 161.253C98.9553 161.544 96.7982 163.219 96.7982 167.8C96.7982 169.715 95.1221 168.829 95.1221 168.829" stroke="#C8D4E8" stroke-miterlimit="10" stroke-linejoin="round"/>
<path d="M43.5958 220.697C47.5481 216.918 56.016 206.878 59.0019 202.028C62.5466 196.275 63.1832 189.515 62.0841 185.842C61.91 185.265 61.3376 183.004 59.7118 181.675C59.7118 181.675 67.2774 192.837 52.2652 209.185C38.4849 224.195 34.7891 226.548 35.27 226.184C35.27 226.184 38.2788 223.853 41.5625 221.851L43.5958 220.697Z" fill="#292C38"/>
<path d="M74.0881 242.79C74.0881 242.79 38.1649 256.544 40.4181 259.751C41.4257 261.177 47.306 264.241 74.0881 242.79Z" fill="#0539DB"/>
<path d="M109.172 200.708C109.172 200.708 103.246 199.897 98.6758 201.059L109.172 200.708Z" fill="white"/>
<path d="M109.172 200.708C109.172 200.708 103.246 199.897 98.6758 201.059" stroke="#C8D4E8" stroke-miterlimit="10" stroke-linecap="round" stroke-linejoin="round"/>
<path d="M106.42 203.523C106.42 203.523 99.8346 203.26 96.3037 204.113L106.42 203.523Z" fill="white"/>
<path d="M106.42 203.523C106.42 203.523 99.8346 203.26 96.3037 204.113" stroke="#C8D4E8" stroke-miterlimit="10" stroke-linecap="round" stroke-linejoin="round"/>
<path d="M102.12 208.026C102.12 208.026 97.2884 207.528 94.1055 208.811L102.12 208.026Z" fill="white"/>
<path d="M102.12 208.026C102.12 208.026 97.2884 207.528 94.1055 208.811" stroke="#C8D4E8" stroke-miterlimit="10" stroke-linecap="round" stroke-linejoin="round"/>
<path d="M125.587 212.862H96.5932L58.252 243.436H125.587V212.862Z" fill="white" stroke="#C8D4E8" stroke-miterlimit="10" stroke-linejoin="round"/>
<path d="M125.587 243.436H78.6543V284.502H125.587V243.436Z" fill="#DDE4F1"/>
<path d="M206.46 274.125V209.974L163.942 176.535L121.42 209.974V274.125L114.999 284.507H163.942H212.881L206.46 274.125Z" fill="white" stroke="#C8D4E8" stroke-miterlimit="10" stroke-linejoin="round"/>
<path d="M163.942 173.227L106.421 218.556V223.733L163.942 179.165L221.458 223.733V218.556L163.942 173.227Z" fill="white" stroke="#C8D4E8" stroke-miterlimit="10" stroke-linejoin="round"/>
<path d="M160.988 231.734H132.365V262.58H160.988V231.734Z" fill="white" stroke="#C8D4E8" stroke-miterlimit="10" stroke-linejoin="round"/>
<path d="M195.35 230.521H172.442V277.414H195.35V230.521Z" fill="white" stroke="#C8D4E8" stroke-miterlimit="10" stroke-linejoin="round"/>
<path d="M197.782 277.415H170.253V280.908H197.782V277.415Z" fill="white" stroke="#C8D4E8" stroke-miterlimit="10" stroke-linejoin="round"/>
<path d="M201.078 280.907H166.717V284.506H201.078V280.907Z" fill="white" stroke="#C8D4E8" stroke-miterlimit="10" stroke-linejoin="round"/>
<path d="M186.611 208.811H141.272V217.578H186.611V208.811Z" fill="white" stroke="#C8D4E8" stroke-miterlimit="10" stroke-linejoin="round"/>
<path d="M121.42 215.709L163.942 182.838L206.46 215.709V212.11L163.942 179.165L121.42 212.11V215.709Z" fill="#DDE4F1"/>
<path d="M100.926 216.087L74.0889 238.295" stroke="#C8D4E8" stroke-miterlimit="10" stroke-linejoin="round"/>
<path d="M101.209 225.528L93.7393 233.137" stroke="#C8D4E8" stroke-miterlimit="10" stroke-linejoin="round"/>
<path d="M90.5293 250.851V274.124H114.431V251.192L90.5293 250.851Z" fill="white" stroke="#C8D4E8" stroke-miterlimit="10" stroke-linejoin="round"/>
<path d="M70.0298 282.07C73.1383 282.07 75.6583 279.531 75.6583 276.399C75.6583 273.267 73.1383 270.729 70.0298 270.729C66.9213 270.729 64.4014 273.267 64.4014 276.399C64.4014 279.531 66.9213 282.07 70.0298 282.07Z" fill="#292C38"/>
<path d="M77.1701 280.363C61.2877 280.363 56.1218 278.679 55.9158 273.432C55.6501 266.733 61.6312 263.78 67.7817 261.329C70.5754 260.217 74.0468 258.478 77.7197 256.641C82.249 254.371 86.934 252.027 90.9229 250.56C97.504 248.138 111.921 248.018 114.742 248.018H115.108C115.649 248.031 128.275 248.322 132.447 249.9C135.529 251.063 137.952 254.422 139.555 256.646C140.164 257.49 140.69 258.224 141.084 258.598C144.611 261.962 147.844 269.898 145.11 275.195C143.072 279.14 132.818 279.279 115.832 279.505C109.562 279.588 102.459 279.685 94.4493 279.975C87.0348 280.238 81.5437 280.363 77.1701 280.363Z" fill="white"/>
<path d="M114.742 248.244C114.98 248.244 115.108 248.244 115.108 248.244C115.108 248.244 128.183 248.53 132.369 250.112C136.555 251.69 139.467 257.366 140.928 258.759C144.29 261.962 147.606 269.861 144.908 275.08C142.211 280.303 124.359 278.642 94.4398 279.735C87.5978 279.984 81.9006 280.132 77.1744 280.132C61.2233 280.132 56.3459 278.457 56.149 273.423C55.8925 266.894 61.6355 264.024 67.873 261.542C74.106 259.059 83.7875 253.43 91.0051 250.772C97.5907 248.35 112.246 248.244 114.742 248.244ZM114.742 247.782C111.911 247.782 97.4624 247.907 90.8448 250.343C86.8467 251.815 82.1571 254.164 77.6186 256.434C73.9503 258.27 70.4834 260.005 67.699 261.117C61.4706 263.6 55.4163 266.594 55.6865 273.446C55.9017 278.863 61.1226 280.598 77.1698 280.598C81.548 280.598 87.0391 280.474 94.4536 280.201C102.463 279.911 109.567 279.814 115.832 279.731C133.486 279.495 143.209 279.366 145.311 275.297C148.096 269.907 144.816 261.837 141.24 258.427C140.864 258.067 140.342 257.347 139.738 256.508C138.121 254.261 135.671 250.869 132.525 249.683C128.311 248.096 115.648 247.801 115.113 247.787C115.108 247.782 114.98 247.782 114.742 247.782Z" fill="#C8D4E8"/>
<path d="M97.2841 249.333C94.8889 249.688 92.6815 250.154 90.9962 250.772C85.6013 252.756 78.8234 256.406 73.1445 259.156C78.5898 259.894 87.6164 260.084 92.709 256.106C98.4199 251.649 105.404 249.642 105.404 249.642L97.2841 249.333Z" fill="#292C38"/>
<path d="M119.39 250.472C114.81 250.288 109.159 249.563 99.6927 254.265C90.2265 258.967 90.2174 261.006 91.0692 261.343C91.921 261.68 113.079 260.356 121.474 259.419C129.868 258.482 133.509 257.818 133.697 254.929C133.889 252.046 133.326 251.03 119.39 250.472Z" fill="#292C38"/>
<path d="M70.6534 261.431C70.6534 261.431 80.6463 260.993 81.4889 261.542C82.3316 262.091 72.1143 268.223 61.8604 266.506C61.8649 266.506 61.6497 265.279 70.6534 261.431Z" fill="#DDE4F1"/>
<path d="M77.1689 280.362C61.2865 280.362 56.1206 278.678 55.9146 273.432C55.855 271.923 56.1161 270.525 56.6839 269.27C56.7114 269.21 56.7618 269.164 56.8259 269.145C56.8488 269.141 56.8717 269.136 56.8946 269.136C56.9358 269.136 56.977 269.145 57.0137 269.168C58.4746 270.05 60.8148 270.497 63.9794 270.497C64.3549 270.497 64.7488 270.493 65.161 270.479C69.5941 270.331 72.6396 268.642 75.8637 266.852C79.1886 265.006 82.6233 263.096 87.661 263.096C87.8259 263.096 87.9953 263.096 88.1693 263.101C88.9067 263.119 89.6806 263.129 90.4775 263.129C100.571 263.129 114.874 261.73 122.357 260.014C124.99 259.41 128.443 259.105 132.62 259.105C136.508 259.105 140.126 259.377 141.935 259.539C141.99 259.543 142.045 259.571 142.086 259.613C144.962 262.806 147.692 270.188 145.113 275.181C143.075 279.126 132.821 279.264 115.835 279.49C109.57 279.573 102.467 279.67 94.4527 279.961C87.0336 280.238 81.5425 280.362 77.1689 280.362Z" fill="white"/>
<path d="M132.616 259.336C136.412 259.336 139.925 259.594 141.912 259.77C144.921 263.115 147.339 270.364 144.908 275.075C142.21 280.298 124.358 278.637 94.4393 279.73C87.5972 279.98 81.9001 280.127 77.1738 280.127C61.2228 280.127 56.3454 278.452 56.1485 273.418C56.0889 271.877 56.3637 270.539 56.8995 269.362C58.0674 270.068 60.174 270.724 63.9843 270.724C64.3644 270.724 64.7583 270.719 65.1705 270.705C74.3985 270.401 77.9753 263.323 87.6659 263.323C87.8308 263.323 88.0002 263.323 88.1651 263.327C88.907 263.346 89.681 263.355 90.4824 263.355C100.567 263.355 114.97 261.943 122.412 260.236C125.407 259.553 129.13 259.336 132.616 259.336ZM132.616 258.875C128.425 258.875 124.954 259.184 122.302 259.793C114.833 261.505 100.558 262.898 90.4733 262.898C89.6718 262.898 88.8933 262.889 88.1697 262.87C87.9957 262.866 87.8262 262.866 87.6568 262.866C82.5596 262.866 79.0973 264.79 75.745 266.649C72.5438 268.426 69.5212 270.105 65.1476 270.248C64.7491 270.262 64.3553 270.267 63.9752 270.267C60.087 270.267 58.104 269.561 57.1285 268.97C57.0552 268.929 56.9774 268.906 56.895 268.906C56.8492 268.906 56.8034 268.91 56.7576 268.924C56.6339 268.961 56.5332 269.053 56.4782 269.173C55.892 270.461 55.6264 271.896 55.6859 273.437C55.9012 278.854 61.122 280.589 77.1693 280.589C81.5474 280.589 87.0385 280.464 94.453 280.192C102.463 279.901 109.566 279.804 115.831 279.721C133.486 279.486 143.208 279.357 145.311 275.287C147.939 270.207 145.169 262.7 142.251 259.456C142.173 259.368 142.068 259.317 141.954 259.308C140.135 259.151 136.513 258.875 132.616 258.875Z" fill="#C8D4E8"/>
<path d="M137.242 275.435C123.356 279.237 84.4837 277.147 69.0318 276.058C60.9761 275.49 57.5734 273.802 56.1583 272.316C56.1354 272.671 56.1262 273.04 56.1445 273.423C56.401 279.952 64.5162 280.829 94.4353 279.735C124.354 278.642 142.206 280.298 144.904 275.08C145.302 274.305 145.568 273.516 145.71 272.722C143.717 273.502 140.983 274.411 137.242 275.435Z" fill="#DDE4F1"/>
<path d="M83.3067 284.336C87.3561 284.336 90.6388 281.028 90.6388 276.948C90.6388 272.868 87.3561 269.561 83.3067 269.561C79.2573 269.561 75.9746 272.868 75.9746 276.948C75.9746 281.028 79.2573 284.336 83.3067 284.336Z" fill="#292C38"/>
<path d="M83.3063 281.175C85.6232 281.175 87.5013 279.283 87.5013 276.948C87.5013 274.614 85.6232 272.722 83.3063 272.722C80.9895 272.722 79.1113 274.614 79.1113 276.948C79.1113 279.283 80.9895 281.175 83.3063 281.175Z" fill="white"/>
<path d="M136.097 284.336C140.146 284.336 143.429 281.028 143.429 276.948C143.429 272.868 140.146 269.561 136.097 269.561C132.047 269.561 128.765 272.868 128.765 276.948C128.765 281.028 132.047 284.336 136.097 284.336Z" fill="#292C38"/>
<path d="M136.096 281.175C138.413 281.175 140.291 279.283 140.291 276.948C140.291 274.614 138.413 272.722 136.096 272.722C133.78 272.722 131.901 274.614 131.901 276.948C131.901 279.283 133.78 281.175 136.096 281.175Z" fill="white"/>
<path d="M60.4636 257.112H57.2578V284.335H60.4636V257.112Z" fill="white" stroke="#C8D4E8" stroke-miterlimit="10" stroke-linejoin="round"/>
<path d="M90.6892 257.112H87.4834V284.335H90.6892V257.112Z" fill="white" stroke="#C8D4E8" stroke-miterlimit="10" stroke-linejoin="round"/>
<path d="M120.916 257.112H117.71V284.335H120.916V257.112Z" fill="white" stroke="#C8D4E8" stroke-miterlimit="10" stroke-linejoin="round"/>
<path d="M151.141 257.112H147.936V284.335H151.141V257.112Z" fill="white" stroke="#C8D4E8" stroke-miterlimit="10" stroke-linejoin="round"/>
<path d="M181.368 257.112H178.162V284.335H181.368V257.112Z" fill="white" stroke="#C8D4E8" stroke-miterlimit="10" stroke-linejoin="round"/>
<path d="M211.593 257.112H208.388V284.335H211.593V257.112Z" fill="white" stroke="#C8D4E8" stroke-miterlimit="10" stroke-linejoin="round"/>
<path d="M241.819 257.112H238.613V284.335H241.819V257.112Z" fill="white" stroke="#C8D4E8" stroke-miterlimit="10" stroke-linejoin="round"/>
<path d="M238.614 276.03H60.4639V277.414H238.614V276.03Z" fill="white" stroke="#C8D4E8" stroke-miterlimit="10" stroke-linejoin="round"/>
<path d="M238.614 263.572H60.4639V264.956H238.614V263.572Z" fill="white" stroke="#C8D4E8" stroke-miterlimit="10" stroke-linejoin="round"/>
<path d="M182.338 81.3721H145.485C143.017 81.3721 141.011 79.3557 141.011 76.8641V39.7385C141.011 37.2515 143.012 35.2305 145.485 35.2305H182.338C184.806 35.2305 186.812 37.2469 186.812 39.7385V76.8687C186.808 79.3557 184.806 81.3721 182.338 81.3721Z" fill="#F7F8FA" stroke="#C8D4E8" stroke-miterlimit="10" stroke-linejoin="round"/>
<path d="M164.22 42.0088H163.914C156.137 42.0088 149.831 48.3579 149.831 56.1973V72.4161H155.524V56.1927C155.524 51.5324 159.288 47.7442 163.909 47.7442H164.216C168.841 47.7442 172.601 51.537 172.601 56.1927V72.4115H178.294V56.1927C178.298 48.3579 171.997 42.0088 164.22 42.0088Z" fill="#3457E5"/>
<path d="M166.913 72.4114H161.221V56.3495C161.221 54.7668 162.494 53.4795 164.069 53.4795C165.64 53.4795 166.918 54.7622 166.918 56.3495V72.4114H166.913Z" fill="#12D3EB"/>
<path d="M301.02 190.7H275.328C273.13 190.7 271.348 188.905 271.348 186.69V172.839L265.486 168.903H275.145H301.016C303.214 168.903 304.995 170.698 304.995 172.913V186.69C305 188.905 303.218 190.7 301.02 190.7Z" fill="#CFD7E8"/>
<path d="M278.868 177.111H297.036" stroke="white" stroke-miterlimit="10" stroke-linecap="round"/>
<path d="M278.868 183.29H297.036" stroke="white" stroke-miterlimit="10" stroke-linecap="round"/>
<path d="M29.1292 120.454H54.8213C57.0195 120.454 58.801 122.249 58.801 124.464V138.316L64.663 142.251H54.9999H29.1292C26.9309 142.251 25.1494 140.456 25.1494 138.242V124.464C25.1448 122.249 26.9263 120.454 29.1292 120.454Z" fill="white" stroke="#CFD7E8" stroke-miterlimit="10"/>
<path d="M51.2809 134.043H33.1133" stroke="#C8D4E8" stroke-miterlimit="10" stroke-linecap="round" stroke-linejoin="round"/>
<path d="M51.2809 127.864H33.1133" stroke="#C8D4E8" stroke-miterlimit="10" stroke-linecap="round" stroke-linejoin="round"/>
<path d="M108.39 59.9623C109.3 59.9623 110.039 59.2186 110.039 58.3012C110.039 57.3838 109.3 56.6401 108.39 56.6401C107.479 56.6401 106.741 57.3838 106.741 58.3012C106.741 59.2186 107.479 59.9623 108.39 59.9623Z" fill="#CFD7E8"/>
<path d="M163.306 196.362V81.3721" stroke="#C8D4E8" stroke-miterlimit="10" stroke-linejoin="round"/>
<path d="M108.391 267.895V58.3013H140.407" stroke="#C8D4E8" stroke-miterlimit="10" stroke-linejoin="round"/>
<path d="M163.461 197.418C164.372 197.418 165.11 196.675 165.11 195.757C165.11 194.84 164.372 194.096 163.461 194.096C162.551 194.096 161.812 194.84 161.812 195.757C161.812 196.675 162.551 197.418 163.461 197.418Z" fill="#CFD7E8"/>
<path d="M108.395 269.556C109.305 269.556 110.043 268.812 110.043 267.895C110.043 266.978 109.305 266.234 108.395 266.234C107.484 266.234 106.746 266.978 106.746 267.895C106.746 268.812 107.484 269.556 108.395 269.556Z" fill="#CFD7E8"/>
<path d="M186.809 58.3013H212.881V101.121" stroke="#C8D4E8" stroke-miterlimit="10" stroke-linejoin="round"/>
<path d="M212.88 59.9623C213.791 59.9623 214.529 59.2186 214.529 58.3012C214.529 57.3838 213.791 56.6401 212.88 56.6401C211.97 56.6401 211.231 57.3838 211.231 58.3012C211.231 59.2186 211.97 59.9623 212.88 59.9623Z" fill="#CFD7E8"/>
<path d="M212.88 102.782C213.791 102.782 214.529 102.038 214.529 101.121C214.529 100.203 213.791 99.4595 212.88 99.4595C211.97 99.4595 211.231 100.203 211.231 101.121C211.231 102.038 211.97 102.782 212.88 102.782Z" fill="#CFD7E8"/>
<path d="M138.272 168.686H126.456C125.646 168.686 124.986 168.022 124.986 167.205V155.3C124.986 154.484 125.646 153.819 126.456 153.819H138.272C139.083 153.819 139.742 154.484 139.742 155.3V167.205C139.747 168.026 139.087 168.686 138.272 168.686Z" fill="white" stroke="#C8D4E8" stroke-miterlimit="10" stroke-linejoin="round"/>
<path d="M128.705 160.168L127.711 161.05L131.888 165.465C131.888 165.465 132.868 162.088 137.599 157.358L137.324 156.703C137.324 156.703 132.781 159.799 131.155 162.217L128.705 160.168Z" fill="#12D3EB"/>
<path d="M141.011 88.4782C145.817 88.4782 149.712 84.5531 149.712 79.7112C149.712 74.8694 145.817 70.9443 141.011 70.9443C136.205 70.9443 132.31 74.8694 132.31 79.7112C132.31 84.5531 136.205 88.4782 141.011 88.4782Z" fill="white" stroke="#C8D4E8" stroke-miterlimit="10" stroke-linejoin="round"/>
<path d="M137.265 79.7526L140.924 82.0458L144.762 79.8218L140.924 73.4404L137.265 79.7526Z" fill="#C8D4E8"/>
<path d="M137.265 80.666L140.96 85.9861L144.762 80.5737L140.924 82.9316L137.265 80.666Z" fill="#DDE4F1"/>
<path d="M163.305 137.559C167.352 137.559 170.633 134.253 170.633 130.176C170.633 126.099 167.352 122.793 163.305 122.793C159.258 122.793 155.978 126.099 155.978 130.176C155.978 134.253 159.258 137.559 163.305 137.559Z" fill="white" stroke="#C8D4E8" stroke-miterlimit="10" stroke-linejoin="round"/>
<path d="M166.021 131.284C165.971 131.131 165.897 130.988 165.806 130.85C165.714 130.716 165.604 130.592 165.472 130.476C165.339 130.361 165.192 130.264 165.032 130.176C165.362 130.019 165.614 129.807 165.792 129.54C165.971 129.277 166.058 128.981 166.058 128.663C166.058 128.354 166.003 128.068 165.888 127.8C165.774 127.532 165.618 127.302 165.421 127.103C165.224 126.905 164.991 126.753 164.725 126.637C164.551 126.563 164.368 126.513 164.175 126.49H164.203V125.539H163.493V126.453L163.69 126.462H163.04V125.539H162.33V126.462L160.512 126.457V127.325H161.222V133.139H160.512V133.992H162.33V134.823H163.04V133.992H163.493V134.823H164.203V133.992H163.914C164.217 133.992 164.501 133.932 164.766 133.817C165.032 133.702 165.261 133.54 165.458 133.342C165.655 133.139 165.81 132.903 165.925 132.631C166.039 132.359 166.094 132.068 166.094 131.754C166.094 131.588 166.071 131.436 166.021 131.284ZM162.188 127.32H163.882C164.038 127.32 164.18 127.357 164.317 127.435C164.455 127.514 164.574 127.611 164.675 127.735C164.775 127.86 164.858 127.998 164.917 128.155C164.977 128.312 165.004 128.474 165.004 128.635C165.004 128.783 164.977 128.926 164.917 129.069C164.858 129.207 164.78 129.332 164.679 129.438C164.578 129.544 164.459 129.627 164.327 129.692C164.189 129.756 164.043 129.784 163.887 129.784H162.192V127.32H162.188ZM164.959 132.271C164.899 132.433 164.821 132.58 164.72 132.705C164.62 132.834 164.501 132.936 164.368 133.014C164.235 133.092 164.088 133.134 163.928 133.134H162.188V130.642H163.928C164.084 130.642 164.226 130.675 164.363 130.735C164.501 130.799 164.62 130.882 164.716 130.988C164.817 131.095 164.894 131.214 164.954 131.353C165.014 131.487 165.041 131.63 165.041 131.773C165.046 131.944 165.018 132.11 164.959 132.271Z" fill="#C8D4E8"/>
</g>
<defs>
<clipPath id="clip0_490_2259">
<rect width="290" height="250" fill="white" transform="translate(15 35)"/>
</clipPath>
</defs>
</svg>
