<svg width="600" height="558" viewBox="0 0 600 558" fill="none" xmlns="http://www.w3.org/2000/svg">
<path d="M383.386 534.618H69.168C64.0137 534.618 59.8301 530.443 59.8301 525.299V265.712C59.8301 260.568 64.0137 256.393 69.168 256.393H383.386C388.541 256.393 392.724 260.568 392.724 265.712V525.299C392.724 530.453 388.541 534.618 383.386 534.618Z" fill="#EBF0F7" stroke="#C8D4E8" stroke-miterlimit="10" stroke-linejoin="round"/>
<path d="M359.978 511.806H92.5799C88.2361 511.806 84.7031 508.29 84.7031 503.946V287.065C84.7031 282.73 88.2261 279.205 92.5799 279.205H359.978C364.322 279.205 367.855 282.72 367.855 287.065V503.946C367.855 508.29 364.322 511.806 359.978 511.806Z" fill="#CFD7E8" stroke="#C8D4E8" stroke-miterlimit="10" stroke-linejoin="round"/>
<path d="M340.57 235.349H112.175C102.837 235.349 93.7389 238.335 86.2225 243.859L69.168 256.403H383.586L366.532 243.859C359.005 238.335 349.908 235.349 340.57 235.349Z" fill="#CFD7E8" stroke="#C8D4E8" stroke-miterlimit="10" stroke-linejoin="round"/>
<path d="M164.758 331.44C136.614 331.44 113.795 354.212 113.795 382.297C113.795 410.382 136.614 433.154 164.758 433.154C192.902 433.154 215.722 410.382 215.722 382.297C215.722 354.212 192.902 331.44 164.758 331.44ZM199.278 376.744H171.354V348.029C185.716 350.766 196.956 362.262 199.278 376.744ZM158.173 348.029V376.744H130.249C132.561 362.262 143.811 350.766 158.173 348.029ZM130.649 389.897H158.173V416.544C144.491 413.938 133.652 403.391 130.649 389.897ZM171.354 416.544V389.897H198.878C195.865 403.391 185.026 413.938 171.354 416.544Z" fill="white" stroke="#C8D4E8" stroke-miterlimit="10" stroke-linejoin="round"/>
<path d="M164.759 394.052C171.27 394.052 176.549 388.785 176.549 382.287C176.549 375.789 171.27 370.521 164.759 370.521C158.247 370.521 152.969 375.789 152.969 382.287C152.969 388.785 158.247 394.052 164.759 394.052Z" fill="white" stroke="#C8D4E8" stroke-miterlimit="10" stroke-linejoin="round"/>
<path d="M354.662 489.634V515.152C354.662 519.546 378.292 523.102 407.437 523.102C436.582 523.102 460.212 519.546 460.212 515.152V489.634H354.662Z" fill="#EBF0F7" stroke="#C8D4E8" stroke-miterlimit="10" stroke-linejoin="round"/>
<path d="M407.437 497.584C436.584 497.584 460.212 494.024 460.212 489.634C460.212 485.243 436.584 481.683 407.437 481.683C378.29 481.683 354.662 485.243 354.662 489.634C354.662 494.024 378.29 497.584 407.437 497.584Z" fill="white" stroke="#C8D4E8" stroke-miterlimit="10" stroke-linejoin="round"/>
<path d="M354.662 463.646V489.164C354.662 493.559 378.292 497.114 407.437 497.114C436.582 497.114 460.212 493.559 460.212 489.164V463.646H354.662Z" fill="#EBF0F7" stroke="#C8D4E8" stroke-miterlimit="10" stroke-linejoin="round"/>
<path d="M407.437 471.596C436.584 471.596 460.212 468.037 460.212 463.646C460.212 459.255 436.584 455.696 407.437 455.696C378.29 455.696 354.662 459.255 354.662 463.646C354.662 468.037 378.29 471.596 407.437 471.596Z" fill="white" stroke="#C8D4E8" stroke-miterlimit="10" stroke-linejoin="round"/>
<path d="M354.662 437.648V463.166C354.662 467.561 378.292 471.117 407.437 471.117C436.582 471.117 460.212 467.561 460.212 463.166V437.648H354.662Z" fill="#EBF0F7" stroke="#C8D4E8" stroke-miterlimit="10" stroke-linejoin="round"/>
<path d="M407.437 445.598C436.584 445.598 460.212 442.039 460.212 437.648C460.212 433.257 436.584 429.698 407.437 429.698C378.29 429.698 354.662 433.257 354.662 437.648C354.662 442.039 378.29 445.598 407.437 445.598Z" fill="white" stroke="#C8D4E8" stroke-miterlimit="10" stroke-linejoin="round"/>
<path d="M354.662 411.66V437.179C354.662 441.573 378.292 445.129 407.437 445.129C436.582 445.129 460.212 441.573 460.212 437.179V411.66H354.662Z" fill="#EBF0F7" stroke="#C8D4E8" stroke-miterlimit="10" stroke-linejoin="round"/>
<path d="M407.437 419.611C436.584 419.611 460.212 416.051 460.212 411.66C460.212 407.27 436.584 403.71 407.437 403.71C378.29 403.71 354.662 407.27 354.662 411.66C354.662 416.051 378.29 419.611 407.437 419.611Z" fill="white" stroke="#C8D4E8" stroke-miterlimit="10" stroke-linejoin="round"/>
<path d="M118.1 518.008L105.279 537.564V557C105.279 557 392.194 557 401.282 557C410.37 557 418.106 553.055 418.106 547.192C418.106 541.329 418.106 528.735 418.106 528.735C418.106 528.735 416.065 518.418 398.049 518.418C380.034 518.418 118.1 518.008 118.1 518.008Z" fill="#CFD7E8" stroke="#C8D4E8" stroke-miterlimit="10" stroke-linejoin="round"/>
<path d="M398.049 518.418C380.034 518.418 118.1 518.008 118.1 518.008L105.279 537.564C105.279 537.564 392.214 537.564 399.791 537.564C407.367 537.564 418.096 536.575 418.096 528.735C418.106 528.735 416.065 518.418 398.049 518.418Z" fill="white" stroke="#C8D4E8" stroke-miterlimit="10" stroke-linejoin="round"/>
<path d="M325.678 531.082H207.407C205.646 531.082 204.225 529.664 204.225 527.906V434.682H328.871V527.906C328.871 529.664 327.44 531.082 325.678 531.082Z" fill="#3457E5"/>
<path d="M204.225 458.552C216.965 461.489 240.105 463.456 266.548 463.456C292.99 463.456 316.13 461.489 328.871 458.552V434.682H204.225V458.552Z" fill="#0539DB"/>
<path d="M193.795 394.931V443.341C193.795 448.934 226.363 453.468 266.547 453.468C306.731 453.468 339.299 448.934 339.299 443.341V394.931H193.795Z" fill="#3457E5"/>
<path d="M339.299 394.931C339.299 398.027 329.341 400.794 313.637 402.652C300.946 404.16 284.502 405.059 266.547 405.059C248.181 405.059 231.407 404.12 218.606 402.552C203.393 400.694 193.795 397.967 193.795 394.931C193.795 391.895 203.393 389.168 218.606 387.311C231.407 385.753 248.181 384.814 266.547 384.814C284.492 384.814 300.926 385.713 313.617 387.211C329.331 389.068 339.299 391.835 339.299 394.931Z" fill="#EBF0F7" stroke="#C8D4E8" stroke-miterlimit="10" stroke-linejoin="round"/>
<path d="M212.33 431.066C216.78 431.066 220.387 427.467 220.387 423.026C220.387 418.586 216.78 414.986 212.33 414.986C207.881 414.986 204.273 418.586 204.273 423.026C204.273 427.467 207.881 431.066 212.33 431.066Z" fill="white"/>
<path d="M151.26 307.6C171.574 307.6 188.041 291.166 188.041 270.895C188.041 250.624 171.574 234.191 151.26 234.191C130.946 234.191 114.479 250.624 114.479 270.895C114.479 291.166 130.946 307.6 151.26 307.6Z" fill="white" stroke="#C8D4E8" stroke-miterlimit="10" stroke-linejoin="round"/>
<path d="M313.376 236.688C307.02 254.186 303.447 289.762 308.541 318.396C312.895 342.906 313.526 366.586 313.616 387.211C313.636 390.696 313.636 394.092 313.636 397.388V402.652C300.945 404.16 284.501 405.059 266.546 405.059C248.18 405.059 231.406 404.12 218.605 402.552V362.611C218.605 355.37 212.78 351.745 205.664 351.595C198.558 351.455 177.059 352.364 166.19 344.154C155.311 335.944 144.992 333.258 137.636 333.338C130.279 333.417 138.947 309.218 158.383 307.57C177.82 305.912 189.47 316.588 208.806 303.305C228.133 290.021 231.005 254.625 210.478 240.023C189.95 225.421 178.831 231.404 166.19 235.349C153.539 239.304 130.029 237.786 129.779 224.413C129.519 211.039 163.117 197.077 186.777 195.099C186.777 195.099 207.425 180.777 239.012 190.735C239.012 190.735 250.382 182.025 267.576 191.613C278.606 197.766 286.743 209.731 286.743 209.731C286.743 209.731 309.622 169.161 338.877 175.144C347.865 176.982 346.654 183.184 341.83 191.014C337.006 198.844 319.721 219.189 313.376 236.688Z" fill="white" stroke="#C8D4E8" stroke-miterlimit="10" stroke-linejoin="round"/>
<path d="M186.777 195.099C210.177 195.099 241.094 203.429 258.639 242.311L186.777 195.099Z" fill="white"/>
<path d="M186.777 195.099C210.177 195.099 241.094 203.429 258.639 242.311" stroke="#C8D4E8" stroke-miterlimit="10" stroke-linecap="round" stroke-linejoin="round"/>
<path d="M239.014 190.735C251.144 195.139 276.466 209.731 280.639 234.191L239.014 190.735Z" fill="white"/>
<path d="M239.014 190.735C251.144 195.139 276.466 209.731 280.639 234.191" stroke="#C8D4E8" stroke-miterlimit="10" stroke-linecap="round" stroke-linejoin="round"/>
<path d="M286.744 209.731C292.019 217.092 294.671 227.878 294.671 227.878L286.744 209.731Z" fill="white"/>
<path d="M286.744 209.731C292.019 217.092 294.671 227.878 294.671 227.878" stroke="#C8D4E8" stroke-miterlimit="10" stroke-linecap="round" stroke-linejoin="round"/>
<path d="M157.994 338.901C158.915 337.622 159.755 336.084 160.236 334.326C161.757 328.813 158.714 326.916 155.301 325.597C151.889 324.269 147.545 322.761 142.03 325.597C142.03 325.597 139.148 329.223 138.777 333.348C144.102 333.497 150.768 335.035 157.994 338.901Z" fill="white" stroke="#C8D4E8" stroke-miterlimit="10" stroke-linejoin="round"/>
<path d="M132.031 218.071C133.863 221.187 139.388 222.475 140.649 221.896C142.29 221.137 158.534 216.223 154.46 210.49C152.659 207.963 150.367 206.645 148.355 205.966C141.049 209.551 135.094 213.736 132.031 218.071Z" fill="white" stroke="#C8D4E8" stroke-miterlimit="10" stroke-linejoin="round"/>
<path d="M18.0137 526.088V544.236C18.0137 547.362 34.808 549.889 55.5357 549.889C76.2634 549.889 93.0577 547.362 93.0577 544.236V526.088H18.0137Z" fill="#EBF0F7" stroke="#C8D4E8" stroke-miterlimit="10" stroke-linejoin="round"/>
<path d="M55.5357 531.741C76.2585 531.741 93.0577 529.21 93.0577 526.088C93.0577 522.966 76.2585 520.435 55.5357 520.435C34.8129 520.435 18.0137 522.966 18.0137 526.088C18.0137 529.21 34.8129 531.741 55.5357 531.741Z" fill="white" stroke="#C8D4E8" stroke-miterlimit="10" stroke-linejoin="round"/>
<path d="M70.7593 528.735L56.9575 528.705C50.2918 528.685 44.9172 527.257 44.9573 525.519V525.449C44.9873 524.061 48.4202 522.892 53.1643 522.483C54.3953 522.373 55.7164 522.323 57.0876 522.323L70.8794 522.353L70.8494 523.631L57.0476 523.601C56.2369 523.601 55.4462 523.631 54.7156 523.701C51.8832 523.951 49.8314 524.64 49.8214 525.469V525.539C49.8014 526.578 53.0041 527.427 56.9675 527.437L70.7693 527.467L70.7593 528.735Z" fill="#3457E5"/>
<path d="M70.8086 526.178L57.1469 526.148C55.7958 526.148 54.7148 525.859 54.7148 525.509C54.7249 525.229 55.4154 524.99 56.3763 524.91C56.6265 524.89 56.8967 524.88 57.1669 524.88L70.8286 524.91L70.8086 526.178Z" fill="#DDE4F1"/>
<path d="M1 504.665V522.812C1 525.939 17.7943 528.465 38.522 528.465C59.2497 528.465 76.0441 525.939 76.0441 522.812V504.665H1Z" fill="#EBF0F7" stroke="#C8D4E8" stroke-miterlimit="10" stroke-linejoin="round"/>
<path d="M38.522 510.318C59.2449 510.318 76.0441 507.787 76.0441 504.665C76.0441 501.543 59.2449 499.012 38.522 499.012C17.7992 499.012 1 501.543 1 504.665C1 507.787 17.7992 510.318 38.522 510.318Z" fill="white" stroke="#C8D4E8" stroke-miterlimit="10" stroke-linejoin="round"/>
<path d="M48.7417 507.761L34.9399 507.731C28.2742 507.711 22.8996 506.283 22.9397 504.545V504.475C22.9697 503.087 26.4026 501.918 31.1467 501.509C32.3777 501.399 33.6989 501.349 35.07 501.349L48.8618 501.379L48.8318 502.657L35.03 502.627C34.2193 502.627 33.4286 502.657 32.698 502.727C29.8656 502.977 27.8138 503.666 27.8038 504.495V504.565C27.7838 505.604 30.9865 506.453 34.9499 506.463L48.7517 506.493L48.7417 507.761Z" fill="#3457E5"/>
<path d="M48.791 505.204L35.1293 505.174C33.7782 505.174 32.6973 504.885 32.6973 504.535C32.7073 504.255 33.3979 504.016 34.3587 503.936C34.6089 503.916 34.8791 503.906 35.1494 503.906L48.811 503.936L48.791 505.204Z" fill="#DDE4F1"/>
<path d="M21.5566 482.582V500.73C21.5566 503.856 38.351 506.383 59.0787 506.383C79.8064 506.383 96.6007 503.856 96.6007 500.73V482.582H21.5566Z" fill="#EBF0F7" stroke="#C8D4E8" stroke-miterlimit="10" stroke-linejoin="round"/>
<path d="M59.0689 488.235C79.7917 488.235 96.5909 485.704 96.5909 482.582C96.5909 479.46 79.7917 476.929 59.0689 476.929C38.3461 476.929 21.5469 479.46 21.5469 482.582C21.5469 485.704 38.3461 488.235 59.0689 488.235Z" fill="white" stroke="#C8D4E8" stroke-miterlimit="10" stroke-linejoin="round"/>
<path d="M515.518 473.284C509.293 449.743 492.128 432.834 473.532 429.628L472.671 426.392L457.989 430.267C434.159 436.549 421.298 465.983 429.244 496.026C437.191 526.068 462.953 545.325 486.773 539.042L501.456 535.167L500.595 531.931C515.188 519.986 521.743 496.815 515.518 473.284Z" fill="#EBF0F7" stroke="#C8D4E8" stroke-miterlimit="10" stroke-linejoin="round"/>
<path d="M501.458 535.207C525.284 528.929 538.156 499.489 530.208 469.451C522.261 439.413 496.503 420.152 472.676 426.43C448.85 432.708 435.978 462.148 443.926 492.186C451.874 522.223 477.632 541.485 501.458 535.207Z" fill="white" stroke="#C8D4E8" stroke-miterlimit="10" stroke-linejoin="round"/>
<path d="M88.3846 94.7936C73.8922 114.369 69.2782 136.752 75.4435 151.034L73.4518 153.73L83.04 160.802C98.5833 172.267 126.187 161.301 144.693 136.312C163.198 111.323 165.59 81.7798 150.047 70.314L140.459 63.2428L138.467 65.9394C122.964 64.2515 102.877 75.2179 88.3846 94.7936Z" fill="#EBF0F7" stroke="#C8D4E8" stroke-miterlimit="10" stroke-linejoin="round"/>
<path d="M135.109 129.242C153.61 104.256 156.005 74.7072 140.458 63.2434C124.911 51.7797 97.3095 62.7421 78.8082 87.7286C60.3069 112.715 57.912 142.264 73.459 153.728C89.006 165.191 116.608 154.229 135.109 129.242Z" fill="white" stroke="#C8D4E8" stroke-miterlimit="10" stroke-linejoin="round"/>
<path d="M437.952 240.443C429.565 229.766 418.206 223.983 409.598 225.162L408.447 223.694L403.223 227.779C394.746 234.41 396.547 250.83 407.256 264.463C417.965 278.086 433.509 283.759 441.986 277.127L447.21 273.042L446.059 271.574C449.272 263.504 446.35 251.12 437.952 240.443Z" fill="#EBF0F7" stroke="#C8D4E8" stroke-miterlimit="10" stroke-linejoin="round"/>
<path d="M447.235 273.046C455.714 266.413 453.908 249.989 443.203 236.363C432.497 222.736 416.945 217.067 408.467 223.7C399.988 230.333 401.794 246.757 412.499 260.384C423.205 274.01 438.757 279.68 447.235 273.046Z" fill="white" stroke="#C8D4E8" stroke-miterlimit="10" stroke-linejoin="round"/>
<path d="M335.625 41.5097C346.835 41.5097 355.923 32.4413 355.923 21.2549C355.923 10.0684 346.835 1 335.625 1C324.416 1 315.328 10.0684 315.328 21.2549C315.328 32.4413 324.416 41.5097 335.625 41.5097Z" fill="white" stroke="#C8D4E8" stroke-miterlimit="10" stroke-linejoin="round"/>
<path d="M570.706 279.145L525.047 326.925L599 323.969L577.402 280.164C576.13 277.597 572.688 277.067 570.706 279.145Z" fill="#CFD7E8" stroke="#C8D4E8" stroke-miterlimit="10" stroke-linejoin="round"/>
<path d="M545.595 307.809C555.268 307.809 563.11 299.984 563.11 290.331C563.11 280.678 555.268 272.853 545.595 272.853C535.922 272.853 528.08 280.678 528.08 290.331C528.08 299.984 535.922 307.809 545.595 307.809Z" fill="#EBF0F7" stroke="#C8D4E8" stroke-miterlimit="10" stroke-linejoin="round"/>
<path d="M540.029 288.483L493.63 347.63C492.138 349.527 492.599 352.294 494.621 353.622L531.722 377.832C537.897 381.857 546.084 380.859 551.099 375.465L599 323.969L545.604 287.614C543.803 286.396 541.37 286.775 540.029 288.483Z" fill="white" stroke="#C8D4E8" stroke-miterlimit="10" stroke-linejoin="round"/>
<path d="M516.991 308.818L511.357 315.3C509.765 317.128 510.016 319.914 511.907 321.432L523.407 330.661C526.59 333.218 531.174 333.018 534.126 330.191C537.519 326.946 537.449 321.512 533.976 318.346L523.107 308.458C521.325 306.85 518.563 307.01 516.991 308.818Z" fill="#EBF0F7" stroke="#C8D4E8" stroke-miterlimit="10" stroke-linejoin="round"/>
<path d="M528.631 328.204C530.776 328.204 532.515 326.469 532.515 324.329C532.515 322.189 530.776 320.454 528.631 320.454C526.487 320.454 524.748 322.189 524.748 324.329C524.748 326.469 526.487 328.204 528.631 328.204Z" fill="white" stroke="#C8D4E8" stroke-miterlimit="10" stroke-linejoin="round"/>
<path d="M494.652 175.194L419.288 206.105C417.036 207.034 414.454 205.956 413.533 203.708L392.065 151.593C391.134 149.346 392.215 146.769 394.467 145.85L469.831 114.939C472.083 114.01 474.665 115.088 475.586 117.336L497.054 169.451C497.985 171.698 496.904 174.275 494.652 175.194Z" fill="white" stroke="#C8D4E8" stroke-miterlimit="10" stroke-linejoin="round"/>
<path d="M409.488 193.901L493.02 159.643" stroke="#C8D4E8" stroke-miterlimit="10" stroke-linejoin="round"/>
<path d="M403.404 155.408L427.495 145.521" stroke="#C8D4E8" stroke-miterlimit="10" stroke-linejoin="round"/>
<path d="M69.7593 485.788L55.9575 485.758C49.2918 485.738 43.9172 484.31 43.9573 482.572V482.502C43.9873 481.114 47.4202 479.946 52.1643 479.536C53.3953 479.426 54.7164 479.376 56.0876 479.376L69.8794 479.406L69.8494 480.685L56.0476 480.655C55.2369 480.655 54.4462 480.685 53.7156 480.755C50.8832 481.004 48.8314 481.693 48.8214 482.522V482.592C48.8014 483.631 52.0041 484.48 55.9675 484.49L69.7693 484.52L69.7593 485.788Z" fill="#3457E5"/>
<path d="M69.8086 483.232L56.1469 483.202C54.7958 483.202 53.7148 482.912 53.7148 482.562C53.7249 482.283 54.4154 482.043 55.3763 481.963C55.6265 481.943 55.8967 481.933 56.1669 481.933L69.8286 481.963L69.8086 483.232Z" fill="#12D3EB"/>
<path d="M424.66 416.404L404.263 416.355C394.415 416.335 386.468 414.217 386.518 411.64V411.54C386.558 409.493 391.632 407.765 398.648 407.156C400.47 406.996 402.421 406.916 404.453 406.916L424.851 406.966L424.811 408.854L404.413 408.804C403.212 408.804 402.051 408.854 400.97 408.944C396.787 409.313 393.754 410.342 393.734 411.56V411.66C393.704 413.188 398.448 414.457 404.303 414.467L424.7 414.517L424.66 416.404Z" fill="#3457E5"/>
<path d="M424.742 412.629L404.544 412.579C402.553 412.579 400.941 412.15 400.951 411.63C400.961 411.221 401.982 410.871 403.403 410.742C403.774 410.712 404.164 410.692 404.574 410.692L424.772 410.742L424.742 412.629Z" fill="#12D3EB"/>
<path d="M151.439 251.719H151.089C142.212 251.719 135.025 258.9 135.025 267.749V286.076H141.521V267.749C141.521 262.485 145.815 258.201 151.089 258.201H151.439C156.714 258.201 161.008 262.485 161.008 267.749V286.076H167.503V267.749C167.503 258.9 160.307 251.719 151.439 251.719Z" fill="#3457E5"/>
<path d="M154.511 286.076H148.016V267.919C148.016 266.131 149.467 264.673 151.268 264.673C153.06 264.673 154.521 266.121 154.521 267.919L154.511 286.076Z" fill="#12D3EB"/>
<path d="M335.736 10.7679H335.525C330.101 10.7679 325.707 15.1524 325.707 20.5657V31.7618H329.68V20.5557C329.68 17.3397 332.303 14.723 335.525 14.723H335.736C338.958 14.723 341.581 17.3397 341.581 20.5557V31.7518H345.554V20.5557C345.554 15.1524 341.16 10.7679 335.736 10.7679Z" fill="#3457E5"/>
<path d="M337.616 31.7518H333.643V20.6656C333.643 19.5769 334.533 18.688 335.624 18.688C336.715 18.688 337.606 19.5769 337.606 20.6656V31.7518H337.616Z" fill="#12D3EB"/>
<path d="M111.025 133.795L104.86 129.471L118.752 108.037C122.735 101.885 121.915 94.0146 116.91 90.4889L116.57 90.2592C113.057 87.7923 108.403 88.1219 104.56 90.6587C102.928 91.7374 101.447 93.2156 100.266 95.0433L86.3743 116.477L80.209 112.152L94.0908 90.7286C96.0925 87.6425 98.5847 85.1556 101.327 83.3378C107.773 79.0731 115.569 78.5338 121.474 82.6886L121.804 82.9183C130.222 88.831 131.603 102.015 124.897 112.372L111.025 133.795Z" fill="#3457E5"/>
<path d="M98.7043 125.146L92.5391 120.811L106.291 99.5876C106.691 98.9684 107.202 98.459 107.752 98.0995C109.053 97.2406 110.635 97.1307 111.826 97.9697C113.527 99.1582 113.807 101.835 112.446 103.922L98.7043 125.146Z" fill="#12D3EB"/>
<path d="M442.016 250.81L438.883 252.937L431.237 242.6C429.035 239.634 425.182 238.625 422.63 240.353L422.459 240.473C420.668 241.681 419.997 243.929 420.518 246.196C420.738 247.155 421.168 248.113 421.829 248.992L429.475 259.329L426.343 261.457L418.696 251.12C417.595 249.631 416.865 248.013 416.494 246.405C415.624 242.62 416.755 238.855 419.767 236.817L419.937 236.707C424.221 233.801 430.696 235.489 434.39 240.483L442.016 250.81Z" fill="#3457E5"/>
<path d="M435.741 255.065L432.598 257.192L425.022 246.955C424.801 246.655 424.651 246.326 424.581 246.006C424.401 245.237 424.631 244.478 425.242 244.068C426.112 243.479 427.414 243.819 428.164 244.827L435.741 255.065Z" fill="#12D3EB"/>
<path d="M515.219 499.042L507.442 500.35L501.978 474.193C500.406 466.682 493.991 461.429 487.665 462.487L487.245 462.567C482.811 463.306 479.578 466.972 478.598 471.686C478.177 473.683 478.167 475.871 478.628 478.108L484.092 504.255L476.316 505.554L470.851 479.406C470.06 475.641 470.09 471.956 470.791 468.59C472.442 460.68 477.857 454.557 485.313 453.309L485.734 453.239C496.363 451.461 507.112 460.26 509.754 472.894L515.219 499.042Z" fill="#3457E5"/>
<path d="M499.667 501.649L491.88 502.947L486.465 477.049C486.305 476.29 486.315 475.541 486.455 474.862C486.786 473.264 487.886 472.025 489.388 471.776C491.54 471.416 493.711 473.194 494.242 475.751L499.667 501.649Z" fill="#12D3EB"/>
</svg>
