<svg width="580" height="601" viewBox="0 0 580 601" fill="none" xmlns="http://www.w3.org/2000/svg">
<path d="M62.9337 555.82C57.4078 563.41 52.8473 571.615 49.2188 580.254C48.603 581.735 51.0164 582.384 51.6323 580.919C55.1608 572.481 59.7047 564.475 65.0975 557.068C66.0296 555.787 63.8658 554.538 62.9337 555.82Z" fill="#3457E5"/>
<path d="M66.0773 559.099C97.6182 559.099 129.142 559.099 160.683 559.099C162.298 559.099 162.298 556.602 160.683 556.602C129.142 556.602 97.6182 556.602 66.0773 556.602C64.4794 556.602 64.4794 559.099 66.0773 559.099Z" fill="#3457E5"/>
<path d="M291.26 559.099C312.698 559.099 334.152 559.099 355.59 559.099C357.204 559.099 357.204 556.602 355.59 556.602C334.152 556.602 312.698 556.602 291.26 556.602C289.645 556.602 289.645 559.099 291.26 559.099Z" fill="#3457E5"/>
<path d="M356.736 559.615C364.243 557.268 372.765 559.565 378.274 565.141C379.606 566.489 380.87 568.07 381.669 569.818C382.685 572.081 381.087 573.529 379.156 574.428C377.109 575.377 374.762 575.826 372.565 576.259C369.885 576.792 367.156 577.091 364.426 577.208C362.828 577.274 362.811 579.771 364.426 579.704C369.136 579.505 373.93 578.806 378.44 577.358C381.553 576.359 385.181 574.095 384.449 570.3C383.8 566.872 380.604 563.593 377.974 561.512C375.112 559.249 371.749 557.617 368.188 556.802C364.193 555.886 359.999 555.97 356.087 557.201C354.539 557.684 355.188 560.097 356.736 559.615Z" fill="#3457E5"/>
<path d="M53.4601 578.023C96.0028 578.023 138.529 578.023 181.072 578.023C223.614 578.023 266.141 578.023 308.683 578.023C332.518 578.023 356.352 578.023 380.187 578.023C381.801 578.023 381.801 575.527 380.187 575.527C337.644 575.527 295.118 575.527 252.575 575.527C210.033 575.527 167.507 575.527 124.964 575.527C101.129 575.527 77.2947 575.527 53.4601 575.527C51.8623 575.527 51.8623 578.023 53.4601 578.023Z" fill="#3457E5"/>
<path d="M49.0664 577.407C49.0664 583.499 49.0664 589.608 49.0664 595.699C49.0664 597.314 51.563 597.314 51.563 595.699C51.563 589.608 51.563 583.499 51.563 577.407C51.563 575.793 49.0664 575.793 49.0664 577.407Z" fill="#3457E5"/>
<path d="M52.2128 599.461C92.9746 599.461 133.753 599.461 174.515 599.461C215.144 599.461 255.772 599.461 296.401 599.461C319.287 599.461 342.156 599.461 365.042 599.461C366.656 599.461 366.656 596.965 365.042 596.965C324.28 596.965 283.501 596.965 242.74 596.965C202.111 596.965 161.482 596.965 120.854 596.965C97.9679 596.965 75.0987 596.965 52.2128 596.965C50.5983 596.965 50.5983 599.461 52.2128 599.461Z" fill="#3457E5"/>
<path d="M383.35 574.245C383.35 580.337 383.35 586.445 383.35 592.537C383.35 594.152 385.846 594.152 385.846 592.537C385.846 586.445 385.846 580.337 385.846 574.245C385.846 572.647 383.35 572.631 383.35 574.245Z" fill="#3457E5"/>
<path d="M382.952 588.16C379.224 594.335 372.25 598.196 365.043 598.08C363.428 598.063 363.428 600.56 365.043 600.576C373.115 600.693 380.938 596.332 385.099 589.408C385.931 588.027 383.768 586.778 382.952 588.16Z" fill="#3457E5"/>
<path d="M151.879 484.05C151.879 514.326 151.879 544.602 151.879 574.878C151.879 576.492 154.376 576.492 154.376 574.878C154.376 544.602 154.376 514.326 154.376 484.05C154.376 482.452 151.879 482.435 151.879 484.05Z" fill="#3457E5"/>
<path d="M286.846 488.461C286.846 515.79 286.846 543.12 286.846 570.45C286.846 572.065 289.342 572.065 289.342 570.45C289.342 543.12 289.342 515.79 289.342 488.461C289.342 486.863 286.846 486.863 286.846 488.461Z" fill="#3457E5"/>
<path d="M144.307 426.66C144.307 443.904 144.307 461.147 144.307 478.374C144.307 479.989 146.803 479.989 146.803 478.374C146.803 461.131 146.803 443.887 146.803 426.66C146.803 425.046 144.307 425.046 144.307 426.66Z" fill="#3457E5"/>
<path d="M296.949 429.174C296.949 446.201 296.949 463.228 296.949 480.255C296.949 481.869 299.446 481.869 299.446 480.255C299.446 463.228 299.446 446.201 299.446 429.174C299.446 427.576 296.949 427.576 296.949 429.174Z" fill="#3457E5"/>
<path d="M144.888 477.242C165.277 485.115 187.148 487.945 208.885 488.694C219.821 489.06 230.756 488.943 241.691 488.694C251.877 488.461 262.114 488.394 272.233 487.162C283.085 485.831 293.804 483.018 302.992 476.893C304.324 476.011 303.075 473.847 301.727 474.729C285.049 485.864 264.011 485.664 244.72 486.13C223.199 486.646 201.495 486.929 180.141 483.75C168.323 482.003 156.706 479.156 145.554 474.846C144.039 474.263 143.39 476.676 144.888 477.242Z" fill="#3457E5"/>
<path d="M146.671 425.529C164.813 433.601 184.769 435.132 204.393 435.548C226.28 435.998 248.184 436.031 270.071 436.264C280.79 436.381 292.241 437.296 302.145 432.436C303.593 431.737 302.328 429.573 300.88 430.272C291.892 434.683 281.439 433.884 271.719 433.784C261.2 433.668 250.697 433.568 240.178 433.451C220.222 433.252 199.982 433.884 180.126 431.62C169.091 430.355 158.122 427.909 147.936 423.382C146.488 422.732 145.206 424.879 146.671 425.529Z" fill="#3457E5"/>
<path d="M144.89 425.861C162.749 417.406 182.872 416.341 202.312 416.041C223.534 415.725 244.789 416.507 265.927 418.388C271.436 418.871 277.278 419.054 282.521 420.951C287.298 422.682 291.725 426.577 291.909 431.97C291.958 433.568 294.455 433.584 294.405 431.97C294.106 422.383 284.502 418.122 276.28 416.957C265.244 415.392 253.96 414.843 242.825 414.26C231.257 413.661 219.672 413.412 208.105 413.478C197.436 413.545 186.733 413.728 176.131 414.976C164.913 416.291 153.878 418.838 143.641 423.698C142.177 424.397 143.442 426.544 144.89 425.861Z" fill="#3457E5"/>
<path d="M159.352 451.41C155.191 453.957 155.773 460.149 159.235 463.028C161.249 464.709 163.779 465.475 166.359 465.741C169.039 466.007 171.785 465.841 172.834 462.945C173.35 461.53 173.616 459.966 173.866 458.484C174.132 456.92 174.315 455.338 174.232 453.757C174.099 450.961 173.2 448.298 171.269 446.234C169.621 444.453 167.208 443.255 164.744 443.504C162.165 443.771 160.034 445.352 158.553 447.399C156.655 450.046 156.156 453.374 155.823 456.52C155.573 458.767 155.707 462.579 158.852 462.512C160.45 462.479 160.467 459.982 158.852 460.016C158.636 460.016 158.603 460.032 158.47 459.733C158.336 459.416 158.253 459.1 158.22 458.751C158.103 457.785 158.286 456.77 158.403 455.821C158.653 453.707 159.052 451.494 160.101 449.613C160.999 447.998 162.431 446.567 164.262 446.084C165.943 445.652 167.657 446.251 168.922 447.366C172.384 450.412 172.035 455.322 171.152 459.433C170.953 460.382 170.82 461.48 170.403 462.362C169.921 463.394 168.856 463.311 167.874 463.294C165.993 463.261 164.029 462.962 162.348 462.079C160.633 461.181 159.302 459.749 159.002 457.769C158.769 456.171 159.219 454.423 160.65 453.541C161.981 452.725 160.733 450.562 159.352 451.41Z" fill="#3457E5"/>
<path d="M170.172 389.444C170.172 398.698 170.172 407.952 170.172 417.19C170.172 418.804 172.669 418.804 172.669 417.19C172.669 407.936 172.669 398.681 172.669 389.444C172.669 387.829 170.172 387.829 170.172 389.444Z" fill="#3457E5"/>
<path d="M170.172 402.693C170.172 411.731 170.172 420.768 170.172 429.806C170.172 431.421 172.669 431.421 172.669 429.806C172.669 420.768 172.669 411.731 172.669 402.693C172.669 401.078 170.172 401.078 170.172 402.693Z" fill="#3457E5"/>
<path d="M271.717 352.86C271.717 379.141 271.717 405.422 271.717 431.704C271.717 433.318 274.213 433.318 274.213 431.704C274.213 405.422 274.213 379.141 274.213 352.86C274.213 351.245 271.717 351.245 271.717 352.86Z" fill="#3457E5"/>
<path d="M283.57 234.136C272.951 245.92 268.457 261.433 266.493 276.862C264.162 295.038 264.462 313.729 266.293 331.938C267.358 342.574 269.056 353.143 271.353 363.579C271.702 365.143 274.099 364.477 273.766 362.913C269.771 344.704 267.641 326.129 267.458 307.471C267.308 291.259 267.957 274.399 272.801 258.803C275.414 250.398 279.442 242.458 285.35 235.884C286.416 234.702 284.651 232.938 283.57 234.136Z" fill="#3457E5"/>
<path d="M241.775 232.305C249.399 220.688 257.288 208.554 268.673 200.265C273.982 196.387 279.974 193.391 286.399 191.893C289.611 191.144 292.907 190.811 296.202 190.944C298.233 191.028 305.59 191.544 304.291 195.205C303.759 196.72 306.172 197.369 306.705 195.871C308.519 190.778 301.512 188.897 297.917 188.564C292.025 188.015 286.016 189.014 280.49 191.061C268.822 195.355 259.535 203.844 251.945 213.481C247.501 219.106 243.556 225.082 239.628 231.057C238.73 232.389 240.893 233.654 241.775 232.305Z" fill="#3457E5"/>
<path d="M305.755 199.217C298.515 211.966 290.493 224.25 281.721 235.984C280.756 237.265 282.919 238.514 283.885 237.249C292.656 225.498 300.679 213.214 307.919 200.482C308.718 199.083 306.554 197.818 305.755 199.217Z" fill="#3457E5"/>
<path d="M242.31 250.664C235.203 236.067 227.496 221.403 213.049 212.865C198.452 204.227 180.709 200.681 163.882 201.813C154.178 202.462 144.641 204.676 135.653 208.421C134.189 209.037 134.838 211.45 136.319 210.834C151.648 204.443 168.692 202.529 185.054 205.442C201.415 208.354 217.227 215.561 227.28 229.176C232.473 236.2 236.335 244.106 240.146 251.929C240.845 253.377 243.009 252.112 242.31 250.664Z" fill="#3457E5"/>
<path d="M215.262 260.584C206.074 239.579 189.097 222.053 167.376 214.163C156.075 210.069 143.808 208.671 131.907 210.418C119.075 212.299 106.824 217.842 95.1569 223.301C89.6809 225.864 84.2549 228.977 80.5432 233.887C77.1311 238.397 75.5666 244.839 78.7623 249.865C79.6111 251.213 81.7749 249.965 80.926 248.6C77.7969 243.657 80.3268 237.565 83.9719 233.67C87.5671 229.842 92.3107 227.362 97.021 225.182C108.04 220.105 119.474 214.945 131.525 212.981C153.778 209.353 176.747 217.575 192.975 232.905C201.614 241.06 208.371 250.98 213.115 261.849C213.747 263.314 215.911 262.049 215.262 260.584Z" fill="#3457E5"/>
<path d="M80.1579 251.546C96.7855 257.105 115.127 256.573 131.389 249.998C132.854 249.399 132.221 246.986 130.723 247.585C114.845 254.009 97.0851 254.575 80.8237 249.133C79.2924 248.633 78.6433 251.047 80.1579 251.546Z" fill="#3457E5"/>
<path d="M140.545 252.212C150.165 251.296 159.369 256.073 165.444 263.38C171.919 271.17 174.732 281.423 175.614 291.343C176.097 296.752 176.18 302.361 174.632 307.604C173.35 311.965 170.937 315.926 167.858 319.238C161.833 325.713 153.577 329.774 144.989 331.605C132.389 334.285 119.356 332.67 106.723 331.156C105.126 330.956 105.142 333.469 106.723 333.652C127.961 336.215 152.945 338.363 169.206 321.452C172.235 318.306 174.682 314.628 176.263 310.55C178.377 305.124 178.61 299.199 178.26 293.44C177.611 282.871 175.015 272.002 168.59 263.38C162.116 254.692 151.58 248.667 140.528 249.732C138.963 249.865 138.947 252.362 140.545 252.212Z" fill="#3457E5"/>
<path d="M142.858 332.005C136.533 330.556 130.075 329.791 123.584 329.841C117.492 329.891 111.018 330.373 105.209 332.337C95.5551 335.6 87.8155 343.106 84.0206 352.527C83.4214 354.025 85.8348 354.657 86.434 353.193C90.0292 344.238 97.7854 337.114 107.056 334.368C118.191 331.072 131.024 331.821 142.209 334.401C143.757 334.784 144.423 332.371 142.858 332.005Z" fill="#3457E5"/>
<path d="M97.0354 336.731C86.9657 338.03 81.6062 347.234 77.3786 355.44C76.6462 356.871 78.7933 358.136 79.5423 356.705C83.254 349.498 88.0475 340.393 97.0521 339.228C97.7178 339.145 98.3004 338.712 98.3004 337.98C98.2838 337.381 97.7012 336.648 97.0354 336.731Z" fill="#3457E5"/>
<path d="M83.7374 361.032C91.7766 360.749 99.8158 363.296 106.174 368.272C107.422 369.254 109.203 367.507 107.938 366.508C101.064 361.115 92.4923 358.236 83.7374 358.535C82.1396 358.602 82.1396 361.099 83.7374 361.032Z" fill="#3457E5"/>
<path d="M81.0742 353.858C81.6734 357.603 84.3864 360.749 87.8651 362.164C88.4643 362.414 89.2632 361.898 89.3963 361.298C89.5628 360.583 89.18 360.033 88.5308 359.767C88.198 359.634 88.7472 359.884 88.431 359.717C88.3478 359.684 88.2645 359.634 88.1813 359.601C87.9982 359.517 87.8318 359.418 87.6487 359.318C87.2992 359.118 86.9663 358.902 86.65 358.652C86.7832 358.752 86.6833 358.669 86.6001 358.602C86.5335 358.552 86.467 358.486 86.3837 358.419C86.2339 358.286 86.0841 358.153 85.951 358.003C85.668 357.72 85.4017 357.42 85.1521 357.104C85.0688 356.988 85.2519 357.237 85.1188 357.054C85.0522 356.971 84.9856 356.871 84.9357 356.788C84.8358 356.638 84.7359 356.488 84.6361 356.322C84.4197 355.972 84.2533 355.623 84.0702 355.257C83.9703 355.04 84.1035 355.34 84.0535 355.207C84.0202 355.123 83.987 355.04 83.9537 354.957C83.8704 354.757 83.8039 354.541 83.7539 354.341C83.6374 353.958 83.5542 353.559 83.4876 353.176C83.3878 352.527 82.5389 352.111 81.9564 352.311C81.2407 352.544 80.9577 353.159 81.0742 353.858Z" fill="#3457E5"/>
<path d="M101.714 364.877C106.391 365.742 110.269 368.356 114.164 370.952C117.992 373.515 121.853 375.812 126.314 377.11C136.301 380.023 147.286 379.291 157.572 379.491C159.186 379.524 159.186 377.027 157.572 376.994C147.302 376.778 136.201 377.593 126.281 374.481C117.659 371.768 111.384 364.128 102.38 362.464C100.815 362.181 100.133 364.594 101.714 364.877Z" fill="#3457E5"/>
<path d="M154.891 379.923C159.818 379.557 165.128 380.739 168.739 384.317C171.935 387.497 173.533 392.69 171.652 396.95C171.02 398.415 173.167 399.68 173.816 398.215C176.08 393.056 174.681 387.03 170.887 382.953C166.875 378.642 160.617 376.994 154.891 377.427C153.31 377.543 153.294 380.04 154.891 379.923Z" fill="#3457E5"/>
<path d="M85.0036 254.509C76.232 254.942 68.9585 260.933 64.9639 268.473C62.7335 272.684 61.3521 277.278 60.4533 281.939C59.4713 286.998 58.7056 292.275 59.0052 297.434C59.5545 306.772 64.0651 315.61 71.322 321.502C78.013 326.945 86.435 330.04 94.9402 331.039C103.812 332.088 113.798 330.457 119.907 323.383C120.955 322.168 119.191 320.403 118.142 321.618C107.906 333.469 87.2006 329.258 75.7327 321.668C68.6423 316.975 63.649 309.734 62.0012 301.362C61.0358 296.452 61.4686 291.392 62.2009 286.482C62.8168 282.355 63.6656 278.227 65.097 274.299C68.2428 265.644 75.2167 257.471 85.0202 256.989C86.6014 256.939 86.6181 254.442 85.0036 254.509Z" fill="#3457E5"/>
<path d="M112.615 256.406C123.817 260.551 132.555 270.254 135.235 281.922C136.733 288.43 136.35 295.337 134.22 301.662C132.056 308.087 127.878 313.696 123.318 318.623C120.854 321.286 118.042 323.666 114.48 324.648C110.651 325.696 106.574 325.297 102.679 324.931C101.081 324.781 101.081 327.278 102.679 327.427C109.919 328.093 116.677 327.96 122.436 322.983C127.828 318.323 132.688 311.782 135.501 305.241C140.961 292.541 139.097 277.461 130.575 266.576C126.081 260.834 120.089 256.523 113.265 253.993C111.783 253.444 111.134 255.857 112.615 256.406Z" fill="#3457E5"/>
<path d="M86.2982 302.394C86.498 293.057 84.3009 281.922 92.9726 275.531C96.2682 273.1 100.546 272.035 104.457 273.567C108.485 275.131 111.348 279.009 112.696 283.004C114.627 288.696 113.928 294.904 113.162 300.747C112.946 302.328 115.442 302.311 115.659 300.747C116.99 290.71 117.24 277.445 106.821 271.919C98.0824 267.292 87.9627 273.75 85 282.371C82.7863 288.796 83.9514 295.77 83.8182 302.394C83.7683 304.009 86.265 304.009 86.2982 302.394Z" fill="#3457E5"/>
<path d="M99.5176 284.735C99.5176 290.194 99.5176 295.67 99.5176 301.129C99.5176 302.744 102.014 302.744 102.014 301.129C102.014 295.67 102.014 290.194 102.014 284.735C102.014 283.137 99.5176 283.137 99.5176 284.735Z" fill="#3457E5"/>
<path d="M315.859 427.293C315.859 459.683 315.859 492.072 315.859 524.479C315.859 533.716 315.859 542.954 315.859 552.191C315.859 553.806 318.356 553.806 318.356 552.191C318.356 519.802 318.356 487.412 318.356 455.006C318.356 445.768 318.356 436.531 318.356 427.293C318.356 425.678 315.859 425.678 315.859 427.293Z" fill="#3457E5"/>
<path d="M428.141 431.071C428.141 460.498 428.141 489.909 428.141 519.319C428.141 527.741 428.141 536.163 428.141 544.602C428.141 546.216 430.637 546.216 430.637 544.602C430.637 515.191 430.637 485.764 430.637 456.354C430.637 447.932 430.637 439.51 430.637 431.071C430.637 429.457 428.141 429.457 428.141 431.071Z" fill="#3457E5"/>
<path d="M430.354 547.897C416.423 561.063 395.601 561.146 377.625 560.896C376.01 560.88 376.01 563.376 377.625 563.393C396.333 563.659 417.654 563.343 432.118 549.662C433.283 548.563 431.519 546.799 430.354 547.897Z" fill="#3457E5"/>
<path d="M316.474 517.921C345.318 525.76 375.844 526.925 405.221 521.35C413.593 519.768 421.849 517.605 429.954 514.942C431.469 514.442 430.82 512.029 429.289 512.528C401.21 521.782 371.1 524.579 341.806 520.551C333.484 519.419 325.262 517.705 317.156 515.508C315.575 515.091 314.926 517.505 316.474 517.921Z" fill="#3457E5"/>
<path d="M319.054 481.337C333.551 484.399 348.348 485.548 363.145 486.031C370.618 486.28 378.108 486.397 385.581 486.463C392.688 486.53 399.929 486.297 406.703 483.917C413.66 481.47 419.769 477.226 425.328 472.465C426.543 471.417 424.779 469.653 423.564 470.701C418.604 474.945 413.161 478.79 407.036 481.137C400.411 483.667 393.388 484 386.38 483.967C372.233 483.883 358.035 483.667 343.937 482.435C335.798 481.72 327.726 480.604 319.72 478.923C318.155 478.607 317.49 481.004 319.054 481.337Z" fill="#3457E5"/>
<path d="M311.832 436.697C326.679 439.477 341.509 442.606 356.472 444.703C369.92 446.584 383.652 447.499 397.101 445.219C404.541 443.954 411.748 441.59 418.439 438.095C419.87 437.346 418.605 435.199 417.174 435.931C392.84 448.631 364.112 443.937 338.33 439.144C329.708 437.529 321.086 435.915 312.465 434.283C310.917 434.001 310.251 436.414 311.832 436.697Z" fill="#3457E5"/>
<path d="M321.715 435.132C323.946 428.907 332.201 428.092 337.794 427.526C346.532 426.627 355.304 425.945 364.092 425.462C381.651 424.513 399.244 424.38 416.821 425.129C420.05 425.262 426.425 425.412 426.591 430.023C426.708 433.368 420.832 435.798 418.335 436.98C411.411 440.242 403.705 441.524 396.182 442.472C380.337 444.486 364.142 446.334 348.18 444.886C343.586 444.47 339.009 443.737 334.515 442.622C332.335 442.09 330.187 441.457 328.057 440.725C326.193 440.092 322.198 439.293 322.681 436.614C323.43 432.353 330.787 432.369 334.016 431.853C338.992 431.055 343.969 430.256 348.962 429.457C350.543 429.207 349.878 426.794 348.296 427.043C343.187 427.859 338.06 428.674 332.95 429.49C329.239 430.089 324.245 430.156 321.599 433.285C319.568 435.698 319.652 439.21 322.381 441.024C323.863 442.006 325.727 442.539 327.408 443.105C329.771 443.921 332.168 444.603 334.598 445.186C352.94 449.563 372.048 447.732 390.556 445.618C399.078 444.636 407.766 443.704 415.855 440.692C420.932 438.794 432.749 434.001 428.022 426.744C425.975 423.598 422.164 422.915 418.685 422.699C413.692 422.399 408.665 422.316 403.672 422.216C393.236 422.033 382.783 422.15 372.364 422.549C360.979 422.999 349.595 423.798 338.243 424.963C331.219 425.678 322.082 426.777 319.335 434.45C318.769 435.981 321.183 436.63 321.715 435.132Z" fill="#3457E5"/>
<path d="M453.44 458.351C443.986 455.572 433.5 457.269 425.295 462.695C416.091 468.787 411.38 478.94 409.732 489.592C407.918 501.343 408.617 513.776 414.642 524.279C417.605 529.455 421.483 534.049 425.345 538.56C429.356 543.22 433.45 547.831 438.094 551.875C447.781 560.314 460.697 566.322 473.696 562.86C475.244 562.444 474.595 560.048 473.031 560.447C461.979 563.376 450.677 558.816 442.072 551.942C437.728 548.48 433.883 544.469 430.205 540.324C426.576 536.23 422.915 532.069 419.752 527.591C416.407 522.864 413.794 517.738 412.512 512.045C411.28 506.603 411.164 500.944 411.563 495.401C412.312 485.132 415.308 474.413 423.248 467.356C431.154 460.332 442.621 457.735 452.758 460.731C454.322 461.214 454.972 458.817 453.44 458.351Z" fill="#3457E5"/>
<path d="M452.525 461.63C465.108 458.334 478.424 464.127 488.194 471.9C497.648 479.423 504.955 489.576 509.316 500.811C511.529 506.486 513.044 512.445 513.726 518.487C514.425 524.629 514.791 531.536 511.379 536.979C508.284 541.905 502.907 544.968 497.798 547.431C492.139 550.161 486.147 552.208 480.005 553.59C466.19 556.685 451.726 556.269 438.128 552.375C436.58 551.925 435.914 554.339 437.462 554.788C450.362 558.483 463.993 559.115 477.175 556.719C483.7 555.537 490.058 553.59 496.133 550.943C501.659 548.546 507.401 545.6 511.446 541.023C515.823 536.046 516.872 529.772 516.589 523.33C516.323 516.906 515.158 510.498 513.21 504.389C509.266 492.056 502.075 480.704 492.322 472.149C481.57 462.712 466.373 455.455 451.843 459.25C450.312 459.633 450.961 462.029 452.525 461.63Z" fill="#3457E5"/>
<path d="M416.256 466.756C406.286 472.882 398.797 482.602 395.434 493.82C394.968 495.368 397.382 496.017 397.848 494.486C401.027 483.9 408.101 474.712 417.521 468.92C418.886 468.088 417.621 465.924 416.256 466.756Z" fill="#3457E5"/>
<path d="M392.921 500.461C391.706 518.121 397.614 535.198 405.204 550.893C408.833 558.4 412.644 565.573 419.801 570.267C426.609 574.728 434.848 576.941 442.754 578.439C452.89 580.354 463.259 580.753 473.512 579.654C475.093 579.488 475.11 576.991 473.512 577.158C464.791 578.09 455.969 577.973 447.281 576.675C439.441 575.493 431.269 573.646 424.195 569.934C420.75 568.12 417.587 565.806 415.041 562.827C412.311 559.598 410.381 555.753 408.516 551.992C404.738 544.419 401.359 536.629 398.929 528.523C396.2 519.419 394.752 509.982 395.417 500.461C395.517 498.847 393.021 498.863 392.921 500.461Z" fill="#3457E5"/>
<path d="M504.172 549.295C489.658 556.436 476.759 566.655 466.506 579.172C465.49 580.403 467.255 582.184 468.27 580.936C478.423 568.569 491.089 558.516 505.437 551.442C506.885 550.743 505.62 548.596 504.172 549.295Z" fill="#3457E5"/>
<path d="M459.935 528.956C454.642 525.294 450.447 520.368 446.603 515.258C442.891 510.348 437.864 504.605 437.598 498.164C437.315 491.49 443.473 487.545 449.282 486.214C455.341 484.815 461.949 485.964 467.142 489.376C472.834 493.104 476.462 499.279 477.394 505.97C477.611 507.552 480.024 506.886 479.808 505.305C477.894 491.373 464.861 481.503 450.913 483.384C444.905 484.2 438.264 487.295 435.917 493.271C433.171 500.245 437.781 507.418 441.742 512.861C446.653 519.602 451.746 526.31 458.686 531.103C460.001 532.035 461.25 529.871 459.935 528.956Z" fill="#3457E5"/>
<path d="M453.89 501.21C458.933 507.518 463.993 513.81 469.036 520.118C470.035 521.366 471.799 519.602 470.8 518.354C465.757 512.046 460.697 505.754 455.654 499.446C454.639 498.197 452.891 499.962 453.89 501.21Z" fill="#3457E5"/>
<path d="M365.824 431.138C370.351 430.755 374.895 430.355 379.439 430.122C381.203 430.023 391.756 429.007 390.824 432.619C390.341 434.483 386.879 434.983 385.348 435.382C383.201 435.948 381.004 436.364 378.79 436.597C374.329 437.08 369.819 436.93 365.391 436.148C363.827 435.865 363.144 438.278 364.726 438.561C372.831 440.009 381.703 439.676 389.459 436.747C391.007 436.164 392.488 435.249 393.121 433.634C393.72 432.086 393.237 430.489 392.022 429.407C389.193 426.893 384.482 427.393 381.02 427.559C375.944 427.792 370.901 428.225 365.841 428.658C364.243 428.791 364.226 431.288 365.824 431.138Z" fill="#3457E5"/>
<path d="M372.15 434.45C375.778 434.317 379.407 434.184 383.019 434.05C384.617 433.984 384.633 431.487 383.019 431.554C379.39 431.687 375.762 431.82 372.15 431.953C370.552 432.02 370.535 434.517 372.15 434.45Z" fill="#3457E5"/>
<path d="M370.869 249.865C376.811 261.017 382.919 272.518 392.14 281.356C400.479 289.362 411.431 295.071 423.198 294.755C424.796 294.705 424.813 292.208 423.198 292.258C397.732 292.957 383.402 268.091 373.016 248.6C372.267 247.185 370.103 248.45 370.869 249.865Z" fill="#3457E5"/>
<path d="M376.745 246.187C388.013 245.072 396.135 254.109 402.96 261.716C408.669 268.074 416.741 279.226 408.719 287.148C407.57 288.28 409.334 290.044 410.483 288.912C413.995 285.45 414.977 280.441 414.145 275.697C413.179 270.221 409.684 265.611 406.122 261.516C398.615 252.911 389.361 242.425 376.745 243.69C375.164 243.84 375.147 246.336 376.745 246.187Z" fill="#3457E5"/>
<path d="M372.917 244.273C367.358 246.336 362.215 249.233 357.554 252.894C357.022 253.31 357.122 254.226 357.554 254.659C358.07 255.175 358.786 255.075 359.319 254.659C363.613 251.28 368.456 248.583 373.583 246.686C374.215 246.453 374.648 245.837 374.448 245.155C374.282 244.539 373.55 244.04 372.917 244.273Z" fill="#3457E5"/>
<path d="M408.036 288.53C401.046 293.223 393.855 297.617 386.482 301.679C385.067 302.461 386.332 304.608 387.747 303.842C395.12 299.781 402.311 295.387 409.301 290.693C410.616 289.795 409.368 287.631 408.036 288.53Z" fill="#3457E5"/>
<path d="M361.829 254.908C364.609 265.278 370.018 274.598 375.561 283.703C379.738 290.544 384.848 298.666 393.67 299.299C395.268 299.415 395.268 296.918 393.67 296.802C385.165 296.186 380.421 286.932 376.543 280.491C371.533 272.185 366.756 263.663 364.243 254.242C363.827 252.695 361.413 253.344 361.829 254.908Z" fill="#3457E5"/>
<path d="M64.579 63.9154C50.9474 73.7355 37.2492 83.7554 25.6148 95.9723C19.9058 101.964 14.6962 108.505 10.5018 115.646C8.48787 119.074 6.72358 122.653 5.20895 126.331C3.72761 129.943 2.22963 133.871 2.56251 137.849C2.84546 141.278 4.75955 144.307 8.00519 145.639C11.2175 146.954 14.9292 146.404 18.1415 145.422C21.9031 144.291 25.4484 142.41 28.927 140.662C32.7885 138.715 36.6 136.667 40.3117 134.454C55.0585 125.716 68.6902 114.63 78.6101 100.516C83.8697 93.0262 88.6799 83.1062 85.8171 73.7688C83.4536 66.0792 76.0136 59.6545 67.6749 61.2856C66.0937 61.5852 66.7594 63.9986 68.3406 63.699C75.7307 62.251 82.172 68.8421 83.7199 75.5997C85.5841 83.772 81.3731 92.1607 76.8625 98.6853C67.9911 111.568 55.7409 121.921 42.5587 130.176C36.0008 134.271 29.16 137.916 22.1528 141.178C16.6602 143.741 5.39204 146.804 5.00922 137.25C4.85942 133.422 6.49056 129.577 7.9719 126.115C9.4033 122.753 11.0844 119.507 12.9652 116.378C16.7767 110.003 21.3872 104.145 26.4637 98.7186C38.1313 86.2354 51.996 76.0657 65.8107 66.1124C67.1256 65.1471 65.8773 62.9667 64.579 63.9154Z" fill="#3457E5"/>
<path d="M81.8903 66.2622C88.9641 71.5717 95.3389 77.7967 100.881 84.6708C101.897 85.9191 103.644 84.1382 102.646 82.9065C96.9533 75.8493 90.3955 69.5578 83.1552 64.0985C81.8736 63.1331 80.6253 65.3135 81.8903 66.2622Z" fill="#3457E5"/>
<path d="M1.21446 146.887C10.968 152.596 20.7049 158.322 30.4584 164.047C31.8399 164.863 33.1049 162.699 31.7234 161.884C21.9699 156.175 12.233 150.449 2.47943 144.723C1.09795 143.908 -0.167009 146.071 1.21446 146.887Z" fill="#3457E5"/>
<path d="M99.3665 82.041C98.9338 97.903 91.9099 112.616 82.4393 125.083C72.6358 137.966 59.8697 150.299 44.6235 156.341C35.6689 159.886 25.8488 161.201 16.3782 159.104C14.8137 158.754 14.1479 161.168 15.7125 161.517C33.1057 165.395 50.3825 158.471 63.9142 147.736C76.8635 137.466 88.3314 123.868 95.2887 108.822C99.1834 100.4 101.597 91.3784 101.847 82.0743C101.913 80.4265 99.4165 80.4265 99.3665 82.041Z" fill="#3457E5"/>
<path d="M24.8848 461.347C24.8848 465.275 24.8848 469.203 24.8848 473.115C24.8848 474.729 27.3814 474.729 27.3814 473.115C27.3814 469.187 27.3814 465.258 27.3814 461.347C27.3814 459.733 24.8848 459.733 24.8848 461.347Z" fill="#3457E5"/>
<path d="M108.137 456.304C108.137 461.63 108.137 466.956 108.137 472.282C108.137 473.897 110.633 473.897 110.633 472.282C110.633 466.956 110.633 461.63 110.633 456.304C110.633 454.689 108.137 454.689 108.137 456.304Z" fill="#3457E5"/>
<path d="M27.6968 476.177C42.1441 480.138 57.1405 481.021 72.0538 481.353C83.8379 481.62 97.403 482.286 106.774 473.83C107.972 472.748 106.191 470.984 105.009 472.066C95.8551 480.338 81.9072 479.107 70.4726 478.824C56.3083 478.474 42.0775 477.542 28.3626 473.764C26.798 473.348 26.1323 475.761 27.6968 476.177Z" fill="#3457E5"/>
<path d="M22.4019 460.432C49.2491 465.425 77.278 469.669 104.125 462.329C105.673 461.913 105.024 459.5 103.459 459.916C77.0617 467.139 49.4655 462.928 23.0677 458.018C21.5031 457.735 20.8374 460.149 22.4019 460.432Z" fill="#3457E5"/>
<path d="M27.4636 457.985C33.9715 454.556 41.8775 455.222 49.0013 455.105C56.7575 454.989 64.5137 454.856 72.2533 454.739C80.0095 454.623 87.7657 454.473 95.5053 454.373C97.7024 454.34 102.246 454.057 102.845 456.986C103.228 458.884 101.447 460.531 99.8495 461.114C97.8855 461.83 95.6551 461.563 93.6245 461.397C92.0267 461.264 92.0267 463.76 93.6245 463.894C96.5872 464.143 99.8994 464.343 102.479 462.562C104.244 461.347 105.542 459.217 105.359 457.036C104.876 451.361 97.4527 451.86 93.4414 451.91C78.2119 452.159 62.9824 452.392 47.7529 452.642C40.496 452.759 32.8064 452.359 26.1986 455.838C24.7839 456.587 26.0488 458.734 27.4636 457.985Z" fill="#3457E5"/>
<path d="M26.114 468.321C20.2885 468.787 14.4797 470.352 9.3699 473.248C7.68883 474.196 5.67487 475.961 6.59031 478.124C7.45581 480.155 10.1522 480.172 11.9997 480.355C25.8977 481.636 39.9121 482.202 53.8434 483.101C61.9824 483.634 70.1215 484.166 78.2605 484.699C79.8584 484.799 79.8584 482.302 78.2605 482.202C63.2307 481.22 48.1843 480.238 33.1546 479.273C25.881 478.807 18.5242 478.591 11.2673 477.792C10.6349 477.725 8.98708 477.808 8.98708 476.743C8.98708 476.244 10.5516 475.478 10.9677 475.245C12.549 474.38 14.23 473.631 15.9277 473.015C19.2233 471.816 22.6354 471.101 26.1307 470.834C27.7119 470.685 27.7285 468.188 26.114 468.321Z" fill="#3457E5"/>
<path d="M5.54297 475.644C5.54297 482.369 5.54297 489.093 5.54297 495.834C5.54297 497.448 8.03961 497.448 8.03961 495.834C8.03961 489.11 8.03961 482.385 8.03961 475.644C8.03961 474.03 5.54297 474.03 5.54297 475.644Z" fill="#3457E5"/>
<path d="M6.70832 499.496C21.4718 503.657 36.8011 506.187 52.1638 506.57C65.1297 506.902 78.8446 505.255 89.6134 497.415C90.895 496.483 89.6467 494.319 88.3484 495.251C77.7127 502.991 64.2808 504.456 51.4814 504.056C36.5681 503.59 21.7214 501.127 7.37409 497.082C5.82617 496.65 5.1604 499.063 6.70832 499.496Z" fill="#3457E5"/>
<path d="M88.0489 480.688C87.6161 486.58 87.7659 492.505 88.5149 498.381C88.5981 499.063 89.0309 499.629 89.7632 499.629C90.3791 499.629 91.0948 499.046 91.0115 498.381C90.2625 492.505 90.1127 486.596 90.5455 480.688C90.662 479.09 88.1654 479.106 88.0489 480.688Z" fill="#3457E5"/>
<path d="M24.8848 505.072C24.8848 511.513 24.8848 517.971 24.8848 524.412C24.8848 526.027 27.3814 526.027 27.3814 524.412C27.3814 517.971 27.3814 511.513 27.3814 505.072C27.3814 503.474 24.8848 503.474 24.8848 505.072Z" fill="#3457E5"/>
<path d="M25.6173 525.294C40.747 530.321 56.792 530.987 72.6041 530.92C84.1718 530.87 99.4013 532.135 107.341 521.849C108.323 520.584 106.159 519.336 105.177 520.584C101.482 525.394 95.4067 527.175 89.6145 527.858C83.2231 528.623 76.6986 528.423 70.2739 528.423C55.4272 528.423 40.4474 527.591 26.2665 522.881C24.7518 522.365 24.0861 524.778 25.6173 525.294Z" fill="#3457E5"/>
<path d="M48.8497 510.215C60.717 510.864 72.5844 511.513 84.4518 512.162C93.0402 512.628 105.24 514.259 109.335 504.439C109.951 502.958 107.537 502.309 106.922 503.773C105.057 508.234 99.9975 509.815 95.5535 510.048C90.4936 510.314 85.3339 509.699 80.2907 509.432C69.8048 508.866 59.3189 508.284 48.833 507.718C47.2352 507.635 47.2352 510.131 48.8497 510.215Z" fill="#3457E5"/>
<path d="M84.186 494.669C89.8617 494.303 97.6013 493.903 100.78 499.779C102.079 502.159 101.613 504.872 100.148 507.052C98.55 509.432 95.9868 510.93 93.2571 511.613C89.5122 512.561 85.5675 512.195 81.7726 511.879C80.1748 511.746 80.1748 514.243 81.7726 514.376C88.9296 514.975 97.2018 515.175 101.962 508.8C103.81 506.32 104.658 503.008 103.61 500.012C102.561 496.982 100.031 494.686 97.1353 493.421C93.0574 491.64 88.5302 491.889 84.186 492.172C82.5882 492.272 82.5715 494.769 84.186 494.669Z" fill="#3457E5"/>
<path d="M101.049 504.189C101.764 510.647 102.48 517.105 103.196 523.58C103.379 525.161 105.875 525.178 105.692 523.58C104.977 517.122 104.261 510.664 103.545 504.189C103.379 502.608 100.866 502.592 101.049 504.189Z" fill="#3457E5"/>
<path d="M28.4122 503.49C28.4621 506.619 31.2916 508.151 34.0546 508.717C38.715 509.699 43.7915 509.649 48.5351 509.932C59.0043 510.548 69.4902 510.714 79.9595 510.498C81.5573 510.464 81.574 507.968 79.9595 508.001C71.1214 508.184 62.2666 508.101 53.4285 507.701C49.0844 507.502 44.7236 507.235 40.3961 506.886C38.1824 506.703 30.9754 507.002 30.9255 503.49C30.8922 501.876 28.3955 501.876 28.4122 503.49Z" fill="#3457E5"/>
<path d="M277.91 18.5931C276.063 25.2008 274.481 34.6049 281.522 38.7826C285.417 41.0961 290.626 41.5954 295.037 42.1447C300.28 42.7938 305.556 42.877 310.816 42.4609C312.414 42.3278 312.414 39.8311 310.816 39.9643C306.372 40.3138 301.895 40.3138 297.451 39.8977C293.14 39.4983 288.413 38.949 284.335 37.3678C276.845 34.4551 278.609 25.334 280.307 19.2422C280.756 17.6943 278.343 17.0452 277.91 18.5931Z" fill="#3457E5"/>
<path d="M281.422 12.6011C284.484 7.72435 289.611 4.14584 295.369 3.41349C300.995 2.68114 306.754 4.9947 310.416 9.30556C313.961 13.4833 314.777 19.2588 312.763 24.3187C310.299 30.5103 304.657 32.5909 298.565 33.8392C291.558 35.2706 283.835 36.2193 277.26 32.724C275.846 31.975 274.581 34.1222 275.995 34.8878C282.62 38.4164 290.21 37.9337 297.367 36.6188C304.241 35.3538 311.032 33.4064 314.41 26.6988C317.19 21.1896 317.007 14.4486 313.512 9.30556C309.966 4.06262 303.758 0.733763 297.417 0.783696C289.993 0.833629 283.153 5.16114 279.258 11.3528C278.409 12.701 280.573 13.9493 281.422 12.6011Z" fill="#3457E5"/>
<path d="M275.414 13.6664C268.373 19.8081 271.103 30.7933 277.494 36.2193C281.256 39.3984 285.916 41.3125 290.66 42.5109C295.953 43.8757 301.828 44.5581 307.021 42.4276C311.715 40.4969 315.343 36.3192 315.693 31.1595C315.809 29.5616 313.313 29.5616 313.196 31.1595C312.813 36.6687 307.704 40.2639 302.627 41.0795C296.968 41.9782 290.66 40.397 285.467 38.1667C280.873 36.2027 276.346 32.9571 274.598 28.0803C273.017 23.7195 273.55 18.5931 277.178 15.4306C278.393 14.3654 276.612 12.6011 275.414 13.6664Z" fill="#3457E5"/>
<path d="M315.144 15.1311C319.422 27.0983 313.397 40.963 300.73 44.2585C294.822 45.7898 288.414 44.7246 283.637 40.8132C278.893 36.9351 276.113 31.0263 276.446 24.9013C276.53 23.3034 274.033 23.3034 273.95 24.9013C273.384 35.6202 281.523 45.6234 292.142 47.1879C302.827 48.7691 313.38 42.5275 317.308 32.5243C319.572 26.7654 319.638 20.2741 317.558 14.4487C317.025 12.9673 314.612 13.6164 315.144 15.1311Z" fill="#3457E5"/>
<path d="M6.79253 278.427C24.4521 278.427 42.1117 278.427 59.7712 278.427C61.3857 278.427 61.3857 275.93 59.7712 275.93C42.1117 275.93 24.4521 275.93 6.79253 275.93C5.19468 275.93 5.17803 278.427 6.79253 278.427Z" fill="#3457E5"/>
<path d="M270.437 272.118C293.989 272.118 317.524 272.118 341.075 272.118C342.69 272.118 342.69 269.622 341.075 269.622C317.524 269.622 293.989 269.622 270.437 269.622C268.839 269.622 268.823 272.118 270.437 272.118Z" fill="#3457E5"/>
<path d="M356.238 296.086C356.238 327.777 356.238 359.468 356.238 391.158C356.238 400.246 356.238 409.35 356.238 418.438C356.238 420.053 358.735 420.053 358.735 418.438C358.735 386.747 358.735 355.057 358.735 323.366C358.735 314.278 358.735 305.174 358.735 296.086C358.735 294.488 356.238 294.488 356.238 296.086Z" fill="#3457E5"/>
<path d="M1.76367 307.454C1.76367 347.134 1.76367 386.814 1.76367 426.494C1.76367 437.696 1.76367 448.897 1.76367 460.099C1.76367 461.713 4.26031 461.713 4.26031 460.099C4.26031 420.419 4.26031 380.739 4.26031 341.059C4.26031 329.857 4.26031 318.656 4.26031 307.454C4.26031 305.84 1.76367 305.84 1.76367 307.454Z" fill="#3457E5"/>
<path d="M9.33984 519.369C9.33984 531.136 9.33984 542.921 9.33984 554.688C9.33984 556.303 11.8365 556.303 11.8365 554.688C11.8365 542.921 11.8365 531.136 11.8365 519.369C11.8365 517.771 9.33984 517.771 9.33984 519.369Z" fill="#3457E5"/>
<path d="M11.8516 549.645C11.8516 557.634 11.8516 565.623 11.8516 573.613C11.8516 575.227 14.3482 575.227 14.3482 573.613C14.3482 565.623 14.3482 557.634 14.3482 549.645C14.3482 548.047 11.8516 548.03 11.8516 549.645Z" fill="#3457E5"/>
<path d="M15.6308 577.391C17.2453 577.391 17.2453 574.894 15.6308 574.894C14.0163 574.894 14.0163 577.391 15.6308 577.391Z" fill="#3457E5"/>
<path d="M14.3632 576.126C26.1307 576.126 37.9148 576.126 49.6823 576.126C51.2968 576.126 51.2968 573.629 49.6823 573.629C37.9148 573.629 26.1307 573.629 14.3632 573.629C12.7487 573.629 12.7487 576.126 14.3632 576.126Z" fill="#3457E5"/>
<path d="M0.5 286C0.5 327.644 0.5 369.288 0.5 410.932C0.5 422.699 0.5 434.45 0.5 446.217C0.5 447.832 2.99664 447.832 2.99664 446.217C2.99664 404.574 2.99664 362.93 2.99664 321.286C2.99664 309.518 2.99664 297.767 2.99664 286C2.99664 284.402 0.5 284.385 0.5 286Z" fill="#3457E5"/>
<path d="M2.38129 283.303C10.6036 277.644 18.3431 271.303 25.5168 264.362C26.6653 263.247 24.901 261.483 23.7525 262.598C16.7453 269.405 9.17215 275.614 1.13297 281.156C-0.181929 282.055 1.06639 284.219 2.38129 283.303Z" fill="#3457E5"/>
<path d="M337.68 254.093C343.139 259.552 348.615 265.028 354.074 270.487C355.206 271.619 356.97 269.855 355.839 268.723C350.379 263.264 344.903 257.788 339.444 252.328C338.296 251.18 336.531 252.944 337.68 254.093Z" fill="#3457E5"/>
<path d="M32.0738 262.465C42.9924 261.4 53.8944 260.334 64.813 259.286C66.3942 259.136 66.4109 256.639 64.813 256.789C53.8944 257.854 42.9924 258.92 32.0738 259.968C30.4759 260.135 30.4593 262.631 32.0738 262.465Z" fill="#3457E5"/>
<path d="M275.48 255.707C297.35 255.707 319.204 255.707 341.075 255.707C342.689 255.707 342.689 253.211 341.075 253.211C319.204 253.211 297.35 253.211 275.48 253.211C273.882 253.211 273.882 255.707 275.48 255.707Z" fill="#3457E5"/>
<path d="M29.5098 318.806C29.5098 351.894 29.5098 384.983 29.5098 418.089C29.5098 427.459 29.5098 436.847 29.5098 446.217C29.5098 447.832 32.0064 447.832 32.0064 446.217C32.0064 413.129 32.0064 380.04 32.0064 346.934C32.0064 337.564 32.0064 328.176 32.0064 318.806C32.0064 317.191 29.5098 317.191 29.5098 318.806Z" fill="#3457E5"/>
<path d="M33.289 533.234C34.9035 533.234 34.9035 530.737 33.289 530.737C31.6745 530.737 31.6745 533.234 33.289 533.234Z" fill="#3457E5"/>
<path d="M76.1796 539.542C102.677 539.542 129.158 539.542 155.656 539.542C157.27 539.542 157.27 537.045 155.656 537.045C129.158 537.045 102.677 537.045 76.1796 537.045C74.5651 537.045 74.5651 539.542 76.1796 539.542Z" fill="#3457E5"/>
<path d="M289.361 530.72C296.086 530.72 302.81 530.72 309.551 530.72C311.165 530.72 311.165 528.224 309.551 528.224C302.826 528.224 296.102 528.224 289.361 528.224C287.747 528.224 287.747 530.72 289.361 530.72Z" fill="#3457E5"/>
<path d="M323.43 312.497C323.43 346.984 323.43 381.455 323.43 415.942C323.43 417.556 325.926 417.556 325.926 415.942C325.926 381.455 325.926 346.984 325.926 312.497C325.926 310.883 323.43 310.883 323.43 312.497Z" fill="#3457E5"/>
<path d="M265.393 297.334C267.007 297.334 267.007 294.838 265.393 294.838C263.778 294.838 263.778 297.334 265.393 297.334Z" fill="#3457E5"/>
<path d="M269.171 297.334C282.62 297.334 296.085 297.334 309.533 297.334C311.148 297.334 311.148 294.838 309.533 294.838C296.085 294.838 282.62 294.838 269.171 294.838C267.573 294.838 267.573 297.334 269.171 297.334Z" fill="#3457E5"/>
<path d="M42.1105 303.643C45.8887 303.643 49.6836 303.643 53.4619 303.643C55.0764 303.643 55.0764 301.146 53.4619 301.146C49.6836 301.146 45.8887 301.146 42.1105 301.146C40.5126 301.146 40.5126 303.643 42.1105 303.643Z" fill="#3457E5"/>
<path d="M139.248 301.129C151.015 301.129 162.799 301.129 174.567 301.129C176.181 301.129 176.181 298.633 174.567 298.633C162.799 298.633 151.015 298.633 139.248 298.633C137.65 298.633 137.633 301.129 139.248 301.129Z" fill="#3457E5"/>
<path d="M42.2107 302.561C40.1967 304.808 38.1994 307.055 36.1854 309.302C34.3879 311.316 32.3905 313.28 30.9092 315.543C29.6942 317.407 29.0118 319.571 29.4112 321.802C29.7774 323.865 31.0756 325.547 33.0397 326.279C34.5377 326.845 35.2034 324.431 33.7054 323.865C32.274 323.333 31.7248 321.602 31.7913 320.187C31.8746 318.223 33.2061 316.475 34.4378 315.027C37.5336 311.382 40.8125 307.87 43.9916 304.308C45.0402 303.143 43.2759 301.362 42.2107 302.561Z" fill="#3457E5"/>
<path d="M119.173 375.962C111.883 379.657 104.892 383.868 100.614 391.075C96.6198 397.816 95.1384 405.755 94.6224 413.495C94.3228 417.872 94.2729 422.283 94.972 426.627C95.721 431.254 97.5185 435.632 99.3328 439.909C100.847 443.504 102.695 446.817 105.774 449.28C108.753 451.66 112.265 453.158 115.777 454.556C125.531 458.468 135.617 461.813 146.203 462.263C147.818 462.329 147.801 459.832 146.203 459.766C137.565 459.4 129.243 456.986 121.187 453.99C113.93 451.277 106.34 448.681 102.695 441.291C98.8501 433.485 96.6697 425.429 96.9693 416.707C97.2189 409.317 98.1843 401.627 101.413 394.887C105.375 386.631 112.548 382.087 120.454 378.092C121.869 377.393 120.604 375.23 119.173 375.962Z" fill="#3457E5"/>
<path d="M130.908 378.941C125.898 381.887 121.82 385.616 118.974 390.725C116.261 395.619 114.796 401.145 114.313 406.704C113.248 418.971 117.043 432.403 125.915 441.191C130.725 445.951 136.883 449.263 143.607 450.212C145.172 450.428 145.854 448.032 144.273 447.799C120.472 444.42 110.835 414.044 120.039 394.121C122.686 388.395 126.763 384.267 132.156 381.088C133.554 380.273 132.289 378.109 130.908 378.941Z" fill="#3457E5"/>
<path d="M119.372 405.189C125.364 405.189 131.356 405.189 137.348 405.189C138.963 405.189 138.963 402.693 137.348 402.693C131.356 402.693 125.364 402.693 119.372 402.693C117.774 402.693 117.774 405.189 119.372 405.189Z" fill="#3457E5"/>
<path d="M123.799 420.336C130.007 420.336 136.199 420.336 142.407 420.336C144.022 420.336 144.022 417.839 142.407 417.839C136.199 417.839 130.007 417.839 123.799 417.839C122.184 417.839 122.184 420.336 123.799 420.336Z" fill="#3457E5"/>
<path d="M134.836 404.89C140.295 404.89 145.771 404.89 151.23 404.89C152.845 404.89 152.845 402.393 151.23 402.393C145.771 402.393 140.295 402.393 134.836 402.393C133.221 402.393 133.221 404.89 134.836 404.89Z" fill="#3457E5"/>
<path d="M153.663 397.683C150.034 401.744 145.973 406.721 147.355 412.579C148.603 417.872 153.746 420.885 158.773 421.767C160.337 422.033 161.019 419.637 159.438 419.354C155.244 418.621 150.817 416.391 149.751 411.914C148.603 407.053 152.448 402.759 155.41 399.447C156.509 398.265 154.745 396.484 153.663 397.683Z" fill="#3457E5"/>
<path d="M156.273 399.364C160.201 398.648 164.196 398.515 168.191 398.615C170.571 398.665 175.031 398.182 176.296 400.829C176.979 402.277 179.143 401.012 178.46 399.564C176.896 396.251 172.585 396.251 169.456 396.151C164.828 396.002 160.201 396.135 155.624 396.967C154.026 397.233 154.692 399.647 156.273 399.364Z" fill="#3457E5"/>
<path d="M159.752 383.452C159.503 388.029 160.102 392.64 161.533 396.984C162.033 398.498 164.446 397.849 163.947 396.318C162.582 392.157 162.016 387.829 162.266 383.452C162.332 381.837 159.836 381.854 159.752 383.452Z" fill="#3457E5"/>
<path d="M358.118 172.253C368.87 182.672 377.559 195.006 383.8 208.621C384.466 210.085 386.63 208.82 385.964 207.356C379.639 193.574 370.784 181.058 359.882 170.489C358.734 169.373 356.953 171.138 358.118 172.253Z" fill="#3457E5"/>
<path d="M360.134 165.961C386.149 156.358 411.199 144.241 434.883 129.777C436.248 128.945 435 126.781 433.618 127.613C410.133 141.96 385.283 154.011 359.468 163.548C357.97 164.114 358.619 166.527 360.134 165.961Z" fill="#3457E5"/>
<path d="M437.894 133.222C450.21 150.149 461.612 167.742 472.014 185.918C472.813 187.316 474.977 186.051 474.178 184.653C463.775 166.477 452.374 148.884 440.057 131.957C439.109 130.675 436.945 131.924 437.894 133.222Z" fill="#3457E5"/>
<path d="M378.226 195.405C381.105 201.597 384.917 207.306 389.511 212.366C390.593 213.564 392.357 211.783 391.275 210.601C386.831 205.708 383.169 200.149 380.39 194.157C379.691 192.692 377.544 193.957 378.226 195.405Z" fill="#3457E5"/>
<path d="M396.1 216.36C410.364 214.662 423.613 209.087 436.762 203.611C450.743 197.785 464.707 191.96 478.688 186.151C480.153 185.535 479.504 183.122 478.023 183.737C464.308 189.463 450.576 195.172 436.861 200.898C423.712 206.374 410.38 212.182 396.1 213.88C394.535 214.047 394.518 216.543 396.1 216.36Z" fill="#3457E5"/>
<path d="M356.754 171.138C363.545 176.747 368.821 183.771 373.215 191.36C375.379 195.089 377.343 198.934 379.207 202.828C380.988 206.523 382.469 210.451 384.533 214.013C386.247 216.976 388.794 219.439 392.406 219.456C394.536 219.473 396.55 218.69 398.498 217.908C401.061 216.876 403.624 215.811 406.187 214.762C415.924 210.768 425.661 206.773 435.381 202.778C446.4 198.268 457.418 193.741 468.42 189.23C469.885 188.631 469.252 186.217 467.754 186.817C448.93 194.54 430.105 202.262 411.264 209.985C406.57 211.916 401.893 213.913 397.166 215.761C395.119 216.56 392.822 217.442 390.642 216.643C388.727 215.944 387.496 214.196 386.53 212.482C384.616 209.087 383.185 205.375 381.504 201.863C379.69 198.068 377.792 194.323 375.712 190.678C371.151 182.705 365.642 175.232 358.518 169.357C357.286 168.358 355.522 170.106 356.754 171.138Z" fill="#3457E5"/>
<path d="M374.546 172.819C383.534 170.888 392.206 167.659 400.295 163.265C401.71 162.499 400.445 160.336 399.03 161.101C391.141 165.395 382.669 168.525 373.881 170.405C372.299 170.738 372.965 173.152 374.546 172.819Z" fill="#3457E5"/>
<path d="M410.981 188.897C427.376 182.639 443.787 176.397 460.182 170.139C461.663 169.573 461.031 167.16 459.516 167.726C443.122 173.984 426.71 180.225 410.316 186.484C408.834 187.05 409.483 189.463 410.981 188.897Z" fill="#3457E5"/>
<path d="M382.636 200.348C397.683 193.707 412.729 187.05 427.776 180.409C429.24 179.759 427.975 177.612 426.511 178.245C411.464 184.886 396.418 191.544 381.371 198.185C379.907 198.834 381.172 200.981 382.636 200.348Z" fill="#3457E5"/>
<path d="M508.916 322.65C494.219 336.349 481.386 351.978 470.784 369.055C469.935 370.419 472.099 371.684 472.947 370.32C483.433 353.409 496.133 337.98 510.68 324.415C511.862 323.316 510.081 321.552 508.916 322.65Z" fill="#3457E5"/>
<path d="M513.01 314.129C507.834 320.67 502.208 326.845 496.183 332.637C495.018 333.752 496.782 335.516 497.947 334.401C503.972 328.626 509.581 322.434 514.774 315.893C515.191 315.36 515.29 314.645 514.774 314.129C514.358 313.696 513.443 313.613 513.01 314.129Z" fill="#3457E5"/>
<path d="M519.948 310.25C530.201 317.191 540.471 324.132 550.541 331.322C555.517 334.884 560.461 338.496 565.337 342.224C569.798 345.619 574.325 349.148 576.988 354.191C577.737 355.606 579.901 354.358 579.152 352.926C576.622 348.149 572.561 344.654 568.35 341.392C563.34 337.53 558.247 333.769 553.12 330.09C542.635 322.567 531.932 315.327 521.23 308.087C519.882 307.188 518.634 309.352 519.948 310.25Z" fill="#3457E5"/>
<path d="M470.418 378.675C479.123 387.147 489.542 393.655 500.96 397.766C502.475 398.315 503.124 395.902 501.626 395.353C490.608 391.391 480.554 385.066 472.182 376.911C471.034 375.779 469.27 377.543 470.418 378.675Z" fill="#3457E5"/>
<path d="M573.63 351.528C566.989 362.097 558.467 371.252 549.546 379.94C540.009 389.211 530.222 398.215 520.552 407.32C519.387 408.418 521.151 410.183 522.316 409.084C532.17 399.813 542.156 390.642 551.843 381.172C560.714 372.5 569.153 363.312 575.778 352.777C576.643 351.428 574.479 350.18 573.63 351.528Z" fill="#3457E5"/>
<path d="M480.519 388.778C489.107 396.135 498.079 403.725 508.964 407.386C518.035 410.432 530.019 410.632 536.527 402.426C537.509 401.178 535.761 399.397 534.763 400.662C528.454 408.601 516.903 407.703 508.348 404.54C498.445 400.862 490.206 393.805 482.3 387.03C481.068 385.982 479.287 387.746 480.519 388.778Z" fill="#3457E5"/>
<path d="M544.802 302.161C540.724 305.84 537.095 309.968 533.95 314.461C533.567 315.011 533.85 315.843 534.399 316.176C535.015 316.542 535.714 316.276 536.113 315.726C539.143 311.416 542.654 307.471 546.566 303.942C547.764 302.844 545.983 301.079 544.802 302.161Z" fill="#3457E5"/>
<path d="M553.787 302.644C558.148 309.884 562.342 317.224 566.337 324.681C568.334 328.409 570.281 332.154 572.179 335.933C573.127 337.813 574.059 339.711 574.992 341.608C576.007 343.705 577.372 345.936 576.689 348.333C576.24 349.88 578.653 350.546 579.103 348.998C580.218 345.087 577.605 341.225 575.94 337.847C573.893 333.702 571.779 329.591 569.615 325.497C565.288 317.324 560.727 309.285 555.951 301.362C555.118 300.014 552.955 301.263 553.787 302.644Z" fill="#3457E5"/>
<path d="M493.236 331.006C501.142 336.232 508.266 342.574 514.408 349.781C515.456 351.012 517.204 349.231 516.172 348.016C509.897 340.643 502.574 334.185 494.501 328.842C493.153 327.96 491.888 330.124 493.236 331.006Z" fill="#3457E5"/>
<path d="M487.229 329.108C484.649 331.072 482.518 333.552 481.153 336.515C479.755 339.544 479.173 342.79 482.119 345.054C483.534 346.135 485.181 346.951 486.729 347.817C488.41 348.765 490.091 349.714 491.789 350.646C495.318 352.577 498.88 354.474 502.458 356.305C503.89 357.037 505.155 354.89 503.723 354.141C497.781 351.095 491.906 347.916 486.097 344.588C484.998 343.955 483.617 343.356 482.851 342.307C481.869 340.976 482.718 339.095 483.317 337.763C484.482 335.217 486.28 332.953 488.494 331.255C489.742 330.307 488.51 328.126 487.229 329.108Z" fill="#3457E5"/>
<path d="M516.555 349.581C513.876 351.928 510.78 354.657 507.085 355.057C504.405 355.356 501.043 354.275 500.078 351.495C499.545 349.98 497.132 350.629 497.664 352.161C498.946 355.839 502.824 357.753 506.585 357.587C511.213 357.387 514.991 354.241 518.303 351.345C519.535 350.28 517.754 348.532 516.555 349.581Z" fill="#3457E5"/>
<path d="M503.505 348.932C504.936 349.464 506.717 349.015 507.749 347.883C508.315 347.284 508.199 346.368 507.5 345.919C506.9 345.536 506.285 345.187 505.602 344.954C504.903 344.704 504.038 344.621 503.322 344.854C502.157 345.237 501.275 346.418 501.291 347.667C501.308 348.466 501.707 349.198 502.406 349.597C502.972 349.914 503.805 349.747 504.121 349.148C504.437 348.549 504.287 347.783 503.671 347.434C503.621 347.4 503.572 347.384 503.538 347.351C503.621 347.417 503.705 347.484 503.788 347.55C503.721 347.5 503.671 347.45 503.621 347.384C503.688 347.467 503.755 347.55 503.821 347.633C503.771 347.567 503.738 347.517 503.705 347.45C503.755 347.55 503.788 347.65 503.838 347.75C503.805 347.65 503.771 347.567 503.755 347.467C503.771 347.584 503.788 347.683 503.805 347.8C503.788 347.683 503.788 347.567 503.805 347.45C503.788 347.567 503.771 347.667 503.755 347.783C503.771 347.633 503.821 347.484 503.871 347.351C503.821 347.45 503.788 347.55 503.738 347.65C503.805 347.5 503.888 347.35 503.988 347.217C503.921 347.301 503.854 347.384 503.788 347.467C503.871 347.351 503.971 347.251 504.087 347.167C504.004 347.234 503.921 347.301 503.838 347.367C503.938 347.284 504.038 347.234 504.154 347.184C504.054 347.234 503.954 347.267 503.854 347.317C503.988 347.267 504.121 347.234 504.254 347.217C504.137 347.234 504.038 347.251 503.921 347.267C504.137 347.234 504.354 347.234 504.57 347.267C504.454 347.251 504.354 347.234 504.237 347.217C504.554 347.267 504.836 347.351 505.136 347.467C505.036 347.417 504.936 347.384 504.836 347.334C505.319 347.534 505.769 347.817 506.218 348.099C506.135 347.45 506.052 346.785 505.968 346.135C505.868 346.252 505.752 346.352 505.635 346.435C505.719 346.368 505.802 346.302 505.885 346.235C505.685 346.385 505.486 346.502 505.253 346.602C505.352 346.552 505.452 346.518 505.552 346.468C505.303 346.568 505.053 346.635 504.803 346.668C504.92 346.651 505.02 346.635 505.136 346.618C504.886 346.651 504.653 346.651 504.404 346.618C504.52 346.635 504.62 346.651 504.737 346.668C504.537 346.635 504.337 346.585 504.137 346.518C503.854 346.418 503.438 346.502 503.172 346.651C502.906 346.801 502.673 347.101 502.606 347.4C502.54 347.717 502.556 348.083 502.739 348.366C502.939 348.649 503.189 348.815 503.505 348.932Z" fill="#3457E5"/>
<path d="M508.402 315.943C503.958 313.529 502.393 307.97 505.056 303.643C507.836 299.115 513.245 297.384 518.255 296.985C520.968 296.785 523.781 296.752 526.494 296.968C529.823 297.235 531.205 299.665 532.503 302.428C534.966 307.654 535.865 313.479 535.349 319.205C535.199 320.803 537.696 320.786 537.846 319.205C538.345 313.746 537.579 308.187 535.515 303.093C534.617 300.88 533.568 298.5 531.904 296.752C530.206 294.954 527.976 294.522 525.595 294.422C520.269 294.222 514.66 294.239 509.717 296.502C505.855 298.267 502.36 301.679 501.461 305.956C500.446 310.766 502.859 315.76 507.154 318.107C508.568 318.872 509.817 316.725 508.402 315.943Z" fill="#3457E5"/>
</svg>
