<svg width="64" height="64" viewBox="0 0 64 64" fill="none" xmlns="http://www.w3.org/2000/svg">
<path d="M32.7304 9.66998L3.90039 26.81H61.5604L32.7304 9.66998Z" stroke="#1A2B6B" stroke-width="2" stroke-miterlimit="10" stroke-linecap="round" stroke-linejoin="round"/>
<path d="M32.7313 22.14C34.4545 22.14 35.8513 20.7432 35.8513 19.02C35.8513 17.2969 34.4545 15.9 32.7313 15.9C31.0082 15.9 29.6113 17.2969 29.6113 19.02C29.6113 20.7432 31.0082 22.14 32.7313 22.14Z" stroke="#1A2B6B" stroke-width="2" stroke-miterlimit="10" stroke-linecap="round" stroke-linejoin="round"/>
<path d="M15.5796 26.81H9.34961V29.93H15.5796V26.81Z" stroke="#1A2B6B" stroke-width="2" stroke-miterlimit="10" stroke-linecap="round" stroke-linejoin="round"/>
<path d="M28.8296 26.81H22.5996V29.93H28.8296V26.81Z" stroke="#1A2B6B" stroke-width="2" stroke-miterlimit="10" stroke-linecap="round" stroke-linejoin="round"/>
<path d="M42.0698 26.81H35.8398V29.93H42.0698V26.81Z" stroke="#1A2B6B" stroke-width="2" stroke-miterlimit="10" stroke-linecap="round" stroke-linejoin="round"/>
<path d="M56.1011 26.81H49.8711V29.93H56.1011V26.81Z" stroke="#1A2B6B" stroke-width="2" stroke-miterlimit="10" stroke-linecap="round" stroke-linejoin="round"/>
<path d="M56.8803 55.64H8.57031V61.09H56.8803V55.64Z" stroke="#1A2B6B" stroke-width="2" stroke-miterlimit="10" stroke-linecap="round" stroke-linejoin="round"/>
<path d="M4.67969 61.09H60.7797" stroke="#1A2B6B" stroke-width="2" stroke-miterlimit="10" stroke-linecap="round" stroke-linejoin="round"/>
<path d="M12.4707 30.7V55.64" stroke="#1A2B6B" stroke-width="2" stroke-miterlimit="10" stroke-linecap="round" stroke-linejoin="round"/>
<path d="M25.7207 30.7V55.64" stroke="#1A2B6B" stroke-width="2" stroke-miterlimit="10" stroke-linecap="round" stroke-linejoin="round"/>
<path d="M38.9609 30.7V55.64" stroke="#1A2B6B" stroke-width="2" stroke-miterlimit="10" stroke-linecap="round" stroke-linejoin="round"/>
<path d="M52.9805 30.7V55.64" stroke="#1A2B6B" stroke-width="2" stroke-miterlimit="10" stroke-linecap="round" stroke-linejoin="round"/>
<path d="M33.0195 9.57V1" stroke="#1A2B6B" stroke-width="2" stroke-miterlimit="10" stroke-linecap="round" stroke-linejoin="round"/>
<path d="M40.5195 6.36H34.0895C33.4995 6.36 33.0195 5.88 33.0195 5.29V2.07C33.0195 1.48 33.4995 1 34.0895 1H40.5195C41.1095 1 41.5895 1.48 41.5895 2.07V5.28C41.5895 5.88 41.1095 6.36 40.5195 6.36Z" fill="#3457E5"/>
</svg>
